<svg width="277" height="324" viewBox="0 0 277 324" fill="none" xmlns="http://www.w3.org/2000/svg">
<path d="M130.721 29.0605L115.419 18.694C110.315 20.6415 101.323 27.0388 97.492 35.4543C95.3374 40.0532 93.8908 44.9516 93.2014 49.9833C92.3848 55.3911 90.7446 60.9599 86.8709 64.8197C84.1087 67.5626 80.139 69.6367 79.2941 73.444C78.3327 77.8206 82.1002 82.5321 80.2967 86.6441C78.8464 89.9322 74.6589 90.881 72.0675 93.3689C68.2987 96.9734 68.5278 103.004 69.4547 108.136C71.6916 120.521 58.5812 134.998 65.3461 145.608C75.2298 140.395 102.886 132.637 112.77 127.423C115.047 126.429 117.07 124.933 118.687 123.046C120.814 120.12 120.781 116.226 120.729 112.617C120.3 84.4428 123.661 56.339 130.721 29.0605Z" fill="#263238"/>
<path d="M190.336 246.951L183.797 236.915L90.5382 243.744C90.5382 243.744 77.7629 281.513 77.7489 284.093C77.735 286.673 75.7922 293.656 75.7922 293.656L199.413 309.065C199.413 309.065 207.545 276.344 190.336 246.951Z" fill="#263238"/>
<path d="M110.869 265.801C110.681 266.13 110.442 266.428 110.161 266.684C109.673 267.203 108.963 267.967 107.986 268.875C106.862 269.901 105.627 270.797 104.303 271.548C102.637 272.424 100.816 272.965 98.9425 273.14C95.5763 273.501 92.1739 273.317 88.8665 272.594C87.8696 272.386 86.885 272.123 85.9173 271.806C85.5461 271.727 85.1919 271.583 84.8708 271.381C84.8915 271.28 86.4394 271.702 88.9622 272.126C92.2333 272.694 95.5672 272.809 98.8695 272.466C100.669 272.264 102.415 271.727 104.017 270.883C105.321 270.17 106.552 269.332 107.692 268.38C109.654 266.844 110.793 265.719 110.869 265.801Z" fill="#455A64"/>
<path d="M133.892 300.982C133.804 300.564 133.772 300.137 133.796 299.71C133.777 298.902 133.769 297.715 133.806 296.246C133.852 293.317 134.032 289.281 134.442 284.831C134.851 280.381 135.411 276.357 135.895 273.478C136.187 272.048 136.337 270.932 136.528 270.062C136.573 269.63 136.686 269.209 136.863 268.812C136.792 270.391 136.629 271.964 136.373 273.523C136.019 276.416 135.527 280.427 135.12 284.864C134.713 289.302 134.457 293.322 134.282 296.238C134.259 297.826 134.129 299.411 133.892 300.982Z" fill="#455A64"/>
<path d="M142.732 300.684C142.542 300.645 143.136 293.94 144.061 285.681C144.987 277.423 145.804 270.723 146.05 270.747C146.295 270.771 145.645 277.491 144.72 285.75C143.794 294.009 142.911 300.708 142.732 300.684Z" fill="#455A64"/>
<path d="M194.743 264.196C194.435 264.512 194.09 264.791 193.716 265.027C193.033 265.533 192.032 266.237 190.669 267.039C189.158 267.999 187.557 268.811 185.89 269.462C183.817 270.268 181.605 270.658 179.382 270.608C177.143 270.51 174.973 269.807 173.103 268.572C171.606 267.57 170.251 266.371 169.075 265.006C168.282 264.101 167.544 263.149 166.864 262.155C166.588 261.809 166.355 261.429 166.173 261.025C166.267 260.952 167.377 262.484 169.38 264.673C170.566 265.96 171.912 267.09 173.384 268.036C175.176 269.181 177.24 269.831 179.364 269.919C181.497 269.973 183.619 269.615 185.616 268.865C187.268 268.253 188.864 267.499 190.387 266.612C193.103 265.125 194.683 264.104 194.743 264.196Z" fill="#455A64"/>
<path d="M196.464 290.116C196.05 290.319 195.612 290.468 195.16 290.561L191.562 291.591C188.522 292.471 184.343 293.765 179.826 295.424C175.309 297.082 171.227 298.804 168.326 300.095L164.914 301.638C164.509 301.862 164.075 302.03 163.625 302.138C163.987 301.853 164.378 301.606 164.791 301.402C165.565 300.967 166.702 300.369 168.126 299.659C175.588 296.01 183.413 293.154 191.471 291.137C193.012 290.754 194.244 290.466 195.146 290.308C195.574 290.182 196.018 290.118 196.464 290.116Z" fill="#455A64"/>
<path d="M118.15 263.325C118.061 263.307 117.882 262.638 117.697 261.48C117.467 259.961 117.394 258.422 117.477 256.888C117.571 255.332 117.972 253.811 118.656 252.411C118.906 251.811 119.291 251.276 119.78 250.848C118.93 252.782 118.381 254.834 118.153 256.934C118.07 258.432 118.075 259.934 118.168 261.431C118.27 262.059 118.264 262.7 118.15 263.325Z" fill="#455A64"/>
<path d="M123.397 264.729C123.209 264.101 123.125 263.447 123.147 262.793C123.043 261.219 123.079 259.638 123.257 258.071C123.378 257.214 123.594 256.375 123.901 255.566C124.18 254.895 124.553 254.265 125.008 253.697C125.785 252.736 126.455 252.359 126.495 252.42C126.164 252.964 125.794 253.483 125.387 253.973C124.589 255.262 124.086 256.712 123.912 258.218C123.669 259.987 123.687 261.638 123.626 262.838C123.655 263.476 123.578 264.115 123.397 264.729Z" fill="#455A64"/>
<path d="M156.599 268.331C157.23 265.172 157.214 261.918 156.552 258.765C155.89 255.613 154.596 252.627 152.747 249.988C153.49 250.607 154.114 251.355 154.589 252.197C155.849 254.164 156.742 256.343 157.227 258.628C157.708 260.912 157.767 263.264 157.401 265.57C157.3 266.53 157.028 267.466 156.599 268.331Z" fill="#455A64"/>
<path d="M162.875 267.481C162.886 264.52 162.681 261.562 162.261 258.63C161.602 255.758 160.734 252.937 159.665 250.191C160.23 250.871 160.679 251.64 160.992 252.466C162.769 256.365 163.56 260.641 163.294 264.917C163.288 265.788 163.147 266.653 162.875 267.481Z" fill="#455A64"/>
<path d="M141.365 258.532C141.365 258.532 141.663 258.237 142.383 258.068C143.408 257.85 144.478 258.027 145.379 258.562C146.018 258.927 146.547 259.459 146.909 260.101C147.313 260.856 147.455 261.724 147.313 262.569C147.16 263.495 146.732 264.353 146.085 265.033C145.733 265.404 145.311 265.702 144.843 265.909C144.375 266.117 143.871 266.23 143.36 266.241C142.378 266.242 141.424 265.917 140.648 265.316C139.871 264.716 139.316 263.875 139.069 262.925C138.906 262.092 139 261.228 139.339 260.45C139.583 259.75 140.015 259.132 140.587 258.662C141.452 258.072 142.502 257.818 143.541 257.949C143.733 257.955 143.922 258.002 144.095 258.085C144.269 258.168 144.423 258.286 144.549 258.432C144.21 258.332 143.863 258.261 143.512 258.22C142.56 258.195 141.628 258.498 140.872 259.076C140.4 259.506 140.052 260.053 139.862 260.662C139.583 261.342 139.513 262.089 139.66 262.809C139.894 263.607 140.379 264.309 141.043 264.811C141.707 265.312 142.515 265.586 143.347 265.593C144.173 265.531 144.954 265.191 145.562 264.628C146.17 264.066 146.57 263.314 146.696 262.495C146.833 261.779 146.735 261.038 146.417 260.382C146.109 259.822 145.667 259.347 145.131 258.999C144.328 258.478 143.369 258.249 142.417 258.351C141.746 258.412 141.456 258.603 141.365 258.532Z" fill="#455A64"/>
<path d="M35.2958 112.242C35.2958 112.242 32.0811 113.542 35.786 120.369C39.4909 127.196 42.0348 130.56 42.0348 130.56C42.0348 130.56 42.7004 132.155 41.3536 132.438C40.0069 132.722 37.0192 132.325 36.462 133.986C35.9047 135.648 37.1689 137.304 39.7334 138.656C42.2979 140.008 47.8036 143.187 48.3042 143.476C48.8047 143.765 49.2897 144.508 48.4074 144.838C47.525 145.168 40.8428 146.05 41.4465 149.193C42.0502 152.335 49.8109 154.972 50.6571 155.251C51.5034 155.529 51.6891 155.901 51.653 156.36C51.6169 156.819 49.3207 156.902 47.4321 157.227C45.5436 157.552 43.4073 158.259 43.9078 160.044C44.4084 161.83 49.0678 165.488 60.1567 166.288L65.3167 166.319L68.0308 161.887C73.1908 152.052 72.5768 146.169 71.3229 144.802C70.069 143.434 68.3456 144.869 67.0659 146.298C65.7862 147.727 64.522 149.616 64.0989 149.42C63.6758 149.224 63.4952 148.863 63.6861 147.991C63.877 147.119 65.7501 139.152 63.4281 136.974C61.1061 134.797 56.8027 140.008 56.0442 140.586C55.2856 141.164 54.9296 140.344 54.9451 139.781C54.9606 139.219 55.1824 132.851 55.3888 129.977C55.5952 127.103 54.9296 125.152 53.1546 124.729C51.3795 124.306 50.1979 127.072 49.2433 128.063C48.2887 129.053 47.2928 127.645 47.2928 127.645C47.2928 127.645 45.7809 123.718 41.947 116.958C38.1132 110.199 35.239 112.314 35.239 112.314" fill="#EBEBEB"/>
<path d="M65.6168 167.527C62.8201 162.552 58.0006 153.626 53.8262 145.984C49.6517 138.342 45.8437 131.427 43.0882 126.438L39.8013 120.535C39.4195 119.838 39.115 119.301 38.9086 118.925C38.8106 118.749 38.7332 118.61 38.6816 118.507C38.6548 118.46 38.6307 118.412 38.6093 118.362L38.6971 118.502L38.9396 118.909L39.8581 120.504C40.6527 121.886 41.7931 123.894 43.1863 126.386C45.983 131.36 49.7859 138.254 53.9655 145.906C58.1451 153.559 62.9491 162.48 65.7148 167.47" fill="#E0E0E0"/>
<path d="M87.6811 119.603C86.812 120.308 63.8763 129.085 59.1246 136.784C54.3729 144.484 52.3342 179.441 51.9808 185.484C51.6274 191.527 58.6042 216.045 58.6042 216.045C58.6042 216.045 54.2313 225.114 56.1877 231.656C57.4967 235.723 59.9687 239.317 63.2982 241.994L85.9753 234.996L85.0398 175.154L87.6811 119.603Z" fill="#4169E1"/>
<path d="M72.1023 182.562L69.2666 188.825C69.313 188.846 69.3562 188.862 69.3956 188.884C69.5537 188.974 69.7148 189.06 69.8662 189.161C70.0082 189.253 70.1424 189.357 70.2675 189.472C70.3915 189.595 70.5085 189.726 70.6179 189.862C70.7063 189.962 70.7883 190.068 70.8632 190.178C70.8916 190.222 70.887 190.291 70.8879 190.349C70.8868 190.411 70.8799 190.473 70.8673 190.533C70.8474 190.637 70.8157 190.738 70.8011 190.842C70.7889 190.931 70.7974 191.022 70.7911 191.11C70.7862 191.181 70.7714 191.25 70.7614 191.321C70.7339 191.516 70.7077 191.712 70.6781 191.907C70.6624 192.013 70.644 192.119 70.6248 192.231C70.6174 192.275 70.558 192.289 70.5343 192.251C70.4573 192.12 70.3837 191.986 70.3036 191.857C70.2026 191.696 70.1024 191.533 69.9891 191.381C69.8916 191.249 69.7766 191.13 69.6678 191.007C69.579 190.907 69.4892 190.807 69.3976 190.709C69.3563 190.663 69.3112 190.621 69.2628 190.583C69.1704 190.513 69.0745 190.447 68.9794 190.381C68.8221 190.272 68.6642 190.164 68.5058 190.056C68.4673 190.03 68.4268 190.008 68.3845 189.988C68.0137 189.821 67.6444 189.649 67.2711 189.486C67.1837 189.446 67.179 189.408 67.2155 189.328C68.5748 186.33 69.933 183.332 71.2901 180.333C71.3315 180.241 71.4469 180.211 71.5276 180.271L71.6392 180.354C71.6453 180.358 71.6507 180.364 71.6571 180.368C71.8066 180.458 71.9603 180.542 72.1047 180.639C72.22 180.716 72.3242 180.811 72.4333 180.897C72.4453 180.907 72.4566 180.917 72.4693 180.925C72.5812 180.999 72.7 181.064 72.8041 181.147C72.9494 181.264 73.0808 181.397 73.2232 181.517C73.3511 181.625 73.4925 181.717 73.6152 181.831C73.7582 181.962 73.886 182.11 74.0235 182.247C74.1143 182.338 74.2144 182.42 74.3017 182.514C74.4467 182.671 74.5853 182.834 74.7255 182.995C74.8229 183.108 74.9214 183.221 75.0143 183.336C75.1071 183.452 75.1964 183.58 75.2869 183.702C75.3838 183.834 75.4847 183.962 75.5754 184.098C75.6566 184.22 75.7284 184.349 75.8024 184.477C75.881 184.615 75.9614 184.749 76.0359 184.889C76.071 184.955 76.0885 185.03 76.1248 185.094C76.3306 185.46 76.456 185.858 76.5944 186.248C76.6637 186.445 76.6943 186.655 76.7444 186.858C76.7716 186.969 76.8096 187.078 76.8309 187.189C76.8575 187.332 76.8739 187.476 76.8914 187.62C76.9089 187.763 76.9255 187.9 76.934 188.041C76.9405 188.148 76.9317 188.256 76.9322 188.363C76.9327 188.534 76.9369 188.704 76.9365 188.874C76.9364 188.935 76.9314 188.997 76.9214 189.058C76.8944 189.221 76.8615 189.384 76.8355 189.548C76.8156 189.668 76.8019 189.788 76.7855 189.909C76.7854 189.917 76.7847 189.924 76.7836 189.932C76.7369 190.087 76.6847 190.241 76.6442 190.397C76.545 190.78 76.3713 191.133 76.2037 191.488C76.109 191.685 76.0029 191.876 75.8858 192.06C75.7785 192.232 75.6566 192.395 75.5357 192.557C75.4429 192.682 75.3429 192.801 75.2428 192.92C75.1632 193.014 75.0826 193.109 74.9949 193.195C74.9073 193.282 74.8093 193.359 74.7176 193.442C74.6346 193.518 74.5562 193.598 74.4713 193.671C74.2885 193.829 74.1056 193.987 73.9175 194.136C73.7418 194.277 73.5609 194.411 73.3786 194.54C73.2958 194.599 73.202 194.643 73.1148 194.696C73.0276 194.749 72.9479 194.805 72.8634 194.857C72.7777 194.915 72.6892 194.967 72.5982 195.016C72.45 195.089 72.2952 195.148 72.1475 195.221C71.9408 195.322 71.693 195.226 71.6288 195.005C71.6001 194.907 71.5718 194.81 71.5432 194.712C71.5303 194.669 71.5051 194.629 71.4955 194.586C71.4401 194.338 71.3849 194.091 71.3351 193.842C71.3033 193.682 71.2758 193.522 71.2558 193.36C71.234 193.182 71.2252 193.005 71.2131 192.826C71.1998 192.634 71.1844 192.442 71.1788 192.249C71.1754 192.132 71.1881 192.015 71.1946 191.898C71.2032 191.747 71.2072 191.597 71.2247 191.446C71.2375 191.342 71.2678 191.24 71.288 191.137C71.3135 191.005 71.3366 190.874 71.3603 190.742C71.3614 190.726 71.3634 190.711 71.3663 190.696C71.5208 190.215 71.7124 189.747 71.9393 189.296C72.0198 189.133 72.1009 188.963 72.2194 188.828C72.3111 188.723 72.3588 188.602 72.4301 188.491C72.5367 188.324 72.654 188.164 72.7757 188.008C72.8974 187.852 73.0328 187.706 73.1582 187.553C73.2239 187.471 73.2776 187.381 73.3415 187.298C73.3997 187.225 73.4655 187.159 73.5279 187.09C73.5902 187.021 73.6553 186.947 73.7209 186.877C73.7864 186.806 73.8574 186.734 73.9248 186.665C73.9629 186.625 74.0009 186.586 74.0383 186.546C74.0839 186.497 74.1295 186.449 74.1811 186.393C74.2215 186.35 74.2913 186.348 74.3199 186.4C74.4733 186.794 74.6248 187.19 74.7744 187.586C74.8046 187.665 74.8287 187.747 74.8629 187.825C74.9017 187.911 74.8796 187.957 74.7981 188.009C74.6807 188.089 74.5697 188.178 74.4659 188.275C74.3588 188.369 74.2546 188.467 74.1571 188.571C74.0879 188.645 74.0323 188.732 73.9696 188.812C73.8808 188.926 73.7907 189.04 73.7012 189.154C73.6907 189.165 73.6812 189.177 73.6729 189.19C73.5537 189.414 73.4253 189.635 73.3199 189.865C73.2302 190.065 73.1539 190.271 73.0915 190.481C73.0516 190.612 73.047 190.754 73.0208 190.89C73.0005 190.997 72.9667 191.101 72.9481 191.207C72.9282 191.322 72.9195 191.438 72.9053 191.554C72.8959 191.63 72.8833 191.706 72.8772 191.783C72.871 191.867 72.8717 191.951 72.8674 192.035C72.8645 192.1 72.8561 192.166 72.8547 192.23C72.8496 192.434 72.8445 192.638 72.8435 192.842C72.8489 192.888 72.8587 192.933 72.873 192.976C73.0758 192.829 73.2745 192.695 73.4596 192.544C73.5905 192.43 73.714 192.309 73.8291 192.179C73.9225 192.08 73.9986 191.963 74.0979 191.87C74.2452 191.732 74.3297 191.553 74.4457 191.396C74.7115 191.034 74.8335 190.608 75.0237 190.214C75.0964 190.062 75.1037 189.88 75.143 189.712C75.1706 189.593 75.2089 189.476 75.2299 189.356C75.2465 189.261 75.2418 189.164 75.2491 189.068C75.2535 188.999 75.2616 188.931 75.2735 188.863C75.3193 188.622 75.3155 188.381 75.2942 188.136C75.2717 187.879 75.272 187.619 75.2534 187.361C75.2443 187.267 75.2241 187.175 75.1934 187.086C75.0913 186.767 74.9954 186.445 74.8749 186.133C74.8 185.939 74.6847 185.761 74.5878 185.576C74.5385 185.482 74.4944 185.384 74.4384 185.294C74.3365 185.131 74.2294 184.971 74.1219 184.81C74.0018 184.632 73.8837 184.453 73.7548 184.283C73.6659 184.164 73.5584 184.061 73.464 183.946C73.3695 183.832 73.2782 183.712 73.1817 183.602C73.0938 183.502 72.9949 183.412 72.9016 183.317C72.8655 183.28 72.8322 183.241 72.796 183.204C72.655 183.06 72.5165 182.913 72.3703 182.775C72.2924 182.699 72.2013 182.64 72.1023 182.562Z" fill="#FDF5E6"/>
<path d="M80.9827 186.333C80.8644 186.314 80.7592 186.292 80.6531 186.279C80.5563 186.267 80.4579 186.263 80.3601 186.256C80.2341 186.246 80.1082 186.235 79.982 186.228C79.9025 186.224 79.8224 186.226 79.7422 186.226C79.5208 186.228 79.3007 186.229 79.0798 186.229C78.9312 186.229 78.7823 186.217 78.6347 186.226C78.4186 186.241 78.2047 186.273 77.9874 186.292C77.8537 186.304 77.72 186.307 77.5861 186.315C77.5822 186.315 77.5782 186.311 77.5748 186.313C77.5017 186.342 77.418 186.396 77.3546 186.327C77.3055 186.273 77.2929 186.186 77.2619 186.115C77.0867 185.714 76.9112 185.313 76.7355 184.911C76.7277 184.886 76.7232 184.86 76.7221 184.834C76.896 184.803 77.0589 184.772 77.2224 184.745C77.4434 184.709 77.6611 184.664 77.8822 184.643C78.1701 184.616 78.4597 184.606 78.7489 184.595C78.9325 184.588 79.1164 184.585 79.3 184.591C79.4307 184.595 79.5594 184.621 79.6907 184.632C79.8121 184.641 79.9343 184.642 80.0556 184.649C80.1488 184.655 80.2413 184.665 80.3345 184.673C80.4276 184.681 80.5225 184.69 80.6161 184.7C80.6939 184.708 80.7725 184.712 80.8489 184.726C80.9467 184.745 81.0423 184.775 81.1402 184.792C81.2524 184.812 81.3657 184.821 81.4788 184.836C81.567 184.848 81.6565 184.857 81.743 184.878C81.8677 184.907 81.9893 184.95 82.1142 184.98C82.2634 185.013 82.4134 185.042 82.5634 185.072C82.5702 185.075 82.5791 185.072 82.5863 185.074L83.0934 185.234C83.2166 185.273 83.278 185.411 83.2247 185.529L79.1324 194.568C79.0767 194.691 78.9328 194.714 78.8118 194.654C78.6138 194.556 78.4134 194.462 78.209 194.379C77.9422 194.27 77.6733 194.166 77.4 194.077C77.2608 194.031 77.1097 194.022 76.9641 193.995C76.7995 193.965 76.636 193.922 76.4696 193.908C76.2898 193.895 76.1092 193.893 75.9291 193.902C75.7288 193.909 75.529 193.929 75.3288 193.94C75.277 193.943 75.2696 193.859 75.3051 193.821C75.3817 193.74 75.4529 193.664 75.5257 193.588C75.621 193.489 75.7282 193.391 75.8242 193.288C75.9332 193.171 76.0367 193.048 76.141 192.926C76.1842 192.877 76.2241 192.825 76.2605 192.77C76.3348 192.655 76.3925 192.526 76.4824 192.424C76.5214 192.38 76.6223 192.376 76.6944 192.379C76.8213 192.385 76.9477 192.4 77.0726 192.424C77.1766 192.441 77.2792 192.466 77.3794 192.499C77.6027 192.573 77.8235 192.655 78.0457 192.732C78.0581 192.736 78.0708 192.738 78.0835 192.739L80.9827 186.333Z" fill="#FDF5E6"/>
<path d="M103.715 103.588L100.024 113.258L82.5924 122.185C82.5924 122.185 74.4278 144.053 73.1103 167.691C73.1103 167.691 82.8931 231.637 82.9068 234.275C82.92 239.3 90.9493 245.147 90.9493 245.147C90.9493 245.147 124.318 252.304 136.144 252.997C147.969 253.69 179.282 241.843 182.415 240.059C185.547 238.275 190.834 227.706 190.834 227.706L182.106 166.27L189.196 125.757L160.251 111.663L151.519 101.521L103.715 103.588Z" fill="#4169E1"/>
<path d="M180.456 165.441L177.284 171.54C177.329 171.564 177.371 171.582 177.409 171.606C177.562 171.705 177.719 171.799 177.864 171.908C178.001 172.008 178.129 172.119 178.248 172.24C178.365 172.37 178.475 172.507 178.577 172.649C178.66 172.754 178.736 172.864 178.805 172.978C178.83 173.024 178.822 173.092 178.82 173.15C178.815 173.212 178.805 173.273 178.789 173.333C178.764 173.435 178.727 173.535 178.706 173.638C178.689 173.726 178.693 173.817 178.682 173.905C178.673 173.975 178.654 174.044 178.641 174.113C178.603 174.307 178.566 174.501 178.526 174.695C178.504 174.799 178.48 174.904 178.455 175.015C178.445 175.058 178.385 175.069 178.363 175.03C178.294 174.895 178.227 174.757 178.154 174.625C178.062 174.458 177.971 174.29 177.866 174.131C177.776 173.994 177.668 173.87 177.566 173.741C177.483 173.636 177.398 173.531 177.312 173.428C177.273 173.38 177.231 173.336 177.184 173.296C177.096 173.221 177.004 173.15 176.912 173.078C176.761 172.961 176.61 172.844 176.457 172.728C176.42 172.7 176.381 172.675 176.34 172.654C175.979 172.466 175.619 172.275 175.255 172.092C175.17 172.047 175.168 172.009 175.208 171.931C176.729 169.011 178.248 166.091 179.766 163.17C179.813 163.081 179.929 163.058 180.007 163.122L180.114 163.21C180.119 163.215 180.124 163.222 180.131 163.226C180.275 163.324 180.424 163.416 180.563 163.521C180.674 163.604 180.773 163.704 180.877 163.796C180.888 163.806 180.899 163.818 180.911 163.826C181.019 163.906 181.134 163.977 181.234 164.066C181.372 164.19 181.496 164.331 181.632 164.458C181.754 164.573 181.89 164.673 182.006 164.793C182.142 164.932 182.262 165.086 182.391 165.231C182.477 165.327 182.573 165.413 182.655 165.512C182.791 165.677 182.92 165.847 183.052 166.016C183.143 166.134 183.235 166.251 183.321 166.372C183.408 166.493 183.49 166.625 183.574 166.752C183.663 166.889 183.757 167.023 183.84 167.163C183.915 167.289 183.979 167.423 184.046 167.554C184.117 167.696 184.19 167.835 184.257 167.978C184.289 168.045 184.302 168.121 184.335 168.188C184.52 168.564 184.624 168.968 184.741 169.366C184.799 169.566 184.819 169.777 184.857 169.983C184.879 170.095 184.911 170.205 184.926 170.318C184.945 170.462 184.953 170.607 184.963 170.751C184.973 170.896 184.982 171.033 184.983 171.175C184.983 171.282 184.969 171.389 184.963 171.496C184.954 171.666 184.949 171.836 184.94 172.006C184.936 172.067 184.928 172.129 184.915 172.189C184.879 172.351 184.837 172.512 184.802 172.674C184.776 172.792 184.756 172.912 184.733 173.031C184.732 173.039 184.731 173.047 184.73 173.054C184.674 173.207 184.614 173.357 184.565 173.511C184.445 173.888 184.252 174.231 184.066 174.577C183.961 174.768 183.844 174.953 183.717 175.131C183.601 175.296 183.47 175.452 183.341 175.608C183.241 175.727 183.135 175.841 183.029 175.954C182.944 176.044 182.858 176.134 182.766 176.216C182.674 176.297 182.572 176.369 182.476 176.447C182.389 176.518 182.306 176.594 182.217 176.662C182.026 176.81 181.835 176.957 181.639 177.097C181.456 177.227 181.268 177.351 181.079 177.47C180.993 177.525 180.897 177.563 180.807 177.612C180.717 177.66 180.635 177.711 180.547 177.759C180.459 177.812 180.367 177.86 180.274 177.903C180.122 177.968 179.964 178.019 179.813 178.083C179.601 178.173 179.359 178.064 179.306 177.84C179.283 177.74 179.26 177.641 179.237 177.543C179.226 177.499 179.203 177.458 179.196 177.414C179.154 177.164 179.113 176.913 179.076 176.663C179.053 176.501 179.035 176.339 179.024 176.176C179.011 175.998 179.012 175.82 179.01 175.641C179.007 175.449 179.002 175.256 179.007 175.063C179.01 174.947 179.029 174.83 179.042 174.714C179.059 174.563 179.071 174.414 179.096 174.264C179.115 174.161 179.151 174.061 179.176 173.959C179.209 173.829 179.239 173.698 179.27 173.568C179.272 173.552 179.275 173.537 179.279 173.522C179.459 173.051 179.676 172.594 179.927 172.156C180.016 171.997 180.106 171.832 180.232 171.704C180.329 171.604 180.384 171.486 180.461 171.378C180.576 171.218 180.702 171.065 180.832 170.915C180.962 170.766 181.105 170.628 181.239 170.481C181.309 170.404 181.367 170.316 181.436 170.237C181.498 170.168 181.567 170.105 181.633 170.039C181.699 169.974 181.768 169.903 181.837 169.837C181.907 169.77 181.982 169.702 182.053 169.637C182.093 169.599 182.133 169.561 182.172 169.524C182.221 169.478 182.269 169.432 182.323 169.379C182.366 169.338 182.436 169.34 182.462 169.393C182.593 169.796 182.723 170.199 182.851 170.602C182.877 170.683 182.896 170.766 182.926 170.846C182.96 170.934 182.936 170.979 182.852 171.026C182.73 171.1 182.614 171.182 182.505 171.274C182.393 171.362 182.284 171.454 182.181 171.553C182.108 171.623 182.048 171.706 181.981 171.783C181.886 171.892 181.79 172.001 181.694 172.11C181.683 172.12 181.673 172.132 181.664 172.144C181.533 172.362 181.392 172.575 181.275 172.799C181.174 172.994 181.087 173.195 181.013 173.402C180.966 173.53 180.954 173.672 180.92 173.806C180.894 173.912 180.855 174.014 180.83 174.119C180.804 174.232 180.789 174.348 180.769 174.463C180.755 174.539 180.738 174.614 180.728 174.69C180.717 174.774 180.714 174.858 180.705 174.941C180.698 175.006 180.686 175.072 180.681 175.136C180.665 175.339 180.649 175.542 180.637 175.746C180.64 175.792 180.647 175.837 180.659 175.881C180.87 175.746 181.075 175.623 181.268 175.481C181.405 175.375 181.535 175.261 181.657 175.138C181.756 175.043 181.838 174.931 181.942 174.844C182.097 174.714 182.191 174.54 182.315 174.389C182.601 174.042 182.746 173.623 182.957 173.24C183.038 173.093 183.055 172.911 183.103 172.745C183.137 172.628 183.182 172.513 183.209 172.394C183.231 172.301 183.232 172.203 183.244 172.108C183.252 172.04 183.264 171.972 183.28 171.905C183.339 171.667 183.348 171.425 183.34 171.18C183.331 170.922 183.346 170.663 183.341 170.404C183.337 170.31 183.322 170.217 183.296 170.126C183.212 169.802 183.134 169.475 183.03 169.157C182.966 168.96 182.861 168.775 182.774 168.585C182.73 168.489 182.691 168.389 182.64 168.296C182.547 168.127 182.449 167.961 182.35 167.795C182.24 167.611 182.132 167.426 182.012 167.249C181.93 167.126 181.828 167.016 181.74 166.897C181.652 166.778 181.568 166.653 181.477 166.538C181.395 166.433 181.301 166.338 181.213 166.238C181.179 166.199 181.148 166.158 181.114 166.119C180.981 165.968 180.85 165.814 180.712 165.667C180.638 165.588 180.551 165.524 180.456 165.441Z" fill="#FDF5E6"/>
<path d="M189.118 169.689C189.001 169.663 188.897 169.636 188.792 169.617C188.696 169.6 188.598 169.591 188.501 169.578C188.375 169.562 188.25 169.543 188.125 169.53C188.045 169.521 187.965 169.519 187.885 169.515C187.664 169.505 187.444 169.493 187.224 169.481C187.075 169.474 186.927 169.453 186.779 169.455C186.563 169.457 186.347 169.478 186.129 169.485C185.995 169.49 185.862 169.486 185.728 169.486C185.724 169.486 185.72 169.482 185.716 169.484C185.642 169.509 185.555 169.558 185.496 169.486C185.45 169.429 185.442 169.342 185.415 169.269C185.262 168.859 185.108 168.449 184.955 168.038C184.948 168.013 184.945 167.987 184.945 167.96C185.121 167.939 185.285 167.917 185.45 167.899C185.672 167.875 185.892 167.842 186.114 167.833C186.403 167.822 186.693 167.828 186.982 167.832C187.166 167.835 187.35 167.842 187.533 167.858C187.663 167.87 187.79 167.902 187.921 167.92C188.041 167.936 188.163 167.943 188.284 167.957C188.377 167.968 188.469 167.983 188.561 167.996C188.654 168.01 188.748 168.024 188.841 168.039C188.918 168.051 188.996 168.059 189.072 168.078C189.169 168.101 189.262 168.137 189.359 168.159C189.47 168.185 189.583 168.2 189.695 168.222C189.782 168.238 189.871 168.252 189.956 168.277C190.079 168.313 190.198 168.363 190.322 168.399C190.469 168.441 190.617 168.477 190.765 168.516C190.772 168.519 190.781 168.516 190.788 168.519L191.286 168.706C191.406 168.752 191.46 168.893 191.401 169.008L186.823 177.811C186.76 177.931 186.616 177.946 186.498 177.88C186.306 177.771 186.111 177.666 185.911 177.572C185.65 177.449 185.388 177.331 185.12 177.226C184.983 177.173 184.833 177.156 184.689 177.121C184.526 177.082 184.365 177.03 184.2 177.007C184.021 176.984 183.841 176.972 183.66 176.972C183.46 176.968 183.259 176.978 183.059 176.977C183.007 176.978 183.004 176.893 183.042 176.858C183.123 176.78 183.198 176.708 183.275 176.637C183.375 176.543 183.488 176.451 183.589 176.353C183.704 176.242 183.814 176.125 183.925 176.009C183.971 175.962 184.014 175.912 184.053 175.86C184.133 175.749 184.198 175.623 184.293 175.526C184.335 175.485 184.436 175.486 184.507 175.493C184.634 175.506 184.759 175.528 184.883 175.558C184.986 175.581 185.087 175.612 185.185 175.65C185.404 175.736 185.62 175.83 185.838 175.919C185.85 175.923 185.862 175.926 185.875 175.928L189.118 169.689Z" fill="#FDF5E6"/>
<path d="M188.664 125.844C188.664 125.844 204.363 135.238 206.72 146.263C209.077 157.289 216.193 208.827 213.318 217.465C210.444 226.102 205.552 235.645 197.793 234.532C190.034 233.419 182.852 223.818 182.852 223.818L178.261 211.214L181.028 199.563L179.598 166.743L188.664 125.844Z" fill="#4169E1"/>
<path d="M103.36 108.616C103.344 108.692 129.54 158.572 129.54 158.572L142.385 119.949L152.99 101.809L105.149 103.737L103.36 108.616Z" fill="#FFBE9D"/>
<g opacity="0.3">
<path d="M176.093 120.295C174.243 118.835 171.596 119.15 169.309 119.697C156.353 122.859 142.128 126.999 136.087 138.877L134.395 146.438C134.546 151.24 138.661 155.219 143.271 156.584C147.881 157.949 152.856 157.148 157.49 155.882C161.652 154.757 165.705 153.266 169.604 151.428C171.764 150.407 174.039 149.08 174.879 146.84C175.994 143.773 173.902 140.472 173.949 137.213C173.978 134.175 175.831 131.496 177.011 128.693C178.19 125.89 178.49 122.169 176.093 120.295Z" fill="black"/>
</g>
<path d="M73.0599 167.747C73.1583 168.005 73.2227 168.276 73.2514 168.551L73.6716 170.877C74.007 172.909 74.4878 175.841 75.0364 179.473C76.1843 186.745 77.4058 196.814 78.8608 207.932C79.6086 213.489 80.3575 218.782 81.063 223.579C81.4145 225.983 81.7234 228.274 82.1091 230.382C82.4639 232.339 83.0022 234.259 83.7171 236.115C84.7769 238.794 86.3981 241.216 88.4717 243.216C89.9646 244.616 90.9317 245.235 90.8808 245.291C90.6317 245.172 90.3963 245.027 90.1788 244.857C89.5165 244.422 88.8888 243.937 88.3012 243.405C86.1112 241.445 84.3961 239.012 83.2858 236.29C82.5219 234.419 81.9436 232.478 81.5592 230.494C81.1407 228.352 80.8165 226.072 80.4371 223.675C79.7063 218.873 78.9295 213.587 78.197 208.02C76.7722 196.948 75.4897 186.919 74.5497 179.597C74.0718 176.007 73.6795 173.093 73.4027 170.967L73.1067 168.613C73.0624 168.327 73.0467 168.037 73.0599 167.747Z" fill="#263238"/>
<path d="M70.8726 165.111C68.2554 162.909 65.7864 160.538 63.482 158.011C61.0086 155.646 58.6943 153.121 56.5542 150.451C59.1775 152.648 61.6516 155.016 63.9601 157.542C66.4285 159.91 68.7377 162.438 70.8726 165.111Z" fill="#263238"/>
<path d="M79.8669 144.655L77.2637 151.018C77.3109 151.038 77.3545 151.051 77.3948 151.072C77.556 151.157 77.7203 151.237 77.8752 151.332C78.0205 151.419 78.1585 151.518 78.2877 151.627C78.4162 151.746 78.5379 151.872 78.6522 152.005C78.7443 152.101 78.8301 152.204 78.909 152.311C78.939 152.354 78.937 152.423 78.94 152.482C78.9412 152.544 78.9365 152.605 78.9262 152.666C78.9101 152.77 78.8822 152.873 78.8714 152.977C78.8625 153.066 78.8744 153.157 78.8713 153.246C78.869 153.316 78.8567 153.386 78.8493 153.457C78.8291 153.653 78.8101 153.85 78.7877 154.046C78.7759 154.152 78.7614 154.259 78.7464 154.371C78.7405 154.416 78.6818 154.432 78.6567 154.395C78.5749 154.267 78.4964 154.136 78.4116 154.01C78.3047 153.852 78.1986 153.694 78.0798 153.545C77.9775 153.417 77.8582 153.303 77.7449 153.184C77.6525 153.087 77.5591 152.99 77.464 152.896C77.421 152.852 77.3744 152.811 77.3246 152.775C77.2297 152.709 77.1314 152.646 77.034 152.584C76.8727 152.48 76.711 152.378 76.5487 152.277C76.5093 152.252 76.468 152.231 76.425 152.213C76.0483 152.059 75.6729 151.901 75.2939 151.752C75.2051 151.716 75.199 151.677 75.2325 151.596C76.4806 148.55 77.7274 145.504 78.9732 142.457C79.0112 142.364 79.1254 142.33 79.2083 142.387L79.3228 142.465C79.3291 142.469 79.3347 142.475 79.3412 142.479C79.494 142.563 79.6506 142.641 79.7985 142.733C79.9166 142.806 80.0242 142.897 80.1364 142.979C80.1488 142.988 80.1604 142.998 80.1734 143.006C80.2879 143.075 80.4091 143.136 80.5161 143.215C80.6656 143.326 80.8019 143.455 80.9485 143.57C81.0804 143.673 81.2251 143.76 81.3518 143.869C81.4996 143.995 81.6328 144.137 81.7752 144.27C81.8693 144.357 81.9723 144.435 82.063 144.526C82.2137 144.677 82.3582 144.835 82.5042 144.992C82.6057 145.1 82.7084 145.209 82.8054 145.321C82.9024 145.434 82.9964 145.558 83.0913 145.677C83.193 145.805 83.2986 145.93 83.3942 146.062C83.4798 146.181 83.5563 146.308 83.6349 146.432C83.7186 146.567 83.8039 146.699 83.8835 146.836C83.921 146.9 83.9413 146.974 83.9799 147.037C84.199 147.395 84.339 147.788 84.4917 148.173C84.5681 148.367 84.6064 148.576 84.664 148.777C84.6952 148.887 84.7373 148.994 84.7627 149.105C84.7945 149.246 84.8162 149.39 84.8389 149.533C84.8617 149.676 84.8834 149.812 84.8971 149.953C84.9075 150.059 84.9026 150.167 84.9071 150.274C84.9138 150.445 84.9243 150.614 84.9301 150.784C84.9324 150.846 84.9296 150.908 84.9219 150.969C84.9009 151.133 84.874 151.297 84.8541 151.462C84.8386 151.582 84.8293 151.703 84.8174 151.824C84.8175 151.832 84.8172 151.84 84.8163 151.847C84.7754 152.004 84.7289 152.16 84.6942 152.318C84.6091 152.704 84.4485 153.063 84.2941 153.424C84.2067 153.624 84.1077 153.819 83.9975 154.007C83.8966 154.183 83.7808 154.35 83.6659 154.517C83.5778 154.645 83.4822 154.768 83.3866 154.89C83.3105 154.987 83.2335 155.085 83.149 155.175C83.0646 155.264 82.9696 155.345 82.881 155.431C82.8008 155.51 82.7254 155.593 82.6433 155.67C82.4664 155.834 82.2894 155.998 82.107 156.155C81.9366 156.301 81.7607 156.442 81.5832 156.578C81.5027 156.64 81.4106 156.687 81.3254 156.743C81.2403 156.8 81.1627 156.858 81.0801 156.914C80.9966 156.974 80.9101 157.03 80.8209 157.082C80.6755 157.16 80.523 157.225 80.3781 157.303C80.1753 157.412 79.9241 157.326 79.8518 157.107C79.8195 157.01 79.7876 156.914 79.7554 156.818C79.741 156.775 79.7143 156.736 79.7031 156.693C79.6387 156.448 79.5744 156.202 79.5155 155.956C79.4778 155.797 79.4444 155.638 79.4185 155.476C79.3901 155.3 79.3748 155.123 79.3561 154.945C79.3358 154.753 79.3133 154.562 79.3006 154.37C79.2929 154.253 79.3013 154.135 79.3035 154.018C79.3066 153.867 79.305 153.717 79.3169 153.565C79.3259 153.461 79.3524 153.358 79.3688 153.254C79.3894 153.122 79.4077 152.989 79.4265 152.856C79.427 152.841 79.4285 152.826 79.4309 152.81C79.5675 152.324 79.7418 151.85 79.952 151.391C80.0263 151.224 80.1011 151.051 80.2146 150.913C80.3024 150.804 80.3456 150.682 80.4128 150.567C80.5132 150.398 80.6244 150.233 80.7403 150.073C80.8562 149.912 80.9861 149.761 81.1058 149.603C81.1685 149.52 81.2188 149.427 81.2796 149.342C81.3351 149.268 81.3984 149.199 81.4582 149.127C81.518 149.056 81.5803 148.98 81.6432 148.907C81.7061 148.835 81.7744 148.759 81.8392 148.688C81.8758 148.647 81.9124 148.606 81.9483 148.565C81.992 148.515 82.0358 148.464 82.0853 148.407C82.1241 148.362 82.1938 148.358 82.2243 148.408C82.3921 148.797 82.558 149.187 82.7222 149.577C82.7552 149.655 82.7823 149.736 82.8193 149.813C82.8613 149.897 82.841 149.944 82.7614 149.999C82.6471 150.083 82.5393 150.176 82.4392 150.277C82.3356 150.375 82.2351 150.477 82.1416 150.585C82.0751 150.661 82.0227 150.75 81.9631 150.832C81.8785 150.95 81.7926 151.066 81.7074 151.183C81.6973 151.195 81.6883 151.207 81.6804 151.221C81.5695 151.449 81.4493 151.674 81.3525 151.908C81.2702 152.111 81.2015 152.32 81.147 152.532C81.1119 152.665 81.1125 152.806 81.0914 152.943C81.075 153.051 81.045 153.156 81.0304 153.263C81.0148 153.378 81.0103 153.495 81.0004 153.611C80.9938 153.688 80.984 153.764 80.9807 153.841C80.9776 153.925 80.9814 154.009 80.9803 154.093C80.9798 154.159 80.9738 154.225 80.9747 154.289C80.9771 154.493 80.9796 154.697 80.986 154.901C80.9931 154.946 81.0046 154.991 81.0204 155.034C81.2177 154.879 81.4113 154.738 81.5907 154.58C81.7174 154.462 81.8363 154.336 81.9466 154.202C82.0363 154.099 82.108 153.98 82.2038 153.883C82.3459 153.74 82.4238 153.558 82.5339 153.396C82.7862 153.025 82.8925 152.595 83.068 152.194C83.1351 152.04 83.1357 151.857 83.1687 151.688C83.192 151.568 83.2259 151.45 83.2424 151.329C83.2556 151.234 83.2473 151.137 83.251 151.04C83.253 150.972 83.2586 150.903 83.2679 150.835C83.3048 150.592 83.2921 150.351 83.2619 150.108C83.2299 149.851 83.2206 149.592 83.1926 149.335C83.18 149.241 83.1564 149.15 83.1224 149.062C83.0087 148.747 82.901 148.429 82.769 148.122C82.6871 147.931 82.5654 147.757 82.4617 147.575C82.4089 147.483 82.3613 147.387 82.302 147.299C82.1942 147.139 82.0812 146.984 81.9678 146.827C81.8413 146.654 81.7167 146.479 81.5817 146.314C81.4885 146.199 81.3772 146.099 81.2786 145.988C81.18 145.877 81.0843 145.761 80.9838 145.654C80.8923 145.558 80.7902 145.471 80.6935 145.38C80.656 145.344 80.6212 145.306 80.5838 145.271C80.4375 145.132 80.2937 144.991 80.1426 144.858C80.0619 144.785 79.9687 144.729 79.8669 144.655Z" fill="#FDF5E6"/>
<path d="M88.8802 148.097C88.7612 148.082 88.6553 148.064 88.5488 148.055C88.4516 148.046 88.3531 148.046 88.2551 148.042C88.1289 148.037 88.0026 148.03 87.8762 148.028C87.7966 148.027 87.7167 148.032 87.6366 148.035C87.4153 148.045 87.1954 148.054 86.9747 148.062C86.8262 148.069 86.6769 148.061 86.5298 148.076C86.3143 148.099 86.1018 148.139 85.8853 148.166C85.7522 148.183 85.6187 148.191 85.4851 148.203C85.4813 148.204 85.4771 148.2 85.4738 148.202C85.4018 148.234 85.3202 148.291 85.2543 148.224C85.2033 148.172 85.1874 148.086 85.1539 148.015C84.964 147.621 84.7738 147.227 84.5835 146.832C84.5748 146.807 84.5693 146.781 84.5672 146.755C84.7399 146.718 84.9015 146.681 85.064 146.648C85.2834 146.604 85.4993 146.551 85.7195 146.522C86.0062 146.484 86.2953 146.464 86.5839 146.442C86.767 146.428 86.9507 146.418 87.1345 146.418C87.2652 146.417 87.3947 146.438 87.5264 146.444C87.6481 146.449 87.7702 146.445 87.8917 146.448C87.985 146.45 88.0779 146.457 88.1712 146.462C88.2646 146.466 88.3597 146.472 88.4537 146.478C88.5318 146.483 88.6104 146.485 88.6873 146.496C88.7857 146.51 88.8823 146.538 88.9808 146.551C89.0936 146.566 89.2073 146.571 89.3208 146.583C89.4094 146.591 89.4991 146.597 89.5863 146.614C89.712 146.639 89.8351 146.678 89.9611 146.703C90.1114 146.731 90.2624 146.753 90.4134 146.778C90.4203 146.781 90.4291 146.777 90.4363 146.779L90.949 146.92C91.0735 146.955 91.14 147.091 91.091 147.21L87.3343 156.394C87.2831 156.519 87.1402 156.547 87.017 156.492C86.8156 156.401 86.6119 156.314 86.4045 156.239C86.1339 156.14 85.8614 156.046 85.5849 155.967C85.4441 155.926 85.2928 155.922 85.1463 155.901C84.9808 155.877 84.8157 155.84 84.649 155.832C84.4687 155.826 84.2883 155.83 84.1086 155.846C83.9087 155.861 83.7097 155.889 83.5102 155.907C83.4585 155.912 83.448 155.828 83.4821 155.789C83.5556 155.705 83.624 155.626 83.6939 155.548C83.7855 155.445 83.8891 155.344 83.9811 155.237C84.0858 155.115 84.1847 154.989 84.2844 154.863C84.3257 154.812 84.3637 154.759 84.3981 154.703C84.4681 154.585 84.521 154.454 84.6072 154.349C84.6445 154.304 84.7452 154.296 84.8173 154.296C84.9444 154.298 85.0712 154.308 85.1969 154.327C85.3015 154.341 85.4049 154.362 85.5063 154.391C85.7321 154.457 85.9558 154.531 86.1807 154.6C86.1932 154.602 86.2059 154.604 86.2187 154.605L88.8802 148.097Z" fill="#FDF5E6"/>
<path d="M128.421 171.86L126.278 178.393C126.327 178.408 126.371 178.419 126.413 178.437C126.58 178.51 126.749 178.578 126.911 178.662C127.062 178.738 127.207 178.827 127.343 178.927C127.48 179.036 127.61 179.154 127.734 179.278C127.833 179.367 127.925 179.463 128.012 179.565C128.045 179.606 128.048 179.675 128.055 179.733C128.06 179.794 128.06 179.856 128.054 179.918C128.046 180.023 128.025 180.127 128.022 180.232C128.019 180.321 128.038 180.411 128.041 180.5C128.044 180.57 128.036 180.641 128.034 180.712C128.028 180.909 128.023 181.107 128.015 181.304C128.01 181.411 128.003 181.518 127.997 181.631C127.994 181.676 127.936 181.696 127.909 181.662C127.818 181.54 127.73 181.414 127.637 181.295C127.519 181.145 127.402 180.994 127.273 180.855C127.162 180.735 127.034 180.629 126.913 180.518C126.814 180.428 126.714 180.338 126.612 180.251C126.566 180.21 126.517 180.173 126.465 180.141C126.365 180.081 126.263 180.026 126.161 179.97C125.993 179.879 125.824 179.788 125.655 179.699C125.614 179.677 125.571 179.659 125.527 179.644C125.14 179.517 124.755 179.387 124.366 179.265C124.275 179.235 124.266 179.197 124.294 179.114C125.321 175.987 126.347 172.859 127.373 169.731C127.404 169.636 127.515 169.593 127.602 169.644L127.722 169.714C127.728 169.718 127.734 169.724 127.741 169.727C127.9 169.8 128.061 169.866 128.215 169.948C128.338 170.012 128.452 170.095 128.57 170.169C128.583 170.177 128.595 170.186 128.609 170.193C128.728 170.254 128.853 170.306 128.966 170.377C129.123 170.478 129.268 170.596 129.422 170.7C129.561 170.794 129.712 170.87 129.846 170.97C130.002 171.085 130.145 171.217 130.297 171.339C130.397 171.42 130.505 171.49 130.602 171.574C130.763 171.715 130.919 171.862 131.075 172.007C131.184 172.108 131.295 172.21 131.399 172.315C131.504 172.42 131.607 172.537 131.71 172.649C131.821 172.769 131.935 172.886 132.04 173.011C132.133 173.124 132.219 173.245 132.306 173.363C132.399 173.492 132.494 173.617 132.583 173.748C132.625 173.809 132.65 173.882 132.693 173.942C132.937 174.284 133.105 174.666 133.285 175.039C133.375 175.227 133.428 175.432 133.5 175.629C133.539 175.736 133.588 175.84 133.622 175.949C133.664 176.088 133.695 176.23 133.728 176.37C133.761 176.511 133.793 176.646 133.816 176.785C133.834 176.89 133.837 176.998 133.849 177.105C133.868 177.274 133.891 177.443 133.909 177.612C133.915 177.673 133.917 177.735 133.914 177.797C133.904 177.962 133.889 178.128 133.881 178.294C133.874 178.415 133.874 178.536 133.87 178.658C133.871 178.665 133.871 178.673 133.871 178.681C133.841 178.84 133.806 178.998 133.783 179.158C133.725 179.55 133.591 179.92 133.463 180.291C133.39 180.496 133.305 180.698 133.208 180.894C133.12 181.076 133.017 181.251 132.914 181.425C132.835 181.559 132.749 181.689 132.662 181.817C132.593 181.92 132.523 182.022 132.445 182.118C132.368 182.214 132.278 182.301 132.196 182.393C132.122 182.478 132.053 182.566 131.976 182.648C131.811 182.824 131.647 183.001 131.476 183.17C131.316 183.329 131.151 183.481 130.984 183.63C130.908 183.698 130.819 183.751 130.738 183.813C130.657 183.875 130.584 183.939 130.506 184.001C130.427 184.067 130.344 184.129 130.259 184.187C130.12 184.275 129.972 184.351 129.833 184.439C129.639 184.562 129.382 184.494 129.294 184.281C129.255 184.186 129.217 184.093 129.178 183.999C129.16 183.958 129.131 183.921 129.117 183.879C129.035 183.639 128.953 183.399 128.877 183.157C128.828 183.001 128.783 182.844 128.746 182.685C128.705 182.511 128.677 182.336 128.646 182.16C128.612 181.97 128.576 181.781 128.549 181.59C128.533 181.474 128.533 181.356 128.527 181.239C128.519 181.088 128.507 180.938 128.508 180.787C128.51 180.682 128.529 180.577 128.538 180.472C128.549 180.339 128.558 180.205 128.567 180.071C128.566 180.056 128.567 180.041 128.568 180.025C128.67 179.531 128.809 179.045 128.986 178.572C129.049 178.401 129.111 178.223 129.214 178.076C129.294 177.962 129.328 177.837 129.387 177.718C129.475 177.541 129.575 177.369 129.679 177.201C129.783 177.033 129.902 176.873 130.01 176.707C130.066 176.619 130.11 176.523 130.164 176.434C130.214 176.356 130.273 176.283 130.327 176.207C130.382 176.131 130.439 176.051 130.496 175.974C130.554 175.897 130.616 175.818 130.676 175.742C130.709 175.698 130.743 175.655 130.776 175.611C130.816 175.558 130.856 175.504 130.901 175.444C130.937 175.396 131.006 175.387 131.04 175.435C131.235 175.811 131.428 176.188 131.62 176.565C131.659 176.641 131.691 176.719 131.734 176.794C131.782 176.875 131.765 176.923 131.689 176.984C131.581 177.076 131.48 177.176 131.388 177.284C131.291 177.389 131.199 177.498 131.113 177.612C131.052 177.693 131.006 177.785 130.953 177.872C130.877 177.995 130.799 178.117 130.723 178.24C130.713 178.252 130.705 178.265 130.698 178.279C130.604 178.515 130.5 178.748 130.42 178.988C130.353 179.197 130.299 179.41 130.26 179.625C130.234 179.76 130.245 179.902 130.234 180.04C130.225 180.148 130.203 180.255 130.196 180.363C130.188 180.479 130.192 180.596 130.191 180.712C130.19 180.789 130.185 180.866 130.187 180.943C130.19 181.027 130.2 181.111 130.205 181.195C130.209 181.26 130.208 181.326 130.213 181.39C130.23 181.593 130.247 181.797 130.268 182C130.279 182.044 130.293 182.088 130.312 182.129C130.498 181.962 130.681 181.807 130.849 181.636C130.966 181.51 131.076 181.375 131.177 181.234C131.259 181.125 131.322 181.001 131.41 180.898C131.542 180.745 131.607 180.557 131.705 180.388C131.93 180 132.005 179.564 132.152 179.151C132.208 178.992 132.195 178.81 132.216 178.639C132.231 178.518 132.256 178.397 132.264 178.276C132.27 178.18 132.255 178.083 132.252 177.987C132.249 177.919 132.25 177.85 132.254 177.782C132.274 177.537 132.244 177.297 132.196 177.056C132.146 176.803 132.118 176.545 132.072 176.29C132.053 176.198 132.023 176.108 131.983 176.023C131.847 175.717 131.717 175.407 131.563 175.11C131.468 174.926 131.334 174.761 131.217 174.587C131.158 174.499 131.104 174.407 131.038 174.323C130.92 174.172 130.796 174.024 130.671 173.876C130.533 173.713 130.396 173.548 130.25 173.392C130.148 173.284 130.03 173.192 129.924 173.089C129.818 172.985 129.714 172.876 129.606 172.777C129.508 172.687 129.4 172.608 129.297 172.524C129.257 172.491 129.22 172.456 129.18 172.423C129.024 172.295 128.871 172.164 128.71 172.042C128.625 171.975 128.528 171.926 128.421 171.86Z" fill="#FDF5E6"/>
<path d="M137.657 174.65C137.537 174.643 137.43 174.633 137.323 174.631C137.226 174.63 137.127 174.636 137.029 174.64C136.903 174.644 136.777 174.646 136.651 174.653C136.571 174.657 136.492 174.668 136.412 174.677C136.192 174.703 135.973 174.727 135.754 174.751C135.606 174.768 135.457 174.771 135.311 174.797C135.098 174.834 134.888 174.889 134.674 174.932C134.543 174.958 134.41 174.976 134.278 174.998C134.274 174.999 134.27 174.995 134.267 174.998C134.197 175.035 134.12 175.097 134.049 175.035C133.995 174.987 133.973 174.902 133.934 174.834C133.717 174.454 133.499 174.075 133.281 173.695C133.27 173.67 133.263 173.645 133.259 173.619C133.429 173.57 133.587 173.521 133.747 173.477C133.963 173.417 134.174 173.349 134.392 173.304C134.675 173.246 134.962 173.205 135.248 173.163C135.43 173.136 135.612 173.113 135.796 173.099C135.926 173.089 136.057 173.101 136.188 173.097C136.31 173.094 136.432 173.081 136.553 173.075C136.646 173.071 136.739 173.071 136.833 173.069C136.926 173.067 137.022 173.066 137.116 173.066C137.194 173.065 137.273 173.061 137.35 173.067C137.449 173.074 137.548 173.094 137.647 173.1C137.76 173.108 137.874 173.105 137.988 173.108C138.077 173.11 138.167 173.109 138.255 173.12C138.382 173.136 138.508 173.166 138.635 173.182C138.787 173.199 138.94 173.211 139.092 173.225C139.099 173.227 139.108 173.223 139.115 173.224L139.636 173.328C139.763 173.354 139.839 173.485 139.799 173.607L136.707 183.036C136.665 183.164 136.524 183.202 136.397 183.156C136.19 183.08 135.981 183.008 135.768 182.948C135.491 182.869 135.213 182.794 134.932 182.735C134.788 182.704 134.637 182.711 134.489 182.701C134.323 182.688 134.155 182.663 133.988 182.667C133.808 182.673 133.628 182.691 133.45 182.719C133.252 182.748 133.056 182.79 132.858 182.823C132.807 182.831 132.79 182.749 132.821 182.707C132.889 182.618 132.951 182.534 133.015 182.451C133.099 182.343 133.196 182.234 133.28 182.121C133.375 181.992 133.465 181.859 133.556 181.727C133.593 181.673 133.627 181.617 133.658 181.559C133.719 181.436 133.762 181.301 133.841 181.191C133.875 181.143 133.975 181.128 134.047 181.123C134.174 181.116 134.301 181.117 134.428 181.127C134.533 181.133 134.637 181.147 134.741 181.168C134.971 181.218 135.199 181.276 135.428 181.328C135.441 181.33 135.454 181.331 135.466 181.331L137.657 174.65Z" fill="#FDF5E6"/>
<path d="M98.5129 213.814L96.2733 220.314C96.3214 220.331 96.3658 220.342 96.4072 220.361C96.5729 220.436 96.7414 220.507 96.9015 220.593C97.0515 220.672 97.1948 220.763 97.33 220.865C97.465 220.976 97.5936 221.095 97.7153 221.221C97.8127 221.312 97.9041 221.41 97.989 221.513C98.0213 221.554 98.0232 221.623 98.0295 221.681C98.0342 221.743 98.033 221.804 98.0261 221.866C98.016 221.971 97.9939 222.075 97.989 222.18C97.9852 222.269 98.0021 222.359 98.0041 222.448C98.0057 222.518 97.9974 222.589 97.9941 222.66C97.9849 222.857 97.977 223.054 97.9658 223.252C97.96 223.358 97.9515 223.465 97.9429 223.579C97.9396 223.623 97.8818 223.643 97.8547 223.607C97.7658 223.484 97.6801 223.357 97.5883 223.237C97.4727 223.085 97.3578 222.933 97.2307 222.791C97.1214 222.669 96.9958 222.562 96.876 222.449C96.7782 222.358 96.6796 222.266 96.5792 222.177C96.5338 222.136 96.485 222.098 96.4333 222.065C96.3348 222.004 96.2331 221.947 96.1323 221.89C95.9655 221.796 95.7982 221.703 95.6305 221.611C95.5898 221.589 95.5473 221.57 95.5034 221.555C95.1185 221.422 94.7349 221.286 94.348 221.158C94.2573 221.127 94.249 221.089 94.2779 221.006C95.352 217.895 96.4249 214.783 97.4965 211.67C97.5293 211.575 97.6413 211.535 97.7273 211.587L97.846 211.659C97.8526 211.662 97.8585 211.668 97.8653 211.671C98.0225 211.747 98.1833 211.816 98.3362 211.899C98.4581 211.966 98.5707 212.05 98.6874 212.126C98.7003 212.134 98.7124 212.144 98.7258 212.151C98.8441 212.213 98.9685 212.267 99.0799 212.34C99.2354 212.443 99.3787 212.563 99.5316 212.67C99.6691 212.765 99.8184 212.844 99.9511 212.946C100.106 213.063 100.247 213.198 100.396 213.322C100.495 213.404 100.603 213.476 100.698 213.561C100.857 213.704 101.01 213.853 101.165 214.001C101.273 214.104 101.381 214.207 101.484 214.314C101.588 214.42 101.688 214.539 101.79 214.653C101.899 214.775 102.011 214.893 102.114 215.02C102.206 215.134 102.29 215.256 102.375 215.376C102.467 215.506 102.559 215.633 102.646 215.765C102.687 215.827 102.712 215.9 102.754 215.96C102.993 216.306 103.155 216.69 103.329 217.066C103.416 217.255 103.466 217.461 103.535 217.659C103.573 217.767 103.621 217.871 103.652 217.981C103.692 218.12 103.722 218.262 103.753 218.404C103.783 218.545 103.813 218.68 103.834 218.819C103.851 218.925 103.852 219.033 103.862 219.14C103.879 219.31 103.899 219.479 103.914 219.648C103.92 219.709 103.921 219.771 103.916 219.832C103.905 219.998 103.887 220.163 103.877 220.329C103.868 220.45 103.865 220.571 103.86 220.693C103.861 220.7 103.861 220.708 103.861 220.716C103.829 220.875 103.791 221.032 103.765 221.192C103.702 221.583 103.562 221.95 103.428 222.319C103.352 222.524 103.264 222.724 103.165 222.919C103.074 223.099 102.968 223.273 102.863 223.446C102.782 223.578 102.694 223.707 102.605 223.834C102.535 223.936 102.463 224.037 102.384 224.132C102.305 224.226 102.214 224.312 102.131 224.403C102.055 224.486 101.985 224.574 101.907 224.654C101.74 224.828 101.572 225.003 101.399 225.169C101.237 225.325 101.069 225.475 100.9 225.621C100.823 225.688 100.734 225.74 100.652 225.801C100.57 225.862 100.496 225.925 100.416 225.985C100.337 226.05 100.253 226.111 100.167 226.167C100.026 226.254 99.8779 226.327 99.7376 226.413C99.5412 226.533 99.2855 226.461 99.201 226.247C99.1633 226.152 99.1261 226.058 99.0885 225.964C99.0717 225.922 99.0429 225.885 99.0293 225.842C98.9511 225.601 98.873 225.36 98.8003 225.117C98.7537 224.961 98.7114 224.803 98.6764 224.644C98.6381 224.469 98.6128 224.293 98.5841 224.117C98.553 223.927 98.5197 223.736 98.4962 223.545C98.4819 223.429 98.4836 223.311 98.4792 223.194C98.4737 223.043 98.4636 222.893 98.467 222.741C98.4702 222.637 98.4908 222.532 98.5012 222.428C98.5144 222.294 98.5251 222.161 98.5364 222.027C98.5361 222.012 98.5366 221.997 98.5382 221.981C98.6472 221.488 98.7943 221.004 98.9782 220.534C99.0431 220.364 99.108 220.187 99.2135 220.042C99.2949 219.929 99.3313 219.804 99.3918 219.687C99.4825 219.511 99.5843 219.341 99.6909 219.174C99.7976 219.007 99.9188 218.849 100.029 218.685C100.087 218.598 100.132 218.502 100.188 218.414C100.239 218.337 100.299 218.264 100.354 218.19C100.41 218.115 100.468 218.035 100.527 217.959C100.585 217.883 100.649 217.804 100.71 217.729C100.744 217.686 100.778 217.643 100.812 217.6C100.853 217.548 100.893 217.495 100.94 217.435C100.976 217.388 101.045 217.38 101.079 217.429C101.268 217.807 101.456 218.187 101.642 218.567C101.679 218.643 101.711 218.722 101.752 218.797C101.799 218.879 101.781 218.927 101.705 218.987C101.595 219.077 101.493 219.176 101.399 219.282C101.301 219.386 101.206 219.493 101.119 219.606C101.057 219.686 101.009 219.777 100.955 219.863C100.877 219.985 100.798 220.106 100.719 220.228C100.71 220.24 100.701 220.253 100.694 220.267C100.597 220.501 100.489 220.733 100.406 220.972C100.335 221.179 100.278 221.391 100.236 221.606C100.208 221.741 100.217 221.882 100.204 222.02C100.193 222.128 100.169 222.235 100.161 222.343C100.152 222.459 100.154 222.576 100.15 222.692C100.148 222.769 100.143 222.846 100.144 222.923C100.145 223.007 100.154 223.091 100.158 223.175C100.161 223.24 100.158 223.306 100.163 223.37C100.177 223.574 100.191 223.777 100.209 223.981C100.219 224.025 100.233 224.069 100.251 224.111C100.439 223.946 100.624 223.794 100.794 223.626C100.914 223.501 101.026 223.368 101.128 223.229C101.212 223.121 101.277 222.998 101.367 222.896C101.501 222.745 101.569 222.559 101.669 222.391C101.9 222.007 101.982 221.571 102.135 221.16C102.193 221.003 102.183 220.82 102.207 220.649C102.223 220.528 102.25 220.408 102.26 220.287C102.268 220.191 102.254 220.095 102.252 219.998C102.25 219.93 102.252 219.861 102.258 219.793C102.281 219.548 102.254 219.308 102.21 219.067C102.164 218.812 102.14 218.554 102.098 218.299C102.08 218.206 102.051 218.116 102.012 218.03C101.881 217.722 101.755 217.411 101.606 217.111C101.514 216.925 101.382 216.759 101.269 216.583C101.211 216.494 101.158 216.401 101.094 216.317C100.977 216.163 100.855 216.014 100.733 215.864C100.597 215.699 100.463 215.531 100.319 215.373C100.219 215.264 100.102 215.171 99.9977 215.066C99.893 214.961 99.7909 214.85 99.6845 214.749C99.5877 214.658 99.4809 214.577 99.3792 214.491C99.3397 214.458 99.3029 214.422 99.2634 214.389C99.1096 214.258 98.9581 214.125 98.7997 214.001C98.715 213.933 98.6188 213.882 98.5129 213.814Z" fill="#FDF5E6"/>
<path d="M107.706 216.742C107.587 216.733 107.48 216.722 107.373 216.718C107.275 216.715 107.177 216.721 107.079 216.722C106.953 216.725 106.826 216.725 106.7 216.73C106.62 216.733 106.541 216.743 106.461 216.75C106.241 216.773 106.022 216.794 105.802 216.815C105.654 216.829 105.504 216.83 105.358 216.854C105.145 216.888 104.935 216.94 104.72 216.98C104.588 217.004 104.455 217.02 104.323 217.04C104.319 217.04 104.314 217.037 104.311 217.039C104.241 217.075 104.163 217.136 104.093 217.073C104.039 217.024 104.019 216.939 103.981 216.871C103.769 216.488 103.557 216.105 103.345 215.722C103.335 215.697 103.328 215.672 103.324 215.646C103.495 215.599 103.654 215.553 103.814 215.511C104.031 215.454 104.243 215.389 104.462 215.348C104.746 215.294 105.033 215.257 105.32 215.219C105.502 215.195 105.685 215.175 105.868 215.164C105.999 215.156 106.129 215.169 106.261 215.168C106.383 215.166 106.505 215.155 106.626 215.151C106.72 215.148 106.813 215.15 106.906 215.149C107 215.149 107.095 215.149 107.189 215.15C107.267 215.15 107.346 215.147 107.423 215.154C107.522 215.163 107.62 215.185 107.719 215.193C107.833 215.202 107.947 215.2 108.061 215.205C108.15 215.209 108.239 215.209 108.328 215.221C108.454 215.239 108.579 215.271 108.707 215.289C108.858 215.308 109.01 215.322 109.162 215.338C109.17 215.341 109.178 215.337 109.185 215.338L109.705 215.45C109.832 215.478 109.906 215.609 109.863 215.732L106.631 225.113C106.587 225.24 106.446 225.277 106.32 225.229C106.114 225.149 105.906 225.074 105.694 225.011C105.419 224.927 105.141 224.849 104.861 224.785C104.718 224.753 104.566 224.757 104.419 224.745C104.252 224.73 104.086 224.702 103.919 224.704C103.738 224.707 103.558 224.722 103.38 224.748C103.181 224.774 102.984 224.813 102.786 224.842C102.734 224.85 102.719 224.767 102.751 224.726C102.82 224.638 102.884 224.555 102.949 224.473C103.035 224.366 103.132 224.259 103.218 224.147C103.316 224.02 103.407 223.888 103.5 223.757C103.538 223.704 103.573 223.648 103.604 223.59C103.668 223.469 103.713 223.335 103.793 223.225C103.828 223.178 103.928 223.165 104 223.161C104.127 223.155 104.254 223.158 104.381 223.17C104.486 223.178 104.59 223.193 104.693 223.216C104.922 223.27 105.15 223.33 105.378 223.387C105.391 223.389 105.404 223.389 105.416 223.389L107.706 216.742Z" fill="#FDF5E6"/>
<path d="M160.75 221.356L157.31 227.308C157.354 227.334 157.395 227.353 157.432 227.379C157.58 227.485 157.732 227.586 157.873 227.702C158.005 227.808 158.128 227.924 158.242 228.05C158.353 228.185 158.456 228.327 158.552 228.474C158.63 228.582 158.701 228.695 158.765 228.812C158.789 228.859 158.777 228.927 158.772 228.985C158.765 229.046 158.752 229.107 158.734 229.166C158.704 229.267 158.662 229.365 158.637 229.467C158.616 229.554 158.616 229.645 158.601 229.733C158.589 229.802 158.567 229.87 158.55 229.939C158.504 230.131 158.458 230.323 158.41 230.515C158.384 230.618 158.355 230.721 158.325 230.831C158.313 230.874 158.252 230.882 158.233 230.843C158.169 230.705 158.109 230.564 158.042 230.428C157.957 230.257 157.874 230.085 157.776 229.922C157.692 229.782 157.589 229.652 157.493 229.519C157.415 229.41 157.335 229.302 157.254 229.195C157.217 229.146 157.176 229.1 157.132 229.057C157.047 228.978 156.958 228.903 156.87 228.828C156.724 228.704 156.578 228.581 156.431 228.458C156.395 228.428 156.357 228.402 156.317 228.378C155.964 228.175 155.614 227.968 155.258 227.769C155.175 227.721 155.175 227.682 155.219 227.606C156.868 224.757 158.516 221.907 160.162 219.057C160.213 218.97 160.33 218.952 160.405 219.019L160.508 219.112C160.513 219.117 160.518 219.124 160.524 219.129C160.664 219.233 160.809 219.331 160.943 219.442C161.05 219.531 161.144 219.635 161.244 219.732C161.255 219.743 161.265 219.754 161.277 219.763C161.381 219.848 161.493 219.924 161.588 220.017C161.721 220.148 161.839 220.293 161.969 220.427C162.086 220.547 162.217 220.653 162.328 220.778C162.457 220.923 162.57 221.082 162.693 221.233C162.774 221.332 162.866 221.423 162.944 221.525C163.072 221.696 163.194 221.872 163.318 222.046C163.404 222.168 163.491 222.29 163.571 222.414C163.652 222.538 163.729 222.674 163.807 222.805C163.89 222.946 163.978 223.083 164.055 223.227C164.123 223.357 164.182 223.493 164.243 223.627C164.308 223.772 164.374 223.914 164.435 224.06C164.463 224.129 164.473 224.205 164.503 224.273C164.672 224.657 164.757 225.065 164.856 225.468C164.906 225.67 164.915 225.882 164.945 226.09C164.961 226.202 164.988 226.314 164.998 226.428C165.011 226.572 165.013 226.717 165.016 226.862C165.019 227.007 165.022 227.145 165.017 227.286C165.013 227.393 164.993 227.499 164.983 227.606C164.967 227.775 164.954 227.945 164.937 228.114C164.931 228.176 164.92 228.236 164.904 228.296C164.861 228.456 164.812 228.615 164.77 228.776C164.738 228.893 164.713 229.011 164.685 229.129C164.684 229.137 164.682 229.145 164.68 229.152C164.619 229.302 164.552 229.45 164.496 229.601C164.359 229.973 164.151 230.307 163.95 230.644C163.836 230.83 163.711 231.01 163.577 231.181C163.453 231.342 163.316 231.492 163.179 231.641C163.075 231.756 162.963 231.865 162.852 231.973C162.763 232.059 162.674 232.145 162.578 232.223C162.482 232.301 162.377 232.367 162.278 232.441C162.188 232.508 162.102 232.581 162.01 232.645C161.812 232.784 161.615 232.923 161.413 233.053C161.224 233.175 161.031 233.291 160.837 233.401C160.748 233.452 160.651 233.486 160.559 233.53C160.467 233.575 160.382 233.622 160.293 233.666C160.202 233.715 160.108 233.758 160.013 233.797C159.858 233.855 159.699 233.899 159.544 233.957C159.329 234.037 159.092 233.917 159.05 233.691C159.031 233.59 159.012 233.491 158.993 233.391C158.985 233.347 158.964 233.305 158.958 233.261C158.928 233.009 158.897 232.757 158.872 232.505C158.856 232.343 158.845 232.18 158.841 232.017C158.837 231.838 158.846 231.661 158.851 231.482C158.857 231.289 158.861 231.096 158.874 230.904C158.882 230.788 158.906 230.672 158.924 230.556C158.948 230.407 158.967 230.258 158.999 230.11C159.022 230.008 159.062 229.909 159.093 229.808C159.131 229.68 159.167 229.551 159.204 229.422C159.206 229.407 159.21 229.392 159.214 229.377C159.415 228.914 159.652 228.467 159.923 228.041C160.019 227.886 160.116 227.725 160.248 227.603C160.349 227.507 160.409 227.392 160.491 227.288C160.613 227.133 160.746 226.985 160.882 226.842C161.019 226.699 161.168 226.567 161.308 226.426C161.381 226.352 161.444 226.267 161.515 226.191C161.58 226.125 161.652 226.065 161.721 226.002C161.79 225.94 161.862 225.873 161.935 225.809C162.007 225.746 162.085 225.681 162.158 225.619C162.2 225.583 162.242 225.547 162.283 225.511C162.333 225.468 162.383 225.424 162.44 225.374C162.485 225.334 162.554 225.339 162.578 225.394C162.691 225.802 162.803 226.21 162.913 226.619C162.935 226.701 162.951 226.784 162.977 226.866C163.007 226.955 162.981 226.999 162.895 227.043C162.77 227.111 162.651 227.188 162.538 227.274C162.422 227.357 162.308 227.445 162.201 227.539C162.125 227.605 162.061 227.686 161.991 227.76C161.891 227.865 161.79 227.969 161.69 228.073C161.678 228.083 161.668 228.094 161.658 228.106C161.517 228.318 161.368 228.524 161.24 228.743C161.131 228.933 161.035 229.131 160.952 229.334C160.899 229.46 160.881 229.601 160.841 229.734C160.811 229.838 160.767 229.938 160.738 230.042C160.707 230.154 160.686 230.269 160.661 230.383C160.644 230.458 160.624 230.533 160.61 230.608C160.596 230.691 160.588 230.775 160.576 230.858C160.566 230.923 160.551 230.988 160.544 231.051C160.518 231.254 160.493 231.456 160.472 231.659C160.473 231.705 160.478 231.75 160.488 231.795C160.704 231.669 160.915 231.555 161.115 231.423C161.256 231.323 161.391 231.214 161.518 231.097C161.621 231.007 161.708 230.898 161.816 230.816C161.977 230.693 162.078 230.523 162.209 230.378C162.51 230.044 162.673 229.632 162.901 229.259C162.989 229.115 163.014 228.934 163.07 228.771C163.109 228.655 163.159 228.543 163.191 228.425C163.217 228.333 163.222 228.235 163.239 228.141C163.25 228.073 163.265 228.006 163.283 227.94C163.353 227.704 163.373 227.463 163.376 227.218C163.379 226.96 163.405 226.701 163.412 226.443C163.412 226.349 163.401 226.255 163.379 226.163C163.309 225.835 163.245 225.506 163.156 225.183C163.101 224.983 163.004 224.794 162.926 224.601C162.886 224.502 162.852 224.4 162.805 224.305C162.72 224.132 162.629 223.963 162.538 223.792C162.436 223.604 162.336 223.414 162.225 223.231C162.148 223.105 162.051 222.991 161.968 222.868C161.886 222.745 161.807 222.617 161.722 222.497C161.644 222.389 161.555 222.29 161.471 222.186C161.439 222.146 161.409 222.103 161.377 222.063C161.251 221.906 161.128 221.746 160.996 221.594C160.926 221.511 160.841 221.443 160.75 221.356Z" fill="#FDF5E6"/>
<path d="M169.215 225.986C169.099 225.955 168.996 225.923 168.892 225.9C168.797 225.878 168.699 225.864 168.603 225.847C168.478 225.826 168.354 225.801 168.229 225.782C168.15 225.77 168.07 225.765 167.991 225.757C167.77 225.737 167.551 225.716 167.331 225.694C167.183 225.68 167.036 225.653 166.889 225.648C166.672 225.641 166.456 225.651 166.238 225.649C166.104 225.648 165.97 225.638 165.836 225.632C165.832 225.632 165.829 225.628 165.825 225.63C165.75 225.651 165.661 225.697 165.605 225.621C165.561 225.562 165.557 225.475 165.534 225.401C165.399 224.985 165.264 224.568 165.129 224.151C165.123 224.126 165.121 224.099 165.123 224.073C165.299 224.059 165.464 224.045 165.63 224.034C165.853 224.02 166.074 223.997 166.296 223.998C166.585 223.999 166.875 224.018 167.163 224.035C167.347 224.046 167.53 224.062 167.712 224.086C167.842 224.103 167.967 224.141 168.097 224.165C168.217 224.187 168.338 224.199 168.458 224.219C168.551 224.234 168.642 224.253 168.733 224.27C168.825 224.287 168.919 224.306 169.011 224.325C169.088 224.34 169.165 224.352 169.24 224.374C169.336 224.402 169.428 224.441 169.524 224.468C169.633 224.499 169.745 224.519 169.856 224.546C169.943 224.566 170.031 224.584 170.115 224.613C170.236 224.654 170.353 224.709 170.474 224.751C170.619 224.799 170.766 224.842 170.912 224.887C170.919 224.891 170.928 224.889 170.935 224.891L171.424 225.1C171.542 225.152 171.59 225.295 171.525 225.407L166.56 233.997C166.492 234.114 166.347 234.123 166.232 234.052C166.045 233.935 165.855 233.821 165.659 233.718C165.405 233.584 165.147 233.454 164.884 233.338C164.75 233.278 164.601 233.254 164.458 233.213C164.298 233.167 164.139 233.108 163.975 233.078C163.797 233.047 163.618 233.027 163.438 233.018C163.238 233.005 163.037 233.006 162.837 232.997C162.785 232.995 162.786 232.911 162.825 232.877C162.909 232.803 162.987 232.734 163.067 232.666C163.172 232.577 163.288 232.49 163.394 232.397C163.514 232.291 163.629 232.179 163.745 232.068C163.793 232.023 163.838 231.975 163.879 231.925C163.965 231.817 164.035 231.695 164.134 231.603C164.178 231.563 164.278 231.569 164.35 231.579C164.475 231.597 164.6 231.625 164.722 231.66C164.824 231.688 164.923 231.723 165.02 231.766C165.234 231.862 165.446 231.965 165.66 232.064C165.672 232.068 165.684 232.071 165.697 232.074L169.215 225.986Z" fill="#FDF5E6"/>
<path d="M140.985 221.736C140.88 221.551 140.801 221.353 140.75 221.147L140.183 219.41C139.698 217.914 139.042 215.71 138.294 212.987C136.774 207.536 134.89 199.929 133.236 191.458C131.582 182.988 130.482 175.224 129.803 169.59C129.484 166.77 129.263 164.497 129.149 162.866C129.099 162.144 129.066 161.531 129.033 161.05C129.003 160.836 129.003 160.618 129.033 160.404C129.104 160.609 129.149 160.822 129.167 161.038C129.226 161.524 129.314 162.122 129.418 162.842C129.631 164.507 129.935 166.757 130.287 169.478C131.04 175.075 132.214 182.801 133.85 191.294C135.486 199.787 137.299 207.354 138.672 212.814C139.352 215.484 139.919 217.669 140.35 219.299L140.793 221.064C140.89 221.277 140.955 221.503 140.985 221.736Z" fill="#263238"/>
<path d="M204.597 202.398L201.295 208.429C201.34 208.453 201.381 208.472 201.419 208.497C201.57 208.599 201.724 208.697 201.867 208.809C202.002 208.912 202.128 209.026 202.244 209.149C202.358 209.282 202.465 209.421 202.564 209.565C202.644 209.671 202.718 209.783 202.784 209.898C202.809 209.945 202.8 210.013 202.796 210.071C202.79 210.133 202.779 210.194 202.762 210.253C202.734 210.355 202.695 210.454 202.672 210.556C202.653 210.643 202.655 210.735 202.642 210.823C202.632 210.892 202.612 210.961 202.596 211.03C202.554 211.223 202.513 211.416 202.469 211.609C202.445 211.713 202.419 211.817 202.391 211.927C202.38 211.97 202.32 211.98 202.299 211.941C202.233 211.804 202.169 211.665 202.099 211.531C202.011 211.362 201.923 211.192 201.822 211.031C201.735 210.893 201.629 210.766 201.53 210.635C201.449 210.528 201.367 210.421 201.283 210.316C201.245 210.268 201.203 210.223 201.158 210.181C201.071 210.105 200.98 210.032 200.891 209.958C200.742 209.838 200.593 209.718 200.443 209.599C200.407 209.57 200.368 209.544 200.327 209.522C199.97 209.326 199.615 209.127 199.255 208.936C199.171 208.89 199.169 208.851 199.212 208.774C200.794 205.888 202.376 203.001 203.956 200.114C204.004 200.026 204.122 200.004 204.197 200.07L204.302 200.161C204.308 200.166 204.313 200.173 204.319 200.177C204.462 200.278 204.608 200.373 204.745 200.481C204.854 200.567 204.951 200.669 205.053 200.763C205.064 200.774 205.075 200.785 205.087 200.794C205.193 200.876 205.306 200.95 205.404 201.041C205.54 201.168 205.661 201.311 205.794 201.441C205.913 201.559 206.047 201.661 206.161 201.784C206.294 201.926 206.41 202.083 206.536 202.23C206.62 202.328 206.714 202.416 206.794 202.517C206.926 202.684 207.052 202.857 207.18 203.029C207.268 203.148 207.358 203.268 207.442 203.391C207.526 203.513 207.605 203.648 207.686 203.777C207.773 203.915 207.864 204.051 207.944 204.193C208.015 204.32 208.077 204.455 208.141 204.588C208.209 204.731 208.279 204.872 208.343 205.017C208.373 205.085 208.385 205.161 208.416 205.228C208.594 205.608 208.688 206.014 208.797 206.414C208.851 206.615 208.866 206.827 208.9 207.034C208.919 207.146 208.949 207.257 208.961 207.371C208.977 207.514 208.983 207.66 208.989 207.804C208.996 207.949 209.002 208.087 209 208.228C208.998 208.335 208.981 208.441 208.974 208.548C208.961 208.719 208.952 208.888 208.939 209.058C208.934 209.119 208.925 209.18 208.91 209.24C208.871 209.401 208.826 209.561 208.787 209.723C208.758 209.841 208.736 209.96 208.71 210.079C208.709 210.086 208.708 210.094 208.706 210.102C208.648 210.253 208.584 210.402 208.532 210.555C208.404 210.93 208.204 211.268 208.01 211.61C207.901 211.799 207.781 211.981 207.65 212.156C207.53 212.319 207.396 212.472 207.263 212.625C207.161 212.742 207.053 212.853 206.944 212.964C206.857 213.052 206.77 213.14 206.676 213.22C206.582 213.3 206.478 213.369 206.38 213.445C206.292 213.514 206.208 213.589 206.117 213.655C205.923 213.798 205.729 213.942 205.53 214.077C205.344 214.204 205.154 214.323 204.962 214.439C204.875 214.492 204.778 214.527 204.687 214.574C204.596 214.62 204.513 214.67 204.424 214.716C204.335 214.766 204.242 214.812 204.148 214.854C203.995 214.915 203.836 214.963 203.683 215.024C203.469 215.109 203.229 214.995 203.182 214.77C203.161 214.669 203.14 214.57 203.119 214.471C203.109 214.427 203.087 214.386 203.081 214.342C203.044 214.091 203.008 213.84 202.977 213.588C202.958 213.426 202.943 213.264 202.935 213.101C202.927 212.922 202.931 212.745 202.933 212.566C202.934 212.373 202.933 212.18 202.942 211.988C202.948 211.871 202.969 211.755 202.985 211.639C203.005 211.489 203.02 211.339 203.049 211.19C203.069 211.088 203.107 210.988 203.135 210.887C203.171 210.757 203.204 210.628 203.237 210.498C203.24 210.483 203.243 210.468 203.247 210.453C203.437 209.985 203.664 209.533 203.924 209.101C204.017 208.944 204.111 208.78 204.239 208.655C204.338 208.557 204.395 208.441 204.475 208.335C204.594 208.177 204.723 208.026 204.856 207.88C204.989 207.734 205.135 207.598 205.272 207.454C205.343 207.379 205.404 207.292 205.474 207.215C205.537 207.147 205.608 207.085 205.675 207.021C205.743 206.957 205.813 206.888 205.884 206.823C205.955 206.758 206.031 206.691 206.103 206.627C206.144 206.591 206.185 206.554 206.226 206.517C206.275 206.472 206.324 206.427 206.38 206.376C206.423 206.336 206.493 206.339 206.517 206.393C206.64 206.798 206.762 207.204 206.881 207.61C206.905 207.692 206.923 207.775 206.951 207.855C206.983 207.944 206.958 207.988 206.872 208.034C206.749 208.105 206.632 208.185 206.521 208.274C206.407 208.36 206.296 208.45 206.191 208.546C206.116 208.614 206.054 208.697 205.985 208.772C205.888 208.879 205.79 208.985 205.692 209.092C205.681 209.102 205.67 209.114 205.661 209.126C205.525 209.341 205.38 209.551 205.258 209.772C205.153 209.965 205.061 210.164 204.983 210.369C204.934 210.497 204.918 210.638 204.882 210.772C204.854 210.877 204.812 210.978 204.785 211.083C204.757 211.195 204.739 211.311 204.716 211.425C204.701 211.501 204.683 211.576 204.671 211.652C204.658 211.735 204.653 211.819 204.642 211.902C204.634 211.967 204.621 212.032 204.615 212.096C204.594 212.299 204.574 212.502 204.557 212.705C204.559 212.751 204.566 212.796 204.576 212.841C204.79 212.71 204.998 212.591 205.194 212.454C205.333 212.351 205.466 212.239 205.59 212.119C205.691 212.027 205.776 211.916 205.882 211.831C206.039 211.705 206.137 211.532 206.264 211.384C206.557 211.044 206.711 210.628 206.93 210.249C207.014 210.104 207.035 209.922 207.087 209.758C207.124 209.641 207.171 209.527 207.201 209.409C207.225 209.316 207.227 209.219 207.242 209.124C207.251 209.056 207.265 208.988 207.282 208.922C207.346 208.684 207.36 208.443 207.357 208.198C207.354 207.94 207.374 207.681 207.375 207.422C207.373 207.328 207.36 207.234 207.336 207.143C207.259 206.818 207.188 206.489 207.091 206.169C207.031 205.97 206.93 205.784 206.847 205.592C206.805 205.494 206.768 205.393 206.719 205.299C206.63 205.129 206.535 204.961 206.44 204.792C206.334 204.606 206.23 204.419 206.114 204.239C206.035 204.114 205.935 204.003 205.85 203.882C205.764 203.761 205.682 203.634 205.594 203.517C205.514 203.411 205.423 203.313 205.337 203.211C205.304 203.172 205.273 203.13 205.24 203.091C205.11 202.937 204.983 202.78 204.848 202.63C204.776 202.549 204.69 202.483 204.597 202.398Z" fill="#FDF5E6"/>
<path d="M213.166 206.832C213.05 206.803 212.946 206.774 212.842 206.753C212.746 206.733 212.648 206.722 212.551 206.707C212.426 206.688 212.302 206.667 212.176 206.651C212.097 206.64 212.017 206.636 211.937 206.631C211.716 206.616 211.497 206.6 211.277 206.583C211.128 206.573 210.981 206.548 210.833 206.547C210.616 206.545 210.401 206.561 210.183 206.563C210.048 206.565 209.915 206.558 209.781 206.556C209.777 206.556 209.773 206.552 209.769 206.554C209.694 206.577 209.607 206.624 209.549 206.55C209.504 206.492 209.498 206.405 209.473 206.331C209.328 205.918 209.184 205.505 209.039 205.092C209.033 205.066 209.031 205.04 209.031 205.014C209.207 204.996 209.372 204.977 209.537 204.963C209.76 204.943 209.981 204.915 210.203 204.911C210.492 204.906 210.781 204.918 211.07 204.929C211.254 204.936 211.438 204.947 211.62 204.967C211.75 204.981 211.877 205.016 212.007 205.037C212.127 205.056 212.249 205.065 212.369 205.082C212.462 205.095 212.553 205.112 212.646 205.127C212.738 205.142 212.832 205.158 212.924 205.175C213.001 205.189 213.079 205.199 213.154 205.219C213.251 205.245 213.344 205.282 213.44 205.307C213.55 205.335 213.663 205.353 213.774 205.377C213.861 205.395 213.95 205.411 214.035 205.438C214.157 205.477 214.275 205.529 214.397 205.568C214.543 205.612 214.691 205.652 214.838 205.693C214.844 205.697 214.854 205.695 214.861 205.697L215.354 205.895C215.474 205.943 215.525 206.086 215.463 206.199L210.697 214.902C210.632 215.02 210.487 215.033 210.371 214.964C210.181 214.851 209.988 214.742 209.791 214.644C209.533 214.515 209.273 214.391 209.007 214.281C208.872 214.225 208.722 214.204 208.579 214.167C208.417 214.124 208.257 214.069 208.092 214.042C207.914 214.015 207.734 214 207.554 213.995C207.353 213.987 207.153 213.993 206.952 213.988C206.9 213.987 206.899 213.903 206.938 213.868C207.02 213.792 207.097 213.722 207.175 213.652C207.278 213.56 207.392 213.471 207.496 213.375C207.613 213.267 207.726 213.152 207.839 213.039C207.886 212.993 207.929 212.944 207.97 212.892C208.053 212.783 208.12 212.658 208.217 212.564C208.26 212.523 208.36 212.527 208.432 212.535C208.558 212.551 208.683 212.575 208.806 212.608C208.908 212.633 209.009 212.666 209.106 212.706C209.323 212.798 209.537 212.896 209.753 212.99C209.765 212.994 209.777 212.997 209.79 212.999L213.166 206.832Z" fill="#FDF5E6"/>
<g opacity="0.3">
<path d="M117.087 239.213C137.477 232.96 157.143 220.193 169.893 203.098L117.087 239.213Z" fill="black"/>
</g>
<g opacity="0.3">
<path d="M58.3725 216.536C63.5439 209.555 71.0475 208.889 77.8983 210.383C78.0485 209.996 78.0503 209.568 77.9033 209.18C77.7564 208.792 77.471 208.473 77.1023 208.283C76.3553 207.906 75.5212 207.735 74.6862 207.788C71.2499 207.587 67.8062 208.031 64.5336 209.098C63.0071 209.692 61.6564 210.664 60.6082 211.922C59.56 213.181 58.8486 214.685 58.5407 216.294" fill="black"/>
</g>
<path d="M190.167 145.741C177.86 135.009 176.699 117.427 178.897 101.979C179.263 99.3997 179.279 96.633 180.752 94.4975C182.225 92.362 185.272 91.115 187.47 92.4556C189.294 93.5701 189.894 95.8926 190.767 97.8644C191.943 100.485 193.834 102.722 196.222 104.318C197.781 105.346 199.761 106.095 201.483 105.37C203.821 104.38 204.453 101.317 204.71 98.7451C205.198 93.9441 205.687 89.1406 206.175 84.3345C206.432 81.7626 206.713 79.1283 207.773 76.7746C208.833 74.4209 210.851 72.34 213.376 71.9113C215.901 71.4827 218.777 73.2285 219.019 75.8082C219.001 76.8835 218.91 77.9563 218.746 79.0192C218.707 80.0947 219.074 81.3573 220.056 81.7392C221.038 82.1211 222.16 81.5366 223.017 80.8663C225.955 78.5282 228.114 75.4107 230.164 72.2465C232.214 69.0822 234.209 65.8634 236.929 63.2915C239.649 60.7196 243.218 58.8257 246.928 59.0127C250.638 59.1998 254.324 61.9042 254.862 65.6218C255.4 69.3394 252.898 72.8076 250.272 75.4964C246.385 79.4927 241.941 82.9054 237.077 85.6283C236.145 86.0228 235.362 86.7021 234.84 87.5689C234.1 89.2212 235.542 91.1072 237.178 91.8476C239.025 92.6972 241.13 92.7205 243.109 93.1726C245.089 93.6246 247.178 94.7313 247.731 96.7265C248.51 99.4699 246.001 101.995 243.639 103.569C238.91 106.719 233.674 109.034 228.161 110.412C226.197 110.895 224.132 111.293 222.464 112.454C220.796 113.615 219.619 115.837 220.352 117.754C221.084 119.671 223.383 120.505 225.41 120.349C227.436 120.193 229.307 119.305 231.286 118.79C234.973 117.84 239.516 118.572 241.418 121.908C242.696 124.075 242.525 126.888 241.512 129.203C240.395 131.472 238.834 133.494 236.921 135.149C230.587 141.281 222.739 145.622 214.179 147.729C205.668 149.685 197.976 149.638 190.143 145.78" fill="#F5F5F5"/>
<path d="M195.218 135.971C198.703 127.803 202.653 119.84 207.049 112.123L210.478 106.028C211.608 104.033 212.722 102.053 213.938 100.183C216.286 96.5824 218.833 93.1166 221.568 89.8015C224.14 86.6294 226.696 83.7146 229.113 81.0024C231.529 78.2902 233.828 75.8196 236.026 73.6451C239.472 70.2032 243.186 67.0395 247.132 64.1836C248.527 63.1704 249.633 62.4222 250.389 61.9234L251.254 61.3622C251.352 61.2956 251.453 61.2357 251.558 61.183C251.478 61.2679 251.386 61.3414 251.286 61.4012L250.444 62.0013C249.704 62.5235 248.62 63.3029 247.241 64.3394C243.347 67.2455 239.676 70.4394 236.259 73.8945C234.085 76.0768 231.809 78.5707 229.401 81.2752C226.993 83.9796 224.467 86.9178 221.903 90.0898C219.206 93.393 216.69 96.8403 214.367 100.417C213.159 102.271 212.029 104.235 210.922 106.238L207.508 112.333C203.117 120.033 199.162 127.975 195.662 136.119" fill="#E0E0E0"/>
<path d="M214.07 100.648C213.986 100.28 213.942 99.9033 213.938 99.5256C213.883 98.8008 213.829 97.7408 213.79 96.4081C213.704 93.805 213.704 90.2121 213.72 86.2763C213.735 82.3404 213.72 78.7164 213.564 76.1445C213.501 74.8429 213.439 73.8063 213.392 73.0737C213.352 72.6955 213.352 72.3141 213.392 71.9359C213.497 72.2996 213.565 72.673 213.595 73.0503C213.704 73.7752 213.813 74.8195 213.922 76.1211C214.133 78.7164 214.234 82.356 214.218 86.2997C214.203 90.2433 214.172 93.7504 214.148 96.4315V99.549C214.168 99.9171 214.142 100.286 214.07 100.648Z" fill="#E0E0E0"/>
<path d="M247.848 98.0669C247.402 98.1085 246.953 98.1085 246.507 98.0669C245.65 98.0669 244.411 98.0202 242.875 98.0669C239.805 98.0669 235.573 98.215 230.904 98.5813C226.236 98.9476 222.027 99.4854 218.988 99.9452C217.468 100.171 216.244 100.382 215.403 100.522C214.965 100.624 214.519 100.684 214.07 100.701C214.49 100.546 214.923 100.426 215.364 100.343C216.205 100.14 217.421 99.8751 218.941 99.6101C221.965 99.0567 226.189 98.48 230.865 98.1059C234.862 97.7724 238.873 97.6449 242.883 97.724C244.442 97.724 245.658 97.8409 246.515 97.9111C246.963 97.9225 247.409 97.9747 247.848 98.0669Z" fill="#E0E0E0"/>
<g opacity="0.3">
<path d="M99.5959 113.616C100.762 131.668 104.683 149.435 111.221 166.301C115.88 161.537 118.724 155.292 119.261 148.651C121.213 152.654 124.336 155.968 128.216 158.154C124.715 150.465 120.957 143.067 115.722 136.447C115.722 136.447 110.778 157.841 110.912 157.249C107.016 142.6 103.256 128.19 99.5706 113.611" fill="black"/>
</g>
<path d="M167.549 65.3145C164.408 71.0641 160.761 75.2338 154.321 76.4335C148.69 77.4822 142.891 75.8739 137.631 73.6248C120.535 66.2916 103.747 52.9457 97.4557 35.4477L104.773 25.4522C111.845 18.1349 126.964 10.843 141.135 18.8823C145.482 18.5483 149.842 19.3235 153.807 21.1352C157.773 22.947 161.213 25.7361 163.806 29.2409C173.417 41.527 167.549 65.3145 167.549 65.3145Z" fill="#263238"/>
<path d="M131.001 25.5606C120.837 22.1629 104.789 32.059 101.783 42.3697C98.4404 53.811 94.8177 67.9098 94.2361 76.8715C93.0902 94.9038 105.941 100.116 105.941 100.116L103.471 108.903L144.963 109.405L159.477 47.2287L160.847 41.6309L131.001 25.5606Z" fill="#FFBE9D"/>
<path d="M105.692 56.3201C105.555 56.8999 105.65 57.5102 105.956 58.021C106.263 58.5318 106.757 58.9026 107.333 59.0546C107.613 59.1426 107.907 59.1737 108.199 59.1461C108.49 59.1185 108.774 59.0328 109.032 58.894C109.29 58.7552 109.518 58.5661 109.702 58.3379C109.885 58.1097 110.022 57.8469 110.102 57.5652C110.239 56.9854 110.144 56.375 109.837 55.8643C109.531 55.3535 109.037 54.9826 108.461 54.8307C108.181 54.7427 107.887 54.7115 107.595 54.7391C107.303 54.7667 107.02 54.8524 106.762 54.9912C106.504 55.13 106.276 55.3191 106.092 55.5474C105.909 55.7756 105.772 56.0383 105.692 56.3201Z" fill="#263238"/>
<path d="M103.805 50.597C104.011 50.9423 105.98 50.08 108.386 50.6249C110.791 51.1699 112.289 52.7414 112.609 52.5301C112.929 52.3188 112.604 51.8439 111.969 51.0814C111.086 50.1304 109.933 49.4715 108.665 49.1929C107.416 48.9111 106.109 49.0311 104.931 49.5359C104.066 49.9651 103.656 50.4217 103.805 50.597Z" fill="#263238"/>
<path d="M128.029 61.8001C127.896 62.3798 127.992 62.9885 128.298 63.4985C128.604 64.0084 129.096 64.3798 129.67 64.5347C129.949 64.6207 130.243 64.6502 130.533 64.6215C130.823 64.5928 131.105 64.5065 131.362 64.3675C131.619 64.2286 131.845 64.0399 132.028 63.8124C132.211 63.5849 132.346 63.3232 132.427 63.0427C132.564 62.4616 132.47 61.85 132.164 61.3372C131.858 60.8245 131.365 60.4509 130.788 60.2955C130.508 60.2093 130.214 60.1801 129.923 60.2094C129.631 60.2387 129.349 60.326 129.091 60.4662C128.834 60.6065 128.608 60.7967 128.425 61.0258C128.243 61.2549 128.108 61.5182 128.029 61.8001Z" fill="#263238"/>
<path d="M114.594 72.2067C113.41 71.5361 112.151 71.0086 110.843 70.6353C110.251 70.4352 109.698 70.177 109.707 69.744C109.798 69.0961 110.087 68.4922 110.535 68.0156C111.445 66.6598 112.421 65.2384 113.398 63.7512C117.411 57.6662 120.462 52.6101 120.217 52.4545C119.972 52.299 116.514 57.0874 112.501 63.1724C111.522 64.6723 110.582 66.114 109.707 67.4903C109.149 68.1373 108.844 68.9643 108.848 69.8187C108.885 70.0571 108.978 70.2835 109.119 70.4794C109.26 70.6754 109.445 70.8354 109.659 70.9466C109.976 71.113 110.314 71.2396 110.662 71.3233C111.93 71.7846 113.251 72.0815 114.594 72.2067Z" fill="#263238"/>
<path d="M105.932 100.165C114.291 102.183 123.042 101.882 131.243 99.2946C131.243 99.2946 122.386 110.056 104.733 104.414L105.932 100.165Z" fill="#77574A"/>
<path d="M114.306 78.2347C114.89 77.7591 115.587 77.4413 116.328 77.3115C117.07 77.1818 117.833 77.2446 118.544 77.4937C119.063 77.6585 119.543 77.9272 119.955 78.2834C120.367 78.6395 120.702 79.0758 120.94 79.5656C121.171 80.0391 121.252 80.572 121.171 81.0926C121.09 81.6132 120.852 82.0967 120.489 82.4783C120.007 82.8226 119.432 83.0145 118.839 83.0295C118.247 83.0445 117.663 82.8818 117.164 82.5623C116.116 81.9104 115.211 81.0527 114.504 80.0411C114.28 79.7883 114.103 79.4977 113.981 79.1828C113.917 79.032 113.901 78.8656 113.934 78.7054C113.967 78.5452 114.047 78.3986 114.164 78.2847" fill="#77574A"/>
<path d="M121.282 75.4595C120.89 75.3793 120.321 77.8989 117.661 79.3052C115.001 80.7115 112.298 79.75 112.223 80.1168C112.192 80.2686 112.724 80.7597 113.891 81.051C115.416 81.4188 117.023 81.2339 118.426 80.5291C119.769 79.8558 120.798 78.6861 121.294 77.2676C121.618 76.2004 121.474 75.4857 121.282 75.4595Z" fill="#263238"/>
<path d="M128.817 46.8064C128.898 47.5082 131.368 47.7369 134.109 48.7062C136.849 49.6755 138.91 51.0065 139.469 50.462C139.703 50.2199 139.438 49.5198 138.662 48.6757C137.615 47.6158 136.334 46.8165 134.922 46.3421C133.52 45.845 132.019 45.6916 130.546 45.8948C129.41 46.0974 128.781 46.4694 128.817 46.8064Z" fill="#263238"/>
<path d="M106.319 43.8501C106.609 44.4896 108.406 44.2772 110.392 44.6836C112.378 45.0899 113.995 45.8821 114.504 45.3931C114.738 45.151 114.596 44.5553 113.974 43.8612C113.135 43.0051 112.049 42.4327 110.869 42.2243C109.696 41.9885 108.478 42.1165 107.38 42.5912C106.487 43.0279 106.12 43.5327 106.319 43.8501Z" fill="#263238"/>
<path d="M159.585 39.5517C158.784 36.317 155.579 34.396 152.746 32.6565C148.741 30.2027 144.937 27.408 140.786 25.2144C136.694 22.8536 132.054 21.6088 127.33 21.6046C122.485 21.7731 117.9 23.8267 113.721 26.2797C108.209 29.5144 102.959 33.7909 100.512 39.6955L100.08 41.808C110.693 41.0143 122.82 32.5696 131.611 26.5792C136.086 36.5888 143.339 54.2177 151.797 59.9021C153.331 55.5635 157.831 49.7364 159.104 45.3181C159.744 43.4664 159.909 41.4839 159.585 39.5517Z" fill="#263238"/>
<path d="M178.881 117.042C178.912 113.411 175.891 110.592 173.25 108.101C170.61 105.61 167.92 102.266 168.825 98.7477C169.729 95.2293 174.315 92.9781 174.732 89.2018C175.149 85.4255 170.961 82.5126 169.143 78.9644C166.502 73.8375 166.38 70.9527 167.534 65.3109C169.794 54.2675 168.33 38.9433 159.679 31.6905L144.796 39.7558C146.381 50.8213 147.92 62.3651 144.401 72.9927C142.309 79.2863 138.496 85.043 137.535 91.6075C136.501 98.6578 138.883 105.761 138.732 112.874C138.591 119.619 136.197 126.101 135.175 132.772C134.153 139.442 134.894 147.027 139.768 151.675L162.952 145.875C165.466 145.243 168.339 144.342 169.186 141.879C170.033 139.416 168.249 136.732 168.147 134.075C167.983 127.148 178.809 123.96 178.881 117.042Z" fill="#263238"/>
<path d="M168.532 58.7019C167.436 58.9513 166.318 59.0847 165.195 59.0999C162.476 59.2975 159.745 59.2286 157.039 58.8942C154.328 58.5107 151.701 57.6702 149.271 56.4086C148.24 55.9392 147.283 55.3216 146.43 54.5753C146.548 54.3226 150.877 57.383 157.136 58.2286C159.808 58.5336 162.499 58.6437 165.187 58.558C166.304 58.5018 167.424 58.5499 168.532 58.7019Z" fill="#455A64"/>
<path d="M168.105 62.8453C167.105 63.3273 166.038 63.6555 164.941 63.8189C162.306 64.3441 159.596 64.3708 156.951 63.8975C154.32 63.3824 151.777 62.4893 149.401 61.2457C148.396 60.7914 147.452 60.213 146.59 59.524C147.627 59.8789 148.636 60.31 149.608 60.8136C151.977 61.9044 154.465 62.7143 157.022 63.2268C159.597 63.6772 162.227 63.7171 164.814 63.3448C165.901 63.1198 167 62.953 168.105 62.8453Z" fill="#455A64"/>
<path d="M95.2775 41.13C96.4209 41.1989 97.5593 41.335 98.6867 41.5376C99.8381 41.5209 100.99 41.5716 102.135 41.6896C101.026 42.1308 99.8302 42.3099 98.6407 42.2128C97.4512 42.1157 96.3002 41.7451 95.2775 41.13Z" fill="#455A64"/>
<path d="M94.2359 42.9993C94.3808 42.8708 95.5328 44.0686 97.2629 45.0815C98.993 46.0945 100.589 46.5396 100.548 46.742C99.252 46.7914 97.9767 46.41 96.921 45.6574C95.7525 45.0985 94.8066 44.162 94.2359 42.9993Z" fill="#455A64"/>
<path d="M135.597 141.979C135.292 141.869 135.003 141.717 134.741 141.527C133.954 140.988 133.293 140.287 132.802 139.469C132.018 138.169 131.638 136.664 131.71 135.147C131.761 134.192 132.024 133.26 132.479 132.418C132.997 131.501 133.636 130.656 134.377 129.907C135.174 129.113 135.915 128.265 136.596 127.369C137.279 126.383 137.761 125.273 138.016 124.101C138.462 121.456 138.204 118.74 137.268 116.225C136.184 113.434 134.948 110.703 133.564 108.047C132.043 105.129 131.246 101.888 131.241 98.5967C131.412 95.3149 132.266 92.105 133.749 89.1725C135.108 86.4711 136.674 83.879 138.433 81.4191C140.051 79.0485 141.619 76.7992 142.894 74.622C144.109 72.6027 145.108 70.4615 145.875 68.2336C147.071 65.034 147.559 61.6134 147.307 58.2071C147.171 56.9636 146.876 55.7427 146.43 54.5744C146.61 54.8458 146.758 55.1371 146.871 55.4424C147.235 56.3373 147.486 57.2742 147.619 58.2312C147.971 61.6848 147.546 65.1734 146.373 68.4409C145.622 70.7104 144.632 72.8936 143.42 74.9535C142.146 77.1839 140.591 79.4358 138.983 81.8217C137.255 84.263 135.72 86.8351 134.391 89.5147C132.952 92.3617 132.121 95.4774 131.952 98.6631C131.961 101.852 132.733 104.993 134.204 107.822C135.59 110.503 136.826 113.26 137.905 116.079C138.854 118.701 139.094 121.528 138.6 124.274C138.32 125.511 137.799 126.68 137.066 127.716C136.357 128.602 135.591 129.44 134.773 130.225C134.054 130.94 133.425 131.741 132.901 132.61C132.483 133.377 132.229 134.223 132.156 135.093C132.059 136.538 132.387 137.98 133.1 139.24C133.698 140.342 134.555 141.281 135.597 141.979Z" fill="#263238"/>
<path d="M141.842 18.8295C139.79 19.2924 137.837 20.1154 136.073 21.2602C134.437 22.5731 133.042 24.1607 131.95 25.952C132.005 25.3088 132.227 24.691 132.593 24.1595C133.36 22.8008 134.413 21.6245 135.678 20.7116C136.943 19.7987 138.391 19.171 139.922 18.8716C140.548 18.6927 141.209 18.6782 141.842 18.8295Z" fill="#455A64"/>
<path d="M184.545 151.455L178.708 136.119L180.844 122.652L186.09 114.21C186.09 114.21 188.916 114.116 188.709 117.382C188.376 119.828 187.541 122.178 186.256 124.286L186.777 131.141C186.777 131.141 187.242 131.961 188.363 129.383C189.483 126.805 192.583 106.629 192.85 105.26C193.117 103.891 193.901 100.638 195.876 101.359C197.85 102.079 197.939 104.931 197.657 106.309C197.375 107.688 196.124 121.403 196.124 121.403C196.124 121.403 196.359 122.703 196.876 122.624C197.393 122.545 199.388 108.153 199.758 105.896C200.128 103.639 200.641 98.5511 203.272 99.0895C205.904 99.6279 205.386 102.158 204.984 104.896C204.582 107.634 203.135 123.404 203.135 123.404C203.135 123.404 203.343 124.448 203.986 123.235C204.63 122.023 208.519 105.395 208.971 104.671C209.422 103.946 211.178 103.224 211.979 105.365C212.779 107.506 211.595 111.876 209.839 119.622C208.251 126.612 207.44 129.478 208.123 130.197C208.806 130.917 212.695 127.179 212.695 127.179C212.695 127.179 218.182 118.654 221.163 119.607C224.145 120.559 221.611 122.506 220.653 124.55C219.837 126.281 212.296 136.02 212.154 136.135C212.012 136.251 202.827 154.471 202.827 154.471L209.868 178.936C211.129 183.198 211.014 187.75 209.539 191.943C207.878 196.519 204.385 201.287 197.026 202.022C191.64 202.58 188.311 199.527 186.329 196.327C184.674 193.511 183.858 190.28 183.977 187.016C184.242 178.187 184.525 151.425 184.525 151.425L184.545 151.455Z" fill="#FFBE9D"/>
<path d="M195.14 143.473C195.026 143.449 195.352 142.435 195.395 140.81C195.439 138.685 194.847 136.595 193.697 134.809C192.795 133.36 191.423 132.265 189.811 131.707C188.801 131.373 187.708 131.396 186.714 131.772L186.572 131.822L186.595 131.708C186.503 131.32 186.468 131.102 186.509 131.097C186.549 131.092 186.647 131.257 186.82 131.636L186.643 131.599C187.15 131.317 187.708 131.139 188.285 131.076C188.861 131.012 189.445 131.066 190 131.232C191.788 131.745 193.322 132.904 194.303 134.485C195.536 136.378 196.105 138.627 195.921 140.878C195.883 141.795 195.614 142.687 195.14 143.473Z" fill="#77574A"/>
<path d="M62.9017 231.632C61.909 237.304 62.9983 243.143 65.969 248.075C68.1731 251.725 70.5647 255.259 73.1341 258.661L92.9191 272.884C92.9191 272.884 98.4229 274.906 105.264 270.52C107.417 269.297 109.316 267.672 110.856 265.734C110.856 265.734 116.786 269.991 119.365 270.4C123.704 271.091 123.642 267.915 123.642 267.915C123.642 267.915 110.88 257.053 108.091 253.293C105.301 249.533 95.8687 245.521 88.7022 244.99L84.8173 243.365L84.4629 237.625C84.4629 237.625 78.9738 224.258 70.8359 226.929C62.698 229.6 62.9017 231.632 62.9017 231.632Z" fill="#FFBE9D"/>
<rect x="38" y="234" width="195" height="79" fill="white"/>
<path d="M104 226L130 252L182.092 200" stroke="#459F49" stroke-width="12" stroke-linecap="round" stroke-linejoin="round"/>
</svg>
