<svg width="199" height="198" viewBox="0 0 199 198" fill="none" xmlns="http://www.w3.org/2000/svg">
<path d="M99.4998 161.756C136.834 161.756 167.099 149.883 167.099 135.237C167.099 120.592 136.834 108.719 99.4998 108.719C62.1657 108.719 31.9004 120.592 31.9004 135.237C31.9004 149.883 62.1657 161.756 99.4998 161.756Z" fill="#F7F9FC"/>
<path d="M132.687 131.617L135.815 135.883H77.515L74.3857 131.617H132.687Z" fill="#D0D5DD"/>
<path d="M135.815 136.295H77.5151C77.3833 136.295 77.2606 136.233 77.1837 136.127L74.0545 131.863C73.963 131.738 73.9483 131.571 74.0197 131.432C74.0893 131.293 74.2321 131.207 74.3878 131.207H132.689C132.821 131.207 132.944 131.269 133.021 131.375L136.15 135.64C136.241 135.764 136.256 135.931 136.185 136.07C136.113 136.208 135.97 136.295 135.815 136.295ZM77.7239 135.471H135.004L132.479 132.031H75.1989L77.7239 135.471Z" fill="#F9FAFB"/>
<path d="M147.051 41.5508L150.179 45.8171L135.814 135.883L132.687 131.617L147.051 41.5508Z" fill="#D0D5DD"/>
<path d="M135.814 136.295C135.684 136.295 135.562 136.235 135.483 136.127L132.354 131.863C132.288 131.775 132.262 131.663 132.279 131.553L146.643 41.4871C146.669 41.3223 146.791 41.1905 146.953 41.152C147.114 41.1136 147.284 41.174 147.381 41.3095L150.51 45.5739C150.576 45.6618 150.602 45.7735 150.585 45.8834L136.221 135.949C136.195 136.114 136.073 136.246 135.912 136.284C135.88 136.292 135.847 136.295 135.814 136.295ZM133.121 131.513L135.564 134.843L149.745 45.9218L147.302 42.5912L133.121 131.513Z" fill="#F9FAFB"/>
<path d="M147.052 41.5518L132.687 131.618H74.3857L75.3031 125.863H127.062L140.509 41.5518H147.052Z" fill="#F7F9FC"/>
<path d="M132.687 132.029H74.3855C74.2647 132.029 74.1512 131.976 74.0724 131.885C73.9937 131.793 73.9607 131.672 73.9791 131.553L74.8964 125.797C74.9275 125.597 75.1015 125.449 75.3029 125.449H126.711L140.101 41.4856C140.132 41.286 140.306 41.1377 140.507 41.1377H147.05C147.17 41.1377 147.284 41.1908 147.363 41.2823C147.441 41.3739 147.474 41.4947 147.456 41.6138L133.092 131.68C133.061 131.883 132.888 132.029 132.687 132.029ZM74.8689 131.205H132.335L146.568 41.9635H140.861L127.47 125.927C127.439 126.126 127.265 126.275 127.064 126.275H75.6544L74.8689 131.205Z" fill="#F9FAFB"/>
<path d="M62.733 132.672L65.8604 136.936L52.3475 149.664L49.2183 145.399L62.733 132.672Z" fill="#D0D5DD"/>
<path d="M52.3476 150.076C52.3347 150.076 52.3219 150.076 52.3091 150.074C52.1919 150.063 52.0839 150.002 52.0143 149.907L48.8851 145.643C48.7624 145.474 48.7826 145.242 48.9345 145.099L62.4475 132.371C62.5335 132.291 62.6507 132.251 62.7679 132.262C62.8851 132.273 62.9931 132.333 63.0627 132.428L66.1919 136.693C66.3146 136.861 66.2944 137.094 66.1425 137.236L52.6295 149.964C52.5526 150.035 52.4519 150.076 52.3476 150.076ZM49.7658 145.449L52.4025 149.045L65.3112 136.887L62.6745 133.291L49.7658 145.449Z" fill="#F9FAFB"/>
<path d="M75.303 125.862L74.3856 131.617L72.1884 145.399L62.733 132.672L49.2183 145.399L52.3347 125.862H75.303Z" fill="#E4E7EC"/>
<path d="M72.1883 145.811C72.0601 145.811 71.9356 145.751 71.8569 145.644L62.678 133.289L49.502 145.697C49.3738 145.818 49.1834 145.844 49.0259 145.762C48.8703 145.679 48.7842 145.507 48.8117 145.333L51.9281 125.796C51.9592 125.597 52.1332 125.448 52.3346 125.448H75.3029C75.4237 125.448 75.5373 125.501 75.616 125.593C75.6947 125.684 75.7277 125.805 75.7094 125.924L72.593 145.461C72.5673 145.624 72.4447 145.758 72.2835 145.796C72.2524 145.806 72.2194 145.811 72.1883 145.811ZM62.7329 132.26C62.7458 132.26 62.7567 132.26 62.7696 132.261C62.8867 132.272 62.9929 132.331 63.0644 132.426L71.9375 144.368L74.8232 126.274H52.6861L49.8151 144.271L62.4491 132.373C62.526 132.298 62.6267 132.26 62.7329 132.26Z" fill="#F9FAFB"/>
<path d="M75.303 125.861L74.3857 131.616L72.1885 145.398L75.3159 149.663L77.5149 135.882L78.4323 130.126L75.303 125.861Z" fill="#D0D5DD"/>
<path d="M75.3161 150.075C75.1861 150.075 75.0634 150.015 74.9846 149.907L71.8573 145.642C71.7913 145.554 71.7657 145.443 71.7822 145.335L74.8986 125.798C74.9242 125.633 75.0469 125.501 75.208 125.463C75.3692 125.424 75.5394 125.485 75.6365 125.62L78.7657 129.884C78.8316 129.972 78.8572 130.084 78.8408 130.194L75.7244 149.731C75.6987 149.896 75.5761 150.028 75.4149 150.066C75.382 150.071 75.349 150.075 75.3161 150.075ZM72.6226 145.292L75.0652 148.623L77.9985 130.231L75.5559 126.9L72.6226 145.292Z" fill="#F9FAFB"/>
<path d="M141.426 35.7959L140.509 41.5508L127.062 125.862H75.3029H52.3346H45.7905L60.1549 35.7959H141.426Z" fill="#D0D5DD"/>
<path d="M98.1742 102.945C98.6979 102.945 99.0568 103.354 98.9762 103.859C98.8957 104.364 98.4068 104.774 97.8831 104.774H67.0506C66.5269 104.774 66.168 104.364 66.2486 103.859C66.3292 103.354 66.8181 102.945 67.3417 102.945H98.1742Z" fill="#98A2B3"/>
<path d="M97.8812 105.186H67.0505C66.677 105.186 66.3309 105.033 66.1039 104.767C65.8769 104.502 65.7853 104.155 65.8421 103.795C65.9538 103.088 66.6129 102.533 67.3417 102.533H98.1742C98.5496 102.533 98.8938 102.687 99.1227 102.953C99.3479 103.218 99.4413 103.562 99.3827 103.923C99.2691 104.632 98.61 105.186 97.8812 105.186ZM67.3417 103.357C67.0194 103.357 66.7045 103.617 66.655 103.923C66.6349 104.044 66.6624 104.152 66.7301 104.231C66.8015 104.315 66.915 104.361 67.0505 104.361H97.8831C98.2053 104.361 98.5202 104.101 98.5697 103.793C98.5898 103.672 98.5642 103.566 98.4965 103.487C98.425 103.403 98.3115 103.357 98.176 103.357H67.3417Z" fill="#98A2B3"/>
<path d="M114.659 91.4297C115.182 91.4297 115.541 91.838 115.461 92.3434C115.38 92.8487 114.891 93.2589 114.368 93.2589H68.887C68.3633 93.2589 68.0045 92.8487 68.085 92.3434C68.1656 91.838 68.6545 91.4297 69.1781 91.4297H114.659Z" fill="#98A2B3"/>
<path d="M114.368 93.6707H68.887C68.5134 93.6707 68.1674 93.5169 67.9403 93.2514C67.7133 92.9859 67.6217 92.6399 67.6785 92.2792C67.792 91.5724 68.4494 91.0176 69.1781 91.0176H114.659C115.034 91.0176 115.378 91.1714 115.607 91.4369C115.832 91.7024 115.926 92.0466 115.867 92.4073C115.754 93.1159 115.095 93.6707 114.368 93.6707ZM69.1781 91.8415C68.8558 91.8415 68.5409 92.1015 68.4915 92.4073C68.4713 92.5282 68.4988 92.6362 68.5665 92.7149C68.6379 92.7992 68.7515 92.8449 68.887 92.8449H114.368C114.69 92.8449 115.005 92.5849 115.054 92.2773C115.074 92.1565 115.049 92.0503 114.981 91.9715C114.91 91.8873 114.796 91.8415 114.661 91.8415H69.1781Z" fill="#98A2B3"/>
<path d="M116.495 79.9141C117.019 79.9141 117.378 80.3242 117.297 80.8277C117.217 81.3331 116.728 81.7432 116.204 81.7432H70.7234C70.1998 81.7432 69.8409 81.3331 69.9215 80.8277C70.002 80.3242 70.4909 79.9141 71.0146 79.9141H116.495Z" fill="#98A2B3"/>
<path d="M116.204 82.1551H70.7234C70.3499 82.1551 70.0038 82.0013 69.7768 81.7358C69.5497 81.4703 69.4582 81.1242 69.5149 80.7635C69.6284 80.0567 70.2858 79.502 71.0145 79.502H116.495C116.869 79.502 117.215 79.6558 117.442 79.9213C117.667 80.1868 117.76 80.531 117.704 80.8917C117.59 81.6003 116.931 82.1551 116.204 82.1551ZM71.0145 80.3259C70.6923 80.3259 70.3773 80.5859 70.3279 80.8935C70.3077 81.0144 70.3352 81.1224 70.403 81.2011C70.4744 81.2854 70.5879 81.3311 70.7234 81.3311H116.204C116.526 81.3311 116.841 81.0711 116.891 80.7635C116.909 80.6427 116.883 80.5365 116.816 80.4577C116.744 80.3735 116.631 80.3277 116.495 80.3277H71.0145V80.3259Z" fill="#98A2B3"/>
<path d="M118.332 68.3994C118.856 68.3994 119.215 68.8096 119.134 69.3149C119.054 69.8185 118.565 70.2286 118.041 70.2286H72.5604C72.0367 70.2286 71.6778 69.8185 71.7584 69.3149C71.8389 68.8096 72.3278 68.3994 72.8515 68.3994H118.332Z" fill="#98A2B3"/>
<path d="M118.041 70.6406H72.5601C72.1866 70.6406 71.8406 70.4868 71.6135 70.2213C71.3883 69.9558 71.2949 69.6115 71.3517 69.2508C71.4652 68.5422 72.1225 67.9893 72.8513 67.9893H118.332C118.705 67.9893 119.052 68.1431 119.279 68.4086C119.506 68.6741 119.597 69.0183 119.54 69.3808C119.427 70.0858 118.768 70.6406 118.041 70.6406ZM72.8513 68.8114C72.529 68.8114 72.2141 69.0714 72.1646 69.379C72.1445 69.4998 72.172 69.606 72.2397 69.6848C72.3111 69.769 72.4246 69.8148 72.5601 69.8148H118.041C118.363 69.8148 118.678 69.5548 118.727 69.249C118.748 69.1282 118.72 69.0201 118.652 68.9414C118.581 68.8572 118.467 68.8114 118.332 68.8114H72.8513Z" fill="#98A2B3"/>
<path d="M120.168 56.8838C120.692 56.8838 121.051 57.2939 120.97 57.7993C120.89 58.3047 120.401 58.713 119.877 58.713H74.3963C73.8726 58.713 73.5137 58.3047 73.5943 57.7993C73.6749 57.2939 74.1638 56.8838 74.6874 56.8838H120.168Z" fill="#98A2B3"/>
<path d="M119.877 59.1248H74.3965C74.0211 59.1248 73.6769 58.971 73.448 58.7055C73.2228 58.44 73.1294 58.0958 73.188 57.7351C73.3015 57.0265 73.9607 56.4717 74.6876 56.4717H120.168C120.542 56.4717 120.888 56.6255 121.115 56.891C121.342 57.1565 121.433 57.5025 121.377 57.8632C121.263 58.57 120.604 59.1248 119.877 59.1248ZM74.6876 57.2956C74.3653 57.2956 74.0504 57.5556 74.001 57.8632C73.9808 57.9841 74.0065 58.0903 74.0742 58.169C74.1456 58.2533 74.2591 58.299 74.3946 58.299H119.875C120.198 58.299 120.512 58.039 120.562 57.7332C120.582 57.6124 120.555 57.5044 120.487 57.4256C120.415 57.3414 120.302 57.2956 120.166 57.2956H74.6876Z" fill="#98A2B3"/>
<path d="M141.426 35.7959L140.509 41.5508L127.062 125.862L130.191 130.126L143.636 45.8171L144.556 40.0603L141.426 35.7959Z" fill="#E4E7EC"/>
<path d="M130.191 130.539C130.061 130.539 129.939 130.478 129.86 130.37L126.731 126.106C126.665 126.018 126.639 125.906 126.656 125.796L141.02 35.7303C141.046 35.5655 141.168 35.4336 141.33 35.3952C141.491 35.3567 141.661 35.4172 141.758 35.5527L144.887 39.8171C144.953 39.905 144.979 40.0167 144.962 40.1265L130.598 130.193C130.572 130.357 130.45 130.489 130.288 130.528C130.256 130.535 130.223 130.539 130.191 130.539ZM127.496 125.756L129.941 129.087L144.122 40.165L141.679 36.8344L127.496 125.756Z" fill="#F9FAFB"/>
<path d="M127.062 125.862H75.3029H48.5737H45.7905L48.9197 130.127H51.7011H78.4321H130.191L127.062 125.862Z" fill="#D0D5DD"/>
<path d="M130.192 130.539H48.9199C48.7881 130.539 48.6654 130.476 48.5885 130.37L45.4593 126.106C45.3678 125.981 45.3531 125.815 45.4245 125.675C45.4941 125.536 45.6369 125.45 45.7925 125.45H127.064C127.196 125.45 127.319 125.512 127.396 125.619L130.525 129.883C130.616 130.008 130.631 130.174 130.56 130.313C130.488 130.451 130.347 130.539 130.192 130.539ZM49.1287 129.715H129.379L126.854 126.274H46.6037L49.1287 129.715Z" fill="#F9FAFB"/>
<path d="M157.006 52.3359L157.406 54.8243C157.645 56.3166 158.669 57.4848 160.141 57.9443L162.602 58.7115L159.898 59.4787C158.279 59.9383 156.882 61.1065 156.166 62.5988L154.974 65.0872L154.573 62.5988C154.333 61.1065 153.31 59.9383 151.837 59.4787L149.378 58.7115L152.081 57.9443C153.7 57.4848 155.097 56.3166 155.813 54.8243L157.006 52.3359Z" fill="#D0D5DD"/>
<path d="M52.4902 37.8193L52.796 39.7273C52.981 40.8716 53.7646 41.767 54.8944 42.1204L56.7803 42.7082L54.7058 43.2977C53.4643 43.6493 52.3932 44.5447 51.8439 45.6891L50.9302 47.5988L50.6244 45.6891C50.4395 44.5447 49.6558 43.6511 48.5261 43.2977L46.6401 42.7082L48.7129 42.1204C49.9543 41.7688 51.0254 40.8716 51.5747 39.7273L52.4902 37.8193Z" fill="#D0D5DD"/>
<path d="M121.415 108.855L121.586 109.919C121.688 110.556 122.126 111.055 122.756 111.252L123.805 111.58L122.651 111.908C121.959 112.106 121.36 112.604 121.055 113.241L120.546 114.305L120.375 113.241C120.273 112.604 119.837 112.106 119.205 111.908L118.154 111.58L119.31 111.252C120.002 111.055 120.599 110.556 120.904 109.919L121.415 108.855Z" fill="#F7F9FC"/>
<path d="M39.6548 116.439L39.8251 117.501C39.9277 118.139 40.3653 118.639 40.9952 118.834L42.0443 119.162L40.8908 119.49C40.1987 119.688 39.5999 120.186 39.2941 120.825L38.7851 121.887L38.6148 120.825C38.5141 120.188 38.0765 119.688 37.4466 119.49L36.3975 119.162L37.551 118.834C38.2431 118.639 38.84 118.14 39.1458 117.501L39.6548 116.439Z" fill="#D0D5DD"/>
</svg>
