<svg width="137" height="122" viewBox="0 0 137 122" fill="none" xmlns="http://www.w3.org/2000/svg">
<path d="M68.4988 121.011C105.833 121.011 136.098 109.138 136.098 94.4923C136.098 79.8464 105.833 67.9736 68.4988 67.9736C31.1647 67.9736 0.899414 79.8464 0.899414 94.4923C0.899414 109.138 31.1647 121.011 68.4988 121.011Z" fill="#101127"/>
<path d="M41.4114 15.1562L38.7454 31.8735H30.0811L32.747 15.1562H41.4114Z" fill="#F7F9FC"/>
<path d="M84.4961 32.4336C85.0729 32.4336 85.4684 32.884 85.3786 33.4407C85.2908 33.9973 84.7524 34.4495 84.1738 34.4495H50.3091C49.7324 34.4495 49.335 33.9973 49.4248 33.4407C49.5126 32.884 50.0528 32.4336 50.6296 32.4336H84.4961Z" fill="#667185"/>
<path d="M87.3113 20.4917H107.041L104.082 39.0454L102.91 46.3951H50.9894C49.098 46.3951 47.6387 45.172 47.4299 43.4087L47.2688 42.03C47.0601 40.2685 45.6007 39.0436 43.7093 39.0436H28.9385L29.7606 33.8838H40.5142L43.8228 13.1383H33.0693L34.9845 1.125H90.056L90.3453 1.45459L87.3113 20.4917ZM85.2533 27.6931C85.8301 27.6931 86.3684 27.2426 86.4563 26.686C86.5441 26.1294 86.1505 25.6771 85.5737 25.6771H51.7072C51.1304 25.6771 50.5903 26.1294 50.5006 26.686C50.4127 27.2426 50.8082 27.6931 51.3849 27.6931H85.2533ZM84.1766 34.4459C84.7534 34.4459 85.2917 33.9936 85.3815 33.437C85.4693 32.8804 85.0757 32.4299 84.4989 32.4299H50.6306C50.0538 32.4299 49.5136 32.8804 49.4257 33.437C49.3379 33.9936 49.7334 34.4459 50.3101 34.4459H84.1766ZM83.1 41.195C83.6768 41.195 84.2151 40.7446 84.303 40.188C84.3909 39.6313 83.9972 39.1791 83.4204 39.1791H49.5539C48.9771 39.1791 48.437 39.6313 48.3473 40.188C48.2594 40.7446 48.6549 41.195 49.2317 41.195H83.1Z" fill="#F7F9FC"/>
<path d="M83.4199 39.1816C83.9967 39.1816 84.3903 39.6339 84.3025 40.1905C84.2146 40.7472 83.6762 41.1976 83.0995 41.1976H49.233C48.6562 41.1976 48.2589 40.7472 48.3486 40.1905C48.4365 39.6339 48.9766 39.1816 49.5552 39.1816H83.4199Z" fill="#667185"/>
<path d="M83.4199 39.1816C83.9967 39.1816 84.3903 39.6339 84.3025 40.1905C84.2146 40.7472 83.6762 41.1976 83.0995 41.1976H49.233C48.6562 41.1976 48.2589 40.7472 48.3486 40.1905C48.4365 39.6339 48.9766 39.1816 49.5552 39.1816H83.4199Z" fill="#667185"/>
<path d="M120.605 46.9993C120.603 46.9425 120.598 46.8857 120.592 46.829C120.589 46.796 120.587 46.7612 120.583 46.7283C120.576 46.666 120.565 46.6038 120.554 46.5415C120.55 46.5195 120.548 46.4976 120.543 46.4756C120.543 46.4719 120.541 46.4683 120.539 46.4628C120.526 46.3968 120.51 46.3309 120.493 46.2669C120.49 46.2504 120.486 46.2321 120.481 46.2156C120.459 46.135 120.433 46.0545 120.404 45.9757C120.404 45.9739 120.402 45.9721 120.402 45.9702C120.4 45.9666 120.398 45.9629 120.396 45.9574C120.352 45.8384 120.303 45.7249 120.246 45.6132C120.241 45.604 120.239 45.593 120.233 45.5839C120.232 45.5784 120.228 45.5747 120.224 45.5692C120.173 45.4722 120.118 45.377 120.058 45.2854C120.052 45.2763 120.047 45.2671 120.041 45.258C120.014 45.2177 119.986 45.1774 119.959 45.1389L116.515 40.4424C116.549 40.49 116.582 40.5394 116.613 40.5889C116.674 40.6804 116.729 40.7756 116.78 40.8727C116.787 40.8873 116.795 40.902 116.802 40.9166C116.857 41.0283 116.908 41.1437 116.952 41.2608C116.954 41.2663 116.958 41.2718 116.96 41.2792C116.987 41.3579 117.013 41.4385 117.036 41.519C117.042 41.5355 117.044 41.5538 117.049 41.5703C117.066 41.6344 117.082 41.7003 117.095 41.7662C117.1 41.7918 117.104 41.8175 117.108 41.8431C117.119 41.9054 117.128 41.9658 117.137 42.0299C117.141 42.0628 117.143 42.0976 117.146 42.1306C117.152 42.1873 117.155 42.2441 117.159 42.3009C117.161 42.3375 117.161 42.3741 117.161 42.4107C117.161 42.4657 117.161 42.5224 117.159 42.5774C117.157 42.614 117.157 42.6524 117.154 42.6909C117.15 42.7476 117.144 42.8044 117.139 42.863C117.135 42.8996 117.132 42.9362 117.126 42.9747C117.117 43.0369 117.108 43.0974 117.095 43.1596C117.09 43.1926 117.084 43.2255 117.077 43.2585C117.06 43.3391 117.04 43.4196 117.018 43.5002C117.014 43.5148 117.011 43.5295 117.007 43.546C116.98 43.6412 116.949 43.7382 116.914 43.8334C116.903 43.8627 116.89 43.892 116.879 43.9213C116.853 43.9891 116.826 44.0568 116.797 44.1227C116.762 44.1996 116.727 44.2765 116.689 44.3553L91.9789 93.1043L91.8544 92.9358C91.8105 93.0365 91.7629 93.1336 91.7116 93.2306C91.7079 93.238 91.7043 93.2435 91.7024 93.2508C91.653 93.3442 91.5999 93.4339 91.545 93.5236C91.4699 93.6445 91.3912 93.7598 91.3069 93.8733C91.2831 93.9063 91.2575 93.9356 91.2337 93.9667C91.1769 94.0381 91.1202 94.1095 91.0597 94.1791C91.0286 94.2157 90.9957 94.2505 90.9627 94.2853C90.9078 94.3439 90.851 94.4025 90.7924 94.4593C90.7576 94.4922 90.7247 94.527 90.6899 94.5581C90.6276 94.6149 90.5635 94.6698 90.4995 94.7248C90.4665 94.7522 90.4354 94.7797 90.4024 94.8071C90.3035 94.8877 90.201 94.9646 90.0948 95.036C89.9849 95.1111 89.8714 95.1807 89.7561 95.2484C89.7249 95.2667 89.692 95.2832 89.659 95.3015C89.5601 95.3565 89.4594 95.4077 89.3569 95.4553C89.3166 95.4755 89.2745 95.4938 89.2342 95.5121C89.1958 95.5286 89.1573 95.545 89.1189 95.5597C89.0566 95.5853 88.9944 95.6091 88.9321 95.6311C88.8918 95.6458 88.8534 95.6586 88.8131 95.6732C88.7508 95.6934 88.6886 95.7135 88.6263 95.73C88.5824 95.7428 88.5403 95.7556 88.4963 95.7666C88.4322 95.7831 88.3663 95.7977 88.3004 95.8124C88.2583 95.8215 88.2162 95.8307 88.1759 95.8398C88.1045 95.8527 88.0312 95.8636 87.958 95.8728C87.9232 95.8783 87.8866 95.8838 87.8518 95.8875C87.7438 95.9003 87.6339 95.9094 87.5259 95.9131L90.97 100.61C90.9755 100.61 90.981 100.608 90.9865 100.608L90.9883 100.61C90.9993 100.61 91.0103 100.61 91.0231 100.61C91.0744 100.61 91.1238 100.608 91.1751 100.606C91.1971 100.604 91.2191 100.6 91.241 100.6C91.3509 100.595 91.4607 100.584 91.5688 100.569C91.6017 100.566 91.6329 100.562 91.6658 100.558C91.805 100.538 91.9423 100.511 92.0796 100.476C92.1126 100.469 92.1437 100.458 92.1748 100.45C92.2462 100.43 92.3195 100.414 92.3909 100.39C92.4293 100.377 92.4678 100.362 92.5063 100.35C92.5355 100.34 92.563 100.329 92.5923 100.32C92.7113 100.276 92.8285 100.231 92.9439 100.179C92.9512 100.176 92.9585 100.17 92.9677 100.168C92.975 100.165 92.9842 100.163 92.9933 100.157C92.9933 100.157 92.9933 100.156 92.9915 100.156C92.9915 100.156 92.9915 100.157 92.9933 100.157C93.1215 100.099 93.246 100.033 93.3687 99.9633C93.3723 99.9615 93.3742 99.9596 93.3778 99.9578C93.4144 99.9377 93.4474 99.9139 93.4822 99.8919C93.5646 99.8425 93.647 99.793 93.7275 99.7381C93.7349 99.7344 93.7404 99.7308 93.7477 99.7253C93.7971 99.6923 93.8429 99.6539 93.8905 99.6172C93.9473 99.5751 94.004 99.5367 94.0571 99.4927C94.0645 99.4872 94.0699 99.4836 94.0773 99.4781C94.1285 99.4378 94.1743 99.392 94.2237 99.3499C94.2659 99.3133 94.3098 99.2785 94.3501 99.24C94.3592 99.2309 94.3684 99.2236 94.3776 99.2144C94.3794 99.2126 94.3794 99.2126 94.3812 99.2107C94.383 99.2089 94.383 99.2089 94.3849 99.2071C94.3959 99.1979 94.4068 99.1869 94.416 99.1778C94.4398 99.1558 94.4581 99.1302 94.4819 99.1082C94.5442 99.046 94.6083 98.9837 94.6669 98.9178C94.6833 98.8995 94.698 98.8793 94.7145 98.861C94.7273 98.8464 94.7438 98.8317 94.7566 98.8171C94.7694 98.8024 94.7822 98.786 94.795 98.7713C94.8371 98.72 94.8774 98.6688 94.9177 98.6157C94.925 98.6065 94.9342 98.5974 94.9415 98.5864C94.9433 98.5827 94.9452 98.579 94.9488 98.5754C95.0331 98.4637 95.1118 98.3465 95.1869 98.2275C95.1942 98.2147 95.2033 98.2037 95.2107 98.1927C95.218 98.1817 95.2235 98.1689 95.2308 98.1579C95.2894 98.0609 95.3443 97.9638 95.3956 97.8613L120.142 49.0463C120.175 48.9804 120.208 48.9127 120.237 48.8468C120.243 48.8358 120.246 48.8248 120.25 48.8156C120.279 48.7479 120.307 48.6801 120.332 48.6142C120.343 48.5849 120.356 48.5556 120.367 48.5263C120.402 48.4311 120.433 48.3341 120.46 48.2389C120.464 48.2242 120.468 48.2096 120.471 48.1931C120.493 48.1125 120.514 48.0319 120.53 47.9514C120.537 47.9184 120.543 47.8855 120.548 47.8525C120.559 47.7903 120.57 47.728 120.579 47.6676C120.585 47.631 120.589 47.5943 120.592 47.5559C120.598 47.4991 120.603 47.4405 120.607 47.3838C120.609 47.3453 120.611 47.3087 120.612 47.2703C120.614 47.2135 120.614 47.1586 120.614 47.1036C120.607 47.0725 120.607 47.0359 120.605 46.9993Z" fill="#667185"/>
<path d="M90.7648 101.036L86.7329 95.5378L87.5056 95.5067C87.6045 95.5031 87.7033 95.4939 87.8022 95.4829C87.8187 95.4811 87.8352 95.4793 87.8498 95.4756L87.8993 95.4683C87.9652 95.4591 88.0311 95.45 88.097 95.4371C88.1208 95.4335 88.1465 95.428 88.1703 95.4225L88.2124 95.4133C88.271 95.4005 88.3314 95.3877 88.39 95.3731C88.4229 95.3639 88.4541 95.3547 88.487 95.3456L88.509 95.3383C88.5658 95.3218 88.6243 95.3053 88.6811 95.2852C88.7177 95.2723 88.7544 95.2595 88.791 95.2467C88.8477 95.2266 88.9063 95.2046 88.9631 95.1808C89.0052 95.1643 89.0363 95.1515 89.0693 95.1369C89.0967 95.1259 89.1206 95.113 89.1462 95.1002L89.1828 95.0838C89.278 95.0398 89.3696 94.9922 89.4611 94.9428L89.4996 94.9226C89.5161 94.9135 89.5344 94.9043 89.5508 94.8952C89.6699 94.8256 89.7706 94.7633 89.8621 94.6992C89.9518 94.637 90.0434 94.5692 90.1441 94.4887C90.1606 94.474 90.1789 94.4612 90.1954 94.4466L90.2338 94.4136C90.2924 94.3642 90.351 94.3129 90.4078 94.2598C90.4352 94.2342 90.4609 94.2085 90.4883 94.1829L90.503 94.1682C90.5561 94.117 90.6073 94.062 90.6586 94.009C90.6879 93.9778 90.7172 93.9449 90.7465 93.9119C90.8033 93.8478 90.8545 93.7837 90.9076 93.7178L90.9369 93.6812C90.9497 93.6647 90.9626 93.6482 90.9754 93.6318C91.0559 93.5256 91.1292 93.4175 91.1933 93.3113C91.2445 93.2289 91.2921 93.1465 91.3379 93.0623L91.3452 93.0458C91.3929 92.9561 91.4368 92.8664 91.4752 92.7748L91.7609 92.1193L91.911 92.3244L116.324 44.1686C116.361 44.0972 116.392 44.0276 116.423 43.9562C116.45 43.894 116.474 43.8335 116.498 43.7713L116.529 43.6926C116.56 43.6047 116.589 43.5186 116.613 43.4307L116.622 43.3904C116.643 43.3172 116.661 43.244 116.676 43.1726L116.692 43.0847C116.703 43.0279 116.712 42.973 116.719 42.918C116.723 42.8942 116.725 42.8686 116.729 42.843L116.73 42.8192C116.736 42.7679 116.741 42.7166 116.743 42.6654C116.745 42.6324 116.747 42.5994 116.747 42.5665C116.749 42.5152 116.749 42.4658 116.749 42.4163C116.749 42.3834 116.749 42.3523 116.747 42.3193C116.745 42.2699 116.741 42.2186 116.736 42.1692L116.732 42.1362C116.73 42.1179 116.729 42.0996 116.727 42.0794C116.719 42.0245 116.71 41.9696 116.701 41.9146L116.69 41.8451C116.679 41.7865 116.665 41.7297 116.65 41.6711L116.641 41.6345C116.619 41.5539 116.597 41.4844 116.571 41.4148L116.568 41.4056C116.529 41.3013 116.487 41.2024 116.434 41.098L116.421 41.0705C116.373 40.979 116.324 40.8948 116.269 40.8105C116.24 40.7666 116.212 40.7245 116.183 40.6824L116.848 40.1953C116.849 40.1971 116.851 40.199 116.851 40.2008L120.292 44.8919C120.325 44.9358 120.356 44.9798 120.385 45.0255L120.411 45.0695C120.471 45.161 120.532 45.2636 120.585 45.3643L120.598 45.3863C120.609 45.4082 120.616 45.4265 120.623 45.443C120.68 45.5547 120.733 45.6756 120.777 45.7982L120.795 45.8495C120.821 45.9227 120.85 46.0125 120.876 46.1022C120.88 46.1187 120.883 46.1333 120.887 46.1498C120.909 46.2322 120.925 46.3054 120.94 46.3805L120.945 46.4043C120.947 46.4135 120.951 46.4336 120.953 46.4537C120.967 46.5361 120.978 46.6057 120.986 46.6753C120.989 46.7046 120.991 46.7339 120.995 46.7632L120.997 46.7888C121.002 46.8511 121.008 46.9133 121.01 46.9774C121.011 47.0177 121.011 47.058 121.013 47.0983C121.015 47.1587 121.013 47.2209 121.011 47.285C121.01 47.3271 121.008 47.3674 121.006 47.4095C121.002 47.4736 120.997 47.5359 120.989 47.6L120.988 47.6219C120.984 47.6549 120.98 47.6897 120.977 47.7226C120.967 47.7904 120.955 47.8581 120.944 47.9259L120.938 47.957C120.935 47.9826 120.929 48.0101 120.924 48.0357C120.905 48.1236 120.883 48.2133 120.859 48.3012C120.854 48.3232 120.85 48.3378 120.847 48.3507C120.817 48.455 120.783 48.5612 120.744 48.6656C120.737 48.6876 120.728 48.7095 120.718 48.7315L120.707 48.759C120.678 48.8322 120.649 48.9055 120.618 48.9787C120.614 48.9897 120.609 49.0025 120.603 49.0153C120.57 49.0867 120.537 49.1582 120.501 49.2314L95.7543 98.0463C95.7031 98.1452 95.6445 98.2514 95.5749 98.3686C95.5694 98.3796 95.5621 98.3924 95.5548 98.4052C95.5456 98.4199 95.5364 98.4345 95.5273 98.4473C95.4449 98.5773 95.3643 98.6964 95.2819 98.808L95.2893 98.8172L95.0622 99.0809L95.0604 99.0827L94.7454 99.4507L94.7308 99.4343C94.7198 99.4471 94.707 99.4581 94.696 99.4709L94.6246 99.5386C94.5935 99.5679 94.5623 99.5935 94.5312 99.621L94.4415 99.6979C94.4049 99.7309 94.3683 99.7638 94.3298 99.795L94.3005 99.8169C94.2639 99.8462 94.2181 99.881 94.1723 99.914L94.0808 99.9817C94.046 100.009 94.0094 100.037 93.9728 100.062L93.9416 100.082C93.8666 100.134 93.7787 100.187 93.6908 100.24L93.6542 100.264C93.6358 100.277 93.6157 100.288 93.5974 100.3L93.6102 100.317L93.1836 100.516C93.1763 100.52 93.1689 100.524 93.1616 100.526L92.8613 100.665L92.854 100.656C92.8137 100.67 92.7716 100.687 92.7277 100.703L92.5958 100.749C92.5665 100.76 92.5391 100.769 92.5098 100.778C92.4475 100.798 92.3834 100.815 92.3212 100.831L92.2461 100.861C92.2223 100.868 92.1985 100.875 92.1729 100.881C92.0245 100.917 91.8726 100.947 91.7224 100.97C91.6968 100.974 91.673 100.978 91.6474 100.98L91.6162 100.983C91.4954 101 91.3745 101.011 91.2592 101.016C91.2317 101.02 91.2097 101.022 91.1878 101.024C91.131 101.025 91.0761 101.027 91.0212 101.027H90.9827H90.9754L90.7648 101.036ZM88.2728 96.2428L91.1731 100.196C91.1878 100.194 91.2006 100.192 91.2152 100.192C91.3141 100.187 91.4148 100.178 91.5137 100.165L91.6016 100.154C91.7279 100.136 91.8543 100.11 91.9788 100.079L92.1161 100.042C92.1655 100.029 92.2168 100.017 92.2662 100C92.2846 99.9945 92.3029 99.9872 92.3212 99.9817L92.4512 99.936C92.5775 99.8902 92.6801 99.8481 92.7734 99.8059C92.7716 99.8059 92.7826 99.8005 92.7936 99.795L92.8265 99.7821C92.9382 99.7309 93.0518 99.6723 93.1634 99.6082L93.1818 99.5972C93.1891 99.5917 93.2001 99.5862 93.211 99.5789C93.2294 99.5661 93.2495 99.5551 93.2678 99.5423C93.3465 99.4947 93.4216 99.4507 93.493 99.4013L93.5223 99.383C93.5351 99.3738 93.5589 99.3555 93.5827 99.3372L93.6908 99.2566C93.7256 99.231 93.7622 99.2054 93.797 99.1779L93.8244 99.1578C93.8428 99.1431 93.8684 99.1193 93.894 99.0955L94.0057 98.9985C94.0259 98.982 94.0478 98.9637 94.0661 98.9454L94.143 98.8703C94.1577 98.8538 94.1723 98.8373 94.187 98.8227L94.2254 98.7842C94.2712 98.7385 94.3152 98.6945 94.3591 98.6469C94.3792 98.6231 94.3902 98.6085 94.4012 98.5956C94.414 98.581 94.425 98.5682 94.4378 98.5572L94.7509 98.819L94.4415 98.5535L94.4763 98.5133C94.5129 98.4693 94.5459 98.4254 94.5807 98.3814C94.5935 98.3631 94.6026 98.354 94.6099 98.3448L94.6173 98.3338C94.6887 98.2386 94.7601 98.1342 94.8333 98.0152C94.8407 98.0042 94.8498 97.9896 94.859 97.9768C94.859 97.9749 94.8663 97.9639 94.8718 97.9511C94.9249 97.8632 94.9761 97.7735 95.0238 97.6801L119.77 48.867C119.801 48.8066 119.83 48.7443 119.858 48.6839L119.871 48.6546C119.898 48.5942 119.922 48.5319 119.946 48.4715L119.977 48.3928C120.008 48.3049 120.037 48.2188 120.061 48.131L120.072 48.0907C120.092 48.0193 120.111 47.946 120.125 47.8728L120.142 47.7831C120.153 47.7281 120.162 47.6714 120.169 47.6164C120.173 47.5908 120.175 47.5652 120.178 47.5395L120.18 47.5176C120.186 47.4663 120.191 47.415 120.193 47.3638C120.195 47.3308 120.197 47.2978 120.197 47.2631C120.198 47.2136 120.198 47.1642 120.198 47.1147C120.198 47.0818 120.198 47.0488 120.197 47.0177C120.195 46.9683 120.191 46.917 120.186 46.8675L120.184 46.8364C120.182 46.8163 120.18 46.7961 120.178 46.776C120.171 46.7211 120.164 46.668 120.153 46.613L120.143 46.5526C120.142 46.5453 120.14 46.5398 120.14 46.5325C120.131 46.4849 120.116 46.4281 120.101 46.3695L120.092 46.3329C120.072 46.256 120.05 46.1882 120.026 46.1205C120.024 46.1168 120.021 46.1095 120.019 46.1003C119.982 46.0015 119.94 45.9026 119.887 45.7964L119.867 45.7561C119.825 45.6755 119.777 45.595 119.722 45.5089L119.699 45.4705C119.684 45.4503 119.66 45.4155 119.636 45.3826L117.58 42.5775C117.58 42.5811 117.58 42.5866 117.58 42.5903C117.578 42.6324 117.576 42.6745 117.575 42.7166C117.571 42.7789 117.565 42.843 117.558 42.9071L117.556 42.9309C117.553 42.9638 117.549 42.9968 117.545 43.0297C117.536 43.0993 117.523 43.1671 117.51 43.2366L117.505 43.2678C117.501 43.2934 117.496 43.319 117.49 43.3447C117.472 43.4344 117.45 43.5223 117.424 43.612L117.413 43.6578C117.382 43.7658 117.349 43.8702 117.311 43.9745C117.304 43.9965 117.294 44.0185 117.285 44.0405L117.274 44.0679C117.245 44.1412 117.218 44.2144 117.185 44.2876C117.148 44.3719 117.11 44.4561 117.066 44.5385L92.0484 93.8844L91.9183 93.7068C91.9129 93.716 91.9074 93.727 91.9 93.7361C91.8231 93.8625 91.7353 93.9888 91.6419 94.1151C91.6236 94.1389 91.6052 94.1628 91.5869 94.1866L91.5631 94.2177C91.5009 94.2964 91.4386 94.3733 91.3727 94.4484C91.3397 94.4868 91.305 94.5253 91.2683 94.5637C91.2079 94.6278 91.1475 94.6901 91.0852 94.7523L91.0706 94.767C91.0395 94.7981 91.0065 94.8292 90.9754 94.8604C90.9076 94.9226 90.8399 94.9812 90.7703 95.0398L90.7392 95.0673C90.7154 95.0874 90.6916 95.1094 90.6659 95.1277C90.5487 95.2211 90.4407 95.3016 90.3345 95.3749C90.2265 95.45 90.1075 95.525 89.9701 95.6038C89.9463 95.6184 89.9207 95.6312 89.8969 95.644L89.8658 95.6605C89.7596 95.7191 89.6497 95.7759 89.538 95.8272L89.5051 95.8418C89.4721 95.8583 89.4373 95.8729 89.4044 95.8894C89.3677 95.9059 89.3275 95.9224 89.289 95.937C89.2121 95.9681 89.1444 95.9938 89.0766 96.0194C89.0345 96.0341 88.9906 96.0505 88.9484 96.0652C88.8807 96.0872 88.8129 96.1073 88.7452 96.1274L88.7232 96.1329C88.6829 96.1439 88.6427 96.1567 88.6042 96.1659C88.5346 96.1842 88.4632 96.1988 88.3918 96.2153L88.3552 96.2226C88.3241 96.2336 88.2984 96.2391 88.2728 96.2428Z" fill="#F9FAFB"/>
<path d="M113.578 39.0469C116.432 39.0469 118.016 41.7458 116.692 44.355L91.946 93.17C91.1128 94.8124 89.3386 95.9202 87.5405 95.9183C89.3514 95.8432 91.1092 94.6403 91.8544 92.9356L109.989 51.4685C111.108 48.9106 109.509 46.3966 106.761 46.3966H102.905L104.076 39.0469H113.578Z" fill="#13142F"/>
<path d="M87.5444 96.3313C87.5426 96.3313 87.5408 96.3313 87.5389 96.3313L87.5225 95.5073C89.1759 95.4395 90.8018 94.3153 91.4756 92.7718L109.61 51.3047C110.093 50.1987 110.038 49.0544 109.456 48.1663C108.892 47.3057 107.911 46.8114 106.759 46.8114H102.421L103.725 38.6377H113.576C115.055 38.6377 116.31 39.2987 117.018 40.4541C117.743 41.6351 117.758 43.1658 117.059 44.5446L92.3124 93.3558C91.4097 95.1356 89.4945 96.3313 87.5444 96.3313ZM103.39 45.9856H106.763C108.196 45.9856 109.431 46.6154 110.148 47.714C110.884 48.8401 110.965 50.2683 110.366 51.6343L96.716 82.8476L116.324 44.1692C116.903 43.0303 116.899 41.831 116.317 40.8825C115.762 39.978 114.764 39.4598 113.578 39.4598H104.43L103.39 45.9856Z" fill="#F9FAFB"/>
<path d="M113.79 54.3237C113.786 54.2615 113.783 54.1992 113.775 54.137C113.772 54.1058 113.768 54.0747 113.764 54.0436C113.757 53.9886 113.75 53.9337 113.739 53.8788C113.735 53.8623 113.735 53.8458 113.731 53.8293C113.728 53.8129 113.724 53.7982 113.72 53.7817C113.709 53.7323 113.698 53.681 113.686 53.6316C113.678 53.6005 113.669 53.5693 113.662 53.5382C113.647 53.4869 113.631 53.4357 113.612 53.3844C113.605 53.3643 113.6 53.3423 113.592 53.3222C113.59 53.3185 113.589 53.3148 113.587 53.3093C113.543 53.1903 113.493 53.0768 113.437 52.9651C113.431 52.9559 113.429 52.945 113.424 52.9358C113.42 52.9285 113.415 52.923 113.411 52.9157C113.36 52.8186 113.305 52.7252 113.246 52.6355C113.241 52.6282 113.237 52.6209 113.233 52.6135C113.206 52.5733 113.178 52.5348 113.151 52.4964L109.707 47.7998C109.74 47.8456 109.771 47.8932 109.802 47.9408C109.861 48.0323 109.917 48.1257 109.967 48.2209C109.976 48.2374 109.983 48.2539 109.992 48.2704C110.049 48.3821 110.099 48.4974 110.143 48.6146C110.152 48.6402 110.159 48.664 110.168 48.6897C110.185 48.7409 110.203 48.7922 110.218 48.8435C110.227 48.8746 110.234 48.9057 110.241 48.9369C110.254 48.9863 110.265 49.0357 110.276 49.087C110.284 49.12 110.289 49.1511 110.295 49.1841C110.304 49.239 110.313 49.2939 110.32 49.3488C110.324 49.38 110.329 49.4111 110.331 49.4422C110.337 49.5045 110.342 49.5667 110.344 49.629C110.346 49.6546 110.348 49.6803 110.348 49.7059C110.349 49.7938 110.349 49.8835 110.346 49.9732C110.346 49.9879 110.344 50.0025 110.342 50.019C110.338 50.0941 110.333 50.1691 110.324 50.246C110.32 50.2772 110.315 50.3083 110.311 50.3394C110.302 50.3999 110.293 50.4621 110.282 50.5225C110.276 50.5573 110.269 50.5921 110.262 50.6269C110.249 50.6855 110.234 50.7459 110.219 50.8063C110.21 50.8411 110.201 50.8759 110.192 50.9107C110.174 50.9748 110.154 51.0389 110.132 51.103C110.121 51.1323 110.111 51.1634 110.1 51.1927C110.067 51.2861 110.029 51.3813 109.989 51.4747L91.8543 92.9417C91.8104 93.0424 91.7628 93.1395 91.7115 93.2365C91.7079 93.2439 91.7042 93.2494 91.7024 93.2567C91.6529 93.3501 91.5998 93.4398 91.5449 93.5295C91.4698 93.6503 91.3911 93.7657 91.3069 93.8792C91.2831 93.9122 91.2574 93.9415 91.2336 93.9726C91.1769 94.044 91.1201 94.1154 91.0597 94.185C91.0286 94.2216 90.9956 94.2564 90.9626 94.2912C90.9077 94.3498 90.851 94.4084 90.7924 94.4651C90.7576 94.4981 90.7246 94.5329 90.6898 94.564C90.6276 94.6208 90.5635 94.6757 90.4994 94.7306C90.4664 94.7581 90.4353 94.7856 90.4024 94.813C90.3035 94.8936 90.2009 94.9705 90.0947 95.0419C89.9849 95.117 89.8714 95.1866 89.756 95.2543C89.7249 95.2726 89.6919 95.2891 89.659 95.3074C89.5601 95.3623 89.4594 95.4136 89.3568 95.4612C89.3166 95.4814 89.2744 95.4997 89.2342 95.518C89.1957 95.5345 89.1573 95.5509 89.1188 95.5656C89.0566 95.5912 88.9943 95.615 88.932 95.637C88.8918 95.6517 88.8533 95.6645 88.813 95.6791C88.7508 95.6993 88.6885 95.7194 88.6263 95.7359C88.5823 95.7487 88.5402 95.7615 88.4963 95.7725C88.4322 95.789 88.3663 95.8036 88.3003 95.8183C88.2582 95.8274 88.2161 95.8366 88.1758 95.8457C88.1044 95.8585 88.0312 95.8695 87.9579 95.8787C87.9232 95.8842 87.8865 95.8897 87.8517 95.8933C87.7437 95.9062 87.6338 95.9153 87.5258 95.919L25.7491 95.9226C24.5022 95.9226 23.4438 95.3898 22.8066 94.5219L26.2508 99.2185C26.888 100.086 27.9463 100.619 29.1932 100.619L90.97 100.616C91.0798 100.612 91.1879 100.603 91.2959 100.59C91.3325 100.586 91.3673 100.579 91.4021 100.575C91.4753 100.566 91.5467 100.555 91.6182 100.542C91.6603 100.535 91.7024 100.524 91.7445 100.515C91.8104 100.5 91.8745 100.487 91.9386 100.469C91.9825 100.458 92.0265 100.445 92.0704 100.432C92.1089 100.421 92.1473 100.412 92.1858 100.399C92.2096 100.392 92.2334 100.383 92.2572 100.376C92.2975 100.363 92.3359 100.348 92.3762 100.334C92.4385 100.312 92.5007 100.286 92.563 100.262C92.6014 100.246 92.6399 100.231 92.6783 100.215C92.6984 100.205 92.7186 100.198 92.7369 100.191C92.7589 100.182 92.779 100.169 92.801 100.158C92.9035 100.11 93.0042 100.059 93.1031 100.004C93.1251 99.993 93.147 99.9838 93.1672 99.971C93.1782 99.9637 93.1892 99.9564 93.2002 99.9509C93.4254 99.8209 93.6414 99.6726 93.8447 99.5096C93.852 99.5041 93.8611 99.4986 93.8685 99.4913C93.8941 99.4712 93.9161 99.4473 93.9417 99.4272C94.0058 99.3723 94.0699 99.3173 94.1321 99.2606C94.145 99.2478 94.1596 99.2368 94.1742 99.224C94.1962 99.2038 94.2145 99.1819 94.2365 99.1599C94.2951 99.1031 94.3519 99.0445 94.4068 98.9859C94.4251 98.9658 94.4434 98.9493 94.4617 98.9292C94.4764 98.9127 94.4892 98.8962 94.5038 98.8797C94.5643 98.8102 94.621 98.7406 94.6778 98.6673C94.6961 98.6435 94.7162 98.6216 94.7345 98.5978C94.74 98.5904 94.7455 98.5813 94.7529 98.5721C94.8371 98.4586 94.9176 98.3414 94.9909 98.2224C94.9945 98.2169 95 98.2114 95.0037 98.2041C95.055 98.1199 95.1026 98.0356 95.1483 97.9496C95.152 97.9423 95.1557 97.9349 95.1593 97.9276C95.1996 97.8489 95.2399 97.7701 95.2765 97.6896C95.2857 97.6713 95.293 97.6511 95.3022 97.6328L113.437 56.1657C113.477 56.0723 113.513 55.9771 113.548 55.8837C113.559 55.8526 113.568 55.8233 113.579 55.794C113.601 55.7299 113.622 55.6659 113.64 55.6018C113.649 55.567 113.658 55.5322 113.667 55.4974C113.682 55.437 113.697 55.3784 113.709 55.318C113.717 55.2832 113.724 55.2484 113.73 55.2136C113.741 55.1532 113.75 55.0909 113.759 55.0305C113.762 54.9994 113.768 54.9682 113.772 54.9371C113.781 54.8602 113.786 54.7851 113.79 54.7101C113.79 54.6954 113.792 54.6808 113.794 54.6643C113.797 54.5746 113.797 54.4848 113.795 54.397C113.794 54.375 113.792 54.3494 113.79 54.3237Z" fill="#13142F"/>
<path d="M29.1926 101.032C27.8432 101.032 26.6493 100.461 25.9188 99.4632L22.4746 94.7666L23.1393 94.2796L23.1429 94.2833C23.7179 95.0633 24.6682 95.5119 25.7503 95.5119L87.527 95.5082C87.6094 95.5045 87.7083 95.4954 87.8072 95.4844C87.8237 95.4826 87.8401 95.4807 87.8548 95.4771L87.9042 95.4698C87.9701 95.4606 88.0361 95.4514 88.102 95.4386C88.1258 95.435 88.1514 95.4295 88.1752 95.424L88.2173 95.4148C88.2759 95.402 88.3363 95.3892 88.3949 95.3745C88.4279 95.3654 88.459 95.3562 88.492 95.3471L88.5139 95.3398C88.5707 95.3233 88.6293 95.3068 88.6861 95.2867C88.7227 95.2738 88.7593 95.261 88.7959 95.2482C88.8527 95.2281 88.9113 95.2061 88.968 95.1823C89.0102 95.1658 89.0413 95.153 89.0742 95.1383C89.1017 95.1274 89.1255 95.1145 89.1511 95.1017L89.1878 95.0852C89.283 95.0413 89.3745 94.9937 89.4661 94.9443L89.5045 94.9241C89.521 94.915 89.5393 94.9058 89.5558 94.8966C89.6748 94.8271 89.7755 94.7648 89.8671 94.7007C89.9568 94.6385 90.0483 94.5707 90.149 94.4902C90.1655 94.4755 90.1838 94.4627 90.2003 94.448L90.2388 94.4151C90.2974 94.3656 90.356 94.3144 90.4127 94.2613C90.4402 94.2357 90.4658 94.21 90.4933 94.1844L90.5079 94.1697C90.561 94.1185 90.6123 94.0635 90.6636 94.0104C90.6929 93.9793 90.7222 93.9463 90.7515 93.9134C90.8082 93.8493 90.8595 93.7852 90.9126 93.7193L90.9419 93.6827C90.9547 93.6662 90.9675 93.6497 90.9803 93.6332C91.0609 93.527 91.1341 93.419 91.1982 93.3128C91.2495 93.2304 91.2971 93.148 91.3429 93.0638L91.3502 93.0473C91.3978 92.9576 91.4418 92.8679 91.4802 92.7763L109.615 51.3093C109.651 51.2232 109.686 51.1371 109.717 51.0529L109.745 50.9705C109.763 50.9138 109.783 50.8552 109.8 50.7966C109.807 50.7673 109.816 50.738 109.823 50.7087C109.84 50.6483 109.853 50.5952 109.864 50.5421C109.871 50.5109 109.876 50.4798 109.882 50.4487C109.893 50.3919 109.9 50.337 109.908 50.2839L109.919 50.2015C109.926 50.1337 109.931 50.066 109.935 49.9982L109.937 49.9635C109.941 49.8774 109.941 49.7987 109.939 49.7199L109.935 49.6522C109.931 49.5954 109.93 49.5405 109.922 49.4874C109.92 49.4654 109.917 49.4453 109.915 49.427L109.911 49.405C109.904 49.3556 109.897 49.3079 109.889 49.2585C109.884 49.2292 109.878 49.2018 109.873 49.1725C109.864 49.1285 109.853 49.0846 109.842 49.0406L109.82 48.9582C109.807 48.9143 109.792 48.8685 109.778 48.8227L109.756 48.7568C109.719 48.6579 109.677 48.5591 109.624 48.4547L109.602 48.4107C109.558 48.3265 109.51 48.2441 109.457 48.1654C109.432 48.1251 109.404 48.0848 109.377 48.0464L109.375 48.0427L110.039 47.5557C110.039 47.5557 110.039 47.5557 110.039 47.5575L113.484 52.2522C113.515 52.2962 113.546 52.3401 113.577 52.3841L113.599 52.4188C113.663 52.5177 113.722 52.6166 113.775 52.7155C113.78 52.7246 113.786 52.7338 113.791 52.7429L113.813 52.7906C113.875 52.9151 113.927 53.0341 113.971 53.1513L113.98 53.1769C113.989 53.2007 113.994 53.219 114 53.2373C114.024 53.3087 114.042 53.3673 114.06 53.4259C114.069 53.457 114.077 53.4882 114.086 53.5193C114.102 53.5852 114.117 53.6401 114.128 53.6969C114.134 53.7189 114.137 53.7335 114.139 53.7482C114.143 53.7683 114.145 53.783 114.146 53.7994C114.159 53.8672 114.168 53.9294 114.176 53.9899C114.181 54.0356 114.185 54.0649 114.188 54.0961C114.196 54.1656 114.199 54.2352 114.203 54.3048L114.205 54.3286C114.207 54.3487 114.209 54.3689 114.209 54.3909C114.212 54.4897 114.212 54.5886 114.207 54.6875L114.203 54.7296C114.198 54.8211 114.192 54.9035 114.181 54.9878C114.178 55.0134 114.174 55.039 114.17 55.0628L114.167 55.0903C114.157 55.1562 114.146 55.224 114.134 55.2917C114.126 55.3302 114.119 55.3686 114.112 55.4052C114.097 55.4712 114.082 55.5371 114.066 55.603C114.057 55.6414 114.046 55.6799 114.035 55.7183C114.015 55.7879 113.993 55.8575 113.969 55.9289L113.96 55.9545C113.952 55.9783 113.943 56.004 113.934 56.0278C113.897 56.1285 113.857 56.231 113.813 56.3336L95.6494 97.8647C95.611 97.9508 95.567 98.0368 95.5231 98.1211L95.5121 98.143C95.4608 98.2383 95.4096 98.3316 95.3528 98.4214L95.3345 98.4488C95.2558 98.577 95.1715 98.6997 95.08 98.8205C95.0781 98.8242 95.0708 98.8352 95.0617 98.848C95.047 98.8681 95.0305 98.8864 95.0141 98.9047L94.9994 98.9231C94.9372 99.0018 94.8749 99.0787 94.8108 99.1519C94.7925 99.1757 94.7797 99.1904 94.765 99.2069C94.7504 99.2233 94.7358 99.238 94.7193 99.2545L94.7065 99.2673C94.646 99.3314 94.5856 99.3936 94.5234 99.4559L94.5069 99.4724C94.4904 99.4907 94.4739 99.5072 94.4556 99.5236C94.4428 99.5364 94.43 99.5474 94.4172 99.5584C94.3439 99.6262 94.2743 99.6848 94.2048 99.7434L94.1828 99.7617C94.1645 99.7781 94.1443 99.7965 94.1242 99.8111L94.0931 99.8349C93.8807 100.005 93.6463 100.164 93.4028 100.307C93.3936 100.313 93.3808 100.322 93.368 100.329C93.3478 100.34 93.3295 100.349 93.3094 100.36C93.1922 100.424 93.0823 100.479 92.9725 100.533C92.9413 100.549 92.923 100.558 92.9029 100.567C92.8883 100.575 92.8718 100.58 92.8553 100.587C92.7967 100.613 92.7546 100.63 92.7125 100.646C92.6466 100.674 92.5788 100.699 92.5111 100.723C92.469 100.738 92.425 100.754 92.3829 100.769L92.3609 100.776C92.3426 100.783 92.3243 100.789 92.306 100.794C92.2785 100.804 92.2492 100.811 92.2199 100.82L92.1595 100.836C92.1192 100.847 92.0789 100.86 92.0387 100.869C91.9691 100.888 91.8977 100.902 91.8281 100.919L91.7933 100.926C91.7603 100.934 91.7256 100.941 91.6926 100.948C91.6139 100.963 91.5351 100.974 91.4564 100.985L91.4216 100.99C91.3941 100.994 91.3667 100.999 91.3392 101.001C91.2147 101.016 91.0975 101.025 90.9822 101.029L29.1926 101.032ZM24.5235 96.1674L26.5834 98.9743C27.1583 99.758 28.1086 100.207 29.1926 100.207L90.9693 100.203C91.0517 100.199 91.1506 100.19 91.2495 100.179C91.266 100.177 91.2825 100.175 91.2989 100.172L91.3465 100.164C91.4125 100.155 91.4784 100.146 91.5443 100.133C91.5699 100.128 91.5937 100.122 91.6175 100.117L91.6578 100.108C91.7164 100.095 91.7768 100.082 91.8354 100.067C91.8684 100.058 91.9013 100.049 91.9325 100.04L92.0094 100.018C92.0277 100.013 92.0442 100.009 92.0625 100.003L92.1284 99.9796C92.1632 99.9686 92.1998 99.9539 92.2364 99.9411C92.2932 99.921 92.3518 99.899 92.4085 99.8752C92.4451 99.8605 92.4799 99.8459 92.5147 99.8312L92.5788 99.8038C92.5953 99.7946 92.6118 99.7855 92.6283 99.7781C92.7216 99.7342 92.815 99.6866 92.9066 99.6372C92.923 99.628 92.9395 99.6207 92.956 99.6115C92.9725 99.6024 92.9835 99.595 92.9963 99.5877C93.205 99.4669 93.4046 99.3295 93.5895 99.1812L93.6353 99.1446C93.65 99.1318 93.6646 99.119 93.6793 99.1062C93.7378 99.0567 93.7983 99.0055 93.855 98.9524C93.866 98.9432 93.877 98.9322 93.8898 98.9231L93.9118 98.9011C93.9246 98.8883 93.9374 98.8755 93.9502 98.8626C94.0052 98.8095 94.0564 98.7564 94.1077 98.7015C94.1187 98.6887 94.1315 98.6759 94.1443 98.6631L94.1571 98.6484C94.1736 98.6283 94.1846 98.6154 94.1956 98.6026C94.2505 98.5385 94.3036 98.4745 94.3567 98.4085C94.3677 98.3939 94.3805 98.3792 94.3933 98.3628L94.408 98.3445C94.408 98.3426 94.4153 98.3316 94.4245 98.3207C94.5032 98.2145 94.5765 98.1064 94.6424 98.0002L94.6588 97.9764C94.7046 97.9013 94.7467 97.8281 94.787 97.753L94.798 97.7292C94.8328 97.6615 94.8694 97.5901 94.9024 97.5168L94.9262 97.4656L113.061 55.9985C113.097 55.9124 113.132 55.8282 113.161 55.7422L113.189 55.6598C113.209 55.6012 113.227 55.5426 113.244 55.4858C113.253 55.4547 113.26 55.4235 113.269 55.3924C113.284 55.3375 113.297 55.2844 113.308 55.2313C113.315 55.2002 113.321 55.169 113.326 55.1379C113.337 55.083 113.344 55.0281 113.352 54.9731L113.363 54.8889C113.37 54.8211 113.376 54.7552 113.379 54.6875L113.381 54.6564C113.385 54.5666 113.385 54.4879 113.383 54.411L113.379 54.3433C113.376 54.2883 113.372 54.2334 113.366 54.1785C113.365 54.1565 113.361 54.1327 113.357 54.1107C113.348 54.0466 113.341 53.999 113.333 53.9496C113.332 53.9368 113.33 53.9239 113.328 53.9093C113.324 53.8892 113.321 53.8763 113.317 53.8617C113.308 53.8214 113.299 53.7775 113.286 53.7335C113.277 53.6987 113.271 53.6749 113.264 53.653C113.251 53.6072 113.236 53.5614 113.22 53.5156L113.207 53.4735C113.203 53.4644 113.2 53.4552 113.196 53.446C113.161 53.3508 113.119 53.2538 113.066 53.1494L113.044 53.1055C113.002 53.0231 112.953 52.9407 112.899 52.8601L112.881 52.8308C112.861 52.8015 112.839 52.7704 112.815 52.7374L110.759 49.9342C110.759 49.9525 110.757 49.9708 110.757 49.9873L110.754 50.0294C110.748 50.1209 110.743 50.2051 110.732 50.2894C110.728 50.315 110.724 50.3406 110.721 50.3663L110.717 50.3937C110.708 50.4615 110.697 50.5292 110.684 50.597C110.677 50.6336 110.669 50.6721 110.662 50.7105C110.647 50.7764 110.633 50.8423 110.616 50.9083C110.605 50.9504 110.596 50.987 110.585 51.0218C110.565 51.0914 110.543 51.1609 110.519 51.2324L110.508 51.2635C110.501 51.2854 110.493 51.3093 110.484 51.3312C110.448 51.4338 110.407 51.5363 110.362 51.6388L92.2273 93.1059C92.1815 93.2085 92.132 93.3147 92.0716 93.4282L92.0643 93.4446C92.0075 93.5527 91.9489 93.6497 91.8903 93.7468C91.8134 93.8731 91.7256 93.9995 91.6322 94.1258C91.6139 94.1496 91.5956 94.1734 91.5772 94.1972L91.5534 94.2283C91.4912 94.3071 91.4289 94.384 91.363 94.459C91.3301 94.4975 91.2953 94.5359 91.2586 94.5744C91.1982 94.6385 91.1378 94.7007 91.0755 94.763L91.0609 94.7776C91.0298 94.8088 90.9968 94.8399 90.9657 94.871C90.8979 94.9333 90.8302 94.9919 90.7606 95.0505L90.7295 95.0779C90.7057 95.0981 90.6819 95.12 90.6562 95.1383C90.5391 95.2317 90.431 95.3123 90.3248 95.3855C90.2168 95.4606 90.0978 95.5357 89.9605 95.6144C89.9367 95.6291 89.911 95.6419 89.8872 95.6547L89.8561 95.6712C89.7499 95.7298 89.64 95.7865 89.5283 95.8378L89.4954 95.8524C89.4624 95.8689 89.4276 95.8836 89.3947 95.9001C89.358 95.9165 89.3178 95.933 89.2793 95.9476C89.2024 95.9788 89.1347 96.0044 89.0669 96.03C89.0248 96.0447 88.9809 96.0612 88.9387 96.0758C88.871 96.0978 88.8033 96.1179 88.7355 96.1381L88.7135 96.1436C88.6733 96.1546 88.633 96.1674 88.5945 96.1765C88.5249 96.1948 88.4535 96.2095 88.3821 96.226L88.3455 96.2333C88.3125 96.2406 88.2796 96.2479 88.2448 96.2534C88.1661 96.2681 88.0873 96.2791 88.0086 96.2901L87.9738 96.2955C87.9463 96.2992 87.9207 96.3029 87.8932 96.3065C87.7687 96.3212 87.6515 96.3303 87.5362 96.334L25.743 96.3377C25.32 96.3358 24.9099 96.2772 24.5235 96.1674ZM95.3327 98.4507L95.3308 98.4543C95.3327 98.4525 95.3327 98.4525 95.3327 98.4507ZM94.6625 97.9728C94.6625 97.9746 94.6607 97.9746 94.6607 97.9764L94.6625 97.9728Z" fill="#F9FAFB"/>
<path d="M110.483 25.1878L107.039 20.4912L104.08 39.0449L102.907 46.3946H106.763C106.876 46.3946 106.99 46.3983 107.098 46.4074L107.525 43.7397V43.7378L110.483 25.1878Z" fill="#E4E7EC"/>
<path d="M107.446 46.8533L107.065 46.8222C106.968 46.8149 106.865 46.8094 106.763 46.8094H102.423L106.787 19.4521L110.917 25.0825L107.96 43.6289L107.933 43.8084L107.446 46.8533ZM103.39 45.9854H106.75L107.118 43.6784L110.05 25.2949L107.29 21.5322L103.39 45.9854Z" fill="#F9FAFB"/>
<path d="M109.99 51.4686L91.856 92.9357C91.1107 94.6404 89.353 95.8452 87.5238 95.9184L25.747 95.9221C23.8556 95.9221 22.3981 94.6953 22.1875 92.9339L16.4125 44.1189C16.1104 41.561 18.509 39.0488 21.2555 39.0488H43.7057C45.5971 39.0488 47.0583 40.2719 47.267 42.0334L47.43 43.4121C47.6387 45.1754 49.0962 46.4004 50.9895 46.4004H106.764C106.878 46.4004 106.991 46.404 107.099 46.4132C109.639 46.6073 111.062 49.0169 109.99 51.4686Z" fill="#13142F"/>
<path d="M25.7456 96.3357C23.6436 96.3357 22.0121 94.9569 21.7778 92.9849L16.0027 44.1663C15.8526 42.8937 16.3085 41.5516 17.257 40.4859C18.3025 39.3104 19.76 38.6348 21.2559 38.6348H43.706C45.8099 38.6348 47.4431 40.0117 47.6757 41.9837L47.8386 43.3625C48.0217 44.9078 49.3163 45.9863 50.988 45.9863H106.763C106.889 45.9863 107.012 45.9918 107.133 46.001C108.458 46.1035 109.586 46.7718 110.225 47.8338C110.89 48.9379 110.941 50.324 110.37 51.6332L92.2353 93.1002C91.426 94.9514 89.5401 96.2496 87.5424 96.3302L25.7456 96.3357ZM21.2559 39.4606C20.0127 39.4606 18.7493 40.0483 17.8722 41.0334C17.0812 41.9233 16.6985 43.0292 16.8212 44.0692L22.5962 92.8878C22.7793 94.4332 24.0739 95.5117 25.7456 95.5117L87.5223 95.508C89.1702 95.4421 90.8017 94.316 91.4773 92.7725L109.614 51.3054C110.077 50.2434 110.042 49.1338 109.518 48.2604C109.018 47.4291 108.127 46.9055 107.068 46.8249C106.97 46.8176 106.867 46.8121 106.764 46.8121H50.988C48.886 46.8121 47.2545 45.4333 47.0202 43.4613L46.8572 42.0826C46.6741 40.539 45.3778 39.4606 43.706 39.4606H21.2559Z" fill="#F9FAFB"/>
<path d="M102.906 46.809H50.9876C48.8856 46.809 47.2524 45.4321 47.018 43.4601L46.8569 42.0813C46.6738 40.5378 45.3774 39.4593 43.7057 39.4593H28.9349C28.814 39.4593 28.7005 39.4062 28.6218 39.3147C28.543 39.2231 28.5101 39.1023 28.5284 38.9832L29.3505 33.8234C29.3816 33.6239 29.5556 33.4755 29.757 33.4755H40.1608L43.3377 13.5541H33.0656C32.9448 13.5541 32.8313 13.501 32.7525 13.4094C32.6738 13.3179 32.6408 13.197 32.6592 13.078L34.5744 1.06469C34.6055 0.865108 34.7795 0.716797 34.9809 0.716797H90.0524C90.1714 0.716797 90.2831 0.768063 90.3619 0.857783L90.6512 1.18737C90.7317 1.27892 90.7684 1.40343 90.7482 1.52428L87.7911 20.0798H107.037C107.158 20.0798 107.271 20.1329 107.35 20.2245C107.429 20.316 107.462 20.4369 107.443 20.5559L103.313 46.4611C103.282 46.6625 103.109 46.809 102.906 46.809ZM29.4183 38.6354H43.7075C45.8095 38.6354 47.4428 40.0123 47.6772 41.9843L47.8383 43.363C48.0214 44.9066 49.3178 45.9851 50.9895 45.9851H102.555L106.555 20.9038H87.3096C87.1887 20.9038 87.0752 20.8507 86.9965 20.7591C86.9177 20.6676 86.8848 20.5467 86.9031 20.4277L89.906 1.5847L89.8675 1.54076H35.3343L33.549 12.7301H43.821C43.9419 12.7301 44.0554 12.7832 44.1341 12.8748C44.2129 12.9663 44.2458 13.0872 44.2275 13.2062L40.9189 33.9516C40.8878 34.1512 40.7138 34.2995 40.5124 34.2995H30.1085L29.4183 38.6354ZM83.0982 41.6071H49.2317C48.8307 41.6071 48.4608 41.4441 48.2173 41.1585C47.9775 40.8765 47.8786 40.5085 47.939 40.124C48.0599 39.3641 48.7685 38.769 49.5521 38.769H83.4187C83.8178 38.769 84.1877 38.932 84.4294 39.2158C84.6711 39.4978 84.77 39.8676 84.7077 40.254C84.5868 41.012 83.8801 41.6071 83.0982 41.6071ZM49.5521 39.593C49.1768 39.593 48.8106 39.8951 48.7538 40.254C48.73 40.3986 48.763 40.5268 48.8454 40.6238C48.9333 40.7264 49.0706 40.7831 49.2317 40.7831H83.0982C83.4736 40.7831 83.838 40.481 83.8947 40.124C83.9185 39.9793 83.8856 39.8475 83.8032 39.7504C83.7153 39.6479 83.5798 39.593 83.4187 39.593H49.5521ZM84.1749 34.858H50.3065C49.9055 34.858 49.5375 34.695 49.294 34.4094C49.0523 34.1274 48.9534 33.7594 49.0156 33.373C49.1365 32.615 49.8451 32.0199 50.6288 32.0199H84.4953C84.8963 32.0199 85.2643 32.1828 85.5079 32.4667C85.7477 32.7486 85.8466 33.1167 85.7862 33.503C85.6635 34.2629 84.9567 34.858 84.1749 34.858ZM50.6288 32.8438C50.2534 32.8438 49.8872 33.146 49.8304 33.503C49.8066 33.6495 49.8396 33.7777 49.922 33.8747C50.0099 33.9772 50.1472 34.034 50.3083 34.034H84.1749C84.5502 34.034 84.9146 33.7319 84.9714 33.373C84.9952 33.2265 84.964 33.0984 84.8798 33.0013C84.7919 32.8988 84.6564 32.8438 84.4953 32.8438H50.6288ZM85.2515 28.1052H51.385C50.984 28.1052 50.6141 27.9422 50.3706 27.6566C50.1307 27.3746 50.0319 27.0066 50.0923 26.622C50.2131 25.8622 50.9217 25.2671 51.7054 25.2671H85.5719C85.9711 25.2671 86.341 25.43 86.5827 25.7139C86.8244 25.9958 86.9232 26.3657 86.861 26.752C86.7401 27.5119 86.0333 28.1052 85.2515 28.1052ZM51.7054 26.091C51.3301 26.091 50.9638 26.3932 50.9071 26.752C50.8833 26.8967 50.9144 27.0249 50.9986 27.1219C51.0865 27.2244 51.2239 27.2812 51.385 27.2812H85.2515C85.6269 27.2812 85.9912 26.9791 86.048 26.622C86.0718 26.4774 86.0388 26.3456 85.9564 26.2485C85.8686 26.146 85.7331 26.091 85.5719 26.091H51.7054Z" fill="#F9FAFB"/>
<path d="M22.0281 12.8086L18.6133 34.2205H40.7979L44.2128 12.8086H22.0281ZM41.0176 15.4892L38.4579 31.5381H21.8029L24.3627 15.4892H41.0176Z" fill="#13142F"/>
<path d="M90.3459 1.45996L107.041 20.4916H87.3101L90.3459 1.45996Z" fill="#13142F"/>
<path d="M107.041 20.904H87.3103C87.1895 20.904 87.076 20.8509 86.9972 20.7594C86.9185 20.6678 86.8856 20.547 86.9039 20.4279L89.9397 1.39633C89.9653 1.23886 90.0788 1.10886 90.2327 1.06491C90.3865 1.02097 90.5513 1.06857 90.6574 1.18942L107.353 20.221C107.459 20.3419 107.485 20.5158 107.419 20.6623C107.349 20.8106 107.203 20.904 107.041 20.904ZM87.7937 20.08H106.131L90.6135 2.3924L87.7937 20.08Z" fill="#F9FAFB"/>
<path d="M86.5244 25.767C86.2937 25.496 85.955 25.3477 85.5741 25.3477H51.7058C50.9606 25.3477 50.2849 25.9134 50.1714 26.6367C50.1128 26.9992 50.2062 27.3435 50.4314 27.609C50.6603 27.8763 51.0082 28.0301 51.3854 28.0301H85.2519C85.9971 28.0301 86.6691 27.4643 86.7844 26.7429C86.843 26.3785 86.7496 26.0325 86.5244 25.767Z" fill="#13142F"/>
<path d="M84.4961 32.1006H50.6296C49.8844 32.1006 49.2106 32.6664 49.0952 33.3878C49.0366 33.7503 49.13 34.0964 49.3552 34.3601C49.5841 34.6274 49.9302 34.7812 50.3092 34.7812H84.1757C84.9209 34.7812 85.5929 34.2154 85.7083 33.4922C85.7669 33.1296 85.6735 32.7836 85.4483 32.5199C85.2212 32.2526 84.8733 32.1006 84.4961 32.1006Z" fill="#13142F"/>
<path d="M83.418 38.8496H49.5515C48.8063 38.8496 48.1306 39.4154 48.0171 40.1386C47.9585 40.5012 48.0519 40.8454 48.2771 41.1109C48.506 41.3783 48.8539 41.5321 49.2311 41.5321H83.0976C83.8428 41.5321 84.5148 40.9663 84.6301 40.2448C84.6887 39.8823 84.5953 39.5362 84.3701 39.2707C84.1376 38.9979 83.8007 38.8496 83.418 38.8496Z" fill="#13142F"/>
</svg>
