<svg width="137" height="122" viewBox="0 0 137 122" fill="none" xmlns="http://www.w3.org/2000/svg">
<path d="M68.5003 121.011C105.834 121.011 136.1 109.138 136.1 94.4923C136.1 79.8464 105.834 67.9736 68.5003 67.9736C31.1662 67.9736 0.900879 79.8464 0.900879 94.4923C0.900879 109.138 31.1662 121.011 68.5003 121.011Z" fill="#F7F9FC"/>
<path d="M41.4124 15.1562L38.7464 31.8735H30.082L32.748 15.1562H41.4124Z" fill="#F7F9FC"/>
<path d="M84.4976 32.4336C85.0743 32.4336 85.4698 32.884 85.3801 33.4407C85.2922 33.9973 84.7539 34.4495 84.1753 34.4495H50.3106C49.7338 34.4495 49.3365 33.9973 49.4262 33.4407C49.5141 32.884 50.0543 32.4336 50.631 32.4336H84.4976Z" fill="#667185"/>
<path d="M87.3128 20.4917H107.042L104.083 39.0454L102.911 46.3951H50.9909C49.0995 46.3951 47.6401 45.172 47.4314 43.4087L47.2703 42.03C47.0615 40.2685 45.6022 39.0436 43.7108 39.0436H28.9399L29.7621 33.8838H40.5156L43.8243 13.1383H33.0707L34.986 1.125H90.0575L90.3468 1.45459L87.3128 20.4917ZM85.2547 27.6931C85.8315 27.6931 86.3698 27.2426 86.4577 26.686C86.5456 26.1294 86.1519 25.6771 85.5752 25.6771H51.7087C51.1319 25.6771 50.5917 26.1294 50.502 26.686C50.4141 27.2426 50.8096 27.6931 51.3864 27.6931H85.2547ZM84.1781 34.4459C84.7549 34.4459 85.2932 33.9936 85.3829 33.437C85.4708 32.8804 85.0771 32.4299 84.5004 32.4299H50.632C50.0552 32.4299 49.5151 32.8804 49.4272 33.437C49.3393 33.9936 49.7348 34.4459 50.3116 34.4459H84.1781ZM83.1015 41.195C83.6782 41.195 84.2166 40.7446 84.3044 40.188C84.3923 39.6313 83.9987 39.1791 83.4219 39.1791H49.5554C48.9786 39.1791 48.4385 39.6313 48.3487 40.188C48.2608 40.7446 48.6563 41.195 49.2331 41.195H83.1015Z" fill="#F7F9FC"/>
<path d="M83.4214 39.1816C83.9981 39.1816 84.3918 39.6339 84.3039 40.1905C84.216 40.7472 83.6777 41.1976 83.1009 41.1976H49.2344C48.6577 41.1976 48.2603 40.7472 48.35 40.1905C48.4379 39.6339 48.9781 39.1816 49.5567 39.1816H83.4214Z" fill="#667185"/>
<path d="M83.4214 39.1816C83.9981 39.1816 84.3918 39.6339 84.3039 40.1905C84.216 40.7472 83.6777 41.1976 83.1009 41.1976H49.2344C48.6577 41.1976 48.2603 40.7472 48.35 40.1905C48.4379 39.6339 48.9781 39.1816 49.5567 39.1816H83.4214Z" fill="#667185"/>
<path d="M120.608 46.9993C120.606 46.9425 120.6 46.8857 120.595 46.829C120.591 46.796 120.589 46.7612 120.586 46.7283C120.578 46.666 120.567 46.6038 120.556 46.5415C120.553 46.5195 120.551 46.4976 120.545 46.4756C120.545 46.4719 120.543 46.4683 120.542 46.4628C120.529 46.3968 120.512 46.3309 120.496 46.2669C120.492 46.2504 120.488 46.2321 120.483 46.2156C120.461 46.135 120.435 46.0545 120.406 45.9757C120.406 45.9739 120.404 45.9721 120.404 45.9702C120.402 45.9666 120.401 45.9629 120.399 45.9574C120.355 45.8384 120.305 45.7249 120.249 45.6132C120.243 45.604 120.241 45.593 120.236 45.5839C120.234 45.5784 120.23 45.5747 120.227 45.5692C120.175 45.4722 120.12 45.377 120.06 45.2854C120.055 45.2763 120.049 45.2671 120.044 45.258C120.016 45.2177 119.989 45.1774 119.961 45.1389L116.517 40.4424C116.552 40.49 116.585 40.5394 116.616 40.5889C116.676 40.6804 116.731 40.7756 116.783 40.8727C116.79 40.8873 116.797 40.902 116.804 40.9166C116.859 41.0283 116.911 41.1437 116.955 41.2608C116.956 41.2663 116.96 41.2718 116.962 41.2792C116.989 41.3579 117.015 41.4385 117.039 41.519C117.044 41.5355 117.046 41.5538 117.052 41.5703C117.068 41.6344 117.085 41.7003 117.097 41.7662C117.103 41.7918 117.107 41.8175 117.11 41.8431C117.121 41.9054 117.13 41.9658 117.14 42.0299C117.143 42.0628 117.145 42.0976 117.149 42.1306C117.154 42.1873 117.158 42.2441 117.162 42.3009C117.163 42.3375 117.163 42.3741 117.163 42.4107C117.163 42.4657 117.163 42.5224 117.162 42.5774C117.16 42.614 117.16 42.6524 117.156 42.6909C117.152 42.7476 117.147 42.8044 117.141 42.863C117.138 42.8996 117.134 42.9362 117.129 42.9747C117.119 43.0369 117.11 43.0974 117.097 43.1596C117.092 43.1926 117.086 43.2255 117.079 43.2585C117.063 43.3391 117.043 43.4196 117.021 43.5002C117.017 43.5148 117.013 43.5295 117.01 43.546C116.982 43.6412 116.951 43.7382 116.916 43.8334C116.905 43.8627 116.892 43.892 116.881 43.9213C116.856 43.9891 116.828 44.0568 116.799 44.1227C116.764 44.1996 116.729 44.2765 116.691 44.3553L91.9814 93.1043L91.8569 92.9358C91.8129 93.0365 91.7653 93.1336 91.714 93.2306C91.7104 93.238 91.7067 93.2435 91.7049 93.2508C91.6554 93.3442 91.6023 93.4339 91.5474 93.5236C91.4723 93.6445 91.3936 93.7598 91.3094 93.8733C91.2856 93.9063 91.2599 93.9356 91.2361 93.9667C91.1794 94.0381 91.1226 94.1095 91.0622 94.1791C91.0311 94.2157 90.9981 94.2505 90.9651 94.2853C90.9102 94.3439 90.8535 94.4025 90.7949 94.4593C90.7601 94.4922 90.7271 94.527 90.6923 94.5581C90.6301 94.6149 90.566 94.6698 90.5019 94.7248C90.4689 94.7522 90.4378 94.7797 90.4049 94.8071C90.306 94.8877 90.2034 94.9646 90.0972 95.036C89.9874 95.1111 89.8739 95.1807 89.7585 95.2484C89.7274 95.2667 89.6944 95.2832 89.6615 95.3015C89.5626 95.3565 89.4619 95.4077 89.3593 95.4553C89.3191 95.4755 89.2769 95.4938 89.2367 95.5121C89.1982 95.5286 89.1598 95.545 89.1213 95.5597C89.0591 95.5853 88.9968 95.6091 88.9345 95.6311C88.8943 95.6458 88.8558 95.6586 88.8155 95.6732C88.7533 95.6934 88.691 95.7135 88.6288 95.73C88.5848 95.7428 88.5427 95.7556 88.4988 95.7666C88.4347 95.7831 88.3688 95.7977 88.3028 95.8124C88.2607 95.8215 88.2186 95.8307 88.1783 95.8398C88.1069 95.8527 88.0337 95.8636 87.9604 95.8728C87.9257 95.8783 87.889 95.8838 87.8542 95.8875C87.7462 95.9003 87.6364 95.9094 87.5283 95.9131L90.9725 100.61C90.978 100.61 90.9835 100.608 90.9889 100.608L90.9908 100.61C91.0018 100.61 91.0128 100.61 91.0256 100.61C91.0768 100.61 91.1263 100.608 91.1775 100.606C91.1995 100.604 91.2215 100.6 91.2435 100.6C91.3533 100.595 91.4632 100.584 91.5712 100.569C91.6042 100.566 91.6353 100.562 91.6683 100.558C91.8074 100.538 91.9447 100.511 92.0821 100.476C92.115 100.469 92.1462 100.458 92.1773 100.45C92.2487 100.43 92.3219 100.414 92.3933 100.39C92.4318 100.377 92.4702 100.362 92.5087 100.35C92.538 100.34 92.5655 100.329 92.5948 100.32C92.7138 100.276 92.831 100.231 92.9463 100.179C92.9536 100.176 92.961 100.17 92.9701 100.168C92.9774 100.165 92.9866 100.163 92.9958 100.157C92.9958 100.157 92.9957 100.156 92.9939 100.156C92.9939 100.156 92.9939 100.157 92.9958 100.157C93.1239 100.099 93.2484 100.033 93.3711 99.9633C93.3748 99.9615 93.3766 99.9596 93.3803 99.9578C93.4169 99.9377 93.4498 99.9139 93.4846 99.8919C93.567 99.8425 93.6494 99.793 93.73 99.7381C93.7373 99.7344 93.7428 99.7308 93.7501 99.7253C93.7996 99.6923 93.8453 99.6539 93.8929 99.6172C93.9497 99.5751 94.0065 99.5367 94.0596 99.4927C94.0669 99.4872 94.0724 99.4836 94.0797 99.4781C94.131 99.4378 94.1768 99.392 94.2262 99.3499C94.2683 99.3133 94.3122 99.2785 94.3525 99.24C94.3617 99.2309 94.3708 99.2236 94.38 99.2144C94.3818 99.2126 94.3818 99.2126 94.3837 99.2107C94.3855 99.2089 94.3855 99.2089 94.3873 99.2071C94.3983 99.1979 94.4093 99.1869 94.4184 99.1778C94.4422 99.1558 94.4606 99.1302 94.4844 99.1082C94.5466 99.046 94.6107 98.9837 94.6693 98.9178C94.6858 98.8995 94.7004 98.8793 94.7169 98.861C94.7297 98.8464 94.7462 98.8317 94.759 98.8171C94.7718 98.8024 94.7846 98.786 94.7975 98.7713C94.8396 98.72 94.8799 98.6688 94.9201 98.6157C94.9275 98.6065 94.9366 98.5974 94.9439 98.5864C94.9458 98.5827 94.9476 98.579 94.9513 98.5754C95.0355 98.4637 95.1142 98.3465 95.1893 98.2275C95.1966 98.2147 95.2058 98.2037 95.2131 98.1927C95.2204 98.1817 95.2259 98.1689 95.2332 98.1579C95.2918 98.0609 95.3468 97.9638 95.398 97.8613L120.144 49.0463C120.177 48.9804 120.21 48.9127 120.239 48.8468C120.245 48.8358 120.249 48.8248 120.252 48.8156C120.282 48.7479 120.309 48.6801 120.335 48.6142C120.346 48.5849 120.358 48.5556 120.369 48.5263C120.404 48.4311 120.435 48.3341 120.463 48.2389C120.467 48.2242 120.47 48.2096 120.474 48.1931C120.496 48.1125 120.516 48.0319 120.532 47.9514C120.54 47.9184 120.545 47.8855 120.551 47.8525C120.562 47.7903 120.573 47.728 120.582 47.6676C120.587 47.631 120.591 47.5943 120.595 47.5559C120.6 47.4991 120.606 47.4405 120.609 47.3838C120.611 47.3453 120.613 47.3087 120.615 47.2703C120.617 47.2135 120.617 47.1586 120.617 47.1036C120.609 47.0725 120.609 47.0359 120.608 46.9993Z" fill="#667185"/>
<path d="M90.7672 101.036L86.7354 95.5378L87.508 95.5067C87.6069 95.5031 87.7058 95.4939 87.8047 95.4829C87.8211 95.4811 87.8376 95.4793 87.8523 95.4756L87.9017 95.4683C87.9676 95.4591 88.0335 95.45 88.0995 95.4371C88.1233 95.4335 88.1489 95.428 88.1727 95.4225L88.2148 95.4133C88.2734 95.4005 88.3338 95.3877 88.3924 95.3731C88.4254 95.3639 88.4565 95.3547 88.4895 95.3456L88.5114 95.3383C88.5682 95.3218 88.6268 95.3053 88.6835 95.2852C88.7202 95.2723 88.7568 95.2595 88.7934 95.2467C88.8502 95.2266 88.9088 95.2046 88.9655 95.1808C89.0076 95.1643 89.0388 95.1515 89.0717 95.1369C89.0992 95.1259 89.123 95.113 89.1486 95.1002L89.1852 95.0838C89.2805 95.0398 89.372 94.9922 89.4636 94.9428L89.502 94.9226C89.5185 94.9135 89.5368 94.9043 89.5533 94.8952C89.6723 94.8256 89.773 94.7633 89.8646 94.6992C89.9543 94.637 90.0458 94.5692 90.1465 94.4887C90.163 94.474 90.1813 94.4612 90.1978 94.4466L90.2363 94.4136C90.2949 94.3642 90.3534 94.3129 90.4102 94.2598C90.4377 94.2342 90.4633 94.2085 90.4908 94.1829L90.5054 94.1682C90.5585 94.117 90.6098 94.062 90.6611 94.009C90.6904 93.9778 90.7196 93.9449 90.7489 93.9119C90.8057 93.8478 90.857 93.7837 90.9101 93.7178L90.9394 93.6812C90.9522 93.6647 90.965 93.6482 90.9778 93.6318C91.0584 93.5256 91.1316 93.4175 91.1957 93.3113C91.247 93.2289 91.2946 93.1465 91.3404 93.0623L91.3477 93.0458C91.3953 92.9561 91.4392 92.8664 91.4777 92.7748L91.7633 92.1193L91.9135 92.3244L116.326 44.1686C116.363 44.0972 116.394 44.0276 116.425 43.9562C116.453 43.894 116.477 43.8335 116.5 43.7713L116.532 43.6926C116.563 43.6047 116.592 43.5186 116.616 43.4307L116.625 43.3904C116.645 43.3172 116.663 43.244 116.678 43.1726L116.694 43.0847C116.705 43.0279 116.715 42.973 116.722 42.918C116.726 42.8942 116.727 42.8686 116.731 42.843L116.733 42.8192C116.738 42.7679 116.744 42.7166 116.746 42.6654C116.748 42.6324 116.749 42.5994 116.749 42.5665C116.751 42.5152 116.751 42.4658 116.751 42.4163C116.751 42.3834 116.751 42.3523 116.749 42.3193C116.748 42.2699 116.744 42.2186 116.738 42.1692L116.735 42.1362C116.733 42.1179 116.731 42.0996 116.729 42.0794C116.722 42.0245 116.713 41.9696 116.704 41.9146L116.693 41.8451C116.682 41.7865 116.667 41.7297 116.652 41.6711L116.643 41.6345C116.621 41.5539 116.599 41.4844 116.574 41.4148L116.57 41.4056C116.532 41.3013 116.489 41.2024 116.436 41.098L116.423 41.0705C116.376 40.979 116.326 40.8948 116.272 40.8105C116.242 40.7666 116.215 40.7245 116.185 40.6824L116.85 40.1953C116.852 40.1971 116.854 40.199 116.854 40.2008L120.294 44.8919C120.327 44.9358 120.358 44.9798 120.388 45.0255L120.413 45.0695C120.474 45.161 120.534 45.2636 120.587 45.3643L120.6 45.3863C120.611 45.4082 120.618 45.4265 120.626 45.443C120.682 45.5547 120.736 45.6756 120.779 45.7982L120.798 45.8495C120.823 45.9227 120.853 46.0125 120.878 46.1022C120.882 46.1187 120.886 46.1333 120.889 46.1498C120.911 46.2322 120.928 46.3054 120.942 46.3805L120.948 46.4043C120.95 46.4135 120.953 46.4336 120.955 46.4537C120.97 46.5361 120.981 46.6057 120.988 46.6753C120.992 46.7046 120.994 46.7339 120.997 46.7632L120.999 46.7888C121.005 46.8511 121.01 46.9133 121.012 46.9774C121.014 47.0177 121.014 47.058 121.016 47.0983C121.018 47.1587 121.016 47.2209 121.014 47.285C121.012 47.3271 121.01 47.3674 121.008 47.4095C121.005 47.4736 120.999 47.5359 120.992 47.6L120.99 47.6219C120.986 47.6549 120.983 47.6897 120.979 47.7226C120.97 47.7904 120.957 47.8581 120.946 47.9259L120.941 47.957C120.937 47.9826 120.931 48.0101 120.926 48.0357C120.908 48.1236 120.886 48.2133 120.862 48.3012C120.856 48.3232 120.853 48.3378 120.849 48.3507C120.82 48.455 120.785 48.5612 120.747 48.6656C120.739 48.6876 120.73 48.7095 120.721 48.7315L120.71 48.759C120.681 48.8322 120.651 48.9055 120.62 48.9787C120.617 48.9897 120.611 49.0025 120.606 49.0153C120.573 49.0867 120.54 49.1582 120.503 49.2314L95.7568 98.0463C95.7055 98.1452 95.6469 98.2514 95.5773 98.3686C95.5718 98.3796 95.5645 98.3924 95.5572 98.4052C95.548 98.4199 95.5389 98.4345 95.5297 98.4473C95.4473 98.5773 95.3668 98.6964 95.2844 98.808L95.2917 98.8172L95.0647 99.0809L95.0628 99.0827L94.7479 99.4507L94.7332 99.4343C94.7223 99.4471 94.7094 99.4581 94.6984 99.4709L94.627 99.5386C94.5959 99.5679 94.5648 99.5935 94.5337 99.621L94.4439 99.6979C94.4073 99.7309 94.3707 99.7638 94.3322 99.795L94.3029 99.8169C94.2663 99.8462 94.2205 99.881 94.1748 99.914L94.0832 99.9817C94.0484 100.009 94.0118 100.037 93.9752 100.062L93.9441 100.082C93.869 100.134 93.7811 100.187 93.6932 100.24L93.6566 100.264C93.6383 100.277 93.6181 100.288 93.5998 100.3L93.6127 100.317L93.186 100.516C93.1787 100.52 93.1714 100.524 93.1641 100.526L92.8638 100.665L92.8564 100.656C92.8162 100.67 92.774 100.687 92.7301 100.703L92.5983 100.749C92.569 100.76 92.5415 100.769 92.5122 100.778C92.45 100.798 92.3859 100.815 92.3236 100.831L92.2485 100.861C92.2247 100.868 92.2009 100.875 92.1753 100.881C92.027 100.917 91.875 100.947 91.7249 100.97C91.6992 100.974 91.6754 100.978 91.6498 100.98L91.6187 100.983C91.4978 101 91.377 101.011 91.2616 101.016C91.2342 101.02 91.2122 101.022 91.1902 101.024C91.1334 101.025 91.0785 101.027 91.0236 101.027H90.9851H90.9778L90.7672 101.036ZM88.2752 96.2428L91.1756 100.196C91.1902 100.194 91.203 100.192 91.2177 100.192C91.3166 100.187 91.4173 100.178 91.5161 100.165L91.604 100.154C91.7304 100.136 91.8567 100.11 91.9812 100.079L92.1185 100.042C92.168 100.029 92.2192 100.017 92.2687 100C92.287 99.9945 92.3053 99.9872 92.3236 99.9817L92.4536 99.936C92.58 99.8902 92.6825 99.8481 92.7759 99.8059C92.774 99.8059 92.785 99.8005 92.796 99.795L92.829 99.7821C92.9407 99.7309 93.0542 99.6723 93.1659 99.6082L93.1842 99.5972C93.1915 99.5917 93.2025 99.5862 93.2135 99.5789C93.2318 99.5661 93.2519 99.5551 93.2703 99.5423C93.349 99.4947 93.4241 99.4507 93.4955 99.4013L93.5248 99.383C93.5376 99.3738 93.5614 99.3555 93.5852 99.3372L93.6932 99.2566C93.728 99.231 93.7646 99.2054 93.7994 99.1779L93.8269 99.1578C93.8452 99.1431 93.8708 99.1193 93.8965 99.0955L94.0082 98.9985C94.0283 98.982 94.0503 98.9637 94.0686 98.9454L94.1455 98.8703C94.1601 98.8538 94.1748 98.8373 94.1894 98.8227L94.2279 98.7842C94.2737 98.7385 94.3176 98.6945 94.3615 98.6469C94.3817 98.6231 94.3927 98.6085 94.4036 98.5956C94.4165 98.581 94.4275 98.5682 94.4403 98.5572L94.7534 98.819L94.4439 98.5535L94.4787 98.5133C94.5153 98.4693 94.5483 98.4254 94.5831 98.3814C94.5959 98.3631 94.6051 98.354 94.6124 98.3448L94.6197 98.3338C94.6911 98.2386 94.7625 98.1342 94.8358 98.0152C94.8431 98.0042 94.8522 97.9896 94.8614 97.9768C94.8614 97.9749 94.8687 97.9639 94.8742 97.9511C94.9273 97.8632 94.9786 97.7735 95.0262 97.6801L119.772 48.867C119.804 48.8066 119.833 48.7443 119.86 48.6839L119.873 48.6546C119.901 48.5942 119.924 48.5319 119.948 48.4715L119.979 48.3928C120.01 48.3049 120.04 48.2188 120.064 48.131L120.075 48.0907C120.095 48.0193 120.113 47.946 120.128 47.8728L120.144 47.7831C120.155 47.7281 120.164 47.6714 120.172 47.6164C120.175 47.5908 120.177 47.5652 120.181 47.5395L120.183 47.5176C120.188 47.4663 120.194 47.415 120.195 47.3638C120.197 47.3308 120.199 47.2978 120.199 47.2631C120.201 47.2136 120.201 47.1642 120.201 47.1147C120.201 47.0818 120.201 47.0488 120.199 47.0177C120.197 46.9683 120.194 46.917 120.188 46.8675L120.186 46.8364C120.184 46.8163 120.183 46.7961 120.181 46.776C120.173 46.7211 120.166 46.668 120.155 46.613L120.146 46.5526C120.144 46.5453 120.142 46.5398 120.142 46.5325C120.133 46.4849 120.118 46.4281 120.104 46.3695L120.095 46.3329C120.075 46.256 120.053 46.1882 120.029 46.1205C120.027 46.1168 120.023 46.1095 120.021 46.1003C119.985 46.0015 119.943 45.9026 119.89 45.7964L119.869 45.7561C119.827 45.6755 119.78 45.595 119.725 45.5089L119.701 45.4705C119.686 45.4503 119.663 45.4155 119.639 45.3826L117.583 42.5775C117.583 42.5811 117.583 42.5866 117.583 42.5903C117.581 42.6324 117.579 42.6745 117.577 42.7166C117.573 42.7789 117.568 42.843 117.561 42.9071L117.559 42.9309C117.555 42.9638 117.551 42.9968 117.548 43.0297C117.539 43.0993 117.526 43.1671 117.513 43.2366L117.507 43.2678C117.504 43.2934 117.498 43.319 117.493 43.3447C117.474 43.4344 117.453 43.5223 117.427 43.612L117.416 43.6578C117.385 43.7658 117.352 43.8702 117.313 43.9745C117.306 43.9965 117.297 44.0185 117.288 44.0405L117.277 44.0679C117.247 44.1412 117.22 44.2144 117.187 44.2876C117.15 44.3719 117.112 44.4561 117.068 44.5385L92.0508 93.8844L91.9208 93.7068C91.9153 93.716 91.9098 93.727 91.9025 93.7361C91.8256 93.8625 91.7377 93.9888 91.6443 94.1151C91.626 94.1389 91.6077 94.1628 91.5894 94.1866L91.5656 94.2177C91.5033 94.2964 91.4411 94.3733 91.3751 94.4484C91.3422 94.4868 91.3074 94.5253 91.2708 94.5637C91.2104 94.6278 91.1499 94.6901 91.0877 94.7523L91.073 94.767C91.0419 94.7981 91.0089 94.8292 90.9778 94.8604C90.9101 94.9226 90.8423 94.9812 90.7727 95.0398L90.7416 95.0673C90.7178 95.0874 90.694 95.1094 90.6684 95.1277C90.5512 95.2211 90.4432 95.3016 90.337 95.3749C90.2289 95.45 90.1099 95.525 89.9726 95.6038C89.9488 95.6184 89.9231 95.6312 89.8993 95.644L89.8682 95.6605C89.762 95.7191 89.6522 95.7759 89.5405 95.8272L89.5075 95.8418C89.4745 95.8583 89.4398 95.8729 89.4068 95.8894C89.3702 95.9059 89.3299 95.9224 89.2914 95.937C89.2145 95.9681 89.1468 95.9938 89.0791 96.0194C89.0369 96.0341 88.993 96.0505 88.9509 96.0652C88.8831 96.0872 88.8154 96.1073 88.7476 96.1274L88.7257 96.1329C88.6854 96.1439 88.6451 96.1567 88.6066 96.1659C88.5371 96.1842 88.4657 96.1988 88.3943 96.2153L88.3576 96.2226C88.3265 96.2336 88.3009 96.2391 88.2752 96.2428Z" fill="#F9FAFB"/>
<path d="M113.58 39.0469C116.435 39.0469 118.018 41.7458 116.695 44.355L91.9484 93.17C91.1153 94.8124 89.341 95.9202 87.543 95.9183C89.3538 95.8432 91.1116 94.6403 91.8568 92.9356L109.991 51.4685C111.11 48.9106 109.512 46.3966 106.763 46.3966H102.907L104.079 39.0469H113.58Z" fill="#D0D5DD"/>
<path d="M87.5469 96.3313C87.545 96.3313 87.5432 96.3313 87.5414 96.3313L87.5249 95.5073C89.1783 95.4395 90.8043 94.3153 91.4781 92.7718L109.612 51.3047C110.096 50.1987 110.041 49.0544 109.459 48.1663C108.895 47.3057 107.913 46.8114 106.762 46.8114H102.424L103.728 38.6377H113.578C115.058 38.6377 116.312 39.2987 117.021 40.4541C117.746 41.6351 117.761 43.1658 117.061 44.5446L92.3148 93.3558C91.4122 95.1356 89.4969 96.3313 87.5469 96.3313ZM103.393 45.9856H106.765C108.199 45.9856 109.433 46.6154 110.151 47.714C110.887 48.8401 110.967 50.2683 110.369 51.6343L96.7184 82.8476L116.327 44.1692C116.905 43.0303 116.902 41.831 116.319 40.8825C115.765 39.978 114.767 39.4598 113.58 39.4598H104.433L103.393 45.9856Z" fill="#F9FAFB"/>
<path d="M113.791 54.3237C113.787 54.2615 113.784 54.1992 113.776 54.137C113.773 54.1058 113.769 54.0747 113.765 54.0436C113.758 53.9886 113.751 53.9337 113.74 53.8788C113.736 53.8623 113.736 53.8458 113.732 53.8293C113.729 53.8129 113.725 53.7982 113.721 53.7817C113.71 53.7323 113.699 53.681 113.687 53.6316C113.679 53.6005 113.67 53.5693 113.663 53.5382C113.648 53.4869 113.632 53.4357 113.613 53.3844C113.606 53.3643 113.601 53.3423 113.593 53.3222C113.591 53.3185 113.59 53.3148 113.588 53.3093C113.544 53.1903 113.494 53.0768 113.438 52.9651C113.432 52.9559 113.43 52.945 113.425 52.9358C113.421 52.9285 113.416 52.923 113.412 52.9157C113.361 52.8186 113.306 52.7252 113.247 52.6355C113.242 52.6282 113.238 52.6209 113.234 52.6135C113.207 52.5733 113.179 52.5348 113.152 52.4964L109.708 47.7998C109.741 47.8456 109.772 47.8932 109.803 47.9408C109.862 48.0323 109.918 48.1257 109.968 48.2209C109.977 48.2374 109.984 48.2539 109.993 48.2704C110.05 48.3821 110.1 48.4974 110.144 48.6146C110.153 48.6402 110.16 48.664 110.169 48.6897C110.186 48.7409 110.204 48.7922 110.219 48.8435C110.228 48.8746 110.235 48.9057 110.242 48.9369C110.255 48.9863 110.266 49.0357 110.277 49.087C110.285 49.12 110.29 49.1511 110.296 49.1841C110.305 49.239 110.314 49.2939 110.321 49.3488C110.325 49.38 110.33 49.4111 110.332 49.4422C110.338 49.5045 110.343 49.5667 110.345 49.629C110.347 49.6546 110.349 49.6803 110.349 49.7059C110.35 49.7938 110.35 49.8835 110.347 49.9732C110.347 49.9879 110.345 50.0025 110.343 50.019C110.339 50.0941 110.334 50.1691 110.325 50.246C110.321 50.2772 110.316 50.3083 110.312 50.3394C110.303 50.3999 110.294 50.4621 110.283 50.5225C110.277 50.5573 110.27 50.5921 110.263 50.6269C110.25 50.6855 110.235 50.7459 110.22 50.8063C110.211 50.8411 110.202 50.8759 110.193 50.9107C110.175 50.9748 110.155 51.0389 110.133 51.103C110.122 51.1323 110.112 51.1634 110.101 51.1927C110.068 51.2861 110.03 51.3813 109.99 51.4747L91.8553 92.9417C91.8114 93.0424 91.7638 93.1395 91.7125 93.2365C91.7088 93.2439 91.7052 93.2494 91.7033 93.2567C91.6539 93.3501 91.6008 93.4398 91.5459 93.5295C91.4708 93.6503 91.3921 93.7657 91.3079 93.8792C91.284 93.9122 91.2584 93.9415 91.2346 93.9726C91.1778 94.044 91.1211 94.1154 91.0607 94.185C91.0295 94.2216 90.9966 94.2564 90.9636 94.2912C90.9087 94.3498 90.8519 94.4084 90.7933 94.4651C90.7585 94.4981 90.7256 94.5329 90.6908 94.564C90.6285 94.6208 90.5645 94.6757 90.5004 94.7306C90.4674 94.7581 90.4363 94.7856 90.4033 94.813C90.3045 94.8936 90.2019 94.9705 90.0957 95.0419C89.9859 95.117 89.8723 95.1866 89.757 95.2543C89.7259 95.2726 89.6929 95.2891 89.6599 95.3074C89.5611 95.3623 89.4604 95.4136 89.3578 95.4612C89.3175 95.4814 89.2754 95.4997 89.2351 95.518C89.1967 95.5345 89.1582 95.5509 89.1198 95.5656C89.0575 95.5912 88.9953 95.615 88.933 95.637C88.8927 95.6517 88.8543 95.6645 88.814 95.6791C88.7518 95.6993 88.6895 95.7194 88.6272 95.7359C88.5833 95.7487 88.5412 95.7615 88.4972 95.7725C88.4332 95.789 88.3672 95.8036 88.3013 95.8183C88.2592 95.8274 88.2171 95.8366 88.1768 95.8457C88.1054 95.8585 88.0322 95.8695 87.9589 95.8787C87.9241 95.8842 87.8875 95.8897 87.8527 95.8933C87.7447 95.9062 87.6348 95.9153 87.5268 95.919L25.7501 95.9226C24.5031 95.9226 23.4448 95.3898 22.8076 94.5219L26.2518 99.2185C26.889 100.086 27.9473 100.619 29.1942 100.619L90.9709 100.616C91.0808 100.612 91.1888 100.603 91.2969 100.59C91.3335 100.586 91.3683 100.579 91.4031 100.575C91.4763 100.566 91.5477 100.555 91.6191 100.542C91.6612 100.535 91.7034 100.524 91.7455 100.515C91.8114 100.5 91.8755 100.487 91.9396 100.469C91.9835 100.458 92.0274 100.445 92.0714 100.432C92.1098 100.421 92.1483 100.412 92.1867 100.399C92.2105 100.392 92.2343 100.383 92.2582 100.376C92.2984 100.363 92.3369 100.348 92.3772 100.334C92.4394 100.312 92.5017 100.286 92.5639 100.262C92.6024 100.246 92.6408 100.231 92.6793 100.215C92.6994 100.205 92.7196 100.198 92.7379 100.191C92.7598 100.182 92.78 100.169 92.802 100.158C92.9045 100.11 93.0052 100.059 93.1041 100.004C93.1261 99.993 93.148 99.9838 93.1682 99.971C93.1791 99.9637 93.1901 99.9564 93.2011 99.9509C93.4263 99.8209 93.6424 99.6726 93.8456 99.5096C93.853 99.5041 93.8621 99.4986 93.8694 99.4913C93.8951 99.4712 93.9171 99.4473 93.9427 99.4272C94.0068 99.3723 94.0709 99.3173 94.1331 99.2606C94.1459 99.2478 94.1606 99.2368 94.1752 99.224C94.1972 99.2038 94.2155 99.1819 94.2375 99.1599C94.2961 99.1031 94.3528 99.0445 94.4078 98.9859C94.4261 98.9658 94.4444 98.9493 94.4627 98.9292C94.4773 98.9127 94.4902 98.8962 94.5048 98.8797C94.5652 98.8102 94.622 98.7406 94.6788 98.6673C94.6971 98.6435 94.7172 98.6216 94.7355 98.5978C94.741 98.5904 94.7465 98.5813 94.7538 98.5721C94.8381 98.4586 94.9186 98.3414 94.9919 98.2224C94.9955 98.2169 95.001 98.2114 95.0047 98.2041C95.0559 98.1199 95.1036 98.0356 95.1493 97.9496C95.153 97.9423 95.1566 97.9349 95.1603 97.9276C95.2006 97.8489 95.2409 97.7701 95.2775 97.6896C95.2867 97.6713 95.294 97.6511 95.3031 97.6328L113.438 56.1657C113.478 56.0723 113.514 55.9771 113.549 55.8837C113.56 55.8526 113.569 55.8233 113.58 55.794C113.602 55.7299 113.622 55.6659 113.641 55.6018C113.65 55.567 113.659 55.5322 113.668 55.4974C113.683 55.437 113.698 55.3784 113.71 55.318C113.718 55.2832 113.725 55.2484 113.731 55.2136C113.741 55.1532 113.751 55.0909 113.76 55.0305C113.763 54.9994 113.769 54.9682 113.773 54.9371C113.782 54.8602 113.787 54.7851 113.791 54.7101C113.791 54.6954 113.793 54.6808 113.795 54.6643C113.798 54.5746 113.798 54.4848 113.796 54.397C113.795 54.375 113.793 54.3494 113.791 54.3237Z" fill="#D0D5DD"/>
<path d="M29.1941 101.032C27.8446 101.032 26.6508 100.461 25.9202 99.4632L22.4761 94.7666L23.1407 94.2796L23.1444 94.2833C23.7193 95.0633 24.6696 95.5119 25.7518 95.5119L87.5285 95.5082C87.6109 95.5045 87.7098 95.4954 87.8086 95.4844C87.8251 95.4826 87.8416 95.4807 87.8563 95.4771L87.9057 95.4698C87.9716 95.4606 88.0375 95.4514 88.1034 95.4386C88.1272 95.435 88.1529 95.4295 88.1767 95.424L88.2188 95.4148C88.2774 95.402 88.3378 95.3892 88.3964 95.3745C88.4294 95.3654 88.4605 95.3562 88.4934 95.3471L88.5154 95.3398C88.5722 95.3233 88.6308 95.3068 88.6875 95.2867C88.7242 95.2738 88.7608 95.261 88.7974 95.2482C88.8541 95.2281 88.9127 95.2061 88.9695 95.1823C89.0116 95.1658 89.0427 95.153 89.0757 95.1383C89.1032 95.1274 89.127 95.1145 89.1526 95.1017L89.1892 95.0852C89.2844 95.0413 89.376 94.9937 89.4675 94.9443L89.506 94.9241C89.5225 94.915 89.5408 94.9058 89.5573 94.8966C89.6763 94.8271 89.777 94.7648 89.8685 94.7007C89.9583 94.6385 90.0498 94.5707 90.1505 94.4902C90.167 94.4755 90.1853 94.4627 90.2018 94.448L90.2402 94.4151C90.2988 94.3656 90.3574 94.3144 90.4142 94.2613C90.4416 94.2357 90.4673 94.21 90.4947 94.1844L90.5094 94.1697C90.5625 94.1185 90.6138 94.0635 90.665 94.0104C90.6943 93.9793 90.7236 93.9463 90.7529 93.9134C90.8097 93.8493 90.8609 93.7852 90.914 93.7193L90.9433 93.6827C90.9562 93.6662 90.969 93.6497 90.9818 93.6332C91.0624 93.527 91.1356 93.419 91.1997 93.3128C91.251 93.2304 91.2986 93.148 91.3443 93.0638L91.3517 93.0473C91.3993 92.9576 91.4432 92.8679 91.4817 92.7763L109.616 51.3093C109.653 51.2232 109.687 51.1371 109.719 51.0529L109.746 50.9705C109.764 50.9138 109.785 50.8552 109.801 50.7966C109.808 50.7673 109.817 50.738 109.825 50.7087C109.841 50.6483 109.854 50.5952 109.865 50.5421C109.872 50.5109 109.878 50.4798 109.883 50.4487C109.894 50.3919 109.902 50.337 109.909 50.2839L109.92 50.2015C109.927 50.1337 109.933 50.066 109.936 49.9982L109.938 49.9635C109.942 49.8774 109.942 49.7987 109.94 49.7199L109.936 49.6522C109.933 49.5954 109.931 49.5405 109.924 49.4874C109.922 49.4654 109.918 49.4453 109.916 49.427L109.913 49.405C109.905 49.3556 109.898 49.3079 109.891 49.2585C109.885 49.2292 109.88 49.2018 109.874 49.1725C109.865 49.1285 109.854 49.0846 109.843 49.0406L109.821 48.9582C109.808 48.9143 109.794 48.8685 109.779 48.8227L109.757 48.7568C109.72 48.6579 109.678 48.5591 109.625 48.4547L109.603 48.4107C109.559 48.3265 109.512 48.2441 109.459 48.1654C109.433 48.1251 109.406 48.0848 109.378 48.0464L109.376 48.0427L110.041 47.5557C110.041 47.5557 110.041 47.5557 110.041 47.5575L113.485 52.2522C113.516 52.2962 113.547 52.3401 113.578 52.3841L113.6 52.4188C113.664 52.5177 113.723 52.6166 113.776 52.7155C113.782 52.7246 113.787 52.7338 113.793 52.7429L113.815 52.7906C113.877 52.9151 113.928 53.0341 113.972 53.1513L113.981 53.1769C113.99 53.2007 113.996 53.219 114.001 53.2373C114.025 53.3087 114.043 53.3673 114.062 53.4259C114.071 53.457 114.078 53.4882 114.087 53.5193C114.104 53.5852 114.119 53.6401 114.13 53.6969C114.135 53.7189 114.139 53.7335 114.141 53.7482C114.144 53.7683 114.146 53.783 114.148 53.7994C114.161 53.8672 114.17 53.9294 114.177 53.9899C114.183 54.0356 114.186 54.0649 114.19 54.0961C114.197 54.1656 114.201 54.2352 114.205 54.3048L114.206 54.3286C114.208 54.3487 114.21 54.3689 114.21 54.3909C114.214 54.4897 114.214 54.5886 114.208 54.6875L114.205 54.7296C114.199 54.8211 114.194 54.9035 114.183 54.9878C114.179 55.0134 114.175 55.039 114.172 55.0628L114.168 55.0903C114.159 55.1562 114.148 55.224 114.135 55.2917C114.128 55.3302 114.12 55.3686 114.113 55.4052C114.098 55.4712 114.084 55.5371 114.067 55.603C114.058 55.6414 114.047 55.6799 114.036 55.7183C114.016 55.7879 113.994 55.8575 113.97 55.9289L113.961 55.9545C113.954 55.9783 113.945 56.004 113.935 56.0278C113.899 56.1285 113.859 56.231 113.815 56.3336L95.6509 97.8647C95.6124 97.9508 95.5685 98.0368 95.5246 98.1211L95.5136 98.143C95.4623 98.2383 95.411 98.3316 95.3543 98.4214L95.336 98.4488C95.2572 98.577 95.173 98.6997 95.0814 98.8205C95.0796 98.8242 95.0723 98.8352 95.0631 98.848C95.0485 98.8681 95.032 98.8864 95.0155 98.9047L95.0009 98.9231C94.9386 99.0018 94.8764 99.0787 94.8123 99.1519C94.794 99.1757 94.7812 99.1904 94.7665 99.2069C94.7519 99.2233 94.7372 99.238 94.7207 99.2545L94.7079 99.2673C94.6475 99.3314 94.5871 99.3936 94.5248 99.4559L94.5083 99.4724C94.4919 99.4907 94.4754 99.5072 94.4571 99.5236C94.4443 99.5364 94.4314 99.5474 94.4186 99.5584C94.3454 99.6262 94.2758 99.6848 94.2062 99.7434L94.1843 99.7617C94.1659 99.7781 94.1458 99.7965 94.1257 99.8111L94.0945 99.8349C93.8821 100.005 93.6478 100.164 93.4042 100.307C93.3951 100.313 93.3823 100.322 93.3694 100.329C93.3493 100.34 93.331 100.349 93.3109 100.36C93.1937 100.424 93.0838 100.479 92.9739 100.533C92.9428 100.549 92.9245 100.558 92.9044 100.567C92.8897 100.575 92.8732 100.58 92.8568 100.587C92.7982 100.613 92.7561 100.63 92.7139 100.646C92.648 100.674 92.5803 100.699 92.5125 100.723C92.4704 100.738 92.4265 100.754 92.3844 100.769L92.3624 100.776C92.3441 100.783 92.3258 100.789 92.3075 100.794C92.28 100.804 92.2507 100.811 92.2214 100.82L92.161 100.836C92.1207 100.847 92.0804 100.86 92.0401 100.869C91.9705 100.888 91.8991 100.902 91.8296 100.919L91.7948 100.926C91.7618 100.934 91.727 100.941 91.6941 100.948C91.6153 100.963 91.5366 100.974 91.4579 100.985L91.4231 100.99C91.3956 100.994 91.3681 100.999 91.3407 101.001C91.2162 101.016 91.099 101.025 90.9836 101.029L29.1941 101.032ZM24.525 96.1674L26.5849 98.9743C27.1598 99.758 28.1101 100.207 29.1941 100.207L90.9708 100.203C91.0532 100.199 91.1521 100.19 91.251 100.179C91.2674 100.177 91.2839 100.175 91.3004 100.172L91.348 100.164C91.4139 100.155 91.4798 100.146 91.5457 100.133C91.5714 100.128 91.5952 100.122 91.619 100.117L91.6593 100.108C91.7179 100.095 91.7783 100.082 91.8369 100.067C91.8698 100.058 91.9028 100.049 91.9339 100.04L92.0108 100.018C92.0291 100.013 92.0456 100.009 92.0639 100.003L92.1298 99.9796C92.1646 99.9686 92.2013 99.9539 92.2379 99.9411C92.2946 99.921 92.3532 99.899 92.41 99.8752C92.4466 99.8605 92.4814 99.8459 92.5162 99.8312L92.5803 99.8038C92.5968 99.7946 92.6132 99.7855 92.6297 99.7781C92.7231 99.7342 92.8165 99.6866 92.908 99.6372C92.9245 99.628 92.941 99.6207 92.9575 99.6115C92.9739 99.6024 92.9849 99.595 92.9977 99.5877C93.2065 99.4669 93.4061 99.3295 93.591 99.1812L93.6368 99.1446C93.6514 99.1318 93.6661 99.119 93.6807 99.1062C93.7393 99.0567 93.7997 99.0055 93.8565 98.9524C93.8675 98.9432 93.8785 98.9322 93.8913 98.9231L93.9133 98.9011C93.9261 98.8883 93.9389 98.8755 93.9517 98.8626C94.0066 98.8095 94.0579 98.7564 94.1092 98.7015C94.1202 98.6887 94.133 98.6759 94.1458 98.6631L94.1586 98.6484C94.1751 98.6283 94.1861 98.6154 94.1971 98.6026C94.252 98.5385 94.3051 98.4745 94.3582 98.4085C94.3692 98.3939 94.382 98.3792 94.3948 98.3628L94.4095 98.3445C94.4095 98.3426 94.4168 98.3316 94.4259 98.3207C94.5047 98.2145 94.5779 98.1064 94.6438 98.0002L94.6603 97.9764C94.7061 97.9013 94.7482 97.8281 94.7885 97.753L94.7995 97.7292C94.8343 97.6615 94.8709 97.5901 94.9038 97.5168L94.9276 97.4656L113.062 55.9985C113.099 55.9124 113.133 55.8282 113.163 55.7422L113.19 55.6598C113.21 55.6012 113.229 55.5426 113.245 55.4858C113.254 55.4547 113.262 55.4235 113.271 55.3924C113.285 55.3375 113.298 55.2844 113.309 55.2313C113.317 55.2002 113.322 55.169 113.328 55.1379C113.339 55.083 113.346 55.0281 113.353 54.9731L113.364 54.8889C113.371 54.8211 113.377 54.7552 113.381 54.6875L113.382 54.6564C113.386 54.5666 113.386 54.4879 113.384 54.411L113.381 54.3433C113.377 54.2883 113.373 54.2334 113.368 54.1785C113.366 54.1565 113.362 54.1327 113.359 54.1107C113.35 54.0466 113.342 53.999 113.335 53.9496C113.333 53.9368 113.331 53.9239 113.329 53.9093C113.326 53.8892 113.322 53.8763 113.318 53.8617C113.309 53.8214 113.3 53.7775 113.287 53.7335C113.278 53.6987 113.273 53.6749 113.265 53.653C113.252 53.6072 113.238 53.5614 113.221 53.5156L113.209 53.4735C113.205 53.4644 113.201 53.4552 113.198 53.446C113.163 53.3508 113.121 53.2538 113.068 53.1494L113.046 53.1055C113.003 53.0231 112.954 52.9407 112.901 52.8601L112.883 52.8308C112.862 52.8015 112.841 52.7704 112.817 52.7374L110.76 49.9342C110.76 49.9525 110.759 49.9708 110.759 49.9873L110.755 50.0294C110.749 50.1209 110.744 50.2051 110.733 50.2894C110.729 50.315 110.726 50.3406 110.722 50.3663L110.718 50.3937C110.709 50.4615 110.698 50.5292 110.685 50.597C110.678 50.6336 110.671 50.6721 110.663 50.7105C110.649 50.7764 110.634 50.8423 110.618 50.9083C110.607 50.9504 110.597 50.987 110.587 51.0218C110.566 51.0914 110.544 51.1609 110.521 51.2324L110.51 51.2635C110.502 51.2854 110.495 51.3093 110.486 51.3312C110.449 51.4338 110.409 51.5363 110.363 51.6388L92.2287 93.1059C92.1829 93.2085 92.1335 93.3147 92.0731 93.4282L92.0658 93.4446C92.009 93.5527 91.9504 93.6497 91.8918 93.7468C91.8149 93.8731 91.727 93.9995 91.6336 94.1258C91.6153 94.1496 91.597 94.1734 91.5787 94.1972L91.5549 94.2283C91.4926 94.3071 91.4304 94.384 91.3645 94.459C91.3315 94.4975 91.2967 94.5359 91.2601 94.5744C91.1997 94.6385 91.1393 94.7007 91.077 94.763L91.0624 94.7776C91.0312 94.8088 90.9983 94.8399 90.9672 94.871C90.8994 94.9333 90.8317 94.9919 90.7621 95.0505L90.7309 95.0779C90.7071 95.0981 90.6833 95.12 90.6577 95.1383C90.5405 95.2317 90.4325 95.3123 90.3263 95.3855C90.2183 95.4606 90.0992 95.5357 89.9619 95.6144C89.9381 95.6291 89.9125 95.6419 89.8887 95.6547L89.8576 95.6712C89.7514 95.7298 89.6415 95.7865 89.5298 95.8378L89.4968 95.8524C89.4639 95.8689 89.4291 95.8836 89.3961 95.9001C89.3595 95.9165 89.3192 95.933 89.2808 95.9476C89.2039 95.9788 89.1361 96.0044 89.0684 96.03C89.0263 96.0447 88.9823 96.0612 88.9402 96.0758C88.8725 96.0978 88.8047 96.1179 88.737 96.1381L88.715 96.1436C88.6747 96.1546 88.6344 96.1674 88.596 96.1765C88.5264 96.1948 88.455 96.2095 88.3836 96.226L88.347 96.2333C88.314 96.2406 88.281 96.2479 88.2463 96.2534C88.1675 96.2681 88.0888 96.2791 88.0101 96.2901L87.9753 96.2955C87.9478 96.2992 87.9222 96.3029 87.8947 96.3065C87.7702 96.3212 87.653 96.3303 87.5376 96.334L25.7444 96.3377C25.3215 96.3358 24.9113 96.2772 24.525 96.1674ZM95.3341 98.4507L95.3323 98.4543C95.3341 98.4525 95.3341 98.4525 95.3341 98.4507ZM94.664 97.9728C94.664 97.9746 94.6621 97.9746 94.6621 97.9764L94.664 97.9728Z" fill="#F9FAFB"/>
<path d="M110.486 25.1878L107.042 20.4912L104.083 39.0449L102.91 46.3946H106.766C106.879 46.3946 106.993 46.3983 107.101 46.4074L107.528 43.7397V43.7378L110.486 25.1878Z" fill="#E4E7EC"/>
<path d="M107.448 46.8533L107.067 46.8222C106.97 46.8149 106.868 46.8094 106.765 46.8094H102.426L106.789 19.4521L110.92 25.0825L107.963 43.6289L107.935 43.8084L107.448 46.8533ZM103.393 45.9854H106.752L107.121 43.6784L110.052 25.2949L107.293 21.5322L103.393 45.9854Z" fill="#F9FAFB"/>
<path d="M109.993 51.4686L91.8589 92.9357C91.1137 94.6404 89.3559 95.8452 87.5267 95.9184L25.75 95.9221C23.8585 95.9221 22.401 94.6953 22.1905 92.9339L16.4154 44.1189C16.1133 41.561 18.5119 39.0488 21.2585 39.0488H43.7086C45.6 39.0488 47.0612 40.2719 47.2699 42.0334L47.4329 43.4121C47.6416 45.1754 49.0991 46.4004 50.9924 46.4004H106.767C106.881 46.4004 106.994 46.404 107.102 46.4132C109.642 46.6073 111.064 49.0169 109.993 51.4686Z" fill="#D0D5DD"/>
<path d="M25.748 96.3357C23.646 96.3357 22.0146 94.9569 21.7802 92.9849L16.0052 44.1663C15.855 42.8937 16.3109 41.5516 17.2594 40.4859C18.3049 39.3104 19.7624 38.6348 21.2584 38.6348H43.7085C45.8123 38.6348 47.4456 40.0117 47.6781 41.9837L47.8411 43.3625C48.0242 44.9078 49.3187 45.9863 50.9904 45.9863H106.765C106.891 45.9863 107.014 45.9918 107.135 46.001C108.461 46.1035 109.589 46.7718 110.228 47.8338C110.892 48.9379 110.943 50.324 110.372 51.6332L92.2378 93.1002C91.4285 94.9514 89.5425 96.2496 87.5449 96.3302L25.748 96.3357ZM21.2584 39.4606C20.0151 39.4606 18.7517 40.0483 17.8746 41.0334C17.0836 41.9233 16.701 43.0292 16.8236 44.0692L22.5987 92.8878C22.7818 94.4332 24.0763 95.5117 25.748 95.5117L87.5248 95.508C89.1727 95.4421 90.8041 94.316 91.4797 92.7725L109.616 51.3054C110.079 50.2434 110.044 49.1338 109.521 48.2604C109.021 47.4291 108.129 46.9055 107.071 46.8249C106.972 46.8176 106.869 46.8121 106.767 46.8121H50.9904C48.8884 46.8121 47.257 45.4333 47.0226 43.4613L46.8597 42.0826C46.6766 40.539 45.3802 39.4606 43.7085 39.4606H21.2584Z" fill="#F9FAFB"/>
<path d="M102.91 46.809H50.9911C48.8891 46.809 47.2558 45.4321 47.0214 43.4601L46.8603 42.0813C46.6772 40.5378 45.3808 39.4593 43.7091 39.4593H28.9383C28.8174 39.4593 28.7039 39.4062 28.6252 39.3147C28.5464 39.2231 28.5135 39.1023 28.5318 38.9832L29.3539 33.8234C29.3851 33.6239 29.559 33.4755 29.7604 33.4755H40.1643L43.3411 13.5541H33.0691C32.9482 13.5541 32.8347 13.501 32.756 13.4094C32.6772 13.3179 32.6443 13.197 32.6626 13.078L34.5778 1.06469C34.6089 0.865108 34.7829 0.716797 34.9843 0.716797H90.0558C90.1749 0.716797 90.2866 0.768063 90.3653 0.857783L90.6546 1.18737C90.7352 1.27892 90.7718 1.40343 90.7516 1.52428L87.7945 20.0798H107.04C107.161 20.0798 107.275 20.1329 107.353 20.2245C107.432 20.316 107.465 20.4369 107.447 20.5559L103.316 46.4611C103.285 46.6625 103.113 46.809 102.91 46.809ZM29.4217 38.6354H43.7109C45.8129 38.6354 47.4462 40.0123 47.6806 41.9843L47.8417 43.363C48.0248 44.9066 49.3212 45.9851 50.9929 45.9851H102.558L106.559 20.9038H87.313C87.1921 20.9038 87.0786 20.8507 86.9999 20.7591C86.9212 20.6676 86.8882 20.5467 86.9065 20.4277L89.9094 1.5847L89.8709 1.54076H35.3377L33.5524 12.7301H43.8245C43.9453 12.7301 44.0588 12.7832 44.1376 12.8748C44.2163 12.9663 44.2493 13.0872 44.2309 13.2062L40.9223 33.9516C40.8912 34.1512 40.7172 34.2995 40.5158 34.2995H30.112L29.4217 38.6354ZM83.1016 41.6071H49.2351C48.8341 41.6071 48.4643 41.4441 48.2207 41.1585C47.9809 40.8765 47.882 40.5085 47.9424 40.124C48.0633 39.3641 48.7719 38.769 49.5555 38.769H83.4221C83.8212 38.769 84.1911 38.932 84.4328 39.2158C84.6745 39.4978 84.7734 39.8676 84.7111 40.254C84.5903 41.012 83.8835 41.6071 83.1016 41.6071ZM49.5555 39.593C49.1802 39.593 48.814 39.8951 48.7572 40.254C48.7334 40.3986 48.7664 40.5268 48.8488 40.6238C48.9367 40.7264 49.074 40.7831 49.2351 40.7831H83.1016C83.477 40.7831 83.8414 40.481 83.8981 40.124C83.9219 39.9793 83.889 39.8475 83.8066 39.7504C83.7187 39.6479 83.5832 39.593 83.4221 39.593H49.5555ZM84.1783 34.858H50.3099C49.9089 34.858 49.5409 34.695 49.2974 34.4094C49.0557 34.1274 48.9568 33.7594 49.0191 33.373C49.1399 32.615 49.8485 32.0199 50.6322 32.0199H84.4987C84.8997 32.0199 85.2677 32.1828 85.5113 32.4667C85.7511 32.7486 85.85 33.1167 85.7896 33.503C85.6669 34.2629 84.9601 34.858 84.1783 34.858ZM50.6322 32.8438C50.2568 32.8438 49.8906 33.146 49.8339 33.503C49.8101 33.6495 49.843 33.7777 49.9254 33.8747C50.0133 33.9772 50.1506 34.034 50.3118 34.034H84.1783C84.5536 34.034 84.918 33.7319 84.9748 33.373C84.9986 33.2265 84.9674 33.0984 84.8832 33.0013C84.7953 32.8988 84.6598 32.8438 84.4987 32.8438H50.6322ZM85.2549 28.1052H51.3884C50.9874 28.1052 50.6175 27.9422 50.374 27.6566C50.1342 27.3746 50.0353 27.0066 50.0957 26.622C50.2165 25.8622 50.9252 25.2671 51.7088 25.2671H85.5754C85.9745 25.2671 86.3444 25.43 86.5861 25.7139C86.8278 25.9958 86.9266 26.3657 86.8644 26.752C86.7435 27.5119 86.0368 28.1052 85.2549 28.1052ZM51.7088 26.091C51.3335 26.091 50.9673 26.3932 50.9105 26.752C50.8867 26.8967 50.9178 27.0249 51.0021 27.1219C51.0899 27.2244 51.2273 27.2812 51.3884 27.2812H85.2549C85.6303 27.2812 85.9946 26.9791 86.0514 26.622C86.0752 26.4774 86.0423 26.3456 85.9599 26.2485C85.872 26.146 85.7365 26.091 85.5754 26.091H51.7088Z" fill="#F9FAFB"/>
<path d="M22.0311 12.8086L18.6162 34.2205H40.8008L44.2157 12.8086H22.0311ZM41.0206 15.4892L38.4608 31.5381H21.8058L24.3656 15.4892H41.0206Z" fill="#D0D5DD"/>
<path d="M90.3483 1.45996L107.044 20.4916H87.3125L90.3483 1.45996Z" fill="#D0D5DD"/>
<path d="M107.043 20.904H87.3123C87.1914 20.904 87.0779 20.8509 86.9992 20.7594C86.9205 20.6678 86.8875 20.547 86.9058 20.4279L89.9416 1.39633C89.9673 1.23886 90.0808 1.10886 90.2346 1.06491C90.3884 1.02097 90.5532 1.06857 90.6594 1.18942L107.355 20.221C107.461 20.3419 107.486 20.5158 107.421 20.6623C107.351 20.8106 107.204 20.904 107.043 20.904ZM87.7957 20.08H106.133L90.6155 2.3924L87.7957 20.08Z" fill="#F9FAFB"/>
<path d="M86.5264 25.767C86.2957 25.496 85.9569 25.3477 85.5761 25.3477H51.7077C50.9625 25.3477 50.2869 25.9134 50.1733 26.6367C50.1147 26.9992 50.2081 27.3435 50.4333 27.609C50.6622 27.8763 51.0101 28.0301 51.3873 28.0301H85.2538C85.999 28.0301 86.671 27.4643 86.7864 26.7429C86.845 26.3785 86.7516 26.0325 86.5264 25.767Z" fill="#D0D5DD"/>
<path d="M84.4981 32.1006H50.6316C49.8863 32.1006 49.2125 32.6664 49.0972 33.3878C49.0386 33.7503 49.132 34.0964 49.3572 34.3601C49.5861 34.6274 49.9321 34.7812 50.3111 34.7812H84.1777C84.9229 34.7812 85.5949 34.2154 85.7102 33.4922C85.7688 33.1296 85.6754 32.7836 85.4502 32.5199C85.2232 32.2526 84.8753 32.1006 84.4981 32.1006Z" fill="#D0D5DD"/>
<path d="M83.4209 38.8496H49.5544C48.8092 38.8496 48.1335 39.4154 48.02 40.1386C47.9614 40.5012 48.0548 40.8454 48.28 41.1109C48.5089 41.3783 48.8568 41.5321 49.234 41.5321H83.1005C83.8457 41.5321 84.5177 40.9663 84.6331 40.2448C84.6917 39.8823 84.5983 39.5362 84.3731 39.2707C84.1405 38.9979 83.8036 38.8496 83.4209 38.8496Z" fill="#D0D5DD"/>
</svg>
