<svg width="235" height="235" viewBox="0 0 235 235" fill="none" xmlns="http://www.w3.org/2000/svg">
<g clip-path="url(#clip0_2563_4240)">
<rect width="235" height="235" fill="white"/>
<path d="M220.099 147.02C220.099 147.02 230.66 91.1788 201.886 59.4679C176.492 31.4888 136.298 20.6083 103.506 43.7417C91.8265 51.9855 83.3242 67.989 69.666 72.9381C54.3675 78.4841 34.7027 80.4581 20.4993 104.235C6.29592 128.013 11.3954 158.506 30.3317 174.735C49.268 190.965 82.4124 175.135 112.276 173.946C142.14 172.757 204.448 215.954 220.099 147.02Z" fill="#6787E7"/>
<path opacity="0.7" d="M220.099 147.02C220.099 147.02 230.66 91.1788 201.886 59.4679C176.492 31.4888 136.298 20.6083 103.506 43.7417C91.8265 51.9855 83.3242 67.989 69.666 72.9381C54.3675 78.4841 34.7027 80.4581 20.4993 104.235C6.29592 128.013 11.3954 158.506 30.3317 174.735C49.268 190.965 82.4124 175.135 112.276 173.946C142.14 172.757 204.448 215.954 220.099 147.02Z" fill="white"/>
<path d="M44.212 96.5795C44.212 96.5795 44.212 94.0368 40.6494 90.4695C37.0868 86.9022 34.8026 84.8812 34.8026 84.8812C34.8026 84.8812 33.0213 90.7327 36.3301 94.2812C38.7602 96.787 41.3968 99.084 44.212 101.148V96.5795Z" fill="#6787E7"/>
<path d="M39.0421 112.461C39.0421 112.461 39.0421 109.919 35.4842 106.351C31.9263 102.784 29.6374 100.758 29.6374 100.758C29.6374 100.758 27.8561 106.605 31.1602 110.158C33.5928 112.663 36.2292 114.961 39.0421 117.03V112.461Z" fill="#6787E7"/>
<path d="M43.9868 100.908C43.9868 100.908 44.2547 98.3795 48.1698 95.2164C52.0849 92.0533 54.5806 90.272 54.5806 90.272C54.5806 90.272 55.7321 96.2786 52.0661 99.4699C49.3832 101.702 46.5188 103.706 43.5027 105.462L43.9868 100.908Z" fill="#6787E7"/>
<path d="M37.7459 119.665C37.7459 119.665 38.277 117.179 42.507 114.444C46.737 111.708 49.3972 110.214 49.3972 110.214C49.3972 110.214 49.9095 116.324 45.9333 119.092C43.0311 121.031 39.9717 122.724 36.7871 124.154L37.7459 119.665Z" fill="#6787E7"/>
<path d="M38.9189 140.11C38.9189 140.11 38.9189 137.568 42.4768 134C46.0347 130.433 48.3283 128.407 48.3283 128.407C48.3283 128.407 50.1049 134.254 46.8008 137.807C44.3707 140.313 41.7341 142.61 38.9189 144.674V140.11Z" fill="#6787E7"/>
<path d="M38.8584 145.103C38.8584 145.103 39.2203 142.588 36.2029 138.556C33.1855 134.523 31.2068 132.187 31.2068 132.187C31.2068 132.187 28.6171 137.724 31.3807 141.719C33.4321 144.543 35.7165 147.191 38.2098 149.634L38.8584 145.103Z" fill="#6787E7"/>
<path d="M35.3489 159.893C35.3489 159.893 35.3489 157.351 38.9115 153.783C42.4741 150.216 44.7583 148.19 44.7583 148.19C44.7583 148.19 46.5396 154.037 43.2308 157.59C40.8006 160.096 38.164 162.393 35.3489 164.457V159.893Z" fill="#6787E7"/>
<path d="M37.7273 173.306C37.7273 173.306 37.0834 170.843 39.6073 166.5C42.1312 162.158 43.8373 159.606 43.8373 159.606C43.8373 159.606 47.0427 164.813 44.7444 169.095C43.0282 172.134 41.0598 175.024 38.86 177.733L37.7273 173.306Z" fill="#6787E7"/>
<path d="M44.5311 95.9265C44.3515 98.5743 44.0268 101.21 43.5582 103.823C42.1482 111.093 38.6326 115.784 37.2273 122.35C35.822 128.916 39.8593 137.39 38.7736 145.812C37.6879 154.235 34.412 158.939 35.3473 164.57C36.2826 170.201 41.2129 185.443 41.2129 185.443" stroke="#263238" stroke-width="1.25668" stroke-linecap="round" stroke-linejoin="round"/>
<path d="M43.9536 102.601L47.7888 99.6587" stroke="#263238" stroke-width="1.25668" stroke-linecap="round" stroke-linejoin="round"/>
<path d="M44.1325 99.2098L42.5251 96.3522" stroke="#263238" stroke-width="1.25668" stroke-linecap="round" stroke-linejoin="round"/>
<path d="M37.4404 122.048C37.4404 122.048 40.6505 119.642 43.9546 117.231" stroke="#263238" stroke-width="1.25668" stroke-linecap="round" stroke-linejoin="round"/>
<path d="M39.0425 117.03C39.0425 117.03 36.3682 111.78 33.3367 108.302" stroke="#263238" stroke-width="1.25668" stroke-linecap="round" stroke-linejoin="round"/>
<path d="M39.0479 143.73C40.8797 140.351 43.1927 137.256 45.9146 134.542" stroke="#263238" stroke-width="1.25668" stroke-linecap="round" stroke-linejoin="round"/>
<path d="M38.4222 147.297C37.4458 145.011 36.2808 142.81 34.9395 140.717C33.0595 137.949 32.801 137.591 32.801 137.591" stroke="#263238" stroke-width="1.25668" stroke-linecap="round" stroke-linejoin="round"/>
<path d="M35.3489 164.57C36.1635 162.549 37.1313 160.592 38.2441 158.718C39.3597 156.982 40.6173 155.341 42.0041 153.812" stroke="#263238" stroke-width="1.25668" stroke-linecap="round" stroke-linejoin="round"/>
<path d="M38.8869 177.735C38.8869 177.735 38.5109 174.69 39.8269 172.095C41.1429 169.501 42.6845 166.122 43.3096 164.782" stroke="#263238" stroke-width="1.25668" stroke-linecap="round" stroke-linejoin="round"/>
<path d="M20.9013 130.55C20.9013 130.55 20.624 128.952 22.4711 126.32C24.3182 123.688 25.5308 122.198 25.5308 122.198C25.5308 122.198 27.2792 125.672 25.5966 128.261C24.345 130.099 22.941 131.829 21.3995 133.431L20.9013 130.55Z" fill="#6787E7"/>
<path d="M25.8493 139.947C25.8493 139.947 25.572 138.353 27.4191 135.717C29.2662 133.08 30.4929 131.599 30.4929 131.599C30.4929 131.599 32.246 135.073 30.5587 137.667C29.3057 139.504 27.9018 141.233 26.3616 142.837L25.8493 139.947Z" fill="#6787E7"/>
<path d="M21.5112 133.239C21.5112 133.239 21.0412 131.684 18.2682 130.128C15.4952 128.572 13.7139 127.722 13.7139 127.722C13.7139 127.722 13.6293 131.599 16.2848 133.211C18.2089 134.319 20.2229 135.262 22.3055 136.031L21.5112 133.239Z" fill="#6787E7"/>
<path d="M27.4618 144.322C27.4618 144.322 26.8555 142.823 23.9086 141.568C20.9617 140.313 19.1287 139.655 19.1287 139.655C19.1287 139.655 19.4671 143.528 22.2636 144.825C24.2937 145.726 26.3957 146.455 28.5475 147.006L27.4618 144.322Z" fill="#6787E7"/>
<path d="M28.9415 157.276C28.9415 157.276 28.6689 155.678 26.0463 153.835C23.4237 151.993 21.774 150.959 21.774 150.959C21.774 150.959 21.304 154.822 23.7527 156.693C25.5482 158 27.4505 159.154 29.4397 160.143L28.9415 157.276Z" fill="#6787E7"/>
<path d="M29.5245 160.395C29.5245 160.395 29.0216 158.859 30.4645 156.001C31.9074 153.143 32.8991 151.465 32.8991 151.465C32.8991 151.465 35.1269 154.657 33.8391 157.463C32.8597 159.457 31.7152 161.365 30.4175 163.168L29.5245 160.395Z" fill="#6787E7"/>
<path d="M33.9904 173.26C33.9904 173.26 34.1784 171.653 36.6835 169.66C39.1886 167.667 40.7866 166.549 40.7866 166.549C40.7866 166.549 41.4916 170.375 39.1416 172.386C37.4225 173.79 35.5895 175.047 33.6614 176.146L33.9904 173.26Z" fill="#6787E7"/>
<path d="M33.3326 169.294C33.3326 169.294 33.0553 167.696 30.4374 165.853C27.8195 164.011 26.1604 162.977 26.1604 162.977C26.1604 162.977 25.6904 166.84 28.1391 168.711C29.9391 170.019 31.8463 171.173 33.8402 172.161L33.3326 169.294Z" fill="#6787E7"/>
<path d="M33.2946 177.96C33.2946 177.96 33.4309 176.348 31.3676 173.9C29.3043 171.451 27.9601 170.036 27.9601 170.036C27.9601 170.036 26.5172 173.651 28.4301 176.085C29.8367 177.804 31.3853 179.401 33.0596 180.86L33.2946 177.96Z" fill="#6787E7"/>
<path d="M20.6282 130.188C21.025 131.825 21.513 133.438 22.0899 135.02C23.7631 139.429 26.4797 141.985 28.073 145.952C29.6663 149.919 28.073 155.662 29.6475 160.832C31.222 166.002 33.8399 168.587 33.8399 172.22C33.8399 175.854 32.4299 185.949 32.4299 185.949" stroke="#263238" stroke-width="1.25668" stroke-linecap="round" stroke-linejoin="round"/>
<path d="M21.7132 134.297L18.9919 132.868" stroke="#263238" stroke-width="1.25668" stroke-linecap="round" stroke-linejoin="round"/>
<path d="M21.2339 132.192L21.9342 130.227" stroke="#263238" stroke-width="1.25668" stroke-linecap="round" stroke-linejoin="round"/>
<path d="M27.9134 145.788C27.9134 145.788 25.6339 144.622 23.3027 143.471" stroke="#263238" stroke-width="1.25668" stroke-linecap="round" stroke-linejoin="round"/>
<path d="M26.3608 142.818C27.0254 140.696 27.9074 138.648 28.9928 136.708" stroke="#263238" stroke-width="1.25668" stroke-linecap="round" stroke-linejoin="round"/>
<path d="M29.2572 159.555C27.746 157.637 25.965 155.947 23.9697 154.54" stroke="#263238" stroke-width="1.25668" stroke-linecap="round" stroke-linejoin="round"/>
<path d="M30.0374 161.725C30.3934 160.182 30.8792 158.671 31.4897 157.209C32.3639 155.268 32.4908 155.018 32.4908 155.018" stroke="#263238" stroke-width="1.25668" stroke-linecap="round" stroke-linejoin="round"/>
<path d="M33.7126 174.975C33.7126 174.975 35.5174 172.762 36.6454 171.935C37.3153 171.434 37.944 170.881 38.5254 170.28" stroke="#263238" stroke-width="1.25668" stroke-linecap="round" stroke-linejoin="round"/>
<path d="M33.8388 172.221C33.1085 171.043 32.2899 169.921 31.3901 168.866C30.5047 167.898 29.5411 167.005 28.509 166.196" stroke="#263238" stroke-width="1.25668" stroke-linecap="round" stroke-linejoin="round"/>
<path d="M33.0488 180.86C32.9563 179.63 32.536 178.447 31.8315 177.434C30.7129 175.958 29.3922 173.998 28.8564 173.204" stroke="#263238" stroke-width="1.25668" stroke-linecap="round" stroke-linejoin="round"/>
<path d="M43.522 210.155H28.67C28.36 210.154 28.0631 210.03 27.8439 209.811C27.6247 209.592 27.501 209.295 27.4997 208.985L23.8149 184.375H48.3865L44.7017 208.985C44.7011 209.139 44.6701 209.292 44.6105 209.434C44.5509 209.576 44.4638 209.705 44.3543 209.814C44.2447 209.923 44.1148 210.009 43.9721 210.067C43.8293 210.126 43.6763 210.156 43.522 210.155Z" fill="#263238" stroke="#263238" stroke-width="1.25668" stroke-linecap="round" stroke-linejoin="round"/>
<path d="M131.337 85.9729L148.191 86.1092C148.191 86.1092 149.305 85.9729 149.601 86.8095C149.601 86.8095 152.53 94.1885 152.666 96.8346C152.802 99.4807 152.111 99.0624 153.225 102.545C154.339 106.028 157.54 114.243 159.335 120.932C161.765 129.913 162.4 139.45 162.555 148.723C162.578 150.213 163.471 163.015 161.145 163.015C159.222 163.015 141.489 165.365 141.278 161.948C140.427 148.318 142.885 135.013 138.152 121.763C136.315 116.617 134.209 111.184 132.649 105.783C131.088 100.383 130.816 94.8042 129.8 89.2958C129.109 85.5405 131.337 85.9729 131.337 85.9729Z" fill="#263238" stroke="#263238" stroke-width="1.25668" stroke-linecap="round" stroke-linejoin="round"/>
<path d="M129.687 87.6408C129.856 85.695 131.336 85.9723 131.336 85.9723L148.19 86.1086C148.19 86.1086 149.304 85.9723 149.6 86.8089C149.6 86.8089 152.529 94.1879 152.665 96.834C152.706 97.5332 152.685 98.2346 152.604 98.9302L152.247 99.4801C152.247 99.4801 151.692 104.354 145.004 104.65C138.316 104.946 134.56 101.868 133.169 98.9443C131.778 96.0209 131.219 91.2833 130.105 88.4962C129.982 88.2035 129.842 87.9179 129.687 87.6408Z" fill="#D1D1D1" stroke="#263238" stroke-width="1.25668" stroke-linecap="round" stroke-linejoin="round"/>
<path d="M133.597 93.0609C134.725 97.1311 134.067 98.2591 135.177 105.281C136.286 112.303 140.375 120.199 141.959 127.432C143.543 134.665 142.861 160.21 142.636 161.338C142.551 161.939 142.518 162.546 142.537 163.152C141.78 162.87 141.32 162.48 141.287 161.944C140.436 148.314 142.894 135.008 138.161 121.759C136.323 116.613 134.218 111.179 132.657 105.779C131.097 100.379 130.824 94.7999 129.809 89.2915C129.377 86.9791 130.054 86.2506 130.641 86.0297C131.919 88.2396 132.912 90.602 133.597 93.0609Z" fill="#D1D1D1" stroke="#263238" stroke-width="1.25668" stroke-linecap="round" stroke-linejoin="round"/>
<path d="M166.146 195.926L166.259 195.837V180.106H163.998V170.142H172.359V180.106H170.099V196.086L190.107 202.464V204.043C190.107 204.523 189.916 204.983 189.577 205.322C189.237 205.662 188.777 205.852 188.297 205.852C187.817 205.852 187.357 205.662 187.018 205.322C186.678 204.983 186.488 204.523 186.488 204.043V203.817L169.76 201.876V204.273C169.738 204.678 169.562 205.059 169.268 205.337C168.974 205.616 168.584 205.771 168.179 205.771C167.774 205.771 167.384 205.616 167.09 205.337C166.795 205.059 166.619 204.678 166.597 204.273V201.796L149.207 203.817V204.043C149.207 204.523 149.016 204.983 148.677 205.322C148.338 205.662 147.878 205.852 147.398 205.852C146.918 205.852 146.457 205.662 146.118 205.322C145.779 204.983 145.588 204.523 145.588 204.043V202.464L166.146 195.926Z" fill="#263238" stroke="#263238" stroke-width="1.25668" stroke-linecap="round" stroke-linejoin="round"/>
<path d="M141.887 171.992H192.384C193.422 171.992 194.264 171.15 194.264 170.112V162.338C194.264 161.3 193.422 160.458 192.384 160.458H141.887C140.849 160.458 140.007 161.3 140.007 162.338V170.112C140.007 171.15 140.849 171.992 141.887 171.992Z" fill="#263238" stroke="#263238" stroke-width="1.25668" stroke-linecap="round" stroke-linejoin="round"/>
<path d="M202.7 114.117H182.721V137.194H202.7V114.117Z" fill="white" stroke="#263238" stroke-width="1.25668" stroke-linecap="round" stroke-linejoin="round"/>
<path d="M181.171 138.228H203.736V117.388H193.057L181.171 138.228Z" fill="#D1D1D1" stroke="#263238" stroke-width="1.25668" stroke-linecap="round" stroke-linejoin="round"/>
<path d="M208.573 139.388H195.666C195.417 139.388 195.178 139.289 195.002 139.113C194.825 138.937 194.726 138.698 194.726 138.448C194.726 138.199 194.825 137.96 195.002 137.784C195.178 137.607 195.417 137.508 195.666 137.508H208.573C208.915 137.509 209.254 137.43 209.561 137.278C209.868 137.126 210.135 136.904 210.342 136.63C210.548 136.357 210.688 136.039 210.751 135.702C210.813 135.365 210.796 135.018 210.702 134.688L206.119 118.281C206.054 118.042 206.085 117.787 206.207 117.572C206.328 117.356 206.53 117.197 206.768 117.129C207.006 117.064 207.261 117.095 207.477 117.217C207.692 117.338 207.851 117.54 207.919 117.778L212.497 134.185C212.666 134.791 212.693 135.427 212.575 136.044C212.457 136.662 212.198 137.244 211.818 137.744C211.438 138.245 210.947 138.651 210.384 138.93C209.821 139.21 209.201 139.355 208.573 139.355V139.388Z" fill="#D1D1D1" stroke="#263238" stroke-width="1.25668" stroke-linecap="round" stroke-linejoin="round"/>
<path d="M206.979 96.7186L204.058 96.3687L199.533 134.15L202.454 134.5L206.979 96.7186Z" fill="white" stroke="#263238" stroke-width="1.25668" stroke-linecap="round" stroke-linejoin="round"/>
<path d="M206.973 96.7322C206.973 96.7322 212.143 115.26 202.443 134.515L206.973 96.7322Z" fill="#D1D1D1" stroke="#263238" stroke-width="1.25668" stroke-linecap="round" stroke-linejoin="round"/>
<path d="M76.9668 210.156L219.56 210.156V139.308H76.9668V210.156Z" fill="#263238"/>
<mask id="mask0_2563_4240" style="mask-type:luminance" maskUnits="userSpaceOnUse" x="76" y="139" width="144" height="72">
<path d="M76.9641 210.157L219.557 210.157V139.309H76.9641V210.157Z" fill="white"/>
</mask>
<g mask="url(#mask0_2563_4240)">
<path d="M76.9641 210.157L219.557 210.157V139.309H76.9641V210.157Z" fill="white" stroke="#263238" stroke-width="1.25668" stroke-linecap="round" stroke-linejoin="round"/>
</g>
<path d="M76.9668 210.156L219.56 210.156V139.308H76.9668V210.156Z" stroke="#263238" stroke-width="1.25668" stroke-linecap="round" stroke-linejoin="round"/>
<path d="M77.0602 142.745L219.508 142.745V140.902L77.0602 140.902V142.745Z" fill="#263238"/>
<path d="M76.1114 141.123L222.14 141.123V138.214L76.1114 138.214V141.123Z" fill="white" stroke="#263238" stroke-width="1.25668" stroke-linecap="round" stroke-linejoin="round"/>
<path d="M78.4898 109.719C77.4776 112.858 76.1204 115.875 74.4431 118.715C71.7406 123.213 66.7962 129.055 66.7962 129.055L48.8093 121.413C51.9738 118.071 54.8333 114.454 57.3539 110.603C61.8518 103.854 62.9046 102.463 62.9046 102.463C62.9046 102.463 74.2598 108.234 78.4898 109.719Z" fill="white" stroke="#263238" stroke-width="1.25668" stroke-miterlimit="10" stroke-linecap="round"/>
<path d="M83.397 155.391C80.382 156.714 77.2293 157.7 73.997 158.328C68.827 159.292 61.1895 159.47 61.1895 159.47L54.9714 140.938C59.566 141.092 64.1652 140.836 68.7142 140.172C76.7465 139.063 78.4855 138.927 78.4855 138.927C78.4855 138.927 81.7191 151.259 83.397 155.391Z" fill="white" stroke="#263238" stroke-width="1.25668" stroke-miterlimit="10" stroke-linecap="round"/>
<path d="M176.034 163.032C173.019 164.356 169.866 165.341 166.634 165.97C161.464 166.938 153.826 167.117 153.826 167.117L147.58 148.585C152.175 148.738 156.774 148.48 161.323 147.814C169.355 146.705 171.094 146.568 171.094 146.568C171.094 146.568 174.37 158.906 176.034 163.032Z" fill="white" stroke="#263238" stroke-width="1.25668" stroke-miterlimit="10" stroke-linecap="round"/>
<path d="M174.403 120.568C171.354 119.31 168.455 117.716 165.759 115.816C161.492 112.771 156.059 107.356 156.059 107.356L165.111 90.051C168.183 93.4781 171.555 96.624 175.188 99.451C181.551 104.471 182.858 105.636 182.858 105.636C182.858 105.636 176.217 116.498 174.403 120.568Z" fill="white" stroke="#263238" stroke-width="1.25668" stroke-miterlimit="10" stroke-linecap="round"/>
<path d="M139.99 118.207L151.481 128.421C151.481 128.421 154.461 119.27 159.565 116.506C162.849 114.755 166.264 113.261 169.778 112.036L154.033 102.251C154.033 102.251 138.077 108.422 139.99 118.207Z" fill="white" stroke="#263238" stroke-width="1.25668" stroke-miterlimit="10" stroke-linecap="round"/>
<path d="M58.5945 91.6764L70.086 101.89C70.086 101.89 73.0658 92.7386 78.17 89.975C81.454 88.224 84.8686 86.7297 88.3831 85.5053L72.6381 75.7199C72.6381 75.7199 56.6816 81.8863 58.5945 91.6764Z" fill="white" stroke="#263238" stroke-width="1.25668" stroke-miterlimit="10" stroke-linecap="round"/>
<path d="M185.502 76.5448C193.258 76.5448 199.546 70.2568 199.546 62.5002C199.546 54.7436 193.258 48.4557 185.502 48.4557C177.745 48.4557 171.457 54.7436 171.457 62.5002C171.457 70.2568 177.745 76.5448 185.502 76.5448Z" fill="white" stroke="#263238" stroke-width="0.964609" stroke-linecap="round" stroke-linejoin="round"/>
<path d="M197.94 65.5601C199.63 58.6897 195.43 51.7502 188.56 50.0601C181.69 48.37 174.75 52.5695 173.06 59.4398C171.37 66.3102 175.57 73.2498 182.44 74.9398C189.31 76.6299 196.25 72.4304 197.94 65.5601Z" fill="white" stroke="#263238" stroke-width="0.964609" stroke-linecap="round" stroke-linejoin="round"/>
<path d="M187.479 66.9272L185.502 62.5006V52.2044" fill="white"/>
<path d="M187.479 66.9272L185.502 62.5006V52.2044" stroke="#263238" stroke-width="0.964609" stroke-linecap="round" stroke-linejoin="round"/>
<path d="M186.281 62.5012C186.281 62.6554 186.235 62.806 186.15 62.9342C186.064 63.0623 185.943 63.1622 185.8 63.2212C185.658 63.2801 185.501 63.2956 185.35 63.2655C185.199 63.2354 185.06 63.1612 184.951 63.0522C184.842 62.9433 184.768 62.8044 184.738 62.6533C184.708 62.5021 184.723 62.3454 184.782 62.203C184.841 62.0606 184.941 61.9389 185.069 61.8533C185.197 61.7677 185.348 61.722 185.502 61.722C185.709 61.722 185.907 61.8041 186.053 61.9502C186.199 62.0964 186.281 62.2946 186.281 62.5012Z" fill="#263238" stroke="#263238" stroke-width="0.964609" stroke-linecap="round" stroke-linejoin="round"/>
<path d="M117.368 223.643C146.798 223.643 170.656 220.725 170.656 217.124C170.656 213.524 146.798 210.605 117.368 210.605C87.9372 210.605 64.0791 213.524 64.0791 217.124C64.0791 220.725 87.9372 223.643 117.368 223.643Z" fill="#6787E7"/>
<path opacity="0.5" d="M117.368 223.643C146.798 223.643 170.656 220.725 170.656 217.124C170.656 213.524 146.798 210.605 117.368 210.605C87.9372 210.605 64.0791 213.524 64.0791 217.124C64.0791 220.725 87.9372 223.643 117.368 223.643Z" fill="white"/>
<path d="M86.0094 208.003L84.3268 210.127C84.3268 210.127 79.2743 212.101 78.3249 212.98C77.3755 213.859 75.4673 217.591 75.4673 217.591L76.2757 218.69C76.2757 218.69 79.6409 218.907 81.6901 218.836C83.7393 218.766 86.3008 217.957 86.8883 217.591C87.4758 217.224 89.3746 214.517 89.7412 214.08C90.1078 213.643 90.9115 213.859 91.9361 213.347C92.9607 212.834 92.815 208.806 92.815 208.806L86.0094 208.003Z" fill="#263238" stroke="#263238" stroke-width="1.25668" stroke-miterlimit="10" stroke-linecap="round"/>
<path d="M89.3835 208.44C89.3835 208.44 89.3836 208.576 89.4494 208.769C89.5622 209.267 89.8019 210.179 90.1168 210.273C90.5539 210.419 92.8239 208.807 92.8239 208.807" fill="white"/>
<path d="M89.3835 208.44C89.3835 208.44 89.3836 208.576 89.4494 208.769C89.5622 209.267 89.8019 210.179 90.1168 210.273C90.5539 210.419 92.8239 208.807 92.8239 208.807" stroke="#263238" stroke-width="1.25668" stroke-miterlimit="10" stroke-linecap="round"/>
<path d="M150.22 208.003L151.908 210.127C151.908 210.127 156.956 212.101 157.91 212.98C158.864 213.859 160.763 217.591 160.763 217.591L159.959 218.69C159.959 218.69 156.589 218.907 154.54 218.836C152.491 218.766 149.929 217.957 149.346 217.609C148.763 217.262 146.855 214.536 146.489 214.099C146.122 213.661 145.318 213.878 144.294 213.365C143.269 212.853 143.415 208.825 143.415 208.825L150.22 208.003Z" fill="#263238" stroke="#263238" stroke-width="1.25668" stroke-miterlimit="10" stroke-linecap="round"/>
<path d="M146.854 208.44C146.854 208.44 146.854 208.576 146.789 208.769C146.681 209.267 146.436 210.179 146.121 210.273C145.684 210.419 143.414 208.807 143.414 208.807" fill="white"/>
<path d="M146.854 208.44C146.854 208.44 146.854 208.576 146.789 208.769C146.681 209.267 146.436 210.179 146.121 210.273C145.684 210.419 143.414 208.807 143.414 208.807" stroke="#263238" stroke-width="1.25668" stroke-miterlimit="10" stroke-linecap="round"/>
<path d="M150.536 208.727L135.083 141.888L132.032 124.475L118.12 124.658L104.208 124.475L101.163 141.888L85.7043 208.727L92.8859 209.38L118.12 148.473L143.355 209.38L150.536 208.727Z" fill="#F4BC54" stroke="#263238" stroke-width="1.25668" stroke-miterlimit="10" stroke-linecap="round"/>
<path d="M114.283 142.246L115.026 143.374" stroke="#858585" stroke-width="1.25668" stroke-miterlimit="10" stroke-linecap="round"/>
<path d="M89.9145 203.076L89.1108 205.657" stroke="#858585" stroke-width="1.25668" stroke-miterlimit="10" stroke-linecap="round"/>
<path d="M107.7 145.997L91.0386 199.473" stroke="#858585" stroke-width="1.25668" stroke-miterlimit="10" stroke-linecap="round"/>
<path d="M146.832 202.63L147.274 204.157" stroke="#858585" stroke-width="1.25668" stroke-miterlimit="10" stroke-linecap="round"/>
<path d="M136.399 166.29L146.358 200.967" stroke="#858585" stroke-width="1.25668" stroke-miterlimit="10" stroke-linecap="round"/>
<path d="M129.883 143.598L135.951 164.739" stroke="#858585" stroke-width="1.25668" stroke-miterlimit="10" stroke-linecap="round"/>
<path d="M107.822 132.478L113.03 140.346" stroke="#858585" stroke-width="1.25668" stroke-miterlimit="10" stroke-linecap="round"/>
<path d="M125.432 136.675C125.217 136.983 125.043 137.318 124.915 137.671" stroke="#858585" stroke-width="1.25668" stroke-miterlimit="10" stroke-linecap="round"/>
<path d="M129.776 130.132C129.776 130.132 127.831 132.952 126.402 135.147" stroke="#858585" stroke-width="1.25668" stroke-miterlimit="10" stroke-linecap="round"/>
<path d="M76.8643 27.681L76.7641 27.7214C76.2562 27.9264 76.0107 28.5043 76.2157 29.0122L77.2395 31.5488C77.4445 32.0567 78.0224 32.3022 78.5303 32.0972L78.6305 32.0568C79.1384 31.8518 79.3839 31.2739 79.1789 30.766L78.1551 28.2294C77.9501 27.7215 77.3722 27.476 76.8643 27.681Z" fill="white" stroke="#263238" stroke-width="1.25668" stroke-miterlimit="10" stroke-linecap="round"/>
<path d="M74.9715 28.9625L74.8713 29.003C74.3634 29.208 74.1178 29.7859 74.3228 30.2938L75.3467 32.8303C75.5516 33.3382 76.1295 33.5838 76.6374 33.3788L76.7377 33.3383C77.2456 33.1333 77.4911 32.5554 77.2861 32.0475L76.2623 29.511C76.0573 29.0031 75.4794 28.7575 74.9715 28.9625Z" fill="white" stroke="#263238" stroke-width="1.25668" stroke-miterlimit="10" stroke-linecap="round"/>
<path d="M73.2618 30.4736L73.1616 30.514C72.6537 30.719 72.4081 31.2969 72.6131 31.8048L73.6369 34.3414C73.8419 34.8493 74.4198 35.0948 74.9277 34.8898L75.028 34.8494C75.5359 34.6444 75.7814 34.0665 75.5764 33.5586L74.5526 31.022C74.3476 30.5141 73.7697 30.2686 73.2618 30.4736Z" fill="white" stroke="#263238" stroke-width="1.25668" stroke-miterlimit="10" stroke-linecap="round"/>
<path d="M71.7795 32.0298L71.6792 32.0702C71.1713 32.2751 70.9256 32.853 71.1305 33.3609L71.8849 35.2308C72.0898 35.7387 72.6676 35.9844 73.1756 35.7794L73.2758 35.739C73.7838 35.5341 74.0294 34.9562 73.8245 34.4483L73.0702 32.5784C72.8652 32.0705 72.2874 31.8249 71.7795 32.0298Z" fill="white" stroke="#263238" stroke-width="1.25668" stroke-miterlimit="10" stroke-linecap="round"/>
<path d="M157.764 30.4793L153.807 39.7148L129.569 79.6178L125.959 81.9255L118.209 82.2169L110.449 81.9255L106.826 79.6178L82.5784 39.7148L78.621 30.4793L72.511 35.7574C72.511 35.7574 75.331 40.3728 75.9702 40.7065C76.6094 41.0402 79.2602 42.0225 79.2602 42.0225L89.8117 75.9894L102.342 104.659L104.081 118.092C104.081 118.092 102.285 123.342 103.183 124.672C104.415 126.514 108.851 127.304 110.802 127.962C115.245 129.476 120.046 129.587 124.554 128.282C127.148 127.558 131.534 127.13 133.164 124.691C134.062 123.342 132.262 118.111 132.262 118.111L134.001 104.678L146.536 76.0082L157.087 42.0413C157.087 42.0413 159.724 41.0543 160.377 40.7253C161.031 40.3963 163.841 35.7762 163.841 35.7762L157.764 30.4793Z" fill="white" stroke="#263238" stroke-width="1.25668" stroke-miterlimit="10" stroke-linecap="round"/>
<path d="M157.749 32.0649L157.849 32.1053C158.357 32.3102 158.935 32.0646 159.14 31.5566L160.163 29.0199C160.368 28.512 160.122 27.9341 159.614 27.7292L159.514 27.6887C159.006 27.4838 158.428 27.7295 158.223 28.2374L157.2 30.7742C156.995 31.2821 157.241 31.86 157.749 32.0649Z" fill="white" stroke="#263238" stroke-width="1.25668" stroke-miterlimit="10" stroke-linecap="round"/>
<path d="M159.634 33.3446L159.734 33.3851C160.242 33.59 160.82 33.3443 161.025 32.8364L162.048 30.2997C162.253 29.7917 162.007 29.2139 161.5 29.009L161.399 28.9685C160.891 28.7636 160.313 29.0093 160.109 29.5172L159.085 32.0539C158.88 32.5619 159.126 33.1397 159.634 33.3446Z" fill="white" stroke="#263238" stroke-width="1.25668" stroke-miterlimit="10" stroke-linecap="round"/>
<path d="M161.348 34.8584L161.449 34.8988C161.957 35.1037 162.535 34.8581 162.739 34.3502L163.763 31.8134C163.968 31.3055 163.722 30.7276 163.214 30.5227L163.114 30.4823C162.606 30.2774 162.028 30.523 161.823 31.0309L160.8 33.5677C160.595 34.0756 160.841 34.6535 161.348 34.8584Z" fill="white" stroke="#263238" stroke-width="1.25668" stroke-miterlimit="10" stroke-linecap="round"/>
<path d="M163.102 35.7403L163.202 35.7808C163.71 35.9857 164.288 35.74 164.493 35.2321L165.247 33.3622C165.452 32.8543 165.206 32.2764 164.698 32.0715L164.598 32.0311C164.09 31.8262 163.512 32.0718 163.307 32.5798L162.553 34.4496C162.348 34.9576 162.594 35.5354 163.102 35.7403Z" fill="white" stroke="#263238" stroke-width="1.25668" stroke-miterlimit="10" stroke-linecap="round"/>
<path d="M146.555 75.9892L152.75 56.033L145.653 53.1378L129.569 79.6176L125.96 81.9253L118.209 82.2167L110.45 81.9253L106.826 79.6176L92.9796 56.8273L85.2058 61.0573L89.84 75.9751L102.37 104.645L104.109 118.078C104.109 118.078 102.314 123.328 103.212 124.658C104.246 126.204 107.761 126.89 109.387 127.445C114.482 129.193 118.722 130.077 123.957 128.446C126.27 127.722 131.745 126.824 133.193 124.658C134.091 123.309 132.29 118.078 132.29 118.078L134.029 104.645L146.555 75.9892Z" fill="white" stroke="#263238" stroke-width="1.25668" stroke-miterlimit="10" stroke-linecap="round"/>
<path d="M105.397 88.8054L105.181 90.3" stroke="#263238" stroke-width="1.25668" stroke-miterlimit="10" stroke-linecap="round"/>
<path d="M106.515 81.1359L105.617 87.2835" stroke="#263238" stroke-width="1.25668" stroke-miterlimit="10" stroke-linecap="round"/>
<path d="M134.832 93.1821L134.968 91.2551" stroke="#263238" stroke-width="1.25668" stroke-miterlimit="10" stroke-linecap="round"/>
<path d="M134.019 104.682L134.687 95.2302" stroke="#263238" stroke-width="1.25668" stroke-miterlimit="10" stroke-linecap="round"/>
<path d="M102.36 104.683L102.313 94.8838" stroke="#263238" stroke-width="1.25668" stroke-miterlimit="10" stroke-linecap="round"/>
<path d="M108.625 82.4183C108.625 82.4183 107.28 92.2084 108.234 98.1304" stroke="#263238" stroke-width="1.25668" stroke-miterlimit="10" stroke-linecap="round"/>
<path d="M125.799 83.2373C126.631 86.8131 127.142 90.4559 127.327 94.1225" stroke="#263238" stroke-width="1.25668" stroke-miterlimit="10" stroke-linecap="round"/>
<path d="M141.61 75.9835C141.653 76.5593 141.73 77.1321 141.84 77.699" stroke="#263238" stroke-width="1.25668" stroke-miterlimit="10" stroke-linecap="round"/>
<path d="M143.175 58.984C143.175 58.984 141.61 67.303 141.54 73.4976" stroke="#263238" stroke-width="1.25668" stroke-miterlimit="10" stroke-linecap="round"/>
<path d="M141.078 63.3795C141.078 63.3795 140.138 70.4295 140.138 73.4986" stroke="#263238" stroke-width="1.25668" stroke-miterlimit="10" stroke-linecap="round"/>
<path d="M96.5886 63.7593C96.5886 63.7593 97.5286 74.2638 98.3041 80.1811" stroke="#263238" stroke-width="1.25668" stroke-miterlimit="10" stroke-linecap="round"/>
<path d="M99.6957 84.1904C99.6957 85.027 99.6957 85.8589 99.644 86.672" stroke="#263238" stroke-width="1.25668" stroke-miterlimit="10" stroke-linecap="round"/>
<path d="M98.304 69.6829C99.0508 73.9775 99.5077 78.3176 99.6717 82.6737" stroke="#263238" stroke-width="1.25668" stroke-miterlimit="10" stroke-linecap="round"/>
<path d="M92.4117 55.5289L84.6003 59.7918C84.4096 59.8991 84.2599 60.0667 84.1748 60.2684C84.0897 60.47 84.0741 60.6942 84.1303 60.9057L85.0985 64.567C85.1372 64.7095 85.2074 64.8414 85.3039 64.9532C85.4004 65.0649 85.5207 65.1536 85.656 65.2127C85.7913 65.2718 85.9381 65.2997 86.0857 65.2946C86.2332 65.2894 86.3777 65.2511 86.5085 65.1827L95.1095 60.6143C95.3376 60.4934 95.5087 60.2872 95.5853 60.0406C95.6619 59.7941 95.6378 59.5272 95.5184 59.2983L93.7559 55.9284C93.6943 55.8135 93.6106 55.7119 93.5095 55.6295C93.4085 55.5471 93.2921 55.4856 93.1671 55.4484C93.0421 55.4113 92.911 55.3993 92.7814 55.4131C92.6517 55.4269 92.5261 55.4663 92.4117 55.5289Z" fill="white" stroke="#263238" stroke-width="1.25668" stroke-miterlimit="10" stroke-linecap="round"/>
<path d="M145.726 50.9296L153.993 54.2807C154.197 54.3645 154.368 54.5141 154.477 54.7058C154.586 54.8974 154.627 55.1201 154.595 55.3382L154.045 59.0982C154.024 59.245 153.969 59.385 153.886 59.5077C153.803 59.6304 153.693 59.7327 153.564 59.8069C153.436 59.881 153.292 59.9251 153.145 59.9359C152.997 59.9467 152.848 59.9238 152.71 59.869L143.653 56.297C143.412 56.2025 143.219 56.0167 143.114 55.7799C143.009 55.5432 143.002 55.2747 143.094 55.0327L144.438 51.503C144.484 51.3796 144.553 51.2666 144.643 51.1705C144.733 51.0745 144.841 50.9975 144.961 50.944C145.081 50.8905 145.211 50.8617 145.342 50.8592C145.474 50.8568 145.604 50.8807 145.726 50.9296Z" fill="white" stroke="#263238" stroke-width="1.25668" stroke-miterlimit="10" stroke-linecap="round"/>
<path d="M81.9168 38.8925L80.4269 31.4383C80.3827 31.2279 80.2622 31.0414 80.0886 30.9147C79.915 30.788 79.7006 30.7301 79.4869 30.7521C78.3636 30.8978 76.3661 31.1422 75.6705 31.1422C74.6835 31.1422 74.3498 33.1209 75.177 33.1209C75.9619 33.1872 76.7363 33.345 77.4847 33.5909C77.4847 33.5909 76.3285 37.7128 78.9699 39.198" fill="white"/>
<path d="M81.9168 38.8925L80.4269 31.4383C80.3827 31.2279 80.2622 31.0414 80.0886 30.9147C79.915 30.788 79.7006 30.7301 79.4869 30.7521C78.3636 30.8978 76.3661 31.1422 75.6705 31.1422C74.6835 31.1422 74.3498 33.1209 75.177 33.1209C75.9619 33.1872 76.7363 33.345 77.4847 33.5909C77.4847 33.5909 76.3285 37.7128 78.9699 39.198" stroke="#263238" stroke-width="1.25668" stroke-miterlimit="10" stroke-linecap="round"/>
<path d="M154.469 38.8929L155.959 31.4387C156.002 31.2279 156.123 31.0407 156.296 30.9138C156.47 30.7869 156.685 30.7294 156.899 30.7525C158.027 30.8982 160.025 31.1426 160.72 31.1426C161.707 31.1426 162.036 33.1213 161.214 33.1213C160.429 33.1871 159.654 33.3448 158.906 33.5913C158.906 33.5913 160.058 37.7132 157.421 39.1984" fill="white"/>
<path d="M154.469 38.8929L155.959 31.4387C156.002 31.2279 156.123 31.0407 156.296 30.9138C156.47 30.7869 156.685 30.7294 156.899 30.7525C158.027 30.8982 160.025 31.1426 160.72 31.1426C161.707 31.1426 162.036 33.1213 161.214 33.1213C160.429 33.1871 159.654 33.3448 158.906 33.5913C158.906 33.5913 160.058 37.7132 157.421 39.1984" stroke="#263238" stroke-width="1.25668" stroke-miterlimit="10" stroke-linecap="round"/>
<path d="M114.294 89.4879L116.841 95.0339L114.294 123.215L118.491 128.009L122.091 122.313L118.641 95.3347L121.79 88.7359L118.044 85.8877L114.294 89.4879Z" fill="#4169E1" stroke="#263238" stroke-width="1.25668" stroke-miterlimit="10" stroke-linecap="round"/>
<path d="M111.676 80.1056C111.676 80.1056 110.205 79.786 109.575 80.7354C109.217 81.27 108.902 81.8327 108.635 82.418L111.37 95.4558L117.88 89.7688L124.295 96.3958C124.295 96.3958 125.559 89.8722 125.559 85.144C125.559 80.4158 122.199 79.2643 121.353 78.9588C120.507 78.6533 111.676 80.1056 111.676 80.1056Z" fill="white" stroke="#263238" stroke-width="1.25668" stroke-miterlimit="10" stroke-linecap="round"/>
<path d="M110.204 77.0798L111.144 83.3872C111.144 83.3872 114.195 89.5912 116.719 89.9061C119.242 90.221 121.24 88.3316 122.293 85.4928L123.346 82.6728L124.079 76.8448L110.204 77.0798Z" fill="white" stroke="#263238" stroke-width="1.25668" stroke-miterlimit="10" stroke-linecap="round"/>
<path d="M124.079 77.8788C124.079 77.8788 118.66 83.2979 116.94 84.0358C115.219 84.7737 110.411 78.1279 110.411 78.1279L124.079 77.8788Z" fill="#263238"/>
<path d="M108.649 71.9086C107.788 71.1545 107.093 70.2301 106.608 69.1938C106.123 68.1575 105.857 67.0318 105.829 65.8879C105.73 61.9775 106.633 58.7674 107.037 59.2703C107.314 59.6647 107.517 60.1057 107.639 60.5722C107.639 60.5722 107.836 55.2565 110.045 53.7525C112.254 52.2485 111.948 55.8581 111.948 55.8581C111.948 55.8581 117.767 50.6411 121.781 51.3414C125.795 52.0417 123.285 53.3483 123.285 53.3483C123.285 53.3483 129.103 55.5573 130.109 57.865C131.115 60.1727 125.997 61.9775 125.997 61.9775C125.997 61.9775 128.817 62.6778 128.403 63.3875C127.99 64.0972 126.805 64.3886 126.805 64.3886C126.805 64.3886 126.608 69.7043 126.006 70.2072C125.405 70.7101 125.099 71.5138 124.3 69.9064C123.501 68.299 122.199 64.4685 119.285 63.9703C116.371 63.4721 111.258 63.2653 110.557 65.0748C109.857 66.8843 111.055 71.1848 110.153 72.0966C110.059 72.2167 109.935 72.3105 109.794 72.3686C109.653 72.4268 109.499 72.4475 109.348 72.4285C109.196 72.4096 109.052 72.3517 108.93 72.2606C108.807 72.1695 108.711 72.0482 108.649 71.9086Z" fill="#263238" stroke="#263238" stroke-width="1.25668" stroke-miterlimit="10" stroke-linecap="round"/>
<path d="M119.008 59.5293C119.008 59.5293 114.81 58.7867 112.343 60.2672C109.875 61.7477 108.762 64.7134 108.762 65.8273V70.6401C108.762 70.6401 106.045 68.6661 105.547 70.5179C105.049 72.3697 105.674 75.0863 106.661 75.3354C106.985 75.3938 107.318 75.3821 107.637 75.301C107.957 75.22 108.255 75.0714 108.512 74.8654C108.512 74.8654 109.006 77.8264 111.229 78.8181C113.452 79.8098 116.493 81.295 117.729 81.1681C118.965 81.0412 123.839 77.9486 124.309 77.4504C124.779 76.9522 125.301 74.2403 125.301 74.2403C125.301 74.2403 126.372 75.2743 126.936 74.9218C128.506 73.9395 128.755 72.0172 128.755 70.5367C128.755 69.0562 125.794 69.6719 125.794 69.6719C125.794 69.6719 124.558 62.6219 123.444 61.0286C122.33 59.4353 119.008 59.5293 119.008 59.5293Z" fill="white" stroke="#263238" stroke-width="1.25668" stroke-miterlimit="10" stroke-linecap="round"/>
<path d="M116.559 61.3816C116.559 61.3816 117.795 58.7872 119.027 59.5298C120.258 60.2724 119.525 63.2334 119.525 63.2334" stroke="#263238" stroke-width="1.25668" stroke-miterlimit="10" stroke-linecap="round"/>
<path d="M112.837 65.5781C112.837 65.5781 115.187 67.0586 117.034 67.0586C118.881 67.0586 121.109 65.8272 121.109 65.8272" stroke="#263238" stroke-width="1.25668" stroke-miterlimit="10" stroke-linecap="round"/>
<path d="M113.649 65.4096C113.649 65.4096 112.535 65.0806 112.14 65.9971" stroke="#263238" stroke-width="1.25668" stroke-miterlimit="10" stroke-linecap="round"/>
<path d="M120.319 65.4746C120.829 65.5854 121.276 65.8906 121.565 66.3253" stroke="#263238" stroke-width="1.25668" stroke-miterlimit="10" stroke-linecap="round"/>
<path d="M113.912 66.3916C113.912 66.3916 115.021 72.0316 117.314 72.2196C119.608 72.4076 119.998 66.5232 119.998 66.5232C119.028 66.7934 118.035 66.9728 117.032 67.059C116.135 67.059 113.846 66.119 113.846 66.119L113.912 66.3916Z" fill="#263238" stroke="#263238" stroke-width="1.25668" stroke-miterlimit="10" stroke-linecap="round"/>
<path d="M113.846 66.128L113.912 66.3912C113.912 66.3912 113.987 66.7719 114.137 67.3312C115.966 68.132 118.036 68.1792 119.899 67.4628C119.975 66.9035 119.998 66.5228 119.998 66.5228C119.028 66.793 118.035 66.9724 117.032 67.0586C116.135 67.0445 113.846 66.128 113.846 66.128Z" fill="white" stroke="#263238" stroke-width="1.25668" stroke-miterlimit="10" stroke-linecap="round"/>
<path d="M118.942 71.0068C117.815 71.1497 116.672 71.0988 115.563 70.8564C116.033 71.6037 116.625 72.1583 117.316 72.2194C118.007 72.2805 118.552 71.7588 118.942 71.0068Z" fill="white" stroke="#263238" stroke-width="1.25668" stroke-miterlimit="10" stroke-linecap="round"/>
<path d="M111.948 62.6604C111.948 62.6604 113.058 61.2833 114.566 61.6123" stroke="#263238" stroke-width="1.25668" stroke-miterlimit="10" stroke-linecap="round"/>
<path d="M119.999 61.6766C120.442 61.5905 120.899 61.5982 121.339 61.6994C121.78 61.8006 122.194 61.993 122.556 62.2641" stroke="#263238" stroke-width="1.25668" stroke-miterlimit="10" stroke-linecap="round"/>
<path d="M114.303 60.1027C114.303 60.1027 112.338 60.2343 111.553 61.5456" stroke="#263238" stroke-width="2.51337" stroke-miterlimit="10" stroke-linecap="round"/>
<path d="M120.46 60.037C120.46 60.037 122.34 60.1028 123.28 61.6115" stroke="#263238" stroke-width="2.51337" stroke-miterlimit="10" stroke-linecap="round"/>
<path d="M139.829 17.2429H99.8793C99.2168 17.2423 98.5608 17.3723 97.9486 17.6255C97.3365 17.8787 96.7803 18.2502 96.3119 18.7186C95.8435 19.187 95.472 19.7432 95.2188 20.3554C94.9656 20.9675 94.8356 21.6236 94.8362 22.286V34.5295C94.8362 35.1915 94.9667 35.8471 95.2202 36.4587C95.4737 37.0703 95.8452 37.6259 96.3136 38.0938C96.7819 38.5618 97.3379 38.9328 97.9497 39.1857C98.5616 39.4386 99.2172 39.5685 99.8793 39.5679H114.957L119.812 47.3041L123.647 39.5679H139.843C140.505 39.5685 141.161 39.4386 141.773 39.1857C142.385 38.9328 142.941 38.5618 143.409 38.0938C143.877 37.6259 144.249 37.0703 144.503 36.4587C144.756 35.8471 144.886 35.1915 144.886 34.5295V22.3095C144.89 21.6439 144.762 20.9841 144.509 20.3684C144.257 19.7526 143.884 19.193 143.414 18.7219C142.944 18.2508 142.385 17.8775 141.77 17.6237C141.154 17.3698 140.495 17.2404 139.829 17.2429Z" stroke="#263238" stroke-width="1.25668" stroke-miterlimit="10" stroke-linecap="round"/>
<path d="M101.974 25.9217V31.9997H100.906V25.9217H101.974ZM102.202 24.0137C102.202 24.1177 102.18 24.2157 102.136 24.3077C102.096 24.3957 102.04 24.4757 101.968 24.5477C101.9 24.6157 101.818 24.6697 101.722 24.7097C101.63 24.7497 101.532 24.7697 101.428 24.7697C101.324 24.7697 101.226 24.7497 101.134 24.7097C101.046 24.6697 100.968 24.6157 100.9 24.5477C100.832 24.4757 100.778 24.3957 100.738 24.3077C100.698 24.2157 100.678 24.1177 100.678 24.0137C100.678 23.9097 100.698 23.8117 100.738 23.7197C100.778 23.6237 100.832 23.5417 100.9 23.4737C100.968 23.4017 101.046 23.3457 101.134 23.3057C101.226 23.2657 101.324 23.2457 101.428 23.2457C101.532 23.2457 101.63 23.2657 101.722 23.3057C101.818 23.3457 101.9 23.4017 101.968 23.4737C102.04 23.5417 102.096 23.6237 102.136 23.7197C102.18 23.8117 102.202 23.9097 102.202 24.0137ZM115.415 25.9217L113.447 31.9997H112.601C112.497 31.9997 112.425 31.9317 112.385 31.7957L111.041 27.6737C111.009 27.5817 110.983 27.4897 110.963 27.3977C110.943 27.3017 110.923 27.2077 110.903 27.1157C110.883 27.2077 110.863 27.3017 110.843 27.3977C110.823 27.4897 110.797 27.5837 110.765 27.6797L109.397 31.7957C109.361 31.9317 109.281 31.9997 109.157 31.9997H108.353L106.385 25.9217H107.225C107.309 25.9217 107.379 25.9437 107.435 25.9877C107.495 26.0317 107.535 26.0837 107.555 26.1437L108.719 30.0557C108.787 30.3437 108.841 30.6157 108.881 30.8717C108.917 30.7397 108.953 30.6057 108.989 30.4697C109.029 30.3337 109.071 30.1957 109.115 30.0557L110.399 26.1197C110.419 26.0597 110.453 26.0097 110.501 25.9697C110.553 25.9297 110.615 25.9097 110.687 25.9097H111.155C111.235 25.9097 111.301 25.9297 111.353 25.9697C111.405 26.0097 111.441 26.0597 111.461 26.1197L112.715 30.0557C112.759 30.1957 112.799 30.3337 112.835 30.4697C112.871 30.6057 112.905 30.7397 112.937 30.8717C112.957 30.7397 112.981 30.6077 113.009 30.4757C113.041 30.3397 113.075 30.1997 113.111 30.0557L114.299 26.1437C114.319 26.0797 114.357 26.0277 114.413 25.9877C114.469 25.9437 114.535 25.9217 114.611 25.9217H115.415ZM119.175 25.8257C119.619 25.8257 120.019 25.8997 120.375 26.0477C120.731 26.1957 121.035 26.4057 121.287 26.6777C121.539 26.9497 121.731 27.2797 121.863 27.6677C121.999 28.0517 122.067 28.4817 122.067 28.9577C122.067 29.4377 121.999 29.8697 121.863 30.2537C121.731 30.6377 121.539 30.9657 121.287 31.2377C121.035 31.5097 120.731 31.7197 120.375 31.8677C120.019 32.0117 119.619 32.0837 119.175 32.0837C118.727 32.0837 118.323 32.0117 117.963 31.8677C117.607 31.7197 117.303 31.5097 117.051 31.2377C116.799 30.9657 116.605 30.6377 116.469 30.2537C116.337 29.8697 116.271 29.4377 116.271 28.9577C116.271 28.4817 116.337 28.0517 116.469 27.6677C116.605 27.2797 116.799 26.9497 117.051 26.6777C117.303 26.4057 117.607 26.1957 117.963 26.0477C118.323 25.8997 118.727 25.8257 119.175 25.8257ZM119.175 31.2497C119.775 31.2497 120.223 31.0497 120.519 30.6497C120.815 30.2457 120.963 29.6837 120.963 28.9637C120.963 28.2397 120.815 27.6757 120.519 27.2717C120.223 26.8677 119.775 26.6657 119.175 26.6657C118.871 26.6657 118.605 26.7177 118.377 26.8217C118.153 26.9257 117.965 27.0757 117.813 27.2717C117.665 27.4677 117.553 27.7097 117.477 27.9977C117.405 28.2817 117.369 28.6037 117.369 28.9637C117.369 29.6837 117.517 30.2457 117.813 30.6497C118.113 31.0497 118.567 31.2497 119.175 31.2497ZM124.67 26.8037C124.802 26.6557 124.942 26.5217 125.09 26.4017C125.238 26.2817 125.394 26.1797 125.558 26.0957C125.726 26.0077 125.902 25.9417 126.086 25.8977C126.274 25.8497 126.476 25.8257 126.692 25.8257C127.024 25.8257 127.316 25.8817 127.568 25.9937C127.824 26.1017 128.036 26.2577 128.204 26.4617C128.376 26.6617 128.506 26.9037 128.594 27.1877C128.682 27.4717 128.726 27.7857 128.726 28.1297V31.9997H127.652V28.1297C127.652 27.6697 127.546 27.3137 127.334 27.0617C127.126 26.8057 126.808 26.6777 126.38 26.6777C126.064 26.6777 125.768 26.7537 125.492 26.9057C125.22 27.0577 124.968 27.2637 124.736 27.5237V31.9997H123.662V25.9217H124.304C124.456 25.9217 124.55 25.9957 124.586 26.1437L124.67 26.8037ZM131.877 23.4017V26.8337C131.877 27.0137 131.873 27.1897 131.865 27.3617C131.857 27.5337 131.847 27.7077 131.835 27.8837C131.823 28.0557 131.807 28.2337 131.787 28.4177C131.771 28.5977 131.751 28.7917 131.727 28.9997H131.007C130.983 28.7917 130.961 28.5977 130.941 28.4177C130.925 28.2337 130.911 28.0557 130.899 27.8837C130.887 27.7077 130.877 27.5337 130.869 27.3617C130.861 27.1897 130.857 27.0137 130.857 26.8337V23.4017H131.877ZM130.599 31.3397C130.599 31.2357 130.617 31.1377 130.653 31.0457C130.693 30.9537 130.747 30.8737 130.815 30.8057C130.883 30.7377 130.961 30.6837 131.049 30.6437C131.141 30.6037 131.241 30.5837 131.349 30.5837C131.453 30.5837 131.549 30.6037 131.637 30.6437C131.729 30.6837 131.809 30.7377 131.877 30.8057C131.945 30.8737 131.999 30.9537 132.039 31.0457C132.079 31.1377 132.099 31.2357 132.099 31.3397C132.099 31.4477 132.079 31.5477 132.039 31.6397C131.999 31.7277 131.945 31.8057 131.877 31.8737C131.809 31.9417 131.729 31.9937 131.637 32.0297C131.549 32.0697 131.453 32.0897 131.349 32.0897C131.241 32.0897 131.141 32.0697 131.049 32.0297C130.961 31.9937 130.883 31.9417 130.815 31.8737C130.747 31.8057 130.693 31.7277 130.653 31.6397C130.617 31.5477 130.599 31.4477 130.599 31.3397ZM135.34 23.4017V26.8337C135.34 27.0137 135.336 27.1897 135.328 27.3617C135.32 27.5337 135.31 27.7077 135.298 27.8837C135.286 28.0557 135.27 28.2337 135.25 28.4177C135.234 28.5977 135.214 28.7917 135.19 28.9997H134.47C134.446 28.7917 134.424 28.5977 134.404 28.4177C134.388 28.2337 134.374 28.0557 134.362 27.8837C134.35 27.7077 134.34 27.5337 134.332 27.3617C134.324 27.1897 134.32 27.0137 134.32 26.8337V23.4017H135.34ZM134.062 31.3397C134.062 31.2357 134.08 31.1377 134.116 31.0457C134.156 30.9537 134.21 30.8737 134.278 30.8057C134.346 30.7377 134.424 30.6837 134.512 30.6437C134.604 30.6037 134.704 30.5837 134.812 30.5837C134.916 30.5837 135.012 30.6037 135.1 30.6437C135.192 30.6837 135.272 30.7377 135.34 30.8057C135.408 30.8737 135.462 30.9537 135.502 31.0457C135.542 31.1377 135.562 31.2357 135.562 31.3397C135.562 31.4477 135.542 31.5477 135.502 31.6397C135.462 31.7277 135.408 31.8057 135.34 31.8737C135.272 31.9417 135.192 31.9937 135.1 32.0297C135.012 32.0697 134.916 32.0897 134.812 32.0897C134.704 32.0897 134.604 32.0697 134.512 32.0297C134.424 31.9937 134.346 31.9417 134.278 31.8737C134.21 31.8057 134.156 31.7277 134.116 31.6397C134.08 31.5477 134.062 31.4477 134.062 31.3397ZM138.802 23.4017V26.8337C138.802 27.0137 138.798 27.1897 138.79 27.3617C138.782 27.5337 138.772 27.7077 138.76 27.8837C138.748 28.0557 138.732 28.2337 138.712 28.4177C138.696 28.5977 138.676 28.7917 138.652 28.9997H137.932C137.908 28.7917 137.886 28.5977 137.866 28.4177C137.85 28.2337 137.836 28.0557 137.824 27.8837C137.812 27.7077 137.802 27.5337 137.794 27.3617C137.786 27.1897 137.782 27.0137 137.782 26.8337V23.4017H138.802ZM137.524 31.3397C137.524 31.2357 137.542 31.1377 137.578 31.0457C137.618 30.9537 137.672 30.8737 137.74 30.8057C137.808 30.7377 137.886 30.6837 137.974 30.6437C138.066 30.6037 138.166 30.5837 138.274 30.5837C138.378 30.5837 138.474 30.6037 138.562 30.6437C138.654 30.6837 138.734 30.7377 138.802 30.8057C138.87 30.8737 138.924 30.9537 138.964 31.0457C139.004 31.1377 139.024 31.2357 139.024 31.3397C139.024 31.4477 139.004 31.5477 138.964 31.6397C138.924 31.7277 138.87 31.8057 138.802 31.8737C138.734 31.9417 138.654 31.9937 138.562 32.0297C138.474 32.0697 138.378 32.0897 138.274 32.0897C138.166 32.0897 138.066 32.0697 137.974 32.0297C137.886 31.9937 137.808 31.9417 137.74 31.8737C137.672 31.8057 137.618 31.7277 137.578 31.6397C137.542 31.5477 137.524 31.4477 137.524 31.3397Z" fill="#212121"/>
<path d="M225.97 210.156H11.9136" stroke="#263238" stroke-width="1.25668" stroke-miterlimit="10" stroke-linecap="round"/>
<g clip-path="url(#clip1_2563_4240)">
<path d="M70.2515 19.3099L56.7563 9.67596C56.6532 9.91893 54.1972 16.2386 51.3673 22.6147C51.1864 23.0216 51.0265 23.4204 50.8796 23.8075C50.8359 23.9232 50.7984 24.0355 50.7573 24.1502C50.6171 24.5375 50.4911 24.9298 50.3793 25.3263C50.3039 25.5974 50.2372 25.8642 50.1786 26.1263L50.115 26.4143C50.046 26.7584 49.9905 27.0969 49.954 27.4259L49.9518 27.4425C49.913 27.7937 49.8923 28.1462 49.8907 28.5L49.8913 28.5327C49.8918 28.8432 49.909 29.1541 49.9425 29.4622L49.9614 29.6078C49.9956 29.8773 50.0437 30.1444 50.106 30.4091C50.1161 30.4514 50.1252 30.495 50.1364 30.5371C50.6885 32.5097 51.9461 34.2107 53.6703 35.3166C54.2947 35.7605 54.9641 36.1354 55.6685 36.4351C63.0109 31.9852 67.1832 25.9523 70.2515 19.3099Z" fill="#FCEA2B"/>
<path d="M70.2518 19.3098C66.4072 25.5724 63.6092 31.2651 54.9051 36.8441C58.352 38.302 62.9172 37.051 66.7875 33.3847C70.9766 29.4166 76.2256 24.2242 76.4248 24.0434L70.2518 19.3098Z" fill="#F1B31C"/>
<path d="M46.2055 39.6631L43.7495 37.9282L40.5366 42.4765L47.4901 47.3885L50.703 42.8402L46.2055 39.6631Z" fill="#FCEA2B"/>
<path d="M54.1139 45.2493L50.7029 42.8397L47.4899 47.388L50.901 49.7976L54.1139 45.2493Z" fill="#F1B31C"/>
<path d="M59.3339 27.2934C60.7359 28.2837 62.6752 27.9501 63.6656 26.5481C64.6559 25.1462 64.3223 23.2068 62.9203 22.2165C61.5183 21.2261 59.579 21.5598 58.5887 22.9617C57.5983 24.3637 57.932 26.303 59.3339 27.2934Z" fill="#F1B31C"/>
<path d="M49.7893 23.3079C49.7893 23.3079 49.9571 23.1782 48.1106 18.3854C47.2602 16.1836 46.394 13.4627 47.7581 11.5316C49.1223 9.60041 51.6355 9.4094 53.5647 10.7722L54.5242 11.45M65.9494 34.9965C65.9494 34.9965 66.1171 34.8667 71.2514 35.0052C73.6096 35.07 76.5156 35.0137 77.8797 33.0826C78.1913 32.6368 78.4085 32.132 78.5183 31.5993C78.6281 31.0666 78.628 30.5171 78.5181 29.9844C78.4082 29.4518 78.1907 28.9471 77.8791 28.5014C77.5674 28.0556 77.1681 27.6781 76.7055 27.392L75.3379 26.4259M77.1119 23.9186C77.2122 23.9895 77.2215 24.1339 77.13 24.2149C76.6061 24.6791 74.607 26.5166 67.0007 33.7224C62.4325 38.0506 57.8743 39.2351 53.2207 35.9478C48.567 32.6604 48.1017 28.0509 50.6548 22.2983C54.4351 13.6959 56.3714 9.26744 56.3714 9.26744L77.1119 23.9186ZM43.5626 36.8441L55.197 45.0627L51.0875 50.8802L39.4531 42.6616L43.5626 36.8441Z" stroke="black" stroke-width="1.55397" stroke-linecap="round" stroke-linejoin="round"/>
<path d="M58.8862 27.9278C60.6386 29.1657 63.0628 28.7486 64.3007 26.9962C65.5387 25.2437 65.1216 22.8196 63.3691 21.5816C61.6167 20.3437 59.1925 20.7608 57.9546 22.5132C56.7166 24.2657 57.1337 26.6899 58.8862 27.9278Z" stroke="black" stroke-width="1.55397" stroke-linecap="round" stroke-linejoin="round"/>
<path d="M49.583 41.0967L53.2205 35.9474" stroke="black" stroke-width="1.55397" stroke-linecap="round" stroke-linejoin="round"/>
</g>
</g>
<defs>
<clipPath id="clip0_2563_4240">
<rect width="235" height="235" fill="white"/>
</clipPath>
<clipPath id="clip1_2563_4240">
<rect width="55.943" height="55.943" fill="white" transform="translate(49.2773 -7) rotate(35.2376)"/>
</clipPath>
</defs>
</svg>
