<svg width="235" height="235" viewBox="0 0 235 235" fill="none" xmlns="http://www.w3.org/2000/svg">
<g clip-path="url(#clip0_2775_7463)">
<rect width="235" height="235" fill="#101127"/>
<path d="M220.099 147.02C220.099 147.02 230.66 91.1788 201.887 59.4679C176.493 31.4888 136.298 20.6083 103.506 43.7417C91.8268 51.9855 83.3245 67.989 69.6663 72.9381C54.3678 78.4841 34.703 80.4581 20.4996 104.235C6.29616 128.013 11.3957 158.506 30.332 174.735C49.2683 190.965 82.4127 175.135 112.276 173.946C142.14 172.757 204.448 215.954 220.099 147.02Z" fill="#6787E7"/>
<path opacity="0.7" d="M220.099 147.02C220.099 147.02 230.66 91.1788 201.887 59.4679C176.493 31.4888 136.298 20.6083 103.506 43.7417C91.8268 51.9855 83.3245 67.989 69.6663 72.9381C54.3678 78.4841 34.703 80.4581 20.4996 104.235C6.29616 128.013 11.3957 158.506 30.332 174.735C49.2683 190.965 82.4127 175.135 112.276 173.946C142.14 172.757 204.448 215.954 220.099 147.02Z" fill="white"/>
<path d="M44.212 96.5795C44.212 96.5795 44.212 94.0368 40.6494 90.4695C37.0868 86.9022 34.8026 84.8812 34.8026 84.8812C34.8026 84.8812 33.0213 90.7327 36.3301 94.2812C38.7602 96.787 41.3968 99.084 44.212 101.148V96.5795Z" fill="#6787E7"/>
<path d="M39.0419 112.461C39.0419 112.461 39.0419 109.919 35.484 106.351C31.9261 102.784 29.6372 100.758 29.6372 100.758C29.6372 100.758 27.8559 106.605 31.16 110.158C33.5926 112.663 36.2289 114.962 39.0419 117.03V112.461Z" fill="#6787E7"/>
<path d="M43.9865 100.908C43.9865 100.908 44.2544 98.3795 48.1695 95.2164C52.0846 92.0533 54.5803 90.272 54.5803 90.272C54.5803 90.272 55.7318 96.2786 52.0658 99.4699C49.383 101.702 46.5186 103.706 43.5024 105.462L43.9865 100.908Z" fill="#6787E7"/>
<path d="M37.7454 119.665C37.7454 119.665 38.2765 117.179 42.5065 114.444C46.7365 111.708 49.3967 110.214 49.3967 110.214C49.3967 110.214 49.909 116.324 45.9328 119.092C43.0306 121.031 39.9712 122.724 36.7866 124.154L37.7454 119.665Z" fill="#6787E7"/>
<path d="M38.9189 140.11C38.9189 140.11 38.9189 137.568 42.4768 134C46.0347 130.433 48.3283 128.407 48.3283 128.407C48.3283 128.407 50.1049 134.254 46.8008 137.807C44.3707 140.313 41.7341 142.61 38.9189 144.674V140.11Z" fill="#6787E7"/>
<path d="M38.8582 145.103C38.8582 145.103 39.2201 142.588 36.2027 138.556C33.1853 134.523 31.2066 132.187 31.2066 132.187C31.2066 132.187 28.6169 137.724 31.3805 141.719C33.4319 144.543 35.7162 147.191 38.2096 149.634L38.8582 145.103Z" fill="#6787E7"/>
<path d="M35.3486 159.893C35.3486 159.893 35.3486 157.351 38.9112 153.783C42.4738 150.216 44.758 148.19 44.758 148.19C44.758 148.19 46.5393 154.037 43.2305 157.59C40.8004 160.096 38.1638 162.393 35.3486 164.457V159.893Z" fill="#6787E7"/>
<path d="M37.7268 173.306C37.7268 173.306 37.0829 170.843 39.6068 166.501C42.1307 162.158 43.8368 159.606 43.8368 159.606C43.8368 159.606 47.0422 164.813 44.7439 169.095C43.0277 172.134 41.0593 175.024 38.8595 177.734L37.7268 173.306Z" fill="#6787E7"/>
<path d="M44.5309 95.9265C44.3513 98.5743 44.0265 101.21 43.558 103.822C42.148 111.093 38.6324 115.784 37.2271 122.35C35.8218 128.916 39.8591 137.39 38.7734 145.812C37.6877 154.235 34.4118 158.939 35.3471 164.57C36.2824 170.201 41.2127 185.443 41.2127 185.443" stroke="#263238" stroke-width="1.25668" stroke-linecap="round" stroke-linejoin="round"/>
<path d="M43.9531 102.601L47.7883 99.6587" stroke="#263238" stroke-width="1.25668" stroke-linecap="round" stroke-linejoin="round"/>
<path d="M44.1323 99.2098L42.5249 96.3522" stroke="#263238" stroke-width="1.25668" stroke-linecap="round" stroke-linejoin="round"/>
<path d="M37.4399 122.048C37.4399 122.048 40.65 119.642 43.9541 117.231" stroke="#263238" stroke-width="1.25668" stroke-linecap="round" stroke-linejoin="round"/>
<path d="M39.0422 117.03C39.0422 117.03 36.3679 111.78 33.3364 108.302" stroke="#263238" stroke-width="1.25668" stroke-linecap="round" stroke-linejoin="round"/>
<path d="M39.0474 143.73C40.8792 140.351 43.1922 137.256 45.9141 134.541" stroke="#263238" stroke-width="1.25668" stroke-linecap="round" stroke-linejoin="round"/>
<path d="M38.422 147.297C37.4455 145.011 36.2806 142.81 34.9393 140.717C33.0593 137.949 32.8008 137.591 32.8008 137.591" stroke="#263238" stroke-width="1.25668" stroke-linecap="round" stroke-linejoin="round"/>
<path d="M35.3486 164.57C36.1632 162.549 37.1311 160.592 38.2438 158.718C39.3594 156.982 40.6171 155.341 42.0038 153.812" stroke="#263238" stroke-width="1.25668" stroke-linecap="round" stroke-linejoin="round"/>
<path d="M38.8866 177.735C38.8866 177.735 38.5106 174.69 39.8266 172.095C41.1426 169.501 42.6842 166.122 43.3093 164.782" stroke="#263238" stroke-width="1.25668" stroke-linecap="round" stroke-linejoin="round"/>
<path d="M20.901 130.55C20.901 130.55 20.6237 128.952 22.4708 126.32C24.3179 123.688 25.5305 122.198 25.5305 122.198C25.5305 122.198 27.2789 125.672 25.5963 128.261C24.3448 130.099 22.9408 131.829 21.3992 133.431L20.901 130.55Z" fill="#6787E7"/>
<path d="M25.8488 139.947C25.8488 139.947 25.5715 138.353 27.4186 135.717C29.2657 133.08 30.4924 131.599 30.4924 131.599C30.4924 131.599 32.2455 135.073 30.5582 137.667C29.3052 139.504 27.9013 141.233 26.3611 142.837L25.8488 139.947Z" fill="#6787E7"/>
<path d="M21.511 133.239C21.511 133.239 21.041 131.684 18.268 130.128C15.495 128.572 13.7137 127.722 13.7137 127.722C13.7137 127.722 13.6291 131.599 16.2846 133.211C18.2086 134.319 20.2227 135.262 22.3053 136.031L21.511 133.239Z" fill="#6787E7"/>
<path d="M27.4615 144.322C27.4615 144.322 26.8552 142.823 23.9083 141.568C20.9614 140.313 19.1284 139.655 19.1284 139.655C19.1284 139.655 19.4668 143.528 22.2633 144.825C24.2935 145.726 26.3955 146.455 28.5472 147.006L27.4615 144.322Z" fill="#6787E7"/>
<path d="M28.941 157.276C28.941 157.276 28.6684 155.678 26.0458 153.835C23.4232 151.993 21.7735 150.959 21.7735 150.959C21.7735 150.959 21.3035 154.822 23.7522 156.693C25.5477 158 27.4501 159.154 29.4392 160.143L28.941 157.276Z" fill="#6787E7"/>
<path d="M29.5243 160.395C29.5243 160.395 29.0214 158.859 30.4643 156.001C31.9072 153.143 32.8989 151.465 32.8989 151.465C32.8989 151.465 35.1267 154.657 33.8389 157.463C32.8595 159.457 31.715 161.365 30.4173 163.168L29.5243 160.395Z" fill="#6787E7"/>
<path d="M33.9901 173.261C33.9901 173.261 34.1781 171.653 36.6832 169.66C39.1883 167.668 40.7863 166.549 40.7863 166.549C40.7863 166.549 41.4913 170.375 39.1413 172.386C37.4223 173.79 35.5892 175.047 33.6611 176.146L33.9901 173.261Z" fill="#6787E7"/>
<path d="M33.3324 169.294C33.3324 169.294 33.0551 167.696 30.4372 165.853C27.8193 164.011 26.1602 162.977 26.1602 162.977C26.1602 162.977 25.6902 166.84 28.1389 168.711C29.9389 170.019 31.846 171.173 33.84 172.161L33.3324 169.294Z" fill="#6787E7"/>
<path d="M33.2943 177.96C33.2943 177.96 33.4306 176.348 31.3673 173.9C29.304 171.451 27.9598 170.036 27.9598 170.036C27.9598 170.036 26.5169 173.651 28.4298 176.085C29.8365 177.804 31.3851 179.401 33.0593 180.86L33.2943 177.96Z" fill="#6787E7"/>
<path d="M20.6279 130.188C21.0247 131.825 21.5127 133.438 22.0896 135.02C23.7628 139.429 26.4794 141.985 28.0727 145.952C29.666 149.919 28.0727 155.662 29.6472 160.832C31.2217 166.002 33.8396 168.587 33.8396 172.22C33.8396 175.854 32.4296 185.949 32.4296 185.949" stroke="#263238" stroke-width="1.25668" stroke-linecap="round" stroke-linejoin="round"/>
<path d="M21.713 134.297L18.9917 132.868" stroke="#263238" stroke-width="1.25668" stroke-linecap="round" stroke-linejoin="round"/>
<path d="M21.2334 132.192L21.9337 130.227" stroke="#263238" stroke-width="1.25668" stroke-linecap="round" stroke-linejoin="round"/>
<path d="M27.9134 145.788C27.9134 145.788 25.6339 144.622 23.3027 143.471" stroke="#263238" stroke-width="1.25668" stroke-linecap="round" stroke-linejoin="round"/>
<path d="M26.3608 142.818C27.0254 140.696 27.9074 138.648 28.9928 136.708" stroke="#263238" stroke-width="1.25668" stroke-linecap="round" stroke-linejoin="round"/>
<path d="M29.2567 159.555C27.7455 157.637 25.9645 155.947 23.9692 154.54" stroke="#263238" stroke-width="1.25668" stroke-linecap="round" stroke-linejoin="round"/>
<path d="M30.0371 161.725C30.3931 160.182 30.8789 158.671 31.4894 157.209C32.3636 155.268 32.4905 155.018 32.4905 155.018" stroke="#263238" stroke-width="1.25668" stroke-linecap="round" stroke-linejoin="round"/>
<path d="M33.7124 174.975C33.7124 174.975 35.5172 172.762 36.6452 171.935C37.3151 171.434 37.9437 170.881 38.5252 170.28" stroke="#263238" stroke-width="1.25668" stroke-linecap="round" stroke-linejoin="round"/>
<path d="M33.8386 172.222C33.1082 171.043 32.2897 169.921 31.3899 168.866C30.5045 167.898 29.5409 167.005 28.5088 166.196" stroke="#263238" stroke-width="1.25668" stroke-linecap="round" stroke-linejoin="round"/>
<path d="M33.0488 180.86C32.9563 179.63 32.536 178.447 31.8315 177.434C30.7129 175.958 29.3922 173.998 28.8564 173.204" stroke="#263238" stroke-width="1.25668" stroke-linecap="round" stroke-linejoin="round"/>
<path d="M43.5216 210.155H28.6696C28.3596 210.154 28.0626 210.03 27.8434 209.811C27.6242 209.592 27.5005 209.295 27.4993 208.985L23.8145 184.375H48.3861L44.7013 208.985C44.7006 209.139 44.6696 209.292 44.61 209.434C44.5504 209.576 44.4633 209.705 44.3538 209.814C44.2442 209.923 44.1144 210.009 43.9716 210.067C43.8288 210.126 43.6759 210.156 43.5216 210.155Z" fill="#263238" stroke="#263238" stroke-width="1.25668" stroke-linecap="round" stroke-linejoin="round"/>
<path d="M131.337 85.9729L148.191 86.1092C148.191 86.1092 149.305 85.9729 149.601 86.8095C149.601 86.8095 152.53 94.1885 152.666 96.8346C152.802 99.4807 152.111 99.0624 153.225 102.545C154.339 106.028 157.54 114.243 159.335 120.931C161.765 129.913 162.4 139.449 162.555 148.723C162.578 150.212 163.471 163.015 161.145 163.015C159.222 163.015 141.489 165.365 141.278 161.948C140.427 148.318 142.885 135.013 138.152 121.763C136.315 116.617 134.209 111.184 132.649 105.783C131.088 100.383 130.816 94.8042 129.8 89.2958C129.109 85.5405 131.337 85.9729 131.337 85.9729Z" fill="#263238" stroke="#263238" stroke-width="1.25668" stroke-linecap="round" stroke-linejoin="round"/>
<path d="M129.687 87.6408C129.856 85.695 131.336 85.9723 131.336 85.9723L148.19 86.1086C148.19 86.1086 149.304 85.9723 149.6 86.8089C149.6 86.8089 152.529 94.1879 152.665 96.834C152.706 97.5332 152.685 98.2346 152.604 98.9302L152.247 99.4801C152.247 99.4801 151.692 104.354 145.004 104.65C138.316 104.946 134.56 101.868 133.169 98.9443C131.778 96.0209 131.219 91.2833 130.105 88.4962C129.982 88.2034 129.842 87.9178 129.687 87.6408Z" fill="#D1D1D1" stroke="#263238" stroke-width="1.25668" stroke-linecap="round" stroke-linejoin="round"/>
<path d="M133.597 93.0609C134.725 97.1311 134.067 98.2591 135.176 105.281C136.286 112.303 140.375 120.199 141.958 127.432C143.542 134.665 142.861 160.21 142.635 161.338C142.55 161.939 142.517 162.546 142.537 163.152C141.78 162.87 141.319 162.48 141.286 161.944C140.436 148.314 142.894 135.008 138.161 121.759C136.323 116.613 134.218 111.179 132.657 105.779C131.097 100.379 130.824 94.7999 129.809 89.2915C129.377 86.9791 130.053 86.2506 130.641 86.0297C131.919 88.2396 132.912 90.602 133.597 93.0609Z" fill="#D1D1D1" stroke="#263238" stroke-width="1.25668" stroke-linecap="round" stroke-linejoin="round"/>
<path d="M166.146 195.926L166.258 195.837V180.106H163.998V170.142H172.359V180.106H170.098V196.086L190.106 202.464V204.043C190.106 204.523 189.916 204.983 189.576 205.322C189.237 205.662 188.777 205.852 188.297 205.852C187.817 205.852 187.357 205.662 187.017 205.322C186.678 204.983 186.487 204.523 186.487 204.043V203.817L169.76 201.876V204.273C169.738 204.678 169.562 205.058 169.267 205.337C168.973 205.616 168.584 205.771 168.178 205.771C167.773 205.771 167.384 205.616 167.089 205.337C166.795 205.058 166.619 204.678 166.597 204.273V201.796L149.207 203.817V204.043C149.207 204.523 149.016 204.983 148.677 205.322C148.338 205.662 147.877 205.852 147.397 205.852C146.917 205.852 146.457 205.662 146.118 205.322C145.779 204.983 145.588 204.523 145.588 204.043V202.464L166.146 195.926Z" fill="#263238" stroke="#263238" stroke-width="1.25668" stroke-linecap="round" stroke-linejoin="round"/>
<path d="M141.887 171.992H192.384C193.422 171.992 194.264 171.15 194.264 170.112V162.338C194.264 161.3 193.422 160.458 192.384 160.458H141.887C140.849 160.458 140.007 161.3 140.007 162.338V170.112C140.007 171.15 140.849 171.992 141.887 171.992Z" fill="#263238" stroke="#263238" stroke-width="1.25668" stroke-linecap="round" stroke-linejoin="round"/>
<path d="M202.7 114.117H182.721V137.194H202.7V114.117Z" fill="white" stroke="#263238" stroke-width="1.25668" stroke-linecap="round" stroke-linejoin="round"/>
<path d="M181.171 138.228H203.736V117.388H193.057L181.171 138.228Z" fill="#D1D1D1" stroke="#263238" stroke-width="1.25668" stroke-linecap="round" stroke-linejoin="round"/>
<path d="M208.573 139.388H195.667C195.417 139.388 195.178 139.289 195.002 139.113C194.826 138.937 194.727 138.697 194.727 138.448C194.727 138.199 194.826 137.96 195.002 137.784C195.178 137.607 195.417 137.508 195.667 137.508H208.573C208.916 137.509 209.254 137.43 209.561 137.278C209.868 137.126 210.135 136.904 210.342 136.63C210.549 136.357 210.689 136.039 210.751 135.702C210.814 135.365 210.797 135.018 210.702 134.688L206.119 118.28C206.054 118.042 206.086 117.787 206.207 117.572C206.329 117.356 206.53 117.197 206.768 117.129C207.007 117.064 207.261 117.095 207.477 117.217C207.692 117.338 207.852 117.54 207.919 117.778L212.497 134.185C212.666 134.791 212.693 135.427 212.575 136.044C212.457 136.662 212.198 137.244 211.818 137.744C211.438 138.245 210.947 138.651 210.384 138.93C209.821 139.21 209.201 139.355 208.573 139.355V139.388Z" fill="#D1D1D1" stroke="#263238" stroke-width="1.25668" stroke-linecap="round" stroke-linejoin="round"/>
<path d="M206.979 96.7185L204.058 96.3686L199.533 134.15L202.454 134.5L206.979 96.7185Z" fill="white" stroke="#263238" stroke-width="1.25668" stroke-linecap="round" stroke-linejoin="round"/>
<path d="M206.974 96.7322C206.974 96.7322 212.144 115.26 202.443 134.515L206.974 96.7322Z" fill="#D1D1D1" stroke="#263238" stroke-width="1.25668" stroke-linecap="round" stroke-linejoin="round"/>
<path d="M76.9668 210.156L219.56 210.156V139.308H76.9668V210.156Z" fill="#263238"/>
<mask id="mask0_2775_7463" style="mask-type:luminance" maskUnits="userSpaceOnUse" x="76" y="139" width="144" height="72">
<path d="M76.9643 210.157L219.558 210.157V139.309H76.9643V210.157Z" fill="white"/>
</mask>
<g mask="url(#mask0_2775_7463)">
<path d="M76.9643 210.157L219.558 210.157V139.309H76.9643V210.157Z" fill="white" stroke="#263238" stroke-width="1.25668" stroke-linecap="round" stroke-linejoin="round"/>
</g>
<path d="M76.9668 210.156L219.56 210.156V139.308H76.9668V210.156Z" stroke="#263238" stroke-width="1.25668" stroke-linecap="round" stroke-linejoin="round"/>
<path d="M77.0602 142.745L219.508 142.745V140.903L77.0602 140.903V142.745Z" fill="#263238"/>
<path d="M76.1111 141.123L222.14 141.123V138.214L76.1111 138.214V141.123Z" fill="white" stroke="#263238" stroke-width="1.25668" stroke-linecap="round" stroke-linejoin="round"/>
<path d="M78.4896 109.719C77.4773 112.858 76.1201 115.875 74.4429 118.715C71.7404 123.213 66.796 129.055 66.796 129.055L48.8091 121.413C51.9735 118.071 54.8331 114.454 57.3537 110.603C61.8516 103.854 62.9044 102.463 62.9044 102.463C62.9044 102.463 74.2596 108.234 78.4896 109.719Z" fill="white" stroke="#263238" stroke-width="1.25668" stroke-miterlimit="10" stroke-linecap="round"/>
<path d="M83.3968 155.391C80.3817 156.714 77.2291 157.7 73.9968 158.328C68.8268 159.292 61.1893 159.47 61.1893 159.47L54.9712 140.938C59.5658 141.092 64.165 140.836 68.714 140.172C76.7463 139.063 78.4853 138.927 78.4853 138.927C78.4853 138.927 81.7189 151.259 83.3968 155.391Z" fill="white" stroke="#263238" stroke-width="1.25668" stroke-miterlimit="10" stroke-linecap="round"/>
<path d="M176.033 163.032C173.018 164.356 169.866 165.341 166.633 165.97C161.463 166.938 153.826 167.117 153.826 167.117L147.58 148.585C152.174 148.738 156.774 148.48 161.322 147.814C169.355 146.705 171.094 146.568 171.094 146.568C171.094 146.568 174.37 158.906 176.033 163.032Z" fill="white" stroke="#263238" stroke-width="1.25668" stroke-miterlimit="10" stroke-linecap="round"/>
<path d="M174.403 120.568C171.354 119.31 168.455 117.716 165.759 115.816C161.492 112.771 156.059 107.356 156.059 107.356L165.111 90.051C168.183 93.4781 171.555 96.624 175.188 99.451C181.551 104.471 182.858 105.636 182.858 105.636C182.858 105.636 176.217 116.498 174.403 120.568Z" fill="white" stroke="#263238" stroke-width="1.25668" stroke-miterlimit="10" stroke-linecap="round"/>
<path d="M139.989 118.208L151.481 128.421C151.481 128.421 154.461 119.27 159.565 116.506C162.849 114.755 166.263 113.261 169.778 112.036L154.033 102.251C154.033 102.251 138.076 108.422 139.989 118.208Z" fill="white" stroke="#263238" stroke-width="1.25668" stroke-miterlimit="10" stroke-linecap="round"/>
<path d="M58.5943 91.6764L70.0858 101.89C70.0858 101.89 73.0656 92.7386 78.1698 89.975C81.4538 88.224 84.8684 86.7297 88.3829 85.5053L72.6379 75.7199C72.6379 75.7199 56.6814 81.8863 58.5943 91.6764Z" fill="white" stroke="#263238" stroke-width="1.25668" stroke-miterlimit="10" stroke-linecap="round"/>
<path d="M185.502 76.5448C193.258 76.5448 199.546 70.2568 199.546 62.5003C199.546 54.7437 193.258 48.4557 185.502 48.4557C177.745 48.4557 171.457 54.7437 171.457 62.5003C171.457 70.2568 177.745 76.5448 185.502 76.5448Z" fill="white" stroke="#263238" stroke-width="0.964609" stroke-linecap="round" stroke-linejoin="round"/>
<path d="M197.94 65.5601C199.63 58.6898 195.43 51.7502 188.56 50.0601C181.69 48.3701 174.75 52.5695 173.06 59.4399C171.37 66.3102 175.57 73.2498 182.44 74.9399C189.31 76.6299 196.25 72.4305 197.94 65.5601Z" fill="white" stroke="#263238" stroke-width="0.964609" stroke-linecap="round" stroke-linejoin="round"/>
<path d="M187.479 66.9272L185.502 62.5006V52.2044" fill="white"/>
<path d="M187.479 66.9272L185.502 62.5006V52.2044" stroke="#263238" stroke-width="0.964609" stroke-linecap="round" stroke-linejoin="round"/>
<path d="M186.281 62.5013C186.281 62.6554 186.235 62.806 186.15 62.9342C186.064 63.0623 185.943 63.1622 185.8 63.2212C185.658 63.2802 185.501 63.2956 185.35 63.2655C185.199 63.2355 185.06 63.1612 184.951 63.0523C184.842 62.9433 184.768 62.8044 184.738 62.6533C184.708 62.5021 184.723 62.3454 184.782 62.203C184.841 62.0607 184.941 61.939 185.069 61.8533C185.197 61.7677 185.348 61.722 185.502 61.722C185.709 61.722 185.907 61.8041 186.053 61.9502C186.199 62.0964 186.281 62.2946 186.281 62.5013Z" fill="#263238" stroke="#263238" stroke-width="0.964609" stroke-linecap="round" stroke-linejoin="round"/>
<path d="M117.368 223.643C146.798 223.643 170.656 220.725 170.656 217.124C170.656 213.524 146.798 210.605 117.368 210.605C87.9372 210.605 64.0791 213.524 64.0791 217.124C64.0791 220.725 87.9372 223.643 117.368 223.643Z" fill="#6787E7"/>
<path opacity="0.5" d="M117.368 223.643C146.798 223.643 170.656 220.725 170.656 217.124C170.656 213.524 146.798 210.605 117.368 210.605C87.9372 210.605 64.0791 213.524 64.0791 217.124C64.0791 220.725 87.9372 223.643 117.368 223.643Z" fill="white"/>
<path d="M86.0094 208.003L84.3268 210.127C84.3268 210.127 79.2743 212.101 78.3249 212.98C77.3755 213.859 75.4673 217.591 75.4673 217.591L76.2757 218.691C76.2757 218.691 79.6409 218.907 81.6901 218.836C83.7393 218.766 86.3008 217.957 86.8883 217.591C87.4758 217.224 89.3746 214.517 89.7412 214.08C90.1078 213.643 90.9115 213.859 91.9361 213.347C92.9607 212.834 92.815 208.806 92.815 208.806L86.0094 208.003Z" fill="#263238" stroke="#263238" stroke-width="1.25668" stroke-miterlimit="10" stroke-linecap="round"/>
<path d="M89.3833 208.44C89.3833 208.44 89.3833 208.576 89.4491 208.769C89.5619 209.267 89.8016 210.179 90.1165 210.273C90.5536 210.419 92.8237 208.807 92.8237 208.807" fill="white"/>
<path d="M89.3833 208.44C89.3833 208.44 89.3833 208.576 89.4491 208.769C89.5619 209.267 89.8016 210.179 90.1165 210.273C90.5536 210.419 92.8237 208.807 92.8237 208.807" stroke="#263238" stroke-width="1.25668" stroke-miterlimit="10" stroke-linecap="round"/>
<path d="M150.22 208.003L151.908 210.127C151.908 210.127 156.956 212.101 157.91 212.98C158.864 213.859 160.763 217.591 160.763 217.591L159.959 218.691C159.959 218.691 156.589 218.907 154.54 218.836C152.491 218.766 149.929 217.957 149.346 217.61C148.763 217.262 146.855 214.536 146.489 214.099C146.122 213.662 145.318 213.878 144.294 213.365C143.269 212.853 143.415 208.825 143.415 208.825L150.22 208.003Z" fill="#263238" stroke="#263238" stroke-width="1.25668" stroke-miterlimit="10" stroke-linecap="round"/>
<path d="M146.854 208.44C146.854 208.44 146.854 208.576 146.789 208.769C146.681 209.267 146.436 210.179 146.121 210.273C145.684 210.419 143.414 208.807 143.414 208.807" fill="white"/>
<path d="M146.854 208.44C146.854 208.44 146.854 208.576 146.789 208.769C146.681 209.267 146.436 210.179 146.121 210.273C145.684 210.419 143.414 208.807 143.414 208.807" stroke="#263238" stroke-width="1.25668" stroke-miterlimit="10" stroke-linecap="round"/>
<path d="M150.536 208.727L135.083 141.888L132.032 124.475L118.12 124.658L104.208 124.475L101.163 141.888L85.7046 208.727L92.8862 209.38L118.12 148.473L143.355 209.38L150.536 208.727Z" fill="#F4BC54" stroke="#263238" stroke-width="1.25668" stroke-miterlimit="10" stroke-linecap="round"/>
<path d="M114.283 142.246L115.026 143.374" stroke="#858585" stroke-width="1.25668" stroke-miterlimit="10" stroke-linecap="round"/>
<path d="M89.9145 203.076L89.1108 205.657" stroke="#858585" stroke-width="1.25668" stroke-miterlimit="10" stroke-linecap="round"/>
<path d="M107.7 145.997L91.0386 199.473" stroke="#858585" stroke-width="1.25668" stroke-miterlimit="10" stroke-linecap="round"/>
<path d="M146.832 202.63L147.274 204.157" stroke="#858585" stroke-width="1.25668" stroke-miterlimit="10" stroke-linecap="round"/>
<path d="M136.399 166.29L146.358 200.967" stroke="#858585" stroke-width="1.25668" stroke-miterlimit="10" stroke-linecap="round"/>
<path d="M129.883 143.598L135.951 164.739" stroke="#858585" stroke-width="1.25668" stroke-miterlimit="10" stroke-linecap="round"/>
<path d="M107.822 132.478L113.03 140.346" stroke="#858585" stroke-width="1.25668" stroke-miterlimit="10" stroke-linecap="round"/>
<path d="M125.432 136.675C125.217 136.983 125.043 137.318 124.915 137.671" stroke="#858585" stroke-width="1.25668" stroke-miterlimit="10" stroke-linecap="round"/>
<path d="M129.776 130.132C129.776 130.132 127.831 132.952 126.402 135.147" stroke="#858585" stroke-width="1.25668" stroke-miterlimit="10" stroke-linecap="round"/>
<path d="M76.8641 27.6809L76.7639 27.7214C76.256 27.9264 76.0104 28.5043 76.2154 29.0122L77.2392 31.5487C77.4442 32.0566 78.0221 32.3022 78.53 32.0972L78.6303 32.0567C79.1382 31.8517 79.3837 31.2738 79.1787 30.7659L78.1549 28.2293C77.9499 27.7215 77.372 27.4759 76.8641 27.6809Z" fill="white" stroke="#263238" stroke-width="1.25668" stroke-miterlimit="10" stroke-linecap="round"/>
<path d="M74.9715 28.9625L74.8713 29.0029C74.3634 29.2079 74.1178 29.7858 74.3228 30.2937L75.3467 32.8303C75.5516 33.3382 76.1295 33.5837 76.6374 33.3787L76.7377 33.3383C77.2456 33.1333 77.4911 32.5554 77.2861 32.0475L76.2623 29.5109C76.0573 29.003 75.4794 28.7575 74.9715 28.9625Z" fill="white" stroke="#263238" stroke-width="1.25668" stroke-miterlimit="10" stroke-linecap="round"/>
<path d="M73.2616 30.4735L73.1613 30.514C72.6534 30.719 72.4079 31.2969 72.6129 31.8048L73.6367 34.3413C73.8417 34.8492 74.4196 35.0948 74.9275 34.8898L75.0277 34.8493C75.5356 34.6443 75.7812 34.0664 75.5762 33.5585L74.5524 31.022C74.3474 30.5141 73.7695 30.2685 73.2616 30.4735Z" fill="white" stroke="#263238" stroke-width="1.25668" stroke-miterlimit="10" stroke-linecap="round"/>
<path d="M71.7797 32.0297L71.6794 32.0702C71.1715 32.2751 70.9259 32.8529 71.1308 33.3609L71.8851 35.2307C72.09 35.7387 72.6679 35.9843 73.1758 35.7794L73.2761 35.739C73.784 35.5341 74.0296 34.9562 73.8247 34.4483L73.0704 32.5784C72.8655 32.0705 72.2876 31.8248 71.7797 32.0297Z" fill="white" stroke="#263238" stroke-width="1.25668" stroke-miterlimit="10" stroke-linecap="round"/>
<path d="M157.764 30.4793L153.807 39.7148L129.569 79.6178L125.959 81.9255L118.209 82.2169L110.449 81.9255L106.825 79.6178L82.5781 39.7148L78.6207 30.4793L72.5107 35.7574C72.5107 35.7574 75.3307 40.3728 75.9699 40.7065C76.6091 41.0402 79.2599 42.0225 79.2599 42.0225L89.8114 75.9894L102.342 104.659L104.081 118.092C104.081 118.092 102.285 123.342 103.183 124.672C104.414 126.514 108.851 127.304 110.802 127.962C115.245 129.476 120.045 129.587 124.554 128.282C127.148 127.558 131.533 127.13 133.164 124.691C134.062 123.342 132.262 118.111 132.262 118.111L134.001 104.678L146.536 76.0082L157.087 42.0413C157.087 42.0413 159.724 41.0543 160.377 40.7253C161.031 40.3963 163.841 35.7762 163.841 35.7762L157.764 30.4793Z" fill="white" stroke="#263238" stroke-width="1.25668" stroke-miterlimit="10" stroke-linecap="round"/>
<path d="M157.749 32.0648L157.849 32.1053C158.357 32.3102 158.935 32.0645 159.14 31.5566L160.163 29.0199C160.368 28.5119 160.122 27.9341 159.614 27.7292L159.514 27.6887C159.006 27.4838 158.428 27.7295 158.223 28.2374L157.2 30.7741C156.995 31.2821 157.241 31.8599 157.749 32.0648Z" fill="white" stroke="#263238" stroke-width="1.25668" stroke-miterlimit="10" stroke-linecap="round"/>
<path d="M159.634 33.3446L159.734 33.385C160.242 33.5899 160.82 33.3443 161.025 32.8364L162.048 30.2996C162.253 29.7917 162.007 29.2138 161.5 29.0089L161.399 28.9685C160.891 28.7636 160.313 29.0092 160.109 29.5171L159.085 32.0539C158.88 32.5618 159.126 33.1397 159.634 33.3446Z" fill="white" stroke="#263238" stroke-width="1.25668" stroke-miterlimit="10" stroke-linecap="round"/>
<path d="M161.348 34.8583L161.448 34.8988C161.956 35.1037 162.534 34.858 162.739 34.3501L163.763 31.8134C163.967 31.3054 163.722 30.7276 163.214 30.5227L163.114 30.4822C162.606 30.2773 162.028 30.523 161.823 31.0309L160.8 33.5676C160.595 34.0756 160.84 34.6534 161.348 34.8583Z" fill="white" stroke="#263238" stroke-width="1.25668" stroke-miterlimit="10" stroke-linecap="round"/>
<path d="M163.102 35.7403L163.202 35.7808C163.71 35.9857 164.288 35.74 164.493 35.2321L165.247 33.3622C165.452 32.8543 165.206 32.2764 164.698 32.0715L164.598 32.0311C164.09 31.8262 163.512 32.0718 163.307 32.5797L162.553 34.4496C162.348 34.9575 162.594 35.5354 163.102 35.7403Z" fill="white" stroke="#263238" stroke-width="1.25668" stroke-miterlimit="10" stroke-linecap="round"/>
<path d="M146.555 75.9892L152.75 56.033L145.653 53.1378L129.569 79.6176L125.96 81.9253L118.209 82.2167L110.45 81.9253L106.826 79.6176L92.9799 56.8273L85.2061 61.0573L89.8403 75.9751L102.37 104.645L104.109 118.078C104.109 118.078 102.314 123.328 103.212 124.658C104.246 126.204 107.761 126.89 109.388 127.445C114.482 129.193 118.722 130.077 123.958 128.446C126.27 127.722 131.745 126.824 133.193 124.658C134.091 123.309 132.291 118.078 132.291 118.078L134.03 104.645L146.555 75.9892Z" fill="white" stroke="#263238" stroke-width="1.25668" stroke-miterlimit="10" stroke-linecap="round"/>
<path d="M105.397 88.8054L105.181 90.3" stroke="#263238" stroke-width="1.25668" stroke-miterlimit="10" stroke-linecap="round"/>
<path d="M106.515 81.1358L105.617 87.2834" stroke="#263238" stroke-width="1.25668" stroke-miterlimit="10" stroke-linecap="round"/>
<path d="M134.832 93.1821L134.968 91.2551" stroke="#263238" stroke-width="1.25668" stroke-miterlimit="10" stroke-linecap="round"/>
<path d="M134.02 104.682L134.687 95.2303" stroke="#263238" stroke-width="1.25668" stroke-miterlimit="10" stroke-linecap="round"/>
<path d="M102.36 104.683L102.313 94.8838" stroke="#263238" stroke-width="1.25668" stroke-miterlimit="10" stroke-linecap="round"/>
<path d="M108.624 82.4183C108.624 82.4183 107.28 92.2084 108.234 98.1304" stroke="#263238" stroke-width="1.25668" stroke-miterlimit="10" stroke-linecap="round"/>
<path d="M125.799 83.2373C126.63 86.8131 127.142 90.4559 127.326 94.1225" stroke="#263238" stroke-width="1.25668" stroke-miterlimit="10" stroke-linecap="round"/>
<path d="M141.61 75.9835C141.654 76.5593 141.731 77.1321 141.84 77.699" stroke="#263238" stroke-width="1.25668" stroke-miterlimit="10" stroke-linecap="round"/>
<path d="M143.175 58.984C143.175 58.984 141.61 67.303 141.54 73.4976" stroke="#263238" stroke-width="1.25668" stroke-miterlimit="10" stroke-linecap="round"/>
<path d="M141.078 63.3794C141.078 63.3794 140.138 70.4294 140.138 73.4985" stroke="#263238" stroke-width="1.25668" stroke-miterlimit="10" stroke-linecap="round"/>
<path d="M96.5889 63.7592C96.5889 63.7592 97.5289 74.2637 98.3044 80.181" stroke="#263238" stroke-width="1.25668" stroke-miterlimit="10" stroke-linecap="round"/>
<path d="M99.6957 84.1903C99.6957 85.0269 99.6957 85.8588 99.644 86.6719" stroke="#263238" stroke-width="1.25668" stroke-miterlimit="10" stroke-linecap="round"/>
<path d="M98.3042 69.6828C99.051 73.9775 99.508 78.3176 99.6719 82.6736" stroke="#263238" stroke-width="1.25668" stroke-miterlimit="10" stroke-linecap="round"/>
<path d="M92.4117 55.5289L84.6003 59.7918C84.4096 59.8991 84.2599 60.0667 84.1748 60.2684C84.0897 60.47 84.0741 60.6942 84.1303 60.9057L85.0985 64.567C85.1372 64.7095 85.2074 64.8414 85.3039 64.9532C85.4004 65.0649 85.5207 65.1536 85.656 65.2127C85.7913 65.2718 85.9381 65.2997 86.0857 65.2945C86.2332 65.2894 86.3777 65.2511 86.5085 65.1827L95.1095 60.6143C95.3376 60.4934 95.5087 60.2871 95.5853 60.0406C95.6619 59.794 95.6378 59.5272 95.5184 59.2983L93.7559 55.9284C93.6943 55.8135 93.6106 55.7119 93.5095 55.6295C93.4085 55.5471 93.2921 55.4856 93.1671 55.4484C93.0421 55.4113 92.911 55.3993 92.7814 55.4131C92.6517 55.4269 92.5261 55.4663 92.4117 55.5289Z" fill="white" stroke="#263238" stroke-width="1.25668" stroke-miterlimit="10" stroke-linecap="round"/>
<path d="M145.726 50.9296L153.993 54.2807C154.197 54.3645 154.368 54.5141 154.477 54.7058C154.586 54.8974 154.627 55.1201 154.595 55.3382L154.045 59.0982C154.024 59.245 153.969 59.385 153.886 59.5077C153.803 59.6304 153.693 59.7327 153.564 59.8069C153.436 59.881 153.292 59.9251 153.145 59.9359C152.997 59.9467 152.848 59.9238 152.71 59.869L143.653 56.297C143.412 56.2025 143.219 56.0167 143.114 55.7799C143.009 55.5432 143.002 55.2747 143.094 55.0327L144.438 51.503C144.484 51.3796 144.553 51.2666 144.643 51.1705C144.733 51.0745 144.841 50.9975 144.961 50.944C145.081 50.8905 145.211 50.8617 145.342 50.8592C145.474 50.8568 145.604 50.8807 145.726 50.9296Z" fill="white" stroke="#263238" stroke-width="1.25668" stroke-miterlimit="10" stroke-linecap="round"/>
<path d="M81.9165 38.8924L80.4266 31.4382C80.3824 31.2279 80.2619 31.0414 80.0883 30.9147C79.9148 30.788 79.7004 30.73 79.4866 30.752C78.3633 30.8977 76.3658 31.1421 75.6702 31.1421C74.6832 31.1421 74.3495 33.1208 75.1767 33.1208C75.9616 33.1872 76.7361 33.3449 77.4844 33.5908C77.4844 33.5908 76.3282 37.7127 78.9696 39.1979" fill="white"/>
<path d="M81.9165 38.8924L80.4266 31.4382C80.3824 31.2279 80.2619 31.0414 80.0883 30.9147C79.9148 30.788 79.7004 30.73 79.4866 30.752C78.3633 30.8977 76.3658 31.1421 75.6702 31.1421C74.6832 31.1421 74.3495 33.1208 75.1767 33.1208C75.9616 33.1872 76.7361 33.3449 77.4844 33.5908C77.4844 33.5908 76.3282 37.7127 78.9696 39.1979" stroke="#263238" stroke-width="1.25668" stroke-miterlimit="10" stroke-linecap="round"/>
<path d="M154.469 38.8928L155.959 31.4386C156.002 31.2278 156.123 31.0407 156.296 30.9138C156.47 30.7869 156.685 30.7294 156.899 30.7524C158.027 30.8981 160.025 31.1425 160.72 31.1425C161.707 31.1425 162.036 33.1212 161.214 33.1212C160.429 33.187 159.654 33.3448 158.906 33.5912C158.906 33.5912 160.058 37.7131 157.421 39.1983" fill="white"/>
<path d="M154.469 38.8928L155.959 31.4386C156.002 31.2278 156.123 31.0407 156.296 30.9138C156.47 30.7869 156.685 30.7294 156.899 30.7524C158.027 30.8981 160.025 31.1425 160.72 31.1425C161.707 31.1425 162.036 33.1212 161.214 33.1212C160.429 33.187 159.654 33.3448 158.906 33.5912C158.906 33.5912 160.058 37.7131 157.421 39.1983" stroke="#263238" stroke-width="1.25668" stroke-miterlimit="10" stroke-linecap="round"/>
<path d="M114.294 89.4879L116.841 95.0339L114.294 123.215L118.491 128.009L122.091 122.313L118.641 95.3347L121.79 88.7359L118.045 85.8877L114.294 89.4879Z" fill="#4169E1" stroke="#263238" stroke-width="1.25668" stroke-miterlimit="10" stroke-linecap="round"/>
<path d="M111.676 80.1055C111.676 80.1055 110.205 79.7859 109.575 80.7353C109.217 81.27 108.902 81.8327 108.635 82.4179L111.37 95.4557L117.88 89.7687L124.295 96.3957C124.295 96.3957 125.559 89.8721 125.559 85.1439C125.559 80.4157 122.199 79.2642 121.353 78.9587C120.507 78.6532 111.676 80.1055 111.676 80.1055Z" fill="white" stroke="#263238" stroke-width="1.25668" stroke-miterlimit="10" stroke-linecap="round"/>
<path d="M110.204 77.0798L111.144 83.3872C111.144 83.3872 114.194 89.5912 116.718 89.9061C119.242 90.221 121.24 88.3316 122.293 85.4928L123.345 82.6728L124.079 76.8448L110.204 77.0798Z" fill="white" stroke="#263238" stroke-width="1.25668" stroke-miterlimit="10" stroke-linecap="round"/>
<path d="M124.079 77.8788C124.079 77.8788 118.66 83.2979 116.939 84.0358C115.219 84.7737 110.411 78.1279 110.411 78.1279L124.079 77.8788Z" fill="#263238"/>
<path d="M108.649 71.9085C107.788 71.1545 107.093 70.2301 106.608 69.1938C106.122 68.1575 105.857 67.0318 105.829 65.8878C105.73 61.9774 106.632 58.7673 107.037 59.2702C107.313 59.6647 107.517 60.1057 107.638 60.5721C107.638 60.5721 107.836 55.2564 110.045 53.7524C112.254 52.2484 111.948 55.858 111.948 55.858C111.948 55.858 117.767 50.641 121.781 51.3413C125.794 52.0416 123.285 53.3482 123.285 53.3482C123.285 53.3482 129.103 55.5572 130.109 57.8649C131.115 60.1726 125.996 61.9774 125.996 61.9774C125.996 61.9774 128.816 62.6777 128.403 63.3874C127.989 64.0971 126.805 64.3885 126.805 64.3885C126.805 64.3885 126.607 69.7042 126.006 70.2071C125.404 70.71 125.099 71.5137 124.3 69.9063C123.501 68.2989 122.199 64.4684 119.285 63.9702C116.371 63.472 111.257 63.2652 110.557 65.0747C109.857 66.8842 111.055 71.1847 110.153 72.0965C110.059 72.2167 109.935 72.3105 109.794 72.3686C109.653 72.4268 109.499 72.4474 109.348 72.4285C109.196 72.4096 109.052 72.3517 108.93 72.2606C108.807 72.1695 108.71 72.0482 108.649 71.9085Z" fill="#263238" stroke="#263238" stroke-width="1.25668" stroke-miterlimit="10" stroke-linecap="round"/>
<path d="M119.008 59.5293C119.008 59.5293 114.81 58.7867 112.343 60.2672C109.875 61.7477 108.762 64.7134 108.762 65.8273V70.6401C108.762 70.6401 106.045 68.6661 105.547 70.5179C105.049 72.3697 105.674 75.0863 106.661 75.3354C106.985 75.3938 107.318 75.3821 107.637 75.301C107.957 75.22 108.255 75.0714 108.512 74.8654C108.512 74.8654 109.006 77.8264 111.229 78.8181C113.452 79.8098 116.493 81.295 117.729 81.1681C118.965 81.0412 123.839 77.9486 124.309 77.4504C124.779 76.9522 125.301 74.2403 125.301 74.2403C125.301 74.2403 126.372 75.2743 126.936 74.9218C128.506 73.9395 128.755 72.0172 128.755 70.5367C128.755 69.0562 125.794 69.6719 125.794 69.6719C125.794 69.6719 124.558 62.6219 123.444 61.0286C122.33 59.4353 119.008 59.5293 119.008 59.5293Z" fill="white" stroke="#263238" stroke-width="1.25668" stroke-miterlimit="10" stroke-linecap="round"/>
<path d="M116.559 61.3816C116.559 61.3816 117.795 58.7872 119.027 59.5298C120.258 60.2724 119.525 63.2334 119.525 63.2334" stroke="#263238" stroke-width="1.25668" stroke-miterlimit="10" stroke-linecap="round"/>
<path d="M112.837 65.5781C112.837 65.5781 115.187 67.0586 117.034 67.0586C118.881 67.0586 121.109 65.8272 121.109 65.8272" stroke="#263238" stroke-width="1.25668" stroke-miterlimit="10" stroke-linecap="round"/>
<path d="M113.649 65.4096C113.649 65.4096 112.535 65.0806 112.14 65.9971" stroke="#263238" stroke-width="1.25668" stroke-miterlimit="10" stroke-linecap="round"/>
<path d="M120.319 65.4746C120.829 65.5854 121.276 65.8905 121.564 66.3253" stroke="#263238" stroke-width="1.25668" stroke-miterlimit="10" stroke-linecap="round"/>
<path d="M113.912 66.3916C113.912 66.3916 115.021 72.0316 117.314 72.2196C119.608 72.4076 119.998 66.5232 119.998 66.5232C119.028 66.7934 118.035 66.9728 117.032 67.0589C116.135 67.0589 113.846 66.1189 113.846 66.1189L113.912 66.3916Z" fill="#263238" stroke="#263238" stroke-width="1.25668" stroke-miterlimit="10" stroke-linecap="round"/>
<path d="M113.846 66.1279L113.912 66.3911C113.912 66.3911 113.987 66.7718 114.137 67.3311C115.966 68.1319 118.036 68.1792 119.899 67.4627C119.975 66.9034 119.998 66.5227 119.998 66.5227C119.028 66.793 118.035 66.9724 117.032 67.0585C116.135 67.0444 113.846 66.1279 113.846 66.1279Z" fill="white" stroke="#263238" stroke-width="1.25668" stroke-miterlimit="10" stroke-linecap="round"/>
<path d="M118.942 71.0068C117.816 71.1497 116.673 71.0988 115.563 70.8564C116.033 71.6037 116.625 72.1583 117.316 72.2194C118.007 72.2805 118.552 71.7588 118.942 71.0068Z" fill="white" stroke="#263238" stroke-width="1.25668" stroke-miterlimit="10" stroke-linecap="round"/>
<path d="M111.948 62.6604C111.948 62.6604 113.057 61.2833 114.566 61.6123" stroke="#263238" stroke-width="1.25668" stroke-miterlimit="10" stroke-linecap="round"/>
<path d="M119.999 61.6766C120.442 61.5905 120.899 61.5982 121.339 61.6994C121.78 61.8006 122.194 61.993 122.555 62.2641" stroke="#263238" stroke-width="1.25668" stroke-miterlimit="10" stroke-linecap="round"/>
<path d="M114.303 60.1027C114.303 60.1027 112.338 60.2343 111.553 61.5456" stroke="#263238" stroke-width="2.51337" stroke-miterlimit="10" stroke-linecap="round"/>
<path d="M120.46 60.037C120.46 60.037 122.34 60.1028 123.28 61.6115" stroke="#263238" stroke-width="2.51337" stroke-miterlimit="10" stroke-linecap="round"/>
<path d="M139.83 17.2429H99.8795C99.2171 17.2423 98.561 17.3723 97.9489 17.6255C97.3368 17.8787 96.7806 18.2502 96.3121 18.7186C95.8437 19.187 95.4723 19.7432 95.2191 20.3553C94.9658 20.9675 94.8358 21.6235 94.8364 22.286V34.5295C94.8364 35.1915 94.9669 35.8471 95.2204 36.4587C95.4739 37.0703 95.8454 37.6259 96.3138 38.0938C96.7822 38.5618 97.3381 38.9328 97.95 39.1857C98.5618 39.4386 99.2175 39.5685 99.8795 39.5679H114.957L119.812 47.3041L123.647 39.5679H139.844C140.506 39.5685 141.161 39.4386 141.773 39.1857C142.385 38.9328 142.941 38.5618 143.409 38.0938C143.878 37.6259 144.249 37.0703 144.503 36.4587C144.756 35.8471 144.887 35.1915 144.887 34.5295V22.3095C144.89 21.6439 144.762 20.9841 144.51 20.3683C144.257 19.7526 143.885 19.193 143.414 18.7219C142.944 18.2508 142.385 17.8775 141.77 17.6237C141.155 17.3698 140.495 17.2404 139.83 17.2429Z" stroke="white" stroke-width="1.25668" stroke-miterlimit="10" stroke-linecap="round"/>
<path d="M102.064 25.9217V31.9997H100.996V25.9217H102.064ZM102.304 24.0137C102.304 24.1177 102.282 24.2157 102.238 24.3077C102.198 24.3957 102.142 24.4757 102.07 24.5477C102.002 24.6157 101.922 24.6697 101.83 24.7097C101.738 24.7497 101.64 24.7697 101.536 24.7697C101.432 24.7697 101.334 24.7497 101.242 24.7097C101.154 24.6697 101.074 24.6157 101.002 24.5477C100.934 24.4757 100.88 24.3957 100.84 24.3077C100.8 24.2157 100.78 24.1177 100.78 24.0137C100.78 23.9097 100.8 23.8117 100.84 23.7197C100.88 23.6237 100.934 23.5417 101.002 23.4737C101.074 23.4017 101.154 23.3457 101.242 23.3057C101.334 23.2657 101.432 23.2457 101.536 23.2457C101.64 23.2457 101.738 23.2657 101.83 23.3057C101.922 23.3457 102.002 23.4017 102.07 23.4737C102.142 23.5417 102.198 23.6237 102.238 23.7197C102.282 23.8117 102.304 23.9097 102.304 24.0137ZM105.955 25.9217H106.795C106.883 25.9217 106.955 25.9437 107.011 25.9877C107.067 26.0317 107.105 26.0837 107.125 26.1437L108.289 30.0557C108.321 30.1997 108.351 30.3397 108.379 30.4757C108.407 30.6077 108.431 30.7417 108.451 30.8777C108.483 30.7417 108.519 30.6077 108.559 30.4757C108.599 30.3397 108.641 30.1997 108.685 30.0557L109.969 26.1197C109.989 26.0597 110.023 26.0097 110.071 25.9697C110.123 25.9297 110.187 25.9097 110.263 25.9097H110.725C110.805 25.9097 110.871 25.9297 110.923 25.9697C110.975 26.0097 111.011 26.0597 111.031 26.1197L112.285 30.0557C112.329 30.1957 112.367 30.3337 112.399 30.4697C112.435 30.6057 112.469 30.7397 112.501 30.8717C112.521 30.7397 112.547 30.6017 112.579 30.4577C112.611 30.3137 112.645 30.1797 112.681 30.0557L113.869 26.1437C113.889 26.0797 113.927 26.0277 113.983 25.9877C114.039 25.9437 114.105 25.9217 114.181 25.9217H114.985L113.017 31.9997H112.171C112.067 31.9997 111.995 31.9317 111.955 31.7957L110.611 27.6737C110.579 27.5817 110.553 27.4897 110.533 27.3977C110.513 27.3017 110.493 27.2077 110.473 27.1157C110.453 27.2077 110.433 27.3017 110.413 27.3977C110.393 27.4937 110.367 27.5877 110.335 27.6797L108.973 31.7957C108.929 31.9317 108.847 31.9997 108.727 31.9997H107.923L105.955 25.9217ZM118.635 25.8257C119.079 25.8257 119.479 25.8997 119.835 26.0477C120.195 26.1957 120.499 26.4057 120.747 26.6777C120.999 26.9497 121.191 27.2797 121.323 27.6677C121.459 28.0517 121.527 28.4817 121.527 28.9577C121.527 29.4377 121.459 29.8697 121.323 30.2537C121.191 30.6377 120.999 30.9657 120.747 31.2377C120.499 31.5097 120.195 31.7197 119.835 31.8677C119.479 32.0117 119.079 32.0837 118.635 32.0837C118.191 32.0837 117.789 32.0117 117.429 31.8677C117.073 31.7197 116.769 31.5097 116.517 31.2377C116.265 30.9657 116.071 30.6377 115.935 30.2537C115.799 29.8697 115.731 29.4377 115.731 28.9577C115.731 28.4817 115.799 28.0517 115.935 27.6677C116.071 27.2797 116.265 26.9497 116.517 26.6777C116.769 26.4057 117.073 26.1957 117.429 26.0477C117.789 25.8997 118.191 25.8257 118.635 25.8257ZM118.635 31.2497C119.235 31.2497 119.683 31.0497 119.979 30.6497C120.275 30.2457 120.423 29.6837 120.423 28.9637C120.423 28.2397 120.275 27.6757 119.979 27.2717C119.683 26.8677 119.235 26.6657 118.635 26.6657C118.331 26.6657 118.067 26.7177 117.843 26.8217C117.619 26.9257 117.431 27.0757 117.279 27.2717C117.131 27.4677 117.019 27.7097 116.943 27.9977C116.871 28.2817 116.835 28.6037 116.835 28.9637C116.835 29.3237 116.871 29.6457 116.943 29.9297C117.019 30.2137 117.131 30.4537 117.279 30.6497C117.431 30.8417 117.619 30.9897 117.843 31.0937C118.067 31.1977 118.331 31.2497 118.635 31.2497ZM123.083 31.9997V25.9217H123.719C123.871 25.9217 123.967 25.9957 124.007 26.1437L124.091 26.8037C124.355 26.5117 124.649 26.2757 124.973 26.0957C125.301 25.9157 125.679 25.8257 126.107 25.8257C126.439 25.8257 126.731 25.8817 126.983 25.9937C127.239 26.1017 127.451 26.2577 127.619 26.4617C127.791 26.6617 127.921 26.9037 128.009 27.1877C128.097 27.4717 128.141 27.7857 128.141 28.1297V31.9997H127.073V28.1297C127.073 27.6697 126.967 27.3137 126.755 27.0617C126.547 26.8057 126.227 26.6777 125.795 26.6777C125.479 26.6777 125.183 26.7537 124.907 26.9057C124.635 27.0577 124.383 27.2637 124.151 27.5237V31.9997H123.083ZM131.695 23.4017V26.8337C131.695 27.0137 131.691 27.1897 131.683 27.3617C131.679 27.5337 131.671 27.7077 131.659 27.8837C131.647 28.0557 131.631 28.2337 131.611 28.4177C131.595 28.5977 131.575 28.7917 131.551 28.9997H130.825C130.801 28.7917 130.779 28.5977 130.759 28.4177C130.743 28.2337 130.729 28.0557 130.717 27.8837C130.705 27.7077 130.695 27.5337 130.687 27.3617C130.683 27.1897 130.681 27.0137 130.681 26.8337V23.4017H131.695ZM130.423 31.3397C130.423 31.2357 130.441 31.1377 130.477 31.0457C130.517 30.9537 130.569 30.8737 130.633 30.8057C130.701 30.7377 130.781 30.6837 130.873 30.6437C130.965 30.6037 131.063 30.5837 131.167 30.5837C131.271 30.5837 131.369 30.6037 131.461 30.6437C131.553 30.6837 131.633 30.7377 131.701 30.8057C131.769 30.8737 131.821 30.9537 131.857 31.0457C131.897 31.1377 131.917 31.2357 131.917 31.3397C131.917 31.4477 131.897 31.5477 131.857 31.6397C131.821 31.7277 131.769 31.8057 131.701 31.8737C131.633 31.9417 131.553 31.9937 131.461 32.0297C131.369 32.0697 131.271 32.0897 131.167 32.0897C131.063 32.0897 130.965 32.0697 130.873 32.0297C130.781 31.9937 130.701 31.9417 130.633 31.8737C130.569 31.8057 130.517 31.7277 130.477 31.6397C130.441 31.5477 130.423 31.4477 130.423 31.3397ZM136.048 23.4017V26.8337C136.048 27.0137 136.044 27.1897 136.036 27.3617C136.032 27.5337 136.024 27.7077 136.012 27.8837C136 28.0557 135.984 28.2337 135.964 28.4177C135.948 28.5977 135.928 28.7917 135.904 28.9997H135.178C135.154 28.7917 135.132 28.5977 135.112 28.4177C135.096 28.2337 135.082 28.0557 135.07 27.8837C135.058 27.7077 135.048 27.5337 135.04 27.3617C135.036 27.1897 135.034 27.0137 135.034 26.8337V23.4017H136.048ZM134.776 31.3397C134.776 31.2357 134.794 31.1377 134.83 31.0457C134.87 30.9537 134.922 30.8737 134.986 30.8057C135.054 30.7377 135.134 30.6837 135.226 30.6437C135.318 30.6037 135.416 30.5837 135.52 30.5837C135.624 30.5837 135.722 30.6037 135.814 30.6437C135.906 30.6837 135.986 30.7377 136.054 30.8057C136.122 30.8737 136.174 30.9537 136.21 31.0457C136.25 31.1377 136.27 31.2357 136.27 31.3397C136.27 31.4477 136.25 31.5477 136.21 31.6397C136.174 31.7277 136.122 31.8057 136.054 31.8737C135.986 31.9417 135.906 31.9937 135.814 32.0297C135.722 32.0697 135.624 32.0897 135.52 32.0897C135.416 32.0897 135.318 32.0697 135.226 32.0297C135.134 31.9937 135.054 31.9417 134.986 31.8737C134.922 31.8057 134.87 31.7277 134.83 31.6397C134.794 31.5477 134.776 31.4477 134.776 31.3397ZM140.401 23.4017V26.8337C140.401 27.0137 140.397 27.1897 140.389 27.3617C140.385 27.5337 140.377 27.7077 140.365 27.8837C140.353 28.0557 140.337 28.2337 140.317 28.4177C140.301 28.5977 140.281 28.7917 140.257 28.9997H139.531C139.507 28.7917 139.485 28.5977 139.465 28.4177C139.449 28.2337 139.435 28.0557 139.423 27.8837C139.411 27.7077 139.401 27.5337 139.393 27.3617C139.389 27.1897 139.387 27.0137 139.387 26.8337V23.4017H140.401ZM139.129 31.3397C139.129 31.2357 139.147 31.1377 139.183 31.0457C139.223 30.9537 139.275 30.8737 139.339 30.8057C139.407 30.7377 139.487 30.6837 139.579 30.6437C139.671 30.6037 139.769 30.5837 139.873 30.5837C139.977 30.5837 140.075 30.6037 140.167 30.6437C140.259 30.6837 140.339 30.7377 140.407 30.8057C140.475 30.8737 140.527 30.9537 140.563 31.0457C140.603 31.1377 140.623 31.2357 140.623 31.3397C140.623 31.4477 140.603 31.5477 140.563 31.6397C140.527 31.7277 140.475 31.8057 140.407 31.8737C140.339 31.9417 140.259 31.9937 140.167 32.0297C140.075 32.0697 139.977 32.0897 139.873 32.0897C139.769 32.0897 139.671 32.0697 139.579 32.0297C139.487 31.9937 139.407 31.9417 139.339 31.8737C139.275 31.8057 139.223 31.7277 139.183 31.6397C139.147 31.5477 139.129 31.4477 139.129 31.3397Z" fill="white"/>
<path d="M225.97 210.156H11.9136" stroke="#263238" stroke-width="1.25668" stroke-miterlimit="10" stroke-linecap="round"/>
<g clip-path="url(#clip1_2775_7463)">
<path d="M70.2515 19.3099L56.7563 9.67596C56.6532 9.91893 54.1972 16.2386 51.3673 22.6147C51.1864 23.0216 51.0265 23.4204 50.8796 23.8075C50.8359 23.9232 50.7984 24.0355 50.7573 24.1502C50.6171 24.5375 50.4911 24.9298 50.3793 25.3263C50.3039 25.5974 50.2372 25.8642 50.1786 26.1263L50.115 26.4143C50.046 26.7584 49.9905 27.0969 49.954 27.4259L49.9518 27.4425C49.913 27.7937 49.8923 28.1462 49.8907 28.4999L49.8913 28.5327C49.8918 28.8432 49.909 29.1541 49.9425 29.4622L49.9614 29.6078C49.9956 29.8773 50.0437 30.1444 50.106 30.4091C50.1161 30.4514 50.1252 30.495 50.1364 30.5371C50.6885 32.5097 51.9461 34.2107 53.6703 35.3166C54.2947 35.7605 54.9641 36.1354 55.6685 36.4351C63.0109 31.9852 67.1832 25.9523 70.2515 19.3099Z" fill="#FCEA2B"/>
<path d="M70.2518 19.3098C66.4072 25.5724 63.6092 31.2651 54.9051 36.8441C58.352 38.302 62.9172 37.051 66.7875 33.3847C70.9766 29.4166 76.2256 24.2242 76.4248 24.0434L70.2518 19.3098Z" fill="#F1B31C"/>
<path d="M46.2055 39.6631L43.7495 37.9282L40.5366 42.4765L47.4901 47.3885L50.703 42.8402L46.2055 39.6631Z" fill="#FCEA2B"/>
<path d="M54.1142 45.2493L50.7031 42.8397L47.4902 47.388L50.9013 49.7976L54.1142 45.2493Z" fill="#F1B31C"/>
<path d="M59.3339 27.2934C60.7359 28.2837 62.6752 27.95 63.6656 26.5481C64.6559 25.1461 64.3223 23.2068 62.9203 22.2164C61.5183 21.2261 59.579 21.5598 58.5887 22.9617C57.5983 24.3637 57.932 26.303 59.3339 27.2934Z" fill="#F1B31C"/>
<path d="M49.7893 23.3079C49.7893 23.3079 49.9571 23.1781 48.1106 18.3854C47.2602 16.1836 46.394 13.4627 47.7581 11.5315C49.1223 9.60039 51.6355 9.40938 53.5647 10.7722L54.5242 11.45M65.9494 34.9964C65.9494 34.9964 66.1171 34.8667 71.2514 35.0052C73.6096 35.0699 76.5156 35.0137 77.8797 33.0826C78.1913 32.6367 78.4085 32.132 78.5183 31.5993C78.6281 31.0666 78.628 30.5171 78.5181 29.9844C78.4082 29.4517 78.1907 28.9471 77.8791 28.5013C77.5674 28.0556 77.1681 27.6781 76.7055 27.392L75.3379 26.4259M77.1119 23.9186C77.2122 23.9895 77.2215 24.1339 77.13 24.2149C76.6061 24.6791 74.607 26.5165 67.0007 33.7223C62.4325 38.0506 57.8743 39.2351 53.2207 35.9477C48.567 32.6604 48.1017 28.0509 50.6548 22.2982C54.4351 13.6959 56.3714 9.26742 56.3714 9.26742L77.1119 23.9186ZM43.5626 36.844L55.197 45.0627L51.0875 50.8802L39.4531 42.6616L43.5626 36.844Z" stroke="white" stroke-width="1.55397" stroke-linecap="round" stroke-linejoin="round"/>
<path d="M58.8859 27.9277C60.6384 29.1657 63.0625 28.7486 64.3005 26.9961C65.5384 25.2437 65.1213 22.8195 63.3689 21.5816C61.6164 20.3436 59.1923 20.7607 57.9543 22.5132C56.7164 24.2656 57.1335 26.6898 58.8859 27.9277Z" stroke="black" stroke-width="1.55397" stroke-linecap="round" stroke-linejoin="round"/>
<path d="M49.5832 41.0967L53.2207 35.9474" stroke="white" stroke-width="1.55397" stroke-linecap="round" stroke-linejoin="round"/>
</g>
</g>
<defs>
<clipPath id="clip0_2775_7463">
<rect width="235" height="235" fill="white"/>
</clipPath>
<clipPath id="clip1_2775_7463">
<rect width="55.943" height="55.943" fill="white" transform="translate(49.2773 -7) rotate(35.2376)"/>
</clipPath>
</defs>
</svg>
