<svg width="118" height="142" viewBox="0 0 118 142" fill="none" xmlns="http://www.w3.org/2000/svg">
<path d="M42.2094 59.3416C45.8344 71.1899 55.388 102.904 59.3166 114.645C60.3701 117.779 61.5041 121.038 63.8791 123.333C66.347 125.523 69.509 126.772 72.8077 126.86C76.0636 126.941 79.3178 126.641 82.5041 125.967C85.1827 125.502 88.0755 124.949 89.9327 122.958C91.1633 121.434 92.0003 119.631 92.3702 117.708C97.7273 97.806 105.281 79.172 105.281 59.4041C84.2809 55.3059 62.9773 54.047 42.2451 59.3238" fill="#4169E1"/>
<g opacity="0.3">
<path d="M69.8256 126.601C70.5948 126.225 71.2815 125.7 71.8456 125.056C72.4098 124.412 72.84 123.662 73.1113 122.851C73.6469 121.227 73.9622 119.54 74.0488 117.833C74.9416 108.636 75.7898 99.4041 75.2006 90.1541C74.8881 85.1809 74.0845 80.0648 71.4506 75.8237L69.8256 126.601Z" fill="black"/>
</g>
<g opacity="0.3">
<path d="M91.8081 97.1541C91.6474 89.5023 90.0224 85.547 89.9688 83.1988C89.9152 80.8505 89.5134 80.2077 90.9063 78.3416C92.2991 76.4755 94.5849 75.2166 96.6384 73.8773C98.692 72.538 100.754 70.9398 101.451 68.6184C101.737 67.7255 101.79 65.9398 100.871 65.547C100.272 65.3237 99.442 66.1362 98.8795 66.4398C96.1918 67.8594 93.6755 69.5819 91.3795 71.5738C89.5114 73.0122 88.0524 74.9145 87.1473 77.0916C85.8795 80.663 87.2634 84.6541 88.6384 88.2256" fill="black"/>
</g>
<path d="M29.5667 53.314C28.3109 53.0629 27.0103 53.1607 25.8061 53.5967C24.602 54.0327 23.5403 54.7903 22.7364 55.7873C21.3703 57.573 20.7721 60.0105 18.8167 61.073C17.3167 61.8855 15.5042 61.5908 13.7989 61.6801C12.1523 61.7738 10.5509 62.2533 9.12381 63.08C7.69676 63.9067 6.48413 65.0574 5.58381 66.4392C4.68348 67.8209 4.12069 69.3951 3.94091 71.0344C3.76113 72.6738 3.96939 74.3325 4.54885 75.8766C5.04885 77.198 5.83457 78.5551 5.44171 79.9301C4.98635 81.6087 3.08455 82.3498 1.81669 83.5016C-0.344023 85.5194 -0.540442 89.1444 1.03099 91.6444C1.87255 92.8639 3.00053 93.8581 4.31596 94.54C5.63139 95.2218 7.09407 95.5704 8.57564 95.5551C7.74528 98.7069 9.70064 102.18 12.6114 103.591C15.5221 105.002 19.6114 105.546 22.8703 105.546C27.6024 105.546 29.3257 103.993 31.1471 101.287C32.9685 98.5819 36.6739 61.198 38.29 58.3765" fill="#263238"/>
<path d="M6.85197 82.502C6.79564 82.3895 6.75653 82.2691 6.73591 82.1449C6.65038 81.7941 6.60543 81.4346 6.60197 81.0735C6.571 79.7273 6.95097 78.4036 7.69126 77.2788C8.18774 76.4865 8.85221 75.8129 9.6377 75.3056C10.5485 74.7616 11.5447 74.3752 12.5841 74.1628C13.6645 73.8949 14.8073 73.7342 15.9413 73.4217C17.1102 73.166 18.1893 72.6018 19.0663 71.7878C19.8819 70.9088 20.4596 69.8363 20.7449 68.6717C21.0276 67.5744 21.2099 66.4537 21.2895 65.3235C21.3346 63.3523 21.7717 61.4097 22.5752 59.6092C23.1915 58.3984 24.2209 57.4482 25.477 56.9306C25.8191 56.8087 26.1769 56.7365 26.5395 56.7163C26.6636 56.695 26.7904 56.695 26.9145 56.7163C26.4443 56.7793 25.983 56.8961 25.5395 57.0645C24.3655 57.6233 23.4197 58.5691 22.8609 59.7431C22.1234 61.5186 21.7325 63.4189 21.7091 65.3413C21.6382 66.5014 21.4589 67.6522 21.1734 68.7788C20.8772 70.0225 20.2617 71.1673 19.3877 72.1002C18.4537 72.9826 17.3008 73.5991 16.0484 73.886C14.8788 74.1895 13.727 74.3503 12.6734 74.5913C11.6754 74.7883 10.7163 75.1472 9.83413 75.6538C9.08986 76.113 8.44848 76.7209 7.9502 77.4395C7.23303 78.4973 6.82489 79.7341 6.77162 81.011C6.76269 81.9842 6.89662 82.4931 6.85197 82.502Z" fill="#455A64"/>
<path d="M28.4061 60.386C27.9 60.6909 27.45 61.0805 27.0757 61.5378C26.1606 62.8665 25.6915 64.4518 25.7365 66.0646C25.7365 67.0824 25.8168 68.2074 25.8525 69.4217C25.9463 70.7393 25.7918 72.0629 25.3972 73.3235C24.868 74.7075 23.9148 75.8888 22.6739 76.6985C21.3755 77.5525 19.9667 78.2253 18.4865 78.6985C17.0401 79.1635 15.6262 79.7243 14.2543 80.3771C13.0006 81.0102 11.9122 81.9275 11.0757 83.0557C9.73056 85.0346 8.9694 87.352 8.87929 89.7432C8.80049 91.3627 8.83629 92.9858 8.98643 94.6003C8.98643 95.1271 9.05786 95.5646 9.08464 95.9217C9.11012 96.0754 9.11012 96.2323 9.08464 96.386C9.03337 96.2388 9.00038 96.0859 8.98643 95.9307C8.94179 95.6271 8.87036 95.1896 8.79894 94.6182C8.57429 92.9975 8.48766 91.3606 8.54 89.7253C8.58705 87.2561 9.3467 84.8532 10.7275 82.8057C11.5907 81.6223 12.7231 80.6613 14.0311 80.0021C15.4209 79.3313 16.856 78.7584 18.3257 78.2878C19.7659 77.826 21.1381 77.1745 22.4061 76.3503C23.5771 75.5981 24.4803 74.4949 24.9865 73.1985C25.373 71.9912 25.5334 70.7229 25.4597 69.4574C25.4597 68.2521 25.3525 67.1271 25.3972 66.0824C25.3822 64.4118 25.9189 62.783 26.924 61.4485C27.213 61.0913 27.5638 60.7889 27.9597 60.5556C28.0982 60.475 28.249 60.4177 28.4061 60.386Z" fill="#455A64"/>
<path d="M37.558 48.0817C36.183 46.0907 32.8348 46.8764 30.7544 48.0817C29.8208 48.5558 29.0114 49.2421 28.3912 50.0857C27.7709 50.9292 27.3571 51.9064 27.183 52.9389C26.5414 55.3206 26.7693 57.8529 27.8258 60.0817C28.3724 61.1759 29.2279 62.0856 30.2865 62.6983C31.3451 63.3109 32.5602 63.5994 33.7812 63.5282C35.5257 63.2333 37.0877 62.2731 38.1383 60.8496C39.1739 59.4392 40.0203 57.8993 40.6562 56.2692" fill="#EF9B00"/>
<path d="M31.5671 54.4485C31.5671 54.511 31.2189 54.3503 30.6743 54.2611C29.9962 54.1316 29.2943 54.2283 28.6765 54.5364C28.0588 54.8445 27.5592 55.3469 27.2546 55.9664C27.0136 56.4485 26.9511 56.7878 26.8796 56.7789C26.8082 56.77 26.7636 56.4039 26.9511 55.8861C27.2192 55.1394 27.7621 54.5231 28.4689 54.1628C29.1804 53.8135 29.9994 53.7527 30.7546 53.9932C31.335 54.0914 31.6029 54.3593 31.5671 54.4485Z" fill="#263238"/>
<path d="M32.0403 51.2965C32.0403 51.359 31.7099 51.1804 31.201 51.109C30.5414 51.0202 29.8702 51.1289 29.2724 51.4215C28.6653 51.7334 28.1206 52.154 27.6653 52.6625C27.3081 53.0554 27.0938 53.3143 27.0403 53.2786C26.9867 53.2429 27.1028 52.9215 27.4063 52.4572C27.8221 51.8364 28.3869 51.3298 29.0492 50.984C29.7323 50.6415 30.5183 50.5651 31.2546 50.7697C31.8171 50.9661 32.0403 51.2518 32.0403 51.2965Z" fill="#263238"/>
<path d="M30.4151 48.3408C30.3615 48.2248 31.3079 47.9391 32.2722 48.5194C33.2365 49.0998 33.424 50.0551 33.299 50.073C33.174 50.0908 32.8258 49.3855 32.0312 48.9123C31.2365 48.4391 30.424 48.4748 30.4151 48.3408Z" fill="#263238"/>
<path d="M34.6559 46.7432C34.7452 46.6629 35.1292 47.0021 35.2006 47.6361C35.272 48.27 34.9774 48.6539 34.8613 48.6004C34.7452 48.5468 34.7988 48.1539 34.7363 47.7075C34.6738 47.2611 34.5488 46.8236 34.6559 46.7432Z" fill="#263238"/>
<path d="M27.8255 60.6987C27.7719 60.6987 27.6648 60.3326 27.7273 59.7166C27.8184 58.9058 28.1596 58.1436 28.7036 57.5356C29.2476 56.9276 29.9674 56.504 30.763 56.3237C31.3612 56.1898 31.7451 56.2523 31.7451 56.3237C31.7451 56.3951 31.388 56.4398 30.8523 56.6451C30.157 56.8939 29.5356 57.3139 29.0456 57.8663C28.5555 58.4188 28.2127 59.0858 28.0487 59.8059C27.9148 60.3148 27.8969 60.6987 27.8255 60.6987Z" fill="#263238"/>
<path d="M31.379 63.7255C31.379 63.7255 31.1022 63.4755 30.9326 62.9309C30.7203 62.2133 30.7389 61.4471 30.9856 60.7406C31.2323 60.0341 31.6948 59.4229 32.3076 58.9934C32.7808 58.6719 33.129 58.6005 33.1469 58.6541C32.4069 59.2557 31.8195 60.0235 31.4326 60.8952C31.2001 61.8223 31.1817 62.7902 31.379 63.7255Z" fill="#263238"/>
<path d="M60.7906 14.2697C57.9959 12.4839 57.3174 8.3768 58.8352 5.43929C60.3531 2.50179 63.5674 0.698215 66.8709 0.171429C69.2486 -0.187904 71.6775 0.0194548 73.9599 0.776618C76.2422 1.53378 78.3135 2.81934 80.0049 4.52858C81.7906 6.38572 83.2727 8.80537 85.7192 9.66251C87.871 10.4125 90.246 9.73394 92.5049 10.0286C94.0049 10.3051 95.4244 10.9126 96.6601 11.8069C97.8957 12.7012 98.9164 13.8597 99.6478 15.1982C101.091 17.8984 101.957 20.8689 102.192 23.9215C102.523 26.7072 102.746 29.7607 104.675 31.7965C106.603 33.8322 109.532 34.1893 111.871 35.6C114.036 37.0113 115.557 39.2188 116.105 41.7442C116.654 44.2696 116.184 46.9093 114.8 49.0911C113.907 50.4483 112.541 51.6804 112.434 53.3233C112.335 54.8143 113.326 56.1447 113.755 57.5733C114.916 61.2429 115.675 63.5376 111.826 63.7608C109.88 63.8679 105.407 59.1447 103.469 59.1179C100.532 59.1179 94.5853 58.4929 93.4781 60.0822C91.2995 63.1983 92.0942 74.8769 88.6835 73.1983C87.2549 72.5019 85.9067 71.3411 84.3174 71.4126C82.7281 71.484 81.487 72.8769 79.9245 73.1983C77.8888 73.6001 75.9513 72.0911 74.737 70.4036C73.5227 68.7161 72.6835 66.734 71.1656 65.3501C69.1299 63.5644 66.2727 63.0911 63.7013 62.2072C60.855 61.224 58.2527 59.6419 56.0697 57.5676C53.8868 55.4933 52.174 52.975 51.0469 50.1826C49.9198 47.3902 49.4045 44.3886 49.5359 41.3802C49.6673 38.3717 50.4422 35.4264 51.8084 32.7429" fill="#263238"/>
<path d="M62.683 11.4222C61.282 10.572 59.7191 10.0233 58.0941 9.81109C56.4691 9.59894 54.8177 9.728 53.2454 10.19C51.682 10.6879 50.2819 11.5986 49.1929 12.8259C48.1039 14.0532 47.3663 15.5517 47.0579 17.1633C46.7454 19.1633 47.1562 21.3776 46.0758 23.0829C44.5847 25.4222 41.049 25.5918 39.3169 27.7526C38.1204 29.2526 38.0669 31.324 38.2901 33.2615C38.5133 35.199 38.9597 37.1008 38.5669 38.9758C37.9776 41.7704 38.1829 44.5919 36.4686 46.8687C34.7544 49.1454 31.1115 50.949 31.2276 53.6901C31.3436 56.4312 33.2811 61.0294 35.8615 61.9847C37.9329 62.7526 39.8704 60.449 42.0579 60.199C45.4987 59.7726 48.9852 59.8931 52.3883 60.5562C54.4839 61.0784 56.61 61.4691 58.7544 61.7258C60.9244 61.9686 63.1033 61.3534 64.8258 60.0115C66.4419 58.5919 67.1205 55.9847 65.924 54.1901" fill="#263238"/>
<path d="M79.9241 73.1986C79.9241 73.1986 79.6919 67.52 79.6919 67.5825C79.6919 67.645 89.433 65.9397 91.4241 53.2254C92.4152 46.9039 92.0759 36.5378 91.5223 28.0736C91.0223 20.4485 85.9509 11.1093 78.3526 11.9218L54.6473 17.9753C53.5331 18.0938 52.5042 18.6269 51.7648 19.4688C51.0255 20.3107 50.6297 21.3998 50.6562 22.52L52.5758 65.77" fill="#FFBE9D"/>
<path d="M87.0939 35.8062C87.1083 36.2358 86.9521 36.6535 86.6592 36.9681C86.3664 37.2827 85.9609 37.4685 85.5314 37.4848C85.3204 37.5043 85.1076 37.4808 84.906 37.4155C84.7044 37.3503 84.5182 37.2447 84.3587 37.1052C84.1992 36.9658 84.0697 36.7953 83.9781 36.6042C83.8865 36.4131 83.8348 36.2054 83.826 35.9937C83.821 35.5679 83.9825 35.157 84.276 34.8484C84.5695 34.5399 84.9719 34.3582 85.3974 34.3419C85.6056 34.3237 85.8153 34.3473 86.0141 34.4115C86.2129 34.4757 86.3969 34.5791 86.555 34.7156C86.7132 34.8521 86.8424 35.019 86.9349 35.2063C87.0275 35.3937 87.0815 35.5976 87.0939 35.8062Z" fill="#263238"/>
<path d="M89.2811 33.4397C89.0847 33.6539 87.8436 32.7432 86.0936 32.7522C84.3436 32.7611 83.0579 33.645 82.8615 33.4218C82.6651 33.1986 82.9776 32.9486 83.5311 32.5289C84.2901 31.9991 85.1949 31.7183 86.1204 31.7254C87.0309 31.7176 87.9198 32.0024 88.6561 32.5379C89.1829 32.9664 89.3793 33.3504 89.2811 33.4397Z" fill="#263238"/>
<path d="M69.8529 35.8057C69.865 36.2361 69.7067 36.6539 69.4124 36.9682C69.1182 37.2825 68.7117 37.468 68.2815 37.4843C68.0741 37.5013 67.8653 37.4767 67.6675 37.412C67.4697 37.3472 67.2869 37.2436 67.1297 37.1072C66.9725 36.9708 66.8441 36.8043 66.7521 36.6176C66.6601 36.431 66.6064 36.2278 66.594 36.02C66.589 35.5942 66.7505 35.1833 67.044 34.8748C67.3375 34.5662 67.7399 34.3845 68.1654 34.3682C68.5796 34.3361 68.9896 34.4693 69.3058 34.7387C69.6221 35.0081 69.8188 35.3917 69.8529 35.8057Z" fill="#263238"/>
<path d="M72.0401 33.8053C71.8437 34.0195 70.6026 33.1088 68.8526 33.1178C67.1026 33.1267 65.8169 34.0106 65.6205 33.7874C65.424 33.5642 65.7365 33.3142 66.2901 32.8945C67.049 32.3648 67.9539 32.0839 68.8794 32.091C69.7898 32.0832 70.6787 32.368 71.4151 32.9035C71.9598 33.3231 72.1383 33.707 72.0401 33.8053Z" fill="#263238"/>
<path d="M78.4685 46.7973C79.3933 46.5094 80.3497 46.3355 81.3167 46.2794C81.7631 46.2794 82.2095 46.1455 82.2631 45.8419C82.2948 45.3783 82.1892 44.9156 81.9595 44.5116C81.531 43.4312 81.0667 42.2973 80.6292 41.1009C78.772 36.2526 77.4327 32.2616 77.6292 32.1723C77.8256 32.083 79.4863 35.9759 81.3345 40.8241C81.7809 42.0205 82.2274 43.1634 82.6113 44.2527C82.9006 44.8006 82.986 45.4334 82.8524 46.0384C82.7843 46.1948 82.6827 46.3343 82.5546 46.4469C82.4265 46.5596 82.2751 46.6426 82.1113 46.6901C81.8645 46.7609 81.6091 46.7969 81.3524 46.7973C80.3953 46.9243 79.4256 46.9243 78.4685 46.7973Z" fill="#263238"/>
<path d="M79.6915 67.5559C73.7076 67.6606 67.8125 66.0995 62.6647 63.047C62.6647 63.047 66.6379 73.3595 79.3522 72.1363L79.6915 67.5559Z" fill="#EB996E"/>
<path d="M77.7098 51.029C77.3758 50.6148 76.9435 50.2908 76.4523 50.0865C75.961 49.8822 75.4264 49.8041 74.8973 49.8594C74.5111 49.8976 74.1363 50.012 73.7945 50.1959C73.4528 50.3798 73.1508 50.6296 72.9062 50.9308C72.6721 51.225 72.5338 51.5838 72.5099 51.9589C72.4859 52.3341 72.5775 52.7075 72.7723 53.029C73.0558 53.3427 73.4265 53.5645 73.8368 53.6663C74.2472 53.7681 74.6786 53.7452 75.0758 53.6005C75.8998 53.3033 76.658 52.8484 77.308 52.2612C77.5071 52.1232 77.677 51.9472 77.808 51.7433C77.874 51.6458 77.9093 51.5307 77.9093 51.413C77.9093 51.2952 77.874 51.1801 77.808 51.0826" fill="#FF725E"/>
<path d="M73.2809 48.0287C73.5666 48.0287 73.5755 49.9126 75.2005 51.2608C76.8255 52.6091 78.8612 52.3948 78.8791 52.6626C78.8791 52.7787 78.4237 53.0287 77.5666 53.0555C76.4531 53.0691 75.3699 52.6933 74.5041 51.993C73.6771 51.3285 73.1421 50.3674 73.013 49.3144C72.9416 48.484 73.1112 48.0108 73.2809 48.0287Z" fill="#263238"/>
<path d="M72.8258 30.7344C72.6562 31.2076 70.9062 30.9934 68.8437 31.2434C66.7812 31.4934 65.1205 32.0559 64.8526 31.6362C64.7276 31.4309 65.0133 30.9755 65.683 30.5112C66.5735 29.9283 67.5892 29.5642 68.6473 29.4487C69.6996 29.3159 70.7684 29.4384 71.7634 29.8059C72.5223 30.1362 72.8973 30.5112 72.8258 30.7344Z" fill="#263238"/>
<path d="M88.6295 28.368C88.317 28.7608 87.1116 28.368 85.6562 28.368C84.2009 28.368 82.9777 28.6358 82.692 28.2251C82.567 28.0198 82.7634 27.618 83.2991 27.243C84.0186 26.7885 84.8572 26.5585 85.7079 26.5824C86.5586 26.6062 87.383 26.8828 88.0759 27.3769C88.5938 27.7608 88.7634 28.1715 88.6295 28.368Z" fill="#263238"/>
<path d="M62.9864 13.8143C61.5421 12.794 59.8946 12.0975 58.1565 11.7723C56.4183 11.4472 54.6304 11.5011 52.915 11.9304C49.5221 12.9036 46.7096 15.9572 46.6025 19.4125C46.5221 21.6536 47.4953 24.0375 46.4953 26.0643C45.4953 28.0911 43.2096 28.7429 41.5578 30.1715C40.2776 31.28 39.4059 32.7858 39.0822 34.4481C38.7585 36.1103 39.0014 37.8332 39.7721 39.3411C41.156 41.8947 44.0757 43.8054 44.3257 46.6358C44.5489 49.3144 42.2721 51.6269 41.7185 54.2876L63.8168 66.9483C68.8257 55.9483 59.7096 51.7697 59.2185 49.234C58.0935 43.5376 62.2632 41.2697 61.9953 37.5286C61.8525 35.609 60.4953 34.0108 59.3703 32.4304C58.2453 30.85 57.2453 28.859 57.9418 27.0733C58.8346 24.725 61.9328 24.109 63.7989 22.3858C64.5687 21.662 65.1225 20.7387 65.3983 19.7187C65.6742 18.6987 65.6614 17.6221 65.3614 16.609C65.0207 15.5986 64.4123 14.6996 63.601 14.0077C62.7896 13.3159 61.8058 12.8571 60.7543 12.6804" fill="#263238"/>
<path d="M61.6201 10.9484C61.6167 12.2252 61.8941 13.4871 62.4327 14.6447C62.9714 15.8023 63.7581 16.8272 64.737 17.6469C65.716 18.4665 66.8632 19.0608 68.0975 19.3875C69.3318 19.7143 70.6228 19.7656 71.8791 19.5377C73.8255 19.1806 75.9505 18.1984 77.6291 19.2341C79.3077 20.2698 79.4684 22.9841 81.0398 24.3413C83.2809 26.2877 86.8434 24.4663 89.6827 25.3056C91.8791 25.9573 93.2541 28.0645 94.7184 29.8234C96.1827 31.5823 98.3612 33.2699 100.558 32.6181C100.485 30.638 100.186 28.6727 99.6648 26.7609C99.137 24.8307 97.957 23.1428 96.3255 21.9841C95.3643 21.4867 94.4285 20.9414 93.5219 20.3502C91.7362 18.877 91.2719 16.3145 90.1469 14.2609C89.4133 12.9433 88.3762 11.8194 87.1216 10.9825C85.867 10.1456 84.431 9.61969 82.9327 9.4484C80.4327 9.18947 77.8612 9.93947 75.4237 9.3234C73.638 8.86804 72.0487 7.69839 70.2184 7.35911C66.6469 6.68054 63.3612 9.23411 60.7809 11.7698" fill="#263238"/>
<path d="M113.29 49.2616C113.363 49.2377 113.432 49.2047 113.496 49.1634C113.692 49.0457 113.855 48.8797 113.969 48.6812C114.147 48.2764 114.216 47.8323 114.171 47.3925C114.125 46.9528 113.966 46.5323 113.71 46.1723C113.393 45.6154 112.922 45.1625 112.353 44.8687C111.692 44.526 111.009 44.2277 110.308 43.9758C109.524 43.7405 108.793 43.3554 108.156 42.8419C107.512 42.182 107.085 41.3408 106.933 40.4312C106.719 39.4758 106.656 38.4312 106.478 37.3508C106.364 36.1785 105.942 35.0572 105.254 34.1008C103.772 32.1544 101.353 31.1187 99.5402 29.2883C98.6323 28.3315 97.9544 27.1803 97.558 25.9223C97.1372 24.5951 96.8384 23.2323 96.6652 21.8508C96.2723 19.0562 95.8795 15.9312 93.9866 13.3776C93.0734 12.0917 91.703 11.2036 90.1562 10.8955C88.6724 10.6848 87.164 10.721 85.6919 11.0026C84.3301 11.2607 82.941 11.3447 81.558 11.2526C80.2487 11.0942 79.0438 10.4584 78.1741 9.46689C76.4419 7.60081 75.4419 5.07402 73.3169 3.78831C72.3641 3.2062 71.3015 2.82653 70.1956 2.67292C69.0896 2.51931 67.9638 2.59506 66.8884 2.89545C65.099 3.41509 63.5834 4.61341 62.6651 6.23474C61.9661 7.42426 61.5877 8.77483 61.5669 10.1544C61.5454 11.0207 61.6846 11.8835 61.9776 12.699C62.0702 12.9837 62.196 13.2564 62.3526 13.5115C62.3526 13.5115 62.2366 13.2258 62.0669 12.6187C61.8207 11.8063 61.715 10.9577 61.7544 10.1097C61.8129 8.77494 62.2059 7.47625 62.8973 6.33296C63.8102 4.81188 65.2752 3.70198 66.9866 3.23474C68.0115 2.95783 69.0823 2.8942 70.1327 3.04778C71.1832 3.20135 72.191 3.56887 73.0937 4.1276C74.0715 4.80248 74.906 5.66429 75.5491 6.66331C76.2435 7.7628 77.0132 8.81293 77.8527 9.80617C78.3213 10.3148 78.8703 10.7432 79.4777 11.074C80.1072 11.402 80.7908 11.6137 81.4955 11.699C82.9192 11.8092 84.3512 11.7312 85.7545 11.4669C87.1618 11.1995 88.6033 11.1633 90.0223 11.3597C91.4609 11.6436 92.7376 12.464 93.5937 13.6544C94.4323 14.8619 95.038 16.2155 95.3795 17.6455C95.7189 19.0518 95.9753 20.4769 96.1473 21.9133C96.3349 23.3225 96.6486 24.712 97.0848 26.0651C97.5047 27.3992 98.2222 28.6204 99.183 29.6365C101.103 31.5383 103.504 32.5473 104.897 34.3776C105.566 35.2495 105.997 36.2802 106.147 37.3687C106.326 38.4223 106.397 39.4758 106.629 40.4669C106.799 41.4292 107.253 42.3186 107.933 43.0205C108.593 43.58 109.358 44.0019 110.183 44.2616C110.876 44.4944 111.556 44.7657 112.219 45.0741C112.758 45.3406 113.211 45.7557 113.522 46.2705C113.774 46.6041 113.937 46.996 113.997 47.4098C114.056 47.8236 114.01 48.2456 113.862 48.6366C113.717 48.8825 113.522 49.0954 113.29 49.2616Z" fill="#455A64"/>
<path d="M32.6916 58.0195C32.5974 57.8322 32.5255 57.6344 32.4773 57.4302C32.3199 56.8482 32.2418 56.2475 32.2452 55.6445C32.2616 54.6813 32.5733 53.7464 33.138 52.9659C33.9309 51.9718 34.9145 51.1461 36.0309 50.5374C37.3604 49.8082 38.7319 49.1583 40.1381 48.5909C41.739 47.9508 43.2256 47.0552 44.5399 45.9392C45.2673 45.3601 45.8564 44.6259 46.2642 43.7903C46.672 42.9547 46.8881 42.0386 46.897 41.1088C46.8434 39.1624 45.8077 37.3141 45.3256 35.207C45.0667 34.1512 45.0667 33.0485 45.3256 31.9927C45.4661 31.4692 45.7122 30.98 46.0488 30.5552C46.3768 30.1484 46.7725 29.801 47.2184 29.5284C48.1019 29.0769 49.0218 28.7006 49.9684 28.4034C50.8374 28.1381 51.6324 27.6734 52.2899 27.0463C52.8586 26.4054 53.2034 25.5968 53.272 24.7427C53.3344 23.9135 53.3344 23.0808 53.272 22.2516C53.2324 21.4557 53.2653 20.6577 53.3702 19.8677C53.5022 19.1399 53.7179 18.4298 54.0131 17.7516C54.9316 15.7024 56.5622 14.056 58.6024 13.1177C59.148 12.8691 59.7201 12.6833 60.3077 12.5641C60.5093 12.5135 60.716 12.4866 60.9238 12.4838C60.1508 12.6782 59.3975 12.9443 58.6738 13.2784C56.7515 14.2542 55.2274 15.8668 54.3613 17.8409C54.0865 18.4974 53.8887 19.1835 53.772 19.8856C53.6801 20.6558 53.6562 21.4326 53.7006 22.207C53.7673 23.0569 53.7673 23.9107 53.7006 24.7606C53.6319 25.7033 53.2555 26.5973 52.6291 27.3052C51.2541 28.7606 49.1291 28.9213 47.4773 29.8856C47.0527 30.1222 46.6809 30.443 46.3846 30.8283C46.0883 31.2137 45.8737 31.6555 45.7541 32.1266C45.5176 33.1096 45.5176 34.1347 45.7541 35.1177C46.2095 37.1266 47.272 39.0106 47.3345 41.1088C47.3678 42.1307 47.124 43.1426 46.6291 44.0374C46.1655 44.8778 45.5615 45.6327 44.8434 46.2695C43.4868 47.3889 41.9542 48.2759 40.3077 48.8945C38.9069 49.4441 37.5386 50.0731 36.2095 50.7784C35.1205 51.3479 34.1555 52.1279 33.3702 53.0731C32.8262 53.817 32.5154 54.7058 32.4773 55.6267C32.4531 56.43 32.5251 57.2333 32.6916 58.0195Z" fill="#455A64"/>
<path d="M49.2812 50.6093C49.8431 50.6592 50.4092 50.5893 50.942 50.4039C51.6438 50.1025 52.2685 49.6465 52.7695 49.0698C53.2704 48.4931 53.6346 47.8107 53.8348 47.0736C54.1188 46.0562 54.1677 44.9876 53.9777 43.9486C53.7667 42.731 53.4439 41.5355 53.0134 40.3772C52.5316 39.0846 52.1524 37.7561 51.8795 36.4039C51.5656 34.9158 51.6738 33.3696 52.192 31.9396C52.7813 30.4218 54.1205 29.5289 54.9777 28.4754C55.7977 27.4279 56.3659 26.2059 56.6384 24.9039C57.2366 22.4039 57.317 19.9753 58.1027 18.1093C58.6089 16.587 59.6079 15.2769 60.942 14.3861C61.3134 14.1644 61.7171 14.0017 62.1384 13.9039C62.2856 13.8741 62.4348 13.8562 62.5848 13.8503C62.0454 14.0198 61.5271 14.2504 61.0402 14.5378C59.7912 15.4544 58.8682 16.7466 58.4063 18.2253C57.683 20.0111 57.6384 22.4218 57.0581 25.0111C56.7813 26.3911 56.1918 27.6892 55.3348 28.8057C54.3973 29.9307 53.1473 30.7789 52.6563 32.1539C52.1686 33.501 52.0665 34.9574 52.3616 36.3593C52.6303 37.6892 53.0004 38.9966 53.4688 40.27C54.308 42.7164 54.8705 45.1897 54.192 47.1718C53.9687 47.9442 53.5684 48.6538 53.0228 49.2443C52.4772 49.8349 51.8014 50.29 51.0491 50.5736C50.6352 50.7106 50.1972 50.7593 49.7634 50.7164C49.5978 50.7083 49.4347 50.6721 49.2812 50.6093Z" fill="#455A64"/>
<path d="M109.04 59.806C109.259 59.6441 109.419 59.4152 109.496 59.1542C109.577 58.7768 109.534 58.3832 109.373 58.0323C109.212 57.6814 108.942 57.3921 108.603 57.2078C108.1 56.9524 107.55 56.8063 106.987 56.7792C106.362 56.7167 105.674 56.7792 104.924 56.6095C104.513 56.5619 104.118 56.4234 103.768 56.2041C103.417 55.9848 103.12 55.6902 102.897 55.3417C102.499 54.5065 102.413 53.5561 102.656 52.6631C102.871 51.7703 103.299 50.8774 103.549 49.8863C103.837 48.9061 103.781 47.8566 103.388 46.9131C102.98 45.9002 102.232 45.0607 101.272 44.5381C100.29 43.9845 99.0759 44.0024 97.8438 43.6453C97.2041 43.4741 96.6115 43.1602 96.1104 42.7272C95.6094 42.2942 95.213 41.7534 94.9509 41.1452C94.3949 39.9086 94.1703 38.5486 94.2991 37.1988C94.3974 35.8417 94.7099 34.5202 94.942 33.1542C95.2334 31.8111 95.2486 30.4229 94.9866 29.0738C94.8708 28.4171 94.6166 27.7924 94.241 27.2414C93.8654 26.6903 93.377 26.2254 92.8081 25.8774C91.6652 25.2434 90.192 25.4309 88.9063 24.7434C88.2891 24.3823 87.7945 23.8442 87.4866 23.1988C87.1998 22.5934 86.9899 21.9545 86.8616 21.297C86.6878 20.0634 86.339 18.8608 85.8259 17.7256C85.5509 17.2314 85.1418 16.8249 84.6457 16.5532C84.1497 16.2815 83.5869 16.1555 83.0223 16.1899C81.9087 16.2753 80.8038 16.4515 79.7188 16.7167C78.6582 16.9752 77.5473 16.9413 76.5045 16.6184C75.6112 16.2445 74.7707 15.7552 74.0045 15.1631C72.6761 14.1757 71.1183 13.5427 69.4777 13.3238C68.2345 13.1638 66.9725 13.2334 65.7545 13.5291C64.7201 13.8017 63.7263 14.21 62.7991 14.7434C62.8491 14.691 62.9062 14.6459 62.9687 14.6095C63.1379 14.4867 63.3138 14.3735 63.4955 14.2702C64.1914 13.8771 64.9359 13.5769 65.7098 13.3774C66.9464 13.05 68.2328 12.9531 69.5045 13.0916C71.1935 13.2782 72.8069 13.8928 74.192 14.8774C74.9442 15.4687 75.7732 15.9553 76.6563 16.3238C77.6416 16.6138 78.6866 16.6353 79.6831 16.3863C80.7866 16.103 81.913 15.9177 83.0491 15.8327C83.6679 15.8117 84.282 15.9468 84.8348 16.2256C85.4123 16.5234 85.8879 16.9865 86.2009 17.5559C86.7464 18.715 87.1166 19.9487 87.2991 21.2167C87.3688 21.8388 87.5686 22.4393 87.8855 22.9792C88.2024 23.5191 88.6292 23.9864 89.1384 24.3506C90.2366 24.9577 91.7098 24.7702 93.0313 25.4667C93.657 25.8441 94.195 26.3508 94.6091 26.9528C95.0233 27.5549 95.3042 28.2384 95.4331 28.9577C95.7235 30.3595 95.7235 31.806 95.4331 33.2077C95.2009 34.5827 94.8884 35.8863 94.7902 37.2167C94.664 38.4886 94.8701 39.7715 95.3884 40.9399C95.6209 41.4929 95.9766 41.9855 96.4284 42.3801C96.8802 42.7747 97.4163 43.0608 97.9956 43.2167C99.1295 43.5202 100.406 43.5113 101.496 44.1095C102.538 44.682 103.346 45.6013 103.781 46.7078C104.195 47.731 104.248 48.8644 103.933 49.922C103.647 50.922 103.219 51.797 103.04 52.681C102.802 53.5002 102.866 54.3776 103.219 55.1542C103.411 55.4705 103.67 55.7404 103.979 55.9442C104.288 56.148 104.638 56.2807 105.005 56.3328C105.71 56.4756 106.397 56.4667 107.031 56.5381C107.622 56.5824 108.197 56.7497 108.719 57.0292C109.149 57.2638 109.47 57.6583 109.612 58.1274C109.718 58.4644 109.718 58.8261 109.612 59.1631C109.573 59.3072 109.501 59.4402 109.402 59.5518C109.302 59.6633 109.179 59.7504 109.04 59.806Z" fill="#455A64"/>
<path d="M54.1648 98.7072L42.754 60.1893C42.754 60.1893 27.1915 63.3768 28.7005 78.7072C30.2094 94.0376 33.9505 112.189 40.7005 125.27C47.4505 138.35 49.6558 142.841 57.0398 141.814C64.4237 140.788 68.4683 135.047 70.1201 126.779C71.7719 118.511 72.4505 82.0376 72.4505 82.0376L60.1112 79.6268L54.1648 98.7072Z" fill="#FFBE9D"/>
<path d="M92.0045 97.805L105.246 59.4121C105.246 59.4121 118.987 61.3675 117.487 76.7068C115.987 92.0461 112.335 112.18 105.594 125.26C98.8527 138.341 96.5848 142.841 89.183 141.814C81.7812 140.787 77.7634 135.046 76.1027 126.778C74.442 118.51 74.0045 80.3407 74.0045 80.3407L86.3616 79.4478L92.0045 97.805Z" fill="#FFBE9D"/>
<path d="M86.2807 81.975C86.2432 80.6387 86.5525 79.3154 87.1783 78.134C87.8042 76.9527 88.7254 75.9536 89.8521 75.234C94.361 72.0554 100.906 65.5911 100.906 65.5911C102.388 62.2518 101.799 56.2429 101.647 55.4214C101.495 54.6 101.182 52.5911 97.8789 53.4125C97.8789 53.4125 97.5307 52.0197 95.2003 52.2697C92.8699 52.5197 92.6735 53.6714 92.6735 53.6714C91.7588 53.7911 90.8604 54.0127 89.995 54.3322C89.1021 54.7518 87.7985 56.5286 87.8789 57.609C86.8093 57.6987 85.7844 58.0784 84.9146 58.7072C84.0217 59.6 82.7628 60.5732 82.7628 62.2786C82.7628 63.984 84.3789 64.5732 85.6556 64.484C85.6556 64.484 81.0574 66.0643 80.1914 66.2697C79.3253 66.475 72.0664 69.5822 73.2181 73.9304C74.3699 78.2786 74.2628 77.6179 74.0217 80.0286C73.7807 82.4393 74.9146 88.0643 74.9146 88.0643L86.2807 81.975Z" fill="#FFBE9D"/>
<path d="M74.5221 102.27C74.4787 102.115 74.4517 101.957 74.4418 101.797C74.4418 101.484 74.3346 101.02 74.29 100.422C74.1828 99.2252 74.0757 97.493 73.9953 95.3502C73.8346 91.0734 73.781 85.1537 73.8793 78.618V77.8234V77.8859C73.4136 76.3966 73.0936 74.8656 72.9239 73.3144C72.9 72.5667 73.0251 71.8217 73.2918 71.1227C73.5585 70.4237 73.9616 69.7848 74.4775 69.243C75.4235 68.3077 76.5592 67.5861 77.8078 67.1269C78.9418 66.6627 80.0221 66.3234 80.9953 65.993C82.9596 65.3412 84.5221 64.7698 85.5757 64.3323C86.6293 63.8948 87.2186 63.618 87.2275 63.6537C87.2364 63.6894 87.1025 63.7519 86.8346 63.8948C86.5668 64.0377 86.1739 64.2519 85.6471 64.493C84.6025 64.9841 83.0489 65.6002 81.1025 66.2787C80.1382 66.6359 79.0578 66.9841 77.9507 67.4573C76.7652 67.9135 75.6885 68.613 74.79 69.5109C74.3174 70.0145 73.9494 70.6068 73.7073 71.2535C73.4651 71.9003 73.3536 72.5886 73.3793 73.2787C73.5528 74.7942 73.8728 76.2893 74.3346 77.743V77.8055V78.6002C74.2364 85.127 74.2453 91.0377 74.3346 95.3145C74.3346 97.4573 74.4328 99.1895 74.4775 100.386C74.4775 100.939 74.4775 101.395 74.54 101.761C74.5584 101.931 74.5524 102.102 74.5221 102.27Z" fill="#EB996E"/>
<path d="M85.4063 64.6185C85.2813 64.6185 85.326 63.8596 85.5046 62.9846C85.6831 62.1096 85.9331 61.4132 86.0581 61.44C86.1831 61.4667 86.1385 62.1989 85.9599 63.0739C85.7814 63.9489 85.5313 64.6453 85.4063 64.6185Z" fill="#EB996E"/>
<path d="M90.7636 63.0735C90.7636 63.0735 90.8439 62.8057 91.0493 62.3771C91.3518 61.7903 91.4965 61.1349 91.4689 60.4753C91.3918 60.007 91.1916 59.5675 90.8888 59.202C90.586 58.8365 90.1915 58.5579 89.7457 58.395C88.6132 58.0139 87.3871 58.0139 86.2547 58.395C85.0988 58.7109 84.1042 59.4504 83.4689 60.4664C83.2139 60.8731 83.0478 61.3293 82.9816 61.8048C82.9155 62.2803 82.9507 62.7644 83.085 63.2253C83.1753 63.5337 83.3421 63.8141 83.5701 64.0405C83.798 64.2669 84.0796 64.4319 84.3886 64.52C84.6276 64.5614 84.8693 64.5853 85.1118 64.5914C84.8828 64.7256 84.6101 64.7641 84.3529 64.6985C83.993 64.6321 83.6573 64.4715 83.3797 64.2331C83.1021 63.9947 82.8926 63.687 82.7725 63.3414C82.5995 62.8334 82.5394 62.2938 82.5964 61.7603C82.6535 61.2267 82.8263 60.712 83.1029 60.2521C83.7758 59.1271 84.8568 58.3051 86.1207 57.9575C87.3564 57.5454 88.6961 57.5706 89.9154 58.0289C90.4211 58.2284 90.8634 58.5613 91.1951 58.992C91.5268 59.4228 91.7356 59.9354 91.7993 60.4753C91.8006 61.1878 91.5959 61.8854 91.21 62.4843C91.0891 62.7004 90.9389 62.8987 90.7636 63.0735Z" fill="#EB996E"/>
<path d="M95.5222 61.2784C95.4418 61.2784 95.7543 60.3855 95.9864 58.9926C96.131 58.1832 96.082 57.351 95.8436 56.5641C95.6731 56.1047 95.41 55.6854 95.0705 55.3321C94.7311 54.9788 94.3225 54.6991 93.8704 54.5105C92.9614 54.1012 91.9314 54.0501 90.9864 54.3676C90.2167 54.6488 89.5335 55.1258 89.0043 55.7516C88.5332 56.3609 88.1458 57.0305 87.8525 57.7426C87.8387 57.5238 87.8722 57.3045 87.9507 57.0998C88.1142 56.5333 88.3839 56.003 88.7454 55.5373C89.2891 54.8327 90.0145 54.2895 90.8436 53.9658C91.8887 53.581 93.0432 53.6227 94.0579 54.0819C94.5675 54.2968 95.0259 54.6172 95.403 55.0219C95.78 55.4266 96.0671 55.9065 96.2454 56.4301C96.494 57.2815 96.5186 58.1826 96.3168 59.0462C96.1889 59.6117 96.0188 60.1668 95.8079 60.7069C95.6561 61.0909 95.549 61.2873 95.5222 61.2784Z" fill="#EB996E"/>
<path d="M98.5575 60.3414C98.495 60.3414 98.5575 59.9039 98.6736 59.2431C98.8432 58.3934 98.9299 57.5293 98.9325 56.6628C98.9239 55.8111 98.716 54.9732 98.3254 54.2163C98.0129 53.6449 97.7004 53.3235 97.754 53.3235C97.8075 53.3235 98.1825 53.4842 98.6022 54.0646C99.1184 54.8362 99.3949 55.7433 99.3968 56.6717C99.405 57.5808 99.2663 58.4853 98.9861 59.3503C98.7897 59.9753 98.62 60.3592 98.5575 60.3414Z" fill="#EB996E"/>
<path d="M85.3436 79.9666C84.2105 80.8249 82.8439 81.3198 81.4239 81.3862C80.0189 81.6087 78.5795 81.4066 77.29 80.8058C78.6453 80.9462 80.0093 80.985 81.3704 80.9219C82.717 80.7044 84.0453 80.385 85.3436 79.9666Z" fill="#EB996E"/>
<path d="M98.1121 128.869C98.0585 128.869 98.2638 128.19 98.4156 126.949C98.6304 125.199 98.6304 123.43 98.4156 121.681C98.0049 117.217 95.9067 111.342 93.9513 104.797L88.871 88.0113C88.2638 85.9042 87.7549 84.181 87.3888 82.9131C87.2281 82.3506 87.1031 81.8863 87.0049 81.5203C86.9555 81.3568 86.9196 81.1896 86.8978 81.0203C86.9804 81.1703 87.0463 81.329 87.0942 81.4935C87.2192 81.8506 87.371 82.306 87.5585 82.8595C87.9603 84.1185 88.5138 85.8328 89.1924 87.9221L94.3978 104.663C96.3621 111.199 98.4246 117.11 98.7639 121.627C98.9513 123.412 98.8972 125.214 98.6031 126.985C98.5254 127.461 98.4181 127.932 98.2817 128.395C98.2458 128.56 98.1887 128.719 98.1121 128.869Z" fill="#EB996E"/>
<path d="M60.0934 79.627C60.0912 79.8084 60.0641 79.9886 60.0131 80.1627C59.9506 80.502 59.8256 81.0555 59.6648 81.6537C59.3345 82.9484 58.772 84.8055 58.1023 87.0823C57.4327 89.3591 56.5131 92.0555 55.4863 95.0377C54.9684 96.5288 54.4238 98.0913 53.8255 99.6984C53.2363 101.374 52.5353 103.009 51.7273 104.591C50.0488 107.841 48.1559 110.752 47.0309 113.672C46.0252 116.242 45.4228 118.953 45.2452 121.707C45.1101 123.574 45.2424 125.45 45.638 127.279C45.9327 128.573 46.2005 129.261 46.1559 129.279C46.0668 129.123 45.9949 128.959 45.9416 128.788C45.7484 128.312 45.5902 127.822 45.4684 127.323C44.9955 125.485 44.8088 123.585 44.9148 121.689C45.0711 118.877 45.6739 116.107 46.7005 113.484C47.8345 110.502 49.7273 107.564 51.388 104.35C52.1826 102.779 52.8775 101.16 53.4684 99.502C54.0666 97.9038 54.6291 96.3413 55.1559 94.8591C56.2006 91.8948 57.1202 89.2073 57.8345 86.9484C58.5488 84.6895 59.1559 82.8502 59.5309 81.5912L59.9684 80.118C59.9945 79.9508 60.0363 79.7863 60.0934 79.627Z" fill="#EB996E"/>
<path d="M96.2541 82.9572L116.317 66.9483C116.317 66.9483 111.959 58.3857 103.468 59.0554C103.406 66.5465 99.9683 74.2429 96.2541 82.9572Z" fill="#4169E1"/>
<path d="M43.3703 60.046C43.3703 60.046 32.4953 59.8674 28.2631 73.921L49.4953 80.0192L43.3703 60.046Z" fill="#4169E1"/>
<path d="M112.343 83.4567C112.299 83.4567 112.182 83.4031 111.995 83.4567C111.949 83.4654 111.905 83.4863 111.87 83.5171C111.834 83.5479 111.807 83.5876 111.791 83.6322C111.776 83.6768 111.773 83.7246 111.782 83.771C111.791 83.8173 111.812 83.8604 111.843 83.896C111.874 83.9315 111.914 83.9583 111.958 83.9735C112.003 83.9887 112.051 83.9919 112.097 83.9826C112.143 83.9734 112.186 83.9521 112.222 83.9209C112.257 83.8897 112.284 83.8497 112.299 83.8049C112.379 83.6264 112.299 83.4924 112.343 83.4567C112.388 83.421 112.584 83.5371 112.549 83.8585C112.539 83.9548 112.505 84.0468 112.448 84.1253C112.392 84.2037 112.316 84.2658 112.227 84.3049C112.113 84.3546 111.986 84.3658 111.865 84.3368C111.745 84.3078 111.636 84.2402 111.557 84.1442C111.478 84.0657 111.425 83.9652 111.404 83.8557C111.382 83.7462 111.395 83.6329 111.439 83.5306C111.484 83.4283 111.558 83.3418 111.652 83.2824C111.747 83.223 111.857 83.1935 111.968 83.1978C112.299 83.2067 112.397 83.4389 112.343 83.4567Z" fill="#263238"/>
<path d="M104.995 108.591C104.534 107.973 104.2 107.269 104.013 106.52C103.712 105.811 103.552 105.049 103.54 104.279C103.897 104.951 104.169 105.665 104.353 106.404C104.655 107.104 104.871 107.839 104.995 108.591Z" fill="#263238"/>
<path d="M60.0224 80.341C60.0599 79.0046 59.7506 77.6813 59.1247 76.5C58.4989 75.3186 57.5777 74.3195 56.451 73.5999C51.9867 70.4214 45.3974 63.9571 45.3974 63.9571C43.9242 60.6178 44.5045 54.6088 44.6563 53.7874C44.8081 52.966 45.1295 50.9571 48.4331 51.7785C48.4331 51.7785 48.7724 50.3856 51.1117 50.6356C53.451 50.8856 53.6385 52.0374 53.6385 52.0374C54.5532 52.1571 55.4516 52.3787 56.317 52.6981C57.2099 53.1178 58.5224 54.8946 58.4331 55.9749C59.5027 56.0646 60.5276 56.4443 61.3974 57.0731C62.2903 57.966 63.5492 58.9392 63.5492 60.5999C63.5492 62.2606 61.9421 62.8946 60.6563 62.8053C60.6563 62.8053 65.2546 64.3856 66.1206 64.591C66.9867 64.7964 74.3081 68.091 73.1474 72.4392C71.9867 76.7874 72.0492 75.9392 72.2546 78.341C72.4599 80.7428 71.3617 86.3767 71.3617 86.3767L60.0224 80.341Z" fill="#FFBE9D"/>
<path d="M71.7809 100.601C71.7591 100.441 71.7591 100.278 71.7809 100.118C71.7809 99.7524 71.7809 99.2971 71.8434 98.7435C71.8969 97.547 71.9505 95.8149 71.9862 93.672C72.0666 89.3952 72.0666 83.4845 71.9862 76.9577V76.0649C72.4466 74.6102 72.7695 73.1156 72.9505 71.6006C72.9744 70.9099 72.8613 70.2213 72.6176 69.5746C72.374 68.9279 72.0046 68.3359 71.5309 67.8327C70.6324 66.9349 69.5556 66.2353 68.3701 65.7792C67.263 65.3059 66.1916 64.9577 65.2184 64.6006C63.2719 63.9042 61.7184 63.2881 60.6737 62.8149C60.1469 62.5738 59.7809 62.3684 59.4862 62.2167C59.3454 62.1536 59.2133 62.0726 59.0934 61.9756C59.0934 61.9756 59.6826 62.2167 60.7451 62.6542C61.8076 63.0917 63.3701 63.6631 65.3255 64.3149C66.2987 64.6452 67.3791 64.9845 68.5219 65.4488C69.7668 65.9103 70.899 66.6317 71.8434 67.5649C72.3593 68.1067 72.7623 68.7456 73.029 69.4446C73.2957 70.1435 73.4208 70.8886 73.3969 71.6363C73.2308 73.188 72.9107 74.7194 72.4416 76.2077V76.9399C72.5398 83.4756 72.4862 89.4399 72.3255 93.672C72.2451 95.8149 72.138 97.547 72.0309 98.7435C71.9862 99.3417 71.9237 99.806 71.888 100.118C71.8737 100.283 71.8377 100.445 71.7809 100.601Z" fill="#EB996E"/>
<path d="M60.8976 62.9484C60.7726 62.9484 60.5315 62.2877 60.344 61.4037C60.1565 60.5198 60.1208 59.7966 60.2458 59.7698C60.3708 59.743 60.6208 60.4305 60.7994 61.3144C60.978 62.1984 61.0315 62.9305 60.8976 62.9484Z" fill="#EB996E"/>
<path d="M55.5487 61.4035C55.3643 61.2264 55.2132 61.0178 55.1023 60.7874C54.7089 60.1915 54.5008 59.4925 54.5041 58.7785C54.5678 58.2386 54.7766 57.726 55.1083 57.2952C55.44 56.8644 55.8822 56.5316 56.388 56.3321C57.6103 55.8738 58.9529 55.8486 60.1916 56.2606C61.4547 56.6053 62.534 57.4283 63.2005 58.5553C63.477 59.0152 63.6499 59.5299 63.7069 60.0634C63.764 60.597 63.7039 61.1366 63.5309 61.6446C63.4124 61.9912 63.2034 62.2998 62.9255 62.5384C62.6477 62.777 62.311 62.937 61.9505 63.0017C61.4416 63.0732 61.1826 62.9035 61.1916 62.8856C61.4342 62.8916 61.6768 62.8706 61.9148 62.8231C62.2237 62.735 62.5053 62.5701 62.7333 62.3437C62.9612 62.1173 63.1281 61.8368 63.2184 61.5285C63.3527 61.0676 63.3879 60.5834 63.3217 60.1079C63.2556 59.6324 63.0895 59.1763 62.8344 58.7696C62.2006 57.756 61.2098 57.0168 60.0576 56.6981C58.9221 56.317 57.6932 56.317 56.5576 56.6981C56.1118 56.8611 55.7174 57.1396 55.4146 57.5052C55.1118 57.8707 54.9116 58.3102 54.8344 58.7785C54.7985 59.4445 54.9436 60.1078 55.2541 60.6981C55.3825 60.9195 55.4815 61.1566 55.5487 61.4035Z" fill="#EB996E"/>
<path d="M50.7898 59.6096C50.7898 59.6096 50.6559 59.4221 50.5041 59.0382C50.285 58.501 50.1146 57.9452 49.9952 57.3775C49.7897 56.5147 49.8112 55.6134 50.0577 54.7614C50.2364 54.2367 50.5247 53.756 50.9034 53.3511C51.2821 52.9463 51.7425 52.6266 52.2541 52.4132C53.2657 51.9545 54.4173 51.9128 55.4595 52.2971C56.1489 52.5656 56.7684 52.9872 57.2711 53.5301C57.7738 54.073 58.1465 54.723 58.3612 55.4311C58.4406 55.6355 58.4711 55.8556 58.4505 56.0739C58.1572 55.3618 57.7698 54.6921 57.2987 54.0828C56.7739 53.444 56.0904 52.9544 55.3166 52.6632C54.3746 52.3463 53.3476 52.3973 52.4416 52.8061C51.9894 52.9947 51.5809 53.2744 51.2414 53.6277C50.902 53.9809 50.6388 54.4003 50.4684 54.8596C50.2229 55.6451 50.1708 56.4783 50.3166 57.2882C50.5487 58.7257 50.8702 59.5829 50.7898 59.6096Z" fill="#EB996E"/>
<path d="M47.7449 58.6719C47.6824 58.6719 47.5128 58.2969 47.3164 57.6451C47.0406 56.7791 46.902 55.8753 46.9056 54.9665C46.9117 54.0388 47.1878 53.1328 47.7003 52.3594C48.1199 51.779 48.5217 51.5737 48.5931 51.6183C48.6646 51.663 48.3253 51.9576 48.0217 52.5112C47.628 53.2673 47.417 54.1052 47.4057 54.9576C47.4108 55.8244 47.5005 56.6886 47.6735 57.538C47.7539 58.2344 47.8074 58.654 47.7449 58.6719Z" fill="#EB996E"/>
<path d="M60.9598 78.2969C62.2595 78.7104 63.5874 79.0297 64.933 79.2522C66.2971 79.3149 67.664 79.2761 69.0223 79.1362C67.7154 79.6592 66.3008 79.856 64.9007 79.7098C63.5006 79.5636 62.1572 79.0786 60.9866 78.2969H60.9598Z" fill="#EB996E"/>
</svg>
