<svg width="324" height="324" viewBox="0 0 324 324" fill="none" xmlns="http://www.w3.org/2000/svg">
<path d="M217.133 49.3354C193.855 45.7468 169.834 49.6587 151.885 64.207C134.427 78.361 126.506 102.052 108.298 115.21C80.1777 135.572 40.2376 128.808 23.924 165.36C18.1047 178.408 16.6046 192.989 16.8115 207.272C17.0507 225.164 19.9669 243.268 27.6937 259.401C35.4205 275.533 48.2877 289.61 64.75 296.606C89.049 306.951 117.208 300.763 141.598 290.67C151.659 286.513 161.758 281.618 172.634 281.062C186.329 280.344 199.293 286.519 212.303 290.858C227.911 296.076 245.201 298.701 260.7 293.153C272.83 288.814 282.801 279.82 290.799 269.721C305.09 251.602 313.876 229.761 316.113 206.794C322.314 141.721 288.737 60.3598 217.133 49.3354Z" fill="#92E3A9"/>
<path opacity="0.7" d="M217.133 49.3354C193.855 45.7468 169.834 49.6587 151.885 64.207C134.427 78.361 126.506 102.052 108.298 115.21C80.1777 135.572 40.2376 128.808 23.924 165.36C18.1047 178.408 16.6046 192.989 16.8115 207.272C17.0507 225.164 19.9669 243.268 27.6937 259.401C35.4205 275.533 48.2877 289.61 64.75 296.606C89.049 306.951 117.208 300.764 141.598 290.67C151.659 286.513 161.758 281.618 172.634 281.062C186.329 280.344 199.293 286.519 212.303 290.858C227.911 296.076 245.201 298.701 260.7 293.153C272.83 288.814 282.801 279.82 290.799 269.721C305.09 251.602 313.876 229.761 316.113 206.794C322.314 141.721 288.737 60.3598 217.133 49.3354Z" fill="white"/>
<path d="M183.665 151.523C180.005 152.868 171.296 152.17 171.289 152.17C171.283 152.17 173.507 146.57 173.695 146.234C175.848 142.354 182.301 136.102 187.182 137.065C190.706 137.757 192.465 141.43 191.463 144.721C190.461 148.012 186.782 150.379 183.665 151.523Z" fill="#92E3A9"/>
<path d="M71.1964 114.945C76.1687 114.713 81.6325 121.838 83.1972 125.996C83.3265 126.358 84.7943 132.229 84.7038 132.222H84.5939C85.4668 133.341 86.3914 134.55 87.3677 135.895C89.1588 138.384 91.1568 141.216 93.1224 144.443C95.2845 147.896 97.2406 151.473 98.9806 155.157C100.953 159.269 102.554 163.549 103.765 167.947L103.804 168.108C103.862 166.653 104.173 162.586 104.231 162.289C105.071 157.924 109.248 150.004 114.188 149.357C117.751 148.917 120.564 151.853 120.654 155.293C120.745 158.733 117.984 162.153 115.378 164.216C112.443 166.537 104.554 168.477 103.927 168.632C105.05 173.137 105.871 177.712 106.384 182.327C106.701 185.017 106.934 187.732 107.128 190.461C107.225 189.168 107.315 188.075 107.348 187.92C108.182 183.555 112.365 175.635 117.305 174.988C120.868 174.548 123.68 177.49 123.771 180.93C123.862 184.37 121.101 187.784 118.501 189.847C115.902 191.909 109.171 193.726 107.393 194.179C107.457 195.226 107.535 196.267 107.593 197.315C107.891 202.339 108.162 207.356 108.582 212.264C108.731 213.991 108.938 215.691 109.139 217.392C109.223 216.273 109.307 215.335 109.333 215.193C110.167 210.829 114.35 202.908 119.29 202.261C122.846 201.822 125.666 204.757 125.756 208.197C125.847 211.637 123.086 215.057 120.48 217.12C117.874 219.183 111.803 220.825 109.695 221.368C109.953 223.101 110.212 224.84 110.542 226.509C110.787 227.647 110.956 228.752 111.266 229.884C111.576 231.015 111.841 232.115 112.126 233.214C112.772 235.309 113.38 237.475 114.033 239.505C114.486 240.921 114.939 242.26 115.391 243.611C115.223 241.891 114.971 238.516 114.977 238.231C115.27 234.333 116.554 230.573 118.708 227.31C118.723 226.875 118.777 226.443 118.87 226.017C119.62 222.655 122.956 220.327 126.364 221.459C131.09 223.03 133.625 231.643 133.586 236.085C133.586 236.35 133.237 239.188 132.991 240.979C133.302 239.951 133.58 238.949 133.91 237.889C134.556 235.794 135.203 233.725 135.966 231.494L137.162 228.261C137.537 227.175 138.067 226.082 138.526 224.976C139.632 222.435 140.873 219.913 142.186 217.405C140.35 216.849 133.877 214.773 131.356 212.587C128.834 210.402 126.26 206.943 126.493 203.438C126.726 199.934 129.674 197.199 133.211 197.8C138.119 198.634 141.934 206.762 142.567 211.158C142.606 211.437 142.703 214.644 142.729 216.409C143.524 214.902 144.313 213.402 145.173 211.883C147.65 207.563 150.288 203.276 152.932 198.983C153.734 197.69 154.517 196.351 155.305 195.039C154.659 194.845 146.9 192.549 144.081 190.099C141.572 187.92 138.979 184.454 139.218 180.95C139.457 177.445 142.393 174.71 145.93 175.311C150.837 176.145 154.652 184.273 155.286 188.67C155.338 189.006 155.474 193.623 155.448 194.793C157.187 191.896 158.888 188.974 160.452 186.051C162.585 182.1 164.458 178.013 166.058 173.818C165.754 173.727 157.653 171.367 154.762 168.858C152.253 166.686 149.667 163.214 149.9 159.709C150.133 156.204 153.081 153.469 156.618 154.071C161.526 154.905 165.334 163.032 165.974 167.436C166.019 167.778 166.168 172.744 166.129 173.65C166.22 173.404 166.343 173.165 166.433 172.919C167.921 168.667 169.029 164.292 169.744 159.845C170.171 157.394 170.436 155.028 170.649 152.732C169.097 152.448 162.011 151.064 159.159 149.092C156.424 147.204 153.469 144.042 153.34 140.531C153.21 137.02 155.816 133.981 159.392 134.188C164.364 134.479 169.046 142.141 170.158 146.473C170.222 146.706 170.571 149.15 170.804 150.941C170.882 149.894 170.985 148.82 171.043 147.818C171.263 144.061 171.231 140.609 171.179 137.544C171.134 135.804 171.063 134.233 170.979 132.765C169.602 131.686 164.099 127.282 162.502 124.282C160.905 121.282 159.786 117.17 161.267 113.988C162.748 110.807 166.485 109.32 169.563 111.15C173.843 113.736 174.47 122.659 173.475 126.991C173.384 127.366 171.373 133.063 171.296 133.011L171.212 132.946C171.322 134.356 171.425 135.876 171.503 137.537C171.619 140.602 171.729 144.061 171.587 147.838C171.482 151.91 171.141 155.973 170.565 160.006C169.938 164.527 168.91 168.982 167.494 173.32C167.478 173.371 167.459 173.421 167.436 173.469C168.289 172.292 170.798 169.065 171.018 168.839C174.121 165.664 182.01 161.338 186.445 163.556C189.678 165.16 190.39 169.162 188.547 172.072C186.704 174.982 182.54 176.32 179.229 176.598C175.499 176.915 167.849 174.186 167.242 173.966C165.665 178.35 163.796 182.622 161.648 186.756C160.433 189.168 159.127 191.56 157.769 193.946C158.538 192.95 159.243 192.065 159.353 191.948C162.457 188.767 170.345 184.448 174.781 186.665C178.014 188.263 178.719 192.265 176.889 195.181C175.059 198.097 170.875 199.429 167.565 199.707C164.254 199.985 157.64 197.8 155.926 197.192C155.402 198.104 154.892 199.015 154.361 199.927C151.84 204.279 149.299 208.611 146.938 212.937C146.111 214.456 145.348 215.989 144.572 217.521C145.264 216.635 145.865 215.898 145.949 215.788C149.053 212.613 156.941 208.288 161.383 210.505C164.616 212.109 165.321 216.111 163.485 219.021C161.648 221.931 157.471 223.269 154.167 223.547C150.934 223.819 144.882 221.847 142.82 221.142C142.083 222.733 141.339 224.323 140.692 225.894C140.272 226.981 139.794 227.996 139.438 229.127C139.082 230.259 138.688 231.306 138.319 232.36C137.673 234.455 137.026 236.608 136.438 238.665C136.03 240.094 135.668 241.464 135.3 242.842C136.108 241.309 137.763 238.354 137.925 238.128C140.511 234.513 147.624 229.076 152.383 230.563C155.797 231.662 157.122 235.503 155.745 238.658C154.368 241.813 150.449 243.773 147.223 244.549C143.667 245.402 135.998 243.967 135.041 243.779C134.44 246.062 133.877 248.305 133.379 250.387C133.269 250.84 133.179 251.247 133.075 251.681H129.965C130.133 251.034 130.302 250.349 130.483 249.663C131.084 247.342 131.776 244.878 132.506 242.357C130.239 241.281 128.035 240.076 125.905 238.749C123.196 241.335 116.484 244.18 115.617 244.568C116.374 246.799 117.13 248.965 117.874 250.995L118.139 251.706H115.029C114.279 249.514 113.529 247.18 112.779 244.768C111.828 244.904 104.089 245.997 100.571 244.982C97.3835 244.057 93.5751 241.988 92.3207 238.703C91.0663 235.419 92.5987 231.707 96.058 230.776C100.862 229.483 107.729 235.257 110.154 238.988C110.296 239.208 111.576 241.768 112.359 243.398C112.042 242.37 111.712 241.374 111.415 240.313C110.768 238.218 110.225 236.111 109.611 233.847C109.345 232.742 109.087 231.623 108.822 230.498C108.557 229.373 108.376 228.177 108.143 227C107.664 224.271 107.315 221.485 107.018 218.672C105.188 219.215 98.612 221.058 95.3338 220.612C92.0556 220.166 87.9691 218.717 86.2297 215.659C84.4904 212.6 85.4409 208.701 88.7191 207.253C93.2453 205.242 100.94 209.917 103.895 213.241C104.082 213.447 105.931 216.066 106.921 217.527C106.759 215.833 106.591 214.139 106.481 212.419C106.164 207.46 106.003 202.423 105.834 197.399C105.783 195.86 105.705 194.328 105.64 192.795C104.994 192.996 97.2348 195.382 93.5492 194.871C90.258 194.444 86.1845 192.976 84.4451 189.918C82.7058 186.859 83.6563 182.961 86.9345 181.512C91.493 179.501 99.1552 184.176 102.11 187.5C102.336 187.752 104.994 191.521 105.628 192.517C105.472 189.135 105.291 185.773 104.981 182.463C104.581 177.991 103.887 173.55 102.905 169.169C102.608 169.266 94.5449 171.755 90.7494 171.264C87.4583 170.83 83.3847 169.369 81.6519 166.311C79.919 163.252 80.8566 159.353 84.1412 157.905C88.6674 155.894 96.3554 160.569 99.3168 163.892C99.5431 164.151 102.408 168.212 102.873 168.988C102.815 168.735 102.783 168.464 102.718 168.212C101.618 163.844 100.129 159.583 98.2693 155.48C97.2736 153.204 96.1938 151.077 95.0946 149.014C93.6397 149.661 86.9669 152.396 83.5076 152.325C80.1841 152.254 75.9748 151.245 73.9121 148.4C71.8495 145.555 72.3668 141.572 75.464 139.774C79.7703 137.272 87.9044 141.068 91.2085 144.055C91.3831 144.217 93.0319 146.066 94.2087 147.424C93.6979 146.512 93.1871 145.562 92.6827 144.695C90.7947 141.462 88.8614 138.572 87.135 136.05C86.1392 134.621 85.1952 133.354 84.3223 132.171C82.583 132.035 75.5674 131.395 72.5737 129.772C69.5799 128.149 66.3922 125.343 65.8685 121.87C65.3448 118.398 67.6143 115.094 71.1964 114.945Z" fill="#92E3A9"/>
<path d="M95.3273 148.122C95.2497 148.167 94.0923 142.231 94.0341 141.85C93.6849 137.414 95.6247 128.647 100.228 126.758C103.546 125.394 107.037 127.483 107.988 130.78C108.938 134.078 107.225 138.106 105.259 140.777C102.996 143.919 95.3338 148.116 95.3273 148.122Z" fill="#92E3A9"/>
<path d="M92.5729 240.869C92.5729 240.869 72.9682 240.624 68.3838 233.291H17.1736C17.1736 233.291 21.3377 240.805 27.8036 240.869H92.5729Z" fill="white" stroke="#263238" stroke-width="0.286104" stroke-miterlimit="10"/>
<path d="M66.8967 235.709H25.1784C25.1784 235.709 25.9543 237.403 23.827 238.335C25.1681 239.574 26.8511 240.38 28.6571 240.649H81.7683C81.7683 240.649 75.0049 240.003 71.3388 237.869C71.3388 237.869 67.0906 238.49 66.8967 235.709Z" fill="white" stroke="#263238" stroke-width="0.286104" stroke-miterlimit="10"/>
<path d="M84.8397 299.483H202.533V284.922H84.8397V299.483Z" fill="#263238" stroke="#263238" stroke-width="0.286104" stroke-miterlimit="10"/>
<path d="M20.0703 299.483H137.763V284.922H20.0703V299.483Z" fill="white" stroke="#263238" stroke-width="0.286104" stroke-miterlimit="10"/>
<path d="M136.949 288.807H108.208" stroke="#263238" stroke-width="0.286104" stroke-miterlimit="10"/>
<path d="M131.278 292.047H89.5856" stroke="#263238" stroke-width="0.286104" stroke-miterlimit="10"/>
<path d="M114.68 294.957H121.967" stroke="#263238" stroke-width="0.286104" stroke-miterlimit="10"/>
<path d="M124.806 294.957H136.541" stroke="#263238" stroke-width="0.286104" stroke-miterlimit="10"/>
<path d="M20.7622 294.31H57.5987" stroke="#263238" stroke-width="0.286104" stroke-miterlimit="10"/>
<path d="M24.0016 292.37H28.8575" stroke="#263238" stroke-width="0.286104" stroke-miterlimit="10"/>
<path d="M51.5271 292.047H35.3364" stroke="#263238" stroke-width="0.286104" stroke-miterlimit="10"/>
<path d="M20.7622 288.161H34.9291" stroke="#263238" stroke-width="0.286104" stroke-miterlimit="10"/>
<path d="M200.91 291.071H193.623" stroke="#8A8A8A" stroke-width="0.286104" stroke-miterlimit="10"/>
<path d="M202.533 294.31H179.863" stroke="#8A8A8A" stroke-width="0.286104" stroke-miterlimit="10"/>
<path d="M138.973 296.25H149.906" stroke="#8A8A8A" stroke-width="0.286104" stroke-miterlimit="10"/>
<path d="M137.757 291.071H167.313" stroke="#8A8A8A" stroke-width="0.286104" stroke-miterlimit="10"/>
<path d="M192.814 286.868H175.815" stroke="#8A8A8A" stroke-width="0.286104" stroke-miterlimit="10"/>
<path d="M73.7894 299.16H87.5554V284.922H73.7894V299.16Z" fill="white" stroke="#263238" stroke-width="0.286104" stroke-miterlimit="10"/>
<path d="M83.3266 284.805H201.02V270.244H83.3266V284.805Z" fill="#263238" stroke="#263238" stroke-width="0.286104" stroke-miterlimit="10"/>
<path d="M18.5573 284.805H136.25V270.244H18.5573V284.805Z" fill="white" stroke="#263238" stroke-width="0.286104" stroke-miterlimit="10"/>
<path d="M135.436 274.124H106.695" stroke="#263238" stroke-width="0.286104" stroke-miterlimit="10"/>
<path d="M129.771 277.357H88.0726" stroke="#263238" stroke-width="0.286104" stroke-miterlimit="10"/>
<path d="M113.173 280.272H120.461" stroke="#263238" stroke-width="0.286104" stroke-miterlimit="10"/>
<path d="M123.293 280.272H135.035" stroke="#263238" stroke-width="0.286104" stroke-miterlimit="10"/>
<path d="M19.2491 279.626H56.0921" stroke="#263238" stroke-width="0.286104" stroke-miterlimit="10"/>
<path d="M22.4886 277.68H27.3446" stroke="#263238" stroke-width="0.286104" stroke-miterlimit="10"/>
<path d="M50.0205 277.357H33.8234" stroke="#263238" stroke-width="0.286104" stroke-miterlimit="10"/>
<path d="M19.2491 273.477H33.4225" stroke="#263238" stroke-width="0.286104" stroke-miterlimit="10"/>
<path d="M199.403 276.386H192.116" stroke="#8A8A8A" stroke-width="0.286104" stroke-miterlimit="10"/>
<path d="M201.02 279.626H178.35" stroke="#8A8A8A" stroke-width="0.286104" stroke-miterlimit="10"/>
<path d="M137.466 281.566H148.393" stroke="#8A8A8A" stroke-width="0.286104" stroke-miterlimit="10"/>
<path d="M136.25 276.386H165.8" stroke="#8A8A8A" stroke-width="0.286104" stroke-miterlimit="10"/>
<path d="M191.308 272.184H174.302" stroke="#8A8A8A" stroke-width="0.286104" stroke-miterlimit="10"/>
<path d="M72.2828 284.482H86.0488V270.244H72.2828V284.482Z" fill="white" stroke="#263238" stroke-width="0.286104" stroke-miterlimit="10"/>
<path d="M88.1115 270.121H205.805V255.56H88.1115V270.121Z" fill="#263238" stroke="#263238" stroke-width="0.286104" stroke-miterlimit="10"/>
<path d="M23.3421 270.121H141.035V255.56H23.3421V270.121Z" fill="white" stroke="#263238" stroke-width="0.286104" stroke-miterlimit="10"/>
<path d="M140.22 259.439H111.479" stroke="#263238" stroke-width="0.286104" stroke-miterlimit="10"/>
<path d="M134.55 262.672H92.8574" stroke="#263238" stroke-width="0.286104" stroke-miterlimit="10"/>
<path d="M117.952 265.589H125.239" stroke="#263238" stroke-width="0.286104" stroke-miterlimit="10"/>
<path d="M128.077 265.589H139.813" stroke="#263238" stroke-width="0.286104" stroke-miterlimit="10"/>
<path d="M24.0339 264.942H60.8704" stroke="#263238" stroke-width="0.286104" stroke-miterlimit="10"/>
<path d="M27.2734 262.996H32.1294" stroke="#263238" stroke-width="0.286104" stroke-miterlimit="10"/>
<path d="M54.7989 262.672H38.6082" stroke="#263238" stroke-width="0.286104" stroke-miterlimit="10"/>
<path d="M24.0339 258.793H38.2008" stroke="#263238" stroke-width="0.286104" stroke-miterlimit="10"/>
<path d="M204.182 261.702H196.894" stroke="#8A8A8A" stroke-width="0.286104" stroke-miterlimit="10"/>
<path d="M205.804 264.942H183.135" stroke="#8A8A8A" stroke-width="0.286104" stroke-miterlimit="10"/>
<path d="M142.244 266.882H153.178" stroke="#8A8A8A" stroke-width="0.286104" stroke-miterlimit="10"/>
<path d="M141.029 261.702H170.585" stroke="#8A8A8A" stroke-width="0.286104" stroke-miterlimit="10"/>
<path d="M196.086 257.499H179.087" stroke="#8A8A8A" stroke-width="0.286104" stroke-miterlimit="10"/>
<path d="M77.0612 269.798H90.8271V255.56H77.0612V269.798Z" fill="white" stroke="#263238" stroke-width="0.286104" stroke-miterlimit="10"/>
<path d="M84.4581 255.43L202.151 255.43V240.869H84.4581V255.43Z" fill="#263238" stroke="#263238" stroke-width="0.286104" stroke-miterlimit="10"/>
<path d="M19.6888 255.43L137.382 255.43V240.869H19.6888V255.43Z" fill="white" stroke="#263238" stroke-width="0.286104" stroke-miterlimit="10"/>
<path d="M136.574 244.755H107.826" stroke="#263238" stroke-width="0.286104" stroke-miterlimit="10"/>
<path d="M130.903 247.988H89.2042" stroke="#263238" stroke-width="0.286104" stroke-miterlimit="10"/>
<path d="M114.305 250.898H121.592" stroke="#263238" stroke-width="0.286104" stroke-miterlimit="10"/>
<path d="M124.424 250.898H136.166" stroke="#263238" stroke-width="0.286104" stroke-miterlimit="10"/>
<path d="M20.3807 250.251H57.2237" stroke="#263238" stroke-width="0.286104" stroke-miterlimit="10"/>
<path d="M23.6201 248.311H28.4825" stroke="#263238" stroke-width="0.286104" stroke-miterlimit="10"/>
<path d="M51.1521 247.988H34.955" stroke="#263238" stroke-width="0.286104" stroke-miterlimit="10"/>
<path d="M20.3807 244.109H34.5541" stroke="#263238" stroke-width="0.286104" stroke-miterlimit="10"/>
<path d="M200.535 247.018H193.248" stroke="#8A8A8A" stroke-width="0.286104" stroke-miterlimit="10"/>
<path d="M202.151 250.251H179.482" stroke="#8A8A8A" stroke-width="0.286104" stroke-miterlimit="10"/>
<path d="M138.597 252.198H149.525" stroke="#8A8A8A" stroke-width="0.286104" stroke-miterlimit="10"/>
<path d="M137.382 247.018H166.931" stroke="#8A8A8A" stroke-width="0.286104" stroke-miterlimit="10"/>
<path d="M192.439 242.809H175.434" stroke="#8A8A8A" stroke-width="0.286104" stroke-miterlimit="10"/>
<path d="M73.4143 255.107H87.1803V240.869H73.4143V255.107Z" fill="white" stroke="#263238" stroke-width="0.286104" stroke-miterlimit="10"/>
<path d="M295.83 76.699H183.167V299.489H295.83V76.699Z" fill="#263238" stroke="#263238" stroke-width="0.286104" stroke-miterlimit="10"/>
<path d="M283.648 77.7145V116.284" stroke="#8A8A8A" stroke-width="0.286104" stroke-miterlimit="10"/>
<path d="M290.754 87.355V103.597" stroke="#8A8A8A" stroke-width="0.286104" stroke-miterlimit="10"/>
<path d="M287.204 83.8053V141.656" stroke="#8A8A8A" stroke-width="0.286104" stroke-miterlimit="10"/>
<path d="M293.295 76.699V152.318" stroke="#8A8A8A" stroke-width="0.286104" stroke-miterlimit="10"/>
<path d="M284.663 298.979V259.394" stroke="#8A8A8A" stroke-width="0.286104" stroke-miterlimit="10"/>
<path d="M288.724 299.49V290.858" stroke="#8A8A8A" stroke-width="0.286104" stroke-miterlimit="10"/>
<path d="M289.739 287.812V252.799" stroke="#8A8A8A" stroke-width="0.286104" stroke-miterlimit="10"/>
<path d="M285.174 254.319V196.972" stroke="#8A8A8A" stroke-width="0.286104" stroke-miterlimit="10"/>
<path d="M280.098 76.6989H167.436V299.489H280.098V76.6989Z" fill="#92E3A9" stroke="#263238" stroke-width="0.286104" stroke-miterlimit="10"/>
<path d="M270.457 92.4632C268.255 92.4582 266.139 91.6106 264.542 90.0944C262.945 88.5782 261.99 86.5084 261.871 84.3097H185.676C185.56 86.5117 184.603 88.5852 183.003 90.1024C181.403 91.6196 179.281 92.4646 177.076 92.4632C176.566 92.462 176.058 92.4144 175.557 92.321V279.329C176.058 279.239 176.567 279.191 177.076 279.187C178.566 279.187 180.03 279.572 181.327 280.306C182.623 281.04 183.707 282.098 184.473 283.375C185.24 284.652 185.662 286.107 185.7 287.596C185.737 289.085 185.388 290.559 184.687 291.873H262.847C262.144 290.559 261.793 289.085 261.83 287.595C261.866 286.105 262.288 284.65 263.055 283.372C263.822 282.094 264.907 281.036 266.204 280.303C267.502 279.569 268.967 279.185 270.457 279.187C270.967 279.191 271.475 279.239 271.977 279.329V92.2887C271.477 92.3929 270.968 92.4513 270.457 92.4632ZM221.484 221.84C203.684 221.84 189.258 206.167 189.258 186.827C189.258 167.488 203.684 151.808 221.484 151.808C239.285 151.808 253.711 167.488 253.711 186.827C253.711 206.167 239.279 221.84 221.484 221.84Z" fill="white" stroke="#263238" stroke-width="0.286104" stroke-miterlimit="10"/>
<path d="M295.623 174.645H167.94V197.483H295.623V174.645Z" fill="white" stroke="#263238" stroke-width="0.286104" stroke-miterlimit="10"/>
<path d="M295.623 174.645H280.344V197.483H295.623V174.645Z" fill="#3D3D3D" stroke="#8A8A8A" stroke-width="0.286104" stroke-miterlimit="10"/>
<path d="M44.408 285.633L40.6449 291.278L33.2931 297.097V299.496H58.4391L57.5792 291.09V287.327C57.5792 287.327 47.3177 282.892 44.408 285.633Z" fill="#263238" stroke="#263238" stroke-width="0.286104" stroke-miterlimit="10"/>
<path d="M58.2128 297.266H33.2931V299.49H58.4391L58.2128 297.266Z" fill="white" stroke="#263238" stroke-width="0.286104" stroke-miterlimit="10"/>
<path d="M85.9323 285.633L89.9412 291.278L97.7844 297.097V299.496H70.983L71.8947 291.09V287.327C71.8947 287.327 82.8351 282.892 85.9323 285.633Z" fill="#263238" stroke="#263238" stroke-width="0.286104" stroke-miterlimit="10"/>
<path d="M71.2223 297.266H97.7844V299.49H70.983L71.2223 297.266Z" fill="white" stroke="#263238" stroke-width="0.286104" stroke-miterlimit="10"/>
<path d="M33.1897 168.554C33.1897 168.554 39.0608 234.817 39.4811 247.4C39.9013 259.983 43.8844 276.969 43.8844 276.969L42.0286 279.904L43.9167 286.403C43.9167 286.403 48.32 285.355 50.6283 286.196C52.9367 287.036 57.0943 288.084 57.0943 288.084C57.0943 288.084 59.1957 282.42 59.4026 279.904C59.6095 277.389 56.9003 271.305 56.9003 271.305L56.48 195.608H60.2561L69.8904 275.708L69.4701 280.532L71.3581 288.084C71.3581 288.084 82.4731 285.775 83.3072 285.562C83.9444 285.466 84.5956 285.54 85.1953 285.775C85.1953 285.775 86.4884 283.047 86.4884 282.206C86.4884 281.366 84.8073 276.549 84.8073 276.549L84.387 239.014V167.927L33.222 166.88L33.1897 168.554Z" fill="#6787E7" stroke="#263238" stroke-width="0.286104" stroke-miterlimit="10"/>
<path d="M82.583 197.819L83.7275 222.888L78.8457 223.328V226.438L82.3955 226.658" stroke="#263238" stroke-width="0.286104" stroke-linecap="round" stroke-linejoin="round"/>
<path d="M81.7295 179.172L82.4731 195.362" stroke="#263238" stroke-width="0.286104" stroke-linecap="round" stroke-linejoin="round"/>
<path d="M79.5957 241.316C79.7574 245.797 80.113 249.683 80.8436 249.954C82.6218 250.601 83.0615 251.286 83.0615 251.286" stroke="#263238" stroke-width="0.286104" stroke-linecap="round" stroke-linejoin="round"/>
<path d="M79.5311 227.324C79.5311 227.324 79.4147 232.988 79.5311 238.652" stroke="#263238" stroke-width="0.286104" stroke-linecap="round" stroke-linejoin="round"/>
<path d="M51.3331 193.371L60.2044 194.037" stroke="#263238" stroke-width="0.286104" stroke-linecap="round" stroke-linejoin="round"/>
<path d="M54.2169 172.072L54.4368 184.493L58.4327 187.383" stroke="#263238" stroke-width="0.286104" stroke-linecap="round" stroke-linejoin="round"/>
<path d="M58.4327 176.508L59.0987 191.819" stroke="#263238" stroke-width="0.286104" stroke-linecap="round" stroke-linejoin="round"/>
<path d="M55.6912 247.523L55.9886 262.828" stroke="#263238" stroke-width="0.286104" stroke-linecap="round" stroke-linejoin="round"/>
<path d="M54.6566 194.257L55.62 243.74" stroke="#263238" stroke-width="0.286104" stroke-linecap="round" stroke-linejoin="round"/>
<path d="M72.6318 178.505C72.6318 178.505 75.742 184.939 81.5096 182.941" stroke="#263238" stroke-width="0.286104" stroke-linecap="round" stroke-linejoin="round"/>
<path d="M41.5695 178.505C41.5695 178.505 39.3452 183.387 35.7954 184.053" stroke="#263238" stroke-width="0.286104" stroke-linecap="round" stroke-linejoin="round"/>
<path d="M54.7471 94.6165L48.0807 96.6338L42.4941 168.276L71.9594 168.748L73.5113 95.082L54.7471 94.6165Z" fill="white" stroke="#263238" stroke-width="0.286104" stroke-miterlimit="10"/>
<path d="M52.3741 91.8168H50.8094L50.0205 93.86L50.3373 111.156L60.088 104.872L69.677 113.989L70.9378 93.388C70.9378 93.388 71.4098 92.444 69.9938 91.8168C68.5778 91.1896 68.1057 91.028 68.1057 91.028L52.3741 91.8168Z" fill="white" stroke="#263238" stroke-width="0.286104" stroke-miterlimit="10"/>
<path d="M51.4366 86.7731L51.9086 93.8856C51.9086 93.8856 56.4347 103.791 59.4543 105.207C62.4739 106.624 69.3666 93.4136 69.3666 93.4136L68.8946 85.551H51.2749L51.4366 86.7731Z" fill="white" stroke="#263238" stroke-width="0.286104" stroke-miterlimit="10"/>
<path d="M51.4365 86.7733C51.4365 86.7733 57.0942 99.0586 60.3983 99.5177C63.7024 99.9768 69.0497 88.1894 69.0497 87.0902C69.0497 85.991 51.4365 86.7733 51.4365 86.7733Z" fill="#263238" stroke="#263238" stroke-width="0.286104" stroke-miterlimit="10"/>
<path d="M48.4493 76.2466C48.4493 76.2466 45.7207 74.0094 45.3456 77.1131C44.9706 80.2167 48.9472 83.0747 48.9472 83.0747L48.4493 76.2466Z" fill="white" stroke="#263238" stroke-width="0.286104" stroke-miterlimit="10"/>
<path d="M70.6274 76.2466C70.6274 76.2466 73.3625 74.0094 73.7375 77.1131C74.1125 80.2167 70.136 83.0747 70.136 83.0747L70.6274 76.2466Z" fill="white" stroke="#263238" stroke-width="0.286104" stroke-miterlimit="10"/>
<path d="M47.9514 76.6155C47.9514 76.6155 49.445 85.3122 50.6865 86.9222C51.9279 88.5322 55.7752 94.1253 59.3767 95.121C62.9782 96.1168 68.5713 89.1594 69.6834 86.7994C70.7955 84.4393 71.177 74.0097 71.177 74.0097L71.0542 68.4232C71.0542 68.4232 70.6792 64.3238 69.0627 62.0866C67.4462 59.8493 60.4953 58.3622 55.9045 60.1338C51.3137 61.9055 47.46 69.9103 47.46 71.5268C47.46 73.1433 47.9514 76.6155 47.9514 76.6155Z" fill="white" stroke="#263238" stroke-width="0.286104" stroke-miterlimit="10"/>
<path d="M56.1503 66.9294C56.1503 66.9294 52.2707 71.4038 50.5637 72.2702C49.788 72.6277 49.0402 73.0426 48.3265 73.5117L48.5722 78.7297L46.5871 71.6172C46.5871 71.6172 44.1042 64.0714 44.615 60.7221C45.1258 57.3727 56.4089 54.1397 60.3855 52.8983C64.362 51.6568 65.8492 54.1397 68.4549 56.1312C71.0607 58.1227 73.7958 59.6099 73.4273 62.9657C73.1062 65.2999 72.5227 67.5904 71.6879 69.7938C71.6879 69.7938 71.0413 79.1047 71.0413 79.4927C71.0413 79.8806 69.9227 70.3046 69.9227 70.3046C69.2886 70.1378 68.7164 69.7906 68.2757 69.3052C67.835 68.8197 67.5446 68.2167 67.4398 67.5695C67.1097 65.9311 66.8936 64.2719 66.7932 62.6036C66.7932 62.6036 65.1767 65.9595 63.5602 67.5695C61.9437 69.1795 57.9737 70.6731 57.3529 70.5503C56.7322 70.4274 57.9995 67.4466 57.9995 67.4466L55.7623 69.561L56.1503 66.9294Z" fill="#263238" stroke="#263238" stroke-width="0.286104" stroke-miterlimit="10"/>
<path d="M57.146 84.3161C57.761 84.8633 58.4771 85.285 59.2539 85.5575C60.2496 85.8032 61.989 84.3161 62.4869 83.941" stroke="#263238" stroke-width="0.286104" stroke-miterlimit="10"/>
<path d="M56.771 87.7949C56.771 87.7949 59.6289 90.0257 63.4762 87.4199L56.771 87.7949Z" fill="white"/>
<path d="M56.771 87.7949C56.771 87.7949 59.6289 90.0257 63.4762 87.4199" stroke="#263238" stroke-width="0.286104" stroke-miterlimit="10"/>
<path d="M54.8441 79.8415C55.2905 79.8415 55.6524 79.2307 55.6524 78.4772C55.6524 77.7237 55.2905 77.1129 54.8441 77.1129C54.3978 77.1129 54.0359 77.7237 54.0359 78.4772C54.0359 79.2307 54.3978 79.8415 54.8441 79.8415Z" fill="#263238"/>
<path d="M64.2843 79.8415C64.7307 79.8415 65.0926 79.2307 65.0926 78.4772C65.0926 77.7237 64.7307 77.1129 64.2843 77.1129C63.8379 77.1129 63.4761 77.7237 63.4761 78.4772C63.4761 79.2307 63.8379 79.8415 64.2843 79.8415Z" fill="#263238"/>
<path d="M62.3575 74.1326C63.1581 73.7132 64.0712 73.5592 64.965 73.6929C65.8589 73.8265 66.687 74.2409 67.3298 74.8761" stroke="#263238" stroke-width="0.286104" stroke-miterlimit="10"/>
<path d="M55.7751 74.0098C55.1426 73.635 54.3984 73.4945 53.6728 73.6127C52.9471 73.7309 52.286 74.1003 51.8051 74.6563" stroke="#263238" stroke-width="0.286104" stroke-miterlimit="10"/>
<path d="M64.5947 80.8373L67.3298 80.2166" stroke="#263238" stroke-width="0.286104" stroke-miterlimit="10"/>
<path d="M52.0508 80.094L54.288 80.8376" stroke="#263238" stroke-width="0.286104" stroke-miterlimit="10"/>
<path d="M50.1757 109.922L48.7596 177.814L32.5948 177.032L31.6184 175.163C31.6184 175.163 29.42 175.163 29.1032 173.43C28.7863 171.697 31.3016 133.645 31.3016 133.645L17.458 132.384L26.7366 114.28C26.7366 114.28 29.5687 101.697 30.1959 100.753C30.8231 99.8088 50.486 93.0454 50.486 93.0454L50.1757 109.922Z" fill="#F4BC54" stroke="#263238" stroke-width="0.286104" stroke-miterlimit="10"/>
<path d="M70.3107 92.6444L68.0023 177.995L88.758 177.781L89.5986 174.639L91.6935 173.171V166.46C91.6935 163.104 87.7105 138.779 87.7105 138.779C87.7105 138.779 98.1983 137.311 98.4052 135.216C98.6121 133.121 94.0019 101.457 91.4866 99.1491C88.9714 96.8408 70.3107 92.6444 70.3107 92.6444Z" fill="#F4BC54" stroke="#263238" stroke-width="0.286104" stroke-miterlimit="10"/>
<path d="M75.5156 141.314L78.2766 149.267C78.2766 149.267 79.8737 145.426 79.6344 143.008C79.3952 140.589 79.3887 139.859 78.6645 139.736C77.9404 139.613 75.6514 139.135 75.5156 141.314Z" fill="white" stroke="#263238" stroke-width="0.286104" stroke-miterlimit="10"/>
<path d="M47.9255 120.648L56.7645 138.21L66.0884 133.606L58.2193 115.081L47.9255 120.648Z" fill="#92E3A9" stroke="#263238" stroke-width="0.286104" stroke-miterlimit="10"/>
<path d="M63.2562 132.901C63.1504 132.622 63.1589 132.312 63.2799 132.038C63.4009 131.765 63.6247 131.55 63.9028 131.44C63.9544 131.434 64.0065 131.434 64.058 131.44L58.2387 117.803C58.1857 117.931 58.1047 118.045 58.0018 118.136C57.8988 118.228 57.7764 118.296 57.6438 118.334C57.445 118.38 57.2368 118.365 57.0465 118.291C56.8562 118.218 56.6925 118.088 56.5769 117.92L50.4343 121.224C50.5135 121.343 50.5725 121.474 50.6089 121.612C50.6946 121.859 50.6967 122.128 50.615 122.377C50.5332 122.626 50.3721 122.841 50.1562 122.989L56.2924 135.139C56.4021 135.017 56.543 134.927 56.6998 134.88C56.9601 134.831 57.2295 134.876 57.4594 135.007C57.6894 135.139 57.8649 135.348 57.9542 135.598L63.2756 132.973L63.2562 132.901ZM58.0059 129.759C56.8744 130.076 55.6523 129.242 55.2708 127.89C54.8893 126.539 55.4906 125.181 56.6157 124.864C57.7408 124.547 58.9693 125.382 59.3508 126.733C59.7323 128.084 59.131 129.436 58.0059 129.759Z" fill="white" stroke="#263238" stroke-width="0.286104" stroke-miterlimit="10"/>
<path d="M51.7081 118.489L56.4283 137.57L66.541 135.151L62.9783 115.346L51.7081 118.489Z" fill="#92E3A9" stroke="#263238" stroke-width="0.286104" stroke-miterlimit="10"/>
<path d="M63.9352 133.845C63.9133 133.697 63.9208 133.546 63.9574 133.401C63.9939 133.256 64.0588 133.119 64.1484 132.999C64.2379 132.879 64.3502 132.777 64.479 132.701C64.6077 132.624 64.7504 132.574 64.8987 132.552C64.9502 132.546 65.0023 132.546 65.0538 132.552L62.4675 117.972C62.3865 118.083 62.282 118.176 62.1614 118.243C62.0407 118.31 61.9068 118.35 61.7691 118.359C61.5636 118.358 61.3631 118.296 61.1928 118.181C61.0225 118.066 60.8901 117.903 60.8122 117.713L54.0488 119.62C54.1022 119.754 54.1328 119.896 54.1393 120.041C54.1676 120.301 54.1094 120.564 53.9739 120.788C53.8384 121.012 53.633 121.186 53.3893 121.282L56.6546 134.492C56.7879 134.399 56.9448 134.345 57.1072 134.337C57.3713 134.343 57.6243 134.445 57.8193 134.623C58.0142 134.801 58.138 135.044 58.1676 135.307L63.9417 133.929L63.9352 133.845ZM59.4867 129.604C58.3163 129.668 57.3076 128.582 57.2365 127.179C57.1654 125.776 58.0512 124.593 59.2216 124.528C60.3919 124.463 61.3941 125.556 61.4717 126.959C61.5493 128.362 60.6829 129.546 59.4867 129.604Z" fill="white" stroke="#263238" stroke-width="0.286104" stroke-miterlimit="10"/>
<path d="M57.3011 117.015L56.2148 136.639L66.5927 137.298L68.998 117.312L57.3011 117.015Z" fill="#92E3A9" stroke="#263238" stroke-width="0.286104" stroke-miterlimit="10"/>
<path d="M64.4848 135.274C64.5326 134.978 64.6952 134.713 64.9373 134.536C65.1795 134.36 65.4816 134.286 65.778 134.33C65.832 134.343 65.8842 134.362 65.9332 134.388L67.7049 119.672C67.5954 119.757 67.4682 119.816 67.3328 119.845C67.1974 119.874 67.0572 119.872 66.9225 119.84C66.7262 119.781 66.5522 119.665 66.423 119.505C66.2939 119.346 66.2156 119.152 66.1983 118.948L59.2086 118.773C59.2211 118.914 59.208 119.057 59.1698 119.193C59.121 119.451 58.9889 119.686 58.7938 119.861C58.5987 120.036 58.3514 120.142 58.09 120.163L57.34 133.742C57.4984 133.696 57.6665 133.696 57.8249 133.742C58.0758 133.828 58.2873 134.001 58.4204 134.23C58.5535 134.46 58.5992 134.729 58.5491 134.99L64.4784 135.365C64.4728 135.335 64.475 135.303 64.4848 135.274ZM61.4976 129.927C60.366 129.642 59.7194 128.31 60.0621 126.946C60.4048 125.582 61.601 124.709 62.739 125.006C63.877 125.304 64.5107 126.629 64.1745 127.994C63.8382 129.358 62.6356 130.211 61.4976 129.927Z" fill="white" stroke="#263238" stroke-width="0.286104" stroke-miterlimit="10"/>
<path d="M78.6646 136.225C77.5214 136.053 76.3899 135.811 75.2764 135.5C74.7915 135.261 71.2805 134.046 68.4937 132.597C65.7069 131.149 63.4114 132.597 59.4414 133.321C55.4713 134.046 54.3527 134.291 54.3527 135.261C54.3527 136.231 56.4153 136.47 56.4153 136.47C56.4153 136.47 54.4755 136.71 55.4454 138.042C56.0167 138.833 56.8218 139.426 57.7473 139.736C58.2835 140.624 58.9808 141.405 59.8034 142.038C61.0126 142.885 61.8596 143.615 61.8596 143.615C62.6178 144.56 63.626 145.272 64.7693 145.671C66.4634 146.156 76.0265 143.247 76.0265 143.247C76.0265 143.247 78.9297 144.094 79.6604 142.522C80.391 140.951 78.6646 136.225 78.6646 136.225Z" fill="white" stroke="#263238" stroke-width="0.286104" stroke-linecap="round" stroke-linejoin="round"/>
<path d="M56.3894 136.47C56.3894 136.47 63.6507 136.225 65.9525 135.5" stroke="#263238" stroke-width="0.286104" stroke-linecap="round" stroke-linejoin="round"/>
<path d="M57.7214 139.736C59.7229 140.056 61.7466 140.219 63.7736 140.221C64.9671 140.197 66.1342 139.865 67.1617 139.257" stroke="#263238" stroke-width="0.286104" stroke-linecap="round" stroke-linejoin="round"/>
<path d="M60.7798 142.768C60.7798 142.768 65.015 144.062 67.8923 143.131" stroke="#263238" stroke-width="0.286104" stroke-linecap="round" stroke-linejoin="round"/>
<path d="M82.2596 115.501L84.568 133.535L78.0632 135.423C78.0632 135.423 79.1172 140.874 78.7098 143.395C78.4364 145.34 78.296 147.302 78.2895 149.266C78.2895 149.266 85.4021 146.958 90.0317 146.538C94.6613 146.117 98.6314 144.022 99.8858 140.667C101.14 137.311 97.1636 125.795 97.1636 125.795" fill="#F4BC54"/>
<path d="M82.2596 115.501L84.568 133.535L78.0632 135.423C78.0632 135.423 79.1172 140.874 78.7098 143.395C78.4364 145.34 78.296 147.302 78.2895 149.266C78.2895 149.266 85.4021 146.958 90.0317 146.538C94.6613 146.117 98.6314 144.022 99.8858 140.667C101.14 137.311 97.1636 125.795 97.1636 125.795" stroke="#263238" stroke-width="0.286104" stroke-miterlimit="10"/>
<path d="M81.3997 134.893L84.568 133.535L92.5857 131.382" stroke="#6B6B6B" stroke-width="0.286104" stroke-miterlimit="10"/>
<path d="M84.568 133.535L82.0786 112.236" stroke="#6B6B6B" stroke-width="0.286104" stroke-miterlimit="10"/>
<path d="M43.5675 133.121C43.5675 133.121 42.1191 126.707 41.5113 125.491C40.9035 124.276 37.6318 127.677 37.3925 128.763C37.1533 129.849 42.5976 133.244 43.5675 133.121Z" fill="white" stroke="#263238" stroke-width="0.286104" stroke-miterlimit="10"/>
<path d="M40.4056 119.62L37.2761 123.293C37.2761 123.293 38.149 128.672 38.8473 128.886C39.5457 129.099 44.5374 125.252 44.5374 125.252L40.4056 119.62Z" fill="white" stroke="#263238" stroke-width="0.286104" stroke-miterlimit="10"/>
<path d="M46.2185 112.256C46.2185 112.256 40.7677 117.583 40.3992 119.64C40.0306 121.696 43.9102 125.575 44.3951 125.937C44.8801 126.3 48.3911 123.513 48.5074 123.028C48.6238 122.543 46.212 118.793 46.212 118.793C47.323 119.337 48.4024 119.943 49.445 120.61C49.8071 120.972 52.109 124.243 52.956 123.998C53.8031 123.752 53.441 122.181 52.956 120.732C52.4711 119.284 47.266 114.435 47.266 114.435L50.777 115.282C50.777 115.282 54.8958 119.278 55.8657 119.278C56.8356 119.278 56.3506 118.308 55.7428 117.461C55.135 116.614 52.2318 113.225 51.5076 112.378C50.7835 111.531 47.9966 111.046 47.6281 111.046C47.2595 111.046 46.2185 112.256 46.2185 112.256Z" fill="white" stroke="#263238" stroke-width="0.286104" stroke-linecap="round" stroke-linejoin="round"/>
<path d="M46.2185 118.793L44.5244 117.099" stroke="#263238" stroke-width="0.286104" stroke-linecap="round" stroke-linejoin="round"/>
<path d="M42.3455 119.155L46.7035 124.483" stroke="#263238" stroke-width="0.286104" stroke-linecap="round" stroke-linejoin="round"/>
<path d="M37.1533 122.711C37.1533 122.711 38.0003 125.614 38.4853 127.431C38.9702 129.248 43.5675 133.121 43.5675 133.121C43.5675 133.121 37.0304 140.02 31.2176 143.046C25.4047 146.073 18.5766 144.553 16.5205 142.135C14.4643 139.716 15.3113 132.694 17.0054 131.24C18.6995 129.785 28.5536 127.916 30.9783 126.584C33.403 125.252 37.1533 122.711 37.1533 122.711Z" fill="#F4BC54" stroke="#263238" stroke-width="0.286104" stroke-miterlimit="10"/>
<path d="M37.1533 122.711L21.2212 130.496" stroke="#6B6B6B" stroke-width="0.286104" stroke-miterlimit="10"/>
<path d="M35.0842 123.733V116.297" stroke="#6B6B6B" stroke-width="0.286104" stroke-miterlimit="10"/>
<path d="M141.113 287.282C141.113 287.282 139.173 287.831 134 283.997C128.827 280.163 122.775 274.686 122.775 274.686C122.775 274.686 128.75 273.884 131.511 272.43C134.55 270.82 138.106 267.018 138.106 267.018C138.106 267.018 150.152 283.448 165.218 282.355C164.956 283.755 164.345 285.067 163.441 286.168C162.536 287.27 161.368 288.124 160.045 288.653C155.351 290.567 141.113 287.282 141.113 287.282Z" fill="#92E3A9" stroke="#263238" stroke-width="0.286104" stroke-linejoin="round"/>
<path d="M160.659 284.236C160.659 284.236 147.87 280.88 140.957 273.541C140.624 273.632 140.275 273.648 139.936 273.587C139.596 273.527 139.274 273.391 138.993 273.191C138.712 272.99 138.479 272.73 138.311 272.428C138.143 272.126 138.044 271.791 138.022 271.447C135.606 273.715 132.507 275.122 129.209 275.449C129.209 275.449 129.416 276.917 128.789 277.337C128.789 277.337 138.643 285.937 144.307 286.984C148.238 287.771 152.262 287.988 156.256 287.631C157.981 287.449 159.6 286.714 160.873 285.536C160.873 285.536 158.771 285.077 160.659 284.236ZM148.581 283.764C148.122 284.896 145.839 285.057 143.479 284.075C141.119 283.092 139.6 281.43 140.026 280.305C140.453 279.18 142.768 279.012 145.128 279.995C147.488 280.977 149.033 282.639 148.581 283.764Z" fill="white" stroke="#263238" stroke-width="0.286104" stroke-miterlimit="10"/>
<path d="M139.173 286.939C139.173 286.939 145.768 289.654 150.973 289.654C154.019 289.672 157.057 289.335 160.026 288.652C160.026 288.652 158.247 289.622 155.357 287.766C153.708 286.706 152.648 284.346 152.648 284.346C148.298 285.83 143.763 286.703 139.173 286.939Z" fill="#92E3A9" stroke="#263238" stroke-width="0.286104" stroke-linejoin="round"/>
<path d="M213.26 259.323C213.26 259.323 225.267 255.372 232.289 250.685L239.757 262.97C239.757 262.97 221.898 276.878 217.21 273.218L213.26 259.323Z" fill="#92E3A9" stroke="#263238" stroke-width="0.286104" stroke-linejoin="round"/>
<path d="M234.636 262.252C234.651 261.898 234.781 261.558 235.006 261.284C235.231 261.01 235.539 260.817 235.884 260.733L232.567 255.23C232.29 255.325 232 255.373 231.707 255.373C231.352 255.392 230.997 255.324 230.674 255.175C230.35 255.026 230.068 254.801 229.851 254.519C223.65 258.858 214.139 261.082 214.139 261.082L216.04 268.55C216.04 268.55 215.749 272.65 220.87 271.621C224.84 270.826 232.308 265.802 235.483 263.61C235.234 263.48 235.024 263.285 234.875 263.047C234.726 262.808 234.643 262.534 234.636 262.252ZM221.84 267.748C219.596 268.259 217.508 267.496 217.172 266.041C216.835 264.587 218.387 262.983 220.631 262.466C222.875 261.948 224.97 262.718 225.306 264.173C225.642 265.628 224.09 267.231 221.84 267.748Z" fill="white" stroke="#263238" stroke-width="0.286104" stroke-miterlimit="10"/>
<path d="M211.501 253.762L219.7 270.011C219.7 270.011 216.919 271.473 217.21 273.244L209.309 257.726C209.309 257.726 208.281 255.224 211.501 253.762Z" fill="#92E3A9" stroke="#263238" stroke-width="0.286104" stroke-linejoin="round"/>
<path d="M210.007 259.09L216.098 271.039C216.357 270.465 216.817 270.005 217.391 269.746L210.622 257.862L210.007 259.09Z" fill="white" stroke="#263238" stroke-width="0.286104" stroke-miterlimit="10"/>
<path d="M122.523 168.625L122.652 199.772L138.908 199.701L138.959 167.921L122.523 168.625Z" fill="#92E3A9" stroke="#263238" stroke-width="0.286104" stroke-miterlimit="10"/>
<path d="M135.345 196.713C135.359 196.481 135.419 196.253 135.522 196.044C135.625 195.835 135.768 195.649 135.944 195.496C136.12 195.343 136.325 195.227 136.546 195.154C136.767 195.081 137.001 195.053 137.233 195.071C137.315 195.088 137.395 195.112 137.472 195.142L137.44 171.432C137.296 171.561 137.125 171.657 136.939 171.712C136.754 171.767 136.558 171.779 136.367 171.748C136.082 171.678 135.824 171.527 135.624 171.312C135.424 171.097 135.291 170.829 135.242 170.539L125.439 170.96C125.471 171.161 125.471 171.366 125.439 171.567C125.407 171.935 125.252 172.282 125 172.553C124.749 172.823 124.414 173.002 124.049 173.061V195.045C124.287 194.95 124.546 194.92 124.799 194.961C125.202 195.078 125.552 195.332 125.788 195.679C126.024 196.026 126.132 196.444 126.092 196.862L135.377 196.823C135.345 196.772 135.339 196.739 135.345 196.713ZM129.965 188.528C128.161 188.198 126.972 186.148 127.308 183.943C127.644 181.738 129.396 180.219 131.187 180.555C132.979 180.891 134.188 182.935 133.845 185.139C133.502 187.344 131.75 188.864 129.965 188.528Z" fill="white" stroke="#263238" stroke-width="0.286104" stroke-miterlimit="10"/>
<path d="M274.518 36.8367L251.848 59.5063L263.681 71.3389L286.946 48.346L274.518 36.8367Z" fill="#92E3A9" stroke="#263238" stroke-width="0.286104" stroke-miterlimit="10"/>
<path d="M263.28 66.5991C263.461 66.4378 263.672 66.3145 263.9 66.2364C264.129 66.1583 264.372 66.1271 264.613 66.1446C264.854 66.1621 265.09 66.2279 265.305 66.3382C265.52 66.4485 265.711 66.601 265.867 66.7866C265.915 66.8598 265.957 66.9378 265.989 67.0193L283.286 49.7876C283.086 49.7773 282.89 49.7219 282.715 49.6256C282.539 49.5293 282.387 49.3946 282.271 49.2315C282.116 48.972 282.04 48.6728 282.052 48.3706C282.065 48.0685 282.166 47.7767 282.342 47.531L274.919 40.6448C274.792 40.8138 274.642 40.964 274.473 41.0909C274.18 41.3348 273.813 41.4731 273.432 41.4836C273.051 41.4942 272.677 41.3764 272.371 41.1491L256.291 57.0553C256.532 57.1555 256.74 57.3212 256.892 57.5338C257.104 57.9126 257.177 58.354 257.096 58.7808C257.016 59.2076 256.788 59.5925 256.452 59.868L263.209 66.6314L263.28 66.5991ZM265.349 56.7191C264.276 55.1608 264.916 52.8007 266.772 51.4494C268.628 50.098 271.007 50.279 272.074 51.8373C273.141 53.3956 272.501 55.7621 270.645 57.1071C268.789 58.452 266.397 58.2515 265.349 56.6868V56.7191Z" fill="white" stroke="#263238" stroke-width="0.286104" stroke-miterlimit="10"/>
<path d="M118.327 131.866L149.868 119.394L143.356 102.931L111.098 115.469L118.327 131.866Z" fill="#92E3A9" stroke="#263238" stroke-width="0.286104" stroke-miterlimit="10"/>
<path d="M141.733 107.729C140.589 107.981 139.509 107.419 139.322 106.436C139.315 106.343 139.315 106.25 139.322 106.158L115.275 115.585C115.465 115.68 115.631 115.816 115.761 115.984C115.891 116.152 115.981 116.347 116.025 116.555C116.065 116.871 116.013 117.193 115.874 117.48C115.735 117.767 115.516 118.007 115.242 118.172L119.542 128.026C119.745 127.915 119.963 127.834 120.189 127.786C120.575 127.673 120.988 127.692 121.362 127.841C121.736 127.989 122.049 128.26 122.252 128.608L144.553 119.93C144.359 119.733 144.226 119.484 144.171 119.213C144.121 118.755 144.235 118.294 144.493 117.912C144.751 117.531 145.137 117.254 145.581 117.131L141.856 107.723L141.733 107.729ZM135.578 116.452C135.959 118.391 134.349 120.441 131.976 120.978C129.603 121.514 127.379 120.331 126.998 118.391C126.616 116.452 128.226 114.408 130.599 113.865C132.972 113.322 135.196 114.486 135.578 116.452Z" fill="white" stroke="#263238" stroke-width="0.286104" stroke-miterlimit="10"/>
<path d="M229.651 36.733C229.651 36.733 231.591 37.2438 234.086 43.1989C236.582 49.1541 238.975 56.939 238.975 56.939C238.975 56.939 233.427 54.5725 230.31 54.4109C226.87 54.2363 221.872 55.7041 221.872 55.7041C221.872 55.7041 219.933 35.4204 206.425 28.6635C207.365 27.5825 208.564 26.7584 209.91 26.2686C211.256 25.7789 212.705 25.6395 214.12 25.8637C219.098 26.6267 229.651 36.733 229.651 36.733Z" fill="#92E3A9" stroke="#263238" stroke-width="0.286104" stroke-linejoin="round"/>
<path d="M211.3 29.3489C211.3 29.3489 220.573 38.7956 222.765 48.6174C223.097 48.7109 223.404 48.8769 223.664 49.1033C223.924 49.3298 224.131 49.6111 224.27 49.9271C224.408 50.2431 224.475 50.5858 224.465 50.9307C224.455 51.2755 224.369 51.6139 224.213 51.9215C227.449 51.2191 230.827 51.6055 233.821 53.0207C233.821 53.0207 234.39 51.6499 235.147 51.6111C235.147 51.6111 231.073 39.1836 226.741 35.3881C223.759 32.7045 220.408 30.4618 216.79 28.7282C215.214 28.0076 213.448 27.8127 211.753 28.1721C211.753 28.1721 213.376 29.5946 211.3 29.3489ZM221.439 35.9312C222.402 35.2006 224.439 36.248 225.965 38.2784C227.491 40.3087 227.97 42.5459 227 43.283C226.03 44.0201 224 42.9662 222.474 40.9359C220.948 38.9055 220.489 36.6683 221.439 35.9312Z" fill="white" stroke="#263238" stroke-width="0.286104" stroke-miterlimit="10"/>
<path d="M231.144 38.0199C231.144 38.0199 226.864 32.3298 222.39 29.6465C219.788 28.0715 217.013 26.8022 214.12 25.8639C214.12 25.8639 216.143 25.9415 217.676 29.0128C218.549 30.7715 218.258 33.3385 218.258 33.3385C222.749 34.2959 227.086 35.8714 231.144 38.0199Z" fill="#92E3A9" stroke="#263238" stroke-width="0.286104" stroke-linejoin="round"/>
<path d="M62.3252 20.4325L65.4482 31.8772C65.4482 31.8772 49.8395 43.4383 26.2582 40.1989L27.5514 27.8295C27.5514 27.8295 36.7977 29.6788 45.2357 27.9459C53.6738 26.213 62.3252 20.4325 62.3252 20.4325Z" fill="#92E3A9" stroke="#263238" stroke-width="0.286104" stroke-miterlimit="10"/>
<path d="M60.5405 31.3726C60.5731 31.0912 60.6909 30.8265 60.8781 30.6138C61.0653 30.4012 61.313 30.2508 61.588 30.1829L59.7452 25.0942C59.4764 25.1842 59.1947 25.2301 58.9111 25.23C58.4233 25.238 57.9455 25.0908 57.5468 24.8097C54.9604 26.1675 50.1045 28.5341 45.2615 29.5363C40.8501 30.3279 36.351 30.5106 31.89 30.0794C31.7172 30.2645 31.5046 30.4079 31.2682 30.4986C31.0318 30.5894 30.7779 30.6251 30.5256 30.6032L29.9114 37.5347C30.0666 37.5347 30.2282 37.5347 30.3899 37.5347C31.683 37.5347 32.6982 37.9226 32.6982 38.4011C32.6901 38.4779 32.6643 38.5517 32.6228 38.6168C32.5813 38.6819 32.5252 38.7364 32.459 38.7761C47.4405 39.3451 57.9283 34.1659 61.1095 32.3554C60.9407 32.2516 60.8003 32.1074 60.701 31.9359C60.6017 31.7643 60.5465 31.5708 60.5405 31.3726ZM45.7141 34.9871C43.4252 35.4462 41.4208 35.0582 41.2332 34.1206C41.0457 33.1831 42.7463 32.058 45.0352 31.5989C47.3242 31.1398 49.3286 31.5278 49.5161 32.4654C49.7036 33.4029 48.0031 34.528 45.7141 34.9871Z" fill="white" stroke="#263238" stroke-width="0.286104" stroke-miterlimit="10"/>
<path d="M272.914 275.3L276.031 286.745C276.031 286.745 260.429 298.306 236.841 295.067L238.134 282.697C238.134 282.697 247.38 284.547 255.825 282.814C264.269 281.081 272.914 275.3 272.914 275.3Z" fill="#92E3A9" stroke="#263238" stroke-width="0.286104" stroke-miterlimit="10"/>
<path d="M271.123 286.247C271.155 285.965 271.272 285.698 271.459 285.485C271.646 285.271 271.895 285.119 272.171 285.051L270.328 279.975C270.058 280.06 269.777 280.104 269.494 280.105C268.996 280.118 268.507 279.973 268.097 279.691C265.569 281.042 260.687 283.409 255.851 284.411C251.439 285.202 246.94 285.385 242.479 284.954C242.306 285.139 242.094 285.282 241.857 285.373C241.621 285.464 241.367 285.5 241.115 285.478L240.533 292.409C240.688 292.409 240.85 292.409 241.018 292.409C242.311 292.409 243.32 292.791 243.32 293.269C243.312 293.346 243.286 293.42 243.244 293.485C243.203 293.55 243.147 293.605 243.081 293.644C258.062 294.22 268.55 289.04 271.738 287.223C271.561 287.126 271.412 286.985 271.305 286.814C271.198 286.644 271.135 286.448 271.123 286.247ZM256.297 289.855C254.008 290.314 252.004 289.926 251.816 288.995C251.629 288.064 253.329 286.926 255.618 286.467C257.907 286.008 259.911 286.402 260.099 287.333C260.286 288.265 258.586 289.403 256.297 289.855Z" fill="white" stroke="#263238" stroke-width="0.286104" stroke-miterlimit="10"/>
<path d="M109.43 35.0197C109.43 35.0197 121.43 31.069 128.459 26.3812L135.927 38.6665C135.927 38.6665 118.068 52.5877 113.38 48.928L109.43 35.0197Z" fill="#92E3A9" stroke="#263238" stroke-width="0.286104" stroke-linejoin="round"/>
<path d="M130.8 37.9488C130.816 37.594 130.947 37.2541 131.174 36.9801C131.4 36.7061 131.709 36.5129 132.054 36.4293L128.73 30.9268C128.456 31.0218 128.167 31.0699 127.877 31.0691C127.522 31.0881 127.167 31.0204 126.844 30.8717C126.52 30.723 126.238 30.4978 126.021 30.2156C119.82 34.5542 110.309 36.7785 110.309 36.7785L112.21 44.2467C112.21 44.2467 111.919 48.3461 117.04 47.318C121.004 46.5227 128.472 41.4986 131.653 39.3067C131.402 39.1773 131.191 38.9831 131.041 38.7443C130.891 38.5055 130.807 38.2308 130.8 37.9488ZM118.01 43.4449C115.766 43.9557 113.671 43.1927 113.341 41.7379C113.012 40.283 114.557 38.6795 116.801 38.1622C119.044 37.6449 121.139 38.4144 121.476 39.8757C121.812 41.337 120.267 42.9276 118.01 43.4449Z" fill="white" stroke="#263238" stroke-width="0.286104" stroke-miterlimit="10"/>
<path d="M107.671 29.4589L115.87 45.7078C115.87 45.7078 113.089 47.1691 113.38 48.9407L105.472 33.4225C105.472 33.4225 104.451 30.9202 107.671 29.4589Z" fill="#92E3A9" stroke="#263238" stroke-width="0.286104" stroke-linejoin="round"/>
<path d="M106.177 34.7868L112.262 46.7358C112.521 46.1616 112.981 45.7018 113.555 45.4426L106.792 33.5582L106.177 34.7868Z" fill="white" stroke="#263238" stroke-width="0.286104" stroke-miterlimit="10"/>
<path d="M209.826 107.089L187.157 129.759L198.989 141.585L222.26 118.592L209.826 107.089Z" fill="#92E3A9" stroke="#263238" stroke-width="0.286104" stroke-miterlimit="10"/>
<path d="M198.595 136.819C198.775 136.658 198.986 136.535 199.215 136.457C199.444 136.379 199.687 136.347 199.928 136.365C200.169 136.382 200.404 136.448 200.62 136.559C200.835 136.669 201.026 136.821 201.181 137.007C201.228 137.08 201.267 137.158 201.298 137.24L218.613 120.027C218.414 120.019 218.219 119.964 218.044 119.868C217.869 119.771 217.719 119.636 217.605 119.471C217.449 119.212 217.372 118.913 217.383 118.611C217.395 118.309 217.494 118.017 217.669 117.771L210.247 110.897C210.121 111.066 209.971 111.214 209.8 111.337C209.509 111.583 209.142 111.723 208.761 111.735C208.38 111.747 208.005 111.629 207.699 111.402L191.618 127.302C191.86 127.405 192.068 127.572 192.219 127.787C192.432 128.165 192.504 128.607 192.424 129.034C192.344 129.46 192.116 129.845 191.78 130.121L198.504 136.878L198.595 136.819ZM200.658 126.939C199.591 125.375 200.231 123.021 202.087 121.67C203.942 120.318 206.315 120.499 207.382 122.058C208.449 123.616 207.815 125.976 205.953 127.327C204.091 128.679 201.737 128.498 200.658 126.939Z" fill="white" stroke="#263238" stroke-width="0.286104" stroke-miterlimit="10"/>
<path d="M251.266 162.399L282.245 165.632L283.926 149.467L252.34 145.982L251.266 162.399Z" fill="#92E3A9" stroke="#263238" stroke-width="0.286104" stroke-miterlimit="10"/>
<path d="M280.57 152.68C280.341 152.641 280.122 152.557 279.925 152.433C279.729 152.308 279.559 152.146 279.426 151.955C279.293 151.764 279.199 151.549 279.15 151.321C279.102 151.094 279.098 150.859 279.141 150.631C279.169 150.55 279.204 150.472 279.245 150.398L255.663 147.87C255.778 148.027 255.855 148.208 255.89 148.4C255.925 148.591 255.916 148.788 255.864 148.975C255.766 149.246 255.592 149.483 255.362 149.658C255.133 149.832 254.858 149.937 254.571 149.958L253.924 159.767C254.129 159.76 254.333 159.782 254.532 159.832C254.895 159.905 255.223 160.097 255.465 160.378C255.706 160.66 255.847 161.013 255.864 161.383L277.699 163.782C277.628 163.537 277.628 163.277 277.699 163.032C277.855 162.64 278.143 162.315 278.515 162.114C278.886 161.913 279.316 161.849 279.73 161.933L280.686 152.7L280.57 152.68ZM271.854 157.206C271.33 158.965 269.164 159.929 267.011 159.353C264.858 158.778 263.532 156.877 264.056 155.118C264.58 153.359 266.752 152.396 268.906 152.971C271.059 153.547 272.378 155.409 271.854 157.174V157.206Z" fill="white" stroke="#263238" stroke-width="0.286104" stroke-miterlimit="10"/>
<path d="M286.558 191.67C286.558 191.67 288.497 192.181 290.993 198.136C293.489 204.091 295.875 211.876 295.875 211.876C295.875 211.876 290.334 209.509 287.211 209.348C283.777 209.173 278.805 210.641 278.805 210.641C278.805 210.641 276.865 190.357 263.358 183.6C264.301 182.528 265.502 181.713 266.846 181.231C268.191 180.749 269.636 180.617 271.046 180.846C275.999 181.564 286.558 191.67 286.558 191.67Z" fill="#92E3A9" stroke="#263238" stroke-width="0.286104" stroke-linejoin="round"/>
<path d="M268.201 184.279C268.201 184.279 277.479 193.707 279.671 203.554C280.004 203.646 280.312 203.811 280.573 204.036C280.834 204.262 281.041 204.543 281.18 204.859C281.319 205.174 281.385 205.517 281.375 205.862C281.364 206.207 281.277 206.545 281.12 206.852C284.353 206.145 287.728 206.527 290.722 207.938C290.722 207.938 291.297 206.567 292.047 206.529C292.047 206.529 287.98 194.101 283.641 190.306C280.665 187.617 277.318 185.37 273.703 183.633C272.127 182.912 270.361 182.717 268.666 183.077C268.666 183.077 270.276 184.531 268.201 184.279ZM278.339 190.862C279.309 190.131 281.34 191.178 282.865 193.209C284.391 195.239 284.87 197.476 283.9 198.213C282.93 198.95 280.9 197.897 279.374 195.866C277.848 193.836 277.389 191.605 278.339 190.868V190.862Z" fill="white" stroke="#263238" stroke-width="0.286104" stroke-miterlimit="10"/>
<path d="M288.045 192.957C288.045 192.957 283.764 187.247 279.296 184.583C276.691 183.016 273.914 181.756 271.02 180.826C271.02 180.826 273.05 180.904 274.576 183.975C275.456 185.734 275.158 188.301 275.158 188.301C279.648 189.249 283.985 190.816 288.045 192.957Z" fill="#92E3A9" stroke="#263238" stroke-width="0.286104" stroke-linejoin="round"/>
<path d="M271.57 116.924C271.57 116.924 261.101 124.004 255.618 130.431L245.059 120.642C245.059 120.642 258.437 102.382 263.946 104.625L271.57 116.924Z" fill="#92E3A9" stroke="#263238" stroke-width="0.286104" stroke-linejoin="round"/>
<path d="M250.232 119.95C250.314 120.294 250.281 120.656 250.139 120.981C249.996 121.305 249.752 121.574 249.443 121.747L254.137 126.138C254.378 125.972 254.645 125.848 254.926 125.769C255.262 125.653 255.622 125.621 255.973 125.675C256.325 125.729 256.658 125.868 256.944 126.079C261.728 120.215 270.27 115.475 270.27 115.475L266.39 108.809C266.39 108.809 265.55 104.787 260.901 107.173C257.306 109.022 251.486 115.87 249.036 118.876C249.313 118.931 249.571 119.06 249.781 119.248C249.992 119.437 250.148 119.68 250.232 119.95ZM261.036 111.169C263.054 110.057 265.278 110.225 265.996 111.531C266.714 112.837 265.66 114.809 263.642 115.915C261.625 117.021 259.401 116.859 258.676 115.546C257.952 114.234 258.993 112.275 261.017 111.169H261.036Z" fill="white" stroke="#263238" stroke-width="0.286104" stroke-miterlimit="10"/>
<path d="M274.802 121.792L262.478 108.401C262.478 108.401 264.754 106.235 263.991 104.625L275.837 117.389C275.837 117.389 277.479 119.503 274.802 121.792Z" fill="#92E3A9" stroke="#263238" stroke-width="0.286104" stroke-linejoin="round"/>
<path d="M274.764 116.258L265.647 106.429C265.563 107.054 265.258 107.628 264.787 108.046L274.486 117.609L274.764 116.258Z" fill="white" stroke="#263238" stroke-width="0.286104" stroke-miterlimit="10"/>
<path d="M6.24609 299.489H315.538" stroke="#263238" stroke-width="0.286104" stroke-linecap="round" stroke-linejoin="round"/>
</svg>
