<svg width="352" height="352" viewBox="0 0 352 352" fill="none" xmlns="http://www.w3.org/2000/svg">
<path d="M218.788 23.2185C218.788 23.2185 165.471 11.2828 116.085 45.9314C66.6994 80.5799 44.485 140.42 25.1984 188.584C5.91172 236.748 21.6457 281.584 62.0866 298.153C102.527 314.723 127.129 280.474 181.843 272.562C236.558 264.649 251.829 270.533 295.422 235.175C339.015 199.817 342.708 127.88 303.461 79.5548C264.214 31.2294 218.788 23.2185 218.788 23.2185Z" fill="#92E3A9"/>
<path opacity="0.7" d="M218.788 23.2185C218.788 23.2185 165.471 11.2828 116.085 45.9314C66.6994 80.5799 44.485 140.42 25.1984 188.584C5.91172 236.748 21.6457 281.584 62.0866 298.153C102.527 314.723 127.129 280.474 181.843 272.562C236.558 264.649 251.829 270.533 295.422 235.175C339.015 199.817 342.708 127.88 303.461 79.5548C264.214 31.2294 218.788 23.2185 218.788 23.2185Z" fill="#FAE0B0"/>
<path d="M153.043 135.091L121.961 252.896L157.052 231.84L177.104 261.419L174.598 137.597L153.043 135.091Z" fill="#ECF0FC"/>
<mask id="mask0_2379_6732" style="mask-type:luminance" maskUnits="userSpaceOnUse" x="121" y="135" width="57" height="127">
<path d="M153.043 135.091L121.961 252.896L157.052 231.84L177.104 261.419L174.598 137.597L153.043 135.091Z" fill="white"/>
</mask>
<g mask="url(#mask0_2379_6732)">
<path d="M158.449 225.506L129.474 242.897L156.554 140.244L169.971 141.802L172.077 245.6L158.449 225.506Z" fill="white"/>
<path opacity="0.3" d="M175.174 165.919L174.598 137.611L153.057 135.09L146.409 160.288C148.782 165.07 150.411 171.424 154.574 172.779C160.191 174.59 167.668 165.758 173.861 165.758C174.302 165.771 174.742 165.825 175.174 165.919Z" fill="black"/>
</g>
<path d="M195.878 135.989L245.411 247.3L212.701 230.772L192.347 264.536L175.005 141.915L195.878 135.989Z" fill="#ECF0FC"/>
<mask id="mask1_2379_6732" style="mask-type:luminance" maskUnits="userSpaceOnUse" x="175" y="135" width="71" height="130">
<path d="M195.878 135.989L245.411 247.3L212.701 230.772L192.347 264.536L175.005 141.915L195.878 135.989Z" fill="white"/>
</mask>
<g mask="url(#mask1_2379_6732)">
<path d="M180.243 145.32L193.239 141.634L235.729 237.133L210.924 224.594L195.155 250.761L180.243 145.32Z" fill="white"/>
<path opacity="0.3" d="M195.885 135.989L175.012 141.914L178.333 165.322H178.642C184.834 165.322 192.347 174.12 197.936 172.308C202.218 170.904 203.819 164.213 206.312 159.39L195.885 135.989Z" fill="black"/>
</g>
<path d="M241.037 105.315C241.037 111.507 230.274 115.923 228.456 121.505C226.581 127.297 232.626 137.183 229.116 142.006C225.605 146.83 214.28 144.162 209.415 147.7C204.549 151.239 203.707 162.809 197.914 164.684C192.298 166.502 184.813 157.663 178.621 157.663C172.428 157.663 164.923 166.467 159.334 164.684C153.542 162.809 152.65 151.211 147.834 147.7C143.017 144.19 131.686 146.872 128.126 142.006C124.566 137.141 130.667 127.297 128.786 121.512C126.974 115.895 116.211 111.507 116.211 105.315C116.211 99.122 126.974 94.7058 128.786 89.1241C130.667 83.3318 124.622 73.4463 128.126 68.6229C131.629 63.7995 142.961 66.4674 147.834 62.9289C152.706 59.3903 153.542 47.8197 159.334 45.9451C164.951 44.1267 172.428 52.931 178.621 52.931C184.813 52.931 192.326 44.1267 197.914 45.9451C203.7 47.8197 204.591 59.4184 209.415 62.9289C214.238 66.4393 225.563 63.7573 229.116 68.6229C232.668 73.4884 226.581 83.3669 228.456 89.1171C230.288 94.6777 241.037 99.0939 241.037 105.315Z" fill="#ECF0FC"/>
<path opacity="0.6" d="M234.227 105.315C234.227 110.833 224.636 114.765 222.993 119.743C221.315 124.903 226.7 133.707 223.576 137.997C220.452 142.287 210.363 139.921 206.024 143.073C201.685 146.226 200.94 156.533 195.78 158.211C190.802 159.826 184.111 151.983 178.593 151.983C173.074 151.983 166.397 159.797 161.44 158.183C156.28 156.505 155.487 146.177 151.19 143.045C146.893 139.914 136.797 142.308 133.637 137.969C130.478 133.63 135.898 124.875 134.227 119.715C132.605 114.737 122.994 110.805 122.994 105.287C122.994 99.768 132.577 95.8363 134.227 90.8584C135.898 85.698 130.513 76.8937 133.637 72.6039C136.762 68.314 146.858 70.6801 151.19 67.5277C155.522 64.3753 156.28 54.0685 161.44 52.3905C166.411 50.7756 173.109 58.6181 178.621 58.6181C184.132 58.6181 190.83 50.7756 195.808 52.3905C200.969 54.0685 201.762 64.3963 206.052 67.5277C210.342 70.659 220.452 68.2298 223.604 72.6039C226.757 76.9779 221.343 85.698 223.021 90.8584C224.671 95.8363 234.227 99.768 234.227 105.315Z" fill="white"/>
<path d="M178.621 151.653C204.228 151.653 224.987 130.894 224.987 105.286C224.987 79.6789 204.228 58.9199 178.621 58.9199C153.013 58.9199 132.254 79.6789 132.254 105.286C132.254 130.894 153.013 151.653 178.621 151.653Z" fill="white"/>
<path d="M156.526 83.5498C162.065 80.8256 166.439 79.274 173.538 70.8137H190.837V125.83H199.873V138.756H160.998V125.858H170.715V89.7985L160.998 94.3691L156.526 83.5498Z" fill="#A8BAF1"/>
<path opacity="0.2" d="M252.201 332.429C288.58 332.429 318.072 326.651 318.072 319.524C318.072 312.397 288.58 306.62 252.201 306.62C215.821 306.62 186.33 312.397 186.33 319.524C186.33 326.651 215.821 332.429 252.201 332.429Z" fill="black"/>
<path d="M313.094 155.472C312.062 150.649 311.486 150.881 305.63 149.041C299.192 147.02 292.506 145.898 285.761 145.706C281.42 145.543 277.079 146.047 272.892 147.202C272.892 147.202 265.534 148.121 260.254 149.308C255.725 158.351 260.836 170.764 260.836 170.764C260.836 170.764 267.268 184.89 267.268 192.129C267.268 199.368 261.749 211.998 261.525 212.342C261.3 212.686 244.527 241.831 240.272 251.737C236.017 261.644 235.912 265.639 238.208 269.542C240.504 273.446 266.692 309.513 266.692 309.513C266.692 309.513 259.671 317.552 256.469 319.623C253.268 321.694 249.245 322.017 250.649 323.744C252.053 325.471 261.328 326.153 263.856 325.577C266.383 325.001 272.126 319.96 275.454 317.657C278.782 315.354 281.773 313.746 280.509 310.875C279.245 308.003 276.486 305.476 275.342 303.152C274.197 300.828 270.055 294.193 267.759 285.922C265.463 277.652 263.743 272.716 261.096 268.236C258.449 263.757 256.617 262.037 256.617 262.037C256.617 262.037 266.495 252.959 271.782 248.367C277.069 243.775 281.773 239.984 281.773 239.984C281.773 239.984 299.691 221.603 301.298 217.58C302.906 213.557 307.273 200.926 310.489 189.903C313.704 178.88 314.126 160.296 313.094 155.472Z" fill="#92E3A9" stroke="#263238" stroke-width="0.276718" stroke-linecap="round" stroke-linejoin="round"/>
<path d="M260.837 170.75C260.837 170.75 255.725 158.337 260.254 149.294C259.01 149.556 257.784 149.893 256.582 150.305C252.222 151.913 230.969 160.837 228.786 161.791C226.602 162.746 222.586 166.039 223.618 169.514C224.65 172.99 226.258 173.994 233.609 174.106C240.96 174.219 260.837 170.75 260.837 170.75Z" fill="#809BEB" stroke="#263238" stroke-width="0.276718" stroke-linecap="round" stroke-linejoin="round"/>
<path d="M245.215 108.039C245.215 108.039 251.758 111.367 252.102 111.942C252.446 112.518 251.99 113.775 251.527 114.695C251.063 115.614 248.543 117.798 247.398 118.254C246.254 118.711 247.167 115.27 247.167 113.34C247.167 111.409 243.832 109.78 243.488 108.86C243.144 107.94 244.33 107.688 245.215 108.039Z" fill="white" stroke="#263238" stroke-width="0.276718" stroke-linecap="round" stroke-linejoin="round"/>
<path d="M232.689 173.278L230.169 173.98C227.641 174.682 223.274 175.012 222.586 174.092C221.898 173.172 219.483 160.998 219.827 154.223C220.171 147.447 230.281 118.5 231.433 116.309C232.584 114.119 242.456 107.007 242.456 107.007C242.456 107.007 243.719 106.663 245.215 108.046C246.71 109.429 250.958 112.293 250.726 113.438C250.495 114.582 248.086 118.037 247.047 118.956C246.008 119.876 244.407 118.956 244.407 118.956C244.407 118.956 243.144 121.133 241.536 121.828C239.928 122.523 236.137 121.709 236.137 121.709C236.137 121.709 233.04 141.009 233.953 148.388C234.866 155.767 236.712 164.354 235.357 168.489" fill="#809BEB"/>
<path d="M232.689 173.278L230.169 173.98C227.641 174.682 223.274 175.012 222.586 174.092C221.898 173.172 219.483 160.998 219.827 154.223C220.171 147.447 230.281 118.5 231.433 116.309C232.584 114.119 242.456 107.007 242.456 107.007C242.456 107.007 243.719 106.663 245.215 108.046C246.71 109.429 250.958 112.293 250.726 113.438C250.495 114.582 248.086 118.037 247.047 118.956C246.008 119.876 244.407 118.956 244.407 118.956C244.407 118.956 243.144 121.133 241.536 121.828C239.928 122.523 236.137 121.709 236.137 121.709C236.137 121.709 233.04 141.009 233.953 148.388C234.866 155.767 236.712 164.354 235.357 168.489" stroke="#263238" stroke-width="0.276718" stroke-linecap="round" stroke-linejoin="round"/>
<path d="M241.522 121.821C243.13 121.119 244.393 118.949 244.393 118.949C244.393 118.949 246.001 119.869 247.033 118.949C248.065 118.03 250.481 114.582 250.712 113.431C250.944 112.279 246.689 109.415 245.201 108.039C243.712 106.663 242.442 107 242.442 107C242.442 107 232.563 114.126 231.419 116.302C231.138 116.836 230.33 118.949 229.256 121.919C231.176 123.256 233.398 124.093 235.722 124.355C235.961 122.698 236.123 121.68 236.123 121.68C236.123 121.68 239.928 122.509 241.522 121.821Z" fill="white" stroke="#263238" stroke-width="0.276718" stroke-linecap="round" stroke-linejoin="round"/>
<path d="M251.751 114.477C251.751 114.477 253.359 114.933 252.903 116.085C252.446 117.236 250.719 118.493 249.687 118.381C248.655 118.268 248.423 116.885 249.112 115.741C249.8 114.596 251.176 114.014 251.751 114.477Z" fill="white" stroke="#263238" stroke-width="0.276718" stroke-linecap="round" stroke-linejoin="round"/>
<path d="M244.407 118.949C244.407 118.949 243.488 117.91 244.063 117.11C244.639 116.309 245.784 116.878 245.784 116.878L244.063 114.694" stroke="#263238" stroke-width="0.276718" stroke-linecap="round" stroke-linejoin="round"/>
<path d="M258.049 202.794C261.64 202.794 264.551 199.883 264.551 196.292C264.551 192.702 261.64 189.791 258.049 189.791C254.459 189.791 251.548 192.702 251.548 196.292C251.548 199.883 254.459 202.794 258.049 202.794Z" fill="white" stroke="#263238" stroke-width="0.276718" stroke-linecap="round" stroke-linejoin="round"/>
<path d="M256.343 189.918C257.024 188.081 258.101 186.416 259.498 185.043C260.894 183.669 262.576 182.62 264.424 181.97C270.856 179.569 281.331 177.055 287.39 169.1C293.449 161.146 291.258 145.931 291.258 145.931L295.97 146.57C295.97 146.57 295.338 161.778 292.312 169.852C289.286 177.926 280.067 182.489 272.751 183.739C265.435 184.989 259.376 184.87 256.343 189.918Z" fill="white" stroke="#263238" stroke-width="0.276718" stroke-linecap="round" stroke-linejoin="round"/>
<path d="M256.343 189.917C256.343 189.917 255.585 184.743 260.254 179.316C264.923 173.889 272.498 167.963 273.762 162.409C275.026 156.856 273.636 147.265 273.636 147.265L277.673 146.128C278.784 151.153 278.827 156.355 277.799 161.398C276.03 169.22 271.74 173.011 266.439 177.048C261.138 181.085 256.343 189.917 256.343 189.917Z" fill="white" stroke="#263238" stroke-width="0.276718" stroke-linecap="round" stroke-linejoin="round"/>
<path d="M308.383 151.337C307.028 152.454 305.913 153.834 305.105 155.393C304.297 156.951 303.811 158.657 303.679 160.408C303.215 166.383 304.247 182.117 304.247 188.324C304.247 194.53 299.656 203.826 300.344 208.649C301.032 213.473 307.365 219.216 310.798 215.432C314.231 211.647 316.885 199.466 318.149 183.725C319.413 167.984 318.38 157.424 316.429 154.237C314.477 151.049 311.254 148.922 308.383 151.337Z" fill="#809BEB" stroke="#263238" stroke-width="0.276718" stroke-linecap="round" stroke-linejoin="round"/>
<path d="M312.174 210.72C311.472 214.624 309.302 218.444 307.006 219.216C304.711 219.988 302.092 216.808 298.392 210.833C294.692 204.858 292.775 198.314 291.371 191.42C290.126 185.117 289.207 178.755 288.619 172.358C288.499 169.718 288.619 169.023 290.107 167.443C291.595 165.863 297.002 164.572 297.002 164.572L297.921 162.964C298.378 162.163 300.793 161.7 301.937 162.395C303.082 163.09 303.665 166.874 303.665 166.874C303.665 166.874 306.88 168.707 306.88 170.546C306.88 172.386 304.809 174.338 302.513 177.441C300.217 180.544 299.529 179.393 299.297 182.264C299.066 185.136 300.702 188.927 303.545 191.567C306.389 194.207 310.566 197.423 311.704 202.59" fill="#809BEB"/>
<path d="M312.174 210.72C311.472 214.624 309.302 218.444 307.006 219.216C304.711 219.988 302.092 216.808 298.392 210.833C294.692 204.858 292.775 198.314 291.371 191.42C290.126 185.117 289.207 178.755 288.619 172.358C288.499 169.718 288.619 169.023 290.107 167.443C291.595 165.863 297.002 164.572 297.002 164.572L297.921 162.964C298.378 162.163 300.793 161.7 301.937 162.395C303.082 163.09 303.665 166.874 303.665 166.874C303.665 166.874 306.88 168.707 306.88 170.546C306.88 172.386 304.809 174.338 302.513 177.441C300.217 180.544 299.529 179.393 299.297 182.264C299.066 185.136 300.702 188.927 303.545 191.567C306.389 194.207 310.566 197.423 311.704 202.59" stroke="#263238" stroke-width="0.276718" stroke-linecap="round" stroke-linejoin="round"/>
<path d="M299.29 182.869C299.29 182.658 299.29 182.44 299.29 182.237C299.522 179.365 300.21 180.509 302.506 177.413C304.802 174.317 306.873 172.358 306.873 170.519C306.873 168.679 303.657 166.847 303.657 166.847C303.657 166.847 303.082 163.055 301.93 162.367C300.779 161.679 298.371 162.136 297.914 162.936L296.987 164.544C296.987 164.544 291.588 165.808 290.093 167.415C288.597 169.023 288.485 169.718 288.604 172.33C288.675 174.043 289.236 178.649 290.009 183.564C293.107 184.194 296.32 183.953 299.29 182.869Z" fill="white" stroke="#263238" stroke-width="0.276718" stroke-linecap="round" stroke-linejoin="round"/>
<path d="M301.411 217.25C287.579 212.623 270.441 210.432 262.69 209.618C262.051 211.205 261.588 212.23 261.525 212.328C261.293 212.672 244.527 241.816 240.272 251.723C236.017 261.629 235.912 265.624 238.208 269.528C240.504 273.432 266.692 309.499 266.692 309.499C270.905 308.986 274.661 306.157 276.29 304.759C275.92 304.26 275.591 303.732 275.307 303.18C274.155 300.884 270.02 294.221 267.724 285.95C265.428 277.679 263.708 272.744 261.061 268.264C258.414 263.785 256.582 262.065 256.582 262.065C256.582 262.065 266.46 252.987 271.747 248.395C277.034 243.803 281.738 240.012 281.738 240.012C281.738 240.012 299.655 221.631 301.263 217.608C301.312 217.496 301.355 217.376 301.411 217.25Z" fill="#F4BC54" stroke="#263238" stroke-width="0.276718" stroke-linecap="round" stroke-linejoin="round"/>
<path d="M276.29 304.76C274.97 307.259 269.451 312.026 269.451 312.026C269.451 312.026 268.047 310.531 267.268 309.499C266.657 308.719 266.446 308.916 266.376 309.063L266.692 309.499C266.692 309.499 259.671 317.538 256.47 319.609C253.268 321.68 249.245 322.017 250.649 323.744C252.053 325.471 261.328 326.152 263.856 325.577C266.383 325.001 272.126 319.96 275.454 317.657C278.782 315.354 281.773 313.746 280.509 310.875C279.491 308.649 277.617 306.627 276.29 304.76Z" fill="#92E3A9" stroke="#263238" stroke-width="0.276718" stroke-linecap="round" stroke-linejoin="round"/>
<path d="M261.981 324.201C259.601 324.818 253.233 323.498 250.396 322.796C250.336 322.955 250.324 323.128 250.363 323.293C250.402 323.458 250.489 323.608 250.614 323.723C252.018 325.443 261.293 326.131 263.82 325.556C266.348 324.98 272.091 319.939 275.419 317.636C278.747 315.333 281.738 313.725 280.474 310.854C280.327 310.524 280.158 310.194 279.976 309.871C279.379 310.671 278.677 311.57 277.947 312.461C275.882 315.01 265.084 323.393 261.981 324.201Z" fill="white" stroke="#263238" stroke-width="0.276718" stroke-linecap="round" stroke-linejoin="round"/>
<path d="M294.376 223.007C294.376 223.007 284.35 214.049 274.619 210.833C264.888 207.618 246.703 208.537 242.112 210.377C237.52 212.216 239.472 218.1 239.584 224.847C239.696 231.594 244.295 244.141 246.247 251.267C248.199 258.393 248.887 266.313 249.119 269.065C249.35 271.817 249.35 272.856 249.35 272.856C249.35 272.856 236.6 272.744 233.265 272.4C229.93 272.056 227.985 273.102 227.41 274.24C227.069 274.829 226.947 275.521 227.066 276.191C227.066 276.191 235.68 281.808 243.144 284.919C250.607 288.029 257.733 289.974 258.653 289.51C259.573 289.047 260.486 282.047 260.486 277.224C260.486 272.4 261.981 249.196 261.981 245.06V234.381C261.981 234.381 284.266 246.212 293.112 243.453C301.958 240.693 301.411 217.25 301.411 217.25L294.256 214.968" fill="#F4BC54"/>
<path d="M294.376 223.007C294.376 223.007 284.35 214.049 274.619 210.833C264.888 207.618 246.703 208.537 242.112 210.377C237.52 212.216 239.472 218.1 239.584 224.847C239.696 231.594 244.295 244.141 246.247 251.267C248.199 258.393 248.887 266.313 249.119 269.065C249.35 271.817 249.35 272.856 249.35 272.856C249.35 272.856 236.6 272.744 233.265 272.4C229.93 272.056 227.985 273.102 227.41 274.24C227.069 274.829 226.947 275.521 227.066 276.191C227.066 276.191 235.68 281.808 243.144 284.919C250.607 288.029 257.733 289.974 258.653 289.51C259.573 289.047 260.486 282.047 260.486 277.224C260.486 272.4 261.981 249.196 261.981 245.06V234.381C261.981 234.381 284.266 246.212 293.112 243.453C301.958 240.693 301.411 217.25 301.411 217.25L294.256 214.968" stroke="#263238" stroke-width="0.276718" stroke-linecap="round" stroke-linejoin="round"/>
<path d="M249.35 272.856C249.35 272.856 236.6 272.744 233.265 272.4C229.93 272.056 227.985 273.102 227.41 274.24C227.069 274.829 226.947 275.521 227.066 276.191C227.066 276.191 235.68 281.808 243.144 284.918C250.607 288.029 257.733 289.974 258.653 289.51C259.46 289.11 260.268 283.634 260.45 279.035C255.718 275.005 249.35 272.856 249.35 272.856Z" fill="#92E3A9" stroke="#263238" stroke-width="0.276718" stroke-linecap="round" stroke-linejoin="round"/>
<path d="M258.653 289.51C259.011 289.335 259.355 288.106 259.678 286.477C255.67 286.184 251.725 285.311 247.967 283.886C241.473 281.436 230.892 276.29 227.283 274.513C227.04 275.037 226.964 275.623 227.066 276.191C227.066 276.191 235.68 281.808 243.144 284.919C250.607 288.029 257.733 289.967 258.653 289.51Z" fill="white" stroke="#263238" stroke-width="0.276718" stroke-linecap="round" stroke-linejoin="round"/>
<path d="M261.981 234.381C261.981 234.381 261.869 224.39 256.813 219.448" stroke="#263238" stroke-width="0.276718" stroke-linecap="round" stroke-linejoin="round"/>
<path d="M254.16 134.733C254.16 134.733 256.898 143.712 258.105 146.886C259.313 150.059 259.418 151.801 263.245 155.423C267.071 159.046 267.844 161.883 271.782 162.206C275.721 162.529 277.259 160.099 277.259 160.099C277.259 160.099 277.806 163.715 279.885 164.803C281.963 165.892 286.561 166.116 289.405 160.535C292.248 154.953 290.5 152.222 289.517 149.596C288.534 146.97 287.214 143.684 287.214 143.684C288.643 141.714 289.383 139.328 289.321 136.895C289.103 133.069 288.008 132.626 286.807 132.296C285.607 131.966 282.208 134.157 280.79 133.504C279.372 132.851 281.773 129.123 277.94 128.8C274.106 128.477 270.167 133.715 263.273 134.269C256.378 134.824 253.907 132.654 254.16 134.733Z" fill="white" stroke="#263238" stroke-width="0.276718" stroke-linecap="round" stroke-linejoin="round"/>
<path d="M277.224 160.128L283.458 153.107C286.196 150.045 286.196 145.447 286.196 145.447" fill="white"/>
<path d="M277.224 160.128L283.458 153.107C286.196 150.045 286.196 145.447 286.196 145.447" stroke="#263238" stroke-width="0.276718" stroke-linecap="round" stroke-linejoin="round"/>
<path d="M264.965 145.461C264.965 145.461 265.73 148.971 264.965 150.712C264.2 152.454 264.853 153.345 266.166 153.451C266.794 153.558 267.44 153.482 268.026 153.233" stroke="#263238" stroke-width="0.276718" stroke-linecap="round" stroke-linejoin="round"/>
<path d="M269.016 145.79C269.016 145.79 269.781 143.494 273.39 144.147" stroke="#263238" stroke-width="0.553437" stroke-linecap="round" stroke-linejoin="round"/>
<path d="M259.931 146.444C259.931 146.444 262.037 145.243 263.54 146.886" stroke="#263238" stroke-width="0.553437" stroke-linecap="round" stroke-linejoin="round"/>
<path d="M258.07 142.947C258.07 142.947 260.584 140.427 263.54 144.351" stroke="#263238" stroke-width="0.276718" stroke-linecap="round" stroke-linejoin="round"/>
<path d="M267.043 143.27C267.043 143.27 268.244 139.226 271.958 139.76" stroke="#263238" stroke-width="0.276718" stroke-linecap="round" stroke-linejoin="round"/>
<path d="M270.434 154.328C270.434 154.328 276.128 153.233 277.224 146.556C277.224 146.556 280.032 151.056 278.087 154.665C276.142 158.274 273.502 157.719 273.502 157.719L270.434 154.328Z" stroke="#263238" stroke-width="0.276718" stroke-linecap="round" stroke-linejoin="round"/>
<path d="M257.846 122.038C257.846 122.038 260.696 118.1 257.523 118.647C254.349 119.195 249.097 125.324 249.75 131.124C250.403 136.923 262.114 138.236 267.808 137.365C271.225 136.832 274.396 135.264 276.894 132.872C276.894 132.872 274.787 137.365 277.006 137.906C279.224 138.446 280.285 137.906 280.285 137.906C280.285 137.906 282.391 142.617 283.023 141.192C283.655 139.766 282.868 138.65 283.24 136.818C284.118 132.549 287.292 132.654 287.292 132.654C287.292 132.654 287.839 122.038 283.9 117.91C279.962 113.782 269.669 113.311 265.4 115.502C261.131 117.692 257.846 122.038 257.846 122.038Z" fill="#263238" stroke="#263238" stroke-width="0.276718" stroke-linecap="round" stroke-linejoin="round"/>
<path opacity="0.2" d="M92.6208 332.429C129 332.429 158.492 326.652 158.492 319.525C158.492 312.398 129 306.62 92.6208 306.62C56.2414 306.62 26.75 312.398 26.75 319.525C26.75 326.652 56.2414 332.429 92.6208 332.429Z" fill="black"/>
<path d="M48.9012 305.342C48.9012 305.342 40.3286 309.766 36.9023 313.768C33.4761 317.77 37.3306 320.48 44.3305 318.198C51.3304 315.916 53.9001 306.059 53.9001 306.059C53.9001 306.059 51.4709 304.058 48.9012 305.342Z" fill="#92E3A9" stroke="#263238" stroke-width="0.276718" stroke-linecap="round" stroke-linejoin="round"/>
<path d="M139.893 305.342C139.893 305.342 148.466 309.766 151.892 313.768C155.318 317.77 151.464 320.48 144.464 318.198C137.464 315.916 134.894 306.059 134.894 306.059C134.894 306.059 137.323 304.058 139.893 305.342Z" fill="#92E3A9" stroke="#263238" stroke-width="0.276718" stroke-linecap="round" stroke-linejoin="round"/>
<path d="M85.9088 124.208L85.8035 131.826C82.6167 131.083 79.4735 130.164 76.3883 129.074C71.3121 127.276 70.0694 128.863 67.0785 131.398C64.0876 133.932 49.9473 150.249 48.4448 151.604C46.9423 152.959 42.3085 160.029 42.3085 163.659C42.3085 167.289 45.166 169.795 50.8741 166.727C56.5821 163.659 67.0574 155.409 67.0574 155.409C67.0574 155.409 72.4566 171.488 72.5619 174.24C72.6672 176.992 68.8548 183.016 66.8468 188.52C64.8388 194.025 63.891 209.359 62.5289 214.646C61.1668 219.932 57.6634 225.437 54.9182 239.5C52.173 253.563 51.9553 264.361 51.3234 267.106C50.6915 269.852 49.849 280.334 48.8871 288.562C47.9253 296.791 47.3004 305.904 48.3606 306.859C49.4207 307.814 52.4819 308.446 53.9773 306.859C55.4728 305.272 66.5519 277.16 68.8057 270.708C71.0594 264.256 86.0492 235.056 87.32 231.777C88.5908 228.498 90.8796 223.969 90.8796 223.969C90.8796 223.969 98.708 238.566 101.348 245.861C103.988 253.156 118.486 281.296 122.509 288.689C126.532 296.082 133.083 305.925 134.88 306.88C136.677 307.835 139.577 307.245 139.893 305.343C140.209 303.44 137.211 274.197 134.978 268.693C132.746 263.189 131.278 260.127 130.646 256.111C130.015 252.095 123.871 219.195 121.021 213.164C118.17 207.133 117.742 205.975 117.637 205.652C117.531 205.329 115.53 198.252 112.553 191.055C109.576 183.859 106.319 177.413 106.319 177.413L111.711 162.606C111.711 162.606 119.645 179 123.345 182.489C127.045 185.979 139.107 200.997 139.107 200.997L142.912 197.191L130.646 176.128C130.646 176.128 128 162.487 124.826 153.914C121.653 145.341 119.329 139.001 115.2 137.064C111.072 135.126 102.19 134.627 100.604 133.996C99.0169 133.364 99.5435 132.83 99.4382 132.514C99.3329 132.198 99.9718 125.114 99.9718 125.114C99.9718 125.114 94.0812 127.171 91.2728 126.322C89.4409 125.734 87.6491 125.028 85.9088 124.208Z" fill="#3B60CD" stroke="#263238" stroke-width="0.276718" stroke-linecap="round" stroke-linejoin="round"/>
<path d="M108.692 200.231L96.4684 216.078" stroke="#696969" stroke-width="0.276718" stroke-linecap="round" stroke-linejoin="round"/>
<path d="M69.7605 201.593L83.3461 215.628" stroke="#696969" stroke-width="0.276718" stroke-linecap="round" stroke-linejoin="round"/>
<path d="M72.0283 209.738L85.6069 218.338" stroke="#696969" stroke-width="0.276718" stroke-linecap="round" stroke-linejoin="round"/>
<path d="M106.326 177.413L111.718 162.606C111.718 162.606 108.86 142.526 103.419 134.592C102.47 134.487 101.53 134.304 100.611 134.045C99.024 133.413 99.5505 132.879 99.4452 132.563C99.3399 132.247 99.9788 125.163 99.9788 125.163C99.9788 125.163 94.0812 127.171 91.2728 126.322C89.4316 125.738 87.6304 125.034 85.8807 124.215L85.7754 131.833C85.7754 131.833 84.3712 131.517 82.1806 130.913C79.8567 133.897 70.4696 146.275 67.0504 155.417C67.0504 155.417 72.4495 171.495 72.5549 174.247C72.6321 176.241 70.6522 179.948 68.7916 183.936C72.2389 186.246 78.3963 188.977 88.4504 189.16C100.519 189.377 106.993 186.597 109.857 184.835C107.906 180.524 106.326 177.413 106.326 177.413Z" fill="#F4BC54" stroke="#263238" stroke-width="0.276718" stroke-linecap="round" stroke-linejoin="round"/>
<path d="M99.1785 142.526C101.285 140.476 101.931 137.366 101.896 134.34C101.459 134.281 101.028 134.18 100.611 134.038C99.024 133.406 99.5506 132.872 99.4453 132.556C99.34 132.24 99.9789 125.156 99.9789 125.156C99.9789 125.156 94.0813 127.171 91.2729 126.322C89.4316 125.738 87.6304 125.034 85.8808 124.215L85.7754 131.833C85.7754 131.833 85.3331 131.735 84.5678 131.545C83.9851 133.792 82.8617 139.837 86.5127 143.151C90.0231 146.296 95.8997 145.686 99.1785 142.526Z" fill="#B2B2B2" stroke="#263238" stroke-width="0.276718" stroke-linecap="round" stroke-linejoin="round"/>
<path d="M81.8857 130.766C81.8857 130.766 81.5698 138.7 79.5618 143.039C77.5538 147.378 75.4335 148.009 75.4335 148.009C76.2783 148.545 77.1632 149.014 78.0804 149.414C79.7724 150.116 80.0884 149.835 80.0884 149.835C80.0884 149.835 83.2619 147.827 84.7433 142.533C85.6467 139.05 86.0043 135.447 85.8035 131.854L81.8857 130.766Z" fill="white" stroke="#263238" stroke-width="0.276718" stroke-linecap="round" stroke-linejoin="round"/>
<path d="M87.8395 90.2268C87.8395 90.2268 87.7061 86.6391 94.2216 84.9119C100.737 83.1847 106.466 88.3662 106.993 91.8276C107.519 95.2889 106.466 97.1495 105.666 97.4443C104.865 97.7392 101.411 94.2498 96.2226 92.5297C91.0341 90.8095 87.1725 91.8276 87.8395 90.2268Z" fill="#263238" stroke="#263238" stroke-width="0.276718" stroke-linecap="round" stroke-linejoin="round"/>
<path d="M81.1837 107.66C81.1837 107.66 80.3903 105.266 78.3753 106.726C76.3603 108.186 77.3081 112.715 78.2419 114.042C79.1757 115.369 81.0503 115.376 81.4294 114.442C81.8086 113.508 81.8296 108.186 81.8296 108.186" fill="#B2B2B2"/>
<path d="M81.1837 107.66C81.1837 107.66 80.3903 105.266 78.3753 106.726C76.3603 108.186 77.3081 112.715 78.2419 114.042C79.1757 115.369 81.0503 115.376 81.4294 114.442C81.8086 113.508 81.8296 108.186 81.8296 108.186" stroke="#263238" stroke-width="0.276718" stroke-linecap="round" stroke-linejoin="round"/>
<path d="M80.9239 96.0823C80.9239 96.0823 78.6561 99.4102 79.7233 102.738C80.7905 106.066 80.2569 108.453 80.2569 112.315C80.2569 116.176 83.0653 121.358 84.9118 124.552C86.7583 127.747 90.4865 131.538 94.4744 130.345C98.4623 129.151 104.304 120.824 105.399 116.97C106.494 113.115 106.066 112.181 106.726 110.581C107.848 107.747 108.393 104.718 108.327 101.671C108.327 97.2829 103.138 91.4274 96.7492 89.5668C90.3601 87.7063 83.318 89.5668 80.9239 96.0823Z" fill="#B2B2B2" stroke="#263238" stroke-width="0.276718" stroke-linecap="round" stroke-linejoin="round"/>
<path d="M105.132 111.514C105.132 111.514 106.199 108.32 108.193 109.253C110.187 110.187 109.387 115.109 107.793 116.569C106.199 118.03 104.465 117.37 104.465 116.436" fill="#B2B2B2"/>
<path d="M105.132 111.514C105.132 111.514 106.199 108.32 108.193 109.253C110.187 110.187 109.387 115.109 107.793 116.569C106.199 118.03 104.465 117.37 104.465 116.436" stroke="#263238" stroke-width="0.276718" stroke-linecap="round" stroke-linejoin="round"/>
<path d="M90.1003 115.769C90.7486 116.413 91.618 116.785 92.5312 116.81C93.4445 116.835 94.3328 116.51 95.015 115.903" stroke="#263238" stroke-width="0.276718" stroke-linecap="round" stroke-linejoin="round"/>
<path d="M88.9348 118.879C88.9348 118.879 92.1574 121.688 96.5947 118.816" stroke="#263238" stroke-width="0.276718" stroke-linecap="round" stroke-linejoin="round"/>
<path d="M87.9589 112.553C88.4979 112.553 88.9349 111.846 88.9349 110.974C88.9349 110.101 88.4979 109.394 87.9589 109.394C87.42 109.394 86.983 110.101 86.983 110.974C86.983 111.846 87.42 112.553 87.9589 112.553Z" fill="#263238"/>
<path d="M97.4443 112.553C97.9833 112.553 98.4202 111.846 98.4202 110.974C98.4202 110.101 97.9833 109.394 97.4443 109.394C96.9053 109.394 96.4684 110.101 96.4684 110.974C96.4684 111.846 96.9053 112.553 97.4443 112.553Z" fill="#263238"/>
<path d="M85.2839 107.084C85.9259 106.51 86.7122 106.122 87.5584 105.961C88.4045 105.8 89.2784 105.873 90.0863 106.171" stroke="#263238" stroke-width="0.276718" stroke-linecap="round" stroke-linejoin="round"/>
<path d="M95.0712 106.536C95.0712 106.536 98.6589 104.957 100.604 108.116" stroke="#263238" stroke-width="0.276718" stroke-linecap="round" stroke-linejoin="round"/>
<path d="M96.7492 89.5667C90.3671 87.6991 83.318 89.5667 80.9239 96.0822C80.9239 96.0822 78.6561 99.4101 79.7233 102.738C80.0628 103.794 80.2703 104.889 80.3411 105.996L80.5237 106.192C81.321 105.299 81.83 104.185 81.984 102.998C82.2508 101.004 86.639 95.9769 93.8284 96.4824C101.018 96.9879 104.465 102.099 105.132 105.399C105.799 108.699 104.072 111.114 106.726 110.58C107.848 107.747 108.393 104.718 108.327 101.671C108.327 97.2828 103.138 91.4273 96.7492 89.5667Z" fill="#263238" stroke="#263238" stroke-width="0.276718" stroke-linecap="round" stroke-linejoin="round"/>
<path d="M142.919 197.191L149.793 198.596C150.348 198.705 150.846 199.009 151.197 199.452C152.355 200.906 154.953 204.24 155.199 205.223C155.515 206.494 155.515 206.81 155.094 206.81C154.525 206.786 153.959 206.716 153.402 206.6C152.868 206.494 150.86 203.637 149.273 203.531C147.722 203.294 146.198 202.904 144.724 202.366C144.724 202.366 148.108 204.907 148.852 205.539C149.596 206.171 149.484 206.494 148.957 206.705C148.431 206.915 147.686 206.6 146.949 206.284C146.212 205.968 145.889 205.855 143.347 204.802C140.806 203.749 139.135 200.99 139.135 200.99L142.919 197.191Z" fill="#B2B2B2" stroke="#263238" stroke-width="0.276718" stroke-linecap="round" stroke-linejoin="round"/>
<path d="M115.952 151.288L111.718 162.606L115.523 155.838" stroke="#696969" stroke-width="0.276718" stroke-linecap="round" stroke-linejoin="round"/>
<path d="M67.0785 142.926V155.41L64.9652 146.318" stroke="#696969" stroke-width="0.276718" stroke-linecap="round" stroke-linejoin="round"/>
<path d="M88.0221 151.393C88.5727 151.772 89.1955 152.033 89.8514 152.159C90.5074 152.286 91.1825 152.276 91.8345 152.131C93.9408 151.604 99.6559 147.476 103.152 142.821C106.649 138.166 108.228 135.505 108.228 135.505L102.612 133.813C102.612 133.813 99.6488 141.852 95.7382 145.341C91.8275 148.831 86.0071 150.523 86.0071 150.523L88.0221 151.393Z" fill="white" stroke="#263238" stroke-width="0.276718" stroke-linecap="round" stroke-linejoin="round"/>
<path d="M61.8971 113.628C61.8971 113.628 86.8637 150.754 88.0222 151.393C88.5716 151.703 89.1363 151.984 89.7142 152.236C89.7142 152.236 83.7955 152.236 82.1035 150.832C80.4114 149.427 66.8679 124.285 65.7025 121.533C64.7612 119.432 63.7017 117.385 62.529 115.404L61.4758 113.389L61.8971 113.628Z" fill="white" stroke="#263238" stroke-width="0.276718" stroke-linecap="round" stroke-linejoin="round"/>
<path d="M61.8971 113.627C61.8971 113.627 72.2671 143.46 73.1307 145.573C73.9942 147.686 76.936 149.385 78.5228 149.596L80.1095 149.807C80.1095 149.807 72.6041 137.534 69.3253 130.148C66.0465 122.762 61.8971 113.627 61.8971 113.627Z" fill="white" stroke="#263238" stroke-width="0.276718" stroke-linecap="round" stroke-linejoin="round"/>
<path d="M59.0957 114.905C62.6902 114.905 65.6042 111.991 65.6042 108.397C65.6042 104.802 62.6902 101.888 59.0957 101.888C55.5012 101.888 52.5873 104.802 52.5873 108.397C52.5873 111.991 55.5012 114.905 59.0957 114.905Z" fill="white" stroke="#263238" stroke-width="0.276718" stroke-linecap="round" stroke-linejoin="round"/>
<path d="M53.0155 165.456C49.6314 167.261 42.9615 171.487 41.6977 169.585C40.4339 167.682 40.6375 156.891 43.7057 150.438C46.7739 143.986 52.3064 132.451 52.4819 130.471C52.6574 128.491 52.2151 115.369 52.3977 114.828C52.5802 114.287 58.0566 111.318 58.0566 111.318C58.345 111.246 58.6486 111.269 58.9236 111.381C59.1986 111.493 59.4309 111.69 59.5872 111.942C60.1278 112.841 62.557 115.453 62.4658 116.155C62.3745 116.857 62.2832 117.412 62.2832 117.412C62.2832 117.412 63.7225 118.226 63.3644 119.574C63.0064 120.922 62.3745 125.058 61.5671 125.598C60.8952 125.923 60.1352 126.016 59.4046 125.865C59.3143 126.844 59.0404 127.796 58.5972 128.673C57.9723 129.663 57.3404 130.204 57.2492 130.471C57.1579 130.738 55.2342 161.862 54.174 162.922" fill="#3B60CD"/>
<path d="M53.0155 165.456C49.6314 167.261 42.9615 171.487 41.6977 169.585C40.4339 167.682 40.6375 156.891 43.7057 150.438C46.7739 143.986 52.3064 132.451 52.4819 130.471C52.6574 128.491 52.2151 115.369 52.3977 114.828C52.5802 114.287 58.0566 111.318 58.0566 111.318C58.345 111.246 58.6485 111.269 58.9236 111.381C59.1986 111.493 59.4309 111.69 59.5872 111.942C60.1278 112.841 62.557 115.453 62.4658 116.155C62.3745 116.857 62.2832 117.412 62.2832 117.412C62.2832 117.412 63.7225 118.226 63.3644 119.574C63.0064 120.922 62.3745 125.058 61.5671 125.598C60.8952 125.923 60.1352 126.016 59.4046 125.865C59.3143 126.844 59.0404 127.796 58.5972 128.673C57.9723 129.663 57.3404 130.204 57.2492 130.471C57.1579 130.738 55.2342 161.862 54.174 162.922" stroke="#263238" stroke-width="0.276718" stroke-linecap="round" stroke-linejoin="round"/>
<path d="M62.2832 117.433C62.2832 117.433 62.3744 116.899 62.4657 116.176C62.557 115.453 60.1277 112.848 59.5871 111.964C59.4309 111.711 59.1986 111.514 58.9235 111.402C58.6485 111.29 58.345 111.268 58.0565 111.339C58.0565 111.339 52.5731 114.302 52.3976 114.849C52.2221 115.397 52.5802 126.048 52.524 129.593C53.1734 130.122 53.9396 130.488 54.7589 130.662C55.5782 130.835 56.4271 130.811 57.2351 130.59C57.2351 130.527 57.2351 130.485 57.2351 130.471C57.3263 130.204 57.9372 129.663 58.5831 128.674C59.0263 127.796 59.3002 126.844 59.3905 125.865C60.1211 126.016 60.8811 125.923 61.553 125.598C62.3604 125.058 62.9572 120.922 63.3504 119.574C63.7435 118.226 62.2832 117.433 62.2832 117.433Z" fill="#B2B2B2" stroke="#263238" stroke-width="0.276718" stroke-linecap="round" stroke-linejoin="round"/>
<path d="M62.2832 117.433L57.6985 115.636" stroke="#263238" stroke-width="0.276718" stroke-linecap="round" stroke-linejoin="round"/>
<path d="M57.1578 118.156C57.1578 118.156 61.9251 119.231 62.3744 119.954C62.6553 120.447 62.8097 121.001 62.8238 121.569" stroke="#263238" stroke-width="0.276718" stroke-linecap="round" stroke-linejoin="round"/>
<path d="M57.4318 120.761C57.4318 120.761 61.0265 121.569 61.5671 122.018C62.1077 122.467 62.192 124.356 62.192 124.356" stroke="#263238" stroke-width="0.276718" stroke-linecap="round" stroke-linejoin="round"/>
<path d="M59.4045 125.886V124.447L60.3945 124.356" stroke="#263238" stroke-width="0.276718" stroke-linecap="round" stroke-linejoin="round"/>
<path d="M87.9168 189.896L86.646 207.238L88.661 207.554C88.661 207.554 88.661 189.258 87.9168 189.896Z" fill="white" stroke="#263238" stroke-width="0.276718" stroke-linecap="round" stroke-linejoin="round"/>
<path d="M89.1665 190.528L89.7984 209.78L92.9719 209.675L89.9037 190.718C89.9037 190.718 89.3982 188.942 89.1665 190.528Z" fill="white" stroke="#263238" stroke-width="0.276718" stroke-linecap="round" stroke-linejoin="round"/>
<path d="M143.109 36.3125L146.717 39.8862L148.711 36.7197L143.109 36.3125Z" fill="#9C9C9C"/>
<path d="M97.9286 42.3157L101.537 45.8823L103.531 42.7159L97.9286 42.3157Z" fill="#9C9C9C"/>
<path d="M69.5217 27.7822L73.1305 31.3559L75.1245 28.1824L69.5217 27.7822Z" fill="#9C9C9C"/>
<path d="M183.837 55.536L181.57 60.0786L185.199 60.9843L183.837 55.536Z" fill="#9C9C9C"/>
<path d="M218.444 23.38L216.176 27.9226L219.806 28.8283L218.444 23.38Z" fill="#9C9C9C"/>
<path d="M143.375 63.0486L139.844 59.3977L137.787 62.522L143.375 63.0486Z" fill="#92E3A9"/>
<path d="M122.678 64.4036L119.153 60.7527L117.089 63.877L122.678 64.4036Z" fill="#92E3A9"/>
<path d="M167.268 48.136L171.396 45.1801L168.609 42.6807L167.268 48.136Z" fill="#92E3A9"/>
<path d="M120.782 33.4271L124.91 30.4783L122.123 27.9718L120.782 33.4271Z" fill="#92E3A9"/>
<path d="M199.803 59.7416L203.931 56.7927L201.144 54.2863L199.803 59.7416Z" fill="#92E3A9"/>
<path d="M34.5362 62.178L32.2684 66.7135L35.8983 67.6263L34.5362 62.178Z" fill="#9C9C9C"/>
<path d="M57.6071 65.5692L55.3394 70.1118L58.9692 71.0175L57.6071 65.5692Z" fill="#9C9C9C"/>
<path d="M44.9694 50.0035L41.4378 46.3525L39.3737 49.4769L44.9694 50.0035Z" fill="#92E3A9"/>
<path d="M141.761 85.8177L145.896 82.8689L143.109 80.3624L141.761 85.8177Z" fill="#92E3A9"/>
<path d="M251.765 50.4181L255.374 53.9848L257.368 50.8183L251.765 50.4181Z" fill="#9C9C9C"/>
<path d="M292.501 59.6857L290.226 64.2282L293.863 65.1339L292.501 59.6857Z" fill="#9C9C9C"/>
<path d="M237.534 35.6669L235.266 40.2094L238.896 41.1222L237.534 35.6669Z" fill="#9C9C9C"/>
<path d="M315.572 63.0768L313.297 67.6194L316.934 68.5321L315.572 63.0768Z" fill="#9C9C9C"/>
<path d="M327.108 45.7767L324.833 50.3193L328.47 51.225L327.108 45.7767Z" fill="#9C9C9C"/>
<path d="M252.039 67.1911L248.508 63.5402L246.443 66.6715L252.039 67.1911Z" fill="#92E3A9"/>
<path d="M231.341 68.5531L227.81 64.9022L225.746 68.0266L231.341 68.5531Z" fill="#92E3A9"/>
<path d="M275.244 34.052L279.372 31.1032L276.585 28.5967L275.244 34.052Z" fill="#92E3A9"/>
<path d="M229.446 29.2846L233.574 26.3288L230.787 23.8293L229.446 29.2846Z" fill="#92E3A9"/>
<path d="M297.641 39.8582L301.769 36.9094L298.982 34.4099L297.641 39.8582Z" fill="#92E3A9"/>
<path d="M250.424 89.9669L254.553 87.0111L251.765 84.5116L250.424 89.9669Z" fill="#92E3A9"/>
<path d="M82.8756 59.7275L87.0039 56.7787L84.2166 54.2722L82.8756 59.7275Z" fill="#92E3A9"/>
<path d="M217.629 114.393L214.021 110.819L212.027 113.986L217.629 114.393Z" fill="#9C9C9C"/>
<path d="M252.573 112.013L248.964 108.446L246.97 111.613L252.573 112.013Z" fill="#9C9C9C"/>
<path d="M292.333 116.541L288.724 112.968L286.73 116.141L292.333 116.541Z" fill="#9C9C9C"/>
<path d="M176.894 105.118L179.168 100.576L175.531 99.6699L176.894 105.118Z" fill="#9C9C9C"/>
<path d="M153.823 101.727L156.097 97.1844L152.461 96.2787L153.823 101.727Z" fill="#9C9C9C"/>
<path d="M267.914 109.829L271.445 113.48L273.509 110.349L267.914 109.829Z" fill="#92E3A9"/>
<path d="M167.191 103.103L163.062 106.052L165.85 108.552L167.191 103.103Z" fill="#92E3A9"/>
<path d="M169.227 86.8145L165.098 89.7703L167.886 92.2698L169.227 86.8145Z" fill="#92E3A9"/>
<path d="M326.202 98.4834L328.47 93.9409L324.833 93.0352L326.202 98.4834Z" fill="#9C9C9C"/>
<path d="M303.124 95.0922L305.399 90.5496L301.762 89.6439L303.124 95.0922Z" fill="#9C9C9C"/>
<path d="M316.492 96.4683L312.364 99.4171L315.151 101.917L316.492 96.4683Z" fill="#92E3A9"/>
<path d="M120.634 87.0042L117.026 83.4305L115.032 86.604L120.634 87.0042Z" fill="#9C9C9C"/>
<path d="M68.237 100.969L70.5047 96.4334L66.8749 95.5206L68.237 100.969Z" fill="#9C9C9C"/>
<path d="M45.1659 97.5778L47.4337 93.0352L43.8038 92.1295L45.1659 97.5778Z" fill="#9C9C9C"/>
<path d="M33.6305 114.885L35.8983 110.342L32.2684 109.436L33.6305 114.885Z" fill="#9C9C9C"/>
<path d="M57.8037 113.143L61.3353 116.794L63.3994 113.67L57.8037 113.143Z" fill="#92E3A9"/>
<path d="M131.292 113.129L127.164 116.085L129.951 118.585L131.292 113.129Z" fill="#92E3A9"/>
<path d="M60.5699 82.6653L56.4346 85.6211L59.2219 88.1206L60.5699 82.6653Z" fill="#92E3A9"/>
<path d="M271.22 84.3433L267.092 87.2921L269.879 89.7915L271.22 84.3433Z" fill="#92E3A9"/>
<path d="M108.158 131.588L111.767 135.161L113.761 131.995L108.158 131.588Z" fill="#9C9C9C"/>
<path d="M68.3984 127.066L72.0072 130.632L74.0012 127.466L68.3984 127.066Z" fill="#9C9C9C"/>
<path d="M183.837 138.482L181.57 143.025L185.199 143.93L183.837 138.482Z" fill="#9C9C9C"/>
<path d="M75.2017 162.192L72.934 166.735L76.5638 167.64L75.2017 162.192Z" fill="#9C9C9C"/>
<path d="M143.375 145.995L139.844 142.344L137.787 145.468L143.375 145.995Z" fill="#92E3A9"/>
<path d="M122.678 147.35L119.153 143.699L117.089 146.823L122.678 147.35Z" fill="#92E3A9"/>
<path d="M92.8244 133.778L89.2928 130.127L87.2286 133.251L92.8244 133.778Z" fill="#92E3A9"/>
<path d="M194.271 126.314L190.739 122.664L188.675 125.788L194.271 126.314Z" fill="#92E3A9"/>
<path d="M167.268 131.082L171.396 128.126L168.609 125.626L167.268 131.082Z" fill="#92E3A9"/>
<path d="M193.547 140.504L197.676 137.548L194.888 135.049L193.547 140.504Z" fill="#92E3A9"/>
<path d="M191.511 156.793L195.64 153.837L192.852 151.337L191.511 156.793Z" fill="#92E3A9"/>
<path d="M34.5362 145.117L32.2684 149.659L35.8983 150.572L34.5362 145.117Z" fill="#9C9C9C"/>
<path d="M57.6071 148.515L55.3394 153.058L58.9692 153.963L57.6071 148.515Z" fill="#9C9C9C"/>
<path d="M44.9694 132.949L41.4378 129.298L39.3737 132.423L44.9694 132.949Z" fill="#92E3A9"/>
<path d="M44.2462 147.139L48.3746 144.183L45.5872 141.684L44.2462 147.139Z" fill="#92E3A9"/>
<path d="M141.761 168.764L145.896 165.808L143.109 163.308L141.761 168.764Z" fill="#92E3A9"/>
<path d="M216.822 135.737L220.431 139.31L222.425 136.137L216.822 135.737Z" fill="#9C9C9C"/>
<path d="M292.501 142.631L290.226 147.174L293.863 148.08L292.501 142.631Z" fill="#9C9C9C"/>
<path d="M315.572 146.023L313.297 150.565L316.934 151.478L315.572 146.023Z" fill="#9C9C9C"/>
<path d="M327.108 128.723L324.833 133.265L328.47 134.171L327.108 128.723Z" fill="#9C9C9C"/>
<path d="M231.341 151.499L227.81 147.848L225.746 150.972L231.341 151.499Z" fill="#92E3A9"/>
<path d="M224.496 230.141L220.964 226.49L218.907 229.614L224.496 230.141Z" fill="#92E3A9"/>
<path d="M184.315 25.5073L188.443 22.5515L185.656 20.052L184.315 25.5073Z" fill="#92E3A9"/>
<path d="M250.424 172.913L254.553 169.957L251.765 167.458L250.424 172.913Z" fill="#92E3A9"/>
<path d="M89.5105 159.264L93.6459 156.308L90.8585 153.809L89.5105 159.264Z" fill="#92E3A9"/>
<path d="M252.573 194.959L248.964 191.392L246.97 194.558L252.573 194.959Z" fill="#9C9C9C"/>
<path d="M176.894 188.064L179.168 183.522L175.531 182.616L176.894 188.064Z" fill="#9C9C9C"/>
<path d="M153.823 184.673L156.097 180.131L152.461 179.225L153.823 184.673Z" fill="#9C9C9C"/>
<path d="M217.355 180.559L220.887 184.21L222.951 181.085L217.355 180.559Z" fill="#92E3A9"/>
<path d="M238.053 179.204L241.585 182.855L243.649 179.723L238.053 179.204Z" fill="#92E3A9"/>
<path d="M267.914 244.99L271.445 248.641L273.509 245.517L267.914 244.99Z" fill="#92E3A9"/>
<path d="M193.47 195.471L189.342 198.427L192.129 200.927L193.47 195.471Z" fill="#92E3A9"/>
<path d="M169.227 169.761L165.098 172.717L167.886 175.216L169.227 169.761Z" fill="#92E3A9"/>
<path d="M326.202 233.652L328.47 229.109L324.833 228.203L326.202 233.652Z" fill="#9C9C9C"/>
<path d="M303.124 178.038L305.399 173.496L301.762 172.59L303.124 178.038Z" fill="#9C9C9C"/>
<path d="M316.492 231.629L312.364 234.585L315.151 237.085L316.492 231.629Z" fill="#92E3A9"/>
<path d="M218.97 157.783L214.842 160.739L217.629 163.238L218.97 157.783Z" fill="#92E3A9"/>
<path d="M143.916 190.816L140.307 187.243L138.313 190.409L143.916 190.816Z" fill="#9C9C9C"/>
<path d="M68.237 183.915L70.5047 179.379L66.8749 178.467L68.237 183.915Z" fill="#9C9C9C"/>
<path d="M123.204 189.686L125.472 185.144L121.842 184.238L123.204 189.686Z" fill="#9C9C9C"/>
<path d="M45.1659 180.524L47.4337 175.988L43.8038 175.075L45.1659 180.524Z" fill="#9C9C9C"/>
<path d="M33.6305 197.83L35.8983 193.288L32.2684 192.382L33.6305 197.83Z" fill="#9C9C9C"/>
<path d="M129.397 175.054L132.928 178.705L134.985 175.581L129.397 175.054Z" fill="#92E3A9"/>
<path d="M57.8037 196.089L61.3353 199.74L63.3994 196.616L57.8037 196.089Z" fill="#92E3A9"/>
<path d="M84.8135 191.322L80.6852 194.278L83.4725 196.777L84.8135 191.322Z" fill="#92E3A9"/>
<path d="M98.5956 266.116L94.4673 269.072L97.2546 271.572L98.5956 266.116Z" fill="#92E3A9"/>
<path d="M179.576 232.409L175.447 235.365L178.235 237.864L179.576 232.409Z" fill="#92E3A9"/>
<path d="M271.22 167.282L267.092 170.238L269.879 172.738L271.22 167.282Z" fill="#92E3A9"/>
<path d="M143.109 271.389L146.717 274.963L148.711 271.789L143.109 271.389Z" fill="#9C9C9C"/>
<path d="M65.927 239.219L69.5358 242.785L71.5297 239.619L65.927 239.219Z" fill="#9C9C9C"/>
<path d="M183.837 280.657L181.57 285.199L185.199 286.105L183.837 280.657Z" fill="#9C9C9C"/>
<path d="M128.877 216.492L126.602 221.035L130.239 221.94L128.877 216.492Z" fill="#9C9C9C"/>
<path d="M206.908 284.055L204.641 288.591L208.27 289.503L206.908 284.055Z" fill="#9C9C9C"/>
<path d="M218.444 266.749L216.176 271.291L219.806 272.197L218.444 266.749Z" fill="#9C9C9C"/>
<path d="M143.375 288.169L139.844 284.518L137.787 287.643L143.375 288.169Z" fill="#92E3A9"/>
<path d="M90.346 245.931L86.8215 242.28L84.7573 245.405L90.346 245.931Z" fill="#92E3A9"/>
<path d="M167.268 273.257L171.396 270.301L168.609 267.801L167.268 273.257Z" fill="#92E3A9"/>
<path d="M191.511 298.968L195.64 296.012L192.852 293.512L191.511 298.968Z" fill="#92E3A9"/>
<path d="M32.0648 257.27L29.79 261.813L33.4269 262.718L32.0648 257.27Z" fill="#9C9C9C"/>
<path d="M55.1357 260.661L52.8679 265.204L56.4978 266.116L55.1357 260.661Z" fill="#9C9C9C"/>
<path d="M42.4909 245.103L38.9664 241.452L36.9022 244.576L42.4909 245.103Z" fill="#92E3A9"/>
<path d="M141.761 315.93L145.896 312.982L143.109 310.475L141.761 315.93Z" fill="#92E3A9"/>
<path d="M251.765 217.138L255.374 220.711L257.368 217.538L251.765 217.138Z" fill="#9C9C9C"/>
<path d="M292.501 278.628L290.226 283.17L293.863 284.076L292.501 278.628Z" fill="#9C9C9C"/>
<path d="M237.534 220.642L235.266 225.184L238.896 226.09L237.534 220.642Z" fill="#9C9C9C"/>
<path d="M315.572 282.019L313.297 286.561L316.934 287.467L315.572 282.019Z" fill="#9C9C9C"/>
<path d="M327.108 264.719L324.833 269.255L328.47 270.168L327.108 264.719Z" fill="#9C9C9C"/>
<path d="M231.341 293.667L227.81 290.023L225.746 293.147L231.341 293.667Z" fill="#92E3A9"/>
<path d="M302.927 266.453L299.403 262.802L297.339 265.927L302.927 266.453Z" fill="#92E3A9"/>
<path d="M275.925 271.221L280.053 268.265L277.266 265.766L275.925 271.221Z" fill="#92E3A9"/>
<path d="M300.168 296.932L304.296 293.976L301.509 291.476L300.168 296.932Z" fill="#92E3A9"/>
<path d="M250.424 320.08L254.553 317.124L251.765 314.625L250.424 320.08Z" fill="#92E3A9"/>
<path d="M73.6079 291.68L77.7363 288.724L74.9489 286.224L73.6079 291.68Z" fill="#92E3A9"/>
<path d="M143.109 325.549L146.717 326.314L148.711 325.633L143.109 325.549Z" fill="#9C9C9C"/>
<path d="M108.158 311.205L111.767 311.977L113.761 311.296L108.158 311.205Z" fill="#9C9C9C"/>
<path d="M68.3984 310.236L72.0072 311.002L74.0012 310.321L68.3984 310.236Z" fill="#9C9C9C"/>
<path d="M183.837 312.687L181.57 313.663L185.199 313.859L183.837 312.687Z" fill="#9C9C9C"/>
<path d="M128.877 311.451L126.602 312.427L130.239 312.623L128.877 311.451Z" fill="#9C9C9C"/>
<path d="M206.908 313.417L204.641 314.393L208.27 314.589L206.908 313.417Z" fill="#9C9C9C"/>
<path d="M218.444 309.703L216.176 310.679L219.806 310.875L218.444 309.703Z" fill="#9C9C9C"/>
<path d="M134.045 323.597L130.52 322.811L128.456 323.485L134.045 323.597Z" fill="#92E3A9"/>
<path d="M122.678 314.589L119.153 313.81L117.089 314.477L122.678 314.589Z" fill="#92E3A9"/>
<path d="M92.8244 311.676L89.2928 310.896L87.2286 311.563L92.8244 311.676Z" fill="#92E3A9"/>
<path d="M194.271 310.075L190.739 309.296L188.675 309.963L194.271 310.075Z" fill="#92E3A9"/>
<path d="M167.268 311.1L171.396 310.468L168.609 309.927L167.268 311.1Z" fill="#92E3A9"/>
<path d="M120.782 310.082L124.91 309.443L122.123 308.909L120.782 310.082Z" fill="#92E3A9"/>
<path d="M193.547 313.122L197.676 312.49L194.888 311.949L193.547 313.122Z" fill="#92E3A9"/>
<path d="M191.511 316.618L195.64 315.986L192.852 315.446L191.511 316.618Z" fill="#92E3A9"/>
<path d="M34.5362 314.112L32.2684 315.088L35.8983 315.285L34.5362 314.112Z" fill="#9C9C9C"/>
<path d="M57.6071 314.842L55.3394 315.818L58.9692 316.015L57.6071 314.842Z" fill="#9C9C9C"/>
<path d="M36.2633 322.235L32.7318 321.456L30.6676 322.13L36.2633 322.235Z" fill="#92E3A9"/>
<path d="M51.899 324.089L56.0274 323.457L53.2401 322.916L51.899 324.089Z" fill="#92E3A9"/>
<path d="M42.2101 318.044L46.3384 317.412L43.5511 316.871L42.2101 318.044Z" fill="#92E3A9"/>
<path d="M141.761 319.188L145.896 318.556L143.109 318.016L141.761 319.188Z" fill="#92E3A9"/>
<path d="M251.765 311.591L255.374 312.357L257.368 311.676L251.765 311.591Z" fill="#9C9C9C"/>
<path d="M216.822 312.097L220.431 312.869L222.425 312.188L216.822 312.097Z" fill="#9C9C9C"/>
<path d="M292.501 313.578L290.226 314.554L293.863 314.751L292.501 313.578Z" fill="#9C9C9C"/>
<path d="M237.534 312.343L235.266 313.318L238.896 313.508L237.534 312.343Z" fill="#9C9C9C"/>
<path d="M315.572 314.308L313.297 315.284L316.934 315.481L315.572 314.308Z" fill="#9C9C9C"/>
<path d="M192.445 322.916L190.177 323.892L193.807 324.089L192.445 322.916Z" fill="#9C9C9C"/>
<path d="M327.108 310.594L324.833 311.57L328.47 311.767L327.108 310.594Z" fill="#9C9C9C"/>
<path d="M252.039 315.193L248.508 314.407L246.443 315.081L252.039 315.193Z" fill="#92E3A9"/>
<path d="M231.341 315.481L227.81 314.701L225.746 315.368L231.341 315.481Z" fill="#92E3A9"/>
<path d="M317.552 323.709L314.027 322.923L311.963 323.597L317.552 323.709Z" fill="#92E3A9"/>
<path d="M302.927 310.966L299.403 310.18L297.339 310.854L302.927 310.966Z" fill="#92E3A9"/>
<path d="M275.925 311.991L280.053 311.352L277.266 310.819L275.925 311.991Z" fill="#92E3A9"/>
<path d="M229.446 310.974L233.574 310.335L230.787 309.801L229.446 310.974Z" fill="#92E3A9"/>
<path d="M302.204 314.014L306.332 313.382L303.545 312.841L302.204 314.014Z" fill="#92E3A9"/>
<path d="M300.168 317.51L304.296 316.878L301.509 316.337L300.168 317.51Z" fill="#92E3A9"/>
<path d="M275.04 329.228L272.765 330.204L276.402 330.401L275.04 329.228Z" fill="#9C9C9C"/>
<path d="M298.111 329.958L295.843 330.934L299.473 331.131L298.111 329.958Z" fill="#9C9C9C"/>
<path d="M285.466 326.616L281.942 325.83L279.877 326.504L285.466 326.616Z" fill="#92E3A9"/>
<path d="M284.743 329.663L288.871 329.031L286.084 328.491L284.743 329.663Z" fill="#92E3A9"/>
<path d="M282.707 333.16L286.835 332.528L284.048 331.987L282.707 333.16Z" fill="#92E3A9"/>
<path d="M216.232 327.487L220.36 326.848L217.573 326.314L216.232 327.487Z" fill="#92E3A9"/>
<path d="M89.5105 317.152L93.6459 316.513L90.8585 315.979L89.5105 317.152Z" fill="#92E3A9"/>
<path d="M77.5116 322.151L81.1204 322.916L83.1143 322.235L77.5116 322.151Z" fill="#9C9C9C"/>
<path d="M92.031 325.535L88.5064 324.756L86.4423 325.423L92.031 325.535Z" fill="#92E3A9"/>
<path d="M62.1778 322.621L58.6462 321.835L56.582 322.509L62.1778 322.621Z" fill="#92E3A9"/>
<path d="M58.8639 328.098L62.9993 327.459L60.2119 326.925L58.8639 328.098Z" fill="#92E3A9"/>
</svg>
