<svg width="344" height="343" viewBox="0 0 344 343" fill="none" xmlns="http://www.w3.org/2000/svg">
<path d="M323.298 198.137C332.015 157.567 324.144 115.289 298.179 80.3918C275.2 49.4943 244.24 21.2654 204.962 14.6249C163.056 7.58659 125.677 23.6664 103.888 59.7638C92.6116 78.423 84.4588 98.7903 76.3679 118.952C70.0933 134.497 64.6031 152.168 54.1524 165.566C38.6655 185.35 21.3279 205.676 14.8056 230.454C9.61124 250.3 16.1816 268.575 32.6936 280.635C59.6976 300.365 91.7103 301.785 123.909 300.172C143.566 299.089 163.071 296.103 182.148 291.254C199.258 286.994 215.97 280.176 233.603 278.344C259.94 275.6 282.451 276.972 300.147 253.881C312.352 237.925 319.122 217.585 323.298 198.137Z" fill="#F4BC54"/>
<path opacity="0.7" d="M323.298 198.137C332.015 157.567 324.144 115.289 298.179 80.3918C275.2 49.4943 244.24 21.2654 204.962 14.6249C163.056 7.58659 125.677 23.6664 103.888 59.7638C92.6116 78.423 84.4588 98.7903 76.3679 118.952C70.0933 134.497 64.6031 152.168 54.1524 165.566C38.6655 185.35 21.3279 205.676 14.8056 230.454C9.61124 250.3 16.1816 268.575 32.6936 280.635C59.6976 300.365 91.7103 301.785 123.909 300.172C143.566 299.089 163.071 296.103 182.148 291.254C199.258 286.994 215.97 280.176 233.603 278.344C259.94 275.6 282.451 276.972 300.147 253.881C312.352 237.925 319.122 217.585 323.298 198.137Z" fill="white"/>
<path d="M265.038 95.9711C280.005 95.9711 292.139 83.8731 292.139 68.9495C292.139 54.0259 280.005 41.928 265.038 41.928C250.071 41.928 237.938 54.0259 237.938 68.9495C237.938 83.8731 250.071 95.9711 265.038 95.9711Z" fill="white" stroke="#A8A8A8" stroke-width="0.254472" stroke-linecap="round" stroke-linejoin="round"/>
<path d="M265.038 93.5224C278.649 93.5224 289.682 82.5209 289.682 68.9498C289.682 55.3788 278.649 44.3773 265.038 44.3773C251.428 44.3773 240.394 55.3788 240.394 68.9498C240.394 82.5209 251.428 93.5224 265.038 93.5224Z" fill="white" stroke="#A8A8A8" stroke-width="0.254472" stroke-linecap="round" stroke-linejoin="round"/>
<path d="M256.665 77.4704L265.038 68.9503L285.788 76.5649" stroke="#A8A8A8" stroke-width="0.254472" stroke-linecap="round" stroke-linejoin="round"/>
<path d="M266.676 68.9498C266.674 69.2725 266.577 69.5874 266.396 69.855C266.216 70.1226 265.959 70.3308 265.66 70.4533C265.361 70.5759 265.032 70.6072 264.715 70.5435C264.397 70.4797 264.106 70.3236 263.878 70.095C263.65 69.8664 263.494 69.5755 263.432 69.259C263.369 68.9425 263.402 68.6145 263.526 68.3166C263.65 68.0187 263.86 67.7641 264.129 67.585C264.398 67.4059 264.715 67.3103 265.038 67.3103C265.254 67.3103 265.467 67.3528 265.667 67.4352C265.866 67.5177 266.046 67.6386 266.199 67.7909C266.351 67.9433 266.471 68.1241 266.553 68.3229C266.635 68.5218 266.677 68.7349 266.676 68.9498Z" fill="#A8A8A8" stroke="#A8A8A8" stroke-width="0.254472" stroke-linecap="round" stroke-linejoin="round"/>
<path d="M30.4647 63.1117C31.4554 63.5439 33.8703 63.489 33.9047 63.489C33.9391 63.489 33.3818 61.9112 33.3337 61.8152C32.8039 60.7038 31.1252 58.8791 29.7629 59.0712C29.5349 59.1077 29.3172 59.1922 29.1244 59.3189C28.9315 59.4457 28.7679 59.6119 28.6443 59.8065C28.5207 60.001 28.44 60.2196 28.4075 60.4476C28.375 60.6756 28.3914 60.908 28.4557 61.1292C28.6307 61.5826 28.9002 61.9939 29.2466 62.3357C29.5929 62.6774 30.0081 62.942 30.4647 63.1117Z" fill="#A8A8A8" stroke="#A8A8A8" stroke-width="0.254472" stroke-linecap="round" stroke-linejoin="round"/>
<path d="M62.1402 54.88C60.7642 54.7291 59.1405 56.6019 58.6383 57.7201C58.597 57.8161 58.0948 59.4145 58.1223 59.4076C57.8608 59.7026 57.5925 60.0182 57.2967 60.3749C56.76 61.0609 56.1615 61.7469 55.5629 62.6319C54.91 63.548 54.3105 64.5008 53.7672 65.4856C53.1557 66.5817 52.6423 67.7295 52.233 68.9156C52.2321 68.9316 52.2321 68.9476 52.233 68.9636C52.233 68.5589 52.233 67.4338 52.233 67.3447C52.0748 66.1304 51.0565 63.8735 49.7012 63.6197C49.4726 63.5837 49.239 63.5963 49.0157 63.6569C48.7924 63.7174 48.5845 63.8245 48.4058 63.971C48.227 64.1174 48.0814 64.3001 47.9786 64.5067C47.8757 64.7134 47.818 64.9395 47.8092 65.17C47.8314 65.6636 47.9604 66.1465 48.1872 66.5858C48.414 67.0251 48.7333 67.4103 49.1232 67.7151C50.076 68.3238 51.115 68.7863 52.2055 69.0871C51.8237 70.3101 51.5226 71.5567 51.3042 72.8189C51.1735 73.553 51.0634 74.3007 50.9602 75.0484C50.9602 74.6986 50.9602 74.3624 50.9602 74.3624C50.802 73.1482 49.7768 70.8913 48.4215 70.6375C48.1955 70.6026 47.9646 70.6155 47.7439 70.6754C47.5232 70.7352 47.3176 70.8407 47.1405 70.985C46.9633 71.1293 46.8186 71.3091 46.7157 71.5128C46.6128 71.7165 46.5541 71.9394 46.5432 72.1672C46.561 72.661 46.6873 73.1449 46.9132 73.5846C47.1391 74.0244 47.459 74.4094 47.8504 74.7123C48.7717 75.3197 49.7811 75.7824 50.8432 76.0843L50.74 76.9418C50.5749 78.3138 50.4098 79.6858 50.2172 81.0578C50.1484 81.5312 50.0589 81.9976 49.9764 82.4298C49.9764 82.1211 49.9764 81.8604 49.9764 81.8193C49.8181 80.605 48.793 78.3412 47.4376 78.0943C47.2116 78.0594 46.9808 78.0723 46.7601 78.1322C46.5394 78.192 46.3337 78.2975 46.1566 78.4418C45.9795 78.5861 45.8348 78.7659 45.7319 78.9696C45.629 79.1733 45.5702 79.3963 45.5594 79.6241C45.5809 80.1171 45.7087 80.5997 45.9343 81.0389C46.1599 81.4781 46.4779 81.8636 46.8666 82.1691C47.7601 82.7731 48.7417 83.2359 49.7768 83.5411C49.6736 84.0213 49.5773 84.4947 49.4604 84.9131C49.3709 85.2218 49.3021 85.5237 49.1989 85.8255C49.0957 86.1273 49.0063 86.436 48.91 86.731C48.7036 87.3004 48.4903 87.8835 48.277 88.4323C48.1256 88.8165 47.9812 89.18 47.8298 89.5436C47.9055 89.0703 48.0362 88.1716 48.0362 88.0687C48.0001 87.0103 47.6998 85.9776 47.1624 85.064C47.1728 84.9454 47.1728 84.826 47.1624 84.7073C47.1339 84.4816 47.058 84.2645 46.9396 84.07C46.8212 83.8755 46.6631 83.7081 46.4755 83.5787C46.2879 83.4492 46.0751 83.3607 45.8508 83.3187C45.6266 83.2768 45.396 83.2825 45.1741 83.3353C43.8394 83.6852 42.9932 86.0176 42.9312 87.2387C42.9312 87.3141 42.9794 88.103 43.0138 88.6107C42.945 88.3225 42.8831 88.0413 42.8143 87.7463C42.6698 87.1632 42.5184 86.5801 42.3533 85.949C42.257 85.654 42.1676 85.3522 42.0781 85.0435C41.9887 84.7348 41.858 84.4261 41.7548 84.1174C41.4933 83.4314 41.1906 82.6836 40.8672 81.9702C41.9425 81.7461 42.9773 81.3598 43.9357 80.8246C44.3465 80.5428 44.6908 80.1754 44.9451 79.7478C45.1993 79.3202 45.3573 78.8426 45.408 78.3481C45.4136 78.1203 45.3711 77.8939 45.2832 77.6835C45.1954 77.4732 45.0642 77.2836 44.8981 77.1271C44.732 76.9705 44.5348 76.8505 44.3192 76.7749C44.1037 76.6993 43.8746 76.6697 43.6468 76.688C42.2708 76.832 41.0874 79.0067 40.8397 80.2072C40.8397 80.2826 40.7434 81.1676 40.709 81.6546C40.5095 81.2224 40.3168 80.7971 40.1036 80.3718C39.4912 79.1439 38.8376 77.9159 38.184 76.6949L37.5924 75.5629C37.7781 75.5218 39.9591 75.021 40.7778 74.3899C41.1893 74.1167 41.5361 73.7572 41.794 73.3366C42.0518 72.916 42.2145 72.4444 42.2708 71.9546C42.2772 71.7268 42.2356 71.5003 42.1486 71.2896C42.0616 71.079 41.9311 70.8889 41.7657 70.7317C41.6003 70.5745 41.4036 70.4538 41.1884 70.3773C40.9731 70.3008 40.7442 70.2702 40.5164 70.2876C39.1404 70.4385 37.957 72.6131 37.7093 73.8136C37.7093 73.9028 37.5717 75.1856 37.558 75.4944C37.1314 74.6712 36.7048 73.8411 36.3264 73.0042C35.7933 71.892 35.3337 70.7462 34.9504 69.5742C35.0399 69.5742 37.3172 69.0391 38.1565 68.3942C38.5689 68.1203 38.9162 67.7598 39.1741 67.3379C39.4319 66.916 39.5942 66.4431 39.6495 65.9521C39.655 65.7243 39.6125 65.4979 39.5247 65.2875C39.4368 65.0772 39.3056 64.8876 39.1395 64.731C38.9735 64.5745 38.7762 64.4545 38.5607 64.3789C38.3451 64.3032 38.116 64.2736 37.8882 64.292C36.5122 64.436 35.3288 66.6106 35.0812 67.8111C35.0812 67.9072 34.9367 69.2723 34.9367 69.5261C34.9367 69.4575 34.8816 69.389 34.861 69.3204C34.5255 68.1238 34.2953 66.9004 34.173 65.664C34.0973 64.978 34.0629 64.292 34.0423 63.6814C35.1556 63.5795 36.2464 63.3065 37.2759 62.8719C37.7154 62.6457 38.1001 62.3265 38.4031 61.9367C38.7061 61.5469 38.9202 61.0958 39.0303 60.615C39.0612 60.3886 39.0441 60.1582 38.9802 59.9388C38.9162 59.7194 38.8067 59.5158 38.6589 59.3412C38.511 59.1666 38.3281 59.025 38.1218 58.9253C37.9156 58.8257 37.6907 58.7703 37.4616 58.7628C36.0856 58.7628 34.6684 60.8208 34.29 61.9596C34.29 62.0282 34.1248 62.6936 34.0354 63.1806C34.0354 62.8925 34.0354 62.5975 34.0354 62.3163C34.0354 61.2804 34.1042 60.3269 34.1661 59.4831C34.2074 59.0098 34.2556 58.5776 34.3037 58.1729C35.2381 57.5705 36.0755 56.8303 36.7874 55.9776C37.0701 55.5729 37.2619 55.1121 37.3498 54.6267C37.4376 54.1414 37.4195 53.6428 37.2965 53.165C37.222 52.9523 37.1039 52.7572 36.9498 52.5924C36.7956 52.4275 36.6088 52.2964 36.4011 52.2074C36.1934 52.1184 35.9695 52.0734 35.7434 52.0753C35.5174 52.0771 35.2942 52.1259 35.088 52.2184C33.8634 52.8495 33.54 55.3054 33.712 56.5127C33.712 56.6156 34.1868 58.2209 34.2074 58.2071C34.1524 58.5913 34.0973 59.0098 34.0492 59.4625C33.9666 60.3063 33.884 61.2598 33.8565 62.3026C33.817 63.426 33.8446 64.5507 33.9391 65.6708C34.0325 66.9245 34.242 68.1669 34.5652 69.3821C34.5611 69.3978 34.5611 69.4144 34.5652 69.4301C34.345 69.0871 33.7052 68.161 33.6501 68.0581C32.8452 67.132 30.7468 65.8149 29.474 66.35C29.2694 66.4482 29.0877 66.588 28.9405 66.7604C28.7933 66.9327 28.6838 67.1338 28.619 67.3508C28.5543 67.5678 28.5356 67.7959 28.5644 68.0205C28.5931 68.245 28.6686 68.4611 28.786 68.6549C29.0804 69.0492 29.4564 69.3757 29.8885 69.6125C30.3206 69.8492 30.7986 69.9905 31.2903 70.0269C32.4277 70.0233 33.5578 69.8452 34.6408 69.4987C34.9989 70.7303 35.4355 71.9378 35.948 73.1139C36.2439 73.7999 36.5672 74.4859 36.8975 75.1719L36.4916 74.5957C35.6866 73.6627 33.5882 72.3456 32.3223 72.8807C32.1168 72.9789 31.9342 73.1189 31.7863 73.2918C31.6384 73.4647 31.5286 73.6665 31.4637 73.8844C31.3989 74.1022 31.3806 74.3311 31.41 74.5565C31.4393 74.7818 31.5158 74.9984 31.6343 75.1925C31.9257 75.5882 32.3001 75.916 32.7314 76.1529C33.1627 76.3898 33.6405 76.5303 34.1317 76.5645C35.2378 76.5683 36.3378 76.4017 37.3928 76.0706L37.7781 76.8458C38.4042 78.0874 39.0303 79.3222 39.6082 80.5502C39.8146 80.9823 40.0004 81.4214 40.1861 81.8536C40.0141 81.5997 39.8628 81.3871 39.8352 81.3528C39.0303 80.4267 36.9319 79.1096 35.6591 79.6446C35.4545 79.7429 35.2728 79.8827 35.1256 80.0551C34.9784 80.2274 34.8689 80.4285 34.8041 80.6455C34.7394 80.8625 34.7208 81.0906 34.7495 81.3151C34.7783 81.5397 34.8537 81.7558 34.9711 81.9496C35.2655 82.3439 35.6415 82.6704 36.0736 82.9071C36.5057 83.1439 36.9838 83.2852 37.4754 83.3216C38.5505 83.3238 39.6198 83.1643 40.6471 82.8483C40.826 83.2942 41.0048 83.7469 41.1562 84.2203C41.2525 84.5221 41.3695 84.8102 41.4452 85.1258C41.5208 85.4413 41.6172 85.7363 41.6997 86.0382C41.8442 86.6213 41.9956 87.2318 42.1194 87.808C42.2088 88.2059 42.2845 88.5901 42.3602 88.9742C42.1607 88.5421 41.7548 87.6983 41.7135 87.6022C41.0599 86.5664 39.1816 84.9406 37.8469 85.2836C37.6266 85.3459 37.4219 85.4538 37.2461 85.6002C37.0704 85.7467 36.9276 85.9284 36.8269 86.1336C36.7263 86.3387 36.6702 86.5627 36.6622 86.7909C36.6542 87.0192 36.6945 87.2465 36.7805 87.4582C37.0074 87.8966 37.3264 88.281 37.7159 88.5853C38.1053 88.8895 38.556 89.1064 39.0372 89.2212C40.1567 89.3914 41.2957 89.3914 42.4152 89.2212C42.546 89.8592 42.6629 90.4834 42.7661 91.0734C43.1239 93.1314 43.3509 94.8258 43.4885 96.0195H37.152V116.071H51.6V96.1155H45.8621C46.3712 95.0453 47.0248 93.6116 47.7266 91.8966C47.9812 91.2861 48.2357 90.6275 48.4972 89.9484C49.5985 90.2071 50.7333 90.2951 51.8615 90.209C52.3507 90.1331 52.8174 89.9512 53.2286 89.6763C53.6398 89.4014 53.9857 89.04 54.242 88.6175C54.3439 88.4132 54.4013 88.1897 54.4105 87.9617C54.4197 87.7337 54.3805 87.5064 54.2954 87.2946C54.2103 87.0828 54.0812 86.8913 53.9167 86.7327C53.7522 86.5741 53.5559 86.452 53.3407 86.3743C52.0404 85.9353 50.0452 87.417 49.3159 88.4323C49.2746 88.4872 48.8756 89.1732 48.6279 89.6054C48.7311 89.331 48.8343 89.0634 48.9375 88.7753C49.1439 88.2059 49.3365 87.6365 49.5429 87.0191C49.6324 86.7242 49.7218 86.4223 49.8181 86.1136C49.9144 85.8049 49.9764 85.4825 50.0589 85.1601C50.2378 84.4192 50.3823 83.6577 50.513 82.8826C51.5315 83.2939 52.609 83.5417 53.7053 83.6166C54.2009 83.6129 54.6899 83.5026 55.1388 83.293C55.5877 83.0834 55.9858 82.7796 56.306 82.4024C56.4366 82.2155 56.5263 82.0033 56.5694 81.7795C56.6124 81.5558 56.6079 81.3256 56.556 81.1037C56.5041 80.8819 56.406 80.6734 56.2681 80.4918C56.1302 80.3101 55.9556 80.1594 55.7556 80.0494C54.5309 79.4183 52.3156 80.5776 51.4624 81.4214C51.4074 81.4694 50.857 82.1623 50.5543 82.5464C50.63 82.0868 50.7056 81.6203 50.7607 81.1744C50.9327 79.8024 51.0634 78.4304 51.1941 77.0584C51.2354 76.6331 51.2836 76.2146 51.3317 75.7962C51.5037 75.8579 53.6021 76.64 54.6341 76.5645C55.1285 76.5635 55.6167 76.4549 56.0647 76.2464C56.5127 76.0379 56.9096 75.7344 57.2279 75.3571C57.3599 75.1705 57.451 74.9581 57.4953 74.734C57.5395 74.5098 57.5358 74.2789 57.4846 74.0562C57.4333 73.8336 57.3355 73.6242 57.1976 73.4417C57.0598 73.2593 56.8849 73.1079 56.6844 72.9973C55.4597 72.3662 53.2444 73.5255 52.3912 74.3693C52.3224 74.4311 51.5244 75.4257 51.3386 75.6864C51.4349 74.7603 51.545 73.8411 51.6826 72.9424C51.8671 71.7068 52.1361 70.4851 52.4876 69.286C52.5701 69.286 54.7511 70.1367 55.8106 70.0612C56.305 70.0602 56.7932 69.9516 57.2412 69.7431C57.6892 69.5346 58.0861 69.2311 58.4044 68.8539C58.5361 68.6667 58.6269 68.454 58.6706 68.2296C58.7143 68.0051 58.7101 67.774 58.6581 67.5513C58.6062 67.3286 58.5077 67.1193 58.3691 66.9371C58.2306 66.755 58.055 66.604 57.854 66.494C56.6293 65.8629 54.414 67.0291 53.5677 67.866C53.4989 67.9346 52.6389 69.0048 52.4944 69.238C52.4944 69.1694 52.4944 69.094 52.5495 69.0254C52.9267 67.8411 53.4103 66.6931 53.9943 65.5954C54.3039 64.978 54.641 64.4154 54.9781 63.8666C55.9621 64.3958 57.0229 64.7685 58.1223 64.9711C58.6206 65.03 59.1258 64.978 59.6016 64.8191C60.0775 64.6602 60.5121 64.3982 60.8743 64.0519C61.026 63.8807 61.1397 63.6796 61.2078 63.4615C61.276 63.2435 61.2972 63.0135 61.2699 62.7867C61.2426 62.56 61.1675 62.3415 61.0495 62.1458C60.9315 61.95 60.7733 61.7813 60.5853 61.6509C59.4432 60.8894 57.1453 61.8018 56.1684 62.5701C56.1202 62.6113 55.6317 63.0915 55.2808 63.4482C55.4391 63.2012 55.5973 62.9474 55.7487 62.721C56.3266 61.8567 56.9045 61.0952 57.4274 60.4298C57.7301 60.0525 58.0053 59.7438 58.2668 59.4076C59.3804 59.4204 60.4895 59.2631 61.5554 58.9412C62.0161 58.7628 62.4321 58.4862 62.7744 58.1307C63.1167 57.7752 63.3769 57.3494 63.5368 56.8832C63.5932 56.659 63.6009 56.4254 63.5592 56.198C63.5175 55.9707 63.4274 55.7549 63.2951 55.5651C63.1628 55.3753 62.9913 55.216 62.7921 55.0978C62.5929 54.9797 62.3706 54.9054 62.1402 54.88ZM47.0042 91.5673C46.1717 93.4675 45.4149 94.9973 44.8645 96.0949H44.3967V95.9714C44.2316 94.7641 43.9701 93.0422 43.5642 90.9911C43.4335 90.3394 43.2821 89.6534 43.1239 88.9331C43.7679 88.6725 44.3972 88.3771 45.009 88.0482C45.839 88.7615 46.7654 89.3549 47.761 89.8112C47.472 90.4491 47.2175 91.0322 46.9767 91.581L47.0042 91.5673Z" fill="#F8D18A" stroke="#A8A8A8" stroke-width="0.254472" stroke-linecap="round" stroke-linejoin="round"/>
<path d="M54.9231 63.6268C54.9231 63.6268 55.3634 62.0284 55.3772 61.9186C55.5492 60.7044 55.157 58.2622 53.9186 57.6654C53.71 57.5712 53.4839 57.5218 53.2548 57.5205C53.0258 57.5193 52.7991 57.5661 52.5895 57.658C52.3798 57.7499 52.192 57.8848 52.0381 58.0539C51.8842 58.223 51.7678 58.4226 51.6964 58.6395C51.5872 59.121 51.5835 59.6204 51.6857 60.1034C51.7878 60.5864 51.9933 61.0418 52.2881 61.4384C52.8729 62.3439 54.9231 63.6268 54.9231 63.6268Z" fill="#A8A8A8" stroke="#A8A8A8" stroke-width="0.254472" stroke-linecap="round" stroke-linejoin="round"/>
<path d="M110.073 116.428H32.5906V323.805H110.073V116.428Z" fill="white" stroke="#A8A8A8" stroke-width="0.254472" stroke-linecap="round" stroke-linejoin="round"/>
<path d="M105.347 122.197H36.6222V163.707H105.347V122.197Z" fill="white" stroke="#A8A8A8" stroke-width="0.254472" stroke-linecap="round" stroke-linejoin="round"/>
<path d="M76.0584 129.091H63.5093V133.976H76.0584V129.091Z" fill="#809BEB" stroke="#A8A8A8" stroke-width="0.254472" stroke-linecap="round" stroke-linejoin="round"/>
<path d="M105.347 171.857H36.6222V213.367H105.347V171.857Z" fill="white" stroke="#A8A8A8" stroke-width="0.254472" stroke-linecap="round" stroke-linejoin="round"/>
<path d="M76.0584 178.751H63.5093V183.635H76.0584V178.751Z" fill="#809BEB" stroke="#A8A8A8" stroke-width="0.254472" stroke-linecap="round" stroke-linejoin="round"/>
<path d="M105.347 221.509H36.6222V263.019H105.347V221.509Z" fill="white" stroke="#A8A8A8" stroke-width="0.254472" stroke-linecap="round" stroke-linejoin="round"/>
<path d="M76.0584 228.41H63.5093V233.294H76.0584V228.41Z" fill="#809BEB" stroke="#A8A8A8" stroke-width="0.254472" stroke-linecap="round" stroke-linejoin="round"/>
<path d="M105.347 271.169H36.6222V312.679H105.347V271.169Z" fill="white" stroke="#A8A8A8" stroke-width="0.254472" stroke-linecap="round" stroke-linejoin="round"/>
<path d="M76.0584 278.07H63.5093V282.954H76.0584V278.07Z" fill="#809BEB" stroke="#A8A8A8" stroke-width="0.254472" stroke-linecap="round" stroke-linejoin="round"/>
<path d="M103.737 78.1903H65.0779V109.698H103.737V78.1903Z" fill="white" stroke="#A8A8A8" stroke-width="0.254472" stroke-linecap="round" stroke-linejoin="round"/>
<path d="M105.223 116.359V97.4526L85.8969 76.6942H63.5919V116.359H105.223Z" fill="#F8D18A" stroke="#A8A8A8" stroke-width="0.254472" stroke-linecap="round" stroke-linejoin="round"/>
<path d="M263.511 146.605H243.456V200.236H263.511V146.605Z" fill="white" stroke="#A8A8A8" stroke-width="0.254472" stroke-linecap="round" stroke-linejoin="round"/>
<path d="M289.944 139.786H217.016V191.599H289.944V139.786Z" fill="#F8D18A" stroke="#A8A8A8" stroke-width="0.254472" stroke-linecap="round" stroke-linejoin="round"/>
<path d="M286.758 142.969H220.208V188.416H286.758V142.969Z" fill="white" stroke="#A8A8A8" stroke-width="0.254472" stroke-linecap="round" stroke-linejoin="round"/>
<path d="M277.911 177.817C282.003 177.153 284.779 173.307 284.113 169.227C283.447 165.148 279.59 162.379 275.498 163.043C271.406 163.708 268.63 167.554 269.296 171.633C269.963 175.713 273.82 178.482 277.911 177.817Z" fill="#A8A8A8"/>
<path d="M276.149 165.531V164.763H277.477V165.531C278.633 165.764 279.225 166.649 279.225 168.049V168.371H277.684V167.946C277.684 167.205 277.388 166.931 276.872 166.931C276.356 166.931 276.06 167.205 276.06 167.946C276.06 170.066 279.238 170.169 279.238 173.111C279.238 174.483 278.633 175.41 277.477 175.643V176.397H276.149V175.615C274.98 175.382 274.388 174.483 274.388 173.084V172.398H275.929V173.207C275.929 173.948 276.253 174.209 276.769 174.209C277.285 174.209 277.615 173.948 277.615 173.207C277.615 171.088 274.436 170.985 274.436 168.042C274.436 166.697 275.014 165.778 276.149 165.531Z" fill="white"/>
<path d="M230.535 172.7L239.63 162.952L246.909 167.26L253.734 159.097L263.738 163.178L277.154 152.298" stroke="#A8A8A8" stroke-width="0.763415" stroke-linecap="round" stroke-linejoin="round"/>
<path d="M280.876 149.287L272.152 150.659L277.704 157.506L280.876 149.287Z" fill="#A8A8A8"/>
<path d="M269.435 199.776H237.986V202.507H269.435V199.776Z" fill="white" stroke="#A8A8A8" stroke-width="0.254472" stroke-linecap="round" stroke-linejoin="round"/>
<path d="M222.485 199.776H162.32V202.507H222.485V199.776Z" fill="white" stroke="#A8A8A8" stroke-width="0.254472" stroke-linecap="round" stroke-linejoin="round"/>
<path d="M318.661 211.768H313.192V324.025H318.661V211.768Z" fill="white" stroke="#A8A8A8" stroke-width="0.254472" stroke-linecap="round" stroke-linejoin="round"/>
<path d="M315.895 211.768H160.497V229.042H315.895V211.768Z" fill="white" stroke="#A8A8A8" stroke-width="0.254472" stroke-linecap="round" stroke-linejoin="round"/>
<path d="M164.143 211.768H158.673V324.025H164.143V211.768Z" fill="white" stroke="#A8A8A8" stroke-width="0.254472" stroke-linecap="round" stroke-linejoin="round"/>
<path d="M318.661 211.768H259.865V307.211H318.661V211.768Z" fill="white" stroke="#A8A8A8" stroke-width="0.254472" stroke-linecap="round" stroke-linejoin="round"/>
<path d="M322.314 205.902H154.649V213.586H322.314V205.902Z" fill="#F8D18A" stroke="#A8A8A8" stroke-width="0.254472" stroke-linecap="round" stroke-linejoin="round"/>
<path d="M327.323 202.733H149.626V207.652H327.323V202.733Z" fill="white" stroke="#A8A8A8" stroke-width="0.254472" stroke-linecap="round" stroke-linejoin="round"/>
<path d="M315.469 218.127H263.05V241.307H315.469V218.127Z" fill="white" stroke="#A8A8A8" stroke-width="0.254472" stroke-linecap="round" stroke-linejoin="round"/>
<path d="M293.136 228.129H283.566V230.859H293.136V228.129Z" fill="#A8A8A8" stroke="#A8A8A8" stroke-width="0.254472" stroke-linecap="round" stroke-linejoin="round"/>
<path d="M315.469 249.031H263.05V272.211H315.469V249.031Z" fill="white" stroke="#A8A8A8" stroke-width="0.254472" stroke-linecap="round" stroke-linejoin="round"/>
<path d="M293.136 259.034H283.566V261.764H293.136V259.034Z" fill="#A8A8A8" stroke="#A8A8A8" stroke-width="0.254472" stroke-linecap="round" stroke-linejoin="round"/>
<path d="M315.469 279.936H263.05V303.115H315.469V279.936Z" fill="white" stroke="#A8A8A8" stroke-width="0.254472" stroke-linecap="round" stroke-linejoin="round"/>
<path d="M293.136 289.938H283.566V292.668H293.136V289.938Z" fill="#A8A8A8" stroke="#A8A8A8" stroke-width="0.254472" stroke-linecap="round" stroke-linejoin="round"/>
<path d="M220.256 250.911H212.702V279.648H220.256V250.911Z" fill="#F8D18A" stroke="#A8A8A8" stroke-width="0.254472" stroke-linecap="round" stroke-linejoin="round"/>
<path d="M222.169 275.134H210.783V311.472H222.169V275.134Z" fill="#F8D18A" stroke="#A8A8A8" stroke-width="0.254472" stroke-linecap="round" stroke-linejoin="round"/>
<path d="M221.935 310.518L216.658 309.098V308.844L216.176 308.967L215.702 308.844V309.098L210.425 310.518L174.456 317.206V319.84H215.702H216.658H257.897V317.206L221.935 310.518Z" fill="#F8D18A" stroke="#A8A8A8" stroke-width="0.254472" stroke-linecap="round" stroke-linejoin="round"/>
<path d="M180.091 321.514C180.088 322.01 179.938 322.494 179.66 322.905C179.382 323.317 178.987 323.636 178.527 323.824C178.067 324.012 177.561 324.06 177.073 323.961C176.586 323.863 176.138 323.623 175.788 323.271C175.437 322.919 175.198 322.472 175.102 321.985C175.006 321.499 175.057 320.995 175.248 320.537C175.439 320.079 175.762 319.687 176.175 319.412C176.589 319.137 177.075 318.99 177.573 318.99C177.905 318.99 178.233 319.055 178.54 319.182C178.846 319.309 179.124 319.495 179.358 319.73C179.592 319.965 179.777 320.243 179.903 320.549C180.029 320.856 180.093 321.183 180.091 321.514Z" fill="#A8A8A8" stroke="#A8A8A8" stroke-width="0.254472" stroke-linecap="round" stroke-linejoin="round"/>
<path d="M218.694 321.514C218.694 322.011 218.547 322.496 218.27 322.909C217.993 323.322 217.6 323.644 217.14 323.834C216.68 324.024 216.174 324.074 215.685 323.977C215.197 323.88 214.748 323.641 214.396 323.29C214.044 322.938 213.804 322.491 213.707 322.004C213.61 321.517 213.659 321.012 213.85 320.553C214.041 320.095 214.363 319.702 214.777 319.427C215.192 319.151 215.678 319.003 216.176 319.003C216.844 319.003 217.485 319.268 217.957 319.739C218.429 320.21 218.694 320.848 218.694 321.514Z" fill="#A8A8A8" stroke="#A8A8A8" stroke-width="0.254472" stroke-linecap="round" stroke-linejoin="round"/>
<path d="M257.539 321.514C257.539 322.011 257.391 322.496 257.115 322.909C256.838 323.322 256.445 323.644 255.985 323.834C255.525 324.024 255.018 324.074 254.53 323.977C254.041 323.88 253.593 323.641 253.24 323.29C252.888 322.938 252.648 322.491 252.551 322.004C252.454 321.517 252.504 321.012 252.695 320.553C252.885 320.095 253.208 319.702 253.622 319.427C254.036 319.151 254.523 319.003 255.021 319.003C255.689 319.003 256.329 319.268 256.802 319.739C257.274 320.21 257.539 320.848 257.539 321.514Z" fill="#A8A8A8" stroke="#A8A8A8" stroke-width="0.254472" stroke-linecap="round" stroke-linejoin="round"/>
<path d="M180.043 223.368H187.514V255.651H184.852C183.574 255.651 182.35 255.145 181.446 254.245C180.543 253.344 180.036 252.123 180.036 250.849V223.368H180.043Z" fill="white" stroke="#A8A8A8" stroke-width="0.254472" stroke-linecap="round" stroke-linejoin="round"/>
<path d="M187.514 216.625H175.77V222.654H187.514V216.625Z" fill="white" stroke="#A8A8A8" stroke-width="0.254472" stroke-linecap="round" stroke-linejoin="round"/>
<path d="M245.705 255.651C246.687 255.652 247.66 255.46 248.567 255.086C249.474 254.712 250.299 254.164 250.993 253.472C251.688 252.78 252.239 251.958 252.615 251.054C252.991 250.15 253.184 249.18 253.184 248.201V223.368H245.705V255.651Z" fill="white" stroke="#A8A8A8" stroke-width="0.254472" stroke-linecap="round" stroke-linejoin="round"/>
<path d="M245.705 222.654H257.45V216.624H245.705V222.654Z" fill="white" stroke="#A8A8A8" stroke-width="0.254472" stroke-linecap="round" stroke-linejoin="round"/>
<path d="M239.624 259.993H193.328C190.73 259.993 188.238 258.964 186.4 257.132C184.563 255.3 183.531 252.816 183.531 250.225L189.035 181.22C189.034 180.151 189.245 179.091 189.655 178.103C190.065 177.115 190.666 176.217 191.425 175.46C192.183 174.704 193.084 174.104 194.075 173.695C195.066 173.286 196.129 173.076 197.201 173.077H235.771C236.843 173.076 237.906 173.286 238.897 173.695C239.888 174.104 240.789 174.704 241.547 175.46C242.306 176.217 242.907 177.115 243.317 178.103C243.728 179.091 243.938 180.151 243.937 181.22L249.441 250.225C249.44 251.509 249.186 252.781 248.692 253.967C248.198 255.153 247.474 256.23 246.562 257.138C245.651 258.045 244.569 258.764 243.378 259.254C242.187 259.744 240.912 259.995 239.624 259.993Z" fill="white" stroke="#A8A8A8" stroke-width="0.254472" stroke-linecap="round" stroke-linejoin="round"/>
<path d="M239.624 263.63H193.328C192.041 263.631 190.767 263.379 189.578 262.888C188.389 262.397 187.308 261.678 186.398 260.771C185.488 259.863 184.767 258.786 184.275 257.6C183.783 256.415 183.53 255.144 183.531 253.861L189.035 184.856C189.035 182.697 189.895 180.626 191.427 179.098C192.958 177.571 195.036 176.714 197.201 176.714H235.771C237.937 176.714 240.014 177.571 241.545 179.098C243.077 180.626 243.937 182.697 243.937 184.856L249.441 253.861C249.441 255.146 249.187 256.418 248.694 257.604C248.2 258.791 247.476 259.868 246.564 260.776C245.653 261.683 244.57 262.402 243.379 262.892C242.188 263.382 240.912 263.632 239.624 263.63Z" fill="white" stroke="#A8A8A8" stroke-width="0.254472" stroke-linecap="round" stroke-linejoin="round"/>
<path d="M129.22 186.921L125.45 197.348C125.45 197.348 104.665 227.628 98.8518 236.896C93.0382 246.164 93.7262 245.011 94.0358 248.201C94.3454 251.391 107.844 295.611 108.133 300.248C108.317 302.76 108.317 305.282 108.133 307.794L113.637 306.923C112.84 308.99 111.766 310.94 110.445 312.72C108.381 315.326 108.119 316.479 104.631 319.086C101.143 321.693 98.5354 321.693 100.565 322.852C102.595 324.011 111.312 324.011 113.926 322.276C116.54 320.54 118.288 317.35 119.74 315.903L122.065 313.584L122.932 316.191C122.932 316.191 125.842 313.008 126.998 312.425C128.154 311.842 129.062 310.106 129.062 310.106C129.062 310.106 128.188 307.794 127.321 306.052C126.454 304.309 122.959 301.709 122.959 301.709C122.959 301.709 120.448 277.699 118.143 266.394C115.839 255.089 117.311 254.876 116.726 253.134C116.315 251.948 115.83 250.788 115.274 249.663L139.664 218.251C139.876 218.03 140.141 217.867 140.435 217.777C140.709 217.696 141 217.682 141.281 217.737C141.563 217.791 141.827 217.913 142.05 218.092C142.274 218.271 142.451 218.501 142.566 218.762C142.682 219.024 142.732 219.31 142.712 219.595C142.093 228.733 141.074 255.349 142.313 259.047C143.764 263.389 154.284 279.49 155.089 281.061C157.153 285.088 166.902 297.662 168.649 301.428C170.397 305.194 172.131 309.249 172.131 309.249L177.36 306.065C177.36 306.065 178.818 308.089 177.36 309.832C175.901 311.574 171.553 318.228 168.36 320.259C165.168 322.289 166.296 324.025 166.296 324.025C166.296 324.025 177.917 323.73 179.946 323.442C181.976 323.154 183.435 320.835 184.886 318.811C186.165 316.851 187.329 314.82 188.374 312.727L190.7 314.785C190.7 314.785 192.152 311.883 193.025 309.564C193.559 308.076 193.852 306.513 193.892 304.934C193.892 304.934 190.411 301.744 188.085 300.879C185.76 300.015 183.724 299.137 183.724 299.137L180.82 294.794C180.82 294.794 172.977 267.567 169.489 260.906C167.617 257.168 165.168 253.747 162.23 250.767C162.23 250.767 171.622 216.467 173.362 208.962C174.409 204.473 175.185 199.926 175.688 195.345C168.422 190.19 160.086 186.73 151.298 185.22C136.485 182.579 129.22 186.921 129.22 186.921Z" fill="#212121" stroke="#212121" stroke-width="0.254472" stroke-linecap="round" stroke-linejoin="round"/>
<path d="M144.384 190.571V193.85C144.384 193.85 139.265 198.954 139.815 200.6C140.366 202.246 141.645 209.518 141.645 209.518" stroke="#7A7A7A" stroke-width="0.254472" stroke-linecap="round" stroke-linejoin="round"/>
<path d="M148.044 190.749L148.408 194.398C148.408 194.398 143.654 200.415 143.469 201.327C143.406 202.303 143.468 203.283 143.654 204.243" stroke="#7A7A7A" stroke-width="0.254472" stroke-linecap="round" stroke-linejoin="round"/>
<path d="M153.163 193.486C157.539 194.681 161.778 196.332 165.808 198.411" stroke="#7A7A7A" stroke-width="0.254472" stroke-linecap="round" stroke-linejoin="round"/>
<path d="M165.994 200.902C162.879 199.647 159.695 198.571 156.458 197.677" stroke="#7A7A7A" stroke-width="0.254472" stroke-linecap="round" stroke-linejoin="round"/>
<path d="M170.356 202.603L168.292 201.794" stroke="#7A7A7A" stroke-width="0.254472" stroke-linecap="round" stroke-linejoin="round"/>
<path d="M152.825 210.554C156.341 209.319 160.958 208.063 164.872 208.256" stroke="#7A7A7A" stroke-width="0.254472" stroke-linecap="round" stroke-linejoin="round"/>
<path d="M147.314 212.818C147.314 212.818 148.367 212.303 150.066 211.617" stroke="#7A7A7A" stroke-width="0.254472" stroke-linecap="round" stroke-linejoin="round"/>
<path d="M134.222 201.622L135.426 202.788" stroke="#7A7A7A" stroke-width="0.254472" stroke-linecap="round" stroke-linejoin="round"/>
<path d="M128.477 196.038L132.461 199.914" stroke="#7A7A7A" stroke-width="0.254472" stroke-linecap="round" stroke-linejoin="round"/>
<path d="M129.206 192.396L135.791 193.123" stroke="#7A7A7A" stroke-width="0.254472" stroke-linecap="round" stroke-linejoin="round"/>
<path d="M166.923 122.293C166.923 122.293 155.392 123.665 152.069 124.44C148.746 125.216 146.4 125.216 145.615 126.19C144.831 127.164 137.8 133.4 134.477 135.142C131.153 136.884 121.184 139.628 120.985 140.212C120.785 140.795 122.361 150.543 121.962 153.657C121.563 156.772 121.184 158.727 121.184 158.727L139.76 151.517C139.76 151.517 135.068 169.449 133.307 173.928C131.546 178.408 131.16 181.337 129.791 182.311C128.422 183.285 127.246 183.093 127.246 184.843C127.246 186.592 128.422 188.959 129.007 189.13C129.592 189.302 141.714 187.758 146.406 188.547C151.099 189.336 168.883 196.93 172.599 199.461C176.314 201.993 176.506 200.833 177.876 198.089C179.245 195.345 179.252 189.713 179.252 189.123C179.252 188.533 193.899 156.408 193.899 156.408C193.899 156.408 196.046 172.584 198.199 173.757C200.353 174.93 205.43 174.731 207.776 170.053C210.122 165.374 215.007 158.391 212.668 152.903C210.329 147.415 207.164 140.623 205.43 136.72C203.696 132.816 202.107 132.432 197.614 130.683C193.122 128.934 181.192 123.274 180.022 123.082C178.853 122.89 166.923 122.293 166.923 122.293Z" fill="white" stroke="#212121" stroke-width="0.254472" stroke-linecap="round" stroke-linejoin="round"/>
<path d="M158.839 175.746C162.829 181.076 168.993 189.781 170.5 194.625" stroke="#212121" stroke-width="0.254472" stroke-linecap="round" stroke-linejoin="round"/>
<path d="M155.33 171.184C155.33 171.184 155.873 171.87 156.761 173.016" stroke="#212121" stroke-width="0.254472" stroke-linecap="round" stroke-linejoin="round"/>
<path d="M174.559 193.355C174.731 193.698 174.89 194.041 175.048 194.371" stroke="#212121" stroke-width="0.254472" stroke-linecap="round" stroke-linejoin="round"/>
<path d="M171.002 187.065C171.002 187.065 172.213 188.992 173.465 191.27" stroke="#212121" stroke-width="0.254472" stroke-linecap="round" stroke-linejoin="round"/>
<path d="M137.132 187.319C137.132 187.319 149.771 186.557 152.55 187.065" stroke="#212121" stroke-width="0.254472" stroke-linecap="round" stroke-linejoin="round"/>
<path d="M150.018 188.32C150.018 188.32 157.586 189.082 160.641 190.337" stroke="#212121" stroke-width="0.254472" stroke-linecap="round" stroke-linejoin="round"/>
<path d="M193.899 156.401L191.828 149.61L191.45 155.592L183.201 155.214L191.828 160.263L193.899 156.401Z" fill="#212121" stroke="#212121" stroke-width="0.254472" stroke-linecap="round" stroke-linejoin="round"/>
<path d="M139.754 152.113L145.615 131.259" stroke="#212121" stroke-width="0.254472" stroke-linecap="round" stroke-linejoin="round"/>
<path d="M142.684 141.199L140.462 135.594L140.084 148.491L137.276 148.862L139.753 151.53L142.684 141.199Z" fill="#212121" stroke="#212121" stroke-width="0.254472" stroke-linecap="round" stroke-linejoin="round"/>
<path d="M122.939 138.668C122.939 138.668 127.631 143.147 128.443 146.653C129.255 150.158 126.489 155.619 125.12 157.766C123.751 159.913 122.189 160.51 118.274 160.887C114.359 161.264 110.066 157.958 109.874 154.645C109.681 151.331 114.538 137.886 122.939 138.668Z" fill="white" stroke="#212121" stroke-width="0.254472" stroke-linecap="round" stroke-linejoin="round"/>
<path d="M157.738 145.096C157.738 145.096 147.769 157.183 139.946 161.663C132.123 166.142 127.239 169.264 127.239 169.264L124.487 182.298C124.487 182.298 135.433 180.74 138.756 179.554C142.079 178.367 142.884 177.797 142.884 177.797C142.884 177.797 149.764 163.391 154.422 155.386C159.079 147.38 159.699 146.228 159.699 146.228L157.738 145.096Z" fill="#212121" stroke="#212121" stroke-width="0.254472" stroke-linecap="round" stroke-linejoin="round"/>
<path d="M159.107 130.868C159.107 131.451 157.731 145.095 157.731 145.095L159.685 146.268L172.585 136.713C172.585 136.713 173.17 134.38 172.392 134.38C171.615 134.38 165.354 138.86 165.354 138.86L159.85 136.713L160.435 131.067L159.107 130.868Z" fill="#212121" stroke="#212121" stroke-width="0.254472" stroke-linecap="round" stroke-linejoin="round"/>
<path d="M165.939 138.448L165.361 138.86L164.625 138.572L158.323 139.169C158.171 140.726 158.027 142.194 157.917 143.285L164.577 142.654L170.886 137.975L165.939 138.448Z" fill="#EF9B00" stroke="#212121" stroke-width="0.254472" stroke-linecap="round" stroke-linejoin="round"/>
<path d="M153.644 156.758L145.636 157.519C143.865 159.057 141.961 160.434 139.946 161.635L138.976 162.198L151.291 161.024C152.096 159.543 152.887 158.088 153.644 156.758Z" fill="#EF9B00" stroke="#212121" stroke-width="0.254472" stroke-linecap="round" stroke-linejoin="round"/>
<path d="M126.303 173.743L145.767 171.898C146.413 170.588 147.143 169.154 147.899 167.617L127.177 169.586L126.303 173.743Z" fill="#EF9B00" stroke="#212121" stroke-width="0.254472" stroke-linecap="round" stroke-linejoin="round"/>
<path d="M155.426 147.764C154.318 149.013 152.88 150.577 151.25 152.237L156.575 151.729C157.834 149.562 158.598 148.224 159.052 147.421L155.426 147.764Z" fill="#EF9B00" stroke="#212121" stroke-width="0.254472" stroke-linecap="round" stroke-linejoin="round"/>
<path d="M168.292 118.788C168.292 118.788 162.43 121.71 161.646 123.075C160.861 124.44 159.492 129.112 156.561 132.816C153.63 136.521 150.307 139.052 153.238 137.886C156.169 136.72 160.304 132.398 160.304 132.398L162.065 137.886C162.065 137.886 163.042 138.277 164.817 137.495C166.592 136.713 170.48 133.989 170.48 135.547C170.48 137.104 169.31 144.705 170.48 143.539C171.649 142.372 172.241 138.469 176.933 134.765C181.625 131.06 185.733 128.92 185.925 124.632C186.118 120.345 184.756 119.371 180.841 118.397C176.926 117.423 168.684 117.992 168.292 118.788Z" fill="white" stroke="#212121" stroke-width="0.254472" stroke-linecap="round" stroke-linejoin="round"/>
<path d="M166.338 115.083C166.338 115.083 166.923 118.197 165.161 123.267C163.4 128.336 159.3 139.443 162.815 138.276C166.331 137.11 180.015 125.997 181.192 124.44C182.368 122.882 185.32 111.179 185.32 111.179C185.32 111.179 173.789 114.301 170.459 114.692C167.129 115.083 166.338 115.083 166.338 115.083Z" fill="#A8A8A8" stroke="#212121" stroke-width="0.254472" stroke-linecap="round" stroke-linejoin="round"/>
<path d="M166.338 115.083C166.543 116.922 166.408 118.782 165.939 120.571C182.602 117.375 185.299 111.166 185.299 111.166C185.299 111.166 173.768 114.288 170.438 114.679C167.108 115.07 166.338 115.083 166.338 115.083Z" fill="#212121" stroke="#212121" stroke-width="0.254472" stroke-linecap="round" stroke-linejoin="round"/>
<path d="M191.161 106.508C191.161 106.508 189.4 104.361 196.83 102.022C204.26 99.6823 208.56 97.343 207.583 92.8634C206.606 88.3838 201.329 87.2108 201.329 87.2108C201.329 87.2108 205.822 78.8279 202.891 77.0717C199.96 75.3155 196.438 77.8537 196.438 77.8537C196.438 77.8537 197.222 71.618 194.092 71.4191C190.961 71.2201 187.838 73.9573 187.838 73.9573C187.838 73.9573 187.645 67.5226 182.169 68.6956C176.692 69.8687 178.653 75.5145 178.653 75.5145C178.653 75.5145 172.399 72.9831 170.246 76.8865C168.092 80.7898 169.853 82.3745 169.853 82.3745C169.853 82.3745 167.707 83.1565 167.707 85.3037C167.707 87.4509 169.661 89.5912 171.223 89.7833C172.784 89.9754 175.13 88.8092 177.091 89.2002C179.052 89.5912 186.469 93.8787 184.322 100.698C182.176 107.516 184.714 108.689 185.698 109.273C186.682 109.856 190.383 108.065 191.161 106.508Z" fill="#212121" stroke="#212121" stroke-width="0.254472" stroke-linecap="round" stroke-linejoin="round"/>
<path d="M189.2 95.3948C189.2 95.3948 191.952 92.0815 191.952 89.9412C191.952 87.8008 184.522 82.5323 180.029 82.5323C175.536 82.5323 169.083 87.986 169.083 89.3512C169.083 90.7163 169.083 91.4984 168.106 92.4725C167.129 93.4466 163.414 95.3949 162.437 97.542C161.46 99.6892 158.137 113.718 158.914 114.493C159.692 115.268 164.129 116.112 165.368 116.057C169.496 115.858 177.683 116.057 180.421 115.083C182.131 114.448 183.717 113.519 185.106 112.339C186.991 112.432 188.873 112.099 190.61 111.365C192.956 110.192 195.695 106.494 193.149 104.93C190.604 103.366 186.895 104.155 186.895 104.155C186.895 104.155 186.31 103.373 187.287 102.008C188.264 100.643 188.264 100.842 188.264 99.8676C188.264 98.8934 187.645 96.9521 189.2 95.3948Z" fill="#A8A8A8" stroke="#212121" stroke-width="0.254472" stroke-linecap="round" stroke-linejoin="round"/>
<path d="M174.752 90.3258C174.213 91.4841 173.323 92.4441 172.206 93.0698C170.252 94.2429 166.345 95.018 167.322 96.5821C168.299 98.1462 170.645 98.3314 172.206 98.3314C172.64 98.3312 173.059 98.1727 173.383 97.8858C173.708 97.5989 173.916 97.2035 173.968 96.7742" stroke="#212121" stroke-width="0.254472" stroke-linecap="round" stroke-linejoin="round"/>
<path d="M166.73 100.842C168.921 101.279 171.143 101.539 173.376 101.617C175.842 101.736 178.305 101.339 180.607 100.451C180.607 100.451 176.892 105.521 174.745 107.078C173.653 107.937 172.393 108.558 171.046 108.902C169.699 109.245 168.294 109.304 166.923 109.074C163.992 108.491 163.207 106.927 163.992 105.761C164.776 104.594 166.73 100.842 166.73 100.842Z" fill="#212121" stroke="#212121" stroke-width="0.254472" stroke-linecap="round" stroke-linejoin="round"/>
<path d="M178.481 103.195C179.678 101.734 180.607 100.451 180.607 100.451C178.305 101.339 175.841 101.736 173.376 101.617C171.143 101.539 168.92 101.279 166.73 100.842L165.918 102.351C169.93 103.866 174.302 104.16 178.481 103.195Z" fill="white" stroke="#212121" stroke-width="0.254472" stroke-linecap="round" stroke-linejoin="round"/>
<path d="M163.833 106.028C163.359 107.153 164.239 108.504 166.922 109.039C169.272 109.47 171.699 109.01 173.727 107.75C174.332 107.366 174.745 107.064 174.745 107.064C174.745 107.064 169.812 108.895 163.833 106.028Z" fill="white" stroke="#212121" stroke-width="0.254472" stroke-linecap="round" stroke-linejoin="round"/>
<path d="M178.653 94.2288C178.653 94.2288 181.405 93.2547 182.953 95.6008" stroke="#212121" stroke-width="0.254472" stroke-linecap="round" stroke-linejoin="round"/>
<path d="M172.199 92.2738C172.199 92.2738 171.422 91.1076 169.661 92.2738" stroke="#212121" stroke-width="0.254472" stroke-linecap="round" stroke-linejoin="round"/>
<path d="M181.976 88.5762C181.976 88.5762 184.515 89.7424 184.728 93.6389" stroke="#212121" stroke-width="0.508943" stroke-linecap="round" stroke-linejoin="round"/>
<path d="M174.353 87.8077C173.578 87.6722 172.782 87.7263 172.033 87.9653C171.284 88.2043 170.605 88.621 170.053 89.1797" stroke="#212121" stroke-width="0.508943" stroke-linecap="round" stroke-linejoin="round"/>
<path d="M202.699 156.209C202.699 156.209 195.66 161.08 194.876 162.836C194.092 164.592 195.268 173.558 196.08 176.302C196.892 179.046 199.603 179.224 203.318 179.423C207.033 179.622 211.133 179.615 213.287 175.911C215.44 172.207 214.849 168.118 211.333 163.831C208.805 160.921 205.901 158.359 202.699 156.209Z" fill="white" stroke="#212121" stroke-width="0.254472" stroke-linecap="round" stroke-linejoin="round"/>
<path d="M207.976 110.596C207.976 110.596 205.63 108.456 204.653 108.847C203.676 109.238 198.591 110.596 199.369 112.743C200.146 114.891 204.061 113.91 205.43 113.519C206.107 113.357 206.716 112.989 207.173 112.464C207.629 111.94 207.91 111.287 207.976 110.596Z" fill="#A8A8A8" stroke="#212121" stroke-width="0.254472" stroke-linecap="round" stroke-linejoin="round"/>
<path d="M213.645 110.596C213.645 110.596 210.893 106.892 208.952 107.674C207.012 108.456 206.407 111.378 206.407 111.378C206.407 111.378 203.476 111.961 202.891 113.135L202.306 114.301C202.306 114.301 199.761 114.493 199.369 115.673C199.131 116.431 199.001 117.218 198.983 118.012C198.55 118.164 198.162 118.422 197.854 118.763C197.547 119.103 197.329 119.515 197.222 119.96C196.83 121.517 197.222 122.107 198.006 124.076C198.791 126.045 201.329 128.755 202.134 129.729C202.939 130.703 205.85 131.478 206.049 132.068C206.249 132.658 206.242 134.016 205.457 138.304C204.673 142.591 202.527 153.698 200.765 159.741C199.004 165.785 197.057 167.733 199.204 172.995C201.35 178.257 203.703 179.039 206.634 178.257C208.875 177.637 210.917 176.45 212.562 174.81C214.206 173.171 215.397 171.134 216.018 168.899C217.58 163.055 215.819 153.121 215.819 146.488C215.819 139.854 216.018 128.755 215.819 123.85C215.619 118.945 213.645 110.596 213.645 110.596Z" fill="#A8A8A8" stroke="#212121" stroke-width="0.254472" stroke-linecap="round" stroke-linejoin="round"/>
<path d="M147.569 112.744C147.569 112.744 142.292 113.91 139.946 114.301C137.6 114.692 135.818 113.519 135.454 112.353C135.089 111.186 132.323 109.821 132.323 109.821C132.323 109.821 133.3 108.648 138.969 107.077C144.638 105.506 148.161 108.449 148.161 108.449L147.569 112.744Z" fill="#A8A8A8" stroke="#212121" stroke-width="0.254472" stroke-linecap="round" stroke-linejoin="round"/>
<path d="M129.041 115.042L133.651 113.67C135.605 113.087 136.823 110.412 136.823 110.412C136.823 110.412 137.015 111.784 138.199 111.578C139.382 111.372 144.652 110.995 145.829 110.995C147.005 110.995 151.69 109.623 151.69 107.873C151.69 106.124 147.39 101.446 146.606 100.08C145.822 98.7153 143.483 98.1322 141.914 98.1322C140.345 98.1322 138.79 99.1063 134.098 102.029C129.406 104.951 126.276 106.515 125.299 107.873C124.322 109.232 109.647 134.573 108.704 137.495C107.762 140.417 105.188 146.262 105.773 148.601C106.496 151.489 109.282 154.364 111.346 156.36C114.229 159.166 120.414 157.972 122.251 154.384C123.813 151.318 124.315 146.927 124.315 143.539C124.315 139.052 123.338 135.938 124.315 129.702C125.292 123.466 129.041 115.042 129.041 115.042Z" fill="#A8A8A8" stroke="#212121" stroke-width="0.254472" stroke-linecap="round" stroke-linejoin="round"/>
<path d="M144.638 111.571C144.638 111.571 144.638 113.327 145.223 113.519C145.808 113.711 149.723 113.91 149.915 112.744C150.108 111.578 149.915 110.988 148.938 110.597C147.961 110.206 145.03 110.405 144.638 111.571Z" fill="#A8A8A8" stroke="#212121" stroke-width="0.254472" stroke-linecap="round" stroke-linejoin="round"/>
<path d="M136.823 110.405L138.577 109.04L137.208 107.675" stroke="#212121" stroke-width="0.254472" stroke-linecap="round" stroke-linejoin="round"/>
<path d="M140.923 100.657C140.923 100.657 143.854 106.508 144.446 107.675C145.037 108.841 144.638 108.649 143.854 109.232C143.07 109.815 140.146 111.379 140.146 111.379" stroke="#212121" stroke-width="0.254472" stroke-linecap="round" stroke-linejoin="round"/>
<path d="M144.48 100.266C144.48 100.266 148.608 107.674 148.195 108.456C147.782 109.238 144.673 111.571 144.673 111.571" stroke="#212121" stroke-width="0.254472" stroke-linecap="round" stroke-linejoin="round"/>
<path d="M147.769 102.022C147.769 102.022 150.699 106.892 150.307 108.258C149.915 109.623 148.291 110.569 148.291 110.569" stroke="#212121" stroke-width="0.254472" stroke-linecap="round" stroke-linejoin="round"/>
<path d="M335.744 324.025H13.8014" stroke="#212121" stroke-width="0.254472" stroke-linecap="round" stroke-linejoin="round"/>
</svg>
