<svg width="127" height="121" viewBox="0 0 127 121" fill="none" xmlns="http://www.w3.org/2000/svg">
<path d="M22.5795 83.0095L15.2165 96.5574L15.8229 63.662C15.9613 61.5723 16.6666 59.5599 17.8628 57.8409C18.3701 57.0693 18.9645 56.3586 19.6343 55.7229C20.5005 54.991 21.657 54.0641 22.4496 53.7522C23.4328 53.3624 23.4631 51.9981 22.5492 51.7599C21.6353 51.5217 18.898 52.5265 16.5158 54.9693C14.1337 57.4121 14.6708 52.1324 14.8353 50.205C14.9999 48.2776 15.2208 42.3006 14.6664 41.7981C13.8565 41.0575 12.8906 41.7982 12.7737 43.7385C12.6567 45.6789 11.9075 51.4264 10.881 51.3181C9.85447 51.2098 10.8463 41.4127 10.8463 41.4127C10.8463 41.4127 11.392 39.3424 10.2269 39.1778C8.12199 38.8789 7.86645 49.3518 7.86645 50.3523C7.86645 51.0452 6.76199 50.9673 6.80097 50.2223C6.83995 49.4774 7.98772 40.4598 5.84811 40.1393C4.20659 39.8924 5.55792 48.754 4.28455 50.5342C3.01118 52.3143 3.94672 43.6909 2.36583 43.5176C1.78112 43.4527 1.33068 43.4873 1.49959 48.4855C1.59488 51.1752 2.79895 55.1945 2.58239 60.3833L2.53042 61.726C1.28736 71.4322 -4.31287 122.354 14.9653 120.972C14.9653 120.972 29.5917 118.941 37.7214 92.3215L22.5795 83.0095Z" fill="#FFBE9D"/>
<path d="M6.08203 58.1528C6.08203 58.2005 6.40687 58.2394 6.88763 58.4907C7.53572 58.8249 8.04162 59.3816 8.3126 60.0585L8.46419 60.444L8.6331 60.0672C8.87595 59.5295 9.21503 59.0407 9.63361 58.6249C10.44 57.8046 11.4758 57.2474 12.6048 57.0267C13.471 56.8491 14.0341 56.9487 14.0428 56.8794C13.5691 56.7047 13.0561 56.6657 12.5615 56.7668C11.3464 56.9244 10.2202 57.4875 9.36508 58.365C8.92006 58.8153 8.56441 59.3459 8.31693 59.9286H8.63744C8.48213 59.5606 8.25564 59.2269 7.97096 58.9466C7.68628 58.6664 7.34903 58.4452 6.97859 58.2957C6.70262 58.1537 6.38848 58.1036 6.08203 58.1528Z" fill="#EB996E"/>
<path d="M110.511 89.3373L118.701 104.765L126.181 119.153H109.268L98.7866 97.5536" fill="#FFBE9D"/>
<path d="M46.3621 119.153C47.9733 113.666 46.9165 112.799 45.184 107.351L41.4592 95.6565L33.3079 107.697L15.9788 93.7681L21.7263 80.8048C32.4633 56.4722 49.879 58.2003 49.879 58.2003L72.0721 53.9644C72.0721 53.9644 86.2697 52.6651 95.4605 61.0069C98.4577 63.7269 112.071 88.2328 112.071 88.2328L95.3436 99.953L91.2419 92.9582L90.1072 102.465C89.2149 107.663 89.2712 114.276 91.2419 119.153" fill="#EF9B00"/>
<path d="M44.4305 66.4817C44.4305 66.5423 40.7793 67.3479 36.2532 68.2791C31.7271 69.2103 28.0239 69.9163 28.0239 69.8557C28.0239 69.7951 31.6708 68.9895 36.2012 68.0582C40.7316 67.127 44.4175 66.4124 44.4305 66.4817Z" fill="#4169E1"/>
<path d="M93.2299 59.4737C93.2299 59.5387 89.648 60.2533 85.1998 61.0719C80.7517 61.8905 77.1395 62.5099 77.1265 62.4449C77.1135 62.3799 80.7127 61.6696 85.1609 60.851C89.609 60.0324 93.2212 59.4131 93.2299 59.4737Z" fill="#4169E1"/>
<path d="M100.069 67.3955C100.069 67.4561 94.4948 68.6948 87.5908 70.1978C80.6869 71.7007 75.0824 72.8398 75.0694 72.7965C75.0564 72.7532 80.6393 71.4971 87.5432 69.9942C94.4471 68.4913 100.039 67.3478 100.069 67.3955Z" fill="#4169E1"/>
<path d="M106.908 79.6052L106.674 79.6529L105.99 79.7741L103.343 80.2073L93.6111 81.8011L61.4823 86.9553C48.9218 88.9433 37.5611 90.7147 29.3232 91.9535C25.2085 92.5772 21.8735 93.0622 19.565 93.3828C18.4129 93.5387 17.5163 93.6556 16.9056 93.7206C16.6014 93.7869 16.2885 93.8044 15.9788 93.7726C16.2885 93.7676 16.5971 93.7358 16.9013 93.6773L19.552 93.2961L29.3015 91.7975L61.4476 86.73L93.5721 81.6409L103.317 80.1163L105.968 79.7135L106.661 79.6139L106.908 79.6052Z" fill="#4169E1"/>
<path d="M90.5661 98.5671C90.5661 98.6278 80.2492 100.027 67.5111 101.686C54.7731 103.344 44.4388 104.639 44.4302 104.579C44.4215 104.518 54.7428 103.124 67.4851 101.46C80.2275 99.7972 90.5401 98.5065 90.5661 98.5671Z" fill="#4169E1"/>
<path d="M88.5957 114.783C88.5957 114.848 79.3616 114.839 67.9792 114.783C56.5968 114.727 47.3584 114.61 47.3584 114.545C47.3584 114.48 56.5882 114.489 67.9792 114.545C79.3703 114.601 88.5957 114.722 88.5957 114.783Z" fill="#4169E1"/>
<path d="M50.7756 76.5039C50.6784 76.5357 50.5783 76.5575 50.4767 76.5689L49.6105 76.7118L46.4487 77.2143C43.7764 77.6474 40.0905 78.2581 36.0538 79.016C32.0172 79.774 28.3357 80.5319 25.6893 81.0993L22.5405 81.7707L21.6743 81.9482C21.5753 81.9753 21.4736 81.9913 21.3711 81.9959C21.4645 81.956 21.5618 81.9255 21.6613 81.9049L22.5405 81.684C23.2768 81.5021 24.3423 81.2509 25.659 80.9434C28.2967 80.3327 31.9522 79.5531 36.0149 78.7778C40.0775 78.0025 43.7677 77.4308 46.4444 77.0453C47.787 76.8504 48.8698 76.7032 49.6235 76.6122L50.4897 76.5126C50.5845 76.5002 50.6802 76.4973 50.7756 76.5039Z" fill="#4169E1"/>
<path d="M69.8285 6.61157C69.2958 13.0304 77.8975 17.5868 77.1309 23.9797C76.9187 25.7554 75.9961 27.6872 76.936 29.2117C78.0621 31.0438 80.8038 30.6584 82.8048 31.451C85.2692 32.4255 86.5296 35.3924 86.1571 38.0127C85.7846 40.6331 84.0868 42.8983 82.0901 44.6438C78.938 47.3996 74.9978 49.0924 70.829 49.4817C68.8973 49.655 66.879 49.5164 65.1552 48.6155C63.4313 47.7146 62.067 45.9778 62.0583 44.0374" fill="#263238"/>
<path d="M70.6775 57.6462C69.5341 52.1672 68.4296 46.3851 68.4296 46.3851C68.4296 46.3851 75.234 43.7171 74.7445 34.2101C74.2811 25.1406 68.5423 5.19107 68.5423 5.19107C57.5194 3.20305 46.0807 8.50444 40.5627 18.1847L50.5808 62.5101C51.7416 67.6556 57.0776 70.7394 62.5912 69.4703C68.1481 68.145 71.7647 62.8653 70.6775 57.6462Z" fill="#FFBE9D"/>
<path d="M69.2871 21.5672C69.3539 21.8741 69.2986 22.195 69.1328 22.4618C68.9671 22.7286 68.704 22.9204 68.3992 22.9965C68.2517 23.0405 68.0967 23.0545 67.9437 23.0377C67.7906 23.0208 67.6424 22.9734 67.5079 22.8983C67.3735 22.8232 67.2554 22.7219 67.1608 22.6004C67.0662 22.4789 66.9968 22.3397 66.957 22.1909C66.8881 21.8863 66.9399 21.5669 67.1014 21.2996C67.2629 21.0324 67.5216 20.838 67.8232 20.7573C67.9725 20.7105 68.1296 20.6946 68.2852 20.7104C68.4408 20.7261 68.5916 20.7733 68.7285 20.849C68.8653 20.9247 68.9854 21.0274 69.0814 21.1508C69.1774 21.2743 69.2474 21.4159 69.2871 21.5672Z" fill="#263238"/>
<path d="M70.6167 20.3761C70.504 20.5623 69.4689 20.0902 68.1998 20.3761C66.9308 20.662 66.1339 21.4806 65.9649 21.3549C65.8827 21.2986 65.965 20.9911 66.3158 20.61C66.7792 20.1146 67.3842 19.7743 68.0483 19.6355C68.7073 19.493 69.3946 19.5643 70.0103 19.839C70.4694 20.0426 70.66 20.2938 70.6167 20.3761Z" fill="#263238"/>
<path d="M56.324 24.5427C56.3928 24.8473 56.341 25.1667 56.1795 25.4339C56.0181 25.7012 55.7594 25.8956 55.4577 25.9763C55.3099 26.0197 55.1548 26.033 55.0017 26.0156C54.8486 25.9982 54.7005 25.9504 54.5661 25.8749C54.4317 25.7995 54.3138 25.6979 54.2192 25.5762C54.1247 25.4546 54.0554 25.3152 54.0154 25.1664C53.9468 24.8623 53.9986 24.5435 54.1602 24.277C54.3217 24.0104 54.5804 23.8169 54.8817 23.7371C55.0293 23.693 55.1842 23.679 55.3373 23.6959C55.4904 23.7127 55.6385 23.7601 55.773 23.8352C55.9075 23.9103 56.0255 24.0116 56.1201 24.1332C56.2148 24.2547 56.2841 24.3939 56.324 24.5427Z" fill="#263238"/>
<path d="M57.6232 23.3387C57.5106 23.5206 56.4755 23.0485 55.2064 23.3387C53.9374 23.6289 53.1448 24.4431 52.9715 24.3175C52.8892 24.2655 52.9715 23.9537 53.3224 23.5726C53.7877 23.0796 54.3919 22.7397 55.0549 22.598C55.7154 22.4573 56.4035 22.5285 57.0212 22.8016C57.4976 23.0052 57.6925 23.2521 57.6232 23.3387Z" fill="#263238"/>
<path d="M64.3713 31.5463C64.3497 31.4727 65.112 31.1695 66.355 30.7364C66.6712 30.6324 66.9657 30.5068 66.9744 30.2729C66.9257 29.9315 66.7747 29.6129 66.5413 29.359L65.06 27.0938C62.981 23.8584 61.4045 21.1731 61.5387 21.0908C61.673 21.0085 63.4575 23.5639 65.5321 26.795L66.9787 29.0819C67.2623 29.4321 67.4154 29.87 67.4118 30.3206C67.389 30.4446 67.3381 30.5618 67.263 30.6631C67.188 30.7645 67.0907 30.8473 66.9787 30.9053C66.8101 30.9925 66.6311 31.058 66.446 31.1002C65.1899 31.4424 64.393 31.6156 64.3713 31.5463Z" fill="#263238"/>
<path d="M68.4513 46.385C64.1404 47.3623 59.6431 47.1269 55.4578 45.705C55.4578 45.705 59.789 51.3918 68.8108 48.5809L68.4513 46.385Z" fill="#EB996E"/>
<path d="M64.4839 34.7166C64.1778 34.464 63.8123 34.2937 63.422 34.2217C63.0317 34.1497 62.6295 34.1784 62.2534 34.3051C61.9781 34.3883 61.7228 34.5269 61.5031 34.7123C61.2834 34.8978 61.1039 35.1262 60.9757 35.3836C60.8497 35.6304 60.8029 35.91 60.8416 36.1844C60.8804 36.4588 61.0028 36.7145 61.1922 36.9168C61.4422 37.0975 61.7398 37.2004 62.048 37.2127C62.3562 37.225 62.6611 37.1462 62.9247 36.9861C63.479 36.6505 63.9617 36.209 64.3453 35.6867C64.4643 35.5603 64.5596 35.4136 64.6269 35.2536C64.6594 35.1729 64.6668 35.0844 64.6483 34.9994C64.6298 34.9144 64.5861 34.837 64.5229 34.7772" fill="#FF725E"/>
<path d="M60.8193 33.2137C61.0272 33.1574 61.3218 34.5347 62.7077 35.2667C64.0937 35.9987 65.5273 35.5309 65.5793 35.6998C65.6183 35.7821 65.3108 36.0377 64.6914 36.1849C63.8865 36.3684 63.0426 36.2609 62.3093 35.8817C61.6057 35.5207 61.071 34.899 60.8193 34.1493C60.6548 33.5992 60.7241 33.2267 60.8193 33.2137Z" fill="#263238"/>
<path d="M46.0935 27.5875C45.0621 27.5853 44.0503 27.8687 43.17 28.4061C42.294 28.9532 41.6709 29.8255 41.4375 30.8316C41.2547 31.8536 41.4685 32.9069 42.0352 33.7768C42.6012 34.6383 43.353 35.362 44.2355 35.8948C44.8404 36.3211 45.5382 36.5973 46.2711 36.7004C46.638 36.7495 47.0112 36.7068 47.3575 36.576C47.7037 36.4452 48.0121 36.2305 48.2548 35.9511" fill="#FFBE9D"/>
<path d="M46.7954 33.6685C46.9167 33.6685 46.6135 34.3658 45.665 34.3138C45.1516 34.2497 44.6844 33.985 44.3656 33.5775C43.9889 33.128 43.7048 32.6084 43.5297 32.0486C43.3278 31.456 43.3447 30.8107 43.5773 30.2295C43.6737 29.9818 43.8258 29.7596 44.0219 29.5801C44.2179 29.4006 44.4526 29.2686 44.7078 29.1944C45.6303 28.9778 46.0505 29.5582 45.9508 29.5972C45.8512 29.6361 45.4614 29.4326 44.8897 29.7054C44.318 29.9783 43.9282 30.8575 44.266 31.8234C44.6038 32.7893 45.1756 33.6555 45.7646 33.7724C46.3536 33.8894 46.7348 33.5992 46.7954 33.6685Z" fill="#EB996E"/>
<path d="M65.8526 3.15959C66.5216 4.4757 66.7464 5.97304 66.4934 7.42758C66.2405 8.88211 65.5233 10.2156 64.4493 11.2286C62.249 13.208 59.0613 13.4895 56.22 14.3167C53.3788 15.144 50.3339 17.236 50.4639 20.1942C50.5418 21.9873 51.8152 23.7111 51.3561 25.4436C50.8234 27.4749 48.229 28.3412 47.497 30.3075C46.3232 33.4693 50.6198 36.3149 50.4292 39.6802C50.3166 41.6769 48.6274 43.3054 48.4412 45.3108C48.1727 48.1434 50.9533 51.1536 49.4071 53.54C48.2203 55.3765 45.457 55.1123 43.43 54.3153C41.403 53.5184 39.1854 52.3836 37.1541 53.1805C35.9327 53.657 35.0708 54.7484 33.9837 55.4847C32.9909 56.1586 31.8206 56.5227 30.6208 56.5311C29.4209 56.5395 28.2456 56.1918 27.2435 55.5319C26.2414 54.872 25.4576 53.9297 24.9913 52.8242C24.525 51.7187 24.3972 50.4997 24.624 49.3215C24.9531 47.589 26.0013 46.1034 26.8459 44.5571C27.6904 43.0109 28.3618 41.2048 27.855 39.52C27.4609 38.2206 26.4474 37.2418 25.6418 36.159C24.8362 35.0762 24.2082 33.6512 24.7279 32.4081C25.6375 30.2209 29.1241 30.4115 30.3888 28.4105C32.1213 25.6601 28.1019 22.1605 29.1327 19.0767C30.3022 15.5858 36.4958 16.2095 37.6738 12.7185C38.107 11.4495 37.6738 10.0505 37.7908 8.71651C38.0983 5.68468 41.2991 3.71399 44.3179 3.18991C47.3367 2.66584 50.4898 3.05564 53.4524 2.27603C55.0723 1.84291 56.5882 1.07629 58.182 0.543552C59.7759 0.0108152 61.5431 -0.25339 63.1196 0.331321C64.6962 0.916032 65.9565 2.56622 65.6404 4.2294" fill="#263238"/>
<path d="M64.4881 9.66501C65.3647 11.1819 66.5769 12.478 68.0318 13.454C69.4868 14.43 71.1459 15.0599 72.8819 15.2956C72.8256 12.974 72.7043 10.6352 72.0763 8.40463C71.4483 6.17407 70.2702 4.0128 68.4511 2.5965C66.632 1.1802 64.0593 0.591158 61.9023 1.43574" fill="#263238"/>
<path d="M75.6408 54.1853C76.4248 54.2893 80.8079 79.9992 63.9812 82.8535C48.0554 85.5605 43.1309 59.1445 43.1309 59.1445C43.1309 59.1445 53.8592 51.2748 75.6408 54.1853Z" fill="#FFBE9D"/>
<path d="M65.9998 18.9857C66.0994 19.1719 66.9656 18.8947 68.0441 18.7734C69.1225 18.6522 70.0234 18.7128 70.0754 18.5092C70.1274 18.3057 69.2092 17.8899 67.9575 18.0371C66.7057 18.1844 65.9001 18.8384 65.9998 18.9857Z" fill="#263238"/>
<path d="M53.1405 20.9782C53.1795 20.9436 53.1751 20.87 53.1405 20.753V20.9479C53.7624 20.6319 54.4195 20.3905 55.0982 20.2289C56.2936 19.9691 57.3071 20.2549 57.3894 20.06C57.424 19.9691 57.2075 19.7655 56.7657 19.6269C56.1815 19.428 55.5541 19.392 54.9509 19.523C54.5518 19.5839 54.1693 19.7256 53.8267 19.9393C53.4842 20.153 53.1888 20.4343 52.9586 20.766L52.8806 20.9219L52.9456 20.9566C53.0322 21.0042 53.1058 21.0042 53.1405 20.9782Z" fill="#263238"/>
<path d="M45.8727 20.2288C44.8906 20.2408 43.909 20.1785 42.9362 20.0425C41.9567 19.9825 40.9834 19.8449 40.0256 19.6311C41.0078 19.6192 41.9894 19.6814 42.9622 19.8173C43.9414 19.8808 44.9143 20.0184 45.8727 20.2288Z" fill="#FF725E"/>
<path d="M44.4435 21.8704C43.7141 22.0293 42.964 22.0703 42.2216 21.9917C41.4766 21.9898 40.7366 21.8685 40.03 21.6322C40.03 21.5715 41.0219 21.7015 42.2346 21.7664C43.4473 21.8314 44.4392 21.8011 44.4435 21.8704Z" fill="#FF725E"/>
<path d="M65.9954 8.40479C65.978 8.4976 65.9489 8.58783 65.9088 8.67332C65.803 8.92368 65.6567 9.15489 65.4757 9.35765C64.7526 10.0636 63.7991 10.485 62.7903 10.5444C62.1059 10.6209 61.4145 10.6093 60.733 10.5097C60.001 10.4188 59.2258 10.2845 58.4115 10.2239C57.5657 10.1277 56.7091 10.2209 55.9037 10.4967C55.0655 10.8586 54.3411 11.4408 53.8074 12.1816C53.2141 12.9179 52.716 13.7062 52.1313 14.4035C51.8431 14.7481 51.5225 15.0642 51.1741 15.3477C50.8316 15.6122 50.4559 15.8307 50.0566 15.9974C49.3165 16.2726 48.5503 16.4714 47.7697 16.5907C47.1009 16.6931 46.4417 16.851 45.7991 17.0628C44.8678 17.3551 44.071 17.9693 43.5512 18.7953C43.3906 19.1146 43.2922 19.4615 43.261 19.8175C43.2486 19.724 43.2486 19.6294 43.261 19.536C43.2884 19.2652 43.3632 19.0013 43.4819 18.7563C43.9831 17.8762 44.7911 17.2116 45.7514 16.8896C46.4002 16.6652 47.0666 16.4957 47.7438 16.3828C48.509 16.2603 49.2594 16.0585 49.983 15.7808C50.7644 15.4415 51.448 14.9113 51.971 14.2389C52.5427 13.5589 53.0365 12.7663 53.6385 12.017C54.2025 11.2536 54.9608 10.6554 55.8344 10.2845C56.6697 10.0019 57.5574 9.90868 58.4331 10.0117C60.092 10.1589 61.5429 10.5531 62.7643 10.3841C63.7484 10.3507 64.6889 9.97021 65.4194 9.31C65.6572 9.04 65.8516 8.73461 65.9954 8.40479Z" fill="#EF9B00"/>
<path d="M29.8516 55.8789C29.9824 55.8513 30.1112 55.8151 30.2371 55.7706C30.5861 55.6104 30.8615 55.3242 31.0081 54.9693C31.2487 54.4086 31.2611 53.7762 31.0427 53.2065C30.8348 52.5309 30.432 51.8119 30.1245 50.9543C29.3342 48.9556 29.1197 46.7755 29.5052 44.6611C29.7685 43.4168 30.3105 42.2484 31.0904 41.2438C31.5089 40.7166 31.9987 40.2501 32.5457 39.8578C33.1148 39.4696 33.7284 39.1512 34.3734 38.9092C35.0043 38.6841 35.5907 38.3499 36.1059 37.9217C36.3345 37.7038 36.5126 37.4385 36.6278 37.1445C36.743 36.8504 36.7926 36.5348 36.7729 36.2196C36.6993 34.9592 36.0106 33.8028 36.0323 32.5554C36.0442 31.9494 36.2017 31.3553 36.4914 30.8229C36.7603 30.334 37.0923 29.8826 37.4789 29.4802C38.1769 28.7779 38.9206 28.1224 39.7051 27.5182C41.0911 26.3748 41.953 25.1317 42.1826 24.1529C42.3005 23.6457 42.3005 23.1182 42.1826 22.611C42.1995 22.642 42.2112 22.6757 42.2172 22.7106C42.2172 22.7755 42.2649 22.8752 42.2908 23.0051C42.3539 23.3937 42.3407 23.7909 42.2519 24.1745C42.1036 24.7795 41.8371 25.3491 41.4679 25.8507C40.9858 26.513 40.4243 27.1138 39.7961 27.6395C39.0248 28.248 38.2928 28.9048 37.6045 29.6058C37.2325 29.9964 36.9123 30.4331 36.6516 30.9052C36.3809 31.4063 36.2325 31.9643 36.2185 32.5337C36.2406 33.1361 36.3531 33.7318 36.552 34.3009C36.7698 34.9112 36.9152 35.545 36.9851 36.1893C37.008 36.5364 36.9543 36.8843 36.8278 37.2084C36.7013 37.5325 36.5052 37.8248 36.2532 38.0647C35.7199 38.5122 35.1113 38.8613 34.4557 39.0955C33.8264 39.3463 33.2289 39.6704 32.6756 40.0613C32.1451 40.4414 31.6699 40.8933 31.2636 41.404C30.502 42.3803 29.9705 43.5158 29.7087 44.726C29.3242 46.8031 29.519 48.946 30.2718 50.9196C30.5663 51.7859 30.9604 52.4919 31.164 53.1935C31.2626 53.5191 31.3094 53.8582 31.3026 54.1984C31.2894 54.4871 31.2171 54.7701 31.0904 55.0299C30.9262 55.3963 30.6266 55.685 30.2545 55.8355C30.1255 55.8816 29.9875 55.8965 29.8516 55.8789Z" fill="#EF9B00"/>
</svg>
