<svg width="37" height="36" viewBox="0 0 37 36" fill="none" xmlns="http://www.w3.org/2000/svg">
<path d="M18.5 29.5C24.8513 29.5 30 24.3513 30 18C30 11.6487 24.8513 6.5 18.5 6.5C12.1487 6.5 7 11.6487 7 18C7 24.3513 12.1487 29.5 18.5 29.5Z" fill="#FCEA2B"/>
<path d="M8.03149 3.22351L9.03149 10.7235L17.0315 7.72351L8.03149 3.22351Z" fill="#F4AA41"/>
<path d="M13.9921 6.203L17.0316 7.7235L10.4561 10.189" fill="#E27022"/>
<path d="M8.198 5.41744L10.8105 4.40894L12.227 5.28944L8.2815 6.97344L8.198 5.41744Z" fill="#EA5A47"/>
<path d="M13.2105 6.19651L13.7815 5.97351L15.7815 6.47351L12.5315 7.86601" fill="#D22F27"/>
<path d="M12.5315 7.86603L8.7795 9.47353L8.698 7.95603L13.2105 6.19653" fill="#EA5A47"/>
<path d="M18.725 21.0589C18.725 21.0589 24 22.6129 18.748 23.8409C18.748 23.8409 23.989 25.2914 18.768 26.2969M11.01 13.6774C11.3641 12.9819 11.9636 12.4425 12.6925 12.1634C13.3922 11.808 14.1993 11.7263 14.956 11.9344M25.8145 13.5549C25.4238 12.8832 24.8259 12.3561 24.1105 12.0527C23.395 11.7492 22.6005 11.6858 21.846 11.8719M12.227 17.1894C12.8453 16.8736 13.5288 16.7062 14.2231 16.7003C14.9174 16.6945 15.6035 16.8505 16.227 17.1559M20.8515 17.1179C21.4698 16.8021 22.1533 16.6346 22.8476 16.6288C23.5419 16.623 24.228 16.779 24.8515 17.0844" stroke="black" stroke-linecap="round" stroke-linejoin="round"/>
<path d="M23.4739 7.64698C29.1984 10.3985 31.6089 17.2695 28.8574 22.994C26.1059 28.7185 19.2349 31.129 13.5099 28.3775C7.7849 25.626 5.3749 18.755 8.1269 13.0305C8.3189 12.6305 8.5344 12.241 8.7719 11.8655M17.9779 6.52598C19.8743 6.43843 21.7628 6.82364 23.4734 7.64698" stroke="black" stroke-linecap="round" stroke-linejoin="round"/>
<path d="M31.473 5.80649C31.4373 6.06438 31.3605 6.31489 31.2455 6.54849C30.9354 7.15504 30.4027 7.6182 29.759 7.8411C29.1153 8.06401 28.4103 8.02939 27.7915 7.74449M33.7135 21.675C33.4593 21.6181 33.2159 21.5209 32.9925 21.387C32.4133 21.0283 31.9952 20.4596 31.8256 19.7997C31.656 19.1399 31.748 18.44 32.0825 17.8465M31.473 31.484C31.4373 31.2261 31.3605 30.9756 31.2455 30.742C30.9354 30.1354 30.4027 29.6723 29.759 29.4494C29.1153 29.2265 28.4103 29.2611 27.7915 29.546M12.87 27.9625C12.7058 27.7603 12.5104 27.5858 12.291 27.4455C11.7117 27.0869 11.0162 26.9661 10.35 27.1084C9.6837 27.2507 9.09823 27.645 8.71599 28.209M9.19199 10.49L7.78149 2.98999L17.2815 7.62299L9.19199 10.49Z" stroke="black" stroke-linecap="round" stroke-linejoin="round"/>
<path d="M31.606 12.73C31.8049 12.73 31.9956 12.651 32.1363 12.5103C32.2769 12.3697 32.356 12.1789 32.356 11.98C32.356 11.7811 32.2769 11.5903 32.1363 11.4497C31.9956 11.309 31.8049 11.23 31.606 11.23C31.407 11.23 31.2163 11.309 31.0756 11.4497C30.935 11.5903 30.856 11.7811 30.856 11.98C30.856 12.1789 30.935 12.3697 31.0756 12.5103C31.2163 12.651 31.407 12.73 31.606 12.73ZM31.606 25.23C31.8049 25.23 31.9956 25.151 32.1363 25.0103C32.2769 24.8697 32.356 24.6789 32.356 24.48C32.356 24.2811 32.2769 24.0903 32.1363 23.9497C31.9956 23.809 31.8049 23.73 31.606 23.73C31.407 23.73 31.2163 23.809 31.0756 23.9497C30.935 24.0903 30.856 24.2811 30.856 24.48C30.856 24.6789 30.935 24.8697 31.0756 25.0103C31.2163 25.151 31.407 25.23 31.606 25.23ZM15.106 33.23C15.3049 33.23 15.4956 33.151 15.6363 33.0103C15.7769 32.8697 15.856 32.6789 15.856 32.48C15.856 32.2811 15.7769 32.0903 15.6363 31.9497C15.4956 31.809 15.3049 31.73 15.106 31.73C14.907 31.73 14.7163 31.809 14.5756 31.9497C14.435 32.0903 14.356 32.2811 14.356 32.48C14.356 32.6789 14.435 32.8697 14.5756 33.0103C14.7163 33.151 14.907 33.23 15.106 33.23ZM10.606 24.23C10.8049 24.23 10.9956 24.151 11.1363 24.0103C11.2769 23.8697 11.356 23.6789 11.356 23.48C11.356 23.2811 11.2769 23.0903 11.1363 22.9497C10.9956 22.809 10.8049 22.73 10.606 22.73C10.407 22.73 10.2163 22.809 10.0756 22.9497C9.93498 23.0903 9.85596 23.2811 9.85596 23.48C9.85596 23.6789 9.93498 23.8697 10.0756 24.0103C10.2163 24.151 10.407 24.23 10.606 24.23ZM22.606 32.23C22.8049 32.23 22.9956 32.151 23.1363 32.0103C23.2769 31.8697 23.356 31.6789 23.356 31.48C23.356 31.2811 23.2769 31.0903 23.1363 30.9497C22.9956 30.809 22.8049 30.73 22.606 30.73C22.407 30.73 22.2163 30.809 22.0756 30.9497C21.935 31.0903 21.856 31.2811 21.856 31.48C21.856 31.6789 21.935 31.8697 22.0756 32.0103C22.2163 32.151 22.407 32.23 22.606 32.23Z" fill="black"/>
<path d="M19.7815 23.99H22.5315C22.5315 23.99 25.2815 23.99 25.2815 22.49C25.2815 21.374 24.5205 21.0885 23.5645 21.015" stroke="black" stroke-linecap="round" stroke-linejoin="round"/>
<path d="M31.606 12.7285C31.8049 12.7285 31.9956 12.6495 32.1363 12.5088C32.2769 12.3682 32.356 12.1774 32.356 11.9785C32.356 11.7796 32.2769 11.5888 32.1363 11.4482C31.9956 11.3075 31.8049 11.2285 31.606 11.2285C31.407 11.2285 31.2163 11.3075 31.0756 11.4482C30.935 11.5888 30.856 11.7796 30.856 11.9785C30.856 12.1774 30.935 12.3682 31.0756 12.5088C31.2163 12.6495 31.407 12.7285 31.606 12.7285ZM22.606 32.2285C22.8049 32.2285 22.9956 32.1495 23.1363 32.0088C23.2769 31.8682 23.356 31.6774 23.356 31.4785C23.356 31.2796 23.2769 31.0888 23.1363 30.9482C22.9956 30.8075 22.8049 30.7285 22.606 30.7285C22.407 30.7285 22.2163 30.8075 22.0756 30.9482C21.935 31.0888 21.856 31.2796 21.856 31.4785C21.856 31.6774 21.935 31.8682 22.0756 32.0088C22.2163 32.1495 22.407 32.2285 22.606 32.2285Z" fill="#8967AA"/>
<path d="M15.106 33.2285C15.3049 33.2285 15.4956 33.1495 15.6363 33.0088C15.7769 32.8682 15.856 32.6774 15.856 32.4785C15.856 32.2796 15.7769 32.0888 15.6363 31.9482C15.4956 31.8075 15.3049 31.7285 15.106 31.7285C14.907 31.7285 14.7163 31.8075 14.5756 31.9482C14.435 32.0888 14.356 32.2796 14.356 32.4785C14.356 32.6774 14.435 32.8682 14.5756 33.0088C14.7163 33.1495 14.907 33.2285 15.106 33.2285Z" fill="#F4AA41"/>
<path d="M10.606 24.2285C10.8049 24.2285 10.9956 24.1495 11.1363 24.0088C11.2769 23.8682 11.356 23.6774 11.356 23.4785C11.356 23.2796 11.2769 23.0888 11.1363 22.9482C10.9956 22.8075 10.8049 22.7285 10.606 22.7285C10.407 22.7285 10.2163 22.8075 10.0756 22.9482C9.93498 23.0888 9.85596 23.2796 9.85596 23.4785C9.85596 23.6774 9.93498 23.8682 10.0756 24.0088C10.2163 24.1495 10.407 24.2285 10.606 24.2285ZM31.606 25.2285C31.8049 25.2285 31.9956 25.1495 32.1363 25.0088C32.2769 24.8682 32.356 24.6774 32.356 24.4785C32.356 24.2796 32.2769 24.0888 32.1363 23.9482C31.9956 23.8075 31.8049 23.7285 31.606 23.7285C31.407 23.7285 31.2163 23.8075 31.0756 23.9482C30.935 24.0888 30.856 24.2796 30.856 24.4785C30.856 24.6774 30.935 24.8682 31.0756 25.0088C31.2163 25.1495 31.407 25.2285 31.606 25.2285Z" fill="#D22F27"/>
</svg>
