<svg width="24" height="24" viewBox="0 0 24 24" fill="none" xmlns="http://www.w3.org/2000/svg">
<path fill-rule="evenodd" clip-rule="evenodd" d="M20.1021 10.3998H5.63029C4.88151 10.3998 4.2738 11.0075 4.2738 11.7563C4.2738 12.505 4.88151 13.1127 5.63029 13.1127H20.1338L17.3177 15.9288C16.7887 16.4578 16.7887 17.3178 17.3177 17.8469C17.8477 18.3768 18.7068 18.3768 19.2367 17.8469C19.2367 17.8469 21.5581 15.5255 23.0728 14.0107C24.309 12.7745 24.309 10.7705 23.0728 9.53434L19.2367 5.69731C18.7068 5.16828 17.8477 5.16828 17.3177 5.69731C16.7887 6.22724 16.7887 7.08634 17.3177 7.61628L20.1021 10.3998Z" fill="#3A3A3A"/>
<path fill-rule="evenodd" clip-rule="evenodd" d="M15.3735 18.9907V14.9213H5.6303C3.88315 14.9213 2.46518 13.5033 2.46518 11.7562C2.46518 10.009 3.88315 8.59105 5.6303 8.59105H15.3735V4.52161C15.3735 2.02477 13.3487 0 10.8519 0C8.89309 0 6.48036 0 4.52161 0C3.32248 0 2.17218 0.476577 1.32393 1.32393C0.476577 2.17218 0 3.32248 0 4.52161C0 8.53589 0 14.9765 0 18.9907C0 20.1899 0.476577 21.3402 1.32393 22.1884C2.17218 23.0358 3.32248 23.5123 4.52161 23.5123C6.48036 23.5123 8.89309 23.5123 10.8519 23.5123C12.051 23.5123 13.2013 23.0358 14.0495 22.1884C14.8969 21.3402 15.3735 20.1899 15.3735 18.9907Z" fill="#3A3A3A"/>
</svg>
