<svg width="25" height="18" viewBox="0 0 25 18" fill="none" xmlns="http://www.w3.org/2000/svg">
<path fill-rule="evenodd" clip-rule="evenodd" d="M0 8.92857C0 6.25 4.46429 0 12.5 0C20.5357 0 25 6.25 25 8.92857C25 11.6071 20.5357 17.8571 12.5 17.8571C4.46429 17.8571 0 11.6071 0 8.92857ZM12.5 14.5833C13.9997 14.5833 15.438 13.9876 16.4985 12.9271C17.559 11.8666 18.1548 10.4283 18.1548 8.92857C18.1548 7.42883 17.559 5.99052 16.4985 4.93005C15.438 3.86958 13.9997 3.27381 12.5 3.27381C11.0003 3.27381 9.56195 3.86958 8.50148 4.93005C7.44101 5.99052 6.84524 7.42883 6.84524 8.92857C6.84524 10.4283 7.44101 11.8666 8.50148 12.9271C9.56195 13.9876 11.0003 14.5833 12.5 14.5833ZM15.7143 8.92857C15.7143 9.78105 15.3756 10.5986 14.7728 11.2014C14.17 11.8042 13.3525 12.1429 12.5 12.1429C11.6475 12.1429 10.83 11.8042 10.2272 11.2014C9.62436 10.5986 9.28571 9.78105 9.28571 8.92857C9.28571 8.07609 9.62436 7.25852 10.2272 6.65573C10.83 6.05293 11.6475 5.71429 12.5 5.71429C13.3525 5.71429 14.17 6.05293 14.7728 6.65573C15.3756 7.25852 15.7143 8.07609 15.7143 8.92857Z" fill="#3A3A3A"/>
</svg>
