<svg width="25" height="24" viewBox="0 0 25 24" fill="none" xmlns="http://www.w3.org/2000/svg">
<path d="M20.29 14.9299C18.23 16.9799 15.28 17.6099 12.69 16.7999L7.98002 21.4999C7.64002 21.8499 6.97002 22.0599 6.49002 21.9899L4.31002 21.6899C3.59002 21.5899 2.92002 20.9099 2.81002 20.1899L2.51002 18.0099C2.44002 17.5299 2.67002 16.8599 3.00002 16.5199L7.70002 11.8199C6.90002 9.21995 7.52002 6.26995 9.58002 4.21995C12.53 1.26995 17.32 1.26995 20.28 4.21995C23.24 7.16995 23.24 11.9799 20.29 14.9299Z" stroke="#212121" stroke-width="1.5" stroke-miterlimit="10" stroke-linecap="round" stroke-linejoin="round"/>
<path d="M7.39001 17.49L9.69001 19.79" stroke="#212121" stroke-width="1.5" stroke-miterlimit="10" stroke-linecap="round" stroke-linejoin="round"/>
<path d="M15 11C15.8284 11 16.5 10.3284 16.5 9.5C16.5 8.67157 15.8284 8 15 8C14.1716 8 13.5 8.67157 13.5 9.5C13.5 10.3284 14.1716 11 15 11Z" stroke="#212121" stroke-width="1.5" stroke-linecap="round" stroke-linejoin="round"/>
</svg>
