<svg width="41" height="40" viewBox="0 0 41 40" fill="none" xmlns="http://www.w3.org/2000/svg">
<path d="M16.4023 5.64966H24.5572C25.206 5.64966 25.8283 5.90741 26.2871 6.36621C26.7459 6.82502 27.0037 7.44729 27.0037 8.09613C27.0037 9.6101 26.4022 11.0621 25.3317 12.1326C24.2612 13.2031 22.8092 13.8046 21.2952 13.8046H19.6642C18.1503 13.8046 16.6983 13.2031 15.6278 12.1326C14.5572 11.0621 13.9558 9.6101 13.9558 8.09613C13.9558 7.44729 14.2136 6.82502 14.6724 6.36621C15.1312 5.90741 15.7534 5.64966 16.4023 5.64966Z" fill="#4169E1" stroke="#F7F8FC" stroke-width="0.77512" stroke-linecap="round" stroke-linejoin="round"/>
<path d="M7.43176 28.4835V26.8525C7.43176 23.392 8.80644 20.0733 11.2534 17.6263C13.7003 15.1794 17.0191 13.8047 20.4796 13.8047C23.9401 13.8047 27.2589 15.1794 29.7058 17.6263C32.1528 20.0733 33.5275 23.392 33.5275 26.8525V28.4835C33.5275 30.2138 32.8401 31.8732 31.6167 33.0966C30.3932 34.3201 28.7338 35.0075 27.0035 35.0075H13.9557C12.2254 35.0075 10.5661 34.3201 9.34258 33.0966C8.1191 31.8732 7.43176 30.2138 7.43176 28.4835Z" fill="#4169E1" stroke="#F7F8FC" stroke-width="0.77512" stroke-linecap="round" stroke-linejoin="round"/>
<g clip-path="url(#clip0_4253_23000)">
<path d="M17.6446 21.2749C17.4587 21.0358 17.1108 20.9275 16.7891 21.0113C16.4674 21.0951 16.2482 21.3485 16.2482 21.6367V25.5607H15.4857C15.0639 25.5607 14.7231 25.853 14.7231 26.2147C14.7231 26.5765 15.0639 26.8687 15.4857 26.8687H16.2482V29.4848C16.2482 29.8465 16.589 30.1388 17.0108 30.1388C17.4325 30.1388 17.7733 29.8465 17.7733 29.4848V26.8687H20.161L22.4772 29.8486C22.6631 30.0877 23.011 30.196 23.3327 30.1122C23.6544 30.0284 23.8736 29.775 23.8736 29.4868V26.8687H24.6361C25.0579 26.8687 25.3987 26.5765 25.3987 26.2147C25.3987 25.853 25.0579 25.5607 24.6361 25.5607H23.8736V21.6367C23.8736 21.2749 23.5328 20.9827 23.1111 20.9827C22.6893 20.9827 22.3485 21.2749 22.3485 21.6367V25.5607H20.9783L17.6446 21.2749ZM21.9935 26.8687H22.3485V27.3245L21.9935 26.8687ZM19.1435 25.5607H17.7733V23.7969L19.1435 25.5607Z" fill="#F7F8FC"/>
</g>
<defs>
<clipPath id="clip0_4253_23000">
<rect width="10.6755" height="10.4641" fill="white" transform="translate(14.7231 20.3281)"/>
</clipPath>
</defs>
</svg>
