<svg width="32" height="23" viewBox="0 0 32 23" fill="none" xmlns="http://www.w3.org/2000/svg">
<path d="M20.125 14.375C16.2869 14.375 8.625 16.2869 8.625 20.125V23H31.625V20.125C31.625 16.2869 23.9631 14.375 20.125 14.375ZM7.1875 8.625V4.3125H4.3125V8.625H0V11.5H4.3125V15.8125H7.1875V11.5H11.5V8.625M20.125 11.5C21.65 11.5 23.1125 10.8942 24.1909 9.81586C25.2692 8.73753 25.875 7.27499 25.875 5.75C25.875 4.22501 25.2692 2.76247 24.1909 1.68414C23.1125 0.605802 21.65 0 20.125 0C18.6 0 17.1375 0.605802 16.0591 1.68414C14.9808 2.76247 14.375 4.22501 14.375 5.75C14.375 7.27499 14.9808 8.73753 16.0591 9.81586C17.1375 10.8942 18.6 11.5 20.125 11.5Z" fill="#3A3A3A"/>
</svg>
