<svg width="24" height="24" viewBox="0 0 24 24" fill="none" xmlns="http://www.w3.org/2000/svg">
<path d="M19.2031 14.4014C19.1396 14.4014 19.0832 14.4182 19.0173 14.4206L15.3862 8.20782C16.0613 7.53831 16.5223 6.68323 16.7108 5.75111C16.8993 4.81899 16.8067 3.85185 16.4449 2.97243C16.0831 2.09302 15.4684 1.34098 14.6787 0.811758C13.889 0.282539 12.9599 0 12.0094 0C11.059 0 10.1299 0.282539 9.34023 0.811758C8.55052 1.34098 7.93576 2.09302 7.57396 2.97243C7.21215 3.85185 7.11963 4.81899 7.30812 5.75111C7.49661 6.68323 7.95762 7.53831 8.63264 8.20782L5.01241 14.4218C4.94406 14.4182 4.88171 14.4014 4.81335 14.4014C3.91553 14.3982 3.03484 14.6473 2.27149 15.1202C1.50814 15.5931 0.892767 16.2709 0.495389 17.0765C0.0980107 17.8821 -0.0654223 18.7831 0.0236829 19.677C0.112788 20.5709 0.450854 21.4218 0.99942 22.133C1.54799 22.8442 2.28503 23.387 3.1267 23.6998C3.96836 24.0125 4.88087 24.0826 5.76039 23.9021C6.63991 23.7216 7.45115 23.2977 8.1018 22.6787C8.75245 22.0597 9.2164 21.2703 9.44087 20.4005H14.5756C14.8012 21.2678 15.2654 22.0545 15.9154 22.6711C16.5654 23.2877 17.3752 23.7096 18.2528 23.8888C19.1304 24.068 20.0406 23.9974 20.8802 23.685C21.7197 23.3726 22.4548 22.8309 23.0021 22.1214C23.5493 21.4119 23.8868 20.5631 23.9761 19.6714C24.0654 18.7796 23.9031 17.8807 23.5074 17.0767C23.1117 16.2726 22.4987 15.5957 21.7378 15.1228C20.977 14.6499 20.0988 14.4 19.2031 14.4014ZM14.5756 18.0009H9.44087C9.13634 16.8211 8.39411 15.8017 7.36514 15.1501L10.7144 9.40285C11.5576 9.66923 12.4624 9.66923 13.3057 9.40285L16.6633 15.1453C15.6284 15.7954 14.8814 16.8171 14.5756 18.0009Z" fill="#3A3A3A"/>
</svg>
