<svg width="41" height="40" viewBox="0 0 41 40" fill="none" xmlns="http://www.w3.org/2000/svg">
<path d="M16.4025 5.64966H24.5574C25.2063 5.64966 25.8286 5.90741 26.2874 6.36621C26.7462 6.82502 27.0039 7.44729 27.0039 8.09613C27.0039 9.6101 26.4025 11.0621 25.3319 12.1326C24.2614 13.2031 22.8094 13.8046 21.2955 13.8046H19.6645C18.1505 13.8046 16.6986 13.2031 15.628 12.1326C14.5575 11.0621 13.9561 9.6101 13.9561 8.09613C13.9561 7.44729 14.2138 6.82502 14.6726 6.36621C15.1314 5.90741 15.7537 5.64966 16.4025 5.64966Z" fill="#4169E1" stroke="#002129" stroke-width="0.77512" stroke-linecap="round" stroke-linejoin="round"/>
<path d="M7.43213 28.4835V26.8525C7.43213 23.392 8.80681 20.0733 11.2538 17.6263C13.7007 15.1794 17.0195 13.8047 20.48 13.8047C23.9405 13.8047 27.2593 15.1794 29.7062 17.6263C32.1532 20.0733 33.5278 23.392 33.5278 26.8525V28.4835C33.5278 30.2138 32.8405 31.8732 31.617 33.0966C30.3936 34.3201 28.7342 35.0075 27.0039 35.0075H13.9561C12.2258 35.0075 10.5664 34.3201 9.34294 33.0966C8.11947 31.8732 7.43213 30.2138 7.43213 28.4835Z" fill="#4169E1" stroke="#002129" stroke-width="0.77512" stroke-linecap="round" stroke-linejoin="round"/>
<g clip-path="url(#clip0_4303_23320)">
<path d="M17.6446 21.2749C17.4587 21.0358 17.1108 20.9275 16.7891 21.0113C16.4674 21.0951 16.2482 21.3485 16.2482 21.6367V25.5607H15.4857C15.0639 25.5607 14.7231 25.853 14.7231 26.2147C14.7231 26.5765 15.0639 26.8687 15.4857 26.8687H16.2482V29.4848C16.2482 29.8465 16.589 30.1388 17.0108 30.1388C17.4325 30.1388 17.7733 29.8465 17.7733 29.4848V26.8687H20.161L22.4772 29.8486C22.6631 30.0877 23.011 30.196 23.3327 30.1122C23.6544 30.0284 23.8736 29.775 23.8736 29.4868V26.8687H24.6361C25.0579 26.8687 25.3987 26.5765 25.3987 26.2147C25.3987 25.853 25.0579 25.5607 24.6361 25.5607H23.8736V21.6367C23.8736 21.2749 23.5328 20.9827 23.1111 20.9827C22.6893 20.9827 22.3485 21.2749 22.3485 21.6367V25.5607H20.9783L17.6446 21.2749ZM21.9935 26.8687H22.3485V27.3245L21.9935 26.8687ZM19.1435 25.5607H17.7733V23.7969L19.1435 25.5607Z" fill="#002129"/>
</g>
<defs>
<clipPath id="clip0_4303_23320">
<rect width="10.6755" height="10.4641" fill="white" transform="translate(14.7231 20.3281)"/>
</clipPath>
</defs>
</svg>
