<svg width="32" height="22" viewBox="0 0 32 22" fill="none" xmlns="http://www.w3.org/2000/svg">
<path d="M29.3333 6.66667V5.33333C29.3333 4.6 28.7333 4 28 4C27.2667 4 26.6667 4.6 26.6667 5.33333V6.66667H25.3333C24.6 6.66667 24 7.26667 24 8C24 8.73333 24.6 9.33333 25.3333 9.33333H26.6667V10.6667C26.6667 11.4 27.2667 12 28 12C28.7333 12 29.3333 11.4 29.3333 10.6667V9.33333H30.6667C31.4 9.33333 32 8.73333 32 8C32 7.26667 31.4 6.66667 30.6667 6.66667H29.3333ZM10.6667 10.6667C13.6133 10.6667 16 8.28 16 5.33333C16 2.38667 13.6133 0 10.6667 0C7.72 0 5.33333 2.38667 5.33333 5.33333C5.33333 8.28 7.72 10.6667 10.6667 10.6667ZM10.6667 12C7.10667 12 0 13.7867 0 17.3333V21.3333H21.3333V17.3333C21.3333 13.7867 14.2267 12 10.6667 12ZM16.68 0.0666669C17.9067 1.48 18.6667 3.32 18.6667 5.33333C18.6667 7.34667 17.9067 9.18667 16.68 10.6C19.2933 10.2667 21.3333 8.05333 21.3333 5.33333C21.3333 2.61333 19.2933 0.4 16.68 0.0666669ZM22.04 13.1067C23.2267 14.2133 24 15.6 24 17.3333V21.3333H26.6667V17.3333C26.6667 15.4 24.5467 13.9867 22.04 13.1067Z" fill="#3A3A3A"/>
</svg>
