<svg width="32" height="24" viewBox="0 0 32 24" fill="none" xmlns="http://www.w3.org/2000/svg">
<path d="M22.925 11.55C25.202 11.55 27.0335 9.702 27.0335 7.425C27.0335 5.148 25.202 3.3 22.925 3.3C21.831 3.3 20.7818 3.7346 20.0082 4.50818C19.2346 5.28177 18.8 6.33098 18.8 7.425C18.8 8.51902 19.2346 9.56823 20.0082 10.3418C20.7818 11.1154 21.831 11.55 22.925 11.55ZM10.55 9.9C13.289 9.9 15.4835 7.689 15.4835 4.95C15.4835 2.211 13.289 0 10.55 0C7.811 0 5.6 2.211 5.6 4.95C5.6 7.689 7.811 9.9 10.55 9.9ZM22.925 14.85C19.9055 14.85 13.85 16.368 13.85 19.3875V23.1H32V19.3875C32 16.368 25.9445 14.85 22.925 14.85ZM10.55 13.2C6.7055 13.2 -1 15.1305 -1 18.975V23.1H10.55V19.3875C10.55 17.985 11.0945 15.5265 14.4605 13.662C13.025 13.365 11.639 13.2 10.55 13.2Z" fill="#3A3A3A"/>
</svg>
