<svg width="37" height="37" viewBox="0 0 37 37" fill="none" xmlns="http://www.w3.org/2000/svg">
<rect x="0.5" y="0.5" width="36" height="36" rx="5" fill="#13142F"/>
<path d="M15.75 15.5498C17.53 16.1998 19.47 16.1998 21.25 15.5498" stroke="#6787E7" stroke-width="1.5" stroke-linecap="round" stroke-linejoin="round"/>
<path d="M23.3198 8.5H13.6798C11.5498 8.5 9.81982 10.24 9.81982 12.36V26.45C9.81982 28.25 11.1098 29.01 12.6898 28.14L17.5698 25.43C18.0898 25.14 18.9298 25.14 19.4398 25.43L24.3198 28.14C25.8998 29.02 27.1898 28.26 27.1898 26.45V12.36C27.1798 10.24 25.4498 8.5 23.3198 8.5Z" stroke="#6787E7" stroke-width="1.5" stroke-linecap="round" stroke-linejoin="round"/>
<path d="M23.3198 8.5H13.6798C11.5498 8.5 9.81982 10.24 9.81982 12.36V26.45C9.81982 28.25 11.1098 29.01 12.6898 28.14L17.5698 25.43C18.0898 25.14 18.9298 25.14 19.4398 25.43L24.3198 28.14C25.8998 29.02 27.1898 28.26 27.1898 26.45V12.36C27.1798 10.24 25.4498 8.5 23.3198 8.5Z" stroke="#6787E7" stroke-width="1.5" stroke-linecap="round" stroke-linejoin="round"/>
</svg>
