<svg width="37" height="37" viewBox="0 0 37 37" fill="none" xmlns="http://www.w3.org/2000/svg">
<rect x="0.5" y="0.5" width="36" height="36" rx="5" fill="#EFEFF9"/>
<path d="M15.75 15.5498C17.53 16.1998 19.47 16.1998 21.25 15.5498" stroke="#6787E7" stroke-width="1.5" stroke-linecap="round" stroke-linejoin="round"/>
<path d="M23.3203 8.5H13.6803C11.5503 8.5 9.82031 10.24 9.82031 12.36V26.45C9.82031 28.25 11.1103 29.01 12.6903 28.14L17.5703 25.43C18.0903 25.14 18.9303 25.14 19.4403 25.43L24.3203 28.14C25.9003 29.02 27.1903 28.26 27.1903 26.45V12.36C27.1803 10.24 25.4503 8.5 23.3203 8.5Z" stroke="#6787E7" stroke-width="1.5" stroke-linecap="round" stroke-linejoin="round"/>
<path d="M23.3203 8.5H13.6803C11.5503 8.5 9.82031 10.24 9.82031 12.36V26.45C9.82031 28.25 11.1103 29.01 12.6903 28.14L17.5703 25.43C18.0903 25.14 18.9303 25.14 19.4403 25.43L24.3203 28.14C25.9003 29.02 27.1903 28.26 27.1903 26.45V12.36C27.1803 10.24 25.4503 8.5 23.3203 8.5Z" stroke="#6787E7" stroke-width="1.5" stroke-linecap="round" stroke-linejoin="round"/>
</svg>
