<svg width="36" height="37" viewBox="0 0 36 37" fill="none" xmlns="http://www.w3.org/2000/svg">
<rect y="0.291992" width="36" height="36" rx="5" fill="#13142F"/>
<g clip-path="url(#clip0_4177_20860)">
<path d="M11.6255 14.8209C11.5054 14.8679 11.382 14.9057 11.2562 14.934C11.2525 14.9348 11.2488 14.9354 11.2451 14.9359C11.271 15.0953 11.3138 15.2516 11.3727 15.4019C11.3995 15.4608 11.4315 15.5172 11.4681 15.5706C11.5773 15.2685 11.6784 15.0368 11.7393 14.7764C11.7048 14.7901 11.6666 14.8051 11.6255 14.8209Z" fill="#4169E1"/>
<path d="M28.1068 22.0337V29.3776H7.87695V27.5345H12.8675H14.4673H14.9673V27.0345V27.0297V27.0248V27.0199V27.015V27.0101V27.0052V27.0003V26.9954V26.9904V26.9855V26.9806V26.9757V26.9708V26.9659V26.9609V26.956V26.9511V26.9462V26.9412V26.9363V26.9313V26.9264V26.9215V26.9165V26.9116V26.9066V26.9017V26.8967V26.8917V26.8868V26.8818V26.8769V26.8719V26.8669V26.862V26.857V26.852V26.847V26.842V26.8371V26.8321V26.8271V26.8221V26.8171V26.8121V26.8071V26.8021V26.7971V26.7921V26.7871V26.7821V26.7771V26.7721V26.7671V26.762V26.757V26.752V26.747V26.742V26.7369V26.7319V26.7269V26.7218V26.7168V26.7118V26.7067V26.7017V26.6966V26.6916V26.6865V26.6815V26.6764V26.6714V26.6663V26.6613V26.6562V26.6511V26.6461V26.641V26.6359V26.6308V26.6258V26.6207V26.6156V26.6105V26.6055V26.6004V26.5953V26.5902V26.5851V26.58V26.5749V26.5698V26.5647V26.5596V26.5545V26.5494V26.5443V26.5392V26.5341V26.529V26.5238V26.5187V26.5136V26.5085V26.5034V26.4982V26.4931V26.488V26.4829V26.4777V26.4726V26.4675V26.4623V26.4572V26.452V26.4469V26.4417V26.4366V26.4314V26.4263V26.4211V26.416V26.4108V26.4057V26.4005V26.3953V26.3902V26.385V26.3798V26.3747V26.3695V26.3643V26.3591V26.354V26.3488V26.3436V26.3384V26.3332V26.328V26.3228V26.3177V26.3125V26.3073V26.3021V26.2969V26.2917V26.2865V26.2813V26.2761V26.2709V26.2657V26.2604V26.2552V26.25V26.2448V26.2396V26.2344V26.2291V26.2239V26.2187V26.2135V26.2082V26.203V26.1978V26.1925V26.1873V26.1821V26.1768V26.1716V26.1664V26.1611V26.1559V26.1506V26.1454V26.1401V26.1349V26.1296V26.1244V26.1191V26.1139V26.1086V26.1033V26.0981V26.0928V26.0876V26.0823V26.077V26.0717V26.0665V26.0612V26.0559V26.0507V26.0454V26.0401V26.0348V26.0295V26.0242V26.019V26.0137V26.0084V26.0031V25.9978V25.9925V25.9872V25.9819V25.9766V25.9713V25.966V25.9607V25.9554V25.9501V25.9448V25.9395V25.9342V25.9289V25.9236V25.9183V25.9129V25.9076V25.9023V25.897V25.8917V25.8864V25.881V25.8757V25.8704V25.8651V25.8597V25.8544V25.8491V25.8437V25.8384V25.8331V25.8277V25.8224V25.817V25.8117V25.8064V25.801V25.7957V25.7903V25.785V25.7796V25.7743V25.7689V25.7636V25.7582V25.7529V25.7475V25.7422V25.7368V25.7314V25.7261V25.7207V25.7153V25.71V25.7046V25.6992V25.6939V25.6885V25.6831V25.6778V25.6724V25.667V25.6616V25.6563V25.6509V25.6455V25.6401V25.6347V25.6294V25.624V25.6186V25.6132V25.6078V25.6024V25.597V25.5916V25.5863V25.5809V25.5755V25.5701V25.5647V25.5593V25.5539V25.5485V25.5431V25.5377V25.5323V25.5269V25.5215V25.5161V25.5106V25.5052V25.4998V25.4944V25.489V25.4836V25.4782V25.4728V25.4673V25.4619V25.4565V25.4511V25.4457V25.4403V25.4348V25.4294V25.424V25.4186V25.4131V25.4077V25.4023V25.3969V25.3914V25.386V25.3806V25.3751V25.3697V25.3643V25.3588V25.3534V25.3479V25.3425V25.3371V25.3316V25.3262V25.3207V25.3153V25.3099V25.3044V25.299V25.2935V25.2881V25.2826V25.2772V25.2717V25.2663V25.2608V25.2554V25.2499V25.2445V25.239V25.2336V25.2281V25.2227V25.2172V25.2117V25.2063V25.2008V25.1954V25.1899V25.1844V25.179V25.1735V25.168V25.1626V25.1571V25.1516V25.1462V25.1407V25.1352V25.1298V25.1243V25.1188V25.1134V25.1079V25.1024V25.0969V25.0915V25.086V25.0805V25.075V25.0696V25.0641V25.0586V25.0531V25.0476V25.0422V25.0367V25.0312V25.0257V25.0202V25.0147V25.0093V25.0038V24.9983V24.9928V24.9873V24.9818V24.9763V24.9709V24.9654V24.9599V24.9544V24.9489V24.9434V24.9379V24.9324V24.9269V24.9214V24.9159V24.9104V24.9049V24.8995V24.894V24.8885V24.883V24.8775V24.872V24.8665V24.861V24.8555V24.85V24.8445V24.839V24.8335V24.828V24.8225V24.817V24.8149H21.5576H22.0576V24.3149V24.3063V24.2976V24.289V24.2804V24.2717V24.2631V24.2544V24.2458V24.2372V24.2286V24.22V24.2114V24.2028V24.1942V24.1856V24.177V24.1684V24.1598V24.1512V24.1427V24.1341V24.1255V24.117V24.1084V24.0999V24.0913V24.0828V24.0743V24.0658V24.0572V24.0487V24.0402V24.0317V24.0232V24.0147V24.0062V23.9978V23.9893V23.9808V23.9724V23.9639V23.9555V23.947V23.9386V23.9302V23.9217V23.9133V23.9049V23.8965V23.8881V23.8797V23.8713V23.8629V23.8546V23.8462V23.8378V23.8295V23.8211V23.8128V23.8045V23.7961V23.7878V23.7795V23.7712V23.7629V23.7546V23.7464V23.7381V23.7298V23.7216V23.7133V23.7051V23.6968V23.6886V23.6804V23.6722V23.664V23.6558V23.6476V23.6394V23.6312V23.623V23.6149V23.6067V23.5986V23.5905V23.5823V23.5742V23.5661V23.558V23.5499V23.5418V23.5338V23.5257V23.5177V23.5096V23.5016V23.4935V23.4855V23.4775V23.4695V23.4615V23.4535V23.4455V23.4376V23.4296V23.4217V23.4137V23.4058V23.3979V23.39V23.3821V23.3742V23.3663V23.3584V23.3506V23.3427V23.3349V23.3271V23.3192V23.3114V23.3036V23.2958V23.2881V23.2803V23.2725V23.2648V23.257V23.2493V23.2416V23.2339V23.2262V23.2185V23.2108V23.2031V23.1955V23.1878V23.1802V23.1726V23.165V23.1574V23.1498V23.1422V23.1347V23.1271V23.1196V23.112V23.1045V23.097V23.0895V23.082V23.0745V23.0671V23.0596V23.0522V23.0447V23.0373V23.0299V23.0225V23.0152V23.0078V23.0004V22.9931V22.9858V22.9784V22.9711V22.9638V22.9565V22.9493V22.942V22.9348V22.9275V22.9203V22.9131V22.9059V22.8987V22.8916V22.8844V22.8773V22.8701V22.863V22.8559V22.8488V22.8418V22.8347V22.8276V22.8206V22.8136V22.8066V22.7996V22.7926V22.7856V22.7787V22.7717V22.7648V22.7579V22.751V22.7441V22.7372V22.7304V22.7235V22.7167V22.7099V22.7031V22.6963V22.6895V22.6828V22.676V22.6693V22.6626V22.6559V22.6492V22.6425V22.6358V22.6292V22.6226V22.616V22.6094V22.6028V22.5962V22.5897V22.5831V22.5766V22.5701V22.5636V22.5571V22.5507V22.5442V22.5378V22.5314V22.525V22.5186V22.5122V22.5059V22.4995V22.4932V22.4869V22.4806V22.4744V22.4681V22.4619V22.4556V22.4494V22.4432V22.4371V22.4309V22.4248V22.4186V22.4125V22.4064V22.4004V22.3943V22.3883V22.3822V22.3762V22.3702V22.3643V22.3583V22.3524V22.3464V22.3405V22.3346V22.3288V22.3229V22.3171V22.3112V22.3054V22.2997V22.2939V22.2881V22.2824V22.2767V22.271V22.2653V22.2597V22.254V22.2484V22.2428V22.2372V22.2316V22.2261V22.2205V22.215V22.2095V22.204V22.1986V22.1931V22.1877V22.1823V22.1769V22.1715V22.1662V22.1608V22.1555V22.1502V22.1449V22.1397V22.1345V22.1292V22.124V22.1189V22.1137V22.1085V22.1034V22.0983V22.0932V22.0882V22.0831V22.0781V22.0731V22.0681V22.0631V22.0582V22.0533V22.0483V22.0435V22.0386V22.0337V22.0337H28.1068Z" stroke="#4169E1"/>
<mask id="path-4-inside-1_4177_20860" fill="white">
<path d="M15.1233 7.52954C15.1484 7.66016 15.1592 7.79314 15.1554 7.92611C15.1686 8.17106 15.1862 8.51085 15.413 8.62688C15.4588 8.64819 15.4963 8.6841 15.5196 8.72898C15.5762 8.84964 15.4724 8.90692 15.4086 8.97874C15.3688 9.025 15.3408 9.08028 15.3272 9.13979C15.3225 9.2588 15.3086 9.37728 15.2858 9.49418C15.2713 9.57655 15.2465 9.65675 15.2118 9.73285C15.1626 9.8437 15.0723 9.93112 14.9599 9.97669C14.7684 10.052 14.56 10.0734 14.3571 10.0387C14.3379 10.0341 14.3176 10.0367 14.3001 10.046C14.2826 10.0552 14.2691 10.0705 14.2621 10.089C14.2405 10.1765 14.2136 10.2627 14.1816 10.3469L14.0902 10.5738L14.044 10.6885C13.8485 10.5165 13.6299 10.3727 13.3945 10.2615C13.1522 10.1413 12.9614 10.075 12.7383 9.97084C12.7311 9.96751 12.7237 9.96471 12.7161 9.96245C12.6726 9.75942 12.474 9.60559 12.2386 9.36914C12.0515 9.18128 11.8264 8.8309 11.7519 8.58378C11.6655 8.30463 11.6432 8.00959 11.6866 7.72061C11.7337 7.43799 11.8552 7.13594 12.0911 6.93877L12.3939 6.61964C12.6105 6.36957 13.0197 6.17918 13.378 6.13614C13.7023 6.09375 14.0317 6.15113 14.3226 6.30064C14.6631 6.47783 15.0648 6.84178 15.1302 7.56013"/>
</mask>
<path d="M15.1554 7.92611L14.1558 7.89734L14.1546 7.93864L14.1568 7.9799L15.1554 7.92611ZM15.413 8.62688L14.9575 9.51711L14.9743 9.5257L14.9914 9.53366L15.413 8.62688ZM15.5196 8.72898L16.4249 8.3043L16.4165 8.28631L16.4073 8.26868L15.5196 8.72898ZM15.4086 8.97874L14.6607 8.31494L14.6558 8.32049L14.6509 8.32612L15.4086 8.97874ZM15.3272 9.13979L14.3525 8.91627L14.3316 9.00719L14.3279 9.1004L15.3272 9.13979ZM15.2858 9.49418L14.3044 9.30235L14.3025 9.31188L14.3008 9.32144L15.2858 9.49418ZM15.2118 9.73285L14.3018 9.31815L14.2978 9.32708L15.2118 9.73285ZM14.9599 9.97669L15.3258 10.9074L15.3357 10.9034L14.9599 9.97669ZM14.3571 10.0387L14.1254 11.0115L14.1567 11.019L14.1885 11.0244L14.3571 10.0387ZM14.2621 10.089L13.3274 9.7335L13.3058 9.79033L13.2912 9.84937L14.2621 10.089ZM14.1816 10.3469L15.1091 10.7207L15.1129 10.7113L15.1165 10.7018L14.1816 10.3469ZM14.0902 10.5738L13.1627 10.2L13.1626 10.2003L14.0902 10.5738ZM14.044 10.6885L13.3834 11.4392L14.4439 12.3725L14.9716 11.062L14.044 10.6885ZM13.3945 10.2615L12.9502 11.1574L12.9586 11.1616L12.9672 11.1656L13.3945 10.2615ZM12.7383 9.97084L13.1615 9.0648L13.1581 9.06322L12.7383 9.97084ZM12.7161 9.96245L11.7384 10.1721L11.8627 10.7518L12.431 10.9209L12.7161 9.96245ZM12.2386 9.36914L12.9472 8.66361L12.9472 8.66355L12.2386 9.36914ZM11.7519 8.58378L12.7094 8.2952L12.7072 8.28821L11.7519 8.58378ZM11.6866 7.72061L10.7002 7.55621L10.6988 7.56422L10.6976 7.57225L11.6866 7.72061ZM12.0911 6.93877L12.7325 7.70595L12.7768 7.66893L12.8165 7.62706L12.0911 6.93877ZM12.3939 6.61964L13.1193 7.30793L13.1349 7.29153L13.1497 7.27444L12.3939 6.61964ZM13.378 6.13614L13.4972 7.12906L13.5076 7.1277L13.378 6.13614ZM14.3226 6.30064L14.7841 5.41351L14.7798 5.41127L14.3226 6.30064ZM14.1413 7.71881C14.1527 7.77762 14.1575 7.83748 14.1558 7.89734L16.155 7.95487C16.1609 7.7488 16.1442 7.54271 16.1052 7.34028L14.1413 7.71881ZM14.1568 7.9799C14.1623 8.08133 14.172 8.33348 14.2373 8.58055C14.3017 8.82404 14.4736 9.26951 14.9575 9.51711L15.8685 7.73665C15.9917 7.7997 16.0721 7.88811 16.1177 7.95847C16.1589 8.02195 16.1705 8.06778 16.1709 8.06913C16.1716 8.07212 16.168 8.05868 16.164 8.01965C16.1599 7.98009 16.1574 7.93741 16.1539 7.87232L14.1568 7.9799ZM14.9914 9.53366C14.8368 9.46177 14.7103 9.34066 14.6318 9.18928L16.4073 8.26868C16.2823 8.02754 16.0809 7.83462 15.8346 7.7201L14.9914 9.53366ZM14.6142 9.15366C14.5629 9.04425 14.5194 8.88312 14.542 8.69153C14.5639 8.50566 14.6388 8.37193 14.6898 8.29894C14.7344 8.23517 14.7762 8.19719 14.763 8.21012C14.761 8.212 14.7592 8.21381 14.7535 8.21923C14.7489 8.22368 14.7414 8.23097 14.7331 8.23905C14.7171 8.25478 14.6904 8.28153 14.6607 8.31494L16.1565 9.64255C16.1406 9.66053 16.1141 9.68607 16.1586 9.64265C16.181 9.62087 16.2572 9.54756 16.3286 9.44541C16.4065 9.33403 16.5007 9.15888 16.5282 8.92609C16.5564 8.68757 16.5046 8.47404 16.4249 8.3043L14.6142 9.15366ZM14.6509 8.32612C14.5049 8.49563 14.4025 8.69821 14.3525 8.91627L16.3019 9.3633C16.2791 9.46235 16.2326 9.55437 16.1663 9.63137L14.6509 8.32612ZM14.3279 9.1004C14.3253 9.16822 14.3174 9.23574 14.3044 9.30235L16.2672 9.68601C16.2999 9.51883 16.3197 9.34939 16.3264 9.17917L14.3279 9.1004ZM14.3008 9.32144C14.301 9.32031 14.3014 9.31921 14.3018 9.31817L16.1218 10.1475C16.1916 9.99429 16.2417 9.83279 16.2708 9.66692L14.3008 9.32144ZM14.2978 9.32708C14.3538 9.20112 14.4564 9.10177 14.5841 9.04998L15.3357 10.9034C15.6882 10.7605 15.9714 10.4863 16.1258 10.1386L14.2978 9.32708ZM14.594 9.04602C14.5724 9.05454 14.5488 9.05697 14.5258 9.05304L14.1885 11.0244C14.5712 11.0899 14.9644 11.0494 15.3257 10.9074L14.594 9.04602ZM14.5889 9.06594C14.3334 9.00508 14.0645 9.03926 13.8324 9.16209L14.7679 10.9298C14.5707 11.0342 14.3424 11.0632 14.1254 11.0115L14.5889 9.06594ZM13.8324 9.16209C13.6003 9.28493 13.4208 9.48804 13.3274 9.7335L15.1967 10.4446C15.1174 10.653 14.965 10.8255 14.7679 10.9298L13.8324 9.16209ZM13.2912 9.84937C13.2793 9.89778 13.2644 9.94542 13.2467 9.99204L15.1165 10.7018C15.1628 10.5799 15.2017 10.4553 15.2329 10.3287L13.2912 9.84937ZM13.2541 9.97315L13.1627 10.2L15.0177 10.9476L15.1091 10.7207L13.2541 9.97315ZM13.1626 10.2003L13.1164 10.315L14.9716 11.062L15.0178 10.9474L13.1626 10.2003ZM14.7046 9.93779C14.4389 9.70397 14.1417 9.50859 13.8218 9.35736L12.9672 11.1656C13.118 11.2369 13.2581 11.329 13.3834 11.4392L14.7046 9.93779ZM13.8388 9.3656C13.6893 9.29147 13.5582 9.23528 13.4475 9.18866C13.3323 9.14011 13.2513 9.10672 13.1615 9.06481L12.3151 10.8769C12.4485 10.9391 12.5743 10.991 12.6708 11.0317C12.7719 11.0743 12.8573 11.1113 12.9502 11.1574L13.8388 9.3656ZM13.1581 9.06322C13.1073 9.03973 13.0549 9.01993 13.0013 9.00397L12.431 10.9209C12.3925 10.9095 12.3549 10.8953 12.3185 10.8785L13.1581 9.06322ZM13.6939 9.75282C13.6169 9.39371 13.4157 9.14538 13.2907 9.00728C13.1906 8.89664 13.004 8.72059 12.9472 8.66361L11.5299 10.0747C11.5969 10.142 11.6652 10.2072 11.71 10.2508C11.7613 10.3005 11.7892 10.3287 11.8079 10.3494C11.826 10.3694 11.818 10.3635 11.8022 10.3375C11.7842 10.308 11.7554 10.2515 11.7384 10.1721L13.6939 9.75282ZM12.9472 8.66355C12.9201 8.63635 12.8617 8.56556 12.8004 8.46766C12.772 8.42238 12.7486 8.38016 12.7314 8.34495C12.713 8.30745 12.7081 8.29092 12.7094 8.29521L10.7945 8.87236C10.8674 9.11423 10.992 9.34831 11.1057 9.5297C11.2222 9.71574 11.37 9.91408 11.5299 10.0747L12.9472 8.66355ZM12.7072 8.28821C12.6653 8.15263 12.6544 8.00933 12.6755 7.86898L10.6976 7.57225C10.632 8.00985 10.6658 8.45663 10.7966 8.87936L12.7072 8.28821ZM12.673 7.88501C12.6836 7.82101 12.7007 7.76932 12.7177 7.73431C12.7343 7.70011 12.7431 7.69705 12.7325 7.70595L11.4496 6.17158C10.9633 6.57823 10.7692 7.1418 10.7002 7.55621L12.673 7.88501ZM12.8165 7.62706L13.1193 7.30793L11.6684 5.93135L11.3656 6.25047L12.8165 7.62706ZM13.1497 7.27444C13.1451 7.27965 13.1787 7.24376 13.2682 7.20048C13.353 7.1595 13.4385 7.13606 13.4972 7.12901L13.2588 5.14328C12.7097 5.20922 12.0511 5.48814 11.6381 5.96484L13.1497 7.27444ZM13.5076 7.1277C13.6304 7.11165 13.7552 7.13338 13.8654 7.19L14.7798 5.41127C14.3082 5.16888 13.7741 5.07585 13.2484 5.14458L13.5076 7.1277ZM13.861 7.18775C13.9272 7.22221 13.9847 7.26727 14.0276 7.32485C14.0656 7.37576 14.1179 7.46989 14.1344 7.65082L16.1261 7.46944C16.0233 6.34073 15.3573 5.71176 14.7841 5.41352L13.861 7.18775Z" fill="#4169E1" mask="url(#path-4-inside-1_4177_20860)"/>
<path d="M16.6469 12.1037C16.6052 12.1756 16.5512 12.2677 16.5181 12.3354C16.5206 12.3356 16.523 12.3364 16.5252 12.3377C16.7004 12.4266 17.3159 12.8667 17.5391 13.022C17.59 12.92 17.6393 12.8173 17.687 12.7137C17.6968 12.6929 17.6994 12.6694 17.6946 12.6468C17.6897 12.6243 17.6777 12.604 17.6602 12.5889C17.4621 12.4206 17.0896 12.1979 16.7998 12.0436C16.7755 12.0307 16.7472 12.0278 16.7209 12.0354C16.6945 12.043 16.6721 12.0605 16.6585 12.0843C16.6546 12.0905 16.6508 12.097 16.6469 12.1037Z" fill="#4169E1"/>
<mask id="path-7-inside-2_4177_20860" fill="white">
<path d="M18.1054 12.1463C18.0335 12.2113 17.9659 12.2672 17.899 12.3263C17.899 12.3263 17.7842 12.4279 17.6302 12.5645C17.3681 12.3685 17.0902 12.1944 16.7996 12.0439C16.7773 12.0319 16.7515 12.0286 16.727 12.0344L16.6957 11.9035L16.614 11.5395C16.5828 11.4372 16.637 11.209 16.7044 11.0792C16.7979 10.8995 16.9304 10.7748 17.1834 11.0234C17.2512 10.8857 17.3075 10.7536 17.3861 10.5844C17.3975 10.559 17.4139 10.5363 17.4344 10.5175C17.4548 10.4987 17.4789 10.4842 17.5051 10.475C17.5313 10.4658 17.5591 10.462 17.5868 10.4638C17.6145 10.4657 17.6416 10.4731 17.6664 10.4857C17.7129 10.5058 17.7521 10.5398 17.7784 10.5831C17.8047 10.6264 17.817 10.6768 17.8133 10.7273C17.8828 10.7397 17.9472 10.7719 17.9988 10.8201C18.0503 10.8683 18.0867 10.9305 18.1036 10.999C18.1132 11.0564 18.1431 11.1085 18.1877 11.1459C18.4451 11.3906 18.5957 11.6371 18.2853 11.9698C18.2213 12.0383 18.162 12.0951 18.1054 12.1463Z"/>
</mask>
<path d="M18.1054 12.1463L18.776 12.8881L18.7761 12.888L18.1054 12.1463ZM17.899 12.3263L17.2368 11.577L17.2365 11.5773L17.899 12.3263ZM17.6302 12.5645L17.0315 13.3654L17.6842 13.8534L18.2939 13.3126L17.6302 12.5645ZM16.7996 12.0439L16.3257 12.9244L16.3327 12.9282L16.3398 12.9319L16.7996 12.0439ZM16.727 12.0344L15.7543 12.2667L15.9868 13.2401L16.96 13.0069L16.727 12.0344ZM16.6957 11.9035L15.7199 12.1225L15.7231 12.1358L16.6957 11.9035ZM16.614 11.5395L17.5898 11.3205L17.5815 11.2837L17.5705 11.2476L16.614 11.5395ZM16.7044 11.0792L15.8172 10.6178L15.8171 10.6181L16.7044 11.0792ZM17.1834 11.0234L16.4826 11.7368L17.4693 12.7061L18.0805 11.4653L17.1834 11.0234ZM17.3861 10.5844L18.2931 11.0057L18.2979 10.9949L17.3861 10.5844ZM17.6664 10.4857L17.2126 11.3769L17.2413 11.3915L17.2709 11.4042L17.6664 10.4857ZM17.8133 10.7273L16.8159 10.6562L16.7518 11.5549L17.6389 11.712L17.8133 10.7273ZM18.1036 10.999L19.0897 10.8328L19.0835 10.7961L19.0746 10.76L18.1036 10.999ZM18.1877 11.1459L18.8767 10.4211L18.8538 10.3994L18.8296 10.3791L18.1877 11.1459ZM18.2853 11.9698L17.5542 11.2875L17.5539 11.2877L18.2853 11.9698ZM17.4348 11.4045C17.3542 11.4773 17.3491 11.4778 17.2368 11.577L18.5613 13.0756C18.5827 13.0567 18.7127 12.9453 18.776 12.8881L17.4348 11.4045ZM17.899 12.3263C17.2365 11.5773 17.2365 11.5773 17.2365 11.5773C17.2365 11.5773 17.2365 11.5773 17.2365 11.5773C17.2365 11.5773 17.2365 11.5773 17.2365 11.5773C17.2365 11.5773 17.2364 11.5773 17.2364 11.5774C17.2364 11.5774 17.2363 11.5775 17.2362 11.5776C17.2359 11.5778 17.2356 11.5781 17.2351 11.5785C17.2342 11.5793 17.2329 11.5805 17.2312 11.582C17.2277 11.5851 17.2226 11.5896 17.216 11.5955C17.2027 11.6072 17.1835 11.6242 17.1594 11.6455C17.1113 11.6881 17.0439 11.7479 16.9666 11.8164L18.2939 13.3126C18.3706 13.2445 18.4376 13.1851 18.4854 13.1428C18.5093 13.1216 18.5283 13.1048 18.5414 13.0932C18.548 13.0874 18.553 13.0829 18.5564 13.0799C18.5582 13.0784 18.5594 13.0772 18.5603 13.0765C18.5607 13.0761 18.5611 13.0758 18.5613 13.0756C18.5614 13.0755 18.5615 13.0754 18.5615 13.0754C18.5615 13.0754 18.5616 13.0754 18.5616 13.0753C18.5616 13.0753 18.5616 13.0753 18.5616 13.0753C18.5616 13.0753 18.5616 13.0753 18.5616 13.0753C18.5616 13.0753 18.5616 13.0753 17.899 12.3263ZM18.229 11.7635C17.9229 11.5348 17.5987 11.3315 17.2594 11.1558L16.3398 12.9319C16.5818 13.0572 16.8132 13.2022 17.0315 13.3654L18.229 11.7635ZM17.2734 11.1633C17.0349 11.0349 16.7574 10.9988 16.494 11.062L16.96 13.0069C16.7456 13.0583 16.5198 13.0289 16.3257 12.9244L17.2734 11.1633ZM17.6996 11.8022L17.6684 11.6713L15.7231 12.1358L15.7543 12.2667L17.6996 11.8022ZM17.6715 11.6846L17.5898 11.3205L15.6383 11.7584L15.72 12.1225L17.6715 11.6846ZM17.5705 11.2476C17.5925 11.3196 17.5998 11.3778 17.6027 11.4116C17.6057 11.4472 17.6051 11.4739 17.6045 11.4887C17.6031 11.517 17.6 11.5295 17.6009 11.5251C17.6014 11.5226 17.6027 11.518 17.6039 11.5144C17.6057 11.5092 17.603 11.5187 17.5917 11.5404L15.8171 10.6181C15.733 10.7798 15.6762 10.959 15.6436 11.1142C15.621 11.2217 15.5628 11.5208 15.6576 11.8314L17.5705 11.2476ZM17.5916 11.5406C17.5962 11.5318 17.5775 11.5714 17.5292 11.6256C17.4794 11.6814 17.3625 11.7921 17.1671 11.8498C16.7047 11.9863 16.4326 11.6876 16.4826 11.7368L17.8842 10.3101C17.6812 10.1106 17.2163 9.75 16.601 9.93159C16.0903 10.0823 15.869 10.5182 15.8172 10.6178L17.5916 11.5406ZM18.0805 11.4653C18.1528 11.3184 18.2334 11.1341 18.293 11.0056L16.4791 10.1631C16.3816 10.3731 16.3496 10.453 16.2864 10.5815L18.0805 11.4653ZM18.2979 10.9949C18.2538 11.093 18.1902 11.1811 18.1109 11.2539L16.7578 9.78111C16.6377 9.89149 16.5412 10.0251 16.4742 10.1739L18.2979 10.9949ZM18.1109 11.2539C18.0317 11.3266 17.9386 11.3826 17.8371 11.4183L17.1731 9.53174C17.0192 9.5859 16.8779 9.67074 16.7578 9.78111L18.1109 11.2539ZM17.8371 11.4183C17.7356 11.454 17.6279 11.4688 17.5206 11.4616L17.653 9.46602C17.4903 9.45522 17.327 9.47758 17.1731 9.53174L17.8371 11.4183ZM17.5206 11.4616C17.4133 11.4545 17.3085 11.4257 17.2126 11.3769L18.1201 9.59458C17.9747 9.52056 17.8158 9.47683 17.653 9.46602L17.5206 11.4616ZM17.2709 11.4042C17.1268 11.3422 17.0056 11.2368 16.9241 11.1028L18.6327 10.0634C18.4985 9.84275 18.299 9.66935 18.0618 9.56723L17.2709 11.4042ZM16.9241 11.1028C16.8425 10.9688 16.8047 10.8127 16.8159 10.6562L18.8108 10.7985C18.8292 10.5409 18.767 10.284 18.6327 10.0634L16.9241 11.1028ZM17.6389 11.712C17.5177 11.6905 17.4053 11.6343 17.3154 11.5502L18.6821 10.09C18.4892 9.90945 18.248 9.78877 17.9878 9.74268L17.6389 11.712ZM17.3154 11.5502C17.2255 11.466 17.162 11.3576 17.1325 11.238L19.0746 10.76C19.0114 10.5034 18.8751 10.2706 18.6821 10.09L17.3154 11.5502ZM17.1175 11.1652C17.1667 11.4574 17.3186 11.7224 17.5458 11.9126L18.8296 10.3791C18.9676 10.4946 19.0598 10.6555 19.0897 10.8328L17.1175 11.1652ZM17.4987 11.8706C17.5417 11.9115 17.5508 11.9252 17.5455 11.9179C17.5397 11.9099 17.4988 11.8524 17.4752 11.7506C17.4486 11.6356 17.4557 11.5135 17.4922 11.408C17.5244 11.3149 17.5652 11.2756 17.5542 11.2875L19.0163 12.6521C19.3199 12.3268 19.5526 11.8554 19.4236 11.2991C19.3206 10.8548 19.019 10.5563 18.8767 10.4211L17.4987 11.8706ZM17.5539 11.2877C17.5134 11.3312 17.4752 11.368 17.4347 11.4045L18.7761 12.888C18.8488 12.8223 18.9293 12.7454 19.0166 12.6518L17.5539 11.2877Z" fill="#4169E1" mask="url(#path-7-inside-2_4177_20860)"/>
<path d="M13.5161 6.62562L13.5161 6.62561C13.4894 6.62724 13.4633 6.62961 13.438 6.63267L13.4376 6.63271C13.1746 6.66429 12.8902 6.81042 12.7718 6.94718L12.7644 6.95572L12.7566 6.96392L12.4538 7.28305L12.4339 7.30399L12.4118 7.3225C12.3019 7.41437 12.2169 7.58413 12.1804 7.79898C12.149 8.01235 12.1658 8.23007 12.2296 8.43613L12.2307 8.43963L12.2306 8.43963C12.2501 8.50403 12.3001 8.61106 12.3767 8.73331C12.4519 8.85324 12.5326 8.95592 12.5929 9.01648L12.5929 9.01656C12.5997 9.02335 12.6062 9.02981 12.6124 9.036C12.6175 9.02912 12.6226 9.02221 12.6277 9.01528C12.5864 8.90895 12.5618 8.79599 12.5554 8.68032C12.5447 8.5568 12.5615 8.43237 12.6045 8.31595C12.6496 8.19408 12.7222 8.08428 12.8168 7.99516L12.8414 7.97192L12.869 7.95222C12.9574 7.88904 13.0587 7.84629 13.1657 7.82706C13.2232 7.81672 13.2816 7.81332 13.3395 7.81681C13.3769 7.76893 13.4153 7.72193 13.4537 7.67688C13.5862 7.52165 13.7568 7.34558 13.9232 7.23657L13.5161 6.62562ZM13.5161 6.62562L13.5188 6.62544M13.5161 6.62562L13.5188 6.62544M13.5188 6.62544C13.7175 6.61227 13.916 6.6536 14.0929 6.74496L14.0929 6.74497M13.5188 6.62544L14.0929 6.74497M14.0929 6.74497L14.0952 6.74614M14.0929 6.74497L14.0952 6.74614M14.0952 6.74614C14.2295 6.81465 14.346 6.91367 14.4352 7.03527C14.4578 7.06612 14.4785 7.0982 14.4972 7.13133C14.4692 7.1495 14.441 7.16835 14.4129 7.18739M14.0952 6.74614L14.4129 7.18739M13.8556 7.9765C13.9153 7.90788 13.9765 7.84308 14.0353 7.78736C14.0362 7.78648 14.0372 7.7856 14.0381 7.78472C14.0482 7.77519 14.0582 7.76593 14.0682 7.75697C14.0691 7.75613 14.07 7.7553 14.0709 7.75447C14.1156 7.7143 14.1584 7.68025 14.1973 7.65478C14.2024 7.6514 14.2081 7.64961 14.2138 7.64935C14.2139 7.64935 14.2139 7.64935 14.214 7.64934C14.2332 7.64858 14.254 7.66499 14.2634 7.6964M13.8556 7.9765L14.4128 7.80107M13.8556 7.9765C13.8193 7.92988 13.7977 7.88244 13.7859 7.84452L13.7847 7.8408L13.7847 7.8408L13.8556 7.9765ZM14.2634 7.6964C14.2673 7.70873 14.2702 7.72128 14.2724 7.73396C14.2724 7.73402 14.2724 7.73408 14.2724 7.73414C14.2747 7.74773 14.276 7.76147 14.2764 7.77526C14.2764 7.77539 14.2764 7.77553 14.2764 7.77566C14.2765 7.78214 14.2765 7.78862 14.2762 7.79511M14.2634 7.6964L14.7078 7.56235M14.2634 7.6964L14.72 7.58288M14.2762 7.79511C14.2751 7.82953 14.3006 7.85477 14.3273 7.85348C14.3275 7.85347 14.3276 7.85347 14.3277 7.85346C14.3351 7.85303 14.3426 7.85057 14.3496 7.84573C14.3687 7.8325 14.3899 7.81744 14.4128 7.80107M14.2762 7.79511L14.2894 7.79553L14.2897 7.79554L14.3154 7.79637L14.3155 7.79637L14.4148 7.79957C14.4142 7.80007 14.4135 7.80057 14.4128 7.80107M14.2762 7.79511L14.2895 7.79569L14.2898 7.7957L14.3158 7.79683L14.3158 7.79684L14.4128 7.80107M14.72 7.58288C14.7287 7.57701 14.7374 7.57121 14.7461 7.56548C14.7445 7.55973 14.7428 7.55399 14.741 7.54827L14.7058 7.55919C14.7065 7.56024 14.7071 7.56129 14.7078 7.56235M14.72 7.58288C14.7161 7.57595 14.7121 7.5691 14.7078 7.56235M14.72 7.58288L14.7078 7.56235M14.4129 7.18739C14.2659 7.12938 14.0836 7.1316 13.9235 7.23642L14.4129 7.18739ZM13.8208 8.01705C13.7893 7.94269 13.7738 7.8615 13.7764 7.77903L13.7766 7.77331L13.7767 7.77331C13.7766 7.77522 13.7765 7.77713 13.7765 7.77903C13.7762 7.79991 13.7789 7.82073 13.7848 7.84079L13.8208 8.01705ZM13.8208 8.01705C13.8203 8.0177 13.8197 8.01835 13.8192 8.019M13.8208 8.01705L13.8192 8.019M13.8192 8.019C13.7221 7.93252 13.605 7.87027 13.4775 7.83847L13.3565 8.32361M13.8192 8.019L13.3177 8.31654C13.3308 8.31779 13.3438 8.32015 13.3565 8.32361M13.3565 8.32361C13.4228 8.34015 13.4817 8.37831 13.5239 8.43206L13.3565 8.32361ZM14.6912 7.43253L14.8657 7.40319L14.9019 7.47074L14.8657 7.40319L15.1019 7.36346L14.8656 6.92284L14.6912 7.43253Z" stroke="#4169E1"/>
<mask id="path-10-inside-3_4177_20860" fill="white">
<path d="M24.6032 13.5996C23.4163 14.1461 22.1351 14.7228 20.7404 15.0758C20.7215 15.0805 20.7047 15.0912 20.6925 15.1063C20.6802 15.1213 20.6732 15.14 20.6724 15.1594C20.6717 15.1788 20.6773 15.1979 20.6884 15.2139C20.6994 15.2298 20.7154 15.2418 20.7339 15.2479L22.0229 15.6754C22.0371 15.6801 22.0499 15.6883 22.0601 15.6992C22.0703 15.7101 22.0777 15.7233 22.0815 15.7378C22.0853 15.7522 22.0855 15.7674 22.082 15.7819C22.0785 15.7964 22.0714 15.8098 22.0614 15.8209C20.0429 18.091 14.636 20.6343 11.3155 21.7398C11.294 21.7469 11.276 21.7619 11.2651 21.7817C11.2541 21.8015 11.2511 21.8247 11.2566 21.8467C11.262 21.8687 11.2756 21.8877 11.2945 21.9001C11.3134 21.9125 11.3363 21.9173 11.3587 21.9136C13.5754 21.5385 17.8039 20.315 19.1348 19.677C20.5213 19.0124 21.9126 18.1186 22.8859 17.1352C22.8957 17.125 22.9078 17.1173 22.9212 17.1128C22.9346 17.1082 22.9489 17.107 22.9629 17.109C22.9769 17.1111 22.9902 17.1164 23.0018 17.1246C23.0133 17.1329 23.0227 17.1437 23.0292 17.1563C23.1986 17.485 23.4158 17.926 23.6195 18.3846C23.6269 18.4015 23.6394 18.4157 23.6552 18.4253C23.6711 18.4348 23.6894 18.4392 23.7079 18.4379C23.7263 18.4366 23.7439 18.4297 23.7582 18.418C23.7725 18.4064 23.7829 18.3906 23.7879 18.3728C24.1582 17.0367 24.4994 15.2155 24.7292 13.6939C24.7315 13.6779 24.7296 13.6616 24.7234 13.6467C24.7173 13.6318 24.7072 13.6188 24.6943 13.6092C24.6814 13.5995 24.6661 13.5935 24.6501 13.5918C24.634 13.5901 24.6178 13.5928 24.6032 13.5996Z"/>
</mask>
<path d="M24.6032 13.5996L25.0215 14.5079L25.0231 14.5071L24.6032 13.5996ZM20.7404 15.0758L20.981 16.0465L20.9858 16.0453L20.7404 15.0758ZM20.7339 15.2479L21.0486 14.2987L21.0475 14.2983L20.7339 15.2479ZM22.0229 15.6754L22.3393 14.7267L22.3377 14.7262L22.0229 15.6754ZM22.0614 15.8209L21.3177 15.1525L21.3141 15.1565L22.0614 15.8209ZM11.3155 21.7398L11.6294 22.6893L11.6314 22.6886L11.3155 21.7398ZM11.3587 21.9136L11.1918 20.9276L11.1918 20.9276L11.3587 21.9136ZM19.1348 19.677L18.7025 18.7753L18.7025 18.7753L19.1348 19.677ZM22.8859 17.1352L23.5967 17.8386L23.6036 17.8314L22.8859 17.1352ZM23.0292 17.1563L23.9181 16.6981L23.9171 16.6962L23.0292 17.1563ZM23.6195 18.3846L24.5346 17.9815L24.5334 17.9787L23.6195 18.3846ZM23.7879 18.3728L24.7505 18.644L24.7516 18.6399L23.7879 18.3728ZM24.7292 13.6939L25.7179 13.8432L25.7182 13.8415L24.7292 13.6939ZM24.1849 12.6913C22.9945 13.2395 21.7897 13.7787 20.495 14.1064L20.9858 16.0453C22.4805 15.6669 23.8381 15.0528 25.0215 14.5079L24.1849 12.6913ZM20.4997 14.1052C20.2704 14.1621 20.0658 14.2919 19.9167 14.4752L21.4682 15.7373C21.3436 15.8904 21.1726 15.9989 20.981 16.0465L20.4997 14.1052ZM19.9167 14.4752C19.7676 14.6586 19.6821 14.8853 19.6731 15.1214L21.6717 15.1974C21.6642 15.3946 21.5928 15.5841 21.4682 15.7373L19.9167 14.4752ZM19.6731 15.1214C19.6642 15.3575 19.7322 15.5901 19.867 15.7842L21.5098 14.6435C21.6224 14.8057 21.6792 15.0001 21.6717 15.1974L19.6731 15.1214ZM19.867 15.7842C20.0017 15.9783 20.1959 16.1233 20.4202 16.1974L21.0475 14.2983C21.2349 14.3602 21.3972 14.4814 21.5098 14.6435L19.867 15.7842ZM20.4191 16.197L21.7082 16.6245L22.3377 14.7262L21.0486 14.2987L20.4191 16.197ZM21.7066 16.624C21.5634 16.5763 21.4343 16.4936 21.3309 16.3835L22.7893 15.0149C22.6655 14.883 22.5108 14.7839 22.3393 14.7267L21.7066 16.624ZM21.3309 16.3835C21.2276 16.2734 21.1533 16.1393 21.1147 15.9933L23.0483 15.4822C23.0021 15.3074 22.9131 15.1468 22.7893 15.0149L21.3309 16.3835ZM21.1147 15.9933C21.0761 15.8473 21.0745 15.694 21.1099 15.5472L23.054 16.0166C23.0965 15.8408 23.0945 15.6571 23.0483 15.4822L21.1147 15.9933ZM21.1099 15.5472C21.1453 15.4004 21.2167 15.2648 21.3177 15.1525L22.8051 16.4894C22.9261 16.3549 23.0116 16.1924 23.054 16.0166L21.1099 15.5472ZM21.3141 15.1565C20.433 16.1474 18.7159 17.2818 16.7127 18.3313C14.7392 19.3651 12.6068 20.2559 10.9996 20.791L11.6314 22.6886C13.3447 22.1182 15.576 21.1846 17.6408 20.1029C19.6758 19.0368 21.6714 17.7645 22.8087 16.4854L21.3141 15.1565ZM11.0016 20.7904C10.7408 20.8766 10.5221 21.0582 10.3894 21.2987L12.1407 22.2647C12.0299 22.4656 11.8473 22.6173 11.6294 22.6893L11.0016 20.7904ZM10.3894 21.2987C10.2567 21.5393 10.2198 21.8211 10.286 22.0878L12.2271 21.6056C12.2824 21.8283 12.2515 22.0637 12.1407 22.2647L10.3894 21.2987ZM10.286 22.0878C10.3523 22.3544 10.5168 22.5862 10.7466 22.7367L11.8424 21.0636C12.0343 21.1893 12.1717 21.3829 12.2271 21.6056L10.286 22.0878ZM10.7466 22.7367C10.9764 22.8872 11.2546 22.9454 11.5256 22.8995L11.1918 20.9276C11.418 20.8893 11.6504 20.9379 11.8424 21.0636L10.7466 22.7367ZM11.5255 22.8995C12.6878 22.7029 14.3403 22.2916 15.8559 21.8548C17.3536 21.4231 18.8176 20.9381 19.5671 20.5788L18.7025 18.7753C18.1211 19.054 16.8054 19.4997 15.302 19.933C13.8164 20.3612 12.2463 20.7492 11.1918 20.9276L11.5255 22.8995ZM19.567 20.5788C21.0176 19.8834 22.5167 18.9298 23.5966 17.8386L22.1751 16.4318C21.3086 17.3073 20.025 18.1413 18.7025 18.7753L19.567 20.5788ZM23.6036 17.8314C23.5032 17.935 23.3795 18.0133 23.2427 18.0597L22.5998 16.1659C22.4362 16.2214 22.2883 16.315 22.1681 16.4389L23.6036 17.8314ZM23.2427 18.0597C23.106 18.1061 22.9602 18.1194 22.8174 18.0984L23.1085 16.1197C22.9377 16.0945 22.7633 16.1104 22.5998 16.1659L23.2427 18.0597ZM22.8174 18.0984C22.6746 18.0774 22.5388 18.0227 22.4212 17.9389L23.5823 16.3104C23.4417 16.2101 23.2793 16.1448 23.1085 16.1197L22.8174 18.0984ZM22.4212 17.9389C22.3037 17.8551 22.2077 17.7445 22.1413 17.6163L23.9171 16.6962C23.8377 16.5429 23.7229 16.4107 23.5823 16.3104L22.4212 17.9389ZM22.1403 17.6144C22.3032 17.9305 22.5115 18.3537 22.7056 18.7906L24.5334 17.9787C24.32 17.4984 24.0941 17.0396 23.9181 16.6981L22.1403 17.6144ZM22.7044 18.7878C22.7948 18.9931 22.9465 19.1656 23.1387 19.2815L24.1718 17.569C24.3324 17.6659 24.4591 17.8099 24.5346 17.9815L22.7044 18.7878ZM23.1387 19.2815C23.3309 19.3974 23.5541 19.4512 23.778 19.4355L23.6378 17.4404C23.8248 17.4273 24.0113 17.4722 24.1718 17.569L23.1387 19.2815ZM23.778 19.4355C24.0018 19.4197 24.2154 19.3353 24.3895 19.1936L23.127 17.6424C23.2724 17.5241 23.4508 17.4535 23.6378 17.4404L23.778 19.4355ZM24.3895 19.1936C24.5635 19.0519 24.6896 18.86 24.7505 18.644L22.8254 18.1016C22.8762 17.9212 22.9816 17.7608 23.127 17.6424L24.3895 19.1936ZM24.7516 18.6399C25.1374 17.2478 25.4856 15.3817 25.7179 13.8432L23.7404 13.5446C23.5131 15.0493 23.1791 16.8255 22.8243 18.1057L24.7516 18.6399ZM25.7182 13.8415C25.7472 13.6471 25.7231 13.4484 25.6484 13.2666L23.7985 14.0268C23.736 13.8749 23.7159 13.7088 23.7401 13.5463L25.7182 13.8415ZM25.6484 13.2666C25.5736 13.0848 25.4511 12.9266 25.2938 12.8087L24.0949 14.4096C23.9634 14.3111 23.861 14.1788 23.7985 14.0268L25.6484 13.2666ZM25.2938 12.8087C25.1364 12.6909 24.9501 12.6178 24.7546 12.5973L24.5456 14.5863C24.3821 14.5691 24.2264 14.5081 24.0949 14.4096L25.2938 12.8087ZM24.7546 12.5973C24.5591 12.5767 24.3617 12.6095 24.1833 12.692L25.0231 14.5071C24.874 14.5761 24.709 14.6035 24.5456 14.5863L24.7546 12.5973Z" fill="#4169E1" mask="url(#path-10-inside-3_4177_20860)"/>
<path d="M10.2704 25.0534L10.0712 25.1066L10.0707 25.1067C10.0514 25.1118 10.0215 25.1256 9.98016 25.1717C9.93623 25.2206 9.89043 25.2942 9.8466 25.3932L9.84558 25.3955L9.84557 25.3955C9.83858 25.4111 9.83532 25.4281 9.83604 25.4451L9.83663 25.4592L9.83643 25.4592C9.83653 25.4663 9.83858 25.4734 9.84235 25.4795C9.84613 25.4856 9.8515 25.4905 9.85787 25.4938L9.86627 25.4981L9.8745 25.5028C10.1278 25.6458 10.3492 25.7787 10.5572 25.9036L10.2704 25.0534ZM10.2704 25.0534C10.4462 25.1101 10.6239 25.1664 10.7959 25.2178C10.8442 25.5868 11.0754 25.8658 11.2335 26.03C11.2773 26.0756 11.3221 26.1194 11.3609 26.1574L11.3663 26.1628C11.4083 26.2039 11.4439 26.2389 11.4771 26.2736C11.5436 26.3433 11.5839 26.3952 11.6096 26.4417C11.6144 26.4504 11.6189 26.4603 11.6226 26.4707C11.5506 26.4593 11.4809 26.4355 11.4168 26.4003L11.4168 26.4003L11.4118 26.3976C11.1173 26.2401 10.8614 26.0864 10.5802 25.9174C10.5725 25.9129 10.5649 25.9083 10.5573 25.9037L10.2704 25.0534Z" stroke="#4169E1"/>
<path d="M16.191 23.686L16.2007 23.6856C16.4493 23.6741 16.6952 23.6761 16.9308 23.6811L16.191 23.686ZM16.191 23.686L16.1814 23.6868M16.191 23.686L16.1814 23.6868M16.1814 23.6868C16.1734 23.6875 16.1654 23.686 16.1582 23.6825C16.151 23.679 16.1449 23.6735 16.1405 23.6668L15.721 23.9389L16.1412 23.6679C16.1306 23.6514 16.1239 23.6327 16.1217 23.6133C16.1226 23.5286 16.1248 23.4622 16.1314 23.4038C16.1383 23.3423 16.1484 23.3066 16.1571 23.2861C16.1641 23.2696 16.1699 23.2631 16.1765 23.2574C16.1814 23.2532 16.1932 23.2441 16.2168 23.2332C16.2268 23.2335 16.2368 23.2339 16.247 23.2342C16.5433 23.2438 16.8858 23.2549 17.1971 23.2626C17.342 23.3537 17.5006 23.422 17.6671 23.4647C17.7251 23.4813 17.7827 23.4961 17.833 23.5091L17.8404 23.511C17.8973 23.5256 17.9456 23.5381 17.9917 23.5517C18.0842 23.5788 18.1451 23.6036 18.1905 23.631C18.1991 23.6362 18.2079 23.6425 18.2164 23.6497C18.148 23.6758 18.0755 23.69 18.0021 23.6917L18.0021 23.6917M16.1814 23.6868L18.0021 23.6917M18.0021 23.6917L17.9955 23.6919M18.0021 23.6917L17.9955 23.6919M17.9955 23.6919C17.7334 23.7013 17.4703 23.6945 17.1878 23.6873M17.9955 23.6919L17.1878 23.6873M17.1878 23.6873C17.104 23.6851 17.0185 23.6829 16.9308 23.6811L17.1878 23.6873Z" stroke="#4169E1"/>
<mask id="path-14-inside-4_4177_20860" fill="white">
<path d="M12.5249 17.1678C12.4773 17.1547 12.4309 17.1412 12.3858 17.1276C12.0869 17.0369 11.8044 16.9532 11.579 16.8735C11.5589 17.1658 11.5658 17.4358 11.533 17.8241C11.4898 18.2437 11.4229 18.6606 11.3327 19.0726C10.9662 20.822 10.4431 22.3623 9.85675 24.2442C9.85127 24.2623 9.84942 24.2813 9.85129 24.3002C9.85317 24.319 9.85874 24.3373 9.86768 24.354C9.87663 24.3706 9.88877 24.3854 9.90342 24.3974C9.91807 24.4094 9.93494 24.4183 9.95306 24.4238C10.408 24.5718 10.8959 24.7347 11.2977 24.8396C11.3288 24.8513 11.3619 24.857 11.3952 24.8564C11.4775 24.8457 11.5146 24.7516 11.5441 24.6743C12.5698 21.9751 13.3139 19.9746 13.6662 19.0849C14.1348 19.1326 14.9009 19.2074 15.2856 19.2783C15.5131 19.3202 15.6287 19.3617 15.7273 19.4828C15.8388 19.6208 15.8616 19.8281 15.8592 19.9872C15.8454 20.8812 15.8401 21.557 15.8176 22.5494C15.8161 22.5945 15.8327 22.6384 15.8635 22.6714C15.8944 22.7045 15.937 22.7239 15.9822 22.7256C16.3958 22.7385 16.9854 22.7591 17.4441 22.768C17.4887 22.7689 17.5319 22.7522 17.5643 22.7216C17.5967 22.6909 17.6157 22.6487 17.6172 22.6041C17.6467 21.7571 17.697 20.6347 17.696 19.8228C17.6954 19.3986 17.6762 19.1508 17.5718 18.7729C17.5067 18.5377 17.3053 18.3038 17.1248 18.1427C16.968 18.0137 16.7967 17.9034 16.6144 17.8139C15.9424 17.481 15.4183 17.4105 14.5939 17.0361C14.5192 17.1085 14.4321 17.1667 14.3367 17.208C13.8628 17.4371 13.1106 17.3293 12.5249 17.1678Z"/>
</mask>
<path d="M12.5249 17.1678L12.7907 16.2037L12.79 16.2035L12.5249 17.1678ZM12.3858 17.1276L12.0957 18.0845L12.0965 18.0848L12.3858 17.1276ZM11.579 16.8735L11.9123 15.9307L10.6716 15.4922L10.5814 16.8049L11.579 16.8735ZM11.533 17.8241L12.5278 17.9267L12.5287 17.9175L12.5295 17.9083L11.533 17.8241ZM11.3327 19.0726L10.3558 18.8587L10.3539 18.8676L11.3327 19.0726ZM9.85675 24.2442L8.90199 23.9467L8.89958 23.9547L9.85675 24.2442ZM9.95306 24.4238L10.2624 23.4728L10.252 23.4695L10.2416 23.4663L9.95306 24.4238ZM11.2977 24.8396L11.6507 23.904L11.6014 23.8854L11.5504 23.8721L11.2977 24.8396ZM11.3952 24.8564L11.4152 25.8562L11.4697 25.8551L11.5237 25.8481L11.3952 24.8564ZM11.5441 24.6743L12.4784 25.0307L12.4788 25.0295L11.5441 24.6743ZM13.6662 19.0849L13.7675 18.0901L13.015 18.0134L12.7365 18.7167L13.6662 19.0849ZM15.2856 19.2783L15.1043 20.2618L15.1046 20.2618L15.2856 19.2783ZM15.7273 19.4828L16.5049 18.854L16.5029 18.8517L15.7273 19.4828ZM15.8592 19.9872L14.8593 19.9717L14.8593 19.9718L15.8592 19.9872ZM15.8176 22.5494L16.8171 22.5807L16.8173 22.5721L15.8176 22.5494ZM15.9822 22.7256L15.9455 23.7249L15.951 23.7251L15.9822 22.7256ZM17.4441 22.768L17.4646 21.7682L17.4634 21.7682L17.4441 22.768ZM17.6172 22.6041L16.6178 22.5693L16.6178 22.5698L17.6172 22.6041ZM17.696 19.8228L18.696 19.8216V19.8215L17.696 19.8228ZM17.5718 18.7729L18.5357 18.5066L18.5356 18.5062L17.5718 18.7729ZM17.1248 18.1427L17.7908 17.3967L17.7757 17.3833L17.7601 17.3704L17.1248 18.1427ZM16.6144 17.8139L16.1705 18.71L16.1739 18.7116L16.6144 17.8139ZM14.5939 17.0361L15.0074 16.1256L14.3873 15.844L13.8981 16.3178L14.5939 17.0361ZM14.3367 17.208L13.9392 16.2904L13.9202 16.2986L13.9015 16.3077L14.3367 17.208ZM12.79 16.2035C12.7517 16.193 12.7134 16.1819 12.6752 16.1703L12.0965 18.0848C12.1484 18.1005 12.203 18.1164 12.2597 18.132L12.79 16.2035ZM12.676 16.1706C12.363 16.0757 12.1102 16.0007 11.9123 15.9307L11.2457 17.8164C11.4985 17.9057 11.8109 17.9982 12.0957 18.0845L12.676 16.1706ZM10.5814 16.8049C10.5697 16.9745 10.5658 17.14 10.5613 17.2808C10.5566 17.4274 10.5508 17.5717 10.5366 17.74L12.5295 17.9083C12.5481 17.6882 12.5552 17.5033 12.5603 17.3448C12.5655 17.1805 12.5682 17.0649 12.5767 16.9421L10.5814 16.8049ZM10.5383 17.7216C10.4989 18.1038 10.438 18.4834 10.3558 18.8588L12.3095 19.2865C12.4078 18.8377 12.4806 18.3837 12.5278 17.9267L10.5383 17.7216ZM10.3539 18.8676C10 20.5568 9.498 22.0339 8.90202 23.9467L10.8115 24.5417C11.3882 22.6907 11.9323 21.0873 12.3114 19.2777L10.3539 18.8676ZM8.89958 23.9547C8.85605 24.0986 8.84132 24.2497 8.85621 24.3992L10.8464 24.2011C10.8575 24.313 10.8465 24.4261 10.8139 24.5337L8.89958 23.9547ZM8.85621 24.3992C8.87111 24.5488 8.91535 24.694 8.98639 24.8265L10.749 23.8814C10.8021 23.9805 10.8352 24.0892 10.8464 24.2011L8.85621 24.3992ZM8.98639 24.8265C9.05743 24.959 9.1539 25.0762 9.27026 25.1714L10.5366 23.6234C10.6236 23.6946 10.6958 23.7823 10.749 23.8814L8.98639 24.8265ZM9.27026 25.1714C9.38662 25.2666 9.52061 25.3379 9.66455 25.3813L10.2416 23.4663C10.3493 23.4988 10.4495 23.5521 10.5366 23.6234L9.27026 25.1714ZM9.64376 25.3748C10.0815 25.5171 10.6068 25.6927 11.045 25.8071L11.5504 23.8721C11.1851 23.7766 10.7345 23.6264 10.2624 23.4728L9.64376 25.3748ZM10.9447 25.7752C11.0949 25.8319 11.2546 25.8594 11.4152 25.8562L11.3751 23.8566C11.4692 23.8547 11.5627 23.8708 11.6507 23.904L10.9447 25.7752ZM11.5237 25.8481C11.9624 25.7912 12.2117 25.508 12.3189 25.3489C12.4167 25.2037 12.4704 25.0517 12.4784 25.0307L10.6097 24.3179C10.5883 24.3741 10.6087 24.3079 10.66 24.2317C10.7206 24.1417 10.9103 23.9108 11.2667 23.8647L11.5237 25.8481ZM12.4788 25.0295C13.51 22.3161 14.2469 20.3346 14.596 19.4531L12.7365 18.7167C12.3809 19.6146 11.6296 21.6342 10.6093 24.3191L12.4788 25.0295ZM13.5649 20.0798C14.0611 20.1303 14.7709 20.2003 15.1043 20.2618L15.4669 18.2949C15.031 18.2145 14.2085 18.135 13.7675 18.0901L13.5649 20.0798ZM15.1046 20.2618C15.1496 20.2701 15.1722 20.2753 15.1824 20.278C15.1918 20.2805 15.1777 20.2775 15.151 20.2657C15.1216 20.2527 15.0828 20.2317 15.0417 20.2004C15.0007 20.1691 14.9709 20.1377 14.9517 20.114L16.5029 18.8517C16.165 18.4363 15.7349 18.3442 15.4666 18.2948L15.1046 20.2618ZM14.9497 20.1116C14.9112 20.064 14.889 20.0211 14.8768 19.9928C14.8647 19.9648 14.8601 19.9456 14.8588 19.9395C14.8569 19.9307 14.8598 19.9411 14.8593 19.9717L16.8591 20.0027C16.8621 19.804 16.8517 19.2829 16.5049 18.854L14.9497 20.1116ZM14.8593 19.9718C14.8454 20.8734 14.8403 21.5389 14.8178 22.5266L16.8173 22.5721C16.84 21.575 16.8454 20.889 16.8591 20.0027L14.8593 19.9718ZM14.818 22.518C14.8084 22.8274 14.9215 23.128 15.1328 23.3541L16.5942 21.9888C16.7438 22.1489 16.8239 22.3617 16.8171 22.5807L14.818 22.518ZM15.1328 23.3541C15.3441 23.5803 15.6363 23.7136 15.9455 23.7249L16.0188 21.7262C16.2378 21.7343 16.4446 21.8286 16.5942 21.9888L15.1328 23.3541ZM15.951 23.7251C16.3578 23.7378 16.9582 23.7588 17.4247 23.7678L17.4634 21.7682C17.0126 21.7595 16.4337 21.7392 16.0133 21.7261L15.951 23.7251ZM17.4235 23.7678C17.7309 23.7741 18.0284 23.6592 18.2517 23.4478L16.8768 21.9953C17.0353 21.8453 17.2465 21.7637 17.4646 21.7682L17.4235 23.7678ZM18.2517 23.4478C18.475 23.2364 18.6061 22.9457 18.6166 22.6384L16.6178 22.5698C16.6253 22.3517 16.7183 22.1454 16.8768 21.9953L18.2517 23.4478ZM18.6166 22.639C18.6455 21.8113 18.697 20.6574 18.696 19.8216L16.696 19.824C16.697 20.612 16.648 21.7029 16.6178 22.5693L18.6166 22.639ZM18.696 19.8215C18.6954 19.345 18.6722 19.0006 18.5357 18.5066L16.6079 19.0392C16.6802 19.3009 16.6955 19.4521 16.696 19.8241L18.696 19.8215ZM18.5356 18.5062C18.3916 17.9861 18.0101 17.5925 17.7908 17.3967L16.4589 18.8887C16.511 18.9352 16.5585 18.9859 16.5917 19.0302C16.6076 19.0514 16.6158 19.0652 16.6187 19.0706C16.6219 19.0766 16.6154 19.0661 16.6081 19.0397L18.5356 18.5062ZM17.7601 17.3704C17.5435 17.1922 17.3069 17.0398 17.055 16.9162L16.1739 18.7116C16.2866 18.7669 16.3926 18.8352 16.4896 18.915L17.7601 17.3704ZM17.0584 16.9178C16.6537 16.7173 16.2951 16.5977 15.9775 16.4919C15.6585 16.3855 15.3666 16.2888 15.0074 16.1256L14.1804 17.9466C14.6456 18.1579 15.028 18.2835 15.3451 18.3893C15.6637 18.4954 15.9032 18.5775 16.1705 18.71L17.0584 16.9178ZM13.8981 16.3178C13.9101 16.3063 13.924 16.297 13.9392 16.2904L14.7341 18.1256C14.9402 18.0364 15.1284 17.9106 15.2896 17.7544L13.8981 16.3178ZM13.9015 16.3077C13.9015 16.3077 13.8735 16.3205 13.8034 16.3299C13.7345 16.3391 13.6434 16.3425 13.5304 16.336C13.3013 16.3228 13.0394 16.2723 12.7907 16.2037L12.259 18.1318C12.5961 18.2247 13.0032 18.3089 13.4151 18.3327C13.808 18.3554 14.3128 18.3302 14.7718 18.1084L13.9015 16.3077Z" fill="#4169E1" mask="url(#path-14-inside-4_4177_20860)"/>
<path d="M14.9249 8.27567C14.9564 8.35052 14.9623 8.53031 14.8248 8.56114C14.6406 8.58068 14.6059 8.36643 14.6561 8.25823C14.6972 8.16963 14.8424 8.11839 14.9249 8.27567Z" fill="#4169E1"/>
<path d="M15.3096 9.16847C15.2547 9.16834 15.1999 9.16503 15.1454 9.15855L15.1781 9.16299C15.1371 9.1575 15.0967 9.14806 15.0575 9.13481C15.0338 9.12829 15.0088 9.12897 14.9855 9.13676C14.9623 9.14455 14.9419 9.15909 14.9269 9.17854C14.912 9.19799 14.9032 9.22145 14.9016 9.24592C14.9001 9.2704 14.9059 9.29478 14.9182 9.31595C14.9354 9.34298 14.9617 9.36306 14.9922 9.37261C15.0953 9.40334 15.2025 9.41767 15.31 9.41509C15.3426 9.41472 15.3739 9.40178 15.3972 9.37896C15.4144 9.36172 15.4262 9.33975 15.4309 9.31583C15.4357 9.29192 15.4332 9.26713 15.4239 9.2446C15.4146 9.22207 15.3988 9.20281 15.3785 9.18926C15.3582 9.17571 15.3344 9.16848 15.31 9.16847H15.3096Z" fill="#4169E1"/>
<path d="M12.8418 10.5613L12.8374 10.5676L12.6213 10.8728C12.5421 11.0021 12.4351 11.1445 12.3523 11.2548C12.3158 11.3034 12.284 11.3457 12.2613 11.378L12.2142 11.4449L12.1483 11.4933L12.1345 11.5034C12.0718 11.5644 12.0117 11.6216 11.9543 11.6764C11.6215 11.9935 11.3747 12.2287 11.1852 12.6548L11.1851 12.6549C11.1092 12.8256 11.1083 12.9361 11.1619 13.219C11.2378 13.6023 11.3336 13.9813 11.4486 14.3546C11.4809 14.3425 11.513 14.3297 11.5448 14.3163L12.4504 13.9336L12.2262 14.8908C12.1736 15.1156 12.0889 15.3399 12.0087 15.5525C11.9781 15.6335 11.9482 15.7128 11.9209 15.7897L11.9209 15.7898L11.7083 16.3893C11.893 16.4561 12.1468 16.533 12.4559 16.6266C12.4805 16.634 12.5055 16.6416 12.5309 16.6493L12.5309 16.6493C12.8086 16.7335 13.1319 16.8062 13.4348 16.8308C13.7496 16.8564 13.9813 16.8247 14.1192 16.7581L14.3367 17.2083L14.1192 16.7581C14.1736 16.7318 14.2024 16.7139 14.218 16.7026C14.2308 16.6935 14.2343 16.6891 14.2357 16.6873L14.2358 16.6871C14.2448 16.6757 14.2656 16.6439 14.3212 16.4912L14.7911 16.6621L14.3211 16.4915C14.3567 16.3935 14.3826 16.2923 14.3986 16.1893C14.4773 15.6528 14.5264 15.2779 14.5839 14.8379C14.5938 14.7623 14.6039 14.6847 14.6145 14.6041L14.7019 13.939L15.3143 14.2128C15.4384 14.2682 15.5701 14.3046 15.7051 14.3207L15.7093 14.3212C15.7869 14.3312 15.9106 14.3142 16.0608 14.2501C16.2076 14.1874 16.3385 14.097 16.4227 14.0131L16.4228 14.0129C16.651 13.7856 16.7832 13.6329 16.879 13.4931C16.9281 13.4214 16.9707 13.3485 17.0127 13.2641C16.9308 13.2066 16.841 13.1438 16.7519 13.0822C16.7078 13.0517 16.6657 13.0228 16.6259 12.9957C16.5841 13.0605 16.5314 13.1368 16.4782 13.1962C16.3429 13.3473 16.1198 13.5051 15.7999 13.4837L15.7998 13.4836C15.4928 13.463 15.2866 13.2585 15.1868 13.1459C15.0876 13.0339 14.9986 12.8996 14.9382 12.8086C14.9306 12.797 14.9234 12.7862 14.9167 12.7762L14.9115 12.7683L14.9066 12.7603C14.7293 12.4718 14.6763 12.3839 14.4966 12.074L14.4897 12.0621L14.4898 12.062C14.424 11.9408 14.3387 11.8312 14.2375 11.7375C14.2344 11.7348 14.2318 11.7327 14.2274 11.729C14.2225 11.7251 14.2154 11.7193 14.2031 11.709C14.1831 11.6924 14.15 11.6643 14.1156 11.6284C14.1116 11.6242 14.1077 11.6202 14.1038 11.6161C14.0915 11.6033 14.0794 11.5908 14.0669 11.5779L14.0652 11.5761L14.0652 11.5761C13.9559 11.4626 13.8697 11.329 13.8114 11.1826L13.8075 11.1727L13.804 11.1628C13.8027 11.159 13.8013 11.1552 13.7997 11.1515C13.6408 10.9739 13.4236 10.8342 13.1722 10.7095L12.8418 10.5613ZM12.8418 10.5613C12.8496 10.5646 12.8573 10.5678 12.8649 10.571C12.9684 10.6147 13.0652 10.6565 13.1722 10.7095L12.8418 10.5613ZM11.2549 16.7399C11.4665 16.8498 11.8475 16.965 12.2736 17.0938C12.3107 17.105 12.3481 17.1164 12.3859 17.1278L11.2549 16.7399ZM11.2549 16.7399C11.1992 16.7157 11.1554 16.6703 11.1332 16.6137C11.1234 16.5607 11.1306 16.506 11.1537 16.4574M11.2549 16.7399L11.1537 16.4574M11.1537 16.4574L11.4496 15.6227M11.1537 16.4574L11.4496 15.6227M11.4496 15.6227C11.4806 15.5355 11.511 15.4543 11.5402 15.3768M11.4496 15.6227L11.5402 15.3768M11.5402 15.3768C11.6741 15.3382 11.8056 15.2917 11.934 15.2374L11.7394 14.7768M11.5402 15.3768L11.7394 14.7768M11.7394 14.7768L11.447 14.7084L11.7394 14.7768ZM11.0785 14.8339L11.2203 14.7845C11.2204 14.7841 11.2205 14.7838 11.2207 14.7834L10.671 13.3141C10.773 13.8292 10.9092 14.3369 11.0785 14.8339ZM11.0785 14.8339C11.0909 14.8694 11.1157 14.8991 11.1484 14.9176C11.1563 14.9221 11.1646 14.9259 11.1731 14.9289C11.1889 14.8842 11.2033 14.8409 11.2165 14.7972C11.2165 14.7972 11.2165 14.7972 11.2165 14.7972C11.2177 14.7934 11.2188 14.7896 11.22 14.7857L11.0785 14.8339ZM11.4419 14.7072L11.2879 14.6711L11.2526 14.6628C11.2435 14.7016 11.2337 14.7388 11.223 14.7754L11.1543 14.4449C11.2363 14.4278 11.3218 14.4412 11.3947 14.4825C11.4676 14.5237 11.523 14.5901 11.5506 14.6692L11.4419 14.7072Z" stroke="#4169E1"/>
<mask id="path-19-inside-5_4177_20860" fill="white">
<path d="M13.8172 11.2853C13.6196 11.3221 13.4352 11.4102 13.2824 11.5409C13.1274 11.6791 13.0043 11.8494 12.9218 12.04C12.9063 12.0684 12.9022 12.1018 12.9104 12.1331C12.9186 12.1645 12.9385 12.1916 12.966 12.2087C12.9943 12.225 13.0279 12.2294 13.0595 12.2212C13.091 12.2129 13.1181 12.1925 13.1348 12.1645C13.205 11.9965 13.3115 11.8461 13.4466 11.7242C13.475 11.6982 13.5056 11.6746 13.538 11.6538C13.5736 11.6302 13.6109 11.6093 13.6495 11.5913C13.6519 11.5901 13.6799 11.5781 13.6676 11.5832C13.6553 11.5882 13.6838 11.577 13.6861 11.5762C13.7052 11.5692 13.7244 11.5628 13.7438 11.557C13.7894 11.5432 13.8359 11.5323 13.8826 11.5231C13.914 11.5142 13.9406 11.4933 13.9568 11.4649C13.9729 11.4366 13.9773 11.403 13.9689 11.3715C13.9597 11.3402 13.9388 11.3138 13.9105 11.2977C13.8822 11.2816 13.8488 11.2771 13.8172 11.2851L13.8172 11.2853Z"/>
</mask>
<path d="M13.8172 11.2853L14.0001 12.2685L14.5795 12.1607L14.7659 11.6016L13.8172 11.2853ZM13.2824 11.5409L12.6323 10.781L12.6246 10.7876L12.6171 10.7944L13.2824 11.5409ZM12.9218 12.04L13.7993 12.5197L13.8213 12.4794L13.8395 12.4373L12.9218 12.04ZM12.966 12.2087L12.4365 13.057L12.4523 13.0669L12.4684 13.0761L12.966 12.2087ZM13.1348 12.1645L13.9941 12.6759L14.0302 12.6152L14.0574 12.5501L13.1348 12.1645ZM13.4466 11.7242L14.1166 12.4666L14.1223 12.4614L13.4466 11.7242ZM13.538 11.6538L14.0779 12.4956L14.0843 12.4915L14.0906 12.4873L13.538 11.6538ZM13.6495 11.5913L13.2305 10.6833L13.2262 10.6853L13.6495 11.5913ZM13.6861 11.5762L14.0098 12.5224L14.0209 12.5186L14.0319 12.5145L13.6861 11.5762ZM13.7438 11.557L14.03 12.5151L14.0335 12.5141L13.7438 11.557ZM13.8826 11.5231L14.0757 12.5043L14.1164 12.4963L14.1562 12.485L13.8826 11.5231ZM13.9689 11.3715L14.9356 11.1155L14.932 11.102L14.9281 11.0886L13.9689 11.3715ZM13.8172 11.2851L13.5705 10.316L13.0413 10.4508L12.8686 10.9689L13.8172 11.2851ZM13.6343 10.3022C13.264 10.3711 12.9185 10.5362 12.6323 10.781L13.9325 12.3007C13.9518 12.2842 13.9751 12.2731 14.0001 12.2685L13.6343 10.3022ZM12.6171 10.7944C12.3536 11.0292 12.1444 11.3187 12.0041 11.6427L13.8395 12.4373C13.8643 12.38 13.9012 12.3289 13.9478 12.2874L12.6171 10.7944ZM12.0444 11.5603C11.9064 11.8127 11.8701 12.1083 11.943 12.3866L13.8778 11.8797C13.9342 12.0952 13.9061 12.3242 13.7993 12.5197L12.0444 11.5603ZM11.943 12.3866C12.0159 12.6648 12.1925 12.9047 12.4365 13.057L13.4956 11.3604C13.6846 11.4784 13.8213 11.6642 13.8778 11.8797L11.943 12.3866ZM12.4684 13.0761C12.7244 13.223 13.0278 13.2633 13.3132 13.1884L12.8057 11.2539C13.028 11.1956 13.2643 11.227 13.4637 11.3413L12.4684 13.0761ZM13.3132 13.1884C13.5986 13.1135 13.8432 12.9295 13.9941 12.6759L12.2754 11.653C12.393 11.4556 12.5834 11.3122 12.8057 11.2539L13.3132 13.1884ZM14.0574 12.5501C14.0707 12.5182 14.0909 12.4897 14.1166 12.4666L12.7767 10.9818C12.532 11.2026 12.3392 11.4748 12.2121 11.7788L14.0574 12.5501ZM14.1223 12.4614C14.1085 12.474 14.0937 12.4855 14.0779 12.4956L12.9981 10.8121C12.9175 10.8638 12.8415 10.9223 12.7709 10.987L14.1223 12.4614ZM14.0906 12.4873C14.085 12.491 14.079 12.4943 14.0729 12.4972L13.2262 10.6853C13.1427 10.7243 13.0622 10.7695 12.9854 10.8204L14.0906 12.4873ZM14.0686 12.4992C14.0572 12.5045 14.0421 12.511 14.0641 12.5014C14.066 12.5006 14.0689 12.4993 14.0719 12.498C14.0734 12.4973 14.0758 12.4963 14.0785 12.4951C14.0803 12.4943 14.0862 12.4916 14.0936 12.4881C14.0966 12.4867 14.1058 12.4825 14.1173 12.4767C14.1225 12.4741 14.1349 12.4679 14.1503 12.4594C14.158 12.4552 14.1716 12.4477 14.1881 12.4377C14.1995 12.4308 14.2369 12.4081 14.2813 12.3739C14.3017 12.3582 14.3493 12.3205 14.402 12.264C14.42 12.2447 14.6004 12.0629 14.655 11.7585C14.6706 11.5946 14.6103 11.2397 14.5251 11.0623C14.42 10.9197 14.185 10.7243 14.0701 10.6652C13.8583 10.5729 13.6719 10.5815 13.6421 10.5824C13.5345 10.5854 13.4512 10.6063 13.442 10.6084C13.4147 10.6149 13.3934 10.6211 13.3831 10.6242C13.3485 10.6346 13.321 10.6451 13.321 10.6451C13.3084 10.6498 13.2983 10.6539 13.2969 10.6544C13.2933 10.6559 13.2902 10.6571 13.2883 10.6579L14.047 12.5084C14.0465 12.5086 14.0447 12.5094 14.042 12.5104C14.0416 12.5106 14.0321 12.5144 14.02 12.519C14.0163 12.5203 14.01 12.5227 14.0021 12.5254C13.9962 12.5275 13.9797 12.5333 13.9583 12.5397C13.948 12.5428 13.9267 12.549 13.8994 12.5554C13.8902 12.5576 13.807 12.5785 13.6994 12.5815C13.6695 12.5824 13.4832 12.591 13.2713 12.4987C13.1564 12.4395 12.9214 12.2442 12.8163 12.1015C12.7311 11.9242 12.6708 11.5693 12.6864 11.4054C12.741 11.1009 12.9214 10.9192 12.9394 10.8999C12.9921 10.8434 13.0398 10.8057 13.0602 10.79C13.1045 10.7558 13.1419 10.7331 13.1533 10.7262C13.1698 10.7162 13.1834 10.7087 13.191 10.7045C13.2064 10.6961 13.2187 10.6899 13.2239 10.6873C13.2353 10.6817 13.2442 10.6775 13.247 10.6762C13.2606 10.6698 13.2729 10.6646 13.2641 10.6684C13.2621 10.6693 13.2602 10.6701 13.2564 10.6717C13.255 10.6724 13.2528 10.6733 13.2506 10.6742C13.2496 10.6747 13.2478 10.6755 13.2457 10.6764C13.2454 10.6765 13.2386 10.6795 13.2305 10.6833L14.0686 12.4992ZM13.2883 10.6579C13.2865 10.6586 13.2838 10.6598 13.2807 10.6611C13.2795 10.6615 13.2708 10.6651 13.2603 10.6698C13.2571 10.6712 13.2517 10.6736 13.245 10.6767C13.2402 10.679 13.226 10.6855 13.2082 10.6946C13.1999 10.6989 13.1818 10.7083 13.1595 10.7214C13.1558 10.7235 13.0792 10.7664 12.998 10.839C12.9922 10.8442 12.802 10.9994 12.7123 11.2791C12.6734 11.4517 12.7019 11.8552 12.789 12.0677C12.9075 12.2379 13.1753 12.4567 13.3017 12.5164C13.5149 12.5993 13.7006 12.584 13.7173 12.5831C13.7742 12.5801 13.8185 12.5728 13.8383 12.5693C13.8807 12.5618 13.9132 12.5531 13.9238 12.5503C13.9386 12.5463 13.9504 12.5428 13.9572 12.5407C13.9708 12.5365 13.9814 12.533 13.986 12.5314C13.9961 12.528 14.0039 12.5252 14.0065 12.5242C14.0164 12.5206 14.0252 12.5172 14.0253 12.5172C14.028 12.5161 14.0306 12.5151 14.0324 12.5144C14.0621 12.5029 14.0337 12.5142 14.0098 12.5224L13.3624 10.63C13.353 10.6333 13.3456 10.6359 13.3431 10.6369C13.3397 10.6381 13.3369 10.6392 13.3352 10.6398C13.3318 10.6411 13.329 10.6421 13.3275 10.6427C13.3244 10.6439 13.3215 10.645 13.3198 10.6457C13.3178 10.6464 13.3158 10.6472 13.3143 10.6478C13.3126 10.6485 13.3114 10.6489 13.3103 10.6493C13.3021 10.6525 13.312 10.6486 13.3234 10.6445C13.3258 10.6436 13.3334 10.6408 13.3433 10.6375C13.3478 10.6359 13.3584 10.6324 13.3719 10.6282C13.3787 10.6262 13.3905 10.6226 13.4053 10.6187C13.4159 10.6158 13.4484 10.6072 13.4907 10.5997C13.5105 10.5962 13.5548 10.5889 13.6117 10.5859C13.6284 10.585 13.8141 10.5696 14.0273 10.6526C14.1537 10.7123 14.4216 10.9311 14.54 11.1012C14.6272 11.3137 14.6557 11.7173 14.6167 11.8899C14.5271 12.1695 14.3369 12.3248 14.331 12.33C14.2499 12.4025 14.1732 12.4454 14.1696 12.4476C14.1473 12.4606 14.1292 12.47 14.1209 12.4743C14.1032 12.4834 14.089 12.4899 14.0842 12.4921C14.0777 12.4952 14.0724 12.4975 14.0693 12.4989C14.0591 12.5034 14.0511 12.5067 14.0508 12.5068C14.0486 12.5077 14.0472 12.5083 14.047 12.5084L13.2883 10.6579ZM14.0319 12.5145C14.0314 12.5147 14.0308 12.5149 14.03 12.5151L13.4576 10.5988C13.418 10.6106 13.3789 10.6237 13.3403 10.6379L14.0319 12.5145ZM14.0335 12.5141C14.0386 12.5125 14.0512 12.5091 14.0757 12.5043L13.6895 10.542C13.6206 10.5555 13.5402 10.5738 13.4541 10.5999L14.0335 12.5141ZM14.1562 12.485C14.4397 12.4043 14.6801 12.2157 14.8259 11.9596L13.0876 10.9703C13.2011 10.7709 13.3883 10.6241 13.609 10.5613L14.1562 12.485ZM14.8259 11.9596C14.9716 11.7034 15.011 11.4003 14.9356 11.1155L13.0022 11.6274C12.9435 11.4057 12.9742 11.1697 13.0876 10.9703L14.8259 11.9596ZM14.9281 11.0886C14.8457 10.8093 14.6583 10.5727 14.4051 10.4286L13.4159 12.1668C13.2193 12.0549 13.0737 11.8712 13.0097 11.6543L14.9281 11.0886ZM14.4051 10.4286C14.1519 10.2845 13.8528 10.2442 13.5705 10.316L14.0639 12.2542C13.8447 12.31 13.6125 12.2787 13.4159 12.1668L14.4051 10.4286ZM12.8686 10.9689L12.8685 10.9691L14.7659 11.6016L14.7659 11.6014L12.8686 10.9689Z" fill="#4169E1" mask="url(#path-19-inside-5_4177_20860)"/>
</g>
<defs>
<clipPath id="clip0_4177_20860">
<rect width="24" height="24" fill="white" transform="translate(6 6.00098)"/>
</clipPath>
</defs>
</svg>
