<svg width="36" height="37" viewBox="0 0 36 37" fill="none" xmlns="http://www.w3.org/2000/svg">
<rect y="0.291992" width="36" height="36" rx="5" fill="#ECF0FC"/>
<g clip-path="url(#clip0_4177_18273)">
<path d="M11.6255 14.8209C11.5054 14.8679 11.382 14.9057 11.2562 14.934C11.2525 14.9348 11.2488 14.9354 11.2451 14.9359C11.271 15.0953 11.3138 15.2516 11.3727 15.4019C11.3995 15.4608 11.4315 15.5172 11.4681 15.5706C11.5773 15.2685 11.6784 15.0368 11.7393 14.7764C11.7048 14.7901 11.6666 14.8051 11.6255 14.8209Z" fill="#4169E1"/>
<path d="M28.1068 22.0342V29.3781H7.87695V27.535H12.8675H14.4673H14.9673V27.035V27.0301V27.0253V27.0204V27.0155V27.0106V27.0057V27.0008V26.9958V26.9909V26.986V26.9811V26.9762V26.9713V26.9664V26.9614V26.9565V26.9516V26.9466V26.9417V26.9368V26.9318V26.9269V26.9219V26.917V26.9121V26.9071V26.9021V26.8972V26.8922V26.8873V26.8823V26.8773V26.8724V26.8674V26.8624V26.8575V26.8525V26.8475V26.8425V26.8375V26.8326V26.8276V26.8226V26.8176V26.8126V26.8076V26.8026V26.7976V26.7926V26.7876V26.7826V26.7776V26.7726V26.7676V26.7625V26.7575V26.7525V26.7475V26.7424V26.7374V26.7324V26.7274V26.7223V26.7173V26.7122V26.7072V26.7022V26.6971V26.6921V26.687V26.682V26.6769V26.6719V26.6668V26.6617V26.6567V26.6516V26.6465V26.6415V26.6364V26.6313V26.6263V26.6212V26.6161V26.611V26.6059V26.6009V26.5958V26.5907V26.5856V26.5805V26.5754V26.5703V26.5652V26.5601V26.555V26.5499V26.5448V26.5397V26.5346V26.5295V26.5243V26.5192V26.5141V26.509V26.5039V26.4987V26.4936V26.4885V26.4833V26.4782V26.4731V26.4679V26.4628V26.4577V26.4525V26.4474V26.4422V26.4371V26.4319V26.4268V26.4216V26.4165V26.4113V26.4061V26.401V26.3958V26.3907V26.3855V26.3803V26.3751V26.37V26.3648V26.3596V26.3544V26.3493V26.3441V26.3389V26.3337V26.3285V26.3233V26.3181V26.313V26.3078V26.3026V26.2974V26.2922V26.287V26.2818V26.2766V26.2713V26.2661V26.2609V26.2557V26.2505V26.2453V26.2401V26.2349V26.2296V26.2244V26.2192V26.214V26.2087V26.2035V26.1983V26.193V26.1878V26.1826V26.1773V26.1721V26.1669V26.1616V26.1564V26.1511V26.1459V26.1406V26.1354V26.1301V26.1249V26.1196V26.1144V26.1091V26.1038V26.0986V26.0933V26.088V26.0828V26.0775V26.0722V26.067V26.0617V26.0564V26.0511V26.0459V26.0406V26.0353V26.03V26.0247V26.0195V26.0142V26.0089V26.0036V25.9983V25.993V25.9877V25.9824V25.9771V25.9718V25.9665V25.9612V25.9559V25.9506V25.9453V25.94V25.9347V25.9294V25.9241V25.9187V25.9134V25.9081V25.9028V25.8975V25.8922V25.8868V25.8815V25.8762V25.8709V25.8655V25.8602V25.8549V25.8495V25.8442V25.8389V25.8335V25.8282V25.8229V25.8175V25.8122V25.8069V25.8015V25.7962V25.7908V25.7855V25.7801V25.7748V25.7694V25.7641V25.7587V25.7534V25.748V25.7426V25.7373V25.7319V25.7266V25.7212V25.7158V25.7105V25.7051V25.6997V25.6944V25.689V25.6836V25.6783V25.6729V25.6675V25.6621V25.6568V25.6514V25.646V25.6406V25.6352V25.6298V25.6245V25.6191V25.6137V25.6083V25.6029V25.5975V25.5921V25.5867V25.5813V25.576V25.5706V25.5652V25.5598V25.5544V25.549V25.5436V25.5382V25.5328V25.5274V25.5219V25.5165V25.5111V25.5057V25.5003V25.4949V25.4895V25.4841V25.4787V25.4733V25.4678V25.4624V25.457V25.4516V25.4462V25.4407V25.4353V25.4299V25.4245V25.419V25.4136V25.4082V25.4028V25.3973V25.3919V25.3865V25.381V25.3756V25.3702V25.3647V25.3593V25.3539V25.3484V25.343V25.3376V25.3321V25.3267V25.3212V25.3158V25.3104V25.3049V25.2995V25.294V25.2886V25.2831V25.2777V25.2722V25.2668V25.2613V25.2559V25.2504V25.245V25.2395V25.2341V25.2286V25.2231V25.2177V25.2122V25.2068V25.2013V25.1958V25.1904V25.1849V25.1795V25.174V25.1685V25.1631V25.1576V25.1521V25.1467V25.1412V25.1357V25.1303V25.1248V25.1193V25.1138V25.1084V25.1029V25.0974V25.0919V25.0865V25.081V25.0755V25.07V25.0646V25.0591V25.0536V25.0481V25.0426V25.0372V25.0317V25.0262V25.0207V25.0152V25.0097V25.0043V24.9988V24.9933V24.9878V24.9823V24.9768V24.9713V24.9659V24.9604V24.9549V24.9494V24.9439V24.9384V24.9329V24.9274V24.9219V24.9164V24.9109V24.9054V24.8999V24.8944V24.8889V24.8834V24.878V24.8725V24.867V24.8615V24.856V24.8505V24.845V24.8395V24.834V24.8284V24.8229V24.8174V24.8154H21.5576H22.0576V24.3154V24.3068V24.2981V24.2895V24.2808V24.2722V24.2636V24.2549V24.2463V24.2377V24.2291V24.2205V24.2118V24.2032V24.1946V24.186V24.1775V24.1689V24.1603V24.1517V24.1431V24.1346V24.126V24.1175V24.1089V24.1004V24.0918V24.0833V24.0748V24.0662V24.0577V24.0492V24.0407V24.0322V24.0237V24.0152V24.0067V23.9983V23.9898V23.9813V23.9729V23.9644V23.956V23.9475V23.9391V23.9306V23.9222V23.9138V23.9054V23.897V23.8886V23.8802V23.8718V23.8634V23.8551V23.8467V23.8383V23.83V23.8216V23.8133V23.805V23.7966V23.7883V23.78V23.7717V23.7634V23.7551V23.7468V23.7386V23.7303V23.722V23.7138V23.7055V23.6973V23.6891V23.6809V23.6726V23.6644V23.6562V23.6481V23.6399V23.6317V23.6235V23.6154V23.6072V23.5991V23.591V23.5828V23.5747V23.5666V23.5585V23.5504V23.5423V23.5343V23.5262V23.5181V23.5101V23.5021V23.494V23.486V23.478V23.47V23.462V23.454V23.446V23.4381V23.4301V23.4222V23.4142V23.4063V23.3984V23.3905V23.3826V23.3747V23.3668V23.3589V23.3511V23.3432V23.3354V23.3275V23.3197V23.3119V23.3041V23.2963V23.2885V23.2808V23.273V23.2653V23.2575V23.2498V23.2421V23.2344V23.2267V23.219V23.2113V23.2036V23.196V23.1883V23.1807V23.1731V23.1655V23.1579V23.1503V23.1427V23.1351V23.1276V23.12V23.1125V23.105V23.0975V23.09V23.0825V23.075V23.0676V23.0601V23.0527V23.0452V23.0378V23.0304V23.023V23.0156V23.0083V23.0009V22.9936V22.9862V22.9789V22.9716V22.9643V22.957V22.9498V22.9425V22.9353V22.928V22.9208V22.9136V22.9064V22.8992V22.8921V22.8849V22.8778V22.8706V22.8635V22.8564V22.8493V22.8422V22.8352V22.8281V22.8211V22.8141V22.8071V22.8001V22.7931V22.7861V22.7792V22.7722V22.7653V22.7584V22.7515V22.7446V22.7377V22.7309V22.724V22.7172V22.7104V22.7036V22.6968V22.69V22.6832V22.6765V22.6698V22.663V22.6563V22.6497V22.643V22.6363V22.6297V22.6231V22.6165V22.6099V22.6033V22.5967V22.5902V22.5836V22.5771V22.5706V22.5641V22.5576V22.5512V22.5447V22.5383V22.5319V22.5255V22.5191V22.5127V22.5064V22.5V22.4937V22.4874V22.4811V22.4748V22.4686V22.4624V22.4561V22.4499V22.4437V22.4376V22.4314V22.4253V22.4191V22.413V22.4069V22.4009V22.3948V22.3887V22.3827V22.3767V22.3707V22.3647V22.3588V22.3528V22.3469V22.341V22.3351V22.3293V22.3234V22.3176V22.3117V22.3059V22.3001V22.2944V22.2886V22.2829V22.2772V22.2715V22.2658V22.2601V22.2545V22.2489V22.2433V22.2377V22.2321V22.2265V22.221V22.2155V22.21V22.2045V22.199V22.1936V22.1882V22.1828V22.1774V22.172V22.1667V22.1613V22.156V22.1507V22.1454V22.1402V22.1349V22.1297V22.1245V22.1193V22.1142V22.109V22.1039V22.0988V22.0937V22.0887V22.0836V22.0786V22.0736V22.0686V22.0636V22.0587V22.0537V22.0488V22.0439V22.0391V22.0342V22.0342H28.1068Z" stroke="#4169E1"/>
<mask id="path-4-inside-1_4177_18273" fill="white">
<path d="M15.1233 7.52906C15.1484 7.65967 15.1592 7.79266 15.1554 7.92562C15.1686 8.17058 15.1862 8.51036 15.413 8.62639C15.4588 8.64771 15.4963 8.68361 15.5196 8.72849C15.5762 8.84915 15.4724 8.90643 15.4086 8.97826C15.3688 9.02451 15.3408 9.07979 15.3272 9.1393C15.3225 9.25832 15.3086 9.3768 15.2858 9.49369C15.2713 9.57606 15.2465 9.65626 15.2118 9.73236C15.1626 9.84321 15.0723 9.93063 14.9599 9.9762C14.7684 10.0515 14.56 10.0729 14.3571 10.0382C14.3379 10.0336 14.3176 10.0362 14.3001 10.0455C14.2826 10.0547 14.2691 10.07 14.2621 10.0885C14.2405 10.176 14.2136 10.2622 14.1816 10.3464L14.0902 10.5733L14.044 10.688C13.8485 10.516 13.6299 10.3722 13.3945 10.261C13.1522 10.1408 12.9614 10.0745 12.7383 9.97035C12.7311 9.96702 12.7237 9.96422 12.7161 9.96196C12.6726 9.75893 12.474 9.6051 12.2386 9.36866C12.0515 9.18079 11.8264 8.83041 11.7519 8.58329C11.6655 8.30414 11.6432 8.0091 11.6866 7.72013C11.7337 7.4375 11.8552 7.13545 12.0911 6.93828L12.3939 6.61915C12.6105 6.36908 13.0197 6.17869 13.378 6.13565C13.7023 6.09326 14.0317 6.15064 14.3226 6.30015C14.6631 6.47735 15.0648 6.8413 15.1302 7.55964"/>
</mask>
<path d="M15.1554 7.92562L14.1558 7.89686L14.1546 7.93815L14.1568 7.97941L15.1554 7.92562ZM15.413 8.62639L14.9575 9.51662L14.9743 9.52522L14.9914 9.53317L15.413 8.62639ZM15.5196 8.72849L16.4249 8.30381L16.4165 8.28583L16.4073 8.26819L15.5196 8.72849ZM15.4086 8.97826L14.6607 8.31445L14.6558 8.32L14.6509 8.32563L15.4086 8.97826ZM15.3272 9.1393L14.3525 8.91579L14.3316 9.00671L14.3279 9.09991L15.3272 9.1393ZM15.2858 9.49369L14.3044 9.30186L14.3025 9.31139L14.3008 9.32095L15.2858 9.49369ZM15.2118 9.73236L14.3018 9.31766L14.2978 9.32659L15.2118 9.73236ZM14.9599 9.9762L15.3258 10.9069L15.3357 10.9029L14.9599 9.9762ZM14.3571 10.0382L14.1254 11.011L14.1567 11.0185L14.1885 11.0239L14.3571 10.0382ZM14.2621 10.0885L13.3274 9.73301L13.3058 9.78984L13.2912 9.84888L14.2621 10.0885ZM14.1816 10.3464L15.1091 10.7202L15.1129 10.7108L15.1165 10.7013L14.1816 10.3464ZM14.0902 10.5733L13.1627 10.1996L13.1626 10.1998L14.0902 10.5733ZM14.044 10.688L13.3834 11.4387L14.4439 12.372L14.9716 11.0616L14.044 10.688ZM13.3945 10.261L12.9502 11.1569L12.9586 11.1611L12.9672 11.1651L13.3945 10.261ZM12.7383 9.97035L13.1615 9.06431L13.1581 9.06273L12.7383 9.97035ZM12.7161 9.96196L11.7384 10.1716L11.8627 10.7514L12.431 10.9204L12.7161 9.96196ZM12.2386 9.36866L12.9472 8.66312L12.9472 8.66306L12.2386 9.36866ZM11.7519 8.58329L12.7094 8.29471L12.7072 8.28772L11.7519 8.58329ZM11.6866 7.72013L10.7002 7.55573L10.6988 7.56373L10.6976 7.57176L11.6866 7.72013ZM12.0911 6.93828L12.7325 7.70546L12.7768 7.66844L12.8165 7.62657L12.0911 6.93828ZM12.3939 6.61915L13.1193 7.30745L13.1349 7.29104L13.1497 7.27395L12.3939 6.61915ZM13.378 6.13565L13.4972 7.12857L13.5076 7.12722L13.378 6.13565ZM14.3226 6.30015L14.7841 5.41302L14.7798 5.41079L14.3226 6.30015ZM14.1413 7.71833C14.1527 7.77713 14.1575 7.837 14.1558 7.89686L16.155 7.95439C16.1609 7.74832 16.1442 7.54222 16.1052 7.33979L14.1413 7.71833ZM14.1568 7.97941C14.1623 8.08084 14.172 8.33299 14.2373 8.58006C14.3017 8.82355 14.4736 9.26902 14.9575 9.51662L15.8685 7.73617C15.9917 7.79921 16.0721 7.88762 16.1177 7.95798C16.1589 8.02146 16.1705 8.06729 16.1709 8.06864C16.1716 8.07163 16.168 8.05819 16.164 8.01916C16.1599 7.9796 16.1574 7.93693 16.1539 7.87184L14.1568 7.97941ZM14.9914 9.53317C14.8368 9.46128 14.7103 9.34017 14.6318 9.18879L16.4073 8.26819C16.2823 8.02705 16.0809 7.83413 15.8346 7.71961L14.9914 9.53317ZM14.6142 9.15318C14.5629 9.04376 14.5194 8.88263 14.542 8.69104C14.5639 8.50517 14.6388 8.37145 14.6898 8.29845C14.7344 8.23468 14.7762 8.1967 14.763 8.20963C14.761 8.21151 14.7592 8.21332 14.7535 8.21874C14.7489 8.22319 14.7414 8.23048 14.7331 8.23857C14.7171 8.25429 14.6904 8.28104 14.6607 8.31445L16.1565 9.64206C16.1406 9.66004 16.1141 9.68558 16.1586 9.64216C16.181 9.62038 16.2572 9.54707 16.3286 9.44492C16.4065 9.33355 16.5007 9.15839 16.5282 8.9256C16.5564 8.68709 16.5046 8.47356 16.4249 8.30381L14.6142 9.15318ZM14.6509 8.32563C14.5049 8.49515 14.4025 8.69772 14.3525 8.91579L16.3019 9.36281C16.2791 9.46186 16.2326 9.55388 16.1663 9.63088L14.6509 8.32563ZM14.3279 9.09991C14.3253 9.16773 14.3174 9.23525 14.3044 9.30186L16.2672 9.68552C16.2999 9.51834 16.3197 9.3489 16.3264 9.17869L14.3279 9.09991ZM14.3008 9.32095C14.301 9.31982 14.3014 9.31872 14.3018 9.31768L16.1218 10.147C16.1916 9.9938 16.2417 9.8323 16.2708 9.66644L14.3008 9.32095ZM14.2978 9.32659C14.3538 9.20063 14.4564 9.10129 14.5841 9.04949L15.3357 10.9029C15.6882 10.76 15.9714 10.4858 16.1258 10.1381L14.2978 9.32659ZM14.594 9.04553C14.5724 9.05405 14.5488 9.05648 14.5258 9.05255L14.1885 11.0239C14.5712 11.0894 14.9644 11.0489 15.3257 10.9069L14.594 9.04553ZM14.5889 9.06545C14.3334 9.00459 14.0645 9.03877 13.8324 9.1616L14.7679 10.9293C14.5707 11.0337 14.3424 11.0627 14.1254 11.011L14.5889 9.06545ZM13.8324 9.1616C13.6003 9.28444 13.4208 9.48755 13.3274 9.73301L15.1967 10.4441C15.1174 10.6525 14.965 10.825 14.7679 10.9293L13.8324 9.1616ZM13.2912 9.84888C13.2793 9.89729 13.2644 9.94493 13.2467 9.99155L15.1165 10.7013C15.1628 10.5794 15.2017 10.4548 15.2329 10.3282L13.2912 9.84888ZM13.2541 9.97266L13.1627 10.1996L15.0177 10.9471L15.1091 10.7202L13.2541 9.97266ZM13.1626 10.1998L13.1164 10.3145L14.9716 11.0616L15.0178 10.9469L13.1626 10.1998ZM14.7046 9.9373C14.4389 9.70349 14.1417 9.50811 13.8218 9.35687L12.9672 11.1651C13.118 11.2364 13.2581 11.3285 13.3834 11.4387L14.7046 9.9373ZM13.8388 9.36511C13.6893 9.29098 13.5582 9.23479 13.4475 9.18817C13.3323 9.13962 13.2513 9.10623 13.1615 9.06432L12.3151 10.8764C12.4485 10.9387 12.5743 10.9905 12.6708 11.0312C12.7719 11.0738 12.8573 11.1108 12.9502 11.1569L13.8388 9.36511ZM13.1581 9.06273C13.1073 9.03924 13.0549 9.01944 13.0013 9.00348L12.431 10.9204C12.3925 10.909 12.3549 10.8948 12.3185 10.878L13.1581 9.06273ZM13.6939 9.75233C13.6169 9.39322 13.4157 9.14489 13.2907 9.00679C13.1906 8.89615 13.004 8.7201 12.9472 8.66312L11.5299 10.0742C11.5969 10.1415 11.6652 10.2067 11.71 10.2503C11.7613 10.3 11.7892 10.3283 11.8079 10.3489C11.826 10.3689 11.818 10.363 11.8022 10.337C11.7842 10.3075 11.7554 10.251 11.7384 10.1716L13.6939 9.75233ZM12.9472 8.66306C12.9201 8.63586 12.8617 8.56507 12.8004 8.46717C12.772 8.42189 12.7486 8.37967 12.7314 8.34446C12.713 8.30696 12.7081 8.29043 12.7094 8.29472L10.7945 8.87187C10.8674 9.11374 10.992 9.34782 11.1057 9.52921C11.2222 9.71525 11.37 9.91359 11.5299 10.0742L12.9472 8.66306ZM12.7072 8.28772C12.6653 8.15214 12.6544 8.00884 12.6755 7.86849L10.6976 7.57176C10.632 8.00936 10.6658 8.45614 10.7966 8.87887L12.7072 8.28772ZM12.673 7.88452C12.6836 7.82052 12.7007 7.76883 12.7177 7.73382C12.7343 7.69962 12.7431 7.69656 12.7325 7.70546L11.4496 6.17109C10.9633 6.57774 10.7692 7.14131 10.7002 7.55573L12.673 7.88452ZM12.8165 7.62657L13.1193 7.30745L11.6684 5.93086L11.3656 6.24999L12.8165 7.62657ZM13.1497 7.27395C13.1451 7.27917 13.1787 7.24327 13.2682 7.19999C13.353 7.15901 13.4385 7.13557 13.4972 7.12852L13.2588 5.14279C12.7097 5.20873 12.0511 5.48765 11.6381 5.96435L13.1497 7.27395ZM13.5076 7.12722C13.6304 7.11116 13.7552 7.13289 13.8654 7.18951L14.7798 5.41079C14.3082 5.16839 13.7741 5.07536 13.2484 5.14409L13.5076 7.12722ZM13.861 7.18727C13.9272 7.22172 13.9847 7.26678 14.0276 7.32436C14.0656 7.37527 14.1179 7.4694 14.1344 7.65033L16.1261 7.46895C16.0233 6.34024 15.3573 5.71127 14.7841 5.41303L13.861 7.18727Z" fill="#4169E1" mask="url(#path-4-inside-1_4177_18273)"/>
<path d="M16.6474 12.1037C16.6057 12.1756 16.5517 12.2677 16.5186 12.3354C16.5211 12.3356 16.5235 12.3364 16.5257 12.3377C16.7009 12.4266 17.3164 12.8667 17.5396 13.022C17.5904 12.92 17.6398 12.8173 17.6875 12.7137C17.6973 12.6929 17.6999 12.6694 17.6951 12.6468C17.6902 12.6243 17.6782 12.604 17.6607 12.5889C17.4626 12.4206 17.0901 12.1979 16.8003 12.0436C16.776 12.0307 16.7477 12.0278 16.7214 12.0354C16.695 12.043 16.6726 12.0605 16.6589 12.0843C16.6551 12.0905 16.6513 12.097 16.6474 12.1037Z" fill="#4169E1"/>
<mask id="path-7-inside-2_4177_18273" fill="white">
<path d="M18.1059 12.1458C18.0339 12.2108 17.9664 12.2668 17.8995 12.3258C17.8995 12.3258 17.7847 12.4274 17.6307 12.564C17.3685 12.368 17.0907 12.1939 16.8 12.0434C16.7778 12.0314 16.752 12.0281 16.7275 12.0339L16.6962 11.9031L16.6145 11.539C16.5833 11.4368 16.6375 11.2085 16.7049 11.0787C16.7984 10.899 16.9309 10.7743 17.1839 11.0229C17.2517 10.8853 17.308 10.7531 17.3866 10.5839C17.398 10.5585 17.4144 10.5358 17.4349 10.517C17.4553 10.4982 17.4794 10.4838 17.5056 10.4745C17.5318 10.4653 17.5596 10.4615 17.5873 10.4633C17.615 10.4652 17.6421 10.4726 17.6669 10.4852C17.7134 10.5053 17.7526 10.5393 17.7789 10.5826C17.8052 10.6259 17.8174 10.6763 17.8138 10.7269C17.8833 10.7392 17.9477 10.7714 17.9993 10.8196C18.0508 10.8678 18.0872 10.93 18.104 10.9985C18.1137 11.0559 18.1436 11.108 18.1882 11.1454C18.4456 11.3901 18.5962 11.6366 18.2857 11.9693C18.2218 12.0378 18.1625 12.0946 18.1059 12.1458Z"/>
</mask>
<path d="M18.1059 12.1458L18.7765 12.8876L18.7766 12.8876L18.1059 12.1458ZM17.8995 12.3258L17.2373 11.5765L17.237 11.5768L17.8995 12.3258ZM17.6307 12.564L17.032 13.3649L17.6847 13.8529L18.2943 13.3121L17.6307 12.564ZM16.8 12.0434L16.3261 12.924L16.3332 12.9277L16.3402 12.9314L16.8 12.0434ZM16.7275 12.0339L15.7548 12.2662L15.9873 13.2396L16.9605 13.0064L16.7275 12.0339ZM16.6962 11.9031L15.7204 12.122L15.7236 12.1353L16.6962 11.9031ZM16.6145 11.539L17.5903 11.32L17.582 11.2832L17.571 11.2471L16.6145 11.539ZM16.7049 11.0787L15.8177 10.6173L15.8176 10.6176L16.7049 11.0787ZM17.1839 11.0229L16.4831 11.7363L17.4697 12.7056L18.081 11.4648L17.1839 11.0229ZM17.3866 10.5839L18.2936 11.0052L18.2984 10.9944L17.3866 10.5839ZM17.6669 10.4852L17.2131 11.3764L17.2418 11.391L17.2714 11.4037L17.6669 10.4852ZM17.8138 10.7269L16.8164 10.6557L16.7523 11.5544L17.6394 11.7115L17.8138 10.7269ZM18.104 10.9985L19.0901 10.8323L19.084 10.7956L19.0751 10.7595L18.104 10.9985ZM18.1882 11.1454L18.8772 10.4206L18.8543 10.3989L18.8301 10.3786L18.1882 11.1454ZM18.2857 11.9693L17.5547 11.287L17.5544 11.2873L18.2857 11.9693ZM17.4353 11.404C17.3547 11.4768 17.3496 11.4773 17.2373 11.5765L18.5618 13.0751C18.5832 13.0562 18.7132 12.9448 18.7765 12.8876L17.4353 11.404ZM17.8995 12.3258C17.237 11.5768 17.237 11.5768 17.237 11.5768C17.237 11.5768 17.237 11.5768 17.237 11.5768C17.237 11.5768 17.237 11.5768 17.237 11.5768C17.237 11.5768 17.2369 11.5769 17.2369 11.5769C17.2368 11.5769 17.2368 11.577 17.2366 11.5771C17.2364 11.5773 17.2361 11.5776 17.2356 11.578C17.2347 11.5788 17.2334 11.58 17.2317 11.5815C17.2282 11.5846 17.2231 11.5891 17.2165 11.595C17.2032 11.6067 17.184 11.6237 17.1599 11.645C17.1118 11.6876 17.0444 11.7474 16.9671 11.8159L18.2943 13.3121C18.3711 13.244 18.4381 13.1846 18.4859 13.1423C18.5097 13.1212 18.5288 13.1043 18.5419 13.0927C18.5485 13.0869 18.5535 13.0824 18.5569 13.0794C18.5586 13.0779 18.5599 13.0767 18.5608 13.076C18.5612 13.0756 18.5616 13.0753 18.5618 13.0751C18.5619 13.075 18.562 13.075 18.562 13.0749C18.562 13.0749 18.562 13.0749 18.5621 13.0749C18.5621 13.0749 18.5621 13.0748 18.5621 13.0748C18.5621 13.0748 18.5621 13.0748 18.5621 13.0748C18.5621 13.0748 18.5621 13.0748 17.8995 12.3258ZM18.2295 11.763C17.9234 11.5343 17.5991 11.331 17.2598 11.1554L16.3402 12.9314C16.5823 13.0567 16.8137 13.2017 17.032 13.3649L18.2295 11.763ZM17.2739 11.1628C17.0354 11.0344 16.7579 10.9983 16.4945 11.0615L16.9605 13.0064C16.7461 13.0578 16.5203 13.0284 16.3261 12.924L17.2739 11.1628ZM17.7001 11.8017L17.6689 11.6708L15.7236 12.1353L15.7548 12.2662L17.7001 11.8017ZM17.672 11.6841L17.5903 11.32L15.6388 11.7579L15.7205 12.122L17.672 11.6841ZM17.571 11.2471C17.5929 11.3191 17.6003 11.3773 17.6031 11.4111C17.6061 11.4467 17.6056 11.4734 17.6049 11.4882C17.6036 11.5165 17.6005 11.529 17.6014 11.5246C17.6019 11.5222 17.6032 11.5175 17.6044 11.5139C17.6061 11.5087 17.6035 11.5182 17.5922 11.5399L15.8176 10.6176C15.7335 10.7793 15.6766 10.9585 15.6441 11.1138C15.6215 11.2212 15.5633 11.5203 15.6581 11.8309L17.571 11.2471ZM17.5921 11.5401C17.5967 11.5313 17.578 11.5709 17.5297 11.6251C17.4799 11.6809 17.363 11.7917 17.1676 11.8493C16.7052 11.9858 16.4331 11.6872 16.4831 11.7363L17.8847 10.3096C17.6817 10.1101 17.2168 9.74951 16.6015 9.9311C16.0908 10.0818 15.8695 10.5177 15.8177 10.6173L17.5921 11.5401ZM18.081 11.4648C18.1533 11.318 18.2338 11.1336 18.2935 11.0051L16.4796 10.1626C16.3821 10.3727 16.3501 10.4525 16.2868 10.581L18.081 11.4648ZM18.2984 10.9944C18.2543 11.0925 18.1906 11.1806 18.1114 11.2534L16.7583 9.78062C16.6382 9.891 16.5417 10.0246 16.4747 10.1734L18.2984 10.9944ZM18.1114 11.2534C18.0322 11.3262 17.939 11.3821 17.8376 11.4178L17.1736 9.53125C17.0197 9.58541 16.8784 9.67025 16.7583 9.78062L18.1114 11.2534ZM17.8376 11.4178C17.7361 11.4535 17.6284 11.4683 17.5211 11.4611L17.6535 9.46554C17.4908 9.45473 17.3275 9.47709 17.1736 9.53125L17.8376 11.4178ZM17.5211 11.4611C17.4138 11.454 17.309 11.4252 17.2131 11.3764L18.1206 9.59409C17.9752 9.52007 17.8163 9.47634 17.6535 9.46554L17.5211 11.4611ZM17.2714 11.4037C17.1273 11.3417 17.0061 11.2363 16.9246 11.1023L18.6332 10.0629C18.499 9.84226 18.2995 9.66886 18.0623 9.56674L17.2714 11.4037ZM16.9246 11.1023C16.843 10.9683 16.8052 10.8122 16.8164 10.6557L18.8113 10.798C18.8297 10.5404 18.7674 10.2835 18.6332 10.0629L16.9246 11.1023ZM17.6394 11.7115C17.5182 11.6901 17.4058 11.6338 17.3159 11.5497L18.6826 10.0896C18.4897 9.90896 18.2485 9.78829 17.9883 9.74219L17.6394 11.7115ZM17.3159 11.5497C17.226 11.4655 17.1625 11.3571 17.133 11.2375L19.0751 10.7595C19.0119 10.5029 18.8756 10.2701 18.6826 10.0896L17.3159 11.5497ZM17.1179 11.1647C17.1672 11.4569 17.3191 11.7219 17.5463 11.9121L18.8301 10.3786C18.9681 10.4941 19.0603 10.655 19.0901 10.8323L17.1179 11.1647ZM17.4992 11.8701C17.5422 11.911 17.5513 11.9247 17.546 11.9174C17.5402 11.9094 17.4993 11.8519 17.4757 11.7501C17.4491 11.6351 17.4562 11.513 17.4927 11.4075C17.5249 11.3144 17.5657 11.2751 17.5547 11.287L19.0168 12.6516C19.3204 12.3263 19.553 11.855 19.4241 11.2986C19.3211 10.8543 19.0195 10.5558 18.8772 10.4206L17.4992 11.8701ZM17.5544 11.2873C17.5139 11.3307 17.4757 11.3675 17.4352 11.404L18.7766 12.8876C18.8493 12.8218 18.9297 12.7449 19.0171 12.6513L17.5544 11.2873Z" fill="#4169E1" mask="url(#path-7-inside-2_4177_18273)"/>
<path d="M13.5161 6.62562L13.5161 6.62561C13.4894 6.62724 13.4633 6.62961 13.438 6.63267L13.4376 6.63271C13.1746 6.66429 12.8902 6.81042 12.7718 6.94718L12.7644 6.95572L12.7566 6.96392L12.4538 7.28305L12.4339 7.30399L12.4118 7.3225C12.3019 7.41437 12.2169 7.58413 12.1804 7.79898C12.149 8.01235 12.1658 8.23007 12.2296 8.43613L12.2307 8.43963L12.2306 8.43963C12.2501 8.50403 12.3001 8.61106 12.3767 8.73331C12.4519 8.85324 12.5326 8.95592 12.5929 9.01648L12.5929 9.01656C12.5997 9.02335 12.6062 9.02981 12.6124 9.036C12.6175 9.02912 12.6226 9.02221 12.6277 9.01528C12.5864 8.90895 12.5618 8.79599 12.5554 8.68032C12.5447 8.5568 12.5615 8.43237 12.6045 8.31595C12.6496 8.19408 12.7222 8.08428 12.8168 7.99516L12.8414 7.97192L12.869 7.95222C12.9574 7.88904 13.0587 7.84629 13.1657 7.82706C13.2232 7.81672 13.2816 7.81332 13.3395 7.81681C13.3769 7.76893 13.4153 7.72193 13.4537 7.67688C13.5862 7.52165 13.7568 7.34558 13.9232 7.23657L13.5161 6.62562ZM13.5161 6.62562L13.5188 6.62544M13.5161 6.62562L13.5188 6.62544M13.5188 6.62544C13.7175 6.61227 13.916 6.6536 14.0929 6.74496L14.0929 6.74497M13.5188 6.62544L14.0929 6.74497M14.0929 6.74497L14.0952 6.74614M14.0929 6.74497L14.0952 6.74614M14.0952 6.74614C14.2295 6.81465 14.346 6.91367 14.4352 7.03527C14.4578 7.06612 14.4785 7.0982 14.4972 7.13133C14.4692 7.1495 14.441 7.16835 14.4129 7.18739M14.0952 6.74614L14.4129 7.18739M13.8556 7.9765C13.9153 7.90788 13.9765 7.84308 14.0353 7.78736C14.0362 7.78648 14.0372 7.7856 14.0381 7.78472C14.0482 7.77519 14.0582 7.76593 14.0682 7.75697C14.0691 7.75613 14.07 7.7553 14.0709 7.75447C14.1156 7.7143 14.1584 7.68025 14.1973 7.65478C14.2024 7.6514 14.2081 7.64961 14.2138 7.64935C14.2139 7.64935 14.2139 7.64935 14.214 7.64934C14.2332 7.64858 14.254 7.66499 14.2634 7.6964M13.8556 7.9765L14.4128 7.80107M13.8556 7.9765C13.8193 7.92988 13.7977 7.88244 13.7859 7.84452L13.7847 7.8408L13.7847 7.8408L13.8556 7.9765ZM14.2634 7.6964C14.2673 7.70873 14.2702 7.72128 14.2724 7.73396C14.2724 7.73402 14.2724 7.73408 14.2724 7.73414C14.2747 7.74773 14.276 7.76147 14.2764 7.77526C14.2764 7.77539 14.2764 7.77553 14.2764 7.77566C14.2765 7.78214 14.2765 7.78862 14.2762 7.79511M14.2634 7.6964L14.7078 7.56235M14.2634 7.6964L14.72 7.58288M14.2762 7.79511C14.2751 7.82953 14.3006 7.85477 14.3273 7.85348C14.3275 7.85347 14.3276 7.85347 14.3277 7.85346C14.3351 7.85303 14.3426 7.85057 14.3496 7.84573C14.3687 7.8325 14.3899 7.81744 14.4128 7.80107M14.2762 7.79511L14.2894 7.79553L14.2897 7.79554L14.3154 7.79637L14.3155 7.79637L14.4148 7.79957C14.4142 7.80007 14.4135 7.80057 14.4128 7.80107M14.2762 7.79511L14.2895 7.79569L14.2898 7.7957L14.3158 7.79683L14.3158 7.79684L14.4128 7.80107M14.72 7.58288C14.7287 7.57701 14.7374 7.57121 14.7461 7.56548C14.7445 7.55973 14.7428 7.55399 14.741 7.54827L14.7058 7.55919C14.7065 7.56024 14.7071 7.56129 14.7078 7.56235M14.72 7.58288C14.7161 7.57595 14.7121 7.5691 14.7078 7.56235M14.72 7.58288L14.7078 7.56235M14.4129 7.18739C14.2659 7.12938 14.0836 7.1316 13.9235 7.23642L14.4129 7.18739ZM13.8208 8.01705C13.7893 7.94269 13.7738 7.8615 13.7764 7.77903L13.7766 7.77331L13.7767 7.77331C13.7766 7.77522 13.7765 7.77713 13.7765 7.77903C13.7762 7.79991 13.7789 7.82073 13.7848 7.84079L13.8208 8.01705ZM13.8208 8.01705C13.8203 8.0177 13.8197 8.01835 13.8192 8.019M13.8208 8.01705L13.8192 8.019M13.8192 8.019C13.7221 7.93252 13.605 7.87027 13.4775 7.83847L13.3565 8.32361M13.8192 8.019L13.3177 8.31654C13.3308 8.31779 13.3438 8.32015 13.3565 8.32361M13.3565 8.32361C13.4228 8.34015 13.4817 8.37831 13.5239 8.43206L13.3565 8.32361ZM14.6912 7.43253L14.8657 7.40319L14.9019 7.47074L14.8657 7.40319L15.1019 7.36346L14.8656 6.92284L14.6912 7.43253Z" stroke="#4169E1"/>
<mask id="path-10-inside-3_4177_18273" fill="white">
<path d="M24.6032 13.5991C23.4163 14.1457 22.1351 14.7223 20.7404 15.0754C20.7215 15.08 20.7047 15.0907 20.6925 15.1058C20.6802 15.1208 20.6732 15.1395 20.6724 15.1589C20.6717 15.1783 20.6773 15.1974 20.6884 15.2134C20.6994 15.2294 20.7154 15.2413 20.7339 15.2474L22.0229 15.6749C22.0371 15.6796 22.0499 15.6878 22.0601 15.6987C22.0703 15.7096 22.0777 15.7228 22.0815 15.7373C22.0853 15.7517 22.0855 15.7669 22.082 15.7814C22.0785 15.7959 22.0714 15.8093 22.0614 15.8205C20.0429 18.0905 14.636 20.6339 11.3155 21.7393C11.294 21.7464 11.276 21.7614 11.2651 21.7812C11.2541 21.801 11.2511 21.8242 11.2566 21.8462C11.262 21.8682 11.2756 21.8873 11.2945 21.8997C11.3134 21.9121 11.3363 21.9169 11.3587 21.9131C13.5754 21.538 17.8039 20.3145 19.1348 19.6765C20.5213 19.0119 21.9126 18.1181 22.8859 17.1347C22.8957 17.1245 22.9078 17.1169 22.9212 17.1123C22.9346 17.1078 22.9489 17.1065 22.9629 17.1085C22.9769 17.1106 22.9902 17.1159 23.0018 17.1242C23.0133 17.1324 23.0227 17.1432 23.0292 17.1558C23.1986 17.4845 23.4158 17.9255 23.6195 18.3841C23.6269 18.401 23.6394 18.4152 23.6552 18.4248C23.6711 18.4343 23.6894 18.4387 23.7079 18.4374C23.7263 18.4362 23.7439 18.4292 23.7582 18.4175C23.7725 18.4059 23.7829 18.3901 23.7879 18.3723C24.1582 17.0362 24.4994 15.215 24.7292 13.6934C24.7315 13.6775 24.7296 13.6612 24.7234 13.6462C24.7173 13.6313 24.7072 13.6183 24.6943 13.6087C24.6814 13.599 24.6661 13.593 24.6501 13.5913C24.634 13.5896 24.6178 13.5923 24.6032 13.5991Z"/>
</mask>
<path d="M24.6032 13.5991L25.0215 14.5074L25.0231 14.5066L24.6032 13.5991ZM20.7404 15.0754L20.981 16.046L20.9858 16.0448L20.7404 15.0754ZM20.7339 15.2474L21.0486 14.2982L21.0475 14.2978L20.7339 15.2474ZM22.0229 15.6749L22.3393 14.7262L22.3377 14.7257L22.0229 15.6749ZM22.0614 15.8205L21.3177 15.152L21.3141 15.156L22.0614 15.8205ZM11.3155 21.7393L11.6294 22.6888L11.6314 22.6881L11.3155 21.7393ZM11.3587 21.9131L11.1918 20.9271L11.1918 20.9271L11.3587 21.9131ZM19.1348 19.6765L18.7025 18.7748L18.7025 18.7748L19.1348 19.6765ZM22.8859 17.1347L23.5967 17.8381L23.6036 17.831L22.8859 17.1347ZM23.0292 17.1558L23.9181 16.6977L23.9171 16.6957L23.0292 17.1558ZM23.6195 18.3841L24.5346 17.981L24.5334 17.9782L23.6195 18.3841ZM23.7879 18.3723L24.7505 18.6435L24.7516 18.6394L23.7879 18.3723ZM24.7292 13.6934L25.7179 13.8427L25.7182 13.841L24.7292 13.6934ZM24.1849 12.6908C22.9945 13.239 21.7897 13.7782 20.495 14.1059L20.9858 16.0448C22.4805 15.6664 23.8381 15.0523 25.0215 14.5074L24.1849 12.6908ZM20.4997 14.1047C20.2704 14.1616 20.0658 14.2915 19.9167 14.4748L21.4682 15.7368C21.3436 15.89 21.1726 15.9985 20.981 16.046L20.4997 14.1047ZM19.9167 14.4748C19.7676 14.6581 19.6821 14.8849 19.6731 15.1209L21.6717 15.1969C21.6642 15.3941 21.5928 15.5836 21.4682 15.7368L19.9167 14.4748ZM19.6731 15.1209C19.6642 15.357 19.7322 15.5896 19.867 15.7837L21.5098 14.6431C21.6224 14.8052 21.6792 14.9996 21.6717 15.1969L19.6731 15.1209ZM19.867 15.7837C20.0017 15.9778 20.1959 16.1228 20.4202 16.1969L21.0475 14.2978C21.2349 14.3597 21.3972 14.4809 21.5098 14.6431L19.867 15.7837ZM20.4191 16.1965L21.7082 16.624L22.3377 14.7257L21.0486 14.2982L20.4191 16.1965ZM21.7066 16.6235C21.5634 16.5758 21.4343 16.4931 21.3309 16.383L22.7893 15.0144C22.6655 14.8825 22.5108 14.7835 22.3393 14.7262L21.7066 16.6235ZM21.3309 16.383C21.2276 16.2729 21.1533 16.1388 21.1147 15.9928L23.0483 15.4818C23.0021 15.3069 22.9131 15.1463 22.7893 15.0144L21.3309 16.383ZM21.1147 15.9928C21.0761 15.8468 21.0745 15.6935 21.1099 15.5467L23.054 16.0161C23.0965 15.8403 23.0945 15.6566 23.0483 15.4818L21.1147 15.9928ZM21.1099 15.5467C21.1453 15.3999 21.2167 15.2643 21.3177 15.152L22.8051 16.4889C22.9261 16.3544 23.0116 16.1919 23.054 16.0161L21.1099 15.5467ZM21.3141 15.156C20.433 16.1469 18.7159 17.2813 16.7127 18.3308C14.7392 19.3647 12.6068 20.2555 10.9996 20.7905L11.6314 22.6881C13.3447 22.1177 15.576 21.1841 17.6408 20.1024C19.6758 19.0363 21.6714 17.764 22.8087 16.4849L21.3141 15.156ZM11.0016 20.7899C10.7408 20.8761 10.5221 21.0577 10.3894 21.2983L12.1407 22.2642C12.0299 22.4651 11.8473 22.6168 11.6294 22.6888L11.0016 20.7899ZM10.3894 21.2983C10.2567 21.5388 10.2198 21.8207 10.286 22.0873L12.2271 21.6051C12.2824 21.8278 12.2515 22.0632 12.1407 22.2642L10.3894 21.2983ZM10.286 22.0873C10.3523 22.3539 10.5168 22.5857 10.7466 22.7362L11.8424 21.0631C12.0343 21.1888 12.1717 21.3824 12.2271 21.6051L10.286 22.0873ZM10.7466 22.7362C10.9764 22.8867 11.2546 22.9449 11.5256 22.899L11.1918 20.9271C11.418 20.8888 11.6504 20.9374 11.8424 21.0631L10.7466 22.7362ZM11.5255 22.8991C12.6878 22.7024 14.3403 22.2911 15.8559 21.8543C17.3536 21.4226 18.8176 20.9376 19.5671 20.5783L18.7025 18.7748C18.1211 19.0535 16.8054 19.4992 15.302 19.9325C13.8164 20.3607 12.2463 20.7487 11.1918 20.9271L11.5255 22.8991ZM19.567 20.5783C21.0176 19.8829 22.5167 18.9293 23.5966 17.8381L22.1751 16.4313C21.3086 17.3069 20.025 18.1409 18.7025 18.7748L19.567 20.5783ZM23.6036 17.831C23.5032 17.9345 23.3795 18.0128 23.2427 18.0592L22.5998 16.1654C22.4362 16.2209 22.2883 16.3145 22.1681 16.4384L23.6036 17.831ZM23.2427 18.0592C23.106 18.1057 22.9602 18.1189 22.8174 18.0979L23.1085 16.1192C22.9377 16.094 22.7633 16.1099 22.5998 16.1654L23.2427 18.0592ZM22.8174 18.0979C22.6746 18.0769 22.5388 18.0222 22.4212 17.9384L23.5823 16.3099C23.4417 16.2097 23.2793 16.1443 23.1085 16.1192L22.8174 18.0979ZM22.4212 17.9384C22.3037 17.8546 22.2077 17.744 22.1413 17.6159L23.9171 16.6957C23.8377 16.5424 23.7229 16.4102 23.5823 16.3099L22.4212 17.9384ZM22.1403 17.6139C22.3032 17.93 22.5115 18.3532 22.7056 18.7901L24.5334 17.9782C24.32 17.4979 24.0941 17.0391 23.9181 16.6977L22.1403 17.6139ZM22.7044 18.7873C22.7948 18.9926 22.9465 19.1651 23.1387 19.281L24.1718 17.5685C24.3324 17.6654 24.4591 17.8094 24.5346 17.981L22.7044 18.7873ZM23.1387 19.281C23.3309 19.397 23.5541 19.4507 23.778 19.435L23.6378 17.4399C23.8248 17.4268 24.0113 17.4717 24.1718 17.5685L23.1387 19.281ZM23.778 19.435C24.0018 19.4193 24.2154 19.3348 24.3895 19.1931L23.127 17.642C23.2724 17.5236 23.4508 17.4531 23.6378 17.4399L23.778 19.435ZM24.3895 19.1931C24.5635 19.0514 24.6896 18.8595 24.7505 18.6435L22.8254 18.1011C22.8762 17.9207 22.9816 17.7603 23.127 17.642L24.3895 19.1931ZM24.7516 18.6394C25.1374 17.2473 25.4856 15.3812 25.7179 13.8427L23.7404 13.5441C23.5131 15.0488 23.1791 16.825 22.8243 18.1052L24.7516 18.6394ZM25.7182 13.841C25.7472 13.6466 25.7231 13.4479 25.6484 13.2661L23.7985 14.0264C23.736 13.8744 23.7159 13.7083 23.7401 13.5458L25.7182 13.841ZM25.6484 13.2661C25.5736 13.0843 25.4511 12.9261 25.2938 12.8082L24.0949 14.4091C23.9634 14.3106 23.861 14.1783 23.7985 14.0264L25.6484 13.2661ZM25.2938 12.8082C25.1364 12.6904 24.9501 12.6173 24.7546 12.5968L24.5456 14.5858C24.3821 14.5687 24.2264 14.5076 24.0949 14.4091L25.2938 12.8082ZM24.7546 12.5968C24.5591 12.5762 24.3617 12.609 24.1833 12.6915L25.0231 14.5066C24.874 14.5757 24.709 14.603 24.5456 14.5858L24.7546 12.5968Z" fill="#4169E1" mask="url(#path-10-inside-3_4177_18273)"/>
<path d="M10.2704 25.0534L10.0712 25.1066L10.0707 25.1067C10.0514 25.1118 10.0215 25.1256 9.98016 25.1717C9.93623 25.2206 9.89043 25.2942 9.8466 25.3932L9.84558 25.3955L9.84557 25.3955C9.83858 25.4111 9.83532 25.4281 9.83604 25.4451L9.83663 25.4592L9.83643 25.4592C9.83653 25.4663 9.83858 25.4734 9.84235 25.4795C9.84613 25.4856 9.8515 25.4905 9.85787 25.4938L9.86627 25.4981L9.8745 25.5028C10.1278 25.6458 10.3492 25.7787 10.5572 25.9036L10.2704 25.0534ZM10.2704 25.0534C10.4462 25.1101 10.6239 25.1664 10.7959 25.2178C10.8442 25.5868 11.0754 25.8658 11.2335 26.03C11.2773 26.0756 11.3221 26.1194 11.3609 26.1574L11.3663 26.1628C11.4083 26.2039 11.4439 26.2389 11.4771 26.2736C11.5436 26.3433 11.5839 26.3952 11.6096 26.4417C11.6144 26.4504 11.6189 26.4603 11.6226 26.4707C11.5506 26.4593 11.4809 26.4355 11.4168 26.4003L11.4168 26.4003L11.4118 26.3976C11.1173 26.2401 10.8614 26.0864 10.5802 25.9174C10.5725 25.9129 10.5649 25.9083 10.5573 25.9037L10.2704 25.0534Z" stroke="#4169E1"/>
<path d="M16.1905 23.686L16.2002 23.6856C16.4489 23.6741 16.6947 23.6761 16.9303 23.6811L16.1905 23.686ZM16.1905 23.686L16.1809 23.6868M16.1905 23.686L16.1809 23.6868M16.1809 23.6868C16.1729 23.6875 16.1649 23.686 16.1577 23.6825C16.1505 23.679 16.1444 23.6735 16.14 23.6668L15.7205 23.9389L16.1407 23.6679C16.1301 23.6514 16.1234 23.6327 16.1212 23.6133C16.1221 23.5286 16.1243 23.4622 16.1309 23.4038C16.1378 23.3423 16.1479 23.3066 16.1566 23.2861C16.1636 23.2696 16.1694 23.2631 16.176 23.2574C16.1809 23.2532 16.1927 23.2441 16.2163 23.2332C16.2263 23.2335 16.2364 23.2339 16.2465 23.2342C16.5429 23.2438 16.8853 23.2549 17.1966 23.2626C17.3416 23.3537 17.5001 23.422 17.6666 23.4647C17.7246 23.4813 17.7822 23.4961 17.8325 23.5091L17.8399 23.511C17.8968 23.5256 17.9451 23.5381 17.9912 23.5517C18.0837 23.5788 18.1446 23.6036 18.19 23.631C18.1986 23.6362 18.2074 23.6425 18.2159 23.6497C18.1475 23.6758 18.075 23.69 18.0016 23.6917L18.0016 23.6917M16.1809 23.6868L18.0016 23.6917M18.0016 23.6917L17.9951 23.6919M18.0016 23.6917L17.9951 23.6919M17.9951 23.6919C17.7329 23.7013 17.4698 23.6945 17.1873 23.6873M17.9951 23.6919L17.1873 23.6873M17.1873 23.6873C17.1035 23.6851 17.018 23.6829 16.9303 23.6811L17.1873 23.6873Z" stroke="#4169E1"/>
<mask id="path-14-inside-4_4177_18273" fill="white">
<path d="M12.5249 17.1682C12.4773 17.1552 12.4309 17.1417 12.3858 17.128C12.0869 17.0374 11.8044 16.9537 11.579 16.874C11.5589 17.1663 11.5658 17.4363 11.533 17.8246C11.4898 18.2442 11.4229 18.6611 11.3327 19.0731C10.9662 20.8225 10.4431 22.3628 9.85675 24.2447C9.85127 24.2628 9.84942 24.2818 9.85129 24.3007C9.85317 24.3195 9.85874 24.3378 9.86768 24.3545C9.87663 24.3711 9.88877 24.3859 9.90342 24.3979C9.91807 24.4099 9.93494 24.4188 9.95306 24.4243C10.408 24.5723 10.8959 24.7352 11.2977 24.8401C11.3288 24.8518 11.3619 24.8575 11.3952 24.8569C11.4775 24.8462 11.5146 24.752 11.5441 24.6748C12.5698 21.9756 13.3139 19.9751 13.6662 19.0854C14.1348 19.1331 14.9009 19.2079 15.2856 19.2788C15.5131 19.3207 15.6287 19.3622 15.7273 19.4833C15.8388 19.6212 15.8616 19.8286 15.8592 19.9877C15.8454 20.8817 15.8401 21.5575 15.8176 22.5499C15.8161 22.595 15.8327 22.6389 15.8635 22.6719C15.8944 22.7049 15.937 22.7244 15.9822 22.7261C16.3958 22.739 16.9854 22.7596 17.4441 22.7685C17.4887 22.7694 17.5319 22.7527 17.5643 22.7221C17.5967 22.6914 17.6157 22.6492 17.6172 22.6046C17.6467 21.7576 17.697 20.6352 17.696 19.8233C17.6954 19.399 17.6762 19.1512 17.5718 18.7734C17.5067 18.5382 17.3053 18.3043 17.1248 18.1432C16.968 18.0142 16.7967 17.9039 16.6144 17.8144C15.9424 17.4814 15.4183 17.411 14.5939 17.0366C14.5192 17.1089 14.4321 17.1672 14.3367 17.2085C13.8628 17.4376 13.1106 17.3298 12.5249 17.1682Z"/>
</mask>
<path d="M12.5249 17.1682L12.7907 16.2042L12.79 16.204L12.5249 17.1682ZM12.3858 17.128L12.0957 18.085L12.0965 18.0853L12.3858 17.128ZM11.579 16.874L11.9123 15.9312L10.6716 15.4926L10.5814 16.8054L11.579 16.874ZM11.533 17.8246L12.5278 17.9272L12.5287 17.918L12.5295 17.9088L11.533 17.8246ZM11.3327 19.0731L10.3558 18.8592L10.3539 18.8681L11.3327 19.0731ZM9.85675 24.2447L8.90199 23.9472L8.89958 23.9552L9.85675 24.2447ZM9.95306 24.4243L10.2624 23.4733L10.252 23.47L10.2416 23.4668L9.95306 24.4243ZM11.2977 24.8401L11.6507 23.9045L11.6014 23.8859L11.5504 23.8726L11.2977 24.8401ZM11.3952 24.8569L11.4152 25.8567L11.4697 25.8556L11.5237 25.8486L11.3952 24.8569ZM11.5441 24.6748L12.4784 25.0312L12.4788 25.03L11.5441 24.6748ZM13.6662 19.0854L13.7675 18.0905L13.015 18.0139L12.7365 18.7172L13.6662 19.0854ZM15.2856 19.2788L15.1043 20.2622L15.1046 20.2623L15.2856 19.2788ZM15.7273 19.4833L16.5049 18.8545L16.5029 18.8522L15.7273 19.4833ZM15.8592 19.9877L14.8593 19.9722L14.8593 19.9723L15.8592 19.9877ZM15.8176 22.5499L16.8171 22.5812L16.8173 22.5726L15.8176 22.5499ZM15.9822 22.7261L15.9455 23.7254L15.951 23.7256L15.9822 22.7261ZM17.4441 22.7685L17.4646 21.7687L17.4634 21.7687L17.4441 22.7685ZM17.6172 22.6046L16.6178 22.5698L16.6178 22.5703L17.6172 22.6046ZM17.696 19.8233L18.696 19.8221V19.822L17.696 19.8233ZM17.5718 18.7734L18.5357 18.5071L18.5356 18.5067L17.5718 18.7734ZM17.1248 18.1432L17.7908 17.3972L17.7757 17.3837L17.7601 17.3709L17.1248 18.1432ZM16.6144 17.8144L16.1705 18.7105L16.1739 18.7121L16.6144 17.8144ZM14.5939 17.0366L15.0074 16.1261L14.3873 15.8445L13.8981 16.3183L14.5939 17.0366ZM14.3367 17.2085L13.9392 16.2909L13.9202 16.2991L13.9015 16.3082L14.3367 17.2085ZM12.79 16.204C12.7517 16.1935 12.7134 16.1824 12.6752 16.1708L12.0965 18.0853C12.1484 18.101 12.203 18.1168 12.2597 18.1325L12.79 16.204ZM12.676 16.1711C12.363 16.0761 12.1102 16.0012 11.9123 15.9312L11.2457 17.8169C11.4985 17.9062 11.8109 17.9987 12.0957 18.085L12.676 16.1711ZM10.5814 16.8054C10.5697 16.975 10.5658 17.1405 10.5613 17.2813C10.5566 17.4279 10.5508 17.5722 10.5366 17.7405L12.5295 17.9088C12.5481 17.6887 12.5552 17.5038 12.5603 17.3453C12.5655 17.181 12.5682 17.0654 12.5767 16.9426L10.5814 16.8054ZM10.5383 17.7221C10.4989 18.1043 10.438 18.4839 10.3558 18.8592L12.3095 19.287C12.4078 18.8382 12.4806 18.3842 12.5278 17.9272L10.5383 17.7221ZM10.3539 18.8681C10 20.5573 9.498 22.0344 8.90202 23.9472L10.8115 24.5422C11.3882 22.6912 11.9323 21.0878 12.3114 19.2782L10.3539 18.8681ZM8.89958 23.9552C8.85605 24.0991 8.84132 24.2501 8.85621 24.3997L10.8464 24.2016C10.8575 24.3135 10.8465 24.4265 10.8139 24.5342L8.89958 23.9552ZM8.85621 24.3997C8.87111 24.5493 8.91535 24.6945 8.98639 24.827L10.749 23.8819C10.8021 23.981 10.8352 24.0896 10.8464 24.2016L8.85621 24.3997ZM8.98639 24.827C9.05743 24.9595 9.1539 25.0767 9.27026 25.1719L10.5366 23.6238C10.6236 23.6951 10.6958 23.7828 10.749 23.8819L8.98639 24.827ZM9.27026 25.1719C9.38662 25.2671 9.52061 25.3384 9.66455 25.3818L10.2416 23.4668C10.3493 23.4993 10.4495 23.5526 10.5366 23.6238L9.27026 25.1719ZM9.64376 25.3753C10.0815 25.5176 10.6068 25.6932 11.045 25.8076L11.5504 23.8726C11.1851 23.7771 10.7345 23.6269 10.2624 23.4733L9.64376 25.3753ZM10.9447 25.7757C11.0949 25.8324 11.2546 25.8599 11.4152 25.8567L11.3751 23.8571C11.4692 23.8552 11.5627 23.8713 11.6507 23.9045L10.9447 25.7757ZM11.5237 25.8486C11.9624 25.7917 12.2117 25.5085 12.3189 25.3494C12.4167 25.2042 12.4704 25.0522 12.4784 25.0312L10.6097 24.3184C10.5883 24.3746 10.6087 24.3084 10.66 24.2322C10.7206 24.1422 10.9103 23.9113 11.2667 23.8652L11.5237 25.8486ZM12.4788 25.03C13.51 22.3166 14.2469 20.3351 14.596 19.4536L12.7365 18.7172C12.3809 19.6151 11.6296 21.6346 10.6093 24.3196L12.4788 25.03ZM13.5649 20.0803C14.0611 20.1308 14.7709 20.2008 15.1043 20.2622L15.4669 18.2954C15.031 18.215 14.2085 18.1355 13.7675 18.0905L13.5649 20.0803ZM15.1046 20.2623C15.1496 20.2706 15.1722 20.2758 15.1824 20.2785C15.1918 20.281 15.1777 20.278 15.151 20.2662C15.1216 20.2532 15.0828 20.2322 15.0417 20.2009C15.0007 20.1696 14.9709 20.1382 14.9517 20.1145L16.5029 18.8522C16.165 18.4368 15.7349 18.3447 15.4666 18.2953L15.1046 20.2623ZM14.9497 20.1121C14.9112 20.0645 14.889 20.0216 14.8768 19.9933C14.8647 19.9653 14.8601 19.9461 14.8588 19.94C14.8569 19.9312 14.8598 19.9416 14.8593 19.9722L16.8591 20.0032C16.8621 19.8045 16.8517 19.2834 16.5049 18.8545L14.9497 20.1121ZM14.8593 19.9723C14.8454 20.8739 14.8403 21.5394 14.8178 22.5271L16.8173 22.5726C16.84 21.5755 16.8454 20.8895 16.8591 20.0032L14.8593 19.9723ZM14.818 22.5185C14.8084 22.8279 14.9215 23.1284 15.1328 23.3546L16.5942 21.9893C16.7438 22.1494 16.8239 22.3622 16.8171 22.5812L14.818 22.5185ZM15.1328 23.3546C15.3441 23.5808 15.6363 23.7141 15.9455 23.7254L16.0188 21.7267C16.2378 21.7348 16.4446 21.8291 16.5942 21.9893L15.1328 23.3546ZM15.951 23.7256C16.3578 23.7383 16.9582 23.7593 17.4247 23.7683L17.4634 21.7687C17.0126 21.7599 16.4337 21.7396 16.0133 21.7266L15.951 23.7256ZM17.4235 23.7683C17.7309 23.7746 18.0284 23.6597 18.2517 23.4483L16.8768 21.9958C17.0353 21.8458 17.2465 21.7642 17.4646 21.7687L17.4235 23.7683ZM18.2517 23.4483C18.475 23.2369 18.6061 22.9462 18.6166 22.6389L16.6178 22.5703C16.6253 22.3522 16.7183 22.1458 16.8768 21.9958L18.2517 23.4483ZM18.6166 22.6395C18.6455 21.8118 18.697 20.6579 18.696 19.8221L16.696 19.8245C16.697 20.6125 16.648 21.7034 16.6178 22.5698L18.6166 22.6395ZM18.696 19.822C18.6954 19.3455 18.6722 19.0011 18.5357 18.5071L16.6079 19.0397C16.6802 19.3014 16.6955 19.4526 16.696 19.8246L18.696 19.822ZM18.5356 18.5067C18.3916 17.9866 18.0101 17.593 17.7908 17.3972L16.4589 18.8892C16.511 18.9357 16.5585 18.9864 16.5917 19.0307C16.6076 19.0519 16.6158 19.0657 16.6187 19.0711C16.6219 19.077 16.6154 19.0666 16.6081 19.0402L18.5356 18.5067ZM17.7601 17.3709C17.5435 17.1927 17.3069 17.0403 17.055 16.9167L16.1739 18.7121C16.2866 18.7674 16.3926 18.8357 16.4896 18.9155L17.7601 17.3709ZM17.0584 16.9183C16.6537 16.7178 16.2951 16.5982 15.9775 16.4924C15.6585 16.386 15.3666 16.2893 15.0074 16.1261L14.1804 17.9471C14.6456 18.1584 15.028 18.284 15.3451 18.3897C15.6637 18.4959 15.9032 18.578 16.1705 18.7105L17.0584 16.9183ZM13.8981 16.3183C13.9101 16.3068 13.924 16.2975 13.9392 16.2909L14.7341 18.1261C14.9402 18.0369 15.1284 17.9111 15.2896 17.7549L13.8981 16.3183ZM13.9015 16.3082C13.9015 16.3081 13.8735 16.321 13.8034 16.3304C13.7345 16.3396 13.6434 16.343 13.5304 16.3365C13.3013 16.3233 13.0394 16.2728 12.7907 16.2042L12.259 18.1323C12.5961 18.2252 13.0032 18.3094 13.4151 18.3332C13.808 18.3559 14.3128 18.3307 14.7718 18.1088L13.9015 16.3082Z" fill="#4169E1" mask="url(#path-14-inside-4_4177_18273)"/>
<path d="M14.9253 8.27616C14.9569 8.35101 14.9628 8.5308 14.8253 8.56162C14.6411 8.58117 14.6063 8.36692 14.6566 8.25871C14.6977 8.17012 14.8429 8.11888 14.9253 8.27616Z" fill="#4169E1"/>
<path d="M15.3096 9.16798C15.2547 9.16785 15.1999 9.16454 15.1454 9.15806L15.1781 9.1625C15.1371 9.15701 15.0967 9.14757 15.0575 9.13432C15.0338 9.1278 15.0088 9.12848 14.9855 9.13627C14.9623 9.14406 14.9419 9.1586 14.9269 9.17805C14.912 9.1975 14.9032 9.22096 14.9016 9.24544C14.9001 9.26991 14.9059 9.29429 14.9182 9.31546C14.9354 9.3425 14.9617 9.36257 14.9922 9.37212C15.0953 9.40285 15.2025 9.41718 15.31 9.4146C15.3426 9.41423 15.3739 9.40129 15.3972 9.37847C15.4144 9.36123 15.4262 9.33926 15.4309 9.31534C15.4357 9.29143 15.4332 9.26664 15.4239 9.24411C15.4146 9.22158 15.3988 9.20232 15.3785 9.18877C15.3582 9.17522 15.3344 9.16799 15.31 9.16798H15.3096Z" fill="#4169E1"/>
<path d="M12.8423 10.5613L12.8378 10.5676L12.6217 10.8728C12.5426 11.0021 12.4356 11.1445 12.3528 11.2548C12.3163 11.3034 12.2845 11.3457 12.2618 11.378L12.2147 11.4449L12.1488 11.4933L12.135 11.5034C12.0723 11.5644 12.0122 11.6216 11.9548 11.6764C11.622 11.9935 11.3752 12.2287 11.1857 12.6548L11.1856 12.6549C11.1097 12.8256 11.1088 12.9361 11.1624 13.219C11.2383 13.6023 11.3341 13.9813 11.4491 14.3546C11.4814 14.3425 11.5135 14.3297 11.5453 14.3163L12.4509 13.9336L12.2267 14.8908C12.1741 15.1156 12.0894 15.3399 12.0092 15.5525C11.9786 15.6335 11.9487 15.7128 11.9214 15.7897L11.9214 15.7898L11.7088 16.3893C11.8935 16.4561 12.1473 16.533 12.4563 16.6266C12.481 16.634 12.506 16.6416 12.5314 16.6493L12.5314 16.6493C12.8091 16.7335 13.1324 16.8062 13.4353 16.8308C13.7501 16.8564 13.9818 16.8247 14.1197 16.7581L14.3372 17.2083L14.1197 16.7581C14.174 16.7318 14.2029 16.7139 14.2185 16.7026C14.2313 16.6935 14.2347 16.6891 14.2362 16.6873L14.2363 16.6871C14.2453 16.6757 14.2661 16.6439 14.3217 16.4912L14.7916 16.6621L14.3216 16.4915C14.3572 16.3935 14.3831 16.2923 14.3991 16.1893C14.4778 15.6528 14.5268 15.2779 14.5844 14.8379C14.5943 14.7623 14.6044 14.6847 14.615 14.6041L14.7024 13.939L15.3148 14.2128C15.4389 14.2682 15.5706 14.3046 15.7056 14.3207L15.7098 14.3212C15.7873 14.3312 15.9111 14.3142 16.0613 14.2501C16.2081 14.1874 16.339 14.097 16.4232 14.0131L16.4233 14.0129C16.6515 13.7856 16.7837 13.6329 16.8794 13.4931C16.9286 13.4214 16.9712 13.3485 17.0132 13.2641C16.9313 13.2066 16.8415 13.1438 16.7524 13.0822C16.7083 13.0517 16.6661 13.0228 16.6264 12.9957C16.5846 13.0605 16.5319 13.1368 16.4786 13.1962C16.3434 13.3473 16.1202 13.5051 15.8004 13.4837L15.8003 13.4836C15.4933 13.463 15.2871 13.2585 15.1873 13.1459C15.0881 13.0339 14.999 12.8996 14.9387 12.8086C14.9311 12.797 14.9239 12.7862 14.9172 12.7762L14.912 12.7683L14.907 12.7603C14.7297 12.4718 14.6768 12.3839 14.4971 12.074L14.4902 12.0621L14.4903 12.062C14.4244 11.9408 14.3392 11.8312 14.238 11.7375C14.2349 11.7348 14.2323 11.7327 14.2279 11.729C14.223 11.7251 14.2159 11.7193 14.2036 11.709C14.1836 11.6924 14.1505 11.6643 14.1161 11.6284C14.1121 11.6242 14.1082 11.6202 14.1043 11.6161C14.092 11.6033 14.0799 11.5908 14.0674 11.5779L14.0657 11.5761L14.0657 11.5761C13.9563 11.4626 13.8702 11.329 13.8119 11.1826L13.808 11.1727L13.8045 11.1628C13.8032 11.159 13.8018 11.1552 13.8002 11.1515C13.6413 10.9739 13.4241 10.8342 13.1727 10.7095L12.8423 10.5613ZM12.8423 10.5613C12.8501 10.5646 12.8578 10.5678 12.8654 10.571C12.9689 10.6147 13.0657 10.6565 13.1727 10.7095L12.8423 10.5613ZM11.2554 16.7399C11.467 16.8498 11.848 16.965 12.2741 17.0938C12.3112 17.105 12.3486 17.1164 12.3864 17.1278L11.2554 16.7399ZM11.2554 16.7399C11.1997 16.7157 11.1559 16.6703 11.1336 16.6137C11.1239 16.5607 11.1311 16.506 11.1542 16.4574M11.2554 16.7399L11.1542 16.4574M11.1542 16.4574L11.4501 15.6227M11.1542 16.4574L11.4501 15.6227M11.4501 15.6227C11.481 15.5355 11.5115 15.4543 11.5407 15.3768M11.4501 15.6227L11.5407 15.3768M11.5407 15.3768C11.6746 15.3382 11.8061 15.2917 11.9345 15.2374L11.7399 14.7768M11.5407 15.3768L11.7399 14.7768M11.7399 14.7768L11.4475 14.7084L11.7399 14.7768ZM11.079 14.8339L11.2208 14.7845C11.2209 14.7841 11.221 14.7838 11.2211 14.7834L10.6715 13.3141C10.7735 13.8292 10.9096 14.3369 11.079 14.8339ZM11.079 14.8339C11.0914 14.8694 11.1162 14.8991 11.1489 14.9176C11.1568 14.9221 11.1651 14.9259 11.1736 14.9289C11.1894 14.8842 11.2038 14.8409 11.217 14.7972C11.217 14.7972 11.217 14.7972 11.217 14.7972C11.2182 14.7934 11.2193 14.7896 11.2205 14.7857L11.079 14.8339ZM11.4424 14.7072L11.2884 14.6711L11.2531 14.6628C11.244 14.7016 11.2342 14.7388 11.2235 14.7754L11.1548 14.4449C11.2368 14.4278 11.3222 14.4412 11.3952 14.4825C11.4681 14.5237 11.5235 14.5901 11.5511 14.6692L11.4424 14.7072Z" stroke="#4169E1"/>
<mask id="path-19-inside-5_4177_18273" fill="white">
<path d="M13.8172 11.2853C13.6196 11.3221 13.4352 11.4102 13.2824 11.5409C13.1274 11.6791 13.0043 11.8494 12.9218 12.04C12.9063 12.0684 12.9022 12.1018 12.9104 12.1331C12.9186 12.1645 12.9385 12.1916 12.966 12.2087C12.9943 12.225 13.0279 12.2294 13.0595 12.2212C13.091 12.2129 13.1181 12.1925 13.1348 12.1645C13.205 11.9965 13.3115 11.8461 13.4466 11.7242C13.475 11.6982 13.5056 11.6746 13.538 11.6538C13.5736 11.6302 13.6109 11.6093 13.6495 11.5913C13.6519 11.5901 13.6799 11.5781 13.6676 11.5832C13.6553 11.5882 13.6838 11.577 13.6861 11.5762C13.7052 11.5692 13.7244 11.5628 13.7438 11.557C13.7894 11.5432 13.8359 11.5323 13.8826 11.5231C13.914 11.5142 13.9406 11.4933 13.9568 11.4649C13.9729 11.4366 13.9773 11.403 13.9689 11.3715C13.9597 11.3402 13.9388 11.3138 13.9105 11.2977C13.8822 11.2816 13.8488 11.2771 13.8172 11.2851L13.8172 11.2853Z"/>
</mask>
<path d="M13.8172 11.2853L14.0001 12.2685L14.5795 12.1607L14.7659 11.6016L13.8172 11.2853ZM13.2824 11.5409L12.6323 10.781L12.6246 10.7876L12.6171 10.7944L13.2824 11.5409ZM12.9218 12.04L13.7993 12.5197L13.8213 12.4794L13.8395 12.4373L12.9218 12.04ZM12.966 12.2087L12.4365 13.057L12.4523 13.0669L12.4684 13.0761L12.966 12.2087ZM13.1348 12.1645L13.9941 12.6759L14.0302 12.6152L14.0574 12.5501L13.1348 12.1645ZM13.4466 11.7242L14.1166 12.4666L14.1223 12.4614L13.4466 11.7242ZM13.538 11.6538L14.0779 12.4956L14.0843 12.4915L14.0906 12.4873L13.538 11.6538ZM13.6495 11.5913L13.2305 10.6833L13.2262 10.6853L13.6495 11.5913ZM13.6861 11.5762L14.0098 12.5224L14.0209 12.5186L14.0319 12.5145L13.6861 11.5762ZM13.7438 11.557L14.03 12.5151L14.0335 12.5141L13.7438 11.557ZM13.8826 11.5231L14.0757 12.5043L14.1164 12.4963L14.1562 12.485L13.8826 11.5231ZM13.9689 11.3715L14.9356 11.1155L14.932 11.102L14.9281 11.0886L13.9689 11.3715ZM13.8172 11.2851L13.5705 10.316L13.0413 10.4508L12.8686 10.9689L13.8172 11.2851ZM13.6343 10.3022C13.264 10.3711 12.9185 10.5362 12.6323 10.781L13.9325 12.3007C13.9518 12.2842 13.9751 12.2731 14.0001 12.2685L13.6343 10.3022ZM12.6171 10.7944C12.3536 11.0292 12.1444 11.3187 12.0041 11.6427L13.8395 12.4373C13.8643 12.38 13.9012 12.3289 13.9478 12.2874L12.6171 10.7944ZM12.0444 11.5603C11.9064 11.8127 11.8701 12.1083 11.943 12.3866L13.8778 11.8797C13.9342 12.0952 13.9061 12.3242 13.7993 12.5197L12.0444 11.5603ZM11.943 12.3866C12.0159 12.6648 12.1925 12.9047 12.4365 13.057L13.4956 11.3604C13.6846 11.4784 13.8213 11.6642 13.8778 11.8797L11.943 12.3866ZM12.4684 13.0761C12.7244 13.223 13.0278 13.2633 13.3132 13.1884L12.8057 11.2539C13.028 11.1956 13.2643 11.227 13.4637 11.3413L12.4684 13.0761ZM13.3132 13.1884C13.5986 13.1135 13.8432 12.9295 13.9941 12.6759L12.2754 11.653C12.393 11.4556 12.5834 11.3122 12.8057 11.2539L13.3132 13.1884ZM14.0574 12.5501C14.0707 12.5182 14.0909 12.4897 14.1166 12.4666L12.7767 10.9818C12.532 11.2026 12.3392 11.4748 12.2121 11.7788L14.0574 12.5501ZM14.1223 12.4614C14.1085 12.474 14.0937 12.4855 14.0779 12.4956L12.9981 10.8121C12.9175 10.8638 12.8415 10.9223 12.7709 10.987L14.1223 12.4614ZM14.0906 12.4873C14.085 12.491 14.079 12.4943 14.0729 12.4972L13.2262 10.6853C13.1427 10.7243 13.0622 10.7695 12.9854 10.8204L14.0906 12.4873ZM14.0686 12.4992C14.0572 12.5045 14.0421 12.511 14.0641 12.5014C14.066 12.5006 14.0689 12.4993 14.0719 12.498C14.0734 12.4973 14.0758 12.4963 14.0785 12.4951C14.0803 12.4943 14.0862 12.4916 14.0936 12.4881C14.0966 12.4867 14.1058 12.4825 14.1173 12.4767C14.1225 12.4741 14.1349 12.4679 14.1503 12.4594C14.158 12.4552 14.1716 12.4477 14.1881 12.4377C14.1995 12.4308 14.2369 12.4081 14.2813 12.3739C14.3017 12.3582 14.3493 12.3205 14.402 12.264C14.42 12.2447 14.6004 12.0629 14.655 11.7585C14.6706 11.5946 14.6103 11.2397 14.5251 11.0623C14.42 10.9197 14.185 10.7243 14.0701 10.6652C13.8583 10.5729 13.6719 10.5815 13.6421 10.5824C13.5345 10.5854 13.4512 10.6063 13.442 10.6084C13.4147 10.6149 13.3934 10.6211 13.3831 10.6242C13.3485 10.6346 13.321 10.6451 13.321 10.6451C13.3084 10.6498 13.2983 10.6539 13.2969 10.6544C13.2933 10.6559 13.2902 10.6571 13.2883 10.6579L14.047 12.5084C14.0465 12.5086 14.0447 12.5094 14.042 12.5104C14.0416 12.5106 14.0321 12.5144 14.02 12.519C14.0163 12.5203 14.01 12.5227 14.0021 12.5254C13.9962 12.5275 13.9797 12.5333 13.9583 12.5397C13.948 12.5428 13.9267 12.549 13.8994 12.5554C13.8902 12.5576 13.807 12.5785 13.6994 12.5815C13.6695 12.5824 13.4832 12.591 13.2713 12.4987C13.1564 12.4395 12.9214 12.2442 12.8163 12.1015C12.7311 11.9242 12.6708 11.5693 12.6864 11.4054C12.741 11.1009 12.9214 10.9192 12.9394 10.8999C12.9921 10.8434 13.0398 10.8057 13.0602 10.79C13.1045 10.7558 13.1419 10.7331 13.1533 10.7262C13.1698 10.7162 13.1834 10.7087 13.191 10.7045C13.2064 10.6961 13.2187 10.6899 13.2239 10.6873C13.2353 10.6817 13.2442 10.6775 13.247 10.6762C13.2606 10.6698 13.2729 10.6646 13.2641 10.6684C13.2621 10.6693 13.2602 10.6701 13.2564 10.6717C13.255 10.6724 13.2528 10.6733 13.2506 10.6742C13.2496 10.6747 13.2478 10.6755 13.2457 10.6764C13.2454 10.6765 13.2386 10.6795 13.2305 10.6833L14.0686 12.4992ZM13.2883 10.6579C13.2865 10.6586 13.2838 10.6598 13.2807 10.6611C13.2795 10.6615 13.2708 10.6651 13.2603 10.6698C13.2571 10.6712 13.2517 10.6736 13.245 10.6767C13.2402 10.679 13.226 10.6855 13.2082 10.6946C13.1999 10.6989 13.1818 10.7083 13.1595 10.7214C13.1558 10.7235 13.0792 10.7664 12.998 10.839C12.9922 10.8442 12.802 10.9994 12.7123 11.2791C12.6734 11.4517 12.7019 11.8552 12.789 12.0677C12.9075 12.2379 13.1753 12.4567 13.3017 12.5164C13.5149 12.5993 13.7006 12.584 13.7173 12.5831C13.7742 12.5801 13.8185 12.5728 13.8383 12.5693C13.8807 12.5618 13.9132 12.5531 13.9238 12.5503C13.9386 12.5463 13.9504 12.5428 13.9572 12.5407C13.9708 12.5365 13.9814 12.533 13.986 12.5314C13.9961 12.528 14.0039 12.5252 14.0065 12.5242C14.0164 12.5206 14.0252 12.5172 14.0253 12.5172C14.028 12.5161 14.0306 12.5151 14.0324 12.5144C14.0621 12.5029 14.0337 12.5142 14.0098 12.5224L13.3624 10.63C13.353 10.6333 13.3456 10.6359 13.3431 10.6369C13.3397 10.6381 13.3369 10.6392 13.3352 10.6398C13.3318 10.6411 13.329 10.6421 13.3275 10.6427C13.3244 10.6439 13.3215 10.645 13.3198 10.6457C13.3178 10.6464 13.3158 10.6472 13.3143 10.6478C13.3126 10.6485 13.3114 10.6489 13.3103 10.6493C13.3021 10.6525 13.312 10.6486 13.3234 10.6445C13.3258 10.6436 13.3334 10.6408 13.3433 10.6375C13.3478 10.6359 13.3584 10.6324 13.3719 10.6282C13.3787 10.6262 13.3905 10.6226 13.4053 10.6187C13.4159 10.6158 13.4484 10.6072 13.4907 10.5997C13.5105 10.5962 13.5548 10.5889 13.6117 10.5859C13.6284 10.585 13.8141 10.5696 14.0273 10.6526C14.1537 10.7123 14.4216 10.9311 14.54 11.1012C14.6272 11.3137 14.6557 11.7173 14.6167 11.8899C14.5271 12.1695 14.3369 12.3248 14.331 12.33C14.2499 12.4025 14.1732 12.4454 14.1696 12.4476C14.1473 12.4606 14.1292 12.47 14.1209 12.4743C14.1032 12.4834 14.089 12.4899 14.0842 12.4921C14.0777 12.4952 14.0724 12.4975 14.0693 12.4989C14.0591 12.5034 14.0511 12.5067 14.0508 12.5068C14.0486 12.5077 14.0472 12.5083 14.047 12.5084L13.2883 10.6579ZM14.0319 12.5145C14.0314 12.5147 14.0308 12.5149 14.03 12.5151L13.4576 10.5988C13.418 10.6106 13.3789 10.6237 13.3403 10.6379L14.0319 12.5145ZM14.0335 12.5141C14.0386 12.5125 14.0512 12.5091 14.0757 12.5043L13.6895 10.542C13.6206 10.5555 13.5402 10.5738 13.4541 10.5999L14.0335 12.5141ZM14.1562 12.485C14.4397 12.4043 14.6801 12.2157 14.8259 11.9596L13.0876 10.9703C13.2011 10.7709 13.3883 10.6241 13.609 10.5613L14.1562 12.485ZM14.8259 11.9596C14.9716 11.7034 15.011 11.4003 14.9356 11.1155L13.0022 11.6274C12.9435 11.4057 12.9742 11.1697 13.0876 10.9703L14.8259 11.9596ZM14.9281 11.0886C14.8457 10.8093 14.6583 10.5727 14.4051 10.4286L13.4159 12.1668C13.2193 12.0549 13.0737 11.8712 13.0097 11.6543L14.9281 11.0886ZM14.4051 10.4286C14.1519 10.2845 13.8528 10.2442 13.5705 10.316L14.0639 12.2542C13.8447 12.31 13.6125 12.2787 13.4159 12.1668L14.4051 10.4286ZM12.8686 10.9689L12.8685 10.9691L14.7659 11.6016L14.7659 11.6014L12.8686 10.9689Z" fill="#4169E1" mask="url(#path-19-inside-5_4177_18273)"/>
</g>
<defs>
<clipPath id="clip0_4177_18273">
<rect width="24" height="24" fill="white" transform="translate(6 6.00098)"/>
</clipPath>
</defs>
</svg>
