<svg width="36" height="37" viewBox="0 0 36 37" fill="none" xmlns="http://www.w3.org/2000/svg">
<rect y="0.207031" width="36" height="36" rx="5" fill="#ECF5ED"/>
<path d="M17.9999 24.6287C21.6609 24.6287 24.6287 21.6609 24.6287 17.9999C24.6287 14.3389 21.6609 11.3711 17.9999 11.3711C14.3389 11.3711 11.3711 14.3389 11.3711 17.9999C11.3711 21.6609 14.3389 24.6287 17.9999 24.6287Z" stroke="#6FB472" stroke-width="1.5" stroke-linecap="round" stroke-linejoin="round"/>
<path d="M18 11.3713V9.12012" stroke="#6FB472" stroke-width="1.5" stroke-linecap="round" stroke-linejoin="round"/>
<path d="M24.2783 11.7217L22.6895 13.3105" stroke="#6FB472" stroke-width="1.5" stroke-linecap="round" stroke-linejoin="round"/>
<path d="M26.8801 18H24.6289" stroke="#6FB472" stroke-width="1.5" stroke-linecap="round" stroke-linejoin="round"/>
<path d="M24.2783 24.2783L22.6895 22.6895" stroke="#6FB472" stroke-width="1.5" stroke-linecap="round" stroke-linejoin="round"/>
<path d="M13.3105 13.3105L11.7217 11.7217" stroke="#6FB472" stroke-width="1.5" stroke-linecap="round" stroke-linejoin="round"/>
<path d="M11.3713 18H9.12012" stroke="#6FB472" stroke-width="1.5" stroke-linecap="round" stroke-linejoin="round"/>
<path d="M13.3105 22.6895L11.7217 24.2783" stroke="#6FB472" stroke-width="1.5" stroke-linecap="round" stroke-linejoin="round"/>
<path d="M18 26.8801V24.6289" stroke="#6FB472" stroke-width="1.5" stroke-linecap="round" stroke-linejoin="round"/>
<path d="M25.2912 15.0288L24.1416 15.4968" stroke="#6FB472" stroke-width="1.5" stroke-linecap="round" stroke-linejoin="round"/>
<path d="M25.2557 21.0552L24.1133 20.5728" stroke="#6FB472" stroke-width="1.5" stroke-linecap="round" stroke-linejoin="round"/>
<path d="M20.9709 25.2912L20.5029 24.1416" stroke="#6FB472" stroke-width="1.5" stroke-linecap="round" stroke-linejoin="round"/>
<path d="M21.0556 10.7446L20.5732 11.887" stroke="#6FB472" stroke-width="1.5" stroke-linecap="round" stroke-linejoin="round"/>
<path d="M11.8586 15.4968L10.709 15.0288" stroke="#6FB472" stroke-width="1.5" stroke-linecap="round" stroke-linejoin="round"/>
<path d="M11.8875 20.5728L10.7451 21.0552" stroke="#6FB472" stroke-width="1.5" stroke-linecap="round" stroke-linejoin="round"/>
<path d="M15.4963 24.1416L15.0283 25.2912" stroke="#6FB472" stroke-width="1.5" stroke-linecap="round" stroke-linejoin="round"/>
<path d="M15.4267 11.887L14.9443 10.7446" stroke="#6FB472" stroke-width="1.5" stroke-linecap="round" stroke-linejoin="round"/>
<path d="M25.2479 16.5576L24.5039 16.7064" stroke="#6FB472" stroke-width="1.5" stroke-linecap="round" stroke-linejoin="round"/>
<path d="M24.1439 13.8936L23.5127 14.316" stroke="#6FB472" stroke-width="1.5" stroke-linecap="round" stroke-linejoin="round"/>
<path d="M22.106 11.856L21.6836 12.4872" stroke="#6FB472" stroke-width="1.5" stroke-linecap="round" stroke-linejoin="round"/>
<path d="M19.4427 10.752L19.2939 11.496" stroke="#6FB472" stroke-width="1.5" stroke-linecap="round" stroke-linejoin="round"/>
<path d="M24.5039 19.2935L25.2479 19.4423" stroke="#6FB472" stroke-width="1.5" stroke-linecap="round" stroke-linejoin="round"/>
<path d="M23.5127 21.6841L24.1439 22.1065" stroke="#6FB472" stroke-width="1.5" stroke-linecap="round" stroke-linejoin="round"/>
<path d="M21.6836 23.5127L22.106 24.1439" stroke="#6FB472" stroke-width="1.5" stroke-linecap="round" stroke-linejoin="round"/>
<path d="M19.2939 24.5039L19.4427 25.2479" stroke="#6FB472" stroke-width="1.5" stroke-linecap="round" stroke-linejoin="round"/>
<path d="M11.496 16.7064L10.752 16.5576" stroke="#6FB472" stroke-width="1.5" stroke-linecap="round" stroke-linejoin="round"/>
<path d="M12.4876 14.316L11.8564 13.8936" stroke="#6FB472" stroke-width="1.5" stroke-linecap="round" stroke-linejoin="round"/>
<path d="M14.316 12.4872L13.8936 11.856" stroke="#6FB472" stroke-width="1.5" stroke-linecap="round" stroke-linejoin="round"/>
<path d="M16.7064 11.496L16.5576 10.752" stroke="#6FB472" stroke-width="1.5" stroke-linecap="round" stroke-linejoin="round"/>
<path d="M10.752 19.4423L11.496 19.2935" stroke="#6FB472" stroke-width="1.5" stroke-linecap="round" stroke-linejoin="round"/>
<path d="M11.8564 22.1065L12.4876 21.6841" stroke="#6FB472" stroke-width="1.5" stroke-linecap="round" stroke-linejoin="round"/>
<path d="M13.8936 24.1439L14.316 23.5127" stroke="#6FB472" stroke-width="1.5" stroke-linecap="round" stroke-linejoin="round"/>
<path d="M16.5576 25.2479L16.7064 24.5039" stroke="#6FB472" stroke-width="1.5" stroke-linecap="round" stroke-linejoin="round"/>
<path d="M13.8935 14.1046C13.8935 14.1046 12.4223 15.499 13.3103 17.3806C14.1983 19.2622 16.7063 16.9966 16.7063 16.9966C16.7063 16.9966 18.0527 15.7774 17.5823 14.6422C17.1119 13.507 15.3839 12.859 13.8935 14.1046Z" stroke="#6FB472" stroke-width="1.5" stroke-linecap="round" stroke-linejoin="round"/>
<path d="M14.1044 14.5895C14.1044 14.5895 13.3844 15.7007 13.8044 16.2263C14.2244 16.7519 15.1316 16.2263 15.1316 16.2263C15.1316 16.2263 17.246 14.6999 15.9404 14.1047C15.6262 13.957 15.27 13.9247 14.9343 14.0133C14.5986 14.102 14.3048 14.306 14.1044 14.5895Z" stroke="#6FB472" stroke-width="1.5" stroke-linecap="round" stroke-linejoin="round"/>
<path d="M17.6237 17.8368C17.6237 17.8368 16.9829 18.5568 17.6237 19.1712C18.2645 19.7856 18.9725 19.1448 19.0637 18.9C19.1549 18.6552 19.2413 17.8248 18.6077 17.7168C17.9741 17.6088 17.9453 17.6064 17.6237 17.8368Z" stroke="#6FB472" stroke-width="1.5" stroke-linecap="round" stroke-linejoin="round"/>
<path d="M13.6964 20.5058C13.6262 20.8053 13.6645 21.1199 13.8044 21.3938C14.0444 21.7682 14.5964 22.1858 14.9708 21.9938C15.3452 21.8018 15.3092 21.0338 15.1172 20.705C14.9852 20.4842 14.486 20.1218 14.1572 20.177C14.0554 20.1759 13.956 20.2072 13.8731 20.2663C13.7903 20.3254 13.7284 20.4093 13.6964 20.5058Z" stroke="#6FB472" stroke-width="1.5" stroke-linecap="round" stroke-linejoin="round"/>
<path d="M19.8219 21.3046C19.4859 21.3454 18.3099 21.5902 18.5379 22.3174C18.7659 23.0446 19.9203 22.8646 19.9203 22.8646C19.9203 22.8646 20.7243 22.7734 21.1203 22.4326C21.2078 22.3598 21.2724 22.2632 21.3061 22.1545C21.3399 22.0458 21.3413 21.9297 21.3103 21.8201C21.2793 21.7106 21.2172 21.6124 21.1315 21.5375C21.0458 21.4626 20.9402 21.4142 20.8275 21.3982C20.5022 21.2985 20.16 21.2666 19.8219 21.3046Z" stroke="#6FB472" stroke-width="1.5" stroke-linecap="round" stroke-linejoin="round"/>
<path d="M21.7653 15.0911C21.4029 14.9999 20.8989 15.5711 21.0045 16.3751C21.1101 17.1791 21.3789 17.7983 22.0005 17.8415C22.6221 17.8847 23.0685 16.9871 23.0157 16.7063C22.9821 16.5167 22.8309 15.6335 22.5357 15.4343C22.3045 15.2693 22.0425 15.1526 21.7653 15.0911Z" stroke="#6FB472" stroke-width="1.5" stroke-linecap="round" stroke-linejoin="round"/>
<path d="M18.7369 12.7053C18.7369 12.7053 19.4857 12.4173 19.7641 12.9189C20.0425 13.4205 19.4017 13.7109 19.1641 13.6389C18.9265 13.5669 18.6193 13.3989 18.5881 13.1445C18.5569 12.8901 18.5881 12.7485 18.7369 12.7053Z" stroke="#6FB472" stroke-width="1.5" stroke-linecap="round" stroke-linejoin="round"/>
</svg>
