<svg width="36" height="37" viewBox="0 0 36 37" fill="none" xmlns="http://www.w3.org/2000/svg">
<rect y="0.207031" width="36" height="36" rx="5" fill="#13142F"/>
<path d="M17.9999 24.6287C21.6609 24.6287 24.6287 21.6609 24.6287 17.9999C24.6287 14.3389 21.6609 11.3711 17.9999 11.3711C14.3389 11.3711 11.3711 14.3389 11.3711 17.9999C11.3711 21.6609 14.3389 24.6287 17.9999 24.6287Z" stroke="#6FB472" stroke-width="1.5" stroke-linecap="round" stroke-linejoin="round"/>
<path d="M18 11.3713V9.12012" stroke="#6FB472" stroke-width="1.5" stroke-linecap="round" stroke-linejoin="round"/>
<path d="M24.2783 11.7217L22.6895 13.3105" stroke="#6FB472" stroke-width="1.5" stroke-linecap="round" stroke-linejoin="round"/>
<path d="M26.8801 18H24.6289" stroke="#6FB472" stroke-width="1.5" stroke-linecap="round" stroke-linejoin="round"/>
<path d="M24.2783 24.2783L22.6895 22.6895" stroke="#6FB472" stroke-width="1.5" stroke-linecap="round" stroke-linejoin="round"/>
<path d="M13.3105 13.3105L11.7217 11.7217" stroke="#6FB472" stroke-width="1.5" stroke-linecap="round" stroke-linejoin="round"/>
<path d="M11.3713 18H9.12012" stroke="#6FB472" stroke-width="1.5" stroke-linecap="round" stroke-linejoin="round"/>
<path d="M13.3105 22.6895L11.7217 24.2783" stroke="#6FB472" stroke-width="1.5" stroke-linecap="round" stroke-linejoin="round"/>
<path d="M18 26.8801V24.6289" stroke="#6FB472" stroke-width="1.5" stroke-linecap="round" stroke-linejoin="round"/>
<path d="M25.2912 15.0288L24.1416 15.4968" stroke="#6FB472" stroke-width="1.5" stroke-linecap="round" stroke-linejoin="round"/>
<path d="M25.2552 21.0552L24.1128 20.5728" stroke="#6FB472" stroke-width="1.5" stroke-linecap="round" stroke-linejoin="round"/>
<path d="M20.9714 25.2912L20.5034 24.1416" stroke="#6FB472" stroke-width="1.5" stroke-linecap="round" stroke-linejoin="round"/>
<path d="M21.0552 10.7446L20.5728 11.887" stroke="#6FB472" stroke-width="1.5" stroke-linecap="round" stroke-linejoin="round"/>
<path d="M11.8586 15.4968L10.709 15.0288" stroke="#6FB472" stroke-width="1.5" stroke-linecap="round" stroke-linejoin="round"/>
<path d="M11.887 20.5728L10.7446 21.0552" stroke="#6FB472" stroke-width="1.5" stroke-linecap="round" stroke-linejoin="round"/>
<path d="M15.4968 24.1416L15.0288 25.2912" stroke="#6FB472" stroke-width="1.5" stroke-linecap="round" stroke-linejoin="round"/>
<path d="M15.4272 11.887L14.9448 10.7446" stroke="#6FB472" stroke-width="1.5" stroke-linecap="round" stroke-linejoin="round"/>
<path d="M25.2479 16.5576L24.5039 16.7064" stroke="#6FB472" stroke-width="1.5" stroke-linecap="round" stroke-linejoin="round"/>
<path d="M24.1439 13.8936L23.5127 14.316" stroke="#6FB472" stroke-width="1.5" stroke-linecap="round" stroke-linejoin="round"/>
<path d="M22.1065 11.856L21.6841 12.4872" stroke="#6FB472" stroke-width="1.5" stroke-linecap="round" stroke-linejoin="round"/>
<path d="M19.4423 10.752L19.2935 11.496" stroke="#6FB472" stroke-width="1.5" stroke-linecap="round" stroke-linejoin="round"/>
<path d="M24.5039 19.2935L25.2479 19.4423" stroke="#6FB472" stroke-width="1.5" stroke-linecap="round" stroke-linejoin="round"/>
<path d="M23.5127 21.6841L24.1439 22.1065" stroke="#6FB472" stroke-width="1.5" stroke-linecap="round" stroke-linejoin="round"/>
<path d="M21.6841 23.5127L22.1065 24.1439" stroke="#6FB472" stroke-width="1.5" stroke-linecap="round" stroke-linejoin="round"/>
<path d="M19.2935 24.5039L19.4423 25.2479" stroke="#6FB472" stroke-width="1.5" stroke-linecap="round" stroke-linejoin="round"/>
<path d="M11.496 16.7064L10.752 16.5576" stroke="#6FB472" stroke-width="1.5" stroke-linecap="round" stroke-linejoin="round"/>
<path d="M12.4872 14.316L11.856 13.8936" stroke="#6FB472" stroke-width="1.5" stroke-linecap="round" stroke-linejoin="round"/>
<path d="M14.316 12.4872L13.8936 11.856" stroke="#6FB472" stroke-width="1.5" stroke-linecap="round" stroke-linejoin="round"/>
<path d="M16.7064 11.496L16.5576 10.752" stroke="#6FB472" stroke-width="1.5" stroke-linecap="round" stroke-linejoin="round"/>
<path d="M10.752 19.4423L11.496 19.2935" stroke="#6FB472" stroke-width="1.5" stroke-linecap="round" stroke-linejoin="round"/>
<path d="M11.856 22.1065L12.4872 21.6841" stroke="#6FB472" stroke-width="1.5" stroke-linecap="round" stroke-linejoin="round"/>
<path d="M13.8936 24.1439L14.316 23.5127" stroke="#6FB472" stroke-width="1.5" stroke-linecap="round" stroke-linejoin="round"/>
<path d="M16.5576 25.2479L16.7064 24.5039" stroke="#6FB472" stroke-width="1.5" stroke-linecap="round" stroke-linejoin="round"/>
<path d="M13.8935 14.1046C13.8935 14.1046 12.4223 15.499 13.3103 17.3806C14.1983 19.2622 16.7063 16.9966 16.7063 16.9966C16.7063 16.9966 18.0527 15.7774 17.5823 14.6422C17.1119 13.507 15.3839 12.859 13.8935 14.1046Z" stroke="#6FB472" stroke-width="1.5" stroke-linecap="round" stroke-linejoin="round"/>
<path d="M14.1049 14.5895C14.1049 14.5895 13.3849 15.7007 13.8049 16.2263C14.2249 16.7519 15.1321 16.2263 15.1321 16.2263C15.1321 16.2263 17.2465 14.6999 15.9409 14.1047C15.6266 13.957 15.2705 13.9247 14.9348 14.0133C14.5991 14.102 14.3053 14.306 14.1049 14.5895Z" stroke="#6FB472" stroke-width="1.5" stroke-linecap="round" stroke-linejoin="round"/>
<path d="M17.6232 17.8368C17.6232 17.8368 16.9824 18.5568 17.6232 19.1712C18.264 19.7856 18.972 19.1448 19.0632 18.9C19.1544 18.6552 19.2408 17.8248 18.6072 17.7168C17.9736 17.6088 17.9448 17.6064 17.6232 17.8368Z" stroke="#6FB472" stroke-width="1.5" stroke-linecap="round" stroke-linejoin="round"/>
<path d="M13.6968 20.5058C13.6267 20.8053 13.665 21.1199 13.8048 21.3938C14.0448 21.7682 14.5968 22.1858 14.9712 21.9938C15.3456 21.8018 15.3096 21.0338 15.1176 20.705C14.9856 20.4842 14.4864 20.1218 14.1576 20.177C14.0559 20.1759 13.9564 20.2072 13.8736 20.2663C13.7908 20.3254 13.7289 20.4093 13.6968 20.5058Z" stroke="#6FB472" stroke-width="1.5" stroke-linecap="round" stroke-linejoin="round"/>
<path d="M19.8214 21.3046C19.4854 21.3454 18.3094 21.5902 18.5374 22.3174C18.7654 23.0446 19.9198 22.8646 19.9198 22.8646C19.9198 22.8646 20.7238 22.7734 21.1198 22.4326C21.2074 22.3598 21.2719 22.2632 21.3056 22.1545C21.3394 22.0458 21.3408 21.9297 21.3098 21.8201C21.2788 21.7106 21.2167 21.6124 21.131 21.5375C21.0453 21.4626 20.9397 21.4142 20.827 21.3982C20.5017 21.2985 20.1595 21.2666 19.8214 21.3046Z" stroke="#6FB472" stroke-width="1.5" stroke-linecap="round" stroke-linejoin="round"/>
<path d="M21.7658 15.0911C21.4034 14.9999 20.8994 15.5711 21.005 16.3751C21.1106 17.1791 21.3794 17.7983 22.001 17.8415C22.6226 17.8847 23.069 16.9871 23.0162 16.7063C22.9826 16.5167 22.8314 15.6335 22.5362 15.4343C22.305 15.2693 22.043 15.1526 21.7658 15.0911Z" stroke="#6FB472" stroke-width="1.5" stroke-linecap="round" stroke-linejoin="round"/>
<path d="M18.7369 12.7053C18.7369 12.7053 19.4857 12.4173 19.7641 12.9189C20.0425 13.4205 19.4017 13.7109 19.1641 13.6389C18.9265 13.5669 18.6193 13.3989 18.5881 13.1445C18.5569 12.8901 18.5881 12.7485 18.7369 12.7053Z" stroke="#6FB472" stroke-width="1.5" stroke-linecap="round" stroke-linejoin="round"/>
</svg>
