<svg width="36" height="36" viewBox="0 0 36 36" fill="none" xmlns="http://www.w3.org/2000/svg">
<rect width="36" height="36" rx="5" fill="#ECF0FC"/>
<path d="M7.99902 24.5513C7.99902 26.1342 9.28715 27.4223 10.8701 27.4223H25.1286C26.7115 27.4223 27.9996 26.1347 27.9996 24.5513V13.853C27.9996 12.27 26.7115 10.9819 25.1286 10.9819H19.8101L20.8793 9.91266C21.1428 10.0359 21.4362 10.1053 21.7461 10.1053C22.8776 10.1053 23.7987 9.18469 23.7987 8.05266C23.7987 6.92109 22.8781 6 21.7461 6C20.614 6 19.6934 6.92063 19.6934 8.05266C19.6934 8.32594 19.7473 8.58656 19.8448 8.82562L18.1475 10.523L16.4501 8.82562C16.5476 8.58703 16.6015 8.32594 16.6015 8.05266C16.6015 6.92109 15.6809 6 14.5489 6C13.4168 6 12.4962 6.92063 12.4962 8.05266C12.4962 9.18422 13.4168 10.1053 14.5489 10.1053C14.8582 10.1053 15.1521 10.0359 15.4156 9.91266L16.4848 10.9819H10.8701C9.28715 10.9819 7.99902 12.2695 7.99902 13.853V24.5513ZM21.7456 7.50047C22.0503 7.50047 22.2982 7.74844 22.2982 8.05313C22.2982 8.35781 22.0503 8.60578 21.7456 8.60578C21.4409 8.60578 21.1929 8.35781 21.1929 8.05313C21.1929 7.74844 21.4409 7.50047 21.7456 7.50047ZM13.9971 8.05313C13.9971 7.74844 14.2451 7.50047 14.5498 7.50047C14.8545 7.50047 15.1025 7.74844 15.1025 8.05313C15.1025 8.35781 14.8545 8.60578 14.5498 8.60578C14.2451 8.60578 13.9971 8.35781 13.9971 8.05313ZM9.49902 13.853C9.49902 13.0969 10.114 12.4819 10.8701 12.4819H25.1286C25.8846 12.4819 26.4996 13.0969 26.4996 13.853V24.5513C26.4996 25.3073 25.8846 25.9223 25.1286 25.9223H10.8701C10.114 25.9223 9.49902 25.3073 9.49902 24.5513V13.853Z" fill="#4169E1"/>
<path d="M12.2324 24.8956H19.8538C20.7782 24.8956 21.5305 24.1438 21.5305 23.2189V15.1845C21.5305 14.2602 20.7786 13.5078 19.8538 13.5078H12.2324C11.308 13.5078 10.5557 14.2597 10.5557 15.1845V23.2189C10.5557 24.1438 11.308 24.8956 12.2324 24.8956ZM12.0557 15.185C12.0557 15.0875 12.1349 15.0083 12.2324 15.0083H19.8538C19.9513 15.0083 20.0305 15.0875 20.0305 15.185V23.2194C20.0305 23.3169 19.9513 23.3961 19.8538 23.3961H12.2324C12.1349 23.3961 12.0557 23.3169 12.0557 23.2194V15.185Z" fill="#4169E1"/>
<path d="M24.0378 18.8388C25.1848 18.8388 26.1186 17.9055 26.1186 16.758C26.1186 15.611 25.1853 14.6777 24.0378 14.6777C22.8903 14.6777 21.957 15.611 21.957 16.758C21.957 17.9055 22.8908 18.8388 24.0378 18.8388ZM24.0378 16.1777C24.358 16.1777 24.6186 16.4384 24.6186 16.758C24.6186 17.0777 24.358 17.3388 24.0378 17.3388C23.7177 17.3388 23.457 17.0782 23.457 16.758C23.457 16.4379 23.7177 16.1777 24.0378 16.1777Z" fill="#4169E1"/>
<path d="M24.0378 23.7265C25.1848 23.7265 26.1186 22.7932 26.1186 21.6462C26.1186 20.4992 25.1853 19.5654 24.0378 19.5654C22.8903 19.5654 21.957 20.4987 21.957 21.6462C21.957 22.7932 22.8908 23.7265 24.0378 23.7265ZM24.0378 21.0654C24.358 21.0654 24.6186 21.3261 24.6186 21.6462C24.6186 21.9664 24.358 22.2265 24.0378 22.2265C23.7177 22.2265 23.457 21.9659 23.457 21.6462C23.457 21.3265 23.7177 21.0654 24.0378 21.0654Z" fill="#4169E1"/>
</svg>
