<svg width="36" height="37" viewBox="0 0 36 37" fill="none" xmlns="http://www.w3.org/2000/svg">
<rect y="0.291992" width="36" height="36" rx="5" fill="#13142F"/>
<path d="M7.99902 24.8432C7.99902 26.4262 9.28715 27.7143 10.8701 27.7143H25.1286C26.7115 27.7143 27.9996 26.4267 27.9996 24.8432V14.145C27.9996 12.562 26.7115 11.2739 25.1286 11.2739H19.8101L20.8793 10.2046C21.1428 10.3279 21.4362 10.3973 21.7461 10.3973C22.8776 10.3973 23.7987 9.47668 23.7987 8.34465C23.7987 7.21309 22.8781 6.29199 21.7461 6.29199C20.614 6.29199 19.6934 7.21262 19.6934 8.34465C19.6934 8.61793 19.7473 8.87855 19.8448 9.11762L18.1475 10.815L16.4501 9.11762C16.5476 8.87902 16.6015 8.61793 16.6015 8.34465C16.6015 7.21309 15.6809 6.29199 14.5489 6.29199C13.4168 6.29199 12.4962 7.21262 12.4962 8.34465C12.4962 9.47621 13.4168 10.3973 14.5489 10.3973C14.8582 10.3973 15.1521 10.3279 15.4156 10.2046L16.4848 11.2739H10.8701C9.28715 11.2739 7.99902 12.5615 7.99902 14.145V24.8432ZM21.7456 7.79246C22.0503 7.79246 22.2982 8.04043 22.2982 8.34512C22.2982 8.6498 22.0503 8.89777 21.7456 8.89777C21.4409 8.89777 21.1929 8.6498 21.1929 8.34512C21.1929 8.04043 21.4409 7.79246 21.7456 7.79246ZM13.9971 8.34512C13.9971 8.04043 14.2451 7.79246 14.5498 7.79246C14.8545 7.79246 15.1025 8.04043 15.1025 8.34512C15.1025 8.6498 14.8545 8.89777 14.5498 8.89777C14.2451 8.89777 13.9971 8.6498 13.9971 8.34512ZM9.49902 14.145C9.49902 13.3889 10.114 12.7739 10.8701 12.7739H25.1286C25.8846 12.7739 26.4996 13.3889 26.4996 14.145V24.8432C26.4996 25.5993 25.8846 26.2143 25.1286 26.2143H10.8701C10.114 26.2143 9.49902 25.5993 9.49902 24.8432V14.145Z" fill="#4169E1"/>
<path d="M12.2324 25.1876H19.8538C20.7782 25.1876 21.5305 24.4357 21.5305 23.5109V15.4765C21.5305 14.5521 20.7786 13.7998 19.8538 13.7998H12.2324C11.308 13.7998 10.5557 14.5517 10.5557 15.4765V23.5109C10.5557 24.4357 11.308 25.1876 12.2324 25.1876ZM12.0557 15.477C12.0557 15.3795 12.1349 15.3003 12.2324 15.3003H19.8538C19.9513 15.3003 20.0305 15.3795 20.0305 15.477V23.5114C20.0305 23.6089 19.9513 23.6881 19.8538 23.6881H12.2324C12.1349 23.6881 12.0557 23.6089 12.0557 23.5114V15.477Z" fill="#4169E1"/>
<path d="M24.0378 19.1308C25.1848 19.1308 26.1186 18.1975 26.1186 17.05C26.1186 15.903 25.1853 14.9697 24.0378 14.9697C22.8903 14.9697 21.957 15.903 21.957 17.05C21.957 18.1975 22.8908 19.1308 24.0378 19.1308ZM24.0378 16.4697C24.358 16.4697 24.6186 16.7304 24.6186 17.05C24.6186 17.3697 24.358 17.6308 24.0378 17.6308C23.7177 17.6308 23.457 17.3702 23.457 17.05C23.457 16.7299 23.7177 16.4697 24.0378 16.4697Z" fill="#4169E1"/>
<path d="M24.0378 24.0185C25.1848 24.0185 26.1186 23.0852 26.1186 21.9382C26.1186 20.7912 25.1853 19.8574 24.0378 19.8574C22.8903 19.8574 21.957 20.7907 21.957 21.9382C21.957 23.0852 22.8908 24.0185 24.0378 24.0185ZM24.0378 21.3574C24.358 21.3574 24.6186 21.618 24.6186 21.9382C24.6186 22.2584 24.358 22.5185 24.0378 22.5185C23.7177 22.5185 23.457 22.2579 23.457 21.9382C23.457 21.6185 23.7177 21.3574 24.0378 21.3574Z" fill="#4169E1"/>
</svg>
