<svg width="20" height="20" viewBox="0 0 20 20" fill="none" xmlns="http://www.w3.org/2000/svg">
<path d="M12.8065 9.53508C12.8065 11.1084 11.5351 12.3797 9.96184 12.3797C8.38854 12.3797 7.11719 11.1084 7.11719 9.53508C7.11719 7.96178 8.38854 6.69043 9.96184 6.69043C11.5351 6.69043 12.8065 7.96178 12.8065 9.53508Z" stroke="#292D32" stroke-width="1.19189" stroke-linecap="round" stroke-linejoin="round"/>
<path d="M9.96163 16.1066C12.7666 16.1066 15.3808 14.4538 17.2004 11.5933C17.9155 10.4729 17.9155 8.58973 17.2004 7.46935C15.3808 4.60881 12.7666 2.95605 9.96163 2.95605C7.15671 2.95605 4.5425 4.60881 2.72287 7.46935C2.00774 8.58973 2.00774 10.4729 2.72287 11.5933C4.5425 14.4538 7.15671 16.1066 9.96163 16.1066Z" stroke="#292D32" stroke-width="1.19189" stroke-linecap="round" stroke-linejoin="round"/>
</svg>
