<svg width="36" height="37" viewBox="0 0 36 37" fill="none" xmlns="http://www.w3.org/2000/svg">
<rect y="0.291992" width="36" height="36" rx="5" fill="#FDF5E6"/>
<path d="M10.0362 16.364C10.3723 15.2697 11.0031 14.289 11.8595 13.5293C11.3936 13.1566 11.8595 10.8409 11.8595 10.8409C11.8595 10.8409 13.7227 11.6659 14.0554 12.052C14.0554 12.052 15.4927 10.3086 19.6583 10.3086C23.8239 10.3086 27.75 13.5293 27.75 17.828C27.75 22.1267 24.6358 23.4975 24.6358 23.4975C24.4734 24.2559 24.2233 24.9928 23.8905 25.6934H22.24C21.9767 25.2884 21.7412 24.866 21.535 24.4291C21.535 24.4291 20.2175 24.5888 19.2725 24.5888C18.6066 24.5752 17.9431 24.504 17.2895 24.3758C17.2332 24.844 17.0741 25.2939 16.8237 25.6934H15.0269C14.468 25.2143 14.1885 23.7104 14.1885 23.7104C14.1885 23.7104 9.66352 21.661 8.70527 20.4365C8.18627 19.4649 8.25277 17.3089 8.25277 17.3089C8.75592 16.8456 9.37023 16.5201 10.0362 16.364Z" stroke="#EF9B00" stroke-width="1.3" stroke-linecap="round" stroke-linejoin="round"/>
<path d="M15.7725 14.8896C16.8387 14.1231 18.1343 13.7428 19.4457 13.8116C20.8786 13.788 22.2802 14.2319 23.4383 15.076" stroke="#EF9B00" stroke-width="1.3" stroke-linecap="round" stroke-linejoin="round"/>
<path d="M11.8066 17.0186C12.0137 17.0186 12.1816 16.8507 12.1816 16.6436C12.1816 16.4364 12.0137 16.2686 11.8066 16.2686C11.5995 16.2686 11.4316 16.4364 11.4316 16.6436C11.4316 16.8507 11.5995 17.0186 11.8066 17.0186Z" fill="#EF9B00"/>
</svg>
