<svg width="36" height="37" viewBox="0 0 36 37" fill="none" xmlns="http://www.w3.org/2000/svg">
<rect y="0.707031" width="36" height="36" rx="5" fill="#13142F"/>
<path fill-rule="evenodd" clip-rule="evenodd" d="M25.1324 21C23.9351 22.9548 22.1619 25.0631 19.813 27.325L19.1123 27.9885C18.9928 28.0998 18.8719 28.2115 18.7497 28.3235L18 29C17.617 28.6596 17.2463 28.3224 16.8877 27.9885L16.187 27.325C13.8381 25.0631 12.0649 22.9548 10.8676 21L13.2604 21C14.3214 22.5029 15.7601 24.138 17.5851 25.8946L18 26.289L18.0695 26.2242C20.0593 24.3421 21.6125 22.5964 22.7396 21L25.1324 21ZM15 12.7639L18 18.763L19.5 15.7639L20.618 18H28V20H19.618L18 23.2361L15 17.236L13.618 20H8V18H12.381L15 12.7639ZM21.6 10C24.5823 10 27 12.4177 27 15.4C27 15.9179 26.9423 16.4512 26.8268 16.9999L24.7716 17C24.9043 16.51 24.979 16.0424 24.9961 15.5979L25 15.4C25 13.5223 23.4778 12 21.6 12C20.8274 12 20.0996 12.2565 19.5088 12.7198L19.3358 12.8649L18.0016 14.061L16.6667 12.8657C16.0466 12.3106 15.2501 12 14.4 12C12.5222 12 11 13.5222 11 15.4C11 15.9031 11.0759 16.4367 11.2284 17L9.17321 16.9999C9.05774 16.4512 9 15.9179 9 15.4C9 12.4177 11.4177 10 14.4 10C15.7834 10 17.0453 10.5202 18.0008 11.3757C18.9555 10.5199 20.217 10 21.6 10Z" fill="#FF4D4D"/>
</svg>
