<svg width="36" height="36" viewBox="0 0 36 36" fill="none" xmlns="http://www.w3.org/2000/svg">
<rect width="36" height="36" rx="5" fill="#13142F"/>
<path d="M18 28C23.5228 28 28 23.5228 28 18C28 12.4772 23.5228 8 18 8C12.4772 8 8 12.4772 8 18C8 23.5228 12.4772 28 18 28Z" stroke="#AFAEAE" stroke-width="1.5"/>
<path d="M12 10.71C12.78 11.421 14.388 13.363 14.575 15.447C14.75 17.396 16.035 18.98 18 19C18.755 19.008 19.518 18.463 19.516 17.708C19.516 17.475 19.477 17.236 19.417 17.016C19.3174 16.6788 19.347 16.3166 19.5 16C20.11 14.743 21.31 14.405 22.26 13.722C22.681 13.419 23.066 13.099 23.235 12.842C23.704 12.132 24.172 10.711 23.938 10M28 19C27.67 19.931 27.438 22.375 23.718 22.414C23.718 22.414 20.425 22.414 19.437 24.276C18.646 25.766 19.107 27.379 19.437 28" stroke="#AFAEAE" stroke-width="1.5"/>
</svg>
