<svg width="36" height="37" viewBox="0 0 36 37" fill="none" xmlns="http://www.w3.org/2000/svg">
<rect y="0.291992" width="36" height="36" rx="5" fill="#13142F"/>
<path d="M18 28.292C23.5228 28.292 28 23.8148 28 18.292C28 12.7691 23.5228 8.29199 18 8.29199C12.4772 8.29199 8 12.7691 8 18.292C8 23.8148 12.4772 28.292 18 28.292Z" stroke="#AFAEAE" stroke-width="1.5"/>
<path d="M12 11.002C12.78 11.713 14.388 13.655 14.575 15.739C14.75 17.688 16.035 19.272 18 19.292C18.755 19.3 19.518 18.755 19.516 18C19.516 17.767 19.477 17.528 19.417 17.308C19.3174 16.9708 19.347 16.6086 19.5 16.292C20.11 15.035 21.31 14.697 22.26 14.014C22.681 13.711 23.066 13.391 23.235 13.134C23.704 12.424 24.172 11.003 23.938 10.292M28 19.292C27.67 20.223 27.438 22.667 23.718 22.706C23.718 22.706 20.425 22.706 19.437 24.568C18.646 26.058 19.107 27.671 19.437 28.292" stroke="#AFAEAE" stroke-width="1.5"/>
</svg>
