<svg width="36" height="37" viewBox="0 0 36 37" fill="none" xmlns="http://www.w3.org/2000/svg">
<rect y="0.291992" width="36" height="36" rx="5" fill="#FFEDED"/>
<path d="M25.498 26.2451H10.498C9.67305 26.2451 8.99805 25.5701 8.99805 24.7451V15.7451C8.99805 14.9201 9.67305 14.2451 10.498 14.2451H25.498C26.323 14.2451 26.998 14.9201 26.998 15.7451V24.7451C26.998 25.5701 26.323 26.2451 25.498 26.2451Z" stroke="#FF4D4D" stroke-width="1.5" stroke-miterlimit="10" stroke-linejoin="round"/>
<path d="M21.002 23.248C22.6588 23.248 24.002 21.9049 24.002 20.248C24.002 18.5912 22.6588 17.248 21.002 17.248C19.3451 17.248 18.002 18.5912 18.002 20.248C18.002 21.9049 19.3451 23.248 21.002 23.248Z" stroke="#FF4D4D" stroke-width="1.5" stroke-miterlimit="10" stroke-linejoin="round"/>
<path d="M12 17.248H15.75" stroke="#FF4D4D" stroke-width="1.5" stroke-miterlimit="10" stroke-linecap="round" stroke-linejoin="round"/>
<path d="M12 20.251H14.25" stroke="#FF4D4D" stroke-width="1.5" stroke-miterlimit="10" stroke-linecap="round" stroke-linejoin="round"/>
<path d="M12 23.2539H15.75" stroke="#FF4D4D" stroke-width="1.5" stroke-miterlimit="10" stroke-linecap="round" stroke-linejoin="round"/>
<path d="M26.25 8.25098L10.5 14.251" stroke="#FF4D4D" stroke-width="1.5" stroke-miterlimit="10" stroke-linecap="round" stroke-linejoin="round"/>
<path d="M11.252 27.748V26.248" stroke="#FF4D4D" stroke-width="1.5" stroke-miterlimit="10" stroke-linecap="round" stroke-linejoin="round"/>
<path d="M24.75 27.748V26.248" stroke="#FF4D4D" stroke-width="1.5" stroke-miterlimit="10" stroke-linecap="round" stroke-linejoin="round"/>
</svg>
