<svg width="36" height="37" viewBox="0 0 36 37" fill="none" xmlns="http://www.w3.org/2000/svg">
<rect y="0.291992" width="36" height="36" rx="5" fill="#13142F"/>
<path d="M25.4985 26.2451H10.4985C9.67354 26.2451 8.99854 25.5701 8.99854 24.7451V15.7451C8.99854 14.9201 9.67354 14.2451 10.4985 14.2451H25.4985C26.3235 14.2451 26.9985 14.9201 26.9985 15.7451V24.7451C26.9985 25.5701 26.3235 26.2451 25.4985 26.2451Z" stroke="#FF4D4D" stroke-width="1.5" stroke-miterlimit="10" stroke-linejoin="round"/>
<path d="M21.0015 23.248C22.6583 23.248 24.0015 21.9049 24.0015 20.248C24.0015 18.5912 22.6583 17.248 21.0015 17.248C19.3446 17.248 18.0015 18.5912 18.0015 20.248C18.0015 21.9049 19.3446 23.248 21.0015 23.248Z" stroke="#FF4D4D" stroke-width="1.5" stroke-miterlimit="10" stroke-linejoin="round"/>
<path d="M12 17.248H15.75" stroke="#FF4D4D" stroke-width="1.5" stroke-miterlimit="10" stroke-linecap="round" stroke-linejoin="round"/>
<path d="M12 20.251H14.25" stroke="#FF4D4D" stroke-width="1.5" stroke-miterlimit="10" stroke-linecap="round" stroke-linejoin="round"/>
<path d="M12 23.2539H15.75" stroke="#FF4D4D" stroke-width="1.5" stroke-miterlimit="10" stroke-linecap="round" stroke-linejoin="round"/>
<path d="M26.25 8.25098L10.5 14.251" stroke="#FF4D4D" stroke-width="1.5" stroke-miterlimit="10" stroke-linecap="round" stroke-linejoin="round"/>
<path d="M11.2515 27.748V26.248" stroke="#FF4D4D" stroke-width="1.5" stroke-miterlimit="10" stroke-linecap="round" stroke-linejoin="round"/>
<path d="M24.75 27.748V26.248" stroke="#FF4D4D" stroke-width="1.5" stroke-miterlimit="10" stroke-linecap="round" stroke-linejoin="round"/>
</svg>
