<svg width="36" height="37" viewBox="0 0 36 37" fill="none" xmlns="http://www.w3.org/2000/svg">
<rect y="0.291992" width="36" height="36" rx="5" fill="#13142F"/>
<g clip-path="url(#clip0_4177_20893)">
<mask id="path-2-outside-1_4177_20893" maskUnits="userSpaceOnUse" x="7.37744" y="7.8125" width="20" height="20" fill="black">
<rect fill="white" x="7.37744" y="7.8125" width="20" height="20"/>
<path d="M26.2308 10.214L26.8455 9.59927C27.0255 9.41927 27.0255 9.12747 26.8455 8.94752C26.6655 8.76747 26.3737 8.76752 26.1938 8.94752L25.579 9.56228L22.6124 8.90425C22.364 8.84927 22.1178 9.00597 22.0627 9.25441C22.0075 9.50289 22.1643 9.74904 22.4128 9.80416L24.8063 10.335L23.6765 11.4648C22.7706 10.598 21.6856 9.9175 20.4833 9.48443C20.4727 9.47974 20.4621 9.4751 20.451 9.47121C20.4415 9.46783 20.4324 9.46591 20.4231 9.46324C19.4844 9.13267 18.4757 8.95221 17.4255 8.95221C14.9172 8.95221 12.6443 9.97835 11.0039 11.6326C10.9715 11.6581 10.9429 11.6873 10.9189 11.7196C9.3464 13.3481 8.37744 15.563 8.37744 18.0003C8.37744 19.7818 8.89527 21.4446 9.78791 22.8465C9.80451 22.8809 9.8256 22.9134 9.85077 22.9432C11.468 25.4132 14.2591 27.0484 17.4255 27.0484C18.1147 27.0484 18.7859 26.9706 19.4313 26.8239C19.4379 26.8225 19.4446 26.8218 19.4513 26.8201C19.4533 26.8197 19.4552 26.8188 19.4572 26.8183C23.4713 25.8938 26.4736 22.2912 26.4736 18.0003C26.4736 15.7646 25.6581 13.7159 24.3093 12.1354L25.458 10.9868L25.9888 13.3802C26.0365 13.5951 26.227 13.7413 26.4384 13.7413C26.4714 13.7413 26.505 13.7378 26.5386 13.7303C26.7871 13.6752 26.9439 13.4291 26.8887 13.1806L26.2308 10.214ZM10.377 20.2267V21.5843L10.2371 21.7867C9.63876 20.6552 9.29919 19.3668 9.29919 18.0002C9.29924 16.0364 9.99955 14.2332 11.1634 12.8268L12.9346 16.6954L12.253 18.5C12.0892 18.6183 11.7724 18.8486 11.4585 19.0859C10.4767 19.8283 10.377 19.9649 10.377 20.2267ZM17.4255 26.1265C16.6753 26.1265 15.9488 26.0239 15.2585 25.8327L15.4725 23.4124L16.9143 22.291C17.3877 22.5953 17.8697 22.9246 18.0452 23.0734C18.1036 23.3584 18.2739 24.0802 18.7688 26.0148C18.3316 26.0878 17.8831 26.1265 17.4255 26.1265ZM19.6684 25.8115C19.3667 24.6303 18.9767 23.0768 18.9356 22.8384C18.9226 22.5736 18.7441 22.4039 17.9389 21.8617C17.5402 21.5932 17.1486 21.3477 17.1321 21.3374C16.9681 21.2347 16.7573 21.2453 16.6045 21.3643L14.7482 22.808C14.6472 22.8866 14.5834 23.0037 14.5721 23.1312L14.3603 25.5257C12.9021 24.9296 11.6546 23.9217 10.7629 22.647L11.2171 21.9901C11.2704 21.9131 11.2989 21.8216 11.2989 21.728V20.3917C11.5509 20.1631 12.2793 19.6136 12.903 19.1678C12.9772 19.1148 13.034 19.041 13.0662 18.9557L13.865 16.8411C13.9085 16.726 13.9041 16.5983 13.8529 16.4864L11.8442 12.0994C13.3011 10.7207 15.2662 9.87386 17.4255 9.87386C18.1554 9.87386 18.8628 9.97113 19.5361 10.1524C19.5353 10.1538 19.5344 10.155 19.5335 10.1564C19.3503 10.4349 19.1042 10.8248 18.8021 11.3151C18.2899 12.1464 17.7852 12.9936 17.7802 13.0021C17.7295 13.0871 17.7076 13.1861 17.7176 13.2845L18.0324 16.3834L16.4527 17.0358C16.2802 17.107 16.1678 17.2752 16.1678 17.4617V19.9769C16.1678 20.2315 16.3741 20.4378 16.6286 20.4378H19.0247C19.179 20.4378 19.323 20.3606 19.4085 20.2322L20.3285 18.8492L21.9624 19.2411C22.1231 19.2796 22.2925 19.2291 22.4057 19.1085L23.2712 18.1876L25.5501 18.1432C25.4868 21.7838 23.0181 24.8483 19.6684 25.8115ZM25.5143 17.222L23.059 17.2698C22.9349 17.2722 22.8171 17.3246 22.7321 17.4149L21.917 18.2823L20.2302 17.8777C20.0423 17.8326 19.8461 17.9097 19.739 18.0706L18.7775 19.516H17.0894V17.77L18.7014 17.1042C18.8896 17.0265 19.0045 16.8344 18.984 16.6318L18.6499 13.3431C19.3425 12.1834 20.1039 10.9488 20.442 10.4548C21.3795 10.8309 22.231 11.3771 22.9586 12.0546L22.0756 11.8588C21.827 11.8037 21.581 11.9604 21.5259 12.2089C21.4708 12.4574 21.6275 12.7036 21.876 12.7587L22.8238 12.9689L23.0341 13.9167C23.0817 14.1316 23.2722 14.278 23.4836 14.2779C23.5166 14.2779 23.5502 14.2743 23.5838 14.2669C23.8323 14.2117 23.9891 13.9656 23.934 13.7171L23.755 12.91C24.725 14.114 25.3594 15.599 25.5143 17.222Z"/>
</mask>
<path d="M26.2308 10.214L26.8455 9.59927C27.0255 9.41927 27.0255 9.12747 26.8455 8.94752C26.6655 8.76747 26.3737 8.76752 26.1938 8.94752L25.579 9.56228L22.6124 8.90425C22.364 8.84927 22.1178 9.00597 22.0627 9.25441C22.0075 9.50289 22.1643 9.74904 22.4128 9.80416L24.8063 10.335L23.6765 11.4648C22.7706 10.598 21.6856 9.9175 20.4833 9.48443C20.4727 9.47974 20.4621 9.4751 20.451 9.47121C20.4415 9.46783 20.4324 9.46591 20.4231 9.46324C19.4844 9.13267 18.4757 8.95221 17.4255 8.95221C14.9172 8.95221 12.6443 9.97835 11.0039 11.6326C10.9715 11.6581 10.9429 11.6873 10.9189 11.7196C9.3464 13.3481 8.37744 15.563 8.37744 18.0003C8.37744 19.7818 8.89527 21.4446 9.78791 22.8465C9.80451 22.8809 9.8256 22.9134 9.85077 22.9432C11.468 25.4132 14.2591 27.0484 17.4255 27.0484C18.1147 27.0484 18.7859 26.9706 19.4313 26.8239C19.4379 26.8225 19.4446 26.8218 19.4513 26.8201C19.4533 26.8197 19.4552 26.8188 19.4572 26.8183C23.4713 25.8938 26.4736 22.2912 26.4736 18.0003C26.4736 15.7646 25.6581 13.7159 24.3093 12.1354L25.458 10.9868L25.9888 13.3802C26.0365 13.5951 26.227 13.7413 26.4384 13.7413C26.4714 13.7413 26.505 13.7378 26.5386 13.7303C26.7871 13.6752 26.9439 13.4291 26.8887 13.1806L26.2308 10.214ZM10.377 20.2267V21.5843L10.2371 21.7867C9.63876 20.6552 9.29919 19.3668 9.29919 18.0002C9.29924 16.0364 9.99955 14.2332 11.1634 12.8268L12.9346 16.6954L12.253 18.5C12.0892 18.6183 11.7724 18.8486 11.4585 19.0859C10.4767 19.8283 10.377 19.9649 10.377 20.2267ZM17.4255 26.1265C16.6753 26.1265 15.9488 26.0239 15.2585 25.8327L15.4725 23.4124L16.9143 22.291C17.3877 22.5953 17.8697 22.9246 18.0452 23.0734C18.1036 23.3584 18.2739 24.0802 18.7688 26.0148C18.3316 26.0878 17.8831 26.1265 17.4255 26.1265ZM19.6684 25.8115C19.3667 24.6303 18.9767 23.0768 18.9356 22.8384C18.9226 22.5736 18.7441 22.4039 17.9389 21.8617C17.5402 21.5932 17.1486 21.3477 17.1321 21.3374C16.9681 21.2347 16.7573 21.2453 16.6045 21.3643L14.7482 22.808C14.6472 22.8866 14.5834 23.0037 14.5721 23.1312L14.3603 25.5257C12.9021 24.9296 11.6546 23.9217 10.7629 22.647L11.2171 21.9901C11.2704 21.9131 11.2989 21.8216 11.2989 21.728V20.3917C11.5509 20.1631 12.2793 19.6136 12.903 19.1678C12.9772 19.1148 13.034 19.041 13.0662 18.9557L13.865 16.8411C13.9085 16.726 13.9041 16.5983 13.8529 16.4864L11.8442 12.0994C13.3011 10.7207 15.2662 9.87386 17.4255 9.87386C18.1554 9.87386 18.8628 9.97113 19.5361 10.1524C19.5353 10.1538 19.5344 10.155 19.5335 10.1564C19.3503 10.4349 19.1042 10.8248 18.8021 11.3151C18.2899 12.1464 17.7852 12.9936 17.7802 13.0021C17.7295 13.0871 17.7076 13.1861 17.7176 13.2845L18.0324 16.3834L16.4527 17.0358C16.2802 17.107 16.1678 17.2752 16.1678 17.4617V19.9769C16.1678 20.2315 16.3741 20.4378 16.6286 20.4378H19.0247C19.179 20.4378 19.323 20.3606 19.4085 20.2322L20.3285 18.8492L21.9624 19.2411C22.1231 19.2796 22.2925 19.2291 22.4057 19.1085L23.2712 18.1876L25.5501 18.1432C25.4868 21.7838 23.0181 24.8483 19.6684 25.8115ZM25.5143 17.222L23.059 17.2698C22.9349 17.2722 22.8171 17.3246 22.7321 17.4149L21.917 18.2823L20.2302 17.8777C20.0423 17.8326 19.8461 17.9097 19.739 18.0706L18.7775 19.516H17.0894V17.77L18.7014 17.1042C18.8896 17.0265 19.0045 16.8344 18.984 16.6318L18.6499 13.3431C19.3425 12.1834 20.1039 10.9488 20.442 10.4548C21.3795 10.8309 22.231 11.3771 22.9586 12.0546L22.0756 11.8588C21.827 11.8037 21.581 11.9604 21.5259 12.2089C21.4708 12.4574 21.6275 12.7036 21.876 12.7587L22.8238 12.9689L23.0341 13.9167C23.0817 14.1316 23.2722 14.278 23.4836 14.2779C23.5166 14.2779 23.5502 14.2743 23.5838 14.2669C23.8323 14.2117 23.9891 13.9656 23.934 13.7171L23.755 12.91C24.725 14.114 25.3594 15.599 25.5143 17.222Z" fill="#AFAEAE"/>
<path d="M26.2308 10.214L26.8455 9.59927C27.0255 9.41927 27.0255 9.12747 26.8455 8.94752C26.6655 8.76747 26.3737 8.76752 26.1938 8.94752L25.579 9.56228L22.6124 8.90425C22.364 8.84927 22.1178 9.00597 22.0627 9.25441C22.0075 9.50289 22.1643 9.74904 22.4128 9.80416L24.8063 10.335L23.6765 11.4648C22.7706 10.598 21.6856 9.9175 20.4833 9.48443C20.4727 9.47974 20.4621 9.4751 20.451 9.47121C20.4415 9.46783 20.4324 9.46591 20.4231 9.46324C19.4844 9.13267 18.4757 8.95221 17.4255 8.95221C14.9172 8.95221 12.6443 9.97835 11.0039 11.6326C10.9715 11.6581 10.9429 11.6873 10.9189 11.7196C9.3464 13.3481 8.37744 15.563 8.37744 18.0003C8.37744 19.7818 8.89527 21.4446 9.78791 22.8465C9.80451 22.8809 9.8256 22.9134 9.85077 22.9432C11.468 25.4132 14.2591 27.0484 17.4255 27.0484C18.1147 27.0484 18.7859 26.9706 19.4313 26.8239C19.4379 26.8225 19.4446 26.8218 19.4513 26.8201C19.4533 26.8197 19.4552 26.8188 19.4572 26.8183C23.4713 25.8938 26.4736 22.2912 26.4736 18.0003C26.4736 15.7646 25.6581 13.7159 24.3093 12.1354L25.458 10.9868L25.9888 13.3802C26.0365 13.5951 26.227 13.7413 26.4384 13.7413C26.4714 13.7413 26.505 13.7378 26.5386 13.7303C26.7871 13.6752 26.9439 13.4291 26.8887 13.1806L26.2308 10.214ZM10.377 20.2267V21.5843L10.2371 21.7867C9.63876 20.6552 9.29919 19.3668 9.29919 18.0002C9.29924 16.0364 9.99955 14.2332 11.1634 12.8268L12.9346 16.6954L12.253 18.5C12.0892 18.6183 11.7724 18.8486 11.4585 19.0859C10.4767 19.8283 10.377 19.9649 10.377 20.2267ZM17.4255 26.1265C16.6753 26.1265 15.9488 26.0239 15.2585 25.8327L15.4725 23.4124L16.9143 22.291C17.3877 22.5953 17.8697 22.9246 18.0452 23.0734C18.1036 23.3584 18.2739 24.0802 18.7688 26.0148C18.3316 26.0878 17.8831 26.1265 17.4255 26.1265ZM19.6684 25.8115C19.3667 24.6303 18.9767 23.0768 18.9356 22.8384C18.9226 22.5736 18.7441 22.4039 17.9389 21.8617C17.5402 21.5932 17.1486 21.3477 17.1321 21.3374C16.9681 21.2347 16.7573 21.2453 16.6045 21.3643L14.7482 22.808C14.6472 22.8866 14.5834 23.0037 14.5721 23.1312L14.3603 25.5257C12.9021 24.9296 11.6546 23.9217 10.7629 22.647L11.2171 21.9901C11.2704 21.9131 11.2989 21.8216 11.2989 21.728V20.3917C11.5509 20.1631 12.2793 19.6136 12.903 19.1678C12.9772 19.1148 13.034 19.041 13.0662 18.9557L13.865 16.8411C13.9085 16.726 13.9041 16.5983 13.8529 16.4864L11.8442 12.0994C13.3011 10.7207 15.2662 9.87386 17.4255 9.87386C18.1554 9.87386 18.8628 9.97113 19.5361 10.1524C19.5353 10.1538 19.5344 10.155 19.5335 10.1564C19.3503 10.4349 19.1042 10.8248 18.8021 11.3151C18.2899 12.1464 17.7852 12.9936 17.7802 13.0021C17.7295 13.0871 17.7076 13.1861 17.7176 13.2845L18.0324 16.3834L16.4527 17.0358C16.2802 17.107 16.1678 17.2752 16.1678 17.4617V19.9769C16.1678 20.2315 16.3741 20.4378 16.6286 20.4378H19.0247C19.179 20.4378 19.323 20.3606 19.4085 20.2322L20.3285 18.8492L21.9624 19.2411C22.1231 19.2796 22.2925 19.2291 22.4057 19.1085L23.2712 18.1876L25.5501 18.1432C25.4868 21.7838 23.0181 24.8483 19.6684 25.8115ZM25.5143 17.222L23.059 17.2698C22.9349 17.2722 22.8171 17.3246 22.7321 17.4149L21.917 18.2823L20.2302 17.8777C20.0423 17.8326 19.8461 17.9097 19.739 18.0706L18.7775 19.516H17.0894V17.77L18.7014 17.1042C18.8896 17.0265 19.0045 16.8344 18.984 16.6318L18.6499 13.3431C19.3425 12.1834 20.1039 10.9488 20.442 10.4548C21.3795 10.8309 22.231 11.3771 22.9586 12.0546L22.0756 11.8588C21.827 11.8037 21.581 11.9604 21.5259 12.2089C21.4708 12.4574 21.6275 12.7036 21.876 12.7587L22.8238 12.9689L23.0341 13.9167C23.0817 14.1316 23.2722 14.278 23.4836 14.2779C23.5166 14.2779 23.5502 14.2743 23.5838 14.2669C23.8323 14.2117 23.9891 13.9656 23.934 13.7171L23.755 12.91C24.725 14.114 25.3594 15.599 25.5143 17.222Z" stroke="#AFAEAE" stroke-width="0.4" mask="url(#path-2-outside-1_4177_20893)"/>
<path d="M28.7896 16.779L28.7896 16.779C28.5744 16.5632 28.2262 16.5587 28.0054 16.7689L28.0054 16.769L26.7986 17.9192C26.5743 18.1329 26.5658 18.4879 26.7796 18.7122C26.8898 18.8278 27.0377 18.8861 27.1856 18.8861C27.3245 18.8861 27.464 18.8347 27.5725 18.7312L27.8196 18.4957C27.5597 24.0034 22.9974 28.4043 17.4266 28.4043C11.6895 28.4043 7.02175 23.7367 7.02175 17.9994C7.02175 12.2622 11.6895 7.59451 17.4266 7.59451C17.7364 7.59451 17.9875 7.34339 17.9875 7.03363C17.9875 6.72387 17.7364 6.47275 17.4266 6.47275C11.0708 6.47275 5.9 11.6436 5.9 17.9994C5.9 24.3553 11.0708 29.5261 17.4266 29.5261C23.608 29.5261 28.6683 24.6354 28.9416 18.5203L29.1419 18.7212L29.2127 18.6506L29.1419 18.7212C29.3605 18.9406 29.7157 18.9411 29.9351 18.7225C30.1545 18.5038 30.155 18.1486 29.9363 17.9292L29.8655 17.9998L29.9363 17.9292L28.7896 16.779Z" fill="#AFAEAE" stroke="#AFAEAE" stroke-width="0.2"/>
</g>
<defs>
<clipPath id="clip0_4177_20893">
<rect width="24" height="24" fill="white" transform="translate(6 6.00098)"/>
</clipPath>
</defs>
</svg>
