<svg width="36" height="37" viewBox="0 0 36 37" fill="none" xmlns="http://www.w3.org/2000/svg">
<rect y="0.291992" width="36" height="36" rx="5" fill="#E6E6E6"/>
<g clip-path="url(#clip0_4177_18306)">
<mask id="path-2-outside-1_4177_18306" maskUnits="userSpaceOnUse" x="7.37793" y="7.8125" width="20" height="20" fill="black">
<rect fill="white" x="7.37793" y="7.8125" width="20" height="20"/>
<path d="M26.2312 10.214L26.846 9.59927C27.026 9.41927 27.026 9.12747 26.846 8.94752C26.666 8.76747 26.3742 8.76752 26.1943 8.94752L25.5795 9.56228L22.6129 8.90425C22.3645 8.84927 22.1183 9.00597 22.0632 9.25441C22.008 9.50289 22.1648 9.74904 22.4133 9.80416L24.8068 10.335L23.677 11.4648C22.7711 10.598 21.686 9.9175 20.4838 9.48443C20.4732 9.47974 20.4626 9.4751 20.4515 9.47121C20.442 9.46783 20.4329 9.46591 20.4236 9.46324C19.4849 9.13267 18.4762 8.95221 17.4259 8.95221C14.9177 8.95221 12.6448 9.97835 11.0044 11.6326C10.972 11.6581 10.9434 11.6873 10.9194 11.7196C9.34688 13.3481 8.37793 15.563 8.37793 18.0003C8.37793 19.7818 8.89576 21.4446 9.7884 22.8465C9.805 22.8809 9.82609 22.9134 9.85126 22.9432C11.4685 25.4132 14.2596 27.0484 17.426 27.0484C18.1152 27.0484 18.7864 26.9706 19.4318 26.8239C19.4384 26.8225 19.4451 26.8218 19.4517 26.8201C19.4538 26.8197 19.4556 26.8188 19.4577 26.8183C23.4718 25.8938 26.4741 22.2912 26.4741 18.0003C26.4741 15.7646 25.6586 13.7159 24.3098 12.1354L25.4585 10.9868L25.9893 13.3802C26.037 13.5951 26.2275 13.7413 26.4389 13.7413C26.4719 13.7413 26.5055 13.7378 26.5391 13.7303C26.7876 13.6752 26.9444 13.4291 26.8892 13.1806L26.2312 10.214ZM10.3775 20.2267V21.5843L10.2376 21.7867C9.63924 20.6552 9.29968 19.3668 9.29968 18.0002C9.29973 16.0364 10 14.2332 11.1639 12.8268L12.9351 16.6954L12.2535 18.5C12.0896 18.6183 11.7729 18.8486 11.459 19.0859C10.4772 19.8283 10.3775 19.9649 10.3775 20.2267ZM17.426 26.1265C16.6758 26.1265 15.9492 26.0239 15.259 25.8327L15.473 23.4124L16.9148 22.291C17.3882 22.5953 17.8702 22.9246 18.0457 23.0734C18.1041 23.3584 18.2744 24.0802 18.7693 26.0148C18.3321 26.0878 17.8835 26.1265 17.426 26.1265ZM19.6689 25.8115C19.3672 24.6303 18.9772 23.0768 18.9361 22.8384C18.923 22.5736 18.7446 22.4039 17.9394 21.8617C17.5407 21.5932 17.1491 21.3477 17.1326 21.3374C16.9685 21.2347 16.7578 21.2453 16.605 21.3643L14.7487 22.808C14.6477 22.8866 14.5839 23.0037 14.5726 23.1312L14.3608 25.5257C12.9026 24.9296 11.6551 23.9217 10.7634 22.647L11.2176 21.9901C11.2709 21.9131 11.2994 21.8216 11.2994 21.728V20.3917C11.5514 20.1631 12.2798 19.6136 12.9035 19.1678C12.9777 19.1148 13.0345 19.041 13.0667 18.9557L13.8655 16.8411C13.909 16.726 13.9046 16.5983 13.8534 16.4864L11.8447 12.0994C13.3016 10.7207 15.2667 9.87386 17.426 9.87386C18.1558 9.87386 18.8633 9.97113 19.5366 10.1524C19.5357 10.1538 19.5349 10.155 19.534 10.1564C19.3508 10.4349 19.1047 10.8248 18.8026 11.3151C18.2904 12.1464 17.7857 12.9936 17.7807 13.0021C17.73 13.0871 17.7081 13.1861 17.7181 13.2845L18.0328 16.3834L16.4532 17.0358C16.2807 17.107 16.1682 17.2752 16.1682 17.4617V19.9769C16.1682 20.2315 16.3746 20.4378 16.6291 20.4378H19.0252C19.1795 20.4378 19.3235 20.3606 19.409 20.2322L20.329 18.8492L21.9629 19.2411C22.1236 19.2796 22.2929 19.2291 22.4062 19.1085L23.2716 18.1876L25.5506 18.1432C25.4873 21.7838 23.0186 24.8483 19.6689 25.8115ZM25.5148 17.222L23.0595 17.2698C22.9354 17.2722 22.8176 17.3246 22.7326 17.4149L21.9175 18.2823L20.2307 17.8777C20.0428 17.8326 19.8466 17.9097 19.7395 18.0706L18.778 19.516H17.0899V17.77L18.7018 17.1042C18.8901 17.0265 19.005 16.8344 18.9845 16.6318L18.6504 13.3431C19.343 12.1834 20.1044 10.9488 20.4425 10.4548C21.38 10.8309 22.2315 11.3771 22.9591 12.0546L22.0761 11.8588C21.8275 11.8037 21.5815 11.9604 21.5263 12.2089C21.4713 12.4574 21.628 12.7036 21.8765 12.7587L22.8243 12.9689L23.0346 13.9167C23.0822 14.1316 23.2727 14.278 23.4841 14.2779C23.5171 14.2779 23.5507 14.2743 23.5843 14.2669C23.8328 14.2117 23.9896 13.9656 23.9345 13.7171L23.7554 12.91C24.7255 14.114 25.3598 15.599 25.5148 17.222Z"/>
</mask>
<path d="M26.2312 10.214L26.846 9.59927C27.026 9.41927 27.026 9.12747 26.846 8.94752C26.666 8.76747 26.3742 8.76752 26.1943 8.94752L25.5795 9.56228L22.6129 8.90425C22.3645 8.84927 22.1183 9.00597 22.0632 9.25441C22.008 9.50289 22.1648 9.74904 22.4133 9.80416L24.8068 10.335L23.677 11.4648C22.7711 10.598 21.686 9.9175 20.4838 9.48443C20.4732 9.47974 20.4626 9.4751 20.4515 9.47121C20.442 9.46783 20.4329 9.46591 20.4236 9.46324C19.4849 9.13267 18.4762 8.95221 17.4259 8.95221C14.9177 8.95221 12.6448 9.97835 11.0044 11.6326C10.972 11.6581 10.9434 11.6873 10.9194 11.7196C9.34688 13.3481 8.37793 15.563 8.37793 18.0003C8.37793 19.7818 8.89576 21.4446 9.7884 22.8465C9.805 22.8809 9.82609 22.9134 9.85126 22.9432C11.4685 25.4132 14.2596 27.0484 17.426 27.0484C18.1152 27.0484 18.7864 26.9706 19.4318 26.8239C19.4384 26.8225 19.4451 26.8218 19.4517 26.8201C19.4538 26.8197 19.4556 26.8188 19.4577 26.8183C23.4718 25.8938 26.4741 22.2912 26.4741 18.0003C26.4741 15.7646 25.6586 13.7159 24.3098 12.1354L25.4585 10.9868L25.9893 13.3802C26.037 13.5951 26.2275 13.7413 26.4389 13.7413C26.4719 13.7413 26.5055 13.7378 26.5391 13.7303C26.7876 13.6752 26.9444 13.4291 26.8892 13.1806L26.2312 10.214ZM10.3775 20.2267V21.5843L10.2376 21.7867C9.63924 20.6552 9.29968 19.3668 9.29968 18.0002C9.29973 16.0364 10 14.2332 11.1639 12.8268L12.9351 16.6954L12.2535 18.5C12.0896 18.6183 11.7729 18.8486 11.459 19.0859C10.4772 19.8283 10.3775 19.9649 10.3775 20.2267ZM17.426 26.1265C16.6758 26.1265 15.9492 26.0239 15.259 25.8327L15.473 23.4124L16.9148 22.291C17.3882 22.5953 17.8702 22.9246 18.0457 23.0734C18.1041 23.3584 18.2744 24.0802 18.7693 26.0148C18.3321 26.0878 17.8835 26.1265 17.426 26.1265ZM19.6689 25.8115C19.3672 24.6303 18.9772 23.0768 18.9361 22.8384C18.923 22.5736 18.7446 22.4039 17.9394 21.8617C17.5407 21.5932 17.1491 21.3477 17.1326 21.3374C16.9685 21.2347 16.7578 21.2453 16.605 21.3643L14.7487 22.808C14.6477 22.8866 14.5839 23.0037 14.5726 23.1312L14.3608 25.5257C12.9026 24.9296 11.6551 23.9217 10.7634 22.647L11.2176 21.9901C11.2709 21.9131 11.2994 21.8216 11.2994 21.728V20.3917C11.5514 20.1631 12.2798 19.6136 12.9035 19.1678C12.9777 19.1148 13.0345 19.041 13.0667 18.9557L13.8655 16.8411C13.909 16.726 13.9046 16.5983 13.8534 16.4864L11.8447 12.0994C13.3016 10.7207 15.2667 9.87386 17.426 9.87386C18.1558 9.87386 18.8633 9.97113 19.5366 10.1524C19.5357 10.1538 19.5349 10.155 19.534 10.1564C19.3508 10.4349 19.1047 10.8248 18.8026 11.3151C18.2904 12.1464 17.7857 12.9936 17.7807 13.0021C17.73 13.0871 17.7081 13.1861 17.7181 13.2845L18.0328 16.3834L16.4532 17.0358C16.2807 17.107 16.1682 17.2752 16.1682 17.4617V19.9769C16.1682 20.2315 16.3746 20.4378 16.6291 20.4378H19.0252C19.1795 20.4378 19.3235 20.3606 19.409 20.2322L20.329 18.8492L21.9629 19.2411C22.1236 19.2796 22.2929 19.2291 22.4062 19.1085L23.2716 18.1876L25.5506 18.1432C25.4873 21.7838 23.0186 24.8483 19.6689 25.8115ZM25.5148 17.222L23.0595 17.2698C22.9354 17.2722 22.8176 17.3246 22.7326 17.4149L21.9175 18.2823L20.2307 17.8777C20.0428 17.8326 19.8466 17.9097 19.7395 18.0706L18.778 19.516H17.0899V17.77L18.7018 17.1042C18.8901 17.0265 19.005 16.8344 18.9845 16.6318L18.6504 13.3431C19.343 12.1834 20.1044 10.9488 20.4425 10.4548C21.38 10.8309 22.2315 11.3771 22.9591 12.0546L22.0761 11.8588C21.8275 11.8037 21.5815 11.9604 21.5263 12.2089C21.4713 12.4574 21.628 12.7036 21.8765 12.7587L22.8243 12.9689L23.0346 13.9167C23.0822 14.1316 23.2727 14.278 23.4841 14.2779C23.5171 14.2779 23.5507 14.2743 23.5843 14.2669C23.8328 14.2117 23.9896 13.9656 23.9345 13.7171L23.7554 12.91C24.7255 14.114 25.3598 15.599 25.5148 17.222Z" fill="black"/>
<path d="M26.2312 10.214L26.846 9.59927C27.026 9.41927 27.026 9.12747 26.846 8.94752C26.666 8.76747 26.3742 8.76752 26.1943 8.94752L25.5795 9.56228L22.6129 8.90425C22.3645 8.84927 22.1183 9.00597 22.0632 9.25441C22.008 9.50289 22.1648 9.74904 22.4133 9.80416L24.8068 10.335L23.677 11.4648C22.7711 10.598 21.686 9.9175 20.4838 9.48443C20.4732 9.47974 20.4626 9.4751 20.4515 9.47121C20.442 9.46783 20.4329 9.46591 20.4236 9.46324C19.4849 9.13267 18.4762 8.95221 17.4259 8.95221C14.9177 8.95221 12.6448 9.97835 11.0044 11.6326C10.972 11.6581 10.9434 11.6873 10.9194 11.7196C9.34688 13.3481 8.37793 15.563 8.37793 18.0003C8.37793 19.7818 8.89576 21.4446 9.7884 22.8465C9.805 22.8809 9.82609 22.9134 9.85126 22.9432C11.4685 25.4132 14.2596 27.0484 17.426 27.0484C18.1152 27.0484 18.7864 26.9706 19.4318 26.8239C19.4384 26.8225 19.4451 26.8218 19.4517 26.8201C19.4538 26.8197 19.4556 26.8188 19.4577 26.8183C23.4718 25.8938 26.4741 22.2912 26.4741 18.0003C26.4741 15.7646 25.6586 13.7159 24.3098 12.1354L25.4585 10.9868L25.9893 13.3802C26.037 13.5951 26.2275 13.7413 26.4389 13.7413C26.4719 13.7413 26.5055 13.7378 26.5391 13.7303C26.7876 13.6752 26.9444 13.4291 26.8892 13.1806L26.2312 10.214ZM10.3775 20.2267V21.5843L10.2376 21.7867C9.63924 20.6552 9.29968 19.3668 9.29968 18.0002C9.29973 16.0364 10 14.2332 11.1639 12.8268L12.9351 16.6954L12.2535 18.5C12.0896 18.6183 11.7729 18.8486 11.459 19.0859C10.4772 19.8283 10.3775 19.9649 10.3775 20.2267ZM17.426 26.1265C16.6758 26.1265 15.9492 26.0239 15.259 25.8327L15.473 23.4124L16.9148 22.291C17.3882 22.5953 17.8702 22.9246 18.0457 23.0734C18.1041 23.3584 18.2744 24.0802 18.7693 26.0148C18.3321 26.0878 17.8835 26.1265 17.426 26.1265ZM19.6689 25.8115C19.3672 24.6303 18.9772 23.0768 18.9361 22.8384C18.923 22.5736 18.7446 22.4039 17.9394 21.8617C17.5407 21.5932 17.1491 21.3477 17.1326 21.3374C16.9685 21.2347 16.7578 21.2453 16.605 21.3643L14.7487 22.808C14.6477 22.8866 14.5839 23.0037 14.5726 23.1312L14.3608 25.5257C12.9026 24.9296 11.6551 23.9217 10.7634 22.647L11.2176 21.9901C11.2709 21.9131 11.2994 21.8216 11.2994 21.728V20.3917C11.5514 20.1631 12.2798 19.6136 12.9035 19.1678C12.9777 19.1148 13.0345 19.041 13.0667 18.9557L13.8655 16.8411C13.909 16.726 13.9046 16.5983 13.8534 16.4864L11.8447 12.0994C13.3016 10.7207 15.2667 9.87386 17.426 9.87386C18.1558 9.87386 18.8633 9.97113 19.5366 10.1524C19.5357 10.1538 19.5349 10.155 19.534 10.1564C19.3508 10.4349 19.1047 10.8248 18.8026 11.3151C18.2904 12.1464 17.7857 12.9936 17.7807 13.0021C17.73 13.0871 17.7081 13.1861 17.7181 13.2845L18.0328 16.3834L16.4532 17.0358C16.2807 17.107 16.1682 17.2752 16.1682 17.4617V19.9769C16.1682 20.2315 16.3746 20.4378 16.6291 20.4378H19.0252C19.1795 20.4378 19.3235 20.3606 19.409 20.2322L20.329 18.8492L21.9629 19.2411C22.1236 19.2796 22.2929 19.2291 22.4062 19.1085L23.2716 18.1876L25.5506 18.1432C25.4873 21.7838 23.0186 24.8483 19.6689 25.8115ZM25.5148 17.222L23.0595 17.2698C22.9354 17.2722 22.8176 17.3246 22.7326 17.4149L21.9175 18.2823L20.2307 17.8777C20.0428 17.8326 19.8466 17.9097 19.7395 18.0706L18.778 19.516H17.0899V17.77L18.7018 17.1042C18.8901 17.0265 19.005 16.8344 18.9845 16.6318L18.6504 13.3431C19.343 12.1834 20.1044 10.9488 20.4425 10.4548C21.38 10.8309 22.2315 11.3771 22.9591 12.0546L22.0761 11.8588C21.8275 11.8037 21.5815 11.9604 21.5263 12.2089C21.4713 12.4574 21.628 12.7036 21.8765 12.7587L22.8243 12.9689L23.0346 13.9167C23.0822 14.1316 23.2727 14.278 23.4841 14.2779C23.5171 14.2779 23.5507 14.2743 23.5843 14.2669C23.8328 14.2117 23.9896 13.9656 23.9345 13.7171L23.7554 12.91C24.7255 14.114 25.3598 15.599 25.5148 17.222Z" stroke="black" stroke-width="0.4" mask="url(#path-2-outside-1_4177_18306)"/>
<path d="M28.7896 16.7795L28.7896 16.7795C28.5744 16.5637 28.2262 16.5592 28.0054 16.7694L28.0054 16.7695L26.7986 17.9197C26.5743 18.1334 26.5658 18.4884 26.7796 18.7127C26.8898 18.8283 27.0377 18.8866 27.1856 18.8866C27.3245 18.8866 27.464 18.8352 27.5725 18.7317L27.8196 18.4962C27.5597 24.0039 22.9974 28.4048 17.4266 28.4048C11.6895 28.4048 7.02175 23.7372 7.02175 17.9999C7.02175 12.2627 11.6895 7.59499 17.4266 7.59499C17.7364 7.59499 17.9875 7.34388 17.9875 7.03412C17.9875 6.72436 17.7364 6.47324 17.4266 6.47324C11.0708 6.47324 5.9 11.644 5.9 17.9999C5.9 24.3558 11.0708 29.5266 17.4266 29.5266C23.608 29.5266 28.6683 24.6359 28.9416 18.5208L29.1419 18.7217L29.2127 18.6511L29.1419 18.7217C29.3605 18.9411 29.7157 18.9416 29.9351 18.7229C30.1545 18.5043 30.155 18.1491 29.9363 17.9297L29.8655 18.0003L29.9363 17.9297L28.7896 16.7795Z" fill="black" stroke="black" stroke-width="0.2"/>
</g>
<defs>
<clipPath id="clip0_4177_18306">
<rect width="24" height="24" fill="white" transform="translate(6 6.00098)"/>
</clipPath>
</defs>
</svg>
