<svg width="36" height="37" viewBox="0 0 36 37" fill="none" xmlns="http://www.w3.org/2000/svg">
<rect y="0.291992" width="36" height="36" rx="5" fill="#ECF0FC"/>
<path d="M9 18.501L9.84375 15.501M9.84375 15.501L11 11.3899C11 11.3899 11.25 10.501 12 10.501C12.75 10.501 13 11.3899 13 11.3899L14.1562 15.501M9.84375 15.501H14.1562M14.1562 15.501L15 18.501M19 22.8343L21.4615 25.501L27 19.501M18 14.501H21C22.1046 14.501 23 13.6055 23 12.501C23 11.3964 22.1046 10.501 21 10.501H18V14.501ZM18 14.501H22C23.1046 14.501 24 15.3964 24 16.501C24 17.6056 23.1046 18.501 22 18.501H18V14.501Z" stroke="#4169E1" stroke-width="2" stroke-linecap="round" stroke-linejoin="round"/>
</svg>
