<svg width="36" height="36" viewBox="0 0 36 36" fill="none" xmlns="http://www.w3.org/2000/svg">
<rect width="36" height="36" rx="5" fill="#13142F"/>
<path d="M18.0869 8.87061C23.1773 8.87061 27.3037 12.9971 27.3037 18.0875C27.3037 23.1777 23.1773 27.3043 18.0869 27.3043C12.9966 27.3043 8.87012 23.1777 8.87012 18.0875C8.87012 12.9971 12.9966 8.87061 18.0869 8.87061Z" stroke="#459F49" stroke-width="1.71136" stroke-linecap="round"/>
<path d="M13.0503 18.7759H14.7346C14.8222 18.7759 14.8998 18.7193 14.9265 18.6358L16.4509 13.8701C16.5157 13.6672 16.81 13.6907 16.8419 13.9013L17.9693 21.3421C18.0005 21.548 18.2854 21.577 18.3575 21.3817L20.1731 16.4622C20.2395 16.2824 20.4957 16.288 20.554 16.4705L21.2466 18.6358C21.2732 18.7193 21.3508 18.7759 21.4384 18.7759H23.1228" stroke="#459F49" stroke-width="1.71232" stroke-linecap="round"/>
</svg>
