<svg width="36" height="36" viewBox="0 0 36 36" fill="none" xmlns="http://www.w3.org/2000/svg">
<rect width="36" height="36" rx="5" fill="#ECF5ED"/>
<path d="M18.0869 8.87061C23.1773 8.87061 27.3037 12.9971 27.3037 18.0875C27.3037 23.1777 23.1773 27.3043 18.0869 27.3043C12.9966 27.3043 8.87012 23.1777 8.87012 18.0875C8.87012 12.9971 12.9966 8.87061 18.0869 8.87061Z" stroke="#459F49" stroke-width="1.71136" stroke-linecap="round"/>
<path d="M13.0508 18.7759H14.7351C14.8227 18.7759 14.9002 18.7193 14.9269 18.6358L16.4513 13.8701C16.5162 13.6672 16.8105 13.6907 16.8424 13.9013L17.9698 21.3421C18.001 21.548 18.2858 21.577 18.358 21.3817L20.1736 16.4622C20.24 16.2824 20.4961 16.288 20.5545 16.4705L21.247 18.6358C21.2737 18.7193 21.3513 18.7759 21.4389 18.7759H23.1232" stroke="#459F49" stroke-width="1.71232" stroke-linecap="round"/>
</svg>
