<svg width="36" height="37" viewBox="0 0 36 37" fill="none" xmlns="http://www.w3.org/2000/svg">
<rect y="0.291992" width="36" height="36" rx="5" fill="#13142F"/>
<path d="M18.0869 9.1626C23.1773 9.1626 27.3037 13.2891 27.3037 18.3795C27.3037 23.4697 23.1773 27.5963 18.0869 27.5963C12.9966 27.5963 8.87012 23.4697 8.87012 18.3795C8.87012 13.2891 12.9966 9.1626 18.0869 9.1626Z" stroke="#459F49" stroke-width="1.71136" stroke-linecap="round"/>
<path d="M13.0503 19.0679H14.7346C14.8222 19.0679 14.8998 19.0113 14.9265 18.9278L16.4509 14.1621C16.5157 13.9592 16.81 13.9827 16.8419 14.1933L17.9693 21.6341C18.0005 21.84 18.2854 21.869 18.3575 21.6737L20.1731 16.7542C20.2395 16.5744 20.4957 16.58 20.554 16.7625L21.2466 18.9278C21.2732 19.0113 21.3508 19.0679 21.4384 19.0679H23.1228" stroke="#459F49" stroke-width="1.71232" stroke-linecap="round"/>
</svg>
