<svg width="36" height="37" viewBox="0 0 36 37" fill="none" xmlns="http://www.w3.org/2000/svg">
<rect y="0.291992" width="36" height="36" rx="5" fill="#13142F"/>
<g clip-path="url(#clip0_4177_20818)">
<path d="M9.52143 11.7754C9.38995 11.775 9.25983 11.7487 9.13852 11.698C9.0172 11.6473 8.90708 11.5732 8.81443 11.4799C8.72179 11.3866 8.64844 11.276 8.5986 11.1543C8.54875 11.0326 8.52338 10.9023 8.52393 10.7709V7.76242C8.52331 7.4972 8.62804 7.24259 8.8151 7.05457C9.00215 6.86655 9.25622 6.76051 9.52143 6.75977C9.78665 6.76051 10.0407 6.86655 10.2278 7.05457C10.4148 7.24259 10.5196 7.4972 10.5189 7.76242V10.7709C10.5195 10.9023 10.4941 11.0326 10.4443 11.1543C10.3944 11.276 10.3211 11.3866 10.2284 11.4799C10.1358 11.5732 10.0257 11.6473 9.90435 11.698C9.78304 11.7487 9.65292 11.775 9.52143 11.7754Z" stroke="#459F49" stroke-width="0.9375" stroke-linecap="round" stroke-linejoin="round"/>
<path d="M25.4825 7.76221H10.519V10.7702H25.4825V7.76221Z" stroke="#459F49" stroke-width="0.9375" stroke-linecap="round" stroke-linejoin="round"/>
<path d="M25.4825 10.7715H10.519V25.8123H25.4825V10.7715Z" stroke="#459F49" stroke-width="0.9375" stroke-linecap="round" stroke-linejoin="round"/>
<path d="M7.61018 8.12256H8.52377V10.4101H7.61018C7.46035 10.4101 7.31198 10.3805 7.17356 10.3232C7.03513 10.2659 6.90936 10.1818 6.80341 10.0759C6.58944 9.86192 6.46924 9.57172 6.46924 9.26912V9.26303C6.46936 8.96051 6.58962 8.67043 6.80358 8.45657C7.01753 8.2427 7.30766 8.12256 7.61018 8.12256Z" stroke="#459F49" stroke-width="0.9375" stroke-linecap="round" stroke-linejoin="round"/>
<path d="M26.4799 11.7754C26.7452 11.7746 26.9992 11.6686 27.1863 11.4806C27.3733 11.2926 27.4781 11.038 27.4774 10.7727V7.76242C27.4781 7.4972 27.3733 7.24259 27.1863 7.05457C26.9992 6.86655 26.7452 6.76051 26.4799 6.75977C26.2147 6.76051 25.9606 6.86655 25.7736 7.05457C25.5865 7.24259 25.4818 7.4972 25.4824 7.76242V10.7709C25.4819 10.9023 25.5072 11.0326 25.5571 11.1543C25.6069 11.276 25.6803 11.3866 25.7729 11.4799C25.8656 11.5732 25.9757 11.6473 26.097 11.698C26.2183 11.7487 26.3485 11.775 26.4799 11.7754Z" stroke="#459F49" stroke-width="0.9375" stroke-linecap="round" stroke-linejoin="round"/>
<path d="M28.3908 10.4107H27.4772V8.12316H28.3908C28.6934 8.12316 28.9836 8.24337 29.1976 8.45734C29.4115 8.6713 29.5317 8.96151 29.5317 9.2641V9.2702C29.5317 9.57279 29.4115 9.86299 29.1976 10.077C28.9836 10.2909 28.6934 10.4111 28.3908 10.4111V10.4107Z" stroke="#459F49" stroke-width="0.9375" stroke-linecap="round" stroke-linejoin="round"/>
<path d="M9.52143 24.8066C9.25622 24.8074 9.00215 24.9134 8.8151 25.1014C8.62804 25.2895 8.52331 25.5441 8.52393 25.8093V28.8177C8.52338 28.9492 8.54875 29.0795 8.5986 29.2012C8.64844 29.3229 8.72179 29.4335 8.81443 29.5268C8.90708 29.6201 9.0172 29.6942 9.13852 29.7449C9.25983 29.7956 9.38995 29.8219 9.52143 29.8223C9.78665 29.8215 10.0407 29.7155 10.2278 29.5275C10.4148 29.3394 10.5196 29.0848 10.5189 28.8196V25.8112C10.5195 25.6797 10.4941 25.5494 10.4443 25.4277C10.3944 25.3061 10.3211 25.1954 10.2284 25.1021C10.1358 25.0088 10.0257 24.9347 9.90435 24.884C9.78304 24.8333 9.65292 24.807 9.52143 24.8066Z" stroke="#459F49" stroke-width="0.9375" stroke-linecap="round" stroke-linejoin="round"/>
<path d="M25.4825 25.811H10.519V28.819H25.4825V25.811Z" stroke="#459F49" stroke-width="0.9375" stroke-linecap="round" stroke-linejoin="round"/>
<path d="M7.61018 26.1714H8.52377V28.4589H7.61018C7.46035 28.4589 7.31198 28.4294 7.17356 28.372C7.03513 28.3147 6.90936 28.2307 6.80341 28.1247C6.69747 28.0188 6.61342 27.893 6.55609 27.7546C6.49875 27.6161 6.46924 27.4678 6.46924 27.3179V27.3119C6.46936 27.0093 6.58962 26.7193 6.80358 26.5054C7.01753 26.2915 7.30766 26.1714 7.61018 26.1714Z" stroke="#459F49" stroke-width="0.9375" stroke-linecap="round" stroke-linejoin="round"/>
<path d="M26.4799 24.8066C26.7452 24.8074 26.9992 24.9134 27.1863 25.1014C27.3733 25.2895 27.4781 25.5441 27.4774 25.8093V28.8177C27.478 28.9492 27.4526 29.0795 27.4028 29.2012C27.3529 29.3229 27.2796 29.4335 27.1869 29.5268C27.0943 29.6201 26.9842 29.6942 26.8628 29.7449C26.7415 29.7956 26.6114 29.8219 26.4799 29.8223C26.2147 29.8215 25.9606 29.7155 25.7736 29.5275C25.5865 29.3394 25.4818 29.0848 25.4824 28.8196V25.8112C25.4819 25.6797 25.5072 25.5494 25.5571 25.4277C25.6069 25.3061 25.6803 25.1954 25.7729 25.1021C25.8656 25.0088 25.9757 24.9347 26.097 24.884C26.2183 24.8333 26.3485 24.807 26.4799 24.8066Z" stroke="#459F49" stroke-width="0.9375" stroke-linecap="round" stroke-linejoin="round"/>
<path d="M28.3908 28.4595H27.4772V26.172H28.3908C28.6934 26.172 28.9836 26.2922 29.1976 26.5062C29.4115 26.7201 29.5317 27.0103 29.5317 27.3129V27.319C29.5317 27.6216 29.4115 27.9118 29.1976 28.1258C28.9836 28.3398 28.6934 28.46 28.3908 28.46V28.4595Z" stroke="#459F49" stroke-width="0.9375" stroke-linecap="round" stroke-linejoin="round"/>
<path d="M12.7227 12.8584H18.0003" stroke="#459F49" stroke-width="0.9375" stroke-linecap="round" stroke-linejoin="round"/>
<path d="M12.7227 15.0317H23.4031" stroke="#459F49" stroke-width="0.9375" stroke-linecap="round" stroke-linejoin="round"/>
<path d="M12.7227 17.2041H23.4031" stroke="#459F49" stroke-width="0.9375" stroke-linecap="round" stroke-linejoin="round"/>
<path d="M12.7227 19.3774H23.4031" stroke="#459F49" stroke-width="0.9375" stroke-linecap="round" stroke-linejoin="round"/>
<path d="M12.7227 21.5498H23.4031" stroke="#459F49" stroke-width="0.9375" stroke-linecap="round" stroke-linejoin="round"/>
<path d="M18.0005 23.7231H23.4033" stroke="#459F49" stroke-width="0.9375" stroke-linecap="round" stroke-linejoin="round"/>
</g>
<defs>
<clipPath id="clip0_4177_20818">
<rect width="24" height="24" fill="white" transform="translate(6 6.29199)"/>
</clipPath>
</defs>
</svg>
