<svg width="36" height="36" viewBox="0 0 36 36" fill="none" xmlns="http://www.w3.org/2000/svg">
<rect width="36" height="36" rx="5" fill="#13142F"/>
<g clip-path="url(#clip0_3946_19152)">
<path d="M9.52143 11.4834C9.38995 11.483 9.25983 11.4567 9.13852 11.406C9.0172 11.3553 8.90708 11.2812 8.81443 11.1879C8.72179 11.0946 8.64844 10.984 8.5986 10.8623C8.54875 10.7406 8.52338 10.6103 8.52393 10.4789V7.47043C8.52331 7.20521 8.62804 6.9506 8.8151 6.76258C9.00215 6.57456 9.25622 6.46852 9.52143 6.46777C9.78665 6.46852 10.0407 6.57456 10.2278 6.76258C10.4148 6.9506 10.5196 7.20521 10.5189 7.47043V10.4789C10.5195 10.6103 10.4941 10.7406 10.4443 10.8623C10.3944 10.984 10.3211 11.0946 10.2284 11.1879C10.1358 11.2812 10.0257 11.3553 9.90435 11.406C9.78304 11.4567 9.65292 11.483 9.52143 11.4834Z" stroke="#459F49" stroke-width="0.9375" stroke-linecap="round" stroke-linejoin="round"/>
<path d="M25.4825 7.47021H10.519V10.4782H25.4825V7.47021Z" stroke="#459F49" stroke-width="0.9375" stroke-linecap="round" stroke-linejoin="round"/>
<path d="M25.4825 10.4795H10.519V25.5203H25.4825V10.4795Z" stroke="#459F49" stroke-width="0.9375" stroke-linecap="round" stroke-linejoin="round"/>
<path d="M7.61018 7.83057H8.52377V10.1181H7.61018C7.46035 10.1181 7.31198 10.0886 7.17356 10.0312C7.03513 9.97388 6.90936 9.88984 6.80341 9.78389C6.58944 9.56993 6.46924 9.27972 6.46924 8.97713V8.97104C6.46936 8.66852 6.58962 8.37844 6.80358 8.16457C7.01753 7.95071 7.30766 7.83057 7.61018 7.83057Z" stroke="#459F49" stroke-width="0.9375" stroke-linecap="round" stroke-linejoin="round"/>
<path d="M26.4799 11.4834C26.7452 11.4827 26.9992 11.3766 27.1863 11.1886C27.3733 11.0006 27.4781 10.746 27.4774 10.4807V7.47043C27.4781 7.20521 27.3733 6.9506 27.1863 6.76258C26.9992 6.57456 26.7452 6.46852 26.4799 6.46777C26.2147 6.46852 25.9606 6.57456 25.7736 6.76258C25.5865 6.9506 25.4818 7.20521 25.4824 7.47043V10.4789C25.4819 10.6103 25.5072 10.7406 25.5571 10.8623C25.6069 10.984 25.6803 11.0946 25.7729 11.1879C25.8656 11.2812 25.9757 11.3553 26.097 11.406C26.2183 11.4567 26.3485 11.483 26.4799 11.4834Z" stroke="#459F49" stroke-width="0.9375" stroke-linecap="round" stroke-linejoin="round"/>
<path d="M28.3908 10.1187H27.4772V7.83117H28.3908C28.6934 7.83117 28.9836 7.95138 29.1976 8.16534C29.4115 8.37931 29.5317 8.66951 29.5317 8.97211V8.9782C29.5317 9.2808 29.4115 9.571 29.1976 9.78497C28.9836 9.99894 28.6934 10.1191 28.3908 10.1191V10.1187Z" stroke="#459F49" stroke-width="0.9375" stroke-linecap="round" stroke-linejoin="round"/>
<path d="M9.52143 24.5146C9.25622 24.5154 9.00215 24.6214 8.8151 24.8095C8.62804 24.9975 8.52331 25.2521 8.52393 25.5173V28.5257C8.52338 28.6572 8.54875 28.7875 8.5986 28.9092C8.64844 29.0309 8.72179 29.1415 8.81443 29.2348C8.90708 29.3281 9.0172 29.4022 9.13852 29.4529C9.25983 29.5036 9.38995 29.5299 9.52143 29.5303C9.78665 29.5295 10.0407 29.4235 10.2278 29.2355C10.4148 29.0474 10.5196 28.7928 10.5189 28.5276V25.5192C10.5195 25.3877 10.4941 25.2574 10.4443 25.1357C10.3944 25.0141 10.3211 24.9034 10.2284 24.8101C10.1358 24.7168 10.0257 24.6427 9.90435 24.592C9.78304 24.5413 9.65292 24.515 9.52143 24.5146Z" stroke="#459F49" stroke-width="0.9375" stroke-linecap="round" stroke-linejoin="round"/>
<path d="M25.4825 25.519H10.519V28.527H25.4825V25.519Z" stroke="#459F49" stroke-width="0.9375" stroke-linecap="round" stroke-linejoin="round"/>
<path d="M7.61018 25.8794H8.52377V28.1669H7.61018C7.46035 28.1669 7.31198 28.1374 7.17356 28.08C7.03513 28.0227 6.90936 27.9387 6.80341 27.8327C6.69747 27.7268 6.61342 27.601 6.55609 27.4626C6.49875 27.3241 6.46924 27.1758 6.46924 27.026V27.0199C6.46936 26.7173 6.58962 26.4273 6.80358 26.2134C7.01753 25.9995 7.30766 25.8794 7.61018 25.8794Z" stroke="#459F49" stroke-width="0.9375" stroke-linecap="round" stroke-linejoin="round"/>
<path d="M26.4799 24.5146C26.7452 24.5154 26.9992 24.6214 27.1863 24.8095C27.3733 24.9975 27.4781 25.2521 27.4774 25.5173V28.5257C27.478 28.6572 27.4526 28.7875 27.4028 28.9092C27.3529 29.0309 27.2796 29.1415 27.1869 29.2348C27.0943 29.3281 26.9842 29.4022 26.8628 29.4529C26.7415 29.5036 26.6114 29.5299 26.4799 29.5303C26.2147 29.5295 25.9606 29.4235 25.7736 29.2355C25.5865 29.0474 25.4818 28.7928 25.4824 28.5276V25.5192C25.4819 25.3877 25.5072 25.2574 25.5571 25.1357C25.6069 25.0141 25.6803 24.9034 25.7729 24.8101C25.8656 24.7168 25.9757 24.6427 26.097 24.592C26.2183 24.5413 26.3485 24.515 26.4799 24.5146Z" stroke="#459F49" stroke-width="0.9375" stroke-linecap="round" stroke-linejoin="round"/>
<path d="M28.3908 28.1675H27.4772V25.88H28.3908C28.6934 25.88 28.9836 26.0002 29.1976 26.2142C29.4115 26.4281 29.5317 26.7183 29.5317 27.0209V27.027C29.5317 27.3296 29.4115 27.6198 29.1976 27.8338C28.9836 28.0478 28.6934 28.168 28.3908 28.168V28.1675Z" stroke="#459F49" stroke-width="0.9375" stroke-linecap="round" stroke-linejoin="round"/>
<path d="M12.7227 12.5664H18.0003" stroke="#459F49" stroke-width="0.9375" stroke-linecap="round" stroke-linejoin="round"/>
<path d="M12.7227 14.7397H23.4031" stroke="#459F49" stroke-width="0.9375" stroke-linecap="round" stroke-linejoin="round"/>
<path d="M12.7227 16.9121H23.4031" stroke="#459F49" stroke-width="0.9375" stroke-linecap="round" stroke-linejoin="round"/>
<path d="M12.7227 19.0854H23.4031" stroke="#459F49" stroke-width="0.9375" stroke-linecap="round" stroke-linejoin="round"/>
<path d="M12.7227 21.2578H23.4031" stroke="#459F49" stroke-width="0.9375" stroke-linecap="round" stroke-linejoin="round"/>
<path d="M18.0005 23.4312H23.4033" stroke="#459F49" stroke-width="0.9375" stroke-linecap="round" stroke-linejoin="round"/>
</g>
<defs>
<clipPath id="clip0_3946_19152">
<rect width="24" height="24" fill="white" transform="translate(6 6)"/>
</clipPath>
</defs>
</svg>
