<svg width="36" height="36" viewBox="0 0 36 36" fill="none" xmlns="http://www.w3.org/2000/svg">
<rect width="36" height="36" rx="5" fill="#ECF5ED"/>
<g clip-path="url(#clip0_3946_20526)">
<path d="M9.52192 11.4834C9.39044 11.483 9.26032 11.4567 9.13901 11.406C9.01769 11.3553 8.90756 11.2812 8.81492 11.1879C8.72227 11.0946 8.64893 10.984 8.59908 10.8623C8.54924 10.7406 8.52387 10.6103 8.52442 10.4789V7.47043C8.5238 7.20521 8.62853 6.9506 8.81558 6.76258C9.00264 6.57456 9.2567 6.46852 9.52192 6.46777C9.78714 6.46852 10.0412 6.57456 10.2283 6.76258C10.4153 6.9506 10.52 7.20521 10.5194 7.47043V10.4789C10.52 10.6103 10.4946 10.7406 10.4448 10.8623C10.3949 10.984 10.3216 11.0946 10.2289 11.1879C10.1363 11.2812 10.0262 11.3553 9.90484 11.406C9.78352 11.4567 9.6534 11.483 9.52192 11.4834Z" stroke="#459F49" stroke-width="0.9375" stroke-linecap="round" stroke-linejoin="round"/>
<path d="M25.483 7.47021H10.5195V10.4782H25.483V7.47021Z" stroke="#459F49" stroke-width="0.9375" stroke-linecap="round" stroke-linejoin="round"/>
<path d="M25.483 10.4795H10.5195V25.5203H25.483V10.4795Z" stroke="#459F49" stroke-width="0.9375" stroke-linecap="round" stroke-linejoin="round"/>
<path d="M7.61066 7.83057H8.52426V10.1181H7.61066C7.46083 10.1181 7.31247 10.0886 7.17405 10.0312C7.03562 9.97388 6.90985 9.88984 6.8039 9.78389C6.58993 9.56993 6.46973 9.27972 6.46973 8.97713V8.97104C6.46985 8.66852 6.59011 8.37844 6.80407 8.16457C7.01802 7.95071 7.30815 7.83057 7.61066 7.83057Z" stroke="#459F49" stroke-width="0.9375" stroke-linecap="round" stroke-linejoin="round"/>
<path d="M26.4799 11.4834C26.7452 11.4827 26.9992 11.3766 27.1863 11.1886C27.3733 11.0006 27.4781 10.746 27.4774 10.4807V7.47043C27.4781 7.20521 27.3733 6.9506 27.1863 6.76258C26.9992 6.57456 26.7452 6.46852 26.4799 6.46777C26.2147 6.46852 25.9606 6.57456 25.7736 6.76258C25.5865 6.9506 25.4818 7.20521 25.4824 7.47043V10.4789C25.4819 10.6103 25.5072 10.7406 25.5571 10.8623C25.6069 10.984 25.6803 11.0946 25.7729 11.1879C25.8656 11.2812 25.9757 11.3553 26.097 11.406C26.2183 11.4567 26.3485 11.483 26.4799 11.4834Z" stroke="#459F49" stroke-width="0.9375" stroke-linecap="round" stroke-linejoin="round"/>
<path d="M28.3913 10.1187H27.4777V7.83117H28.3913C28.6939 7.83117 28.9841 7.95138 29.1981 8.16534C29.412 8.37931 29.5322 8.66951 29.5322 8.97211V8.9782C29.5322 9.2808 29.412 9.571 29.1981 9.78497C28.9841 9.99894 28.6939 10.1191 28.3913 10.1191V10.1187Z" stroke="#459F49" stroke-width="0.9375" stroke-linecap="round" stroke-linejoin="round"/>
<path d="M9.52192 24.5146C9.2567 24.5154 9.00264 24.6214 8.81558 24.8095C8.62853 24.9975 8.5238 25.2521 8.52442 25.5173V28.5257C8.52387 28.6572 8.54924 28.7875 8.59908 28.9092C8.64893 29.0309 8.72227 29.1415 8.81492 29.2348C8.90756 29.3281 9.01769 29.4022 9.13901 29.4529C9.26032 29.5036 9.39044 29.5299 9.52192 29.5303C9.78714 29.5295 10.0412 29.4235 10.2283 29.2355C10.4153 29.0474 10.52 28.7928 10.5194 28.5276V25.5192C10.52 25.3877 10.4946 25.2574 10.4448 25.1357C10.3949 25.0141 10.3216 24.9034 10.2289 24.8101C10.1363 24.7168 10.0262 24.6427 9.90484 24.592C9.78352 24.5413 9.6534 24.515 9.52192 24.5146Z" stroke="#459F49" stroke-width="0.9375" stroke-linecap="round" stroke-linejoin="round"/>
<path d="M25.483 25.519H10.5195V28.527H25.483V25.519Z" stroke="#459F49" stroke-width="0.9375" stroke-linecap="round" stroke-linejoin="round"/>
<path d="M7.61066 25.8794H8.52426V28.1669H7.61066C7.46083 28.1669 7.31247 28.1374 7.17405 28.08C7.03562 28.0227 6.90985 27.9387 6.8039 27.8327C6.69795 27.7268 6.61391 27.601 6.55658 27.4626C6.49924 27.3241 6.46973 27.1758 6.46973 27.026V27.0199C6.46985 26.7173 6.59011 26.4273 6.80407 26.2134C7.01802 25.9995 7.30815 25.8794 7.61066 25.8794Z" stroke="#459F49" stroke-width="0.9375" stroke-linecap="round" stroke-linejoin="round"/>
<path d="M26.4799 24.5146C26.7452 24.5154 26.9992 24.6214 27.1863 24.8095C27.3733 24.9975 27.4781 25.2521 27.4774 25.5173V28.5257C27.478 28.6572 27.4526 28.7875 27.4028 28.9092C27.3529 29.0309 27.2796 29.1415 27.1869 29.2348C27.0943 29.3281 26.9842 29.4022 26.8628 29.4529C26.7415 29.5036 26.6114 29.5299 26.4799 29.5303C26.2147 29.5295 25.9606 29.4235 25.7736 29.2355C25.5865 29.0474 25.4818 28.7928 25.4824 28.5276V25.5192C25.4819 25.3877 25.5072 25.2574 25.5571 25.1357C25.6069 25.0141 25.6803 24.9034 25.7729 24.8101C25.8656 24.7168 25.9757 24.6427 26.097 24.592C26.2183 24.5413 26.3485 24.515 26.4799 24.5146Z" stroke="#459F49" stroke-width="0.9375" stroke-linecap="round" stroke-linejoin="round"/>
<path d="M28.3913 28.1675H27.4777V25.88H28.3913C28.6939 25.88 28.9841 26.0002 29.1981 26.2142C29.412 26.4281 29.5322 26.7183 29.5322 27.0209V27.027C29.5322 27.3296 29.412 27.6198 29.1981 27.8338C28.9841 28.0478 28.6939 28.168 28.3913 28.168V28.1675Z" stroke="#459F49" stroke-width="0.9375" stroke-linecap="round" stroke-linejoin="round"/>
<path d="M12.7236 12.5664H18.0013" stroke="#459F49" stroke-width="0.9375" stroke-linecap="round" stroke-linejoin="round"/>
<path d="M12.7236 14.7397H23.4041" stroke="#459F49" stroke-width="0.9375" stroke-linecap="round" stroke-linejoin="round"/>
<path d="M12.7236 16.9121H23.4041" stroke="#459F49" stroke-width="0.9375" stroke-linecap="round" stroke-linejoin="round"/>
<path d="M12.7236 19.0854H23.4041" stroke="#459F49" stroke-width="0.9375" stroke-linecap="round" stroke-linejoin="round"/>
<path d="M12.7236 21.2578H23.4041" stroke="#459F49" stroke-width="0.9375" stroke-linecap="round" stroke-linejoin="round"/>
<path d="M18.001 23.4312H23.4038" stroke="#459F49" stroke-width="0.9375" stroke-linecap="round" stroke-linejoin="round"/>
</g>
<defs>
<clipPath id="clip0_3946_20526">
<rect width="24" height="24" fill="white" transform="translate(6 6)"/>
</clipPath>
</defs>
</svg>
