<svg width="36" height="37" viewBox="0 0 36 37" fill="none" xmlns="http://www.w3.org/2000/svg">
<rect y="0.291992" width="36" height="36" rx="5" fill="#ECF5ED"/>
<g clip-path="url(#clip0_4177_18393)">
<path d="M11.7855 14.251H24.2145L24.333 13.126H11.667L11.7855 14.251Z" fill="#459F49"/>
<path d="M25.5 13.501V11.251H18.75V10.2932C19.1962 10.033 19.5 9.55448 19.5 9.00098V7.50098C19.5 6.67223 18.8287 6.00098 18 6.00098C17.1712 6.00098 16.5 6.67223 16.5 7.50098V9.00098C16.5 9.55448 16.8038 10.033 17.25 10.2932V11.251H10.5V13.501H11.3288L12.6705 26.251H11.25V27.751H10.5V30.001H25.5V27.751H24.75V26.251H23.3287L24.6705 13.501H25.5ZM17.25 7.50098C17.25 7.08773 17.5868 6.75098 18 6.75098C18.4132 6.75098 18.75 7.08773 18.75 7.50098V9.00098C18.75 9.41423 18.4132 9.75098 18 9.75098C17.5868 9.75098 17.25 9.41423 17.25 9.00098V7.50098ZM24.75 29.251H11.25V28.501H24.75V29.251ZM11.25 12.001H24.75V12.751H11.25V12.001ZM24 27.001V27.751H12V27.001H24ZM22.575 26.251H13.425L12.0833 13.501H23.9167L22.575 26.251Z" fill="#459F49"/>
</g>
<defs>
<clipPath id="clip0_4177_18393">
<rect width="24" height="24" fill="white" transform="translate(6 6.00098)"/>
</clipPath>
</defs>
</svg>
