<svg width="36" height="37" viewBox="0 0 36 37" fill="none" xmlns="http://www.w3.org/2000/svg">
<rect y="0.291992" width="36" height="36" rx="5" fill="#13142F"/>
<g clip-path="url(#clip0_4177_20807)">
<path d="M30.0731 13.9027L30.073 13.9029C29.4734 16.7988 29.4734 19.7869 30.073 22.6829C30.1729 23.1537 29.9983 23.6405 29.6219 23.9405C29.2358 24.2561 28.706 24.3305 28.2478 24.1334L30.0731 13.9027ZM30.0731 13.9027C30.1693 13.4321 29.9953 12.9471 29.6218 12.6451C29.2357 12.3291 28.7055 12.2549 28.2474 12.4528L19.9701 15.9911C19.6789 15.1578 18.8908 14.5931 17.9999 14.5931C17.109 14.5931 16.3209 15.1578 16.0298 15.9911L7.75278 12.4532C7.75272 12.4532 7.75266 12.4532 7.7526 12.4532C7.29448 12.2553 6.76423 12.3295 6.37801 12.6455C6.00454 12.9475 5.8305 13.4325 5.92674 13.9031L5.92679 13.9033C6.5264 16.7991 6.52642 19.7871 5.92684 22.6829C5.82671 23.154 6.00137 23.6411 6.37794 23.9413C6.76412 24.257 7.29401 24.3314 7.75219 24.1341C7.75222 24.1341 7.75224 24.1341 7.75226 24.1341L16.0302 20.595C16.3213 21.4281 17.1092 21.9926 17.9999 21.9926C18.8906 21.9926 19.6785 21.4281 19.9697 20.595L28.2476 24.1333L30.0731 13.9027ZM7.36062 23.2135L7.36062 23.2135L15.8999 19.5646V19.365L12.5434 20.372L12.5431 20.3721C12.4967 20.3859 12.4486 20.3929 12.4002 20.393L12.3991 20.393C12.1517 20.3911 11.9429 20.2085 11.908 19.9636C11.8731 19.7186 12.0226 19.485 12.2596 19.414M7.36062 23.2135L12.2883 19.5098M7.36062 23.2135L7.3594 23.214M7.36062 23.2135L7.3594 23.214M12.2596 19.414L12.2883 19.5098M12.2596 19.414L12.2596 19.4141L12.2883 19.5098M12.2596 19.414L15.9031 18.321M12.2883 19.5098L16.0031 18.3954M15.9031 18.321V18.3954H16.0031M15.9031 18.321L15.9391 18.3102L15.9031 18.303V18.221H16.0031L15.9835 18.3191L15.98 18.3184M15.9031 18.321L15.98 18.3184M16.0031 18.3954L15.98 18.3184M16.0031 18.3954L15.98 18.3184M7.3594 23.214C7.24377 23.2653 7.10911 23.2468 7.01155 23.1663L7.01156 23.1663M7.3594 23.214L7.01156 23.1663M7.01156 23.1663L7.00983 23.1649L7.01156 23.1663ZM7.00976 13.4213L7.00974 13.4212C6.92544 13.4876 6.88584 13.5958 6.90746 13.7009L6.80951 13.721L6.90744 13.7008C7.5346 16.73 7.5346 19.8556 6.90744 22.8849C6.90744 22.8849 6.90744 22.8849 6.90744 22.8849L7.00976 13.4213ZM7.00976 13.4213L7.01172 13.4196M7.00976 13.4213L7.01172 13.4196M7.01172 13.4196C7.07099 13.3705 7.14552 13.3436 7.2225 13.3434C7.26987 13.3437 7.31669 13.3536 7.36017 13.3724L7.36016 13.3724M7.01172 13.4196L7.36016 13.3724M7.36016 13.3724L7.3606 13.3726M7.36016 13.3724L7.3606 13.3726M7.3606 13.3726L15.8999 17.023L7.3606 13.3726ZM15.8999 17.2831V17.385L15.9999 17.405V17.3031L15.8999 17.2831ZM15.8999 19.2606L15.9999 19.2306V19.335L15.8999 19.2606ZM28.9912 23.1649L28.9912 23.1649L28.9893 23.1665C28.892 23.2472 28.7573 23.2657 28.6419 23.2141L28.6404 23.2135L20.0999 19.563V19.3634L23.4554 20.3701C23.4556 20.3702 23.4558 20.3702 23.4559 20.3703C23.5021 20.3846 23.55 20.3922 23.5983 20.393L23.5999 20.393C23.8481 20.3931 24.0587 20.2111 24.0947 19.9656L23.9958 19.9511C24.0246 19.7546 23.9049 19.5668 23.7147 19.5098L23.7434 19.4141L23.7434 19.414L20.0999 18.321V18.303L21.6995 17.9831L21.6995 17.9832L21.7029 17.9824C21.9651 17.9205 22.1312 17.6619 22.0783 17.3977C22.0255 17.1335 21.7728 16.9586 21.5069 17.0024L21.5069 17.0023L21.5035 17.003L20.1031 17.2831V17.023L28.6424 13.3726L28.6436 13.3721C28.7591 13.321 28.8936 13.3394 28.9911 13.4198L28.9911 13.4198L28.9929 13.4212C29.0772 13.4876 29.1168 13.5958 29.0952 13.7009C28.4675 16.7301 28.467 19.8557 29.0936 22.8851C29.1151 22.9902 29.0755 23.0985 28.9912 23.1649ZM17.9999 20.993C17.3924 20.993 16.8999 20.5006 16.8999 19.893V16.693C16.8999 16.0855 17.3924 15.593 17.9999 15.593C18.6074 15.593 19.0999 16.0855 19.0999 16.693V19.893C19.0999 20.5006 18.6074 20.993 17.9999 20.993Z" fill="#EF9B00" stroke="#EF9B00" stroke-width="0.2"/>
<mask id="path-3-inside-1_4177_20807" fill="white">
<path fill-rule="evenodd" clip-rule="evenodd" d="M12.7997 17.3599C12.996 17.3601 13.1634 17.2177 13.1948 17.024C13.2263 16.8302 13.1124 16.6422 12.9261 16.5803L12.1261 16.3135C11.9162 16.2437 11.6895 16.3573 11.6197 16.5671C11.5499 16.777 11.6634 17.0037 11.8733 17.0735L12.6733 17.3399C12.7141 17.3534 12.7568 17.3601 12.7997 17.3599Z"/>
</mask>
<path fill-rule="evenodd" clip-rule="evenodd" d="M12.7997 17.3599C12.996 17.3601 13.1634 17.2177 13.1948 17.024C13.2263 16.8302 13.1124 16.6422 12.9261 16.5803L12.1261 16.3135C11.9162 16.2437 11.6895 16.3573 11.6197 16.5671C11.5499 16.777 11.6634 17.0037 11.8733 17.0735L12.6733 17.3399C12.7141 17.3534 12.7568 17.3601 12.7997 17.3599Z" fill="#EF9B00"/>
<path d="M12.7997 17.3599L12.8003 16.4904L12.7965 16.4904L12.7997 17.3599ZM13.1948 17.024L12.3365 16.8848L13.1948 17.024ZM12.9261 16.5803L12.651 17.4052L12.6519 17.4056L12.9261 16.5803ZM12.1261 16.3135L12.4012 15.4886L12.4006 15.4884L12.1261 16.3135ZM11.6197 16.5671L10.7946 16.2927L10.7946 16.2927L11.6197 16.5671ZM11.8733 17.0735L12.148 16.2485L12.1478 16.2484L11.8733 17.0735ZM12.6733 17.3399L12.3986 18.165L12.4018 18.166L12.6733 17.3399ZM12.7991 18.2295C13.4222 18.23 13.9535 17.7782 14.0532 17.1631L12.3365 16.8848C12.3734 16.6573 12.5699 16.4902 12.8003 16.4904L12.7991 18.2295ZM14.0532 17.1631C14.1529 16.5481 13.7916 15.9516 13.2003 15.7551L12.6519 17.4056C12.4332 17.3329 12.2996 17.1123 12.3365 16.8848L14.0532 17.1631ZM13.2012 15.7554L12.4012 15.4886L11.851 17.1384L12.651 17.4052L13.2012 15.7554ZM12.4006 15.4884C11.735 15.267 11.016 15.6271 10.7946 16.2927L12.4448 16.8416C12.363 17.0874 12.0975 17.2204 11.8516 17.1387L12.4006 15.4884ZM10.7946 16.2927C10.5732 16.9583 10.9333 17.6773 11.5988 17.8987L12.1478 16.2484C12.3936 16.3302 12.5266 16.5958 12.4448 16.8416L10.7946 16.2927ZM11.5986 17.8986L12.3986 18.165L12.948 16.5149L12.148 16.2485L11.5986 17.8986ZM12.4018 18.166C12.5312 18.2086 12.6667 18.23 12.8029 18.2295L12.7965 16.4904C12.8469 16.4902 12.897 16.4981 12.9448 16.5139L12.4018 18.166Z" fill="#EF9B00" mask="url(#path-3-inside-1_4177_20807)"/>
<mask id="path-5-inside-2_4177_20807" fill="white">
<path fill-rule="evenodd" clip-rule="evenodd" d="M23.8735 16.3136L23.0735 16.5804C22.8636 16.6502 22.7501 16.877 22.8199 17.0868C22.8897 17.2967 23.1164 17.4102 23.3263 17.3404L24.1263 17.074C24.3362 17.0042 24.4497 16.7775 24.3799 16.5676C24.3101 16.3578 24.0834 16.2442 23.8735 16.314V16.3136Z"/>
</mask>
<path fill-rule="evenodd" clip-rule="evenodd" d="M23.8735 16.3136L23.0735 16.5804C22.8636 16.6502 22.7501 16.877 22.8199 17.0868C22.8897 17.2967 23.1164 17.4102 23.3263 17.3404L24.1263 17.074C24.3362 17.0042 24.4497 16.7775 24.3799 16.5676C24.3101 16.3578 24.0834 16.2442 23.8735 16.314V16.3136Z" fill="#EF9B00"/>
<path d="M23.8735 16.3136H24.7431V15.107L23.5984 15.4887L23.8735 16.3136ZM23.0735 16.5804L23.348 17.4056L23.3486 17.4053L23.0735 16.5804ZM23.3263 17.3404L23.6008 18.1656L23.601 18.1655L23.3263 17.3404ZM24.1263 17.074L23.8518 16.2489L23.8516 16.249L24.1263 17.074ZM23.8735 16.314H23.0039V17.5197L24.148 17.1392L23.8735 16.314ZM23.5984 15.4887L22.7984 15.7555L23.3486 17.4053L24.1486 17.1385L23.5984 15.4887ZM22.799 15.7553C22.1335 15.9767 21.7734 16.6957 21.9948 17.3613L23.645 16.8124C23.7268 17.0582 23.5938 17.3238 23.348 17.4056L22.799 15.7553ZM21.9948 17.3613C22.2162 18.0269 22.9352 18.3869 23.6008 18.1656L23.0518 16.5153C23.2977 16.4336 23.5632 16.5665 23.645 16.8124L21.9948 17.3613ZM23.601 18.1655L24.401 17.8991L23.8516 16.249L23.0516 16.5154L23.601 18.1655ZM24.4008 17.8992C25.0663 17.6778 25.4264 16.9587 25.205 16.2932L23.5548 16.8421C23.473 16.5963 23.606 16.3307 23.8518 16.2489L24.4008 17.8992ZM25.205 16.2932C24.9836 15.6276 24.2646 15.2675 23.599 15.4889L24.148 17.1392C23.9021 17.2209 23.6366 17.0879 23.5548 16.8421L25.205 16.2932ZM24.7431 16.314V16.3136H23.0039V16.314H24.7431Z" fill="#EF9B00" mask="url(#path-5-inside-2_4177_20807)"/>
</g>
<defs>
<clipPath id="clip0_4177_20807">
<rect width="24" height="24" fill="white" transform="translate(6 6.29199)"/>
</clipPath>
</defs>
</svg>
