<svg width="36" height="36" viewBox="0 0 36 36" fill="none" xmlns="http://www.w3.org/2000/svg">
<rect width="36" height="36" rx="5" fill="#13142F"/>
<g clip-path="url(#clip0_3946_19141)">
<path d="M30.0731 13.6107L30.073 13.6109C29.4734 16.5069 29.4734 19.4949 30.073 22.3909C30.1729 22.8617 29.9983 23.3485 29.6219 23.6485C29.2358 23.9642 28.706 24.0386 28.2478 23.8414L30.0731 13.6107ZM30.0731 13.6107C30.1693 13.1401 29.9953 12.6551 29.6218 12.3531C29.2357 12.0371 28.7055 11.9629 28.2474 12.1609L19.9701 15.6991C19.6789 14.8658 18.8908 14.3011 17.9999 14.3011C17.109 14.3011 16.3209 14.8658 16.0298 15.6991L7.75278 12.1613C7.75272 12.1612 7.75266 12.1612 7.7526 12.1612C7.29448 11.9633 6.76423 12.0375 6.37801 12.3535C6.00454 12.6555 5.8305 13.1405 5.92674 13.6111L5.92679 13.6113C6.5264 16.5071 6.52642 19.4951 5.92684 22.3909C5.82671 22.862 6.00137 23.3491 6.37794 23.6493C6.76412 23.965 7.29401 24.0394 7.75219 23.8421C7.75222 23.8421 7.75224 23.8421 7.75226 23.8421L16.0302 20.303C16.3213 21.1361 17.1092 21.7007 17.9999 21.7007C18.8906 21.7007 19.6785 21.1361 19.9697 20.303L28.2476 23.8413L30.0731 13.6107ZM7.36062 22.9215L7.36062 22.9215L15.8999 19.2726V19.0731L12.5434 20.08L12.5431 20.0801C12.4967 20.0939 12.4486 20.1009 12.4002 20.101L12.3991 20.101C12.1517 20.0991 11.9429 19.9166 11.908 19.6716C11.8731 19.4266 12.0226 19.193 12.2596 19.122M7.36062 22.9215L12.2883 19.2178M7.36062 22.9215L7.3594 22.922M7.36062 22.9215L7.3594 22.922M12.2596 19.122L12.2883 19.2178M12.2596 19.122L12.2596 19.1221L12.2883 19.2178M12.2596 19.122L15.9031 18.029M12.2883 19.2178L16.0031 18.1034M15.9031 18.029V18.1034H16.0031M15.9031 18.029L15.9391 18.0182L15.9031 18.011V17.929H16.0031L15.9835 18.0271L15.98 18.0264M15.9031 18.029L15.98 18.0264M16.0031 18.1034L15.98 18.0264M16.0031 18.1034L15.98 18.0264M7.3594 22.922C7.24377 22.9733 7.10911 22.9548 7.01155 22.8743L7.01156 22.8743M7.3594 22.922L7.01156 22.8743M7.01156 22.8743L7.00983 22.8729L7.01156 22.8743ZM7.00976 13.1293L7.00974 13.1292C6.92544 13.1956 6.88584 13.3038 6.90746 13.4089L6.80951 13.429L6.90744 13.4088C7.5346 16.438 7.5346 19.5636 6.90744 22.5929C6.90744 22.5929 6.90744 22.5929 6.90744 22.5929L7.00976 13.1293ZM7.00976 13.1293L7.01172 13.1276M7.00976 13.1293L7.01172 13.1276M7.01172 13.1276C7.07099 13.0785 7.14552 13.0516 7.2225 13.0514C7.26987 13.0517 7.31669 13.0616 7.36017 13.0804L7.36016 13.0804M7.01172 13.1276L7.36016 13.0804M7.36016 13.0804L7.3606 13.0806M7.36016 13.0804L7.3606 13.0806M7.3606 13.0806L15.8999 16.7311L7.3606 13.0806ZM15.8999 16.9911V17.093L15.9999 17.113V17.0111L15.8999 16.9911ZM15.8999 18.9686L15.9999 18.9386V19.0431L15.8999 18.9686ZM28.9912 22.8729L28.9912 22.8729L28.9893 22.8745C28.892 22.9552 28.7573 22.9737 28.6419 22.9221L28.6404 22.9215L20.0999 19.271V19.0715L23.4554 20.0781C23.4556 20.0782 23.4558 20.0782 23.4559 20.0783C23.5021 20.0926 23.55 20.1002 23.5983 20.101L23.5999 20.101C23.8481 20.1011 24.0587 19.9191 24.0947 19.6736L23.9958 19.6591C24.0246 19.4626 23.9049 19.2748 23.7147 19.2178L23.7434 19.1221L23.7434 19.122L20.0999 18.029V18.011L21.6995 17.6911L21.6995 17.6912L21.7029 17.6904C21.9651 17.6285 22.1312 17.3699 22.0783 17.1057C22.0255 16.8415 21.7728 16.6667 21.5069 16.7104L21.5069 16.7103L21.5035 16.711L20.1031 16.9911V16.7311L28.6424 13.0806L28.6436 13.0801C28.7591 13.029 28.8936 13.0475 28.9911 13.1278L28.9911 13.1278L28.9929 13.1292C29.0772 13.1956 29.1168 13.3038 29.0952 13.4089C28.4675 16.4381 28.467 19.5637 29.0936 22.5931C29.1151 22.6982 29.0755 22.8065 28.9912 22.8729ZM17.9999 20.701C17.3924 20.701 16.8999 20.2086 16.8999 19.601V16.401C16.8999 15.7935 17.3924 15.301 17.9999 15.301C18.6074 15.301 19.0999 15.7935 19.0999 16.401V19.601C19.0999 20.2086 18.6074 20.701 17.9999 20.701Z" fill="#EF9B00" stroke="#EF9B00" stroke-width="0.2"/>
<mask id="path-3-inside-1_3946_19141" fill="white">
<path fill-rule="evenodd" clip-rule="evenodd" d="M12.7997 17.068C12.996 17.0681 13.1634 16.9258 13.1948 16.732C13.2263 16.5382 13.1124 16.3502 12.9261 16.2884L12.1261 16.0216C11.9162 15.9517 11.6895 16.0653 11.6197 16.2752C11.5499 16.485 11.6634 16.7117 11.8733 16.7816L12.6733 17.048C12.7141 17.0614 12.7568 17.0681 12.7997 17.068Z"/>
</mask>
<path fill-rule="evenodd" clip-rule="evenodd" d="M12.7997 17.068C12.996 17.0681 13.1634 16.9258 13.1948 16.732C13.2263 16.5382 13.1124 16.3502 12.9261 16.2884L12.1261 16.0216C11.9162 15.9517 11.6895 16.0653 11.6197 16.2752C11.5499 16.485 11.6634 16.7117 11.8733 16.7816L12.6733 17.048C12.7141 17.0614 12.7568 17.0681 12.7997 17.068Z" fill="#EF9B00"/>
<path d="M12.7997 17.068L12.8003 16.1984L12.7965 16.1984L12.7997 17.068ZM13.1948 16.732L12.3365 16.5928L13.1948 16.732ZM12.9261 16.2884L12.651 17.1133L12.6519 17.1136L12.9261 16.2884ZM12.1261 16.0216L12.4012 15.1967L12.4006 15.1964L12.1261 16.0216ZM11.6197 16.2752L10.7946 16.0007L10.7946 16.0007L11.6197 16.2752ZM11.8733 16.7816L12.148 15.9565L12.1478 15.9564L11.8733 16.7816ZM12.6733 17.048L12.3986 17.873L12.4018 17.874L12.6733 17.048ZM12.7991 17.9375C13.4222 17.938 13.9535 17.4862 14.0532 16.8711L12.3365 16.5928C12.3734 16.3653 12.5699 16.1982 12.8003 16.1984L12.7991 17.9375ZM14.0532 16.8711C14.1529 16.2561 13.7916 15.6596 13.2003 15.4631L12.6519 17.1136C12.4332 17.0409 12.2996 16.8203 12.3365 16.5928L14.0532 16.8711ZM13.2012 15.4635L12.4012 15.1967L11.851 16.8465L12.651 17.1133L13.2012 15.4635ZM12.4006 15.1964C11.735 14.9751 11.016 15.3351 10.7946 16.0007L12.4448 16.5496C12.363 16.7954 12.0975 16.9284 11.8516 16.8467L12.4006 15.1964ZM10.7946 16.0007C10.5732 16.6663 10.9333 17.3853 11.5988 17.6067L12.1478 15.9564C12.3936 16.0382 12.5266 16.3038 12.4448 16.5496L10.7946 16.0007ZM11.5986 17.6066L12.3986 17.873L12.948 16.2229L12.148 15.9565L11.5986 17.6066ZM12.4018 17.874C12.5312 17.9166 12.6667 17.938 12.8029 17.9375L12.7965 16.1984C12.8469 16.1982 12.897 16.2061 12.9448 16.2219L12.4018 17.874Z" fill="#EF9B00" mask="url(#path-3-inside-1_3946_19141)"/>
<mask id="path-5-inside-2_3946_19141" fill="white">
<path fill-rule="evenodd" clip-rule="evenodd" d="M23.8735 16.0216L23.0735 16.2884C22.8636 16.3583 22.7501 16.585 22.8199 16.7948C22.8897 17.0047 23.1164 17.1183 23.3263 17.0484L24.1263 16.782C24.3362 16.7122 24.4497 16.4855 24.3799 16.2756C24.3101 16.0658 24.0834 15.9522 23.8735 16.022V16.0216Z"/>
</mask>
<path fill-rule="evenodd" clip-rule="evenodd" d="M23.8735 16.0216L23.0735 16.2884C22.8636 16.3583 22.7501 16.585 22.8199 16.7948C22.8897 17.0047 23.1164 17.1183 23.3263 17.0484L24.1263 16.782C24.3362 16.7122 24.4497 16.4855 24.3799 16.2756C24.3101 16.0658 24.0834 15.9522 23.8735 16.022V16.0216Z" fill="#EF9B00"/>
<path d="M23.8735 16.0216H24.7431V14.815L23.5984 15.1967L23.8735 16.0216ZM23.0735 16.2884L23.348 17.1136L23.3486 17.1133L23.0735 16.2884ZM23.3263 17.0484L23.6008 17.8736L23.601 17.8735L23.3263 17.0484ZM24.1263 16.782L23.8518 15.9569L23.8516 15.957L24.1263 16.782ZM23.8735 16.022H23.0039V17.2277L24.148 16.8472L23.8735 16.022ZM23.5984 15.1967L22.7984 15.4635L23.3486 17.1133L24.1486 16.8465L23.5984 15.1967ZM22.799 15.4633C22.1335 15.6847 21.7734 16.4037 21.9948 17.0693L23.645 16.5204C23.7268 16.7662 23.5938 17.0318 23.348 17.1136L22.799 15.4633ZM21.9948 17.0693C22.2162 17.7349 22.9352 18.0949 23.6008 17.8736L23.0518 16.2233C23.2977 16.1416 23.5632 16.2746 23.645 16.5204L21.9948 17.0693ZM23.601 17.8735L24.401 17.6071L23.8516 15.957L23.0516 16.2234L23.601 17.8735ZM24.4008 17.6072C25.0663 17.3858 25.4264 16.6668 25.205 16.0012L23.5548 16.5501C23.473 16.3043 23.606 16.0387 23.8518 15.9569L24.4008 17.6072ZM25.205 16.0012C24.9836 15.3356 24.2646 14.9755 23.599 15.1969L24.148 16.8472C23.9021 16.9289 23.6366 16.7959 23.5548 16.5501L25.205 16.0012ZM24.7431 16.022V16.0216H23.0039V16.022H24.7431Z" fill="#EF9B00" mask="url(#path-5-inside-2_3946_19141)"/>
</g>
<defs>
<clipPath id="clip0_3946_19141">
<rect width="24" height="24" fill="white" transform="translate(6 6)"/>
</clipPath>
</defs>
</svg>
