<svg width="36" height="37" viewBox="0 0 36 37" fill="none" xmlns="http://www.w3.org/2000/svg">
<rect y="0.707031" width="36" height="36" rx="5" fill="#13142F"/>
<g clip-path="url(#clip0_4177_21158)">
<path d="M10.4241 19.0169H6.40631C6.25285 19.0169 6.10943 19.094 6.02497 19.222L6.02495 19.2221C5.94044 19.3504 5.92589 19.5123 5.98658 19.6534L10.4241 19.0169ZM10.4241 19.0169V14.9991C10.4241 14.8693 10.4792 14.7461 10.5754 14.6593L10.5756 14.6592C10.6717 14.5732 10.7994 14.5308 10.9295 14.545M10.4241 19.0169L10.9241 14.5947M10.9295 14.545L10.9241 14.5947M10.9295 14.545L10.9294 14.545L10.9241 14.5947M10.9295 14.545L12.9759 14.7643M10.9241 14.5947L12.9709 14.8141L12.9759 14.7643M12.9759 14.7643L13.2872 11.6716L13.2872 11.6716C13.3026 11.5195 13.3931 11.3852 13.5283 11.3139L13.5284 11.3138C13.6637 11.2426 13.8257 11.2434 13.9601 11.3166M12.9759 14.7643L13.0256 14.7696L13.9601 11.3166M13.9601 11.3166L13.9601 11.3166L13.9362 11.3605L13.9601 11.3166ZM13.9601 11.3166L15.8433 12.3414M13.9601 11.3166L15.8433 12.3414M22.6124 15.9166L22.6124 15.9166L25.3595 19.017H29.5926C29.8448 19.017 30.0494 19.2213 30.0495 19.4736V20.5299C30.0495 20.9389 29.7912 21.3707 29.3999 21.7927C29.0069 22.2164 28.4716 22.6388 27.9006 23.0294C26.7584 23.8109 25.4652 24.4705 24.8589 24.7656L22.6124 15.9166ZM22.6124 15.9166C22.5369 15.8314 22.4325 15.7775 22.3192 15.7654M22.6124 15.9166L22.3192 15.7654M8.87046 25.6248L8.87039 25.6248C8.86197 25.6252 8.85386 25.6252 8.84686 25.6252C8.66507 25.6252 8.49932 25.5169 8.42725 25.3483L8.87046 25.6248ZM8.87046 25.6248L24.6824 24.8112M8.87046 25.6248L24.6824 24.8112M22.3192 15.7654L17.2581 15.2232M22.3192 15.7654L17.2581 15.2232M17.2581 15.2232L16.0406 12.553L17.2581 15.2232ZM15.8433 12.3414C15.9304 12.3886 15.9996 12.4627 16.0406 12.5529L15.8433 12.3414ZM15.8433 12.3414L15.8434 12.3414L15.8195 12.3854L15.8433 12.3414ZM24.6824 24.8112C24.7437 24.8081 24.8037 24.7926 24.8588 24.7657L24.6824 24.8112ZM5.98661 19.6534L8.42722 25.3482L5.98661 19.6534ZM22.0459 16.6549L24.1389 19.017H20.2866V16.4665L22.0459 16.6549ZM14.1273 12.4474L15.2727 13.0707L16.2026 15.1101L13.8844 14.8617L14.1273 12.4474ZM19.3732 16.3686V19.017H11.3376V15.5078L19.3732 16.3686ZM29.1359 20.5301C29.1359 20.6062 29.1037 20.7001 29.0361 20.8109C28.969 20.9211 28.8696 21.0439 28.7415 21.1765C28.4854 21.4418 28.1194 21.7421 27.6818 22.0557C26.8093 22.681 25.6579 23.3549 24.5419 23.9037L9.1414 24.6962L7.09904 19.9305H10.8809H19.4232H20.2367H25.154H29.1359V20.5301Z" fill="#4169E1" stroke="#4169E1" stroke-width="0.1"/>
<path d="M27.1518 25.4173H21.6402C21.3879 25.4173 21.1834 25.6217 21.1834 25.8741C21.1834 26.1265 21.3879 26.3308 21.6402 26.3308H27.1518C27.404 26.3308 27.6086 26.1265 27.6086 25.8741C27.6086 25.6217 27.4039 25.4173 27.1518 25.4173Z" fill="#4169E1" stroke="#4169E1" stroke-width="0.1"/>
<path d="M12.3245 25.824H6.81303C6.56077 25.824 6.35625 26.0284 6.35625 26.2808C6.35625 26.5332 6.56077 26.7376 6.81303 26.7376H12.3246C12.5769 26.7376 12.7814 26.5332 12.7814 26.2808C12.7814 26.0284 12.5768 25.824 12.3245 25.824Z" fill="#4169E1" stroke="#4169E1" stroke-width="0.1"/>
</g>
<defs>
<clipPath id="clip0_4177_21158">
<rect width="24" height="24" fill="white" transform="translate(6 7)"/>
</clipPath>
</defs>
</svg>
