<svg width="36" height="37" viewBox="0 0 36 37" fill="none" xmlns="http://www.w3.org/2000/svg">
<rect y="0.707031" width="36" height="36" rx="5" fill="#ECF0FC"/>
<g clip-path="url(#clip0_4177_18571)">
<path d="M10.4236 19.0169H6.40582C6.25236 19.0169 6.10894 19.094 6.02448 19.222L6.02446 19.2221C5.93995 19.3504 5.9254 19.5123 5.98609 19.6534L10.4236 19.0169ZM10.4236 19.0169V14.9991C10.4236 14.8693 10.4787 14.7461 10.5749 14.6593L10.5751 14.6592C10.6712 14.5732 10.7989 14.5308 10.929 14.545M10.4236 19.0169L10.9236 14.5947M10.929 14.545L10.9236 14.5947M10.929 14.545L10.9289 14.545L10.9236 14.5947M10.929 14.545L12.9754 14.7643M10.9236 14.5947L12.9704 14.8141L12.9754 14.7643M12.9754 14.7643L13.2867 11.6716L13.2868 11.6716C13.3022 11.5195 13.3926 11.3852 13.5278 11.3139L13.5279 11.3138C13.6632 11.2426 13.8252 11.2434 13.9597 11.3166M12.9754 14.7643L13.0251 14.7696L13.9597 11.3166M13.9597 11.3166L13.9596 11.3166L13.9357 11.3605L13.9597 11.3166ZM13.9597 11.3166L15.8429 12.3414M13.9597 11.3166L15.8429 12.3414M22.6119 15.9166L22.612 15.9166L25.3591 19.017H29.5921C29.8443 19.017 30.0489 19.2213 30.049 19.4736V20.5299C30.049 20.9389 29.7907 21.3707 29.3994 21.7927C29.0064 22.2164 28.4712 22.6388 27.9002 23.0294C26.7579 23.8109 25.4647 24.4705 24.8584 24.7656L22.6119 15.9166ZM22.6119 15.9166C22.5364 15.8314 22.432 15.7775 22.3187 15.7654M22.6119 15.9166L22.3187 15.7654M8.86998 25.6248L8.86991 25.6248C8.86148 25.6252 8.85337 25.6252 8.84637 25.6252C8.66458 25.6252 8.49883 25.5169 8.42676 25.3483L8.86998 25.6248ZM8.86998 25.6248L24.6819 24.8112M8.86998 25.6248L24.6819 24.8112M22.3187 15.7654L17.2576 15.2232M22.3187 15.7654L17.2576 15.2232M17.2576 15.2232L16.0401 12.553L17.2576 15.2232ZM15.8429 12.3414C15.9299 12.3886 15.9991 12.4627 16.0401 12.5529L15.8429 12.3414ZM15.8429 12.3414L15.8429 12.3414L15.819 12.3854L15.8429 12.3414ZM24.6819 24.8112C24.7432 24.8081 24.8033 24.7926 24.8583 24.7657L24.6819 24.8112ZM5.98613 19.6534L8.42674 25.3482L5.98613 19.6534ZM22.0454 16.6549L24.1384 19.017H20.2861V16.4665L22.0454 16.6549ZM14.1268 12.4474L15.2722 13.0707L16.2021 15.1101L13.8839 14.8617L14.1268 12.4474ZM19.3727 16.3686V19.017H11.3372V15.5078L19.3727 16.3686ZM29.1354 20.5301C29.1354 20.6062 29.1032 20.7001 29.0356 20.8109C28.9685 20.9211 28.8691 21.0439 28.741 21.1765C28.485 21.4418 28.1189 21.7421 27.6813 22.0557C26.8088 22.681 25.6574 23.3549 24.5414 23.9037L9.14091 24.6962L7.09855 19.9305H10.8804H19.4227H20.2363H25.1535H29.1354V20.5301Z" fill="#4169E1" stroke="#4169E1" stroke-width="0.1"/>
<path d="M27.1518 25.4173H21.6402C21.3879 25.4173 21.1834 25.6217 21.1834 25.8741C21.1834 26.1265 21.3879 26.3308 21.6402 26.3308H27.1518C27.404 26.3308 27.6086 26.1265 27.6086 25.8741C27.6086 25.6217 27.4039 25.4173 27.1518 25.4173Z" fill="#4169E1" stroke="#4169E1" stroke-width="0.1"/>
<path d="M12.3245 25.824H6.81303C6.56077 25.824 6.35625 26.0284 6.35625 26.2808C6.35625 26.5332 6.56077 26.7376 6.81303 26.7376H12.3246C12.5769 26.7376 12.7814 26.5332 12.7814 26.2808C12.7814 26.0284 12.5768 25.824 12.3245 25.824Z" fill="#4169E1" stroke="#4169E1" stroke-width="0.1"/>
</g>
<defs>
<clipPath id="clip0_4177_18571">
<rect width="24" height="24" fill="white" transform="translate(6 7)"/>
</clipPath>
</defs>
</svg>
