<svg width="36" height="37" viewBox="0 0 36 37" fill="none" xmlns="http://www.w3.org/2000/svg">
<rect y="0.707031" width="36" height="36" rx="5" fill="#ECF5ED"/>
<path d="M20.5 11.5C20.5 12.8807 19.3807 14 18 14C16.6193 14 15.5 12.8807 15.5 11.5C15.5 10.1193 16.6193 9 18 9C19.3807 9 20.5 10.1193 20.5 11.5Z" fill="#459F49"/>
<path fill-rule="evenodd" clip-rule="evenodd" d="M14.9 22.55C15.1485 22.2186 15.6186 22.1515 15.95 22.4C16.2814 22.6485 16.3485 23.1186 16.1 23.45L15.1755 24.6827C15.1681 24.6925 15.1609 24.7021 15.1537 24.7117C15.0273 24.8804 14.9279 25.013 14.8133 25.1328C14.5315 25.4274 14.1877 25.6557 13.8067 25.8011C13.6519 25.8602 13.4911 25.9004 13.2866 25.9514C13.275 25.9543 13.2633 25.9573 13.2514 25.9602L11.458 26.4086C11.0419 26.5126 10.75 26.8865 10.75 27.3153C10.75 27.8315 11.1685 28.25 11.6847 28.25H12.3684C13.9143 28.25 15.4185 27.7486 16.6553 26.8211L18.55 25.4C18.8814 25.1515 19.3515 25.2186 19.6 25.55C19.8485 25.8814 19.7814 26.3515 19.45 26.6L18.5453 27.2785L19.0371 27.4629C19.571 27.6631 19.8118 27.7531 20.0537 27.8288C20.7819 28.0564 21.5355 28.193 22.2973 28.2356C22.5503 28.2497 22.8074 28.25 23.3776 28.25H24.3153C24.8315 28.25 25.25 27.8315 25.25 27.3153C25.25 26.8865 24.9581 26.5126 24.542 26.4086L23.0684 26.0402C23.0408 26.0333 23.0136 26.0265 22.9866 26.0198C22.511 25.9012 22.1357 25.8077 21.8003 25.6143C21.7 25.5565 21.6035 25.4924 21.5114 25.4224C21.203 25.1884 20.9711 24.8788 20.6773 24.4864C20.6606 24.4642 20.6438 24.4417 20.6267 24.4189L19.9 23.45C19.6515 23.1186 19.7186 22.6485 20.05 22.4C20.3814 22.1515 20.8515 22.2186 21.1 22.55L21.8267 23.5189C22.1952 24.0103 22.2982 24.1365 22.4182 24.2276C22.4601 24.2594 22.504 24.2885 22.5496 24.3148C22.6801 24.3901 22.8364 24.436 23.4322 24.585L24.9058 24.9534C25.9897 25.2243 26.75 26.1982 26.75 27.3153C26.75 28.66 25.66 29.75 24.3153 29.75H23.3524C22.8139 29.75 22.5133 29.75 22.2136 29.7333C21.3283 29.6838 20.4525 29.525 19.6062 29.2605C19.3197 29.1709 19.0382 29.0653 18.534 28.8762L17.1016 28.3391C15.6981 29.2575 14.0537 29.75 12.3684 29.75H11.6847C10.34 29.75 9.25 28.66 9.25 27.3153C9.25 26.1982 10.0103 25.2243 11.0942 24.9534L12.8876 24.505C13.1433 24.4411 13.2116 24.4227 13.2718 24.3997C13.445 24.3337 13.6012 24.2299 13.7294 24.096C13.7739 24.0493 13.8174 23.9935 13.9755 23.7827L14.9 22.55Z" fill="#459F49"/>
<g opacity="0.5">
<path d="M18.0002 16.771C17.644 16.771 17.3211 16.7915 17.1392 16.8223L16.2476 16.9725C14.2351 17.3114 12.7502 19.074 12.7502 21.1506C12.7502 22.2314 12.2157 23.2439 11.3207 23.8468L11.2194 23.915C10.9647 24.0866 10.6882 24.2233 10.3973 24.3212L9.2396 24.7112C8.84706 24.8434 8.42165 24.6324 8.28944 24.2398C8.15722 23.8473 8.36826 23.4219 8.76081 23.2896L9.9185 22.8997C10.082 22.8446 10.2377 22.7677 10.3814 22.6709L10.4826 22.6027C10.9602 22.281 11.2502 21.7368 11.2502 21.1506C11.2502 18.353 13.2528 15.9557 15.9985 15.4933L16.8885 15.3434C17.1929 15.2919 17.6133 15.271 18.0002 15.271C18.3869 15.271 18.8071 15.2917 19.1116 15.3434L20.0019 15.4933C22.7476 15.9557 24.7502 18.353 24.7502 21.1506C24.7502 21.7368 25.0402 22.281 25.5178 22.6027L25.619 22.6709C25.7627 22.7677 25.9184 22.8446 26.0819 22.8997L27.2396 23.2896C27.6321 23.4219 27.8432 23.8473 27.711 24.2398C27.5788 24.6324 27.1534 24.8434 26.7608 24.7112L25.6031 24.3212C25.3122 24.2233 25.0357 24.0866 24.781 23.915L24.6797 23.8468C23.7847 23.2439 23.2502 22.2314 23.2502 21.1506C23.2502 19.074 21.7653 17.3114 19.7528 16.9725L18.861 16.8223C18.6793 16.7914 18.3565 16.771 18.0002 16.771Z" fill="#459F49"/>
</g>
</svg>
