<svg width="36" height="37" viewBox="0 0 36 37" fill="none" xmlns="http://www.w3.org/2000/svg">
<rect y="0.707031" width="36" height="36" rx="5" fill="#ECF5ED"/>
<g clip-path="url(#clip0_4262_22526)">
<path d="M15.1618 26.906C15.0469 26.906 14.9349 26.8702 14.8412 26.8037C14.7475 26.7372 14.6768 26.6432 14.6389 26.5348C14.6252 26.4955 14.6125 26.4557 14.6001 26.415C14.36 25.613 14.4397 24.6234 14.8502 23.302C15.1536 22.3259 15.6061 21.2598 16.1295 20.0834C14.9481 19.4239 14.2057 18.6169 13.361 17.7004C12.2574 16.5032 10.8843 15.0131 7.91262 13.1661C7.81008 13.1027 7.73102 13.0076 7.68745 12.8951C7.64389 12.7827 7.63819 12.6591 7.67122 12.5432C7.70426 12.4272 7.77422 12.3252 7.87049 12.2526C7.96676 12.18 8.08409 12.1408 8.20467 12.1409C10.6363 12.1444 12.8215 13.4038 14.579 14.4156C15.8941 15.1733 17.1365 15.8887 17.7293 15.574C17.7443 15.5661 17.7704 15.5476 17.7955 15.532C17.8332 15.507 17.8802 15.4759 17.9342 15.4458C18.0026 15.4078 18.053 15.3777 18.1015 15.349L18.125 15.335C18.1444 15.3234 18.1592 15.3055 18.1669 15.2843C19.3702 11.9721 19.5322 9.49987 18.6774 7.50646C18.6257 7.38437 18.6195 7.24778 18.6599 7.1215C18.7003 6.99521 18.7847 6.8876 18.8976 6.81822C19.0106 6.74884 19.1448 6.72229 19.2757 6.74339C19.4066 6.76448 19.5256 6.83183 19.6111 6.93319C20.6009 8.11403 21.1317 9.43734 21.2821 11.0981C21.4127 12.5401 21.2383 14.0679 21.0539 15.6853C21.0038 16.1243 20.9531 16.5702 20.9072 17.0229C21.19 16.7717 21.471 16.5789 21.7477 16.3897C22.6956 15.7365 23.6757 15.0635 24.9394 11.55C24.9849 11.4238 25.0746 11.3184 25.1919 11.2534C25.3092 11.1884 25.4461 11.1681 25.5773 11.1964C25.7084 11.2246 25.8248 11.2995 25.9049 11.4071C25.985 11.5147 26.0234 11.6476 26.0128 11.7814C25.6506 16.3441 24.2033 18.027 22.6695 19.8075C22.0704 20.5039 21.4517 21.2228 20.8658 22.1539C21.0305 23.5235 21.3771 24.865 21.8965 26.143C21.9238 26.2105 21.9375 26.2826 21.9369 26.3554C21.9363 26.4282 21.9214 26.5001 21.893 26.5671C21.8646 26.6341 21.8232 26.6948 21.7714 26.7458C21.7195 26.7969 21.6581 26.8372 21.5906 26.8644C21.5232 26.8917 21.451 26.9055 21.3782 26.9048C21.3055 26.9042 21.2335 26.8893 21.1666 26.8609C21.0996 26.8325 21.0388 26.7912 20.9878 26.7393C20.9368 26.6874 20.8965 26.626 20.8692 26.5585C20.2878 25.1276 19.9086 23.6227 19.7424 22.0871C19.729 21.9654 19.7563 21.8427 19.82 21.7381C20.4835 20.6517 21.1673 19.8555 21.829 19.0859C22.6732 18.1066 23.4491 17.2041 24.0221 15.8238C23.4343 16.5731 22.8877 16.9485 22.3753 17.3012C21.772 17.7157 21.2507 18.0737 20.698 19.0785C20.6376 19.1882 20.5418 19.2742 20.4263 19.3224C20.3108 19.3707 20.1823 19.3784 20.0619 19.3443C19.9414 19.3102 19.836 19.2364 19.7629 19.1347C19.6898 19.0331 19.6533 18.9097 19.6593 18.7846C19.7142 17.656 19.8358 16.59 19.9535 15.559C20.1089 14.1958 20.2506 12.9548 20.2173 11.8093C20.0606 12.963 19.7287 14.2291 19.2082 15.6626C19.113 15.9241 18.9304 16.1448 18.6914 16.2874L18.669 16.3008C18.6183 16.3309 18.5555 16.3686 18.4719 16.415C18.4563 16.4237 18.4329 16.4393 18.4083 16.4557C18.3572 16.4907 18.3044 16.5232 18.25 16.553C17.5298 16.9353 16.7399 16.7087 16.2084 16.5053C15.5488 16.2525 14.8101 15.8267 14.0271 15.3761C12.9911 14.7791 11.8723 14.1354 10.6822 13.7133C12.3529 14.9714 13.3388 16.0409 14.1754 16.9487C15.1233 17.9776 15.8081 18.7203 17.0874 19.3315C17.2179 19.3939 17.3188 19.5049 17.3686 19.6407C17.4184 19.7765 17.4131 19.9264 17.3538 20.0584C16.3695 22.2507 15.2541 24.7353 15.6612 26.0966C15.6686 26.1209 15.6765 26.1454 15.6847 26.1694C15.7138 26.2529 15.7225 26.3422 15.7101 26.4298C15.6977 26.5173 15.6645 26.6007 15.6133 26.6728C15.5621 26.7449 15.4943 26.8037 15.4157 26.8443C15.3371 26.8848 15.25 26.906 15.1615 26.906H15.1618Z" fill="#203529"/>
<path d="M24.9948 28.5693H11.6721C11.5564 28.5692 11.4437 28.533 11.3497 28.4657C11.2557 28.3984 11.1851 28.3034 11.1478 28.1939C11.1105 28.0844 11.1084 27.9661 11.1417 27.8553C11.1751 27.7446 11.2423 27.6471 11.3339 27.5765C11.394 27.5303 12.8329 26.4368 15.2764 25.8881C16.7206 25.566 18.2097 25.4956 19.6779 25.6802C21.5338 25.9081 23.4109 26.5302 25.2571 27.5293C25.3655 27.588 25.4513 27.6811 25.5008 27.794C25.5503 27.9069 25.5608 28.0331 25.5305 28.1526C25.5002 28.2721 25.4309 28.3781 25.3336 28.4538C25.2363 28.5295 25.1166 28.5706 24.9933 28.5706L24.9948 28.5693ZM13.9082 27.4612H22.4094C20.0934 26.636 17.8024 26.4656 15.5731 26.9568C15.0054 27.0812 14.4483 27.2499 13.9069 27.4612H13.9082ZM17.0139 25.1262C16.9451 25.1264 16.8787 25.101 16.8276 25.055C16.7765 25.009 16.7443 24.9456 16.7374 24.8771C16.548 23.0159 17.6227 21.4172 17.6686 21.3502C17.7107 21.2909 17.7742 21.2506 17.8457 21.2377C17.9172 21.2249 17.9908 21.2407 18.0508 21.2816C18.1108 21.3226 18.1523 21.3854 18.1664 21.4567C18.1804 21.5279 18.166 21.6018 18.1261 21.6625C18.1108 21.6852 17.1202 23.17 17.2885 24.8212C17.2959 24.8943 17.274 24.9673 17.2276 25.0243C17.1812 25.0812 17.1141 25.1174 17.041 25.1249C17.032 25.1257 17.0229 25.1262 17.0139 25.1262ZM18.1601 24.8658C18.0918 24.8657 18.026 24.8404 17.9752 24.7948C17.9244 24.7491 17.8923 24.6863 17.885 24.6183C17.8008 23.833 18.072 23.1093 18.0836 23.079C18.11 23.0107 18.1623 22.9556 18.2292 22.9257C18.2961 22.8959 18.372 22.8937 18.4405 22.9198C18.5089 22.9458 18.5643 22.9978 18.5945 23.0645C18.6246 23.1312 18.6272 23.2072 18.6015 23.2758C18.5973 23.2871 18.3664 23.9121 18.4358 24.5592C18.4437 24.6323 18.4222 24.7055 18.3761 24.7626C18.3299 24.8198 18.263 24.8564 18.19 24.8642C18.18 24.8653 18.1701 24.8658 18.1601 24.8658Z" fill="#203529"/>
<path d="M17.6277 10.2438C17.8399 10.6552 17.8801 11.1341 17.7392 11.5751C17.5984 12.0161 17.2881 12.3831 16.8767 12.5953C16.4653 12.8076 15.9864 12.8477 15.5454 12.7069C15.1044 12.566 14.7374 12.2558 14.5252 11.8444C14.0833 10.9875 14.3877 7.77051 14.3877 7.77051C14.3877 7.77051 17.1858 9.38665 17.6277 10.2438Z" fill="#178E3B"/>
<path d="M14.9556 12.2661C14.9864 12.3257 15.0285 12.3786 15.0797 12.4219C15.1309 12.4652 15.1902 12.498 15.254 12.5184C15.3179 12.5388 15.3851 12.5464 15.452 12.5408C15.5188 12.5352 15.5838 12.5165 15.6434 12.4857C15.703 12.455 15.7559 12.4128 15.7992 12.3616C15.8425 12.3104 15.8753 12.2512 15.8956 12.1873C15.916 12.1235 15.9236 12.0562 15.918 11.9894C15.9124 11.9226 15.8937 11.8575 15.863 11.798C15.8323 11.7384 15.7901 11.6854 15.7389 11.6421C15.6877 11.5989 15.6285 11.5661 15.5646 11.5457C15.5007 11.5253 15.4335 11.5177 15.3667 11.5233C15.2999 11.5289 15.2348 11.5476 15.1752 11.5783C15.1157 11.609 15.0627 11.6512 15.0194 11.7024C14.9762 11.7536 14.9434 11.8128 14.923 11.8767C14.9026 11.9406 14.895 12.0078 14.9006 12.0746C14.9062 12.1414 14.9249 12.2065 14.9556 12.2661Z" fill="#2FA65B"/>
<path d="M16.0778 13.3441C15.6553 13.3437 15.241 13.2273 14.8801 13.0074C14.5193 12.7876 14.2258 12.4729 14.0316 12.0976C13.8865 11.814 13.6966 11.2336 13.737 9.47364C13.7581 8.55318 13.8332 7.75223 13.8364 7.71846C13.8452 7.62606 13.877 7.53734 13.929 7.46045C13.981 7.38357 14.0515 7.32098 14.134 7.27843C14.2165 7.23588 14.3084 7.21474 14.4011 7.21695C14.4939 7.21916 14.5847 7.24465 14.6651 7.29108C14.6943 7.30797 15.3906 7.71108 16.153 8.22737C17.6108 9.21484 17.9733 9.70633 18.1203 9.98993C18.3006 10.3405 18.3878 10.7314 18.3736 11.1253C18.3594 11.5192 18.2443 11.9029 18.0393 12.2396C17.8343 12.5763 17.5463 12.8546 17.2028 13.048C16.8594 13.2414 16.472 13.3434 16.0778 13.3441ZM14.8737 8.71253C14.8057 9.96276 14.835 11.2365 15.0175 11.5902C15.1624 11.8711 15.4129 12.0829 15.7139 12.1791C16.015 12.2752 16.3419 12.2478 16.6227 12.103C16.9036 11.9581 17.1154 11.7076 17.2115 11.4066C17.3077 11.1055 17.2803 10.7786 17.1354 10.4978C16.9529 10.144 15.9319 9.38183 14.8737 8.71253Z" fill="#203529"/>
<path d="M16.7637 12.6552C16.7128 12.6553 16.6629 12.6413 16.6194 12.6148C16.5759 12.5883 16.5406 12.5504 16.5173 12.5051L14.4928 8.57847C14.4755 8.5461 14.4649 8.51063 14.4615 8.47412C14.4581 8.43761 14.462 8.40079 14.4729 8.3658C14.4839 8.3308 14.5016 8.29832 14.5252 8.27024C14.5488 8.24217 14.5777 8.21905 14.6103 8.20223C14.6429 8.18542 14.6785 8.17524 14.715 8.17229C14.7516 8.16933 14.7883 8.17366 14.8232 8.18503C14.8581 8.19639 14.8903 8.21457 14.9181 8.23849C14.9459 8.26242 14.9686 8.29162 14.985 8.32441L17.0109 12.2513C17.0327 12.2936 17.0432 12.3408 17.0415 12.3884C17.0397 12.4359 17.0258 12.4822 17.0009 12.5228C16.9761 12.5634 16.9412 12.5969 16.8997 12.6201C16.8581 12.6433 16.8113 12.6554 16.7637 12.6552Z" fill="#203529"/>
<path d="M15.7613 10.9679C15.7323 10.9679 15.7036 10.9633 15.676 10.9544L14.3076 10.5117C14.2377 10.4891 14.1795 10.4397 14.146 10.3742C14.1125 10.3088 14.1064 10.2327 14.129 10.1627C14.1516 10.0927 14.2011 10.0346 14.2665 10.0011C14.332 9.96763 14.4081 9.96151 14.4781 9.98411L15.8465 10.4268C15.9097 10.4468 15.9636 10.4888 15.9984 10.5452C16.0333 10.6015 16.0468 10.6685 16.0365 10.734C16.0262 10.7994 15.9927 10.859 15.9422 10.902C15.8917 10.9449 15.8275 10.9683 15.7613 10.9679ZM16.2778 11.5174C16.2343 11.5173 16.1915 11.507 16.1528 11.4873C16.114 11.4675 16.0805 11.439 16.0548 11.4039C16.0291 11.3689 16.012 11.3282 16.005 11.2853C15.9979 11.2425 16.001 11.1985 16.014 11.157L16.4467 9.78519C16.4562 9.7489 16.473 9.71493 16.4961 9.68534C16.5191 9.65575 16.548 9.63115 16.5808 9.61303C16.6137 9.59492 16.6499 9.58367 16.6872 9.57997C16.7245 9.57626 16.7622 9.58018 16.798 9.59149C16.8338 9.60279 16.8669 9.62125 16.8953 9.64573C16.9238 9.67022 16.9469 9.70022 16.9634 9.73393C16.9799 9.76763 16.9894 9.80434 16.9912 9.84181C16.9931 9.87928 16.9873 9.91674 16.9743 9.95192L16.5416 11.3238C16.5239 11.3799 16.4888 11.4289 16.4413 11.4637C16.3939 11.4985 16.3366 11.5173 16.2778 11.5174Z" fill="#203529"/>
<path d="M10.0891 8.78981C10.4285 9.01157 10.6658 9.35906 10.7489 9.75583C10.8321 10.1526 10.7542 10.5661 10.5324 10.9055C10.3107 11.2448 9.96319 11.4822 9.56643 11.5653C9.16966 11.6485 8.75612 11.5706 8.41677 11.3488C7.71053 10.8861 6.55396 8.30518 6.55396 8.30518C6.55396 8.30518 9.38287 8.32813 10.0891 8.78981Z" fill="#178E3B"/>
<path d="M8.92708 11.4832C8.97621 11.5153 9.03118 11.5374 9.08886 11.5483C9.14654 11.5592 9.2058 11.5586 9.26325 11.5465C9.3207 11.5345 9.37522 11.5113 9.4237 11.4782C9.47217 11.4451 9.51365 11.4028 9.54576 11.3536C9.57788 11.3045 9.6 11.2495 9.61086 11.1918C9.62173 11.1342 9.62112 11.0749 9.60908 11.0175C9.59704 10.96 9.57381 10.9055 9.54069 10.857C9.50758 10.8086 9.46525 10.7671 9.41611 10.735C9.36699 10.7029 9.31201 10.6807 9.25433 10.6699C9.19665 10.659 9.1374 10.6596 9.07994 10.6716C9.02249 10.6836 8.96797 10.7068 8.9195 10.7399C8.87103 10.773 8.82955 10.8154 8.79743 10.8645C8.76532 10.9136 8.7432 10.9686 8.73233 11.0263C8.72147 11.084 8.72207 11.1432 8.73411 11.2007C8.74615 11.2581 8.76939 11.3126 8.8025 11.3611C8.83561 11.4096 8.87794 11.451 8.92708 11.4832Z" fill="#2FA65B"/>
<path d="M9.24966 12.1504C8.84607 12.1506 8.45121 12.0329 8.11366 11.8116C7.87306 11.6555 7.46889 11.2861 6.73232 9.91428C6.35004 9.20197 6.06037 8.55773 6.04824 8.53082C6.01059 8.44647 5.99462 8.35405 6.0018 8.26197C6.00897 8.16988 6.03905 8.08104 6.08931 8.00355C6.13957 7.92605 6.20841 7.86235 6.28956 7.81824C6.37071 7.77412 6.46161 7.751 6.55397 7.75098H6.55872C6.58853 7.75098 7.29504 7.75784 8.101 7.82221C9.6533 7.94647 10.1522 8.16965 10.3925 8.32663C10.7686 8.57196 11.0553 8.93231 11.2097 9.35391C11.3642 9.77551 11.3783 10.2358 11.2498 10.666C11.1213 11.0962 10.8571 11.4734 10.4967 11.7412C10.1363 12.009 9.69894 12.1531 9.24992 12.152L9.24966 12.1504ZM7.44831 8.88882C7.52746 9.04711 7.61742 9.2207 7.71213 9.39614C8.36508 10.6115 8.66662 10.8487 8.72044 10.8841C8.93668 11.0254 9.20022 11.0751 9.45309 11.0222C9.70596 10.9692 9.92744 10.818 10.0688 10.6018C10.2102 10.3855 10.2599 10.122 10.2069 9.86914C10.154 9.61627 10.0028 9.39479 9.78653 9.25341C9.73376 9.21806 9.39344 9.03656 8.01288 8.92602C7.81608 8.91045 7.62454 8.89832 7.44831 8.88882Z" fill="#203529"/>
<path d="M10.3529 11.0649C10.2991 11.065 10.2465 11.0493 10.2015 11.0198L6.96395 8.90321C6.93202 8.88405 6.90427 8.85864 6.88238 8.82851C6.86048 8.79838 6.84489 8.76414 6.83653 8.72784C6.82817 8.69155 6.82722 8.65394 6.83373 8.61727C6.84024 8.58059 6.85408 8.54561 6.87442 8.51441C6.89476 8.48321 6.92118 8.45643 6.95211 8.43567C6.98304 8.41491 7.01783 8.40061 7.05441 8.39361C7.09099 8.38661 7.12861 8.38706 7.16502 8.39493C7.20142 8.4028 7.23587 8.41793 7.26629 8.43942L10.5041 10.556C10.554 10.5886 10.5921 10.6365 10.6127 10.6925C10.6332 10.7485 10.6351 10.8096 10.6181 10.8668C10.6012 10.924 10.5662 10.9741 10.5184 11.0098C10.4706 11.0455 10.4126 11.0649 10.3529 11.0649Z" fill="#203529"/>
<path d="M7.62665 10.4666C7.55796 10.4667 7.49169 10.4412 7.44071 10.3952C7.38973 10.3491 7.35767 10.2858 7.35077 10.2175C7.34386 10.1491 7.3626 10.0806 7.40335 10.0253C7.44409 9.97002 7.50393 9.93182 7.57125 9.91815L8.8046 9.66462C8.84023 9.65729 8.87695 9.65706 8.91268 9.66392C8.9484 9.67079 8.98242 9.68462 9.0128 9.70464C9.04318 9.72465 9.06932 9.75046 9.08972 9.78057C9.11013 9.81069 9.1244 9.84453 9.13173 9.88016C9.13906 9.91579 9.13929 9.95252 9.13243 9.98824C9.12556 10.024 9.11173 10.058 9.09171 10.0884C9.0717 10.1187 9.04589 10.1449 9.01578 10.1653C8.98566 10.1857 8.95182 10.2 8.91619 10.2073L7.68285 10.4608C7.66436 10.4647 7.64553 10.4666 7.62665 10.4666ZM9.49052 10.4086C9.42713 10.4085 9.36567 10.3867 9.31641 10.3468C9.26715 10.3069 9.23307 10.2514 9.21984 10.1894L8.95603 8.95786C8.9407 8.886 8.95455 8.811 8.99453 8.74935C9.03451 8.6877 9.09733 8.64446 9.16919 8.62914C9.24105 8.61382 9.31605 8.62767 9.3777 8.66764C9.43934 8.70762 9.48258 8.77045 9.49791 8.8423L9.76172 10.0738C9.77029 10.1142 9.76972 10.156 9.76007 10.1961C9.75042 10.2363 9.73192 10.2738 9.70593 10.3058C9.67994 10.3379 9.64711 10.3638 9.60984 10.3816C9.57258 10.3994 9.53181 10.4086 9.49052 10.4086Z" fill="#203529"/>
<path d="M11.7512 18.1284C12.2132 18.0995 12.6678 18.2554 13.0149 18.5617C13.362 18.868 13.5733 19.2997 13.6021 19.7617C13.631 20.2237 13.4751 20.6783 13.1688 21.0254C12.8625 21.3725 12.4309 21.5838 11.9688 21.6126C11.0067 21.6728 8.18384 20.1002 8.18384 20.1002C8.18384 20.1002 10.7893 18.1885 11.7512 18.1284Z" fill="#178E3B"/>
<path d="M11.9866 20.911C11.9908 20.9779 12.0081 21.0434 12.0375 21.1036C12.067 21.1638 12.108 21.2177 12.1583 21.262C12.2085 21.3064 12.267 21.3404 12.3305 21.3622C12.3939 21.3839 12.461 21.393 12.5279 21.3888C12.5948 21.3846 12.6602 21.3673 12.7205 21.3379C12.7807 21.3084 12.8345 21.2673 12.8789 21.2171C12.9232 21.1668 12.9572 21.1083 12.979 21.0449C13.0007 20.9814 13.0098 20.9144 13.0056 20.8474C13.0014 20.7805 12.9841 20.7151 12.9547 20.6549C12.9252 20.5946 12.8842 20.5408 12.8339 20.4964C12.7836 20.4521 12.7251 20.418 12.6617 20.3963C12.5983 20.3745 12.5312 20.3655 12.4643 20.3696C12.3974 20.3738 12.3319 20.3911 12.2717 20.4206C12.2115 20.4501 12.1577 20.4911 12.1133 20.5414C12.0689 20.5917 12.0349 20.6502 12.0132 20.7136C11.9914 20.777 11.9824 20.8441 11.9866 20.911Z" fill="#2FA65B"/>
<path d="M11.9071 22.1686C11.5642 22.1686 10.9292 22.057 9.48003 21.3808C8.64558 20.9912 7.94251 20.6005 7.91296 20.5841C7.83185 20.5389 7.76339 20.4741 7.71388 20.3955C7.66437 20.317 7.63539 20.2273 7.62961 20.1346C7.62384 20.0419 7.64144 19.9493 7.68081 19.8652C7.72018 19.7811 7.78005 19.7083 7.85492 19.6534C7.8813 19.6333 8.53108 19.1582 9.31066 18.6677C10.801 17.7301 11.3969 17.5953 11.7156 17.5753C12.3243 17.5373 12.9232 17.7426 13.3806 18.1461C13.8379 18.5497 14.1162 19.1184 14.1542 19.7271C14.1922 20.3358 13.9869 20.9347 13.5833 21.3921C13.1798 21.8494 12.6111 22.1277 12.0024 22.1657C11.9742 22.1673 11.9422 22.1686 11.9071 22.1686ZM9.2426 20.0341C10.3324 20.5852 11.48 21.0606 11.9045 21.0606H11.9351C12.0913 21.0508 12.244 21.0104 12.3845 20.9416C12.5251 20.8729 12.6507 20.7771 12.7542 20.6598C12.8577 20.5424 12.9372 20.4059 12.9879 20.2579C13.0387 20.1099 13.0598 19.9533 13.05 19.7971C13.0403 19.641 12.9998 19.4883 12.9311 19.3477C12.8623 19.2072 12.7665 19.0816 12.6492 18.978C12.5319 18.8745 12.3953 18.7951 12.2473 18.7444C12.0993 18.6936 11.9427 18.6725 11.7866 18.6823C11.3887 18.706 10.2802 19.3344 9.24181 20.0341H9.2426Z" fill="#203529"/>
<path d="M8.94866 20.329C8.8752 20.3312 8.80385 20.3042 8.75032 20.2538C8.69679 20.2035 8.66545 20.1339 8.66321 20.0604C8.66098 19.987 8.68801 19.9156 8.73838 19.8621C8.78874 19.8086 8.85831 19.7772 8.93178 19.775L13.3417 19.4996C13.4152 19.495 13.4875 19.5198 13.5427 19.5685C13.5979 19.6172 13.6315 19.6858 13.636 19.7593C13.6406 19.8328 13.6158 19.905 13.5671 19.9602C13.5184 20.0154 13.4498 20.049 13.3763 20.0536L8.96608 20.3285L8.94866 20.329Z" fill="#203529"/>
<path d="M10.4543 21.3692C10.4009 21.3692 10.3486 21.3538 10.3038 21.3247C10.259 21.2957 10.2235 21.2543 10.2016 21.2056C10.1798 21.1569 10.1725 21.1029 10.1806 21.0501C10.1887 20.9973 10.2119 20.948 10.2474 20.9081L11.203 19.8338C11.252 19.7789 11.3208 19.7457 11.3942 19.7415C11.4677 19.7373 11.5398 19.7624 11.5947 19.8114C11.6497 19.8604 11.6829 19.9292 11.6871 20.0026C11.6913 20.0761 11.6662 20.1482 11.6172 20.2032L10.6616 21.2782C10.6354 21.3072 10.6034 21.3302 10.5677 21.3459C10.532 21.3616 10.4933 21.3696 10.4543 21.3692ZM12.1205 20.0422C12.0534 20.0423 11.9885 20.018 11.938 19.9736L10.8563 19.026C10.829 19.002 10.8066 18.9729 10.7905 18.9403C10.7744 18.9077 10.7648 18.8722 10.7624 18.8359C10.76 18.7996 10.7648 18.7631 10.7765 18.7287C10.7881 18.6942 10.8065 18.6624 10.8305 18.635C10.8544 18.6077 10.8836 18.5853 10.9162 18.5692C10.9488 18.5531 10.9843 18.5435 11.0206 18.5411C11.0569 18.5387 11.0933 18.5435 11.1278 18.5552C11.1623 18.5669 11.1941 18.5852 11.2214 18.6092L12.3031 19.5568C12.3455 19.5939 12.3756 19.6431 12.3893 19.6978C12.403 19.7524 12.3997 19.81 12.3799 19.8627C12.3601 19.9155 12.3246 19.9609 12.2783 19.993C12.2319 20.0251 12.1769 20.0422 12.1205 20.0422Z" fill="#203529"/>
<path d="M25.6016 10.0499C25.3752 10.4537 24.9976 10.751 24.552 10.8764C24.1064 11.0018 23.6292 10.9451 23.2254 10.7187C22.8216 10.4922 22.5243 10.1147 22.3989 9.66906C22.2735 9.22344 22.3302 8.74624 22.5566 8.34245C23.0281 7.50167 25.8807 5.9834 25.8807 5.9834C25.8807 5.9834 26.072 9.20909 25.6016 10.0499Z" fill="#178E3B"/>
<path d="M22.6359 9.62958C22.6944 9.66237 22.7588 9.68332 22.8253 9.69123C22.8919 9.69914 22.9594 9.69387 23.0239 9.67571C23.0884 9.65754 23.1488 9.62685 23.2014 9.58537C23.2541 9.5439 23.2981 9.49245 23.3309 9.43398C23.3637 9.37551 23.3846 9.31115 23.3925 9.24458C23.4004 9.17801 23.3952 9.11054 23.377 9.046C23.3588 8.98147 23.3281 8.92115 23.2867 8.86849C23.2452 8.81582 23.1937 8.77183 23.1353 8.73905C23.0768 8.70626 23.0124 8.68531 22.9459 8.6774C22.8793 8.66948 22.8118 8.67476 22.7473 8.69292C22.6828 8.71108 22.6224 8.74178 22.5698 8.78326C22.5171 8.82473 22.4731 8.87617 22.4403 8.93465C22.4076 8.99312 22.3866 9.05748 22.3787 9.12405C22.3708 9.19062 22.3761 9.25809 22.3942 9.32262C22.4124 9.38715 22.4431 9.44748 22.4845 9.50014C22.526 9.55281 22.5775 9.59679 22.6359 9.62958Z" fill="#2FA65B"/>
<path d="M24.0746 11.4974C23.6736 11.4966 23.2799 11.3911 22.9323 11.1912C22.5847 10.9913 22.2954 10.7041 22.093 10.358C21.8907 10.0118 21.7823 9.61881 21.7787 9.21788C21.775 8.81695 21.8762 8.42203 22.0722 8.07227C22.2284 7.79341 22.6086 7.31485 24.0997 6.37935C24.8795 5.88971 25.5892 5.51113 25.619 5.4953C25.7009 5.45164 25.7924 5.42925 25.8853 5.4302C25.9781 5.43116 26.0692 5.45541 26.1502 5.50074C26.2312 5.54607 26.2995 5.61102 26.3488 5.68964C26.3982 5.76825 26.427 5.858 26.4326 5.95065C26.4347 5.98442 26.4819 6.78748 26.4708 7.7082C26.45 9.46891 26.24 10.0427 26.0838 10.32C25.9368 10.5839 25.7389 10.8161 25.5016 11.003C25.2642 11.1899 24.9922 11.3279 24.7012 11.409C24.4973 11.4671 24.2865 11.4968 24.0746 11.4974ZM25.3612 6.90699C24.2796 7.54015 23.2335 8.26538 23.0396 8.61256C22.9631 8.74905 22.9142 8.89927 22.8957 9.05465C22.8773 9.21003 22.8896 9.36753 22.932 9.51815C22.9744 9.66878 23.046 9.80958 23.1428 9.93251C23.2396 10.0554 23.3597 10.1581 23.4962 10.2346C23.6327 10.3112 23.7829 10.3601 23.9383 10.3785C24.0936 10.397 24.2511 10.3847 24.4018 10.3423C24.5524 10.2999 24.6932 10.2283 24.8161 10.1315C24.9391 10.0347 25.0417 9.91459 25.1182 9.77811C25.3114 9.43198 25.3858 8.15985 25.3612 6.90699Z" fill="#203529"/>
<path d="M23.3436 10.7828C23.2953 10.7828 23.2478 10.7701 23.2059 10.746C23.164 10.722 23.1291 10.6874 23.1047 10.6457C23.0803 10.604 23.0672 10.5566 23.0668 10.5083C23.0664 10.4599 23.0786 10.4123 23.1022 10.3702L25.2632 6.51608C25.2991 6.45199 25.359 6.4048 25.4297 6.38488C25.5005 6.36497 25.5762 6.37396 25.6403 6.40989C25.7044 6.44582 25.7516 6.50574 25.7715 6.57647C25.7914 6.64719 25.7824 6.72293 25.7465 6.78702L23.5855 10.6411C23.5615 10.6841 23.5264 10.7199 23.4838 10.7448C23.4413 10.7697 23.3929 10.7828 23.3436 10.7828Z" fill="#203529"/>
<path d="M24.1988 9.01555C24.1383 9.01551 24.0795 8.99565 24.0313 8.95902C23.9832 8.92238 23.9483 8.87098 23.9321 8.81267L23.5475 7.42658C23.5369 7.39129 23.5335 7.35426 23.5375 7.31765C23.5414 7.28104 23.5526 7.24558 23.5704 7.21335C23.5883 7.18111 23.6123 7.15276 23.6412 7.12993C23.6701 7.10711 23.7033 7.09028 23.7387 7.08042C23.7742 7.07056 23.8113 7.06788 23.8479 7.07253C23.8844 7.07717 23.9196 7.08906 23.9515 7.10748C23.9834 7.12591 24.0113 7.15051 24.0335 7.17984C24.0558 7.20917 24.072 7.24265 24.0812 7.27831L24.4671 8.66441C24.4785 8.70556 24.4802 8.74878 24.4722 8.7907C24.4641 8.83262 24.4464 8.87211 24.4206 8.9061C24.3948 8.94008 24.3614 8.96764 24.3232 8.98662C24.2849 9.00561 24.2428 9.01551 24.2002 9.01555H24.1988ZM24.0252 9.74922C23.9584 9.74928 23.8937 9.72516 23.8433 9.68129C23.7928 9.63743 23.7599 9.57679 23.7507 9.51057C23.7414 9.44435 23.7564 9.37701 23.7929 9.32099C23.8294 9.26497 23.8849 9.22404 23.9493 9.20576L25.3322 8.81004C25.4023 8.79159 25.4768 8.80135 25.5398 8.83722C25.6028 8.8731 25.6492 8.93223 25.6691 9.00193C25.689 9.07163 25.6807 9.14634 25.6462 9.21005C25.6116 9.27375 25.5534 9.32137 25.4842 9.34268L24.1012 9.73841C24.0765 9.74552 24.0509 9.74916 24.0252 9.74922Z" fill="#203529"/>
<path d="M26.6395 21.6756C26.2068 21.8402 25.7264 21.8262 25.3041 21.6366C24.8817 21.4471 24.552 21.0975 24.3874 20.6648C24.2228 20.2321 24.2368 19.7518 24.4264 19.3294C24.6159 18.9071 24.9655 18.5773 25.3982 18.4127C26.2991 18.0698 29.461 18.7346 29.461 18.7346C29.461 18.7346 27.5407 21.3329 26.6395 21.6756Z" fill="#178E3B"/>
<path d="M24.6348 19.4508C24.6586 19.5135 24.6946 19.5708 24.7406 19.6196C24.7866 19.6683 24.8418 19.7076 24.9029 19.735C24.9641 19.7625 25.03 19.7776 25.097 19.7795C25.1641 19.7815 25.2308 19.7702 25.2935 19.7464C25.3561 19.7226 25.4135 19.6866 25.4622 19.6406C25.511 19.5946 25.5502 19.5395 25.5777 19.4783C25.6051 19.4171 25.6202 19.3512 25.6222 19.2842C25.6241 19.2171 25.6129 19.1504 25.589 19.0877C25.5409 18.9612 25.4445 18.859 25.3209 18.8035C25.1974 18.7481 25.0569 18.744 24.9304 18.7922C24.8039 18.8403 24.7016 18.9367 24.6462 19.0603C24.5908 19.1838 24.5867 19.3243 24.6348 19.4508Z" fill="#2FA65B"/>
<path d="M26.0216 22.3437C25.4836 22.3443 24.9625 22.1562 24.5488 21.8122C24.1352 21.4682 23.8553 20.9901 23.7577 20.461C23.6602 19.9319 23.7512 19.3854 24.015 18.9165C24.2788 18.4476 24.6986 18.0861 25.2014 17.8947C25.4997 17.7813 26.0983 17.6573 27.843 17.8947C28.7552 18.0193 29.5427 18.1849 29.5757 18.191C29.6664 18.2102 29.7509 18.2518 29.8213 18.312C29.8918 18.3723 29.946 18.4492 29.979 18.5359C30.012 18.6225 30.0227 18.716 30.0102 18.8079C29.9977 18.8997 29.9623 18.987 29.9073 19.0616C29.8873 19.088 29.4085 19.7351 28.8096 20.4334C27.6644 21.771 27.1354 22.0765 26.8368 22.1899C26.5767 22.2904 26.3004 22.3426 26.0216 22.3437ZM26.1632 18.8677C25.9073 18.8677 25.7092 18.887 25.5952 18.9305C25.2999 19.0429 25.0612 19.268 24.9318 19.5563C24.8024 19.8446 24.7929 20.1725 24.9052 20.4679C25.0176 20.7633 25.2427 21.0019 25.531 21.1313C25.8193 21.2607 26.1473 21.2703 26.4426 21.1579C26.8146 21.0162 27.6871 20.0876 28.4711 19.1115C27.6148 18.9669 26.7421 18.8677 26.1632 18.8677Z" fill="#203529"/>
<path d="M24.6157 20.8552C24.5509 20.8553 24.488 20.8327 24.4381 20.7913C24.3882 20.7498 24.3545 20.6921 24.3427 20.6283C24.331 20.5645 24.342 20.4986 24.3739 20.4421C24.4057 20.3856 24.4564 20.3421 24.5171 20.3191L28.6469 18.7481C28.7155 18.722 28.7918 18.7242 28.8588 18.7543C28.9259 18.7843 28.9782 18.8398 29.0043 18.9085C29.0305 18.9772 29.0283 19.0534 28.9982 19.1205C28.9681 19.1875 28.9126 19.2398 28.8439 19.266L24.7141 20.8365C24.6828 20.8487 24.6494 20.855 24.6157 20.8552Z" fill="#203529"/>
<path d="M26.4052 20.0475C26.3589 20.0474 26.3133 20.0357 26.2727 20.0135C26.232 19.9913 26.1976 19.9593 26.1725 19.9203C26.1474 19.8814 26.1325 19.8368 26.1291 19.7906C26.1257 19.7445 26.1339 19.6982 26.153 19.656L26.7465 18.3458C26.7769 18.2789 26.8326 18.2268 26.9013 18.2009C26.9701 18.175 27.0463 18.1775 27.1133 18.2079C27.1802 18.2382 27.2323 18.2939 27.2582 18.3626C27.2841 18.4314 27.2816 18.5076 27.2512 18.5746L26.6568 19.8847C26.6349 19.9331 26.5996 19.9742 26.5549 20.0031C26.5103 20.0319 26.4583 20.0473 26.4052 20.0475ZM27.1156 21.0832C27.0769 21.0832 27.0386 21.075 27.0032 21.0592L25.6889 20.4751C25.6557 20.4603 25.6257 20.4392 25.6006 20.4128C25.5755 20.3864 25.5559 20.3554 25.5429 20.3214C25.5298 20.2875 25.5236 20.2513 25.5245 20.2149C25.5254 20.1785 25.5335 20.1427 25.5483 20.1095C25.5781 20.0423 25.6334 19.9898 25.702 19.9634C25.7359 19.9504 25.7721 19.9441 25.8085 19.9451C25.8449 19.946 25.8807 19.9541 25.9139 19.9688L27.2283 20.5529C27.2864 20.5787 27.3339 20.6236 27.3628 20.6802C27.3917 20.7368 27.4002 20.8016 27.387 20.8638C27.3738 20.9259 27.3397 20.9816 27.2902 21.0216C27.2408 21.0616 27.1792 21.0833 27.1156 21.0832ZM16.9935 18.7099C16.9718 18.7099 16.9502 18.7073 16.9291 18.7023C15.9936 18.4799 15.0373 17.1307 14.9315 16.9777C14.8895 16.9173 14.8733 16.8426 14.8863 16.7702C14.8993 16.6978 14.9406 16.6336 15.001 16.5916C15.0614 16.5496 15.1361 16.5333 15.2085 16.5464C15.2809 16.5594 15.3451 16.6007 15.3871 16.6611C15.642 17.0289 16.439 18.015 17.0573 18.162C17.1235 18.1775 17.1816 18.2169 17.2206 18.2725C17.2596 18.3282 17.2768 18.3962 17.2689 18.4637C17.261 18.5312 17.2286 18.5935 17.1778 18.6386C17.1271 18.6838 17.0614 18.7087 16.9935 18.7086V18.7099ZM13.0075 27.5217C12.9533 27.5214 12.9003 27.5052 12.8552 27.4752C12.8101 27.4451 12.7748 27.4025 12.7537 27.3526L11.7327 24.9571C11.7097 24.8908 11.7127 24.8182 11.7412 24.754C11.7696 24.6898 11.8214 24.6388 11.886 24.6114C11.9506 24.5839 12.0232 24.582 12.0892 24.606C12.1552 24.63 12.2095 24.6782 12.2414 24.7408L12.8088 26.072L12.8531 25.4124C12.8581 25.339 12.892 25.2705 12.9474 25.222C13.0029 25.1736 13.0753 25.1491 13.1488 25.154C13.2222 25.159 13.2907 25.1929 13.3392 25.2483C13.3876 25.3038 13.4121 25.3762 13.4072 25.4496L13.2853 27.2642C13.2805 27.3343 13.2493 27.4 13.198 27.448C13.1467 27.496 13.0791 27.5227 13.0088 27.5227L13.0075 27.5217ZM22.6938 27.1977C22.6574 27.1977 22.6214 27.1905 22.5878 27.1766C22.5542 27.1627 22.5236 27.1423 22.4979 27.1166C22.4722 27.0908 22.4518 27.0603 22.4379 27.0267C22.4239 26.9931 22.4168 26.9571 22.4168 26.9207V23.82C22.4168 23.7466 22.446 23.6761 22.4979 23.6242C22.5499 23.5722 22.6203 23.543 22.6938 23.543C22.7673 23.543 22.8377 23.5722 22.8897 23.6242C22.9416 23.6761 22.9708 23.7466 22.9708 23.82V25.8894L23.2874 25.3441C23.3052 25.3119 23.3293 25.2835 23.3582 25.2606C23.3871 25.2378 23.4203 25.221 23.4558 25.2111C23.4913 25.2013 23.5284 25.1986 23.565 25.2033C23.6015 25.2079 23.6368 25.2198 23.6687 25.2383C23.7006 25.2568 23.7284 25.2814 23.7507 25.3108C23.7729 25.3402 23.7891 25.3737 23.7982 25.4094C23.8074 25.4451 23.8093 25.4822 23.8039 25.5187C23.7985 25.5551 23.7858 25.5901 23.7667 25.6217L22.9344 27.0597C22.91 27.1018 22.8748 27.1368 22.8326 27.161C22.7904 27.1852 22.7425 27.1979 22.6938 27.1977Z" fill="#203529"/>
</g>
<defs>
<clipPath id="clip0_4262_22526">
<rect width="24" height="24" fill="white" transform="translate(6 5)"/>
</clipPath>
</defs>
</svg>
