<svg width="36" height="37" viewBox="0 0 36 37" fill="none" xmlns="http://www.w3.org/2000/svg">
<rect y="0.707031" width="36" height="36" rx="5" fill="#13142F"/>
<g clip-path="url(#clip0_4303_29941)">
<path d="M15.1617 26.906C15.0468 26.906 14.9347 26.8702 14.8411 26.8037C14.7474 26.7372 14.6767 26.6432 14.6388 26.5348C14.6251 26.4955 14.6124 26.4557 14.6 26.415C14.3599 25.613 14.4396 24.6234 14.8501 23.302C15.1535 22.3259 15.6059 21.2598 16.1293 20.0834C14.948 19.4239 14.2056 18.6169 13.3608 17.7004C12.2573 16.5032 10.8841 15.0131 7.9125 13.1661C7.80995 13.1027 7.7309 13.0076 7.68733 12.8951C7.64377 12.7827 7.63807 12.6591 7.6711 12.5432C7.70413 12.4272 7.7741 12.3252 7.87037 12.2526C7.96664 12.18 8.08397 12.1408 8.20454 12.1409C10.6361 12.1444 12.8213 13.4038 14.5789 14.4156C15.894 15.1733 17.1363 15.8887 17.7291 15.574C17.7442 15.5661 17.7703 15.5476 17.7954 15.532C17.8331 15.507 17.88 15.4759 17.9341 15.4458C18.0024 15.4078 18.0528 15.3777 18.1014 15.349L18.1249 15.335C18.1442 15.3234 18.1591 15.3055 18.1668 15.2843C19.3701 11.9721 19.5321 9.49987 18.6773 7.50646C18.6256 7.38437 18.6193 7.24778 18.6598 7.1215C18.7002 6.99521 18.7845 6.8876 18.8975 6.81822C19.0105 6.74884 19.1447 6.72229 19.2756 6.74339C19.4065 6.76448 19.5255 6.83183 19.6109 6.93319C20.6008 8.11403 21.1316 9.43734 21.282 11.0981C21.4125 12.5401 21.2382 14.0679 21.0538 15.6853C21.0036 16.1243 20.953 16.5702 20.9071 17.0229C21.1899 16.7717 21.4709 16.5789 21.7476 16.3897C22.6955 15.7365 23.6756 15.0635 24.9393 11.55C24.9848 11.4238 25.0745 11.3184 25.1918 11.2534C25.3091 11.1884 25.446 11.1681 25.5771 11.1964C25.7083 11.2246 25.8247 11.2995 25.9048 11.4071C25.9849 11.5147 26.0232 11.6476 26.0127 11.7814C25.6505 16.3441 24.2032 18.027 22.6694 19.8075C22.0702 20.5039 21.4516 21.2228 20.8657 22.1539C21.0304 23.5235 21.377 24.865 21.8964 26.143C21.9237 26.2105 21.9374 26.2826 21.9368 26.3554C21.9362 26.4282 21.9213 26.5001 21.8928 26.5671C21.8644 26.6341 21.8231 26.6948 21.7712 26.7458C21.7194 26.7969 21.6579 26.8372 21.5905 26.8644C21.523 26.8917 21.4509 26.9055 21.3781 26.9048C21.3054 26.9042 21.2334 26.8893 21.1664 26.8609C21.0994 26.8325 21.0387 26.7912 20.9877 26.7393C20.9367 26.6874 20.8964 26.626 20.8691 26.5585C20.2877 25.1276 19.9084 23.6227 19.7423 22.0871C19.7289 21.9654 19.7562 21.8427 19.8199 21.7381C20.4834 20.6517 21.1672 19.8555 21.8288 19.0859C22.6731 18.1066 23.449 17.2041 24.022 15.8238C23.4342 16.5731 22.8875 16.9485 22.3752 17.3012C21.7719 17.7157 21.2506 18.0737 20.6979 19.0785C20.6375 19.1882 20.5417 19.2742 20.4262 19.3224C20.3107 19.3707 20.1822 19.3784 20.0618 19.3443C19.9413 19.3102 19.8359 19.2364 19.7628 19.1347C19.6897 19.0331 19.6532 18.9097 19.6592 18.7846C19.7141 17.656 19.8357 16.59 19.9534 15.559C20.1088 14.1958 20.2504 12.9548 20.2172 11.8093C20.0605 12.963 19.7286 14.2291 19.2081 15.6626C19.1128 15.9241 18.9303 16.1448 18.6913 16.2874L18.6688 16.3008C18.6182 16.3309 18.5554 16.3686 18.4718 16.415C18.4562 16.4237 18.4327 16.4393 18.4082 16.4557C18.3571 16.4907 18.3043 16.5232 18.2499 16.553C17.5297 16.9353 16.7398 16.7087 16.2082 16.5053C15.5487 16.2525 14.81 15.8267 14.027 15.3761C12.991 14.7791 11.8721 14.1354 10.6821 13.7133C12.3528 14.9714 13.3387 16.0409 14.1753 16.9487C15.1231 17.9776 15.808 18.7203 17.0873 19.3315C17.2178 19.3939 17.3187 19.5049 17.3685 19.6407C17.4183 19.7765 17.413 19.9264 17.3537 20.0584C16.3694 22.2507 15.254 24.7353 15.6611 26.0966C15.6685 26.1209 15.6764 26.1454 15.6846 26.1694C15.7137 26.2529 15.7224 26.3422 15.71 26.4298C15.6976 26.5173 15.6644 26.6007 15.6132 26.6728C15.5619 26.7449 15.4942 26.8037 15.4156 26.8443C15.337 26.8848 15.2499 26.906 15.1614 26.906H15.1617Z" fill="#459F49"/>
<path d="M24.9948 28.5693H11.6721C11.5564 28.5692 11.4437 28.533 11.3497 28.4657C11.2557 28.3984 11.1851 28.3034 11.1478 28.1939C11.1105 28.0844 11.1084 27.9661 11.1417 27.8553C11.1751 27.7446 11.2423 27.6471 11.3339 27.5765C11.394 27.5303 12.8329 26.4368 15.2764 25.8881C16.7206 25.566 18.2097 25.4956 19.6779 25.6802C21.5338 25.9081 23.4109 26.5302 25.2571 27.5293C25.3655 27.588 25.4513 27.6811 25.5008 27.794C25.5503 27.9069 25.5608 28.0331 25.5305 28.1526C25.5002 28.2721 25.4309 28.3781 25.3336 28.4538C25.2363 28.5295 25.1166 28.5706 24.9933 28.5706L24.9948 28.5693ZM13.9082 27.4612H22.4094C20.0934 26.636 17.8024 26.4656 15.5731 26.9568C15.0054 27.0812 14.4483 27.2499 13.9069 27.4612H13.9082ZM17.0139 25.1262C16.9451 25.1264 16.8787 25.101 16.8276 25.055C16.7765 25.009 16.7443 24.9456 16.7374 24.8771C16.548 23.0159 17.6227 21.4172 17.6686 21.3502C17.7107 21.2909 17.7742 21.2506 17.8457 21.2377C17.9172 21.2249 17.9908 21.2407 18.0508 21.2816C18.1108 21.3226 18.1523 21.3854 18.1664 21.4567C18.1804 21.5279 18.166 21.6018 18.1261 21.6625C18.1108 21.6852 17.1202 23.17 17.2885 24.8212C17.2959 24.8943 17.274 24.9673 17.2276 25.0243C17.1812 25.0812 17.1141 25.1174 17.041 25.1249C17.032 25.1257 17.0229 25.1262 17.0139 25.1262ZM18.1601 24.8658C18.0918 24.8657 18.026 24.8404 17.9752 24.7948C17.9244 24.7491 17.8923 24.6863 17.885 24.6183C17.8008 23.833 18.072 23.1093 18.0836 23.079C18.11 23.0107 18.1623 22.9556 18.2292 22.9257C18.2961 22.8959 18.372 22.8937 18.4405 22.9198C18.5089 22.9458 18.5643 22.9978 18.5945 23.0645C18.6246 23.1312 18.6272 23.2072 18.6015 23.2758C18.5973 23.2871 18.3664 23.9121 18.4358 24.5592C18.4437 24.6323 18.4222 24.7055 18.3761 24.7626C18.3299 24.8198 18.263 24.8564 18.19 24.8642C18.18 24.8653 18.1701 24.8658 18.1601 24.8658Z" fill="#459F49"/>
<path d="M17.6278 10.2438C17.8401 10.6552 17.8802 11.1341 17.7393 11.5751C17.5985 12.0161 17.2883 12.3831 16.8769 12.5953C16.4654 12.8076 15.9866 12.8477 15.5456 12.7069C15.1046 12.566 14.7376 12.2558 14.5253 11.8444C14.0834 10.9875 14.3879 7.77051 14.3879 7.77051C14.3879 7.77051 17.1859 9.38665 17.6278 10.2438Z" fill="#178E3B"/>
<path d="M14.9558 12.2661C14.9865 12.3257 15.0287 12.3786 15.0799 12.4219C15.1311 12.4652 15.1903 12.498 15.2541 12.5184C15.318 12.5388 15.3853 12.5464 15.4521 12.5408C15.5189 12.5352 15.5839 12.5165 15.6435 12.4857C15.7031 12.455 15.756 12.4128 15.7993 12.3616C15.8426 12.3104 15.8754 12.2512 15.8958 12.1873C15.9162 12.1235 15.9238 12.0562 15.9182 11.9894C15.9126 11.9226 15.8939 11.8575 15.8631 11.798C15.8324 11.7384 15.7902 11.6854 15.739 11.6421C15.6878 11.5989 15.6286 11.5661 15.5647 11.5457C15.5009 11.5253 15.4336 11.5177 15.3668 11.5233C15.3 11.5289 15.2349 11.5476 15.1754 11.5783C15.1158 11.609 15.0628 11.6512 15.0196 11.7024C14.9763 11.7536 14.9435 11.8128 14.9231 11.8767C14.9027 11.9406 14.8951 12.0078 14.9007 12.0746C14.9063 12.1414 14.925 12.2065 14.9558 12.2661Z" fill="#2FA65B"/>
<path d="M16.0778 13.3441C15.6553 13.3437 15.241 13.2273 14.8801 13.0074C14.5193 12.7876 14.2258 12.4729 14.0316 12.0976C13.8865 11.814 13.6966 11.2336 13.737 9.47364C13.7581 8.55318 13.8332 7.75223 13.8364 7.71846C13.8452 7.62606 13.877 7.53734 13.929 7.46045C13.981 7.38357 14.0515 7.32098 14.134 7.27843C14.2165 7.23588 14.3084 7.21474 14.4011 7.21695C14.4939 7.21916 14.5847 7.24465 14.6651 7.29108C14.6943 7.30797 15.3906 7.71108 16.153 8.22737C17.6108 9.21484 17.9733 9.70633 18.1203 9.98993C18.3006 10.3405 18.3878 10.7314 18.3736 11.1253C18.3594 11.5192 18.2443 11.9029 18.0393 12.2396C17.8343 12.5763 17.5463 12.8546 17.2028 13.048C16.8594 13.2414 16.472 13.3434 16.0778 13.3441ZM14.8737 8.71253C14.8057 9.96276 14.835 11.2365 15.0175 11.5902C15.1624 11.8711 15.4129 12.0829 15.7139 12.1791C16.015 12.2752 16.3419 12.2478 16.6227 12.103C16.9036 11.9581 17.1154 11.7076 17.2115 11.4066C17.3077 11.1055 17.2803 10.7786 17.1354 10.4978C16.9529 10.144 15.9319 9.38183 14.8737 8.71253Z" fill="#459F49"/>
<path d="M16.7638 12.6552C16.7129 12.6553 16.663 12.6413 16.6195 12.6148C16.5761 12.5883 16.5407 12.5504 16.5174 12.5051L14.4929 8.57847C14.4757 8.5461 14.4651 8.51063 14.4616 8.47412C14.4582 8.43761 14.4621 8.40079 14.4731 8.3658C14.484 8.3308 14.5018 8.29832 14.5253 8.27024C14.5489 8.24217 14.5778 8.21905 14.6104 8.20223C14.643 8.18542 14.6786 8.17524 14.7151 8.17229C14.7517 8.16933 14.7885 8.17366 14.8233 8.18503C14.8582 8.19639 14.8904 8.21457 14.9182 8.23849C14.946 8.26242 14.9688 8.29162 14.9852 8.32441L17.011 12.2513C17.0328 12.2936 17.0434 12.3408 17.0416 12.3884C17.0399 12.4359 17.0259 12.4822 17.0011 12.5228C16.9762 12.5634 16.9413 12.5969 16.8998 12.6201C16.8582 12.6433 16.8114 12.6554 16.7638 12.6552Z" fill="#459F49"/>
<path d="M15.7614 10.9679C15.7324 10.9679 15.7037 10.9633 15.6762 10.9544L14.3077 10.5117C14.2378 10.4891 14.1797 10.4397 14.1462 10.3742C14.1127 10.3088 14.1065 10.2327 14.1291 10.1627C14.1517 10.0927 14.2012 10.0346 14.2667 10.0011C14.3321 9.96763 14.4082 9.96151 14.4782 9.98411L15.8466 10.4268C15.9098 10.4468 15.9637 10.4888 15.9986 10.5452C16.0334 10.6015 16.0469 10.6685 16.0366 10.734C16.0263 10.7994 15.9929 10.859 15.9424 10.902C15.8919 10.9449 15.8277 10.9683 15.7614 10.9679ZM16.2779 11.5174C16.2345 11.5173 16.1916 11.507 16.1529 11.4873C16.1142 11.4675 16.0806 11.439 16.0549 11.4039C16.0292 11.3689 16.0122 11.3282 16.0051 11.2853C15.998 11.2425 16.0011 11.1985 16.0141 11.157L16.4468 9.78519C16.4563 9.7489 16.4731 9.71493 16.4962 9.68534C16.5193 9.65575 16.5481 9.63115 16.5809 9.61303C16.6138 9.59492 16.65 9.58367 16.6873 9.57997C16.7247 9.57626 16.7624 9.58018 16.7981 9.59149C16.8339 9.60279 16.867 9.62125 16.8955 9.64573C16.9239 9.67022 16.947 9.70022 16.9635 9.73393C16.98 9.76763 16.9895 9.80434 16.9913 9.84181C16.9932 9.87928 16.9875 9.91674 16.9744 9.95192L16.5418 11.3238C16.524 11.3799 16.4889 11.4289 16.4415 11.4637C16.394 11.4985 16.3368 11.5173 16.2779 11.5174Z" fill="#459F49"/>
<path d="M10.0893 8.78981C10.4287 9.01157 10.666 9.35906 10.7492 9.75583C10.8323 10.1526 10.7545 10.5661 10.5327 10.9055C10.3109 11.2448 9.96344 11.4822 9.56667 11.5653C9.1699 11.6485 8.75636 11.5706 8.41701 11.3488C7.71077 10.8861 6.5542 8.30518 6.5542 8.30518C6.5542 8.30518 9.38311 8.32813 10.0893 8.78981Z" fill="#178E3B"/>
<path d="M8.92708 11.4832C8.97621 11.5153 9.03118 11.5374 9.08886 11.5483C9.14654 11.5592 9.2058 11.5586 9.26325 11.5465C9.3207 11.5345 9.37522 11.5113 9.4237 11.4782C9.47217 11.4451 9.51365 11.4028 9.54576 11.3536C9.57788 11.3045 9.6 11.2495 9.61086 11.1918C9.62173 11.1342 9.62112 11.0749 9.60908 11.0175C9.59704 10.96 9.57381 10.9055 9.54069 10.857C9.50758 10.8086 9.46525 10.7671 9.41611 10.735C9.36699 10.7029 9.31201 10.6807 9.25433 10.6699C9.19665 10.659 9.1374 10.6596 9.07994 10.6716C9.02249 10.6836 8.96797 10.7068 8.9195 10.7399C8.87103 10.773 8.82955 10.8154 8.79743 10.8645C8.76532 10.9136 8.7432 10.9686 8.73233 11.0263C8.72147 11.084 8.72207 11.1432 8.73411 11.2007C8.74615 11.2581 8.76939 11.3126 8.8025 11.3611C8.83561 11.4096 8.87794 11.451 8.92708 11.4832Z" fill="#2FA65B"/>
<path d="M9.24954 12.1504C8.84594 12.1506 8.45108 12.0329 8.11354 11.8116C7.87294 11.6555 7.46877 11.2861 6.73219 9.91428C6.34992 9.20197 6.06025 8.55773 6.04812 8.53082C6.01046 8.44647 5.9945 8.35405 6.00167 8.26197C6.00885 8.16988 6.03893 8.08104 6.08919 8.00355C6.13945 7.92605 6.20828 7.86235 6.28944 7.81824C6.37059 7.77412 6.46149 7.751 6.55385 7.75098H6.5586C6.58841 7.75098 7.29491 7.75784 8.10088 7.82221C9.65318 7.94647 10.1521 8.16965 10.3924 8.32663C10.7685 8.57196 11.0551 8.93231 11.2096 9.35391C11.3641 9.77551 11.3782 10.2358 11.2497 10.666C11.1212 11.0962 10.857 11.4734 10.4966 11.7412C10.1362 12.009 9.69882 12.1531 9.2498 12.152L9.24954 12.1504ZM7.44819 8.88882C7.52734 9.04711 7.6173 9.2207 7.71201 9.39614C8.36496 10.6115 8.6665 10.8487 8.72032 10.8841C8.93656 11.0254 9.2001 11.0751 9.45297 11.0222C9.70583 10.9692 9.92732 10.818 10.0687 10.6018C10.2101 10.3855 10.2597 10.122 10.2068 9.86914C10.1539 9.61627 10.0026 9.39479 9.7864 9.25341C9.73364 9.21806 9.39332 9.03656 8.01276 8.92602C7.81595 8.91045 7.62442 8.89832 7.44819 8.88882Z" fill="#459F49"/>
<path d="M10.3531 11.0649C10.2993 11.065 10.2466 11.0493 10.2016 11.0198L6.96408 8.90321C6.93214 8.88405 6.90439 8.85864 6.8825 8.82851C6.86061 8.79838 6.84501 8.76414 6.83665 8.72784C6.8283 8.69155 6.82734 8.65394 6.83385 8.61727C6.84036 8.58059 6.8542 8.54561 6.87454 8.51441C6.89488 8.48321 6.9213 8.45643 6.95223 8.43567C6.98316 8.41491 7.01795 8.40061 7.05453 8.39361C7.09112 8.38661 7.12873 8.38706 7.16514 8.39493C7.20154 8.4028 7.23599 8.41793 7.26641 8.43942L10.5042 10.556C10.5542 10.5886 10.5922 10.6365 10.6128 10.6925C10.6333 10.7485 10.6352 10.8096 10.6183 10.8668C10.6013 10.924 10.5663 10.9741 10.5185 11.0098C10.4707 11.0455 10.4127 11.0649 10.3531 11.0649Z" fill="#459F49"/>
<path d="M7.6269 10.4666C7.5582 10.4667 7.49193 10.4412 7.44095 10.3952C7.38997 10.3491 7.35792 10.2858 7.35101 10.2175C7.34411 10.1491 7.36285 10.0806 7.40359 10.0253C7.44433 9.97002 7.50417 9.93182 7.57149 9.91815L8.80484 9.66462C8.84047 9.65729 8.8772 9.65706 8.91292 9.66392C8.94865 9.67079 8.98267 9.68462 9.01305 9.70464C9.04342 9.72465 9.06956 9.75046 9.08997 9.78057C9.11037 9.81069 9.12465 9.84453 9.13197 9.88016C9.1393 9.91579 9.13954 9.95252 9.13267 9.98824C9.12581 10.024 9.11197 10.058 9.09196 10.0884C9.07194 10.1187 9.04614 10.1449 9.01602 10.1653C8.98591 10.1857 8.95207 10.2 8.91643 10.2073L7.68309 10.4608C7.6646 10.4647 7.64578 10.4666 7.6269 10.4666ZM9.49076 10.4086C9.42737 10.4085 9.36592 10.3867 9.31666 10.3468C9.2674 10.3069 9.23331 10.2514 9.22009 10.1894L8.95627 8.95786C8.94095 8.886 8.9548 8.811 8.99477 8.74935C9.03475 8.6877 9.09758 8.64446 9.16944 8.62914C9.24129 8.61382 9.31629 8.62767 9.37794 8.66764C9.43959 8.70762 9.48283 8.77045 9.49815 8.8423L9.76197 10.0738C9.77053 10.1142 9.76997 10.156 9.76032 10.1961C9.75066 10.2363 9.73217 10.2738 9.70618 10.3058C9.68019 10.3379 9.64736 10.3638 9.61009 10.3816C9.57282 10.3994 9.53205 10.4086 9.49076 10.4086Z" fill="#459F49"/>
<path d="M11.7514 18.1284C12.2135 18.0995 12.668 18.2554 13.0152 18.5617C13.3623 18.868 13.5735 19.2997 13.6024 19.7617C13.6312 20.2237 13.4754 20.6783 13.1691 21.0254C12.8628 21.3725 12.4311 21.5838 11.9691 21.6126C11.0069 21.6728 8.18408 20.1002 8.18408 20.1002C8.18408 20.1002 10.7895 18.1885 11.7514 18.1284Z" fill="#178E3B"/>
<path d="M11.9868 20.911C11.991 20.9779 12.0083 21.0434 12.0378 21.1036C12.0672 21.1638 12.1082 21.2177 12.1585 21.262C12.2088 21.3064 12.2673 21.3404 12.3307 21.3622C12.3941 21.3839 12.4612 21.393 12.5281 21.3888C12.595 21.3846 12.6605 21.3673 12.7207 21.3379C12.7809 21.3084 12.8347 21.2673 12.8791 21.2171C12.9235 21.1668 12.9575 21.1083 12.9792 21.0449C13.001 20.9814 13.01 20.9144 13.0058 20.8474C13.0017 20.7805 12.9844 20.7151 12.9549 20.6549C12.9254 20.5946 12.8844 20.5408 12.8341 20.4964C12.7839 20.4521 12.7254 20.418 12.662 20.3963C12.5985 20.3745 12.5315 20.3655 12.4645 20.3696C12.3976 20.3738 12.3322 20.3911 12.272 20.4206C12.2117 20.4501 12.1579 20.4911 12.1136 20.5414C12.0692 20.5917 12.0352 20.6502 12.0134 20.7136C11.9917 20.777 11.9826 20.8441 11.9868 20.911Z" fill="#2FA65B"/>
<path d="M11.907 22.1686C11.5641 22.1686 10.9291 22.057 9.47991 21.3808C8.64546 20.9912 7.94238 20.6005 7.91284 20.5841C7.83172 20.5389 7.76327 20.4741 7.71376 20.3955C7.66425 20.317 7.63527 20.2273 7.62949 20.1346C7.62371 20.0419 7.64132 19.9493 7.68069 19.8652C7.72005 19.7811 7.77993 19.7083 7.8548 19.6534C7.88118 19.6333 8.53096 19.1582 9.31054 18.6677C10.8008 17.7301 11.3968 17.5953 11.7155 17.5753C12.3242 17.5373 12.9231 17.7426 13.3804 18.1461C13.8378 18.5497 14.1161 19.1184 14.1541 19.7271C14.1921 20.3358 13.9868 20.9347 13.5832 21.3921C13.1797 21.8494 12.611 22.1277 12.0023 22.1657C11.974 22.1673 11.9421 22.1686 11.907 22.1686ZM9.24247 20.0341C10.3323 20.5852 11.4799 21.0606 11.9044 21.0606H11.935C12.0912 21.0508 12.2439 21.0104 12.3844 20.9416C12.525 20.8729 12.6506 20.7771 12.7541 20.6598C12.8576 20.5424 12.937 20.4059 12.9878 20.2579C13.0385 20.1099 13.0596 19.9533 13.0499 19.7971C13.0401 19.641 12.9997 19.4883 12.9309 19.3477C12.8622 19.2072 12.7664 19.0816 12.6491 18.978C12.5318 18.8745 12.3952 18.7951 12.2472 18.7444C12.0992 18.6936 11.9426 18.6725 11.7865 18.6823C11.3886 18.706 10.2801 19.3344 9.24168 20.0341H9.24247Z" fill="#459F49"/>
<path d="M8.94866 20.329C8.8752 20.3312 8.80385 20.3042 8.75032 20.2538C8.69679 20.2035 8.66545 20.1339 8.66321 20.0604C8.66098 19.987 8.68801 19.9156 8.73838 19.8621C8.78874 19.8086 8.85831 19.7772 8.93178 19.775L13.3417 19.4996C13.4152 19.495 13.4875 19.5198 13.5427 19.5685C13.5979 19.6172 13.6315 19.6858 13.636 19.7593C13.6406 19.8328 13.6158 19.905 13.5671 19.9602C13.5184 20.0154 13.4498 20.049 13.3763 20.0536L8.96608 20.3285L8.94866 20.329Z" fill="#459F49"/>
<path d="M10.4541 21.3692C10.4007 21.3692 10.3485 21.3538 10.3037 21.3247C10.2588 21.2957 10.2234 21.2543 10.2015 21.2056C10.1796 21.1569 10.1723 21.1029 10.1805 21.0501C10.1886 20.9973 10.2118 20.948 10.2473 20.9081L11.2029 19.8338C11.2518 19.7789 11.3206 19.7457 11.3941 19.7415C11.4676 19.7373 11.5397 19.7624 11.5946 19.8114C11.6496 19.8604 11.6828 19.9292 11.687 20.0026C11.6912 20.0761 11.666 20.1482 11.6171 20.2032L10.6615 21.2782C10.6353 21.3072 10.6033 21.3302 10.5676 21.3459C10.5318 21.3616 10.4932 21.3696 10.4541 21.3692ZM12.1204 20.0422C12.0532 20.0423 11.9883 20.018 11.9379 19.9736L10.8562 19.026C10.8288 19.002 10.8065 18.9729 10.7903 18.9403C10.7742 18.9077 10.7647 18.8722 10.7623 18.8359C10.7599 18.7996 10.7647 18.7631 10.7764 18.7287C10.788 18.6942 10.8064 18.6624 10.8303 18.635C10.8543 18.6077 10.8835 18.5853 10.9161 18.5692C10.9487 18.5531 10.9842 18.5435 11.0205 18.5411C11.0568 18.5387 11.0932 18.5435 11.1277 18.5552C11.1621 18.5669 11.194 18.5852 11.2213 18.6092L12.303 19.5568C12.3454 19.5939 12.3755 19.6431 12.3892 19.6978C12.4029 19.7524 12.3996 19.81 12.3798 19.8627C12.3599 19.9155 12.3245 19.9609 12.2781 19.993C12.2318 20.0251 12.1768 20.0422 12.1204 20.0422Z" fill="#459F49"/>
<path d="M25.6015 10.0499C25.3751 10.4537 24.9975 10.751 24.5519 10.8764C24.1063 11.0018 23.6291 10.9451 23.2253 10.7187C22.8215 10.4922 22.5242 10.1147 22.3988 9.66906C22.2734 9.22344 22.3301 8.74624 22.5565 8.34245C23.028 7.50167 25.8806 5.9834 25.8806 5.9834C25.8806 5.9834 26.0719 9.20909 25.6015 10.0499Z" fill="#178E3B"/>
<path d="M22.6358 9.62958C22.6943 9.66237 22.7586 9.68332 22.8252 9.69123C22.8918 9.69914 22.9593 9.69387 23.0238 9.67571C23.0883 9.65754 23.1486 9.62685 23.2013 9.58537C23.254 9.5439 23.298 9.49245 23.3308 9.43398C23.3635 9.37551 23.3845 9.31115 23.3924 9.24458C23.4003 9.17801 23.395 9.11054 23.3769 9.046C23.3587 8.98147 23.328 8.92115 23.2865 8.86849C23.2451 8.81582 23.1936 8.77183 23.1352 8.73905C23.0767 8.70626 23.0123 8.68531 22.9458 8.6774C22.8792 8.66948 22.8117 8.67476 22.7472 8.69292C22.6826 8.71108 22.6223 8.74178 22.5697 8.78326C22.517 8.82473 22.473 8.87617 22.4402 8.93465C22.4074 8.99312 22.3865 9.05748 22.3786 9.12405C22.3707 9.19062 22.3759 9.25809 22.3941 9.32262C22.4123 9.38715 22.443 9.44748 22.4844 9.50014C22.5259 9.55281 22.5773 9.59679 22.6358 9.62958Z" fill="#2FA65B"/>
<path d="M24.0748 11.4974C23.6739 11.4966 23.2801 11.3911 22.9325 11.1912C22.5849 10.9913 22.2956 10.7041 22.0933 10.358C21.8909 10.0118 21.7826 9.61881 21.7789 9.21788C21.7753 8.81695 21.8764 8.42203 22.0725 8.07227C22.2286 7.79341 22.6088 7.31485 24.0999 6.37935C24.8797 5.88971 25.5894 5.51113 25.6192 5.4953C25.7011 5.45164 25.7927 5.42925 25.8855 5.4302C25.9783 5.43116 26.0694 5.45541 26.1504 5.50074C26.2314 5.54607 26.2997 5.61102 26.3491 5.68964C26.3984 5.76825 26.4272 5.858 26.4328 5.95065C26.4349 5.98442 26.4822 6.78748 26.4711 7.7082C26.4502 9.46891 26.2402 10.0427 26.0841 10.32C25.9371 10.5839 25.7392 10.8161 25.5018 11.003C25.2645 11.1899 24.9924 11.3279 24.7014 11.409C24.4976 11.4671 24.2868 11.4968 24.0748 11.4974ZM25.3615 6.90699C24.2798 7.54015 23.2338 8.26538 23.0399 8.61256C22.9633 8.74905 22.9144 8.89927 22.896 9.05465C22.8775 9.21003 22.8898 9.36753 22.9322 9.51815C22.9746 9.66878 23.0462 9.80958 23.143 9.93251C23.2399 10.0554 23.3599 10.1581 23.4964 10.2346C23.6329 10.3112 23.7831 10.3601 23.9385 10.3785C24.0939 10.397 24.2514 10.3847 24.402 10.3423C24.5526 10.2999 24.6934 10.2283 24.8164 10.1315C24.9393 10.0347 25.042 9.91459 25.1185 9.77811C25.3116 9.43198 25.386 8.15985 25.3615 6.90699Z" fill="#459F49"/>
<path d="M23.3437 10.7828C23.2954 10.7828 23.2479 10.7701 23.206 10.746C23.1641 10.722 23.1292 10.6874 23.1048 10.6457C23.0804 10.604 23.0673 10.5566 23.0669 10.5083C23.0665 10.4599 23.0787 10.4123 23.1024 10.3702L25.2633 6.51608C25.2992 6.45199 25.3591 6.4048 25.4299 6.38488C25.5006 6.36497 25.5763 6.37396 25.6404 6.40989C25.7045 6.44582 25.7517 6.50574 25.7716 6.57647C25.7915 6.64719 25.7825 6.72293 25.7466 6.78702L23.5857 10.6411C23.5616 10.6841 23.5265 10.7199 23.484 10.7448C23.4414 10.7697 23.393 10.7828 23.3437 10.7828Z" fill="#459F49"/>
<path d="M24.1991 9.01555C24.1386 9.01551 24.0797 8.99565 24.0316 8.95902C23.9834 8.92238 23.9486 8.87098 23.9324 8.81267L23.5477 7.42658C23.5372 7.39129 23.5338 7.35426 23.5377 7.31765C23.5417 7.28104 23.5529 7.24558 23.5707 7.21335C23.5885 7.18111 23.6126 7.15276 23.6415 7.12993C23.6704 7.10711 23.7035 7.09028 23.739 7.08042C23.7745 7.07056 23.8116 7.06788 23.8481 7.07253C23.8846 7.07717 23.9199 7.08906 23.9517 7.10748C23.9836 7.12591 24.0115 7.15051 24.0338 7.17984C24.056 7.20917 24.0722 7.24265 24.0814 7.27831L24.4674 8.66441C24.4788 8.70556 24.4805 8.74878 24.4724 8.7907C24.4643 8.83262 24.4467 8.87211 24.4208 8.9061C24.395 8.94008 24.3617 8.96764 24.3234 8.98662C24.2852 9.00561 24.2431 9.01551 24.2004 9.01555H24.1991ZM24.0255 9.74922C23.9586 9.74928 23.894 9.72516 23.8435 9.68129C23.7931 9.63743 23.7602 9.57679 23.7509 9.51057C23.7416 9.44435 23.7566 9.37701 23.7931 9.32099C23.8297 9.26497 23.8852 9.22404 23.9495 9.20576L25.3324 8.81004C25.4025 8.79159 25.4771 8.80135 25.54 8.83722C25.603 8.8731 25.6494 8.93223 25.6693 9.00193C25.6892 9.07163 25.681 9.14634 25.6464 9.21005C25.6118 9.27375 25.5537 9.32137 25.4844 9.34268L24.1015 9.73841C24.0768 9.74552 24.0512 9.74916 24.0255 9.74922Z" fill="#459F49"/>
<path d="M26.6396 21.6756C26.2069 21.8402 25.7265 21.8262 25.3042 21.6366C24.8818 21.4471 24.5521 21.0975 24.3875 20.6648C24.2229 20.2321 24.2369 19.7518 24.4265 19.3294C24.6161 18.9071 24.9656 18.5773 25.3983 18.4127C26.2992 18.0698 29.4611 18.7346 29.4611 18.7346C29.4611 18.7346 27.5408 21.3329 26.6396 21.6756Z" fill="#178E3B"/>
<path d="M24.6349 19.4508C24.6588 19.5135 24.6947 19.5708 24.7407 19.6196C24.7867 19.6683 24.8419 19.7076 24.903 19.735C24.9642 19.7625 25.0302 19.7776 25.0972 19.7795C25.1642 19.7815 25.2309 19.7702 25.2936 19.7464C25.3562 19.7226 25.4136 19.6866 25.4623 19.6406C25.5111 19.5946 25.5503 19.5395 25.5778 19.4783C25.6052 19.4171 25.6204 19.3512 25.6223 19.2842C25.6243 19.2171 25.613 19.1504 25.5892 19.0877C25.541 18.9612 25.4446 18.859 25.3211 18.8035C25.1975 18.7481 25.0571 18.744 24.9305 18.7922C24.804 18.8403 24.7017 18.9367 24.6463 19.0603C24.5909 19.1838 24.5868 19.3243 24.6349 19.4508Z" fill="#2FA65B"/>
<path d="M26.0217 22.3437C25.4837 22.3443 24.9626 22.1562 24.5489 21.8122C24.1353 21.4682 23.8554 20.9901 23.7578 20.461C23.6603 19.9319 23.7513 19.3854 24.0151 18.9165C24.2789 18.4476 24.6987 18.0861 25.2015 17.8947C25.4999 17.7813 26.0985 17.6573 27.8431 17.8947C28.7554 18.0193 29.5429 18.1849 29.5758 18.191C29.6665 18.2102 29.751 18.2518 29.8214 18.312C29.8919 18.3723 29.9461 18.4492 29.9791 18.5359C30.0121 18.6225 30.0228 18.716 30.0103 18.8079C29.9978 18.8997 29.9624 18.987 29.9075 19.0616C29.8874 19.088 29.4086 19.7351 28.8097 20.4334C27.6645 21.771 27.1355 22.0765 26.8369 22.1899C26.5768 22.2904 26.3005 22.3426 26.0217 22.3437ZM26.1634 18.8677C25.9075 18.8677 25.7093 18.887 25.5954 18.9305C25.3 19.0429 25.0614 19.268 24.932 19.5563C24.8026 19.8446 24.793 20.1725 24.9054 20.4679C25.0177 20.7633 25.2428 21.0019 25.5311 21.1313C25.8195 21.2607 26.1474 21.2703 26.4427 21.1579C26.8147 21.0162 27.6872 20.0876 28.4712 19.1115C27.6149 18.9669 26.7422 18.8677 26.1634 18.8677Z" fill="#459F49"/>
<path d="M24.6155 20.8552C24.5506 20.8553 24.4878 20.8327 24.4379 20.7913C24.388 20.7498 24.3542 20.6921 24.3425 20.6283C24.3307 20.5645 24.3417 20.4986 24.3736 20.4421C24.4055 20.3856 24.4562 20.3421 24.5168 20.3191L28.6466 18.7481C28.7153 18.722 28.7915 18.7242 28.8586 18.7543C28.9256 18.7843 28.978 18.8398 29.0041 18.9085C29.0302 18.9772 29.028 19.0534 28.9979 19.1205C28.9679 19.1875 28.9124 19.2398 28.8437 19.266L24.7139 20.8365C24.6825 20.8487 24.6492 20.855 24.6155 20.8552Z" fill="#459F49"/>
<path d="M26.405 20.0475C26.3587 20.0474 26.3132 20.0357 26.2725 20.0135C26.2319 19.9913 26.1975 19.9593 26.1724 19.9203C26.1473 19.8814 26.1324 19.8368 26.129 19.7906C26.1256 19.7445 26.1338 19.6982 26.1528 19.656L26.7464 18.3458C26.7768 18.2789 26.8324 18.2268 26.9012 18.2009C26.97 18.175 27.0462 18.1775 27.1131 18.2079C27.1801 18.2382 27.2322 18.2939 27.2581 18.3626C27.2839 18.4314 27.2814 18.5076 27.2511 18.5746L26.6567 19.8847C26.6348 19.9331 26.5994 19.9742 26.5548 20.0031C26.5102 20.0319 26.4582 20.0473 26.405 20.0475ZM27.1155 21.0832C27.0768 21.0832 27.0385 21.075 27.0031 21.0592L25.6888 20.4751C25.6555 20.4603 25.6255 20.4392 25.6005 20.4128C25.5754 20.3864 25.5558 20.3554 25.5427 20.3214C25.5297 20.2875 25.5234 20.2513 25.5244 20.2149C25.5253 20.1785 25.5334 20.1427 25.5482 20.1095C25.578 20.0423 25.6333 19.9898 25.7019 19.9634C25.7358 19.9504 25.772 19.9441 25.8084 19.9451C25.8448 19.946 25.8806 19.9541 25.9138 19.9688L27.2282 20.5529C27.2863 20.5787 27.3337 20.6236 27.3626 20.6802C27.3915 20.7368 27.4001 20.8016 27.3869 20.8638C27.3737 20.9259 27.3395 20.9816 27.2901 21.0216C27.2407 21.0616 27.1791 21.0833 27.1155 21.0832ZM16.9934 18.7099C16.9717 18.7099 16.9501 18.7073 16.929 18.7023C15.9935 18.4799 15.0372 17.1307 14.9314 16.9777C14.8894 16.9173 14.8731 16.8426 14.8862 16.7702C14.8992 16.6978 14.9405 16.6336 15.0009 16.5916C15.0613 16.5496 15.1359 16.5333 15.2083 16.5464C15.2807 16.5594 15.345 16.6007 15.387 16.6611C15.6418 17.0289 16.4388 18.015 17.0572 18.162C17.1234 18.1775 17.1815 18.2169 17.2205 18.2725C17.2595 18.3282 17.2767 18.3962 17.2688 18.4637C17.2609 18.5312 17.2285 18.5935 17.1777 18.6386C17.1269 18.6838 17.0613 18.7087 16.9934 18.7086V18.7099ZM13.0074 27.5217C12.9532 27.5214 12.9002 27.5052 12.8551 27.4752C12.81 27.4451 12.7747 27.4025 12.7536 27.3526L11.7326 24.9571C11.7096 24.8908 11.7126 24.8182 11.7411 24.754C11.7695 24.6898 11.8213 24.6388 11.8859 24.6114C11.9505 24.5839 12.0231 24.582 12.0891 24.606C12.155 24.63 12.2094 24.6782 12.2412 24.7408L12.8087 26.072L12.853 25.4124C12.858 25.339 12.8919 25.2705 12.9473 25.222C13.0028 25.1736 13.0752 25.1491 13.1486 25.154C13.2221 25.159 13.2906 25.1929 13.3391 25.2483C13.3875 25.3038 13.412 25.3762 13.407 25.4496L13.2852 27.2642C13.2804 27.3343 13.2492 27.4 13.1979 27.448C13.1466 27.496 13.0789 27.5227 13.0087 27.5227L13.0074 27.5217ZM22.6937 27.1977C22.6573 27.1977 22.6213 27.1905 22.5877 27.1766C22.5541 27.1627 22.5235 27.1423 22.4978 27.1166C22.4721 27.0908 22.4517 27.0603 22.4377 27.0267C22.4238 26.9931 22.4167 26.9571 22.4167 26.9207V23.82C22.4167 23.7466 22.4458 23.6761 22.4978 23.6242C22.5497 23.5722 22.6202 23.543 22.6937 23.543C22.7671 23.543 22.8376 23.5722 22.8895 23.6242C22.9415 23.6761 22.9707 23.7466 22.9707 23.82V25.8894L23.2873 25.3441C23.3051 25.3119 23.3291 25.2835 23.3581 25.2606C23.387 25.2378 23.4202 25.221 23.4557 25.2111C23.4912 25.2013 23.5283 25.1986 23.5648 25.2033C23.6014 25.2079 23.6366 25.2198 23.6685 25.2383C23.7004 25.2568 23.7283 25.2814 23.7506 25.3108C23.7728 25.3402 23.789 25.3737 23.7981 25.4094C23.8072 25.4451 23.8092 25.4822 23.8038 25.5187C23.7983 25.5551 23.7857 25.5901 23.7666 25.6217L22.9343 27.0597C22.9098 27.1018 22.8747 27.1368 22.8325 27.161C22.7902 27.1852 22.7424 27.1979 22.6937 27.1977Z" fill="#459F49"/>
</g>
<defs>
<clipPath id="clip0_4303_29941">
<rect width="24" height="24" fill="white" transform="translate(6 5)"/>
</clipPath>
</defs>
</svg>
