<svg width="36" height="37" viewBox="0 0 36 37" fill="none" xmlns="http://www.w3.org/2000/svg">
<rect y="0.707031" width="36" height="36" rx="5" fill="#ECF0FC"/>
<path d="M27.5625 8.375C28.0803 8.375 28.5 7.95527 28.5 7.4375C28.5 6.91973 28.0803 6.5 27.5625 6.5C27.0447 6.5 26.625 6.91973 26.625 7.4375C26.625 7.95527 27.0447 8.375 27.5625 8.375Z" stroke="#4169E1" stroke-linecap="round" stroke-linejoin="round"/>
<path d="M14.5643 7.49854L13.1865 8.87628" stroke="#4169E1" stroke-linecap="round" stroke-linejoin="round"/>
<path d="M13.1865 7.49854L14.5643 8.87628" stroke="#4169E1" stroke-linecap="round" stroke-linejoin="round"/>
<path d="M12.375 10.625C12.5821 10.625 12.75 10.4571 12.75 10.25C12.75 10.0429 12.5821 9.875 12.375 9.875C12.1679 9.875 12 10.0429 12 10.25C12 10.4571 12.1679 10.625 12.375 10.625Z" fill="#4169E1"/>
<path d="M9.2832 17.75C10.0981 21.9721 12.5933 25.2939 15.7617 26.375H14.2497V27.5H21.7497V26.375H20.2377C23.4061 25.2939 25.9002 21.9721 26.7162 17.75" stroke="#4169E1" stroke-linecap="round" stroke-linejoin="round"/>
<path d="M15.239 12.1289C14.6891 12.1622 14.1706 12.3962 13.7817 12.7863C13.3928 13.1765 13.1605 13.6958 13.1289 14.2458" stroke="#4169E1" stroke-linecap="round" stroke-linejoin="round"/>
<path d="M20.9823 11.9978C20.9291 11.5264 20.7576 11.0762 20.4837 10.6889C20.2098 10.3016 19.8423 9.98991 19.4156 9.78278C18.9889 9.57565 18.5167 9.47982 18.0429 9.50421C17.5692 9.52859 17.1093 9.67239 16.7061 9.92224C16.3029 10.1721 15.9694 10.5199 15.7367 10.9332C15.504 11.3466 15.3796 11.8121 15.3751 12.2864C15.3706 12.7607 15.4862 13.2285 15.711 13.6462C15.9359 14.0638 16.2627 14.4178 16.6612 14.6753" stroke="#4169E1" stroke-linecap="round" stroke-linejoin="round"/>
<path d="M23.25 14.375C23.25 13.7783 23.0129 13.206 22.591 12.784C22.169 12.3621 21.5967 12.125 21 12.125C20.4033 12.125 19.831 12.3621 19.409 12.784C18.9871 13.206 18.75 13.7783 18.75 14.375" stroke="#4169E1" stroke-linecap="round" stroke-linejoin="round"/>
<path d="M15.3725 16.5215C15.3466 15.9427 15.0984 15.3963 14.6797 14.9959C14.261 14.5955 13.704 14.3721 13.1247 14.3721C12.5454 14.3721 11.9884 14.5955 11.5697 14.9959C11.151 15.3963 10.9029 15.9427 10.877 16.5215" stroke="#4169E1" stroke-linecap="round" stroke-linejoin="round"/>
<path d="M20.2475 16.5224C20.2216 15.9437 19.9734 15.3973 19.5547 14.9969C19.136 14.5965 18.579 14.373 17.9997 14.373C17.4204 14.373 16.8634 14.5965 16.4447 14.9969C16.026 15.3973 15.7779 15.9437 15.752 16.5224" stroke="#4169E1" stroke-linecap="round" stroke-linejoin="round"/>
<path d="M25.1217 16.5094C25.0922 15.9322 24.8418 15.3884 24.4223 14.9909C24.0028 14.5933 23.4464 14.3724 22.8684 14.374C22.2905 14.3756 21.7353 14.5996 21.318 14.9994C20.9007 15.3993 20.6532 15.9444 20.627 16.5217" stroke="#4169E1" stroke-linecap="round" stroke-linejoin="round"/>
<path d="M16.4143 20.1018L17.3919 20.2079L18.008 19.4414L18.6242 20.2079L19.6018 20.1018L19.4953 21.0794L20.2618 21.6955L19.4953 22.3117L19.6018 23.2893L18.6242 23.1828L18.008 23.9493L17.3919 23.1828L16.4143 23.2893L16.5204 22.3117L15.7539 21.6955L16.5204 21.0794L16.4143 20.1018Z" stroke="#4169E1" stroke-linecap="round" stroke-linejoin="round"/>
<path d="M11.5425 17.75H9.1875C9.03832 17.75 8.89524 17.6907 8.78975 17.5852C8.68426 17.4798 8.625 17.3367 8.625 17.1875C8.625 17.0383 8.68426 16.8952 8.78975 16.7898C8.89524 16.6843 9.03832 16.625 9.1875 16.625H26.8125C26.9617 16.625 27.1048 16.6843 27.2102 16.7898C27.3157 16.8952 27.375 17.0383 27.375 17.1875C27.375 17.3367 27.3157 17.4798 27.2102 17.5852C27.1048 17.6907 26.9617 17.75 26.8125 17.75H14.25" stroke="#4169E1" stroke-linecap="round" stroke-linejoin="round"/>
<path d="M15.75 26.375H17.625" stroke="#4169E1" stroke-linecap="round" stroke-linejoin="round"/>
<path d="M7.875 27.5002H28.875C28.8761 26.9143 28.6486 26.3512 28.2409 25.9304C27.8333 25.5097 27.2776 25.2645 26.692 25.2471C26.1064 25.2297 25.5371 25.4413 25.1051 25.8371C24.6731 26.2328 24.4125 26.7814 24.3788 27.3663" stroke="#4169E1" stroke-linecap="round" stroke-linejoin="round"/>
</svg>
