<svg width="36" height="37" viewBox="0 0 36 37" fill="none" xmlns="http://www.w3.org/2000/svg">
<rect y="0.707031" width="36" height="36" rx="5" fill="#E6E6E6"/>
<path d="M26.9409 18.6235C27.7996 17.9575 28.5222 17.0459 28.7034 15.9775C29.2108 15.8954 29.75 15.5598 29.75 14.5075C29.75 13.5768 29.4147 13.2989 29.1327 13.231C29.1031 9.41725 28.2028 7.79087 24.1681 7.7515C20.0983 7.71137 19.0269 9.40788 18.9882 13.2768C18.7422 13.3971 18.5 13.7155 18.5 14.5075C18.5 15.5601 19.0389 15.8954 19.5459 15.9779C19.7251 17.0339 20.4331 17.9361 21.2787 18.6003C19.598 18.8279 18.5 19.1399 18.5 20.0406V13.252C18.5 8.60275 15.4546 8.68975 15.4546 8.68975C15.4546 8.68975 15.2259 7.75 12.8758 7.75C9.236 7.75 7.25 10.1245 7.25 13.252V30.25H29.75V20.0406C29.75 19.3428 28.5564 18.8706 26.9409 18.6235ZM19.8845 15.7847L19.8661 15.6329L19.7176 15.6213C19.1341 15.5766 18.8626 15.2226 18.8626 14.5075C18.8626 13.8951 19.0051 13.5854 19.286 13.5854C19.3029 13.5854 19.3198 13.5861 19.3374 13.5876C19.3741 13.8104 19.418 13.9716 19.4713 14.0793C19.6018 14.341 19.8489 14.4843 19.877 14.5L20.1909 14.6751L20.1429 14.3095C20.1055 13.9685 20.0934 13.6252 20.1065 13.2824C20.2257 11.3988 20.3405 11.1471 20.732 11.1471C20.9113 11.1471 21.1572 11.1992 21.4692 11.2645C22.0794 11.3924 22.9145 11.5679 24.1246 11.5679C25.3348 11.5679 26.1699 11.3924 26.7796 11.2645C27.0916 11.1989 27.338 11.1471 27.5173 11.1471C27.9088 11.1471 28.0231 11.3991 28.1424 13.2816C28.163 13.8741 28.1064 14.305 28.1056 14.3091L28.0565 14.6762L28.3719 14.4996C28.3996 14.4843 28.6456 14.341 28.7772 14.0789C28.8301 13.9728 28.874 13.8111 28.9111 13.5876C29.2302 13.5531 29.3866 13.8591 29.3866 14.5075C29.3866 15.2222 29.1147 15.5766 28.5309 15.6213L28.3824 15.6329L28.364 15.7847C28.0933 18.0115 25.2515 19.4234 24.1243 19.4234C22.9974 19.4234 20.1553 18.0111 19.8845 15.7847ZM18.4467 21.1866C20.8621 21.1866 22.3501 22.3818 22.3501 23.8664V24.31C22.3501 22.825 20.8621 21.6302 18.4467 21.6302C16.1112 21.6302 14.5441 22.825 14.5441 24.31V23.8664C14.5441 22.3818 16.1116 21.1866 18.4467 21.1866ZM8.5595 13.4549C10.6006 13.432 13.6468 11.1985 14.411 10.6131C14.771 11.236 15.9583 13.1421 17.1676 13.4519C17.1725 13.4526 17.6649 13.5531 17.6649 14.4152C17.6649 15.4799 16.9678 15.6764 16.9396 15.6843L16.7975 15.7191L16.7968 15.8654C16.7863 17.665 14.3079 19.423 12.8754 19.423C11.4582 19.423 8.92175 17.6305 8.92175 15.8665L8.91988 15.7232L8.78225 15.685C8.75412 15.6771 8.0855 15.4802 8.0855 14.4152C8.0855 13.6829 8.47137 13.4894 8.5595 13.4549ZM14.0169 29.218C14.0353 29.251 14.0724 29.2923 14.1215 29.3372C14.0011 29.5019 13.9164 29.6822 13.8654 29.875H7.63137V20.0402C7.63137 19.6075 8.74513 19.1545 10.5564 18.9333C11.3338 19.4654 12.1974 19.798 12.8758 19.798C13.5545 19.798 14.4234 19.4579 15.2022 18.913C17.1189 19.1252 18.3065 19.5936 18.3065 20.0406V20.5056C15.7861 20.5645 14.1039 22.1826 14.1039 24.1889V25.594C13.9569 25.7114 13.8575 25.8944 13.8575 26.1632C13.8575 26.5356 14.006 26.7572 14.2055 26.8743C13.8361 27.5815 13.64 28.555 14.0169 29.218ZM14.6562 25.7946L14.7545 25.8021L14.8066 25.7721C14.8212 25.7639 16.133 24.991 16.181 23.3864C17.6427 24.7592 21.1561 25.0742 22.0014 25.1305V25.6097L22.0258 25.7965H22.2129C22.3805 25.7965 22.6617 25.8441 22.6617 26.1632C22.6617 26.4648 22.5448 26.6054 22.2931 26.6054C22.2545 26.6054 22.2275 26.6012 22.2234 26.6005L22.001 26.5581V26.7846C22.001 27.9959 20.1324 28.9356 18.5248 28.9356C16.8309 28.9356 14.9 27.79 14.9 26.7846L14.8985 26.5626L14.6795 26.6005C14.6554 26.6043 14.6311 26.606 14.6068 26.6058C14.3506 26.6058 14.2314 26.4651 14.2314 26.1636C14.2318 25.9184 14.3742 25.7946 14.6562 25.7946ZM14.2501 29.8754C14.4489 29.3031 15.1074 28.8813 15.9695 28.6097C16.7019 29.0305 17.6251 29.3102 18.5251 29.3102C19.4105 29.3102 20.3454 29.0526 21.0736 28.6229C21.9144 28.8944 22.5538 29.3121 22.7499 29.8754H14.2501ZM29.3686 29.875H23.135C23.0843 29.6791 22.9964 29.4948 22.8762 29.332C22.9224 29.2892 22.9584 29.2495 22.976 29.218C23.3611 28.5396 23.147 27.5354 22.7623 26.8251C22.9228 26.6991 23.0367 26.4891 23.0367 26.1629C23.0367 25.9064 22.9377 25.7301 22.7919 25.6127V24.1885C22.7919 22.2085 21.2352 20.608 18.6939 20.509V20.1254C18.6939 19.5708 19.8504 19.1339 21.7231 18.9205C22.5718 19.477 23.4867 19.798 24.125 19.798C24.7569 19.798 25.6591 19.4845 26.4999 18.9389C28.2792 19.1624 29.3686 19.612 29.3686 20.0406V29.875Z" fill="black"/>
<path d="M22.0625 15.46C22.5285 15.46 22.9062 15.0822 22.9062 14.6162C22.9062 14.1502 22.5285 13.7725 22.0625 13.7725C21.5965 13.7725 21.2188 14.1502 21.2188 14.6162C21.2188 15.0822 21.5965 15.46 22.0625 15.46Z" fill="black"/>
<path d="M26.1875 15.46C26.6535 15.46 27.0312 15.0822 27.0312 14.6162C27.0312 14.1502 26.6535 13.7725 26.1875 13.7725C25.7215 13.7725 25.3438 14.1502 25.3438 14.6162C25.3438 15.0822 25.7215 15.46 26.1875 15.46Z" fill="black"/>
<path d="M25.6002 17.371C25.6707 17.2412 25.5765 17.1013 25.4727 17.182C24.6042 17.8573 23.64 17.8528 22.7768 17.182C22.6729 17.1013 22.5792 17.2412 22.6493 17.371C22.9129 17.8528 23.4447 18.2837 24.1245 18.2837C24.8048 18.2837 25.3362 17.8528 25.6002 17.371Z" fill="black"/>
<path d="M10.8623 15.4595C11.3283 15.4595 11.7061 15.0817 11.7061 14.6157C11.7061 14.1497 11.3283 13.772 10.8623 13.772C10.3963 13.772 10.0186 14.1497 10.0186 14.6157C10.0186 15.0817 10.3963 15.4595 10.8623 15.4595Z" fill="black"/>
<path d="M14.8887 15.4595C15.3547 15.4595 15.7324 15.0817 15.7324 14.6157C15.7324 14.1497 15.3547 13.772 14.8887 13.772C14.4227 13.772 14.0449 14.1497 14.0449 14.6157C14.0449 15.0817 14.4227 15.4595 14.8887 15.4595Z" fill="black"/>
<path d="M11.3997 17.371C11.6633 17.8529 12.1951 18.2837 12.875 18.2837C13.5552 18.2837 14.087 17.8532 14.351 17.371C14.4215 17.2412 14.3273 17.1013 14.2235 17.182C13.355 17.8573 12.3908 17.8528 11.5276 17.182C11.4226 17.1017 11.3288 17.2416 11.3997 17.371Z" fill="black"/>
<path d="M20.2109 26.3301C20.5734 26.3301 20.8672 26.0363 20.8672 25.6738C20.8672 25.3114 20.5734 25.0176 20.2109 25.0176C19.8485 25.0176 19.5547 25.3114 19.5547 25.6738C19.5547 26.0363 19.8485 26.3301 20.2109 26.3301Z" fill="black"/>
<path d="M16.7803 26.3301C17.1427 26.3301 17.4365 26.0363 17.4365 25.6738C17.4365 25.3114 17.1427 25.0176 16.7803 25.0176C16.4178 25.0176 16.124 25.3114 16.124 25.6738C16.124 26.0363 16.4178 26.3301 16.7803 26.3301Z" fill="black"/>
<path d="M17.2059 27.543C17.4365 27.9454 17.9012 28.3035 18.4959 28.3035C19.0918 28.3035 19.5553 27.9454 19.7859 27.543C19.8474 27.4362 19.7653 27.3195 19.6745 27.3863C18.9152 27.9492 18.0729 27.9454 17.3169 27.3863C17.2265 27.3199 17.1444 27.4362 17.2059 27.543Z" fill="black"/>
</svg>
