<svg width="36" height="36" viewBox="0 0 36 36" fill="none" xmlns="http://www.w3.org/2000/svg">
<rect width="36" height="36" rx="5" fill="#13142F"/>
<path d="M9.49707 18.462H27.4989M11.1328 18.462L11.9524 29.9192M25.8649 18.462L25.0453 29.9192M23.856 18.4995C23.856 17.0787 23.2916 15.7161 22.2869 14.7115C21.2823 13.7068 19.9197 13.1424 18.4989 13.1424C17.0781 13.1424 15.7154 13.7068 14.7108 14.7115C13.7061 15.7161 13.1417 17.0787 13.1417 18.4995M18.4989 12.7317C18.8833 12.7452 19.2665 12.6813 19.6256 12.5435C19.9848 12.4058 20.3125 12.1971 20.5893 11.93C20.866 11.6628 21.0861 11.3427 21.2365 10.9886C21.3868 10.6345 21.4643 10.2538 21.4643 9.86917C21.4643 9.48451 21.3868 9.1038 21.2365 8.74974C21.0861 8.39567 20.866 8.07552 20.5893 7.80837C20.3125 7.54122 19.9848 7.33255 19.6256 7.19481C19.2665 7.05708 18.8833 6.99309 18.4989 7.00667C17.7572 7.03287 17.0546 7.34593 16.5392 7.87989C16.0238 8.41385 15.7357 9.12702 15.7357 9.86917C15.7357 10.6113 16.0238 11.3245 16.5392 11.8584C17.0546 12.3924 17.7572 12.7055 18.4989 12.7317ZM18.4989 21.3388L19.5524 23.4727L21.906 23.8156L20.2024 25.4763L20.6042 27.821L18.4989 26.7138L16.3917 27.821L16.7953 25.4763L15.0917 23.8156L17.4453 23.4727L18.4989 21.3388Z" stroke="#FF4D4D" stroke-width="1.3" stroke-linecap="round" stroke-linejoin="round"/>
</svg>
