<svg width="36" height="37" viewBox="0 0 36 37" fill="none" xmlns="http://www.w3.org/2000/svg">
<rect y="0.291992" width="36" height="36" rx="5" fill="#13142F"/>
<g clip-path="url(#clip0_4177_20780)">
<path d="M9.49707 18.754H27.4989M11.1328 18.754L11.9524 30.2112M25.8649 18.754L25.0453 30.2112M23.856 18.7915C23.856 17.3707 23.2916 16.0081 22.2869 15.0034C21.2823 13.9988 19.9197 13.4344 18.4989 13.4344C17.0781 13.4344 15.7154 13.9988 14.7108 15.0034C13.7061 16.0081 13.1417 17.3707 13.1417 18.7915M18.4989 13.0237C18.8833 13.0372 19.2665 12.9733 19.6256 12.8355C19.9848 12.6978 20.3125 12.4891 20.5893 12.222C20.866 11.9548 21.0861 11.6347 21.2365 11.2806C21.3868 10.9265 21.4643 10.5458 21.4643 10.1612C21.4643 9.7765 21.3868 9.39579 21.2365 9.04173C21.0861 8.68766 20.866 8.36751 20.5893 8.10036C20.3125 7.83321 19.9848 7.62455 19.6256 7.48681C19.2665 7.34907 18.8833 7.28508 18.4989 7.29866C17.7572 7.32486 17.0546 7.63792 16.5392 8.17188C16.0238 8.70584 15.7357 9.41901 15.7357 10.1612C15.7357 10.9033 16.0238 11.6165 16.5392 12.1504C17.0546 12.6844 17.7572 12.9975 18.4989 13.0237ZM18.4989 21.6308L19.5524 23.7647L21.906 24.1076L20.2024 25.7683L20.6042 28.1129L18.4989 27.0058L16.3917 28.1129L16.7953 25.7683L15.0917 24.1076L17.4453 23.7647L18.4989 21.6308Z" stroke="#FF4D4D" stroke-width="1.3" stroke-linecap="round" stroke-linejoin="round"/>
</g>
<defs>
<clipPath id="clip0_4177_20780">
<rect width="25" height="25" fill="white" transform="translate(6 6.29199)"/>
</clipPath>
</defs>
</svg>
