<svg width="36" height="37" viewBox="0 0 36 37" fill="none" xmlns="http://www.w3.org/2000/svg">
<rect x="0.0839844" y="0.291016" width="35.8318" height="35.8318" rx="4.92969" fill="#13142F"/>
<path d="M23.9162 8.37549C24.1746 8.37549 24.4166 8.49349 24.5757 8.69208L24.6386 8.78202L28.2305 14.698C28.4002 14.9776 28.392 15.3267 28.2175 15.5959L28.1532 15.6825L18.8567 26.6693C18.5416 27.0417 17.9847 27.0665 17.6374 26.7438L17.5663 26.6693L8.2698 15.6825C8.05853 15.4328 8.0122 15.0867 8.14255 14.7936L8.19256 14.698L11.7844 8.78202C11.9185 8.56116 12.1449 8.41556 12.3973 8.3826L12.5068 8.37549H23.9162ZM21.1822 15.9817H15.24L18.2107 23.3108L21.1822 15.9817ZM25.6859 15.9817H23.006L20.5407 22.0625L25.6859 15.9817ZM13.4162 15.9817H10.7362L15.8806 22.0608L13.4162 15.9817ZM14.5554 10.0658H12.9809L10.4151 14.2915H13.3477L14.5554 10.0658ZM20.1097 10.0658H16.3125L15.1048 14.2915H21.3174L20.1097 10.0658ZM23.4412 10.0658H21.8667L23.0744 14.2915H26.0071L23.4412 10.0658Z" fill="#6787E7"/>
</svg>
