<svg width="36" height="37" viewBox="0 0 36 37" fill="none" xmlns="http://www.w3.org/2000/svg">
<rect x="0.0841064" y="0.291016" width="35.8318" height="35.8318" rx="4.92969" fill="#EFEFF9"/>
<path d="M23.9164 8.37549C24.1748 8.37549 24.4168 8.49349 24.5759 8.69208L24.6389 8.78202L28.2307 14.698C28.4004 14.9776 28.3922 15.3267 28.2178 15.5959L28.1535 15.6825L18.8569 26.6693C18.5419 27.0417 17.985 27.0665 17.6376 26.7438L17.5666 26.6693L8.27005 15.6825C8.05877 15.4328 8.01245 15.0867 8.14279 14.7936L8.1928 14.698L11.7846 8.78202C11.9187 8.56116 12.1452 8.41556 12.3975 8.3826L12.5071 8.37549H23.9164ZM21.1824 15.9817H15.2402L18.2109 23.3108L21.1824 15.9817ZM25.6862 15.9817H23.0062L20.541 22.0625L25.6862 15.9817ZM13.4164 15.9817H10.7365L15.8808 22.0608L13.4164 15.9817ZM14.5557 10.0658H12.9812L10.4153 14.2915H13.348L14.5557 10.0658ZM20.1099 10.0658H16.3127L15.105 14.2915H21.3176L20.1099 10.0658ZM23.4415 10.0658H21.867L23.0747 14.2915H26.0073L23.4415 10.0658Z" fill="#6787E7"/>
</svg>
