<svg width="36" height="37" viewBox="0 0 36 37" fill="none" xmlns="http://www.w3.org/2000/svg">
<rect y="0.207031" width="36" height="36" rx="5" fill="#F4EBF0"/>
<g clip-path="url(#clip0_4177_18564)">
<path d="M19.9236 10C19.9236 8.8513 18.9923 7.91996 17.8436 7.91996C16.6949 7.91996 15.7637 8.85123 15.7637 10C15.7637 11.1489 16.6949 12.0801 17.8436 12.0801C18.9923 12.0801 19.9236 11.1488 19.9236 10ZM20.8836 10C20.8836 11.679 19.5225 13.0401 17.8436 13.0401C16.1647 13.0401 14.8037 11.679 14.8037 10C14.8037 8.32107 16.1647 6.95996 17.8436 6.95996C19.5225 6.95996 20.8836 8.32109 20.8836 10Z" fill="#660039"/>
<path d="M14.9156 19.3202V14.4801C14.9156 13.6848 15.5603 13.0401 16.3556 13.0401H19.1556C19.9509 13.0401 20.5956 13.6848 20.5956 14.4801V19.3202C20.5956 19.5853 20.8105 19.8002 21.0756 19.8002C21.3407 19.8002 21.5556 19.5853 21.5556 19.3202V14.4801C21.5556 13.1547 20.4811 12.0801 19.1556 12.0801H16.3556C15.0301 12.0801 13.9556 13.1547 13.9556 14.4801V19.3202C13.9556 19.5853 14.1705 19.8002 14.4356 19.8002C14.7007 19.8002 14.9156 19.5853 14.9156 19.3202ZM15.2761 20.7651H10.9684L8.98189 18.7788C8.30005 18.097 7.19429 18.097 6.51245 18.7789C5.82938 19.4619 5.82938 20.5677 6.51125 21.2495L9.0106 23.7489C9.34489 24.0835 9.79325 24.2624 10.2578 24.2589C10.2606 24.2591 13.9645 24.2595 13.9645 24.2595V28.7715C13.9645 29.0366 14.1794 29.2515 14.4445 29.2515C14.7096 29.2515 14.9245 29.0366 14.9245 28.7715V23.7795C14.9245 23.5144 14.7096 23.2995 14.4445 23.2995H10.2712C10.043 23.3016 9.84092 23.2217 9.68959 23.0702L7.19007 20.5707C6.88313 20.2638 6.88313 19.7658 7.19007 19.4589C7.49823 19.1507 7.99613 19.1507 8.30309 19.4577L10.4302 21.5846C10.5203 21.6746 10.6423 21.7251 10.7696 21.7251H15.258C15.2677 21.7257 15.2802 21.7264 15.2965 21.7273H15.7144C16.1498 21.7273 16.503 22.0805 16.503 22.516V28.7867C16.503 29.0518 16.7179 29.2667 16.983 29.2667C17.2481 29.2667 17.463 29.0518 17.463 28.7867V22.516C17.463 21.5503 16.68 20.7673 15.7144 20.7673H15.3147C15.3049 20.7667 15.2925 20.766 15.2761 20.7651ZM25.2113 21.7251C25.3386 21.7251 25.4607 21.6746 25.5507 21.5846L27.6778 19.4577C27.9848 19.1507 28.4827 19.1507 28.7897 19.4577C29.0978 19.7658 29.0978 20.2637 28.7909 20.5707L26.2915 23.07C26.14 23.2217 25.9379 23.3016 25.7257 23.2989C25.6333 23.3052 25.6333 23.3052 25.6163 23.3098C25.6308 23.3058 25.6308 23.3058 25.7144 23.2995H21.5364C21.2713 23.2995 21.0564 23.5144 21.0564 23.7795V28.7867C21.0564 29.0518 21.2713 29.2667 21.5364 29.2667C21.8015 29.2667 22.0164 29.0518 22.0164 28.7867V24.2595H25.7144C26.1838 24.2639 26.6346 24.0849 26.9705 23.7487L29.4697 21.2495C30.1515 20.5677 30.1515 19.4619 29.4697 18.7801C28.7866 18.097 27.6809 18.097 26.999 18.7789L25.0125 20.7651H20.7048L20.6663 20.7673H20.2666C19.301 20.7673 18.518 21.5503 18.518 22.516V28.7867C18.518 29.0518 18.7329 29.2667 18.998 29.2667C19.2631 29.2667 19.478 29.0518 19.478 28.7867V22.516C19.478 22.0805 19.8311 21.7273 20.2666 21.7273H20.6844L20.723 21.7251H25.2113Z" fill="#660039"/>
</g>
<defs>
<clipPath id="clip0_4177_18564">
<rect width="24" height="24" fill="white" transform="translate(6 6)"/>
</clipPath>
</defs>
</svg>
