<svg width="36" height="37" viewBox="0 0 36 37" fill="none" xmlns="http://www.w3.org/2000/svg">
<rect y="0.707031" width="36" height="36" rx="5" fill="#FFEDED"/>
<path d="M12.9448 14.0687C14.1688 14.0687 15.161 13.0765 15.161 11.8525C15.161 10.6285 14.1688 9.63623 12.9448 9.63623C11.7208 9.63623 10.7285 10.6285 10.7285 11.8525C10.7285 13.0765 11.7208 14.0687 12.9448 14.0687Z" stroke="#FF4D4D" stroke-width="1.3" stroke-linecap="round"/>
<path d="M10.5004 27.9588V23.2338C10.5003 23.1175 10.4756 23.0025 10.4277 22.8965C10.3799 22.7905 10.3101 22.6958 10.2229 22.6188L9.40539 21.8688C9.36113 21.8309 9.32576 21.7837 9.30178 21.7305C9.2778 21.6774 9.2658 21.6196 9.26664 21.5613V16.6863C9.26763 16.4678 9.35487 16.2586 9.50937 16.1041C9.66387 15.9496 9.87314 15.8623 10.0916 15.8613H15.3754C15.7039 15.8623 16.0187 15.9935 16.2507 16.2262C16.4826 16.4589 16.6129 16.774 16.6129 17.1026V21.6026C16.6136 21.6546 16.6041 21.7062 16.5848 21.7545C16.5655 21.8027 16.5368 21.8467 16.5004 21.8838L15.7091 22.7313C15.564 22.884 15.4834 23.0869 15.4841 23.2976V27.9588" stroke="#FF4D4D" stroke-width="1.3" stroke-linecap="round"/>
<path d="M20.2498 28.375V24.25C20.2498 24.1356 20.2044 24.0259 20.1235 23.9451C20.0426 23.8642 19.9329 23.8187 19.8185 23.8187H18.7685C18.6984 23.8171 18.6296 23.7985 18.5682 23.7645C18.5067 23.7305 18.4544 23.6822 18.4158 23.6236C18.3771 23.565 18.3531 23.4979 18.346 23.4281C18.3389 23.3582 18.3487 23.2877 18.3748 23.2225L20.8573 16.4725C20.8878 16.3894 20.9429 16.3177 21.0153 16.2667C21.0876 16.2158 21.1738 16.1882 21.2623 16.1875H23.8873C23.9769 16.1877 24.0642 16.2155 24.1373 16.2672C24.2105 16.3189 24.2659 16.3919 24.296 16.4763L26.7223 23.2263C26.7457 23.2918 26.753 23.3621 26.7437 23.431C26.7343 23.5 26.7085 23.5658 26.6684 23.6227C26.6284 23.6797 26.5752 23.7262 26.5135 23.7583C26.4517 23.7905 26.3832 23.8074 26.3135 23.8075H25.1885C25.1305 23.807 25.0729 23.8181 25.0192 23.8402C24.9655 23.8623 24.9167 23.895 24.8758 23.9362C24.8349 23.9774 24.8027 24.0265 24.7811 24.0804C24.7594 24.1342 24.7488 24.1919 24.7498 24.25V28.375" stroke="#FF4D4D" stroke-width="1.3" stroke-linecap="round"/>
<path d="M22.5375 14.0687C23.7615 14.0687 24.7538 13.0765 24.7538 11.8525C24.7538 10.6285 23.7615 9.63623 22.5375 9.63623C21.3135 9.63623 20.3213 10.6285 20.3213 11.8525C20.3213 13.0765 21.3135 14.0687 22.5375 14.0687Z" stroke="#FF4D4D" stroke-width="1.3" stroke-linecap="round"/>
</svg>
