<svg width="36" height="37" viewBox="0 0 36 37" fill="none" xmlns="http://www.w3.org/2000/svg">
<rect y="0.791992" width="36" height="36" rx="5" fill="#13142F"/>
<path d="M25.0174 21.5822L25.0173 21.5821C24.8332 21.2606 24.9426 20.8454 25.2675 20.6605C25.5893 20.4738 26.0047 20.5835 26.1894 20.9086C26.1894 20.9087 26.1895 20.9087 26.1895 20.9088L26.1025 20.9582L25.0174 21.5822ZM25.0174 21.5822C25.7943 22.9343 26.2774 24.1687 26.4523 25.1756C26.6279 26.1871 26.489 26.9435 26.0599 27.3726L26.0599 27.3727M25.0174 21.5822L26.0599 27.3727M26.0599 27.3727C25.6473 27.7859 25.0061 27.9287 24.1924 27.8337C23.3801 27.7389 22.4137 27.4084 21.3762 26.8994C19.302 25.882 16.9653 24.1623 15.0451 22.2422C14.0949 21.2919 13.239 20.3036 12.4907 19.3147C13.2597 18.2825 14.1289 17.274 15.0451 16.3578C16.9641 14.4388 19.3002 12.7203 21.3744 11.7034C22.4119 11.1948 23.3784 10.8645 24.1911 10.7695C25.0051 10.6745 25.6467 10.817 26.0599 11.2297C26.3942 11.5639 26.5545 12.1027 26.5197 12.8196C26.4851 13.5353 26.2562 14.4144 25.8302 15.4086L25.9221 15.448L25.8301 15.4086C24.8966 17.5876 23.1568 20.0172 20.9295 22.2445C20.4085 22.7655 19.8689 23.2677 19.3249 23.7346C19.0412 23.9772 19.0113 24.4062 19.2534 24.6868L19.2534 24.6868M26.0599 27.3727L19.2534 24.6868M19.2534 24.6868C19.498 24.9699 19.9243 25.0005 20.2052 24.7582L19.2534 24.6868ZM21.8842 23.1992L21.884 23.1994C21.3388 23.7422 20.7746 24.2688 20.2054 24.7581L21.8842 23.1992ZM21.8842 23.1992C24.2249 20.8585 26.0686 18.2818 27.071 15.9421M21.8842 23.1992L27.071 15.9421M11.6593 18.1484C12.3751 17.2318 13.1883 16.3099 14.0904 15.4078L11.6593 18.1484ZM11.6593 18.1484C11.0378 17.2141 10.522 16.2913 10.1444 15.4109L10.1444 15.4109C9.71836 14.4179 9.48954 13.5394 9.45486 12.8237C9.42012 12.1068 9.58039 11.5674 9.91473 11.2319C10.3439 10.8028 11.0992 10.6635 12.1094 10.8383C13.1151 11.0123 14.3483 11.4941 15.7004 12.2699L15.7005 12.27C16.0221 12.4541 16.4376 12.3446 16.6223 12.0193C16.8061 11.6957 16.697 11.2829 16.3718 11.098C14.7244 10.1531 13.2263 9.5992 11.9644 9.45414C10.702 9.30901 9.66473 9.57253 8.95995 10.2773C7.82088 11.4164 7.83192 13.4438 8.90355 15.942C9.36781 17.0284 10.0184 18.163 10.8096 19.3012C9.50406 21.1837 8.63383 23.0115 8.28819 24.5765C7.93968 26.1544 8.12064 27.488 8.95995 28.3273C9.54098 28.9084 10.3471 29.1886 11.3182 29.1886C12.7191 29.1886 14.4761 28.6027 16.4425 27.4642L16.4426 27.4642C16.7647 27.277 16.8744 26.8643 16.6876 26.5403L16.6874 26.54C16.5003 26.2179 16.0876 26.1082 15.7635 26.295L15.7633 26.2951C14.3971 27.0885 13.1503 27.5826 12.1336 27.7632C11.1121 27.9447 10.3483 27.8062 9.91465 27.3726C9.35139 26.8094 9.29324 25.8192 9.64866 24.5634C9.99272 23.3478 10.7153 21.9184 11.6735 20.4729L11.6593 18.1484ZM27.071 15.9421C28.1427 13.4438 28.1514 11.414 27.0147 10.2773C26.4547 9.71731 25.6733 9.44993 24.7482 9.43764C23.824 9.42536 22.7504 9.66723 21.5928 10.1319C19.2774 11.0613 16.6075 12.8896 14.0904 15.4078L27.071 15.9421ZM20.008 19.3011L20.008 19.3009C20.0055 18.1867 19.1033 17.2816 17.9885 17.2816C16.8739 17.2816 15.9689 18.1865 15.9689 19.3011C15.9689 20.4157 16.8739 21.3207 17.9885 21.3207C19.1031 21.3207 20.008 20.4157 20.008 19.3011Z" fill="#4169E1" stroke="#4169E1" stroke-width="0.2"/>
</svg>
