<svg width="36" height="37" viewBox="0 0 36 37" fill="none" xmlns="http://www.w3.org/2000/svg">
<rect y="0.5" width="36" height="36" rx="5" fill="#13142F"/>
<path d="M25.0174 21.2902L25.0173 21.2901C24.8332 20.9686 24.9426 20.5534 25.2675 20.3685C25.5893 20.1818 26.0047 20.2915 26.1894 20.6166C26.1894 20.6167 26.1895 20.6167 26.1895 20.6168L26.1025 20.6662L25.0174 21.2902ZM25.0174 21.2902C25.7943 22.6423 26.2774 23.8767 26.4523 24.8836C26.6279 25.8951 26.489 26.6515 26.0599 27.0806L26.0599 27.0807M25.0174 21.2902L26.0599 27.0807M26.0599 27.0807C25.6473 27.4939 25.0061 27.6367 24.1924 27.5417C23.3801 27.4469 22.4137 27.1164 21.3762 26.6075C19.302 25.59 16.9653 23.8703 15.0451 21.9502C14.0949 20.9999 13.239 20.0116 12.4907 19.0227C13.2597 17.9905 14.1289 16.982 15.0451 16.0658C16.9641 14.1468 19.3002 12.4283 21.3744 11.4114C22.4119 10.9028 23.3784 10.5725 24.1911 10.4775C25.0051 10.3825 25.6467 10.525 26.0599 10.9377C26.3942 11.2719 26.5545 11.8107 26.5197 12.5276C26.4851 13.2433 26.2562 14.1224 25.8302 15.1166L25.9221 15.156L25.8301 15.1166C24.8966 17.2956 23.1568 19.7252 20.9295 21.9525C20.4085 22.4735 19.8689 22.9757 19.3249 23.4426C19.0412 23.6852 19.0113 24.1142 19.2534 24.3948L19.2534 24.3948M26.0599 27.0807L19.2534 24.3948M19.2534 24.3948C19.498 24.6779 19.9243 24.7085 20.2052 24.4662L19.2534 24.3948ZM21.8842 22.9072L21.884 22.9074C21.3388 23.4502 20.7746 23.9769 20.2054 24.4661L21.8842 22.9072ZM21.8842 22.9072C24.2249 20.5665 26.0686 17.9898 27.071 15.6501M21.8842 22.9072L27.071 15.6501M11.6593 17.8564C12.3751 16.9398 13.1883 16.0179 14.0904 15.1158L11.6593 17.8564ZM11.6593 17.8564C11.0378 16.9221 10.522 15.9993 10.1444 15.1189L10.1444 15.1189C9.71836 14.1259 9.48954 13.2474 9.45486 12.5318C9.42012 11.8148 9.58039 11.2754 9.91473 10.9399C10.3439 10.5108 11.0992 10.3715 12.1094 10.5463C13.1151 10.7203 14.3483 11.2021 15.7004 11.9779L15.7005 11.978C16.0221 12.1621 16.4376 12.0526 16.6223 11.7273C16.8061 11.4037 16.697 10.9909 16.3718 10.806C14.7244 9.86109 13.2263 9.30721 11.9644 9.16215C10.702 9.01701 9.66473 9.28054 8.95995 9.98531C7.82088 11.1244 7.83192 13.1518 8.90355 15.65C9.36781 16.7364 10.0184 17.871 10.8096 19.0092C9.50406 20.8917 8.63383 22.7195 8.28819 24.2845C7.93968 25.8624 8.12064 27.196 8.95995 28.0353C9.54098 28.6164 10.3471 28.8967 11.3182 28.8967C12.7191 28.8967 14.4761 28.3107 16.4425 27.1723L16.4426 27.1722C16.7647 26.985 16.8744 26.5724 16.6876 26.2483L16.6874 26.248C16.5003 25.9259 16.0876 25.8162 15.7635 26.003L15.7633 26.0031C14.3971 26.7965 13.1503 27.2906 12.1336 27.4712C11.1121 27.6527 10.3483 27.5142 9.91465 27.0806C9.35139 26.5174 9.29324 25.5272 9.64866 24.2714C9.99272 23.0558 10.7153 21.6264 11.6735 20.1809L11.6593 17.8564ZM27.071 15.6501C28.1427 13.1518 28.1514 11.122 27.0147 9.98531C26.4547 9.42532 25.6733 9.15794 24.7482 9.14564C23.824 9.13336 22.7504 9.37523 21.5928 9.83988C19.2774 10.7693 16.6075 12.5976 14.0904 15.1158L27.071 15.6501ZM20.008 19.0092L20.008 19.0089C20.0055 17.8947 19.1033 16.9896 17.9885 16.9896C16.8739 16.9896 15.9689 17.8945 15.9689 19.0092C15.9689 20.1238 16.8739 21.0287 17.9885 21.0287C19.1031 21.0287 20.008 20.1238 20.008 19.0092Z" fill="#4169E1" stroke="#4169E1" stroke-width="0.2"/>
</svg>
