<svg width="36" height="37" viewBox="0 0 36 37" fill="none" xmlns="http://www.w3.org/2000/svg">
<rect y="0.291992" width="36" height="36" rx="5" fill="#13142F"/>
<path d="M28 12.542V17.642C28 18.912 27.58 19.982 26.83 20.722C26.09 21.472 25.02 21.892 23.75 21.892V23.702C23.75 24.382 22.99 24.792 22.43 24.412L21.46 23.772C21.55 23.462 21.59 23.122 21.59 22.762V18.692C21.59 16.652 20.23 15.292 18.19 15.292H11.4C11.26 15.292 11.13 15.302 11 15.312V12.542C11 9.99199 12.7 8.29199 15.25 8.29199H23.75C26.3 8.29199 28 9.99199 28 12.542Z" stroke="#660039" stroke-width="1.5" stroke-miterlimit="10" stroke-linecap="round" stroke-linejoin="round"/>
<path d="M21.59 18.692V22.762C21.59 23.122 21.55 23.462 21.46 23.772C21.09 25.242 19.87 26.162 18.19 26.162H15.47L12.45 28.172C12 28.482 11.4 28.152 11.4 27.612V26.162C10.38 26.162 9.53 25.822 8.94 25.232C8.34 24.632 8 23.782 8 22.762V18.692C8 16.792 9.18 15.482 11 15.312C11.13 15.302 11.26 15.292 11.4 15.292H18.19C20.23 15.292 21.59 16.652 21.59 18.692Z" stroke="#660039" stroke-width="1.5" stroke-miterlimit="10" stroke-linecap="round" stroke-linejoin="round"/>
</svg>
