<svg width="36" height="36" viewBox="0 0 36 36" fill="none" xmlns="http://www.w3.org/2000/svg">
<rect width="36" height="36" rx="5" fill="#F4EBF0"/>
<path d="M28 12.25V17.35C28 18.62 27.58 19.69 26.83 20.43C26.09 21.18 25.02 21.6 23.75 21.6V23.41C23.75 24.09 22.99 24.5 22.43 24.12L21.46 23.48C21.55 23.17 21.59 22.83 21.59 22.47V18.4C21.59 16.36 20.23 15 18.19 15H11.4C11.26 15 11.13 15.01 11 15.02V12.25C11 9.7 12.7 8 15.25 8H23.75C26.3 8 28 9.7 28 12.25Z" stroke="#660039" stroke-width="1.5" stroke-miterlimit="10" stroke-linecap="round" stroke-linejoin="round"/>
<path d="M21.59 18.4V22.47C21.59 22.83 21.55 23.17 21.46 23.48C21.09 24.95 19.87 25.87 18.19 25.87H15.47L12.45 27.88C12 28.19 11.4 27.86 11.4 27.32V25.87C10.38 25.87 9.53 25.53 8.94 24.94C8.34 24.34 8 23.49 8 22.47V18.4C8 16.5 9.18 15.19 11 15.02C11.13 15.01 11.26 15 11.4 15H18.19C20.23 15 21.59 16.36 21.59 18.4Z" stroke="#660039" stroke-width="1.5" stroke-miterlimit="10" stroke-linecap="round" stroke-linejoin="round"/>
</svg>
