<svg width="36" height="37" viewBox="0 0 36 37" fill="none" xmlns="http://www.w3.org/2000/svg">
<rect y="0.291992" width="36" height="36" rx="5" fill="#13142F"/>
<path d="M19.72 15.512C19.7887 15.4383 19.8715 15.3792 19.9635 15.3382C20.0555 15.2972 20.1548 15.2752 20.2555 15.2734C20.3562 15.2716 20.4562 15.2901 20.5496 15.3279C20.643 15.3656 20.7278 15.4217 20.799 15.493C20.8703 15.5642 20.9264 15.649 20.9641 15.7424C21.0018 15.8358 21.0204 15.9358 21.0186 16.0365C21.0168 16.1372 20.9948 16.2365 20.9538 16.3285C20.9128 16.4205 20.8537 16.5033 20.78 16.572L16.28 21.072C16.2113 21.1457 16.1285 21.2048 16.0365 21.2458C15.9445 21.2868 15.8452 21.3088 15.7445 21.3106C15.6438 21.3124 15.5438 21.2938 15.4504 21.2561C15.357 21.2184 15.2722 21.1622 15.201 21.091C15.1297 21.0198 15.0736 20.935 15.0359 20.8416C14.9982 20.7482 14.9796 20.6482 14.9814 20.5475C14.9832 20.4468 15.0052 20.3475 15.0462 20.2555C15.0872 20.1635 15.1463 20.0807 15.22 20.012L19.72 15.512ZM23.75 8.29199C24.8772 8.29199 25.9582 8.73976 26.7552 9.53679C27.5522 10.3338 28 11.4148 28 12.542V13.542C28 21.688 21.396 28.292 13.25 28.292H12.25C11.1228 28.292 10.0418 27.8442 9.2448 27.0472C8.44777 26.2502 8 25.1692 8 24.042V23.042C8 14.896 14.604 8.29199 22.75 8.29199H23.75ZM26.5 12.542C26.5 11.8126 26.2103 11.1132 25.6945 10.5974C25.1788 10.0817 24.4793 9.79199 23.75 9.79199H22.75C22.3467 9.79199 21.948 9.80966 21.554 9.84499L26.447 14.738C26.4823 14.344 26.5 13.9453 26.5 13.542V12.542ZM26.153 16.566L19.726 10.139C17.3069 10.708 15.0961 11.9448 13.3455 13.7087C11.5948 15.4726 10.3747 17.6926 9.824 20.116L16.176 26.468C18.5994 25.9173 20.8194 24.6972 22.5833 22.9465C24.3472 21.1959 25.584 18.9851 26.153 16.566ZM9.543 21.957C9.51433 22.315 9.5 22.6767 9.5 23.042V24.042C9.5 24.7713 9.78973 25.4708 10.3055 25.9865C10.8212 26.5023 11.5207 26.792 12.25 26.792H13.25C13.6153 26.792 13.977 26.7773 14.335 26.748L9.543 21.957Z" fill="#AFAEAE"/>
</svg>
