<svg width="36" height="36" viewBox="0 0 36 36" fill="none" xmlns="http://www.w3.org/2000/svg">
<rect width="36" height="36" rx="5" fill="#13142F"/>
<path d="M19.72 15.22C19.7887 15.1463 19.8715 15.0872 19.9635 15.0462C20.0555 15.0052 20.1548 14.9832 20.2555 14.9814C20.3562 14.9796 20.4562 14.9982 20.5496 15.0359C20.643 15.0736 20.7278 15.1297 20.799 15.201C20.8703 15.2722 20.9264 15.357 20.9641 15.4504C21.0018 15.5438 21.0204 15.6438 21.0186 15.7445C21.0168 15.8452 20.9948 15.9445 20.9538 16.0365C20.9128 16.1285 20.8537 16.2113 20.78 16.28L16.28 20.78C16.2113 20.8537 16.1285 20.9128 16.0365 20.9538C15.9445 20.9948 15.8452 21.0168 15.7445 21.0186C15.6438 21.0204 15.5438 21.0018 15.4504 20.9641C15.357 20.9264 15.2722 20.8703 15.201 20.799C15.1297 20.7278 15.0736 20.643 15.0359 20.5496C14.9982 20.4562 14.9796 20.3562 14.9814 20.2555C14.9832 20.1548 15.0052 20.0555 15.0462 19.9635C15.0872 19.8715 15.1463 19.7887 15.22 19.72L19.72 15.22ZM23.75 8C24.8772 8 25.9582 8.44777 26.7552 9.2448C27.5522 10.0418 28 11.1228 28 12.25V13.25C28 21.396 21.396 28 13.25 28H12.25C11.1228 28 10.0418 27.5522 9.2448 26.7552C8.44777 25.9582 8 24.8772 8 23.75V22.75C8 14.604 14.604 8 22.75 8H23.75ZM26.5 12.25C26.5 11.5207 26.2103 10.8212 25.6945 10.3055C25.1788 9.78973 24.4793 9.5 23.75 9.5H22.75C22.3467 9.5 21.948 9.51767 21.554 9.553L26.447 14.446C26.4823 14.052 26.5 13.6533 26.5 13.25V12.25ZM26.153 16.274L19.726 9.847C17.3069 10.416 15.0961 11.6528 13.3455 13.4167C11.5948 15.1806 10.3747 17.4006 9.824 19.824L16.176 26.176C18.5994 25.6253 20.8194 24.4052 22.5833 22.6545C24.3472 20.9039 25.584 18.6931 26.153 16.274ZM9.543 21.665C9.51433 22.023 9.5 22.3847 9.5 22.75V23.75C9.5 24.4793 9.78973 25.1788 10.3055 25.6945C10.8212 26.2103 11.5207 26.5 12.25 26.5H13.25C13.6153 26.5 13.977 26.4853 14.335 26.456L9.543 21.665Z" fill="#AFAEAE"/>
</svg>
