<svg width="36" height="37" viewBox="0 0 36 37" fill="none" xmlns="http://www.w3.org/2000/svg">
<rect y="0.707031" width="36" height="36" rx="5" fill="#13142F"/>
<path d="M27.6668 27.114C27.6668 22.5594 27.0587 18.7696 21.0144 17.9478C20.6931 18.3505 20.2853 18.6757 19.8211 18.8992C19.3569 19.1227 18.8484 19.2388 18.3332 19.2388C17.818 19.2388 17.3094 19.1227 16.8453 18.8992C16.3811 18.6757 15.9732 18.3505 15.652 17.9478C9.61438 18.7705 9 22.5603 9 27.114" stroke="#AFAEAE" stroke-width="1.3" stroke-linecap="round" stroke-linejoin="round"/>
<path d="M22.0408 11.7013C22.0408 14.2974 20.2009 16.5681 18.337 16.5681C16.4732 16.5681 14.7592 14.2947 14.6336 11.7013C14.508 9.1078 16.046 7 18.337 7C20.628 7 22.0408 9.10465 22.0408 11.7013Z" stroke="#AFAEAE" stroke-width="1.3" stroke-linecap="round" stroke-linejoin="round"/>
<path d="M12.5257 22.7002C11.8771 24.352 11.8956 26.8654 11.8956 28.5964C13.9438 29.4147 16.1291 29.8352 18.3346 29.8356C20.5427 29.8361 22.7297 29.4068 24.7737 28.5717C24.7737 27.0004 24.7602 24.7382 24.302 23.166" stroke="#AFAEAE" stroke-width="1.3" stroke-linecap="round" stroke-linejoin="round"/>
<path d="M9 27.1138C9 27.4329 10.3539 28.1814 11.8806 28.1814" stroke="#AFAEAE" stroke-width="1.3" stroke-linecap="round" stroke-linejoin="round"/>
<path d="M27.6667 27.1138C27.6667 27.4329 26.3124 28.1814 24.7861 28.1814" stroke="#AFAEAE" stroke-width="1.3" stroke-linecap="round" stroke-linejoin="round"/>
<path d="M20.6479 23.457V24.7439" stroke="#AFAEAE" stroke-width="1.3" stroke-linecap="square" stroke-linejoin="bevel"/>
<path d="M21.9654 26.2075C21.9653 26.4681 21.888 26.7227 21.7432 26.9393C21.5984 27.1559 21.3926 27.3247 21.1518 27.4244C20.9111 27.524 20.6462 27.55 20.3907 27.4991C20.1352 27.4483 19.9005 27.3227 19.7163 27.1385C19.5321 26.9542 19.4066 26.7195 19.3558 26.4639C19.3051 26.2084 19.3312 25.9435 19.4309 25.7028C19.5306 25.4621 19.6995 25.2564 19.9161 25.1116C20.1328 24.9669 20.3875 24.8896 20.648 24.8896C20.9974 24.8898 21.3325 25.0287 21.5796 25.2758C21.8266 25.5229 21.9654 25.8581 21.9654 26.2075Z" stroke="#AFAEAE" stroke-width="1.3" stroke-linecap="round" stroke-linejoin="round"/>
<path d="M19.4268 23.231H21.869" stroke="#AFAEAE" stroke-width="1.3" stroke-linecap="round" stroke-linejoin="round"/>
</svg>
