<svg width="18" height="18" viewBox="0 0 18 18" fill="none" xmlns="http://www.w3.org/2000/svg">
<circle cx="9" cy="9" r="9" fill="#4169E1"/>
<path d="M11.358 12.68C11.474 12.68 11.566 12.714 11.634 12.782C11.702 12.85 11.736 12.938 11.736 13.046V13.694H6V13.328C6 13.252 6.016 13.174 6.048 13.094C6.08 13.014 6.13 12.94 6.198 12.872L8.952 10.106C9.18 9.874 9.388 9.652 9.576 9.44C9.764 9.224 9.924 9.008 10.056 8.792C10.188 8.576 10.29 8.358 10.362 8.138C10.434 7.914 10.47 7.676 10.47 7.424C10.47 7.172 10.43 6.952 10.35 6.764C10.27 6.572 10.16 6.414 10.02 6.29C9.884 6.166 9.722 6.074 9.534 6.014C9.346 5.95 9.144 5.918 8.928 5.918C8.708 5.918 8.506 5.95 8.322 6.014C8.138 6.078 7.974 6.168 7.83 6.284C7.69 6.396 7.572 6.53 7.476 6.686C7.38 6.842 7.312 7.014 7.272 7.202C7.224 7.342 7.158 7.436 7.074 7.484C6.994 7.528 6.88 7.54 6.732 7.52L6.174 7.424C6.23 7.032 6.338 6.686 6.498 6.386C6.662 6.082 6.866 5.828 7.11 5.624C7.358 5.42 7.64 5.266 7.956 5.162C8.272 5.054 8.614 5 8.982 5C9.346 5 9.686 5.054 10.002 5.162C10.318 5.27 10.592 5.428 10.824 5.636C11.056 5.84 11.238 6.09 11.37 6.386C11.502 6.682 11.568 7.018 11.568 7.394C11.568 7.714 11.52 8.012 11.424 8.288C11.328 8.56 11.198 8.82 11.034 9.068C10.87 9.316 10.68 9.558 10.464 9.794C10.252 10.03 10.026 10.268 9.786 10.508L7.518 12.824C7.678 12.78 7.84 12.746 8.004 12.722C8.168 12.694 8.326 12.68 8.478 12.68H11.358Z" fill="white"/>
</svg>
