<svg width="18" height="18" viewBox="0 0 18 18" fill="none" xmlns="http://www.w3.org/2000/svg">
<circle cx="9" cy="9" r="9" fill="#4169E1"/>
<path d="M6.264 7.424C6.32 7.032 6.428 6.686 6.588 6.386C6.748 6.082 6.95 5.828 7.194 5.624C7.442 5.42 7.724 5.266 8.04 5.162C8.36 5.054 8.704 5 9.072 5C9.436 5 9.772 5.052 10.08 5.156C10.388 5.26 10.652 5.408 10.872 5.6C11.096 5.792 11.27 6.024 11.394 6.296C11.518 6.568 11.58 6.87 11.58 7.202C11.58 7.474 11.544 7.718 11.472 7.934C11.404 8.146 11.304 8.332 11.172 8.492C11.044 8.652 10.888 8.788 10.704 8.9C10.52 9.012 10.314 9.104 10.086 9.176C10.646 9.32 11.066 9.568 11.346 9.92C11.63 10.268 11.772 10.704 11.772 11.228C11.772 11.624 11.696 11.98 11.544 12.296C11.396 12.612 11.192 12.882 10.932 13.106C10.672 13.326 10.368 13.496 10.02 13.616C9.676 13.732 9.306 13.79 8.91 13.79C8.454 13.79 8.064 13.734 7.74 13.622C7.416 13.506 7.142 13.348 6.918 13.148C6.694 12.948 6.51 12.712 6.366 12.44C6.222 12.164 6.1 11.866 6 11.546L6.462 11.354C6.582 11.302 6.698 11.288 6.81 11.312C6.926 11.336 7.01 11.402 7.062 11.51C7.114 11.622 7.178 11.756 7.254 11.912C7.334 12.068 7.442 12.218 7.578 12.362C7.714 12.506 7.886 12.628 8.094 12.728C8.306 12.828 8.574 12.878 8.898 12.878C9.198 12.878 9.46 12.83 9.684 12.734C9.912 12.634 10.1 12.506 10.248 12.35C10.4 12.194 10.514 12.02 10.59 11.828C10.666 11.636 10.704 11.446 10.704 11.258C10.704 11.026 10.674 10.814 10.614 10.622C10.554 10.43 10.442 10.264 10.278 10.124C10.114 9.984 9.888 9.874 9.6 9.794C9.316 9.714 8.95 9.674 8.502 9.674V8.9C8.87 8.896 9.182 8.856 9.438 8.78C9.698 8.704 9.908 8.6 10.068 8.468C10.232 8.336 10.35 8.178 10.422 7.994C10.498 7.81 10.536 7.606 10.536 7.382C10.536 7.134 10.496 6.918 10.416 6.734C10.34 6.55 10.234 6.398 10.098 6.278C9.962 6.158 9.8 6.068 9.612 6.008C9.428 5.948 9.228 5.918 9.012 5.918C8.796 5.918 8.594 5.95 8.406 6.014C8.222 6.078 8.058 6.168 7.914 6.284C7.774 6.396 7.656 6.53 7.56 6.686C7.464 6.842 7.396 7.014 7.356 7.202C7.304 7.342 7.238 7.436 7.158 7.484C7.082 7.528 6.97 7.54 6.822 7.52L6.264 7.424Z" fill="white"/>
</svg>
