<svg width="62" height="62" viewBox="0 0 62 62" fill="none" xmlns="http://www.w3.org/2000/svg">
<g id="vuesax/linear/award">
<g id="award">
<path id="Vector" d="M11.005 28.4684V41.3075C11.005 46.0092 11.005 46.0092 15.4483 49.0059L27.6675 56.0584C29.5017 57.1175 32.4983 57.1175 34.3325 56.0584L46.5517 49.0059C50.995 46.0092 50.995 46.0092 50.995 41.3075V28.4684C50.995 23.7667 50.995 23.7667 46.5517 20.77L34.3325 13.7175C32.4983 12.6584 29.5017 12.6584 27.6675 13.7175L15.4483 20.77C11.005 23.7667 11.005 23.7667 11.005 28.4684Z" stroke="#FBFBFB" stroke-width="3.875" stroke-linecap="round" stroke-linejoin="round"/>
<path id="Vector_2" d="M45.2083 19.7109V12.9167C45.2083 7.75002 42.625 5.16669 37.4583 5.16669H24.5416C19.375 5.16669 16.7916 7.75002 16.7916 12.9167V19.53" stroke="#FBFBFB" stroke-width="3.875" stroke-linecap="round" stroke-linejoin="round"/>
<path id="Vector_3" d="M32.6276 28.3909L34.1001 30.6901C34.3326 31.0517 34.8493 31.4134 35.2368 31.5167L37.8717 32.1884C39.4992 32.6017 39.9384 33.9967 38.8792 35.2884L37.1484 37.3809C36.8901 37.7167 36.6834 38.3109 36.7092 38.7242L36.8643 41.4368C36.9676 43.1159 35.7792 43.9684 34.2292 43.3484L31.6976 42.3409C31.3101 42.1859 30.6643 42.1859 30.2768 42.3409L27.7451 43.3484C26.1951 43.9684 25.0068 43.0901 25.1101 41.4368L25.2651 38.7242C25.2909 38.3109 25.0842 37.6909 24.8259 37.3809L23.0951 35.2884C22.0359 33.9967 22.4751 32.6017 24.1026 32.1884L26.7376 31.5167C27.1509 31.4134 27.6676 31.0259 27.8743 30.6901L29.3467 28.3909C30.2767 26.9959 31.7234 26.9959 32.6276 28.3909Z" stroke="#FBFBFB" stroke-width="3.875" stroke-linecap="round" stroke-linejoin="round"/>
</g>
</g>
</svg>
