<svg width="25" height="24" viewBox="0 0 25 24" fill="none" xmlns="http://www.w3.org/2000/svg">
<circle cx="18.5" cy="17.5" r="5.5" fill="#EF9B00"/>
<path d="M12.37 2.14984L21.37 5.74982C21.72 5.88982 22 6.30981 22 6.67981V9.99982C22 10.5498 21.55 10.9998 21 10.9998H3C2.45 10.9998 2 10.5498 2 9.99982V6.67981C2 6.30981 2.28 5.88982 2.63 5.74982L11.63 2.14984C11.83 2.06984 12.17 2.06984 12.37 2.14984Z" stroke="#EF9B00" stroke-width="1.5" stroke-miterlimit="10" stroke-linecap="round" stroke-linejoin="round"/>
<path d="M22 22H2V19C2 18.45 2.45 18 3 18H21C21.55 18 22 18.45 22 19V22Z" stroke="#EF9B00" stroke-width="1.5" stroke-miterlimit="10" stroke-linecap="round" stroke-linejoin="round"/>
<path d="M4 18V11" stroke="#EF9B00" stroke-width="1.5" stroke-miterlimit="10" stroke-linecap="round" stroke-linejoin="round"/>
<path d="M8 18V11" stroke="#EF9B00" stroke-width="1.5" stroke-miterlimit="10" stroke-linecap="round" stroke-linejoin="round"/>
<path d="M12 18V11" stroke="#EF9B00" stroke-width="1.5" stroke-miterlimit="10" stroke-linecap="round" stroke-linejoin="round"/>
<path d="M16 18V11" stroke="#EF9B00" stroke-width="1.5" stroke-miterlimit="10" stroke-linecap="round" stroke-linejoin="round"/>
<path d="M20 18V11" stroke="#EF9B00" stroke-width="1.5" stroke-miterlimit="10" stroke-linecap="round" stroke-linejoin="round"/>
<path d="M1 22H23" stroke="#EF9B00" stroke-width="1.5" stroke-miterlimit="10" stroke-linecap="round" stroke-linejoin="round"/>
<path d="M12 8.5C12.8284 8.5 13.5 7.82843 13.5 7C13.5 6.17157 12.8284 5.5 12 5.5C11.1716 5.5 10.5 6.17157 10.5 7C10.5 7.82843 11.1716 8.5 12 8.5Z" stroke="#EF9B00" stroke-width="1.5" stroke-miterlimit="10" stroke-linecap="round" stroke-linejoin="round"/>
<path d="M13.3541 17.4997C13.3541 14.6593 15.6595 12.3538 18.4999 12.3538C21.3403 12.3538 23.6458 14.6593 23.6458 17.4997C23.6458 20.3401 21.3403 22.6455 18.4999 22.6455C15.6595 22.6455 13.3541 20.3401 13.3541 17.4997ZM19.2493 19.6033L20.8743 17.9783C21.1372 17.7154 21.1372 17.2839 20.8743 17.0211L19.2493 15.3961C18.9865 15.1332 18.555 15.1332 18.2922 15.3961C18.0293 15.6589 18.0293 16.0904 18.2922 16.3533L18.7615 16.8226H16.6041C16.2324 16.8226 15.927 17.128 15.927 17.4997C15.927 17.8713 16.2324 18.1768 16.6041 18.1768H18.7615L18.2922 18.6461C18.0293 18.9089 18.0293 19.3404 18.2922 19.6033C18.4269 19.738 18.5999 19.8018 18.7708 19.8018C18.9416 19.8018 19.1146 19.738 19.2493 19.6033Z" fill="white" stroke="white" stroke-width="0.541667"/>
</svg>
