<svg width="25" height="24" viewBox="0 0 25 24" fill="none" xmlns="http://www.w3.org/2000/svg">
<path d="M4.76001 11.0199V15.9899C4.76001 17.8099 4.76001 17.8099 6.48001 18.9699L11.21 21.6999C11.92 22.1099 13.08 22.1099 13.79 21.6999L18.52 18.9699C20.24 17.8099 20.24 17.8099 20.24 15.9899V11.0199C20.24 9.19994 20.24 9.19994 18.52 8.03994L13.79 5.30994C13.08 4.89994 11.92 4.89994 11.21 5.30994L6.48001 8.03994C4.76001 9.19994 4.76001 9.19994 4.76001 11.0199Z" stroke="#212121" stroke-width="1.5" stroke-linecap="round" stroke-linejoin="round"/>
<path d="M18 7.63V5C18 3 17 2 15 2H10C8 2 7 3 7 5V7.56" stroke="#212121" stroke-width="1.5" stroke-linecap="round" stroke-linejoin="round"/>
<path d="M13.13 10.99L13.7 11.88C13.79 12.02 13.99 12.16 14.14 12.2L15.16 12.46C15.79 12.62 15.96 13.16 15.55 13.66L14.88 14.47C14.78 14.6 14.7 14.83 14.71 14.99L14.77 16.04C14.81 16.69 14.35 17.02 13.75 16.78L12.77 16.39C12.62 16.33 12.37 16.33 12.22 16.39L11.24 16.78C10.64 17.02 10.18 16.68 10.22 16.04L10.28 14.99C10.29 14.83 10.21 14.59 10.11 14.47L9.44002 13.66C9.03002 13.16 9.20002 12.62 9.83002 12.46L10.85 12.2C11.01 12.16 11.21 12.01 11.29 11.88L11.86 10.99C12.22 10.45 12.78 10.45 13.13 10.99Z" stroke="#212121" stroke-width="1.5" stroke-linecap="round" stroke-linejoin="round"/>
</svg>
