<svg width="248" height="267" viewBox="0 0 248 267" fill="none" xmlns="http://www.w3.org/2000/svg">
<path d="M248 198.681V3.69569C248 1.78815 246.249 0.361371 244.381 0.746869L215.758 6.65309C185.768 12.8415 157.418 25.2765 132.552 43.1484C131.627 43.8137 131.518 45.15 132.324 45.9559L152.347 65.9787C152.726 66.3578 153.317 66.4241 153.771 66.1384L160.479 61.915C177.59 51.1412 196.304 43.153 215.92 38.2488V170.269C206.133 170.269 196.43 172.07 187.295 175.584L185.705 176.195C185.32 176.344 185.055 176.7 185.023 177.111C184.24 187.292 181.861 197.287 177.973 206.729L176.526 210.243C176.113 211.245 177.228 212.188 178.148 211.613C195.415 200.821 215.831 196.204 236.061 198.516L246.808 199.744C247.443 199.817 248 199.32 248 198.681Z" fill="#4169E1"/>
<path d="M0 196.754V10.8271C0 8.37997 2.18428 6.51048 4.60206 6.88826L16.5602 8.75672C31.8128 11.1399 46.8289 14.8469 61.4384 19.8354L62.4961 20.1966C80.7775 26.4391 98.0331 35.3561 113.7 46.6572L119.234 50.6487C148.593 71.8255 167.649 104.411 171.71 140.382L172.294 145.556C173.407 155.412 173.288 165.369 171.939 175.195L171.689 177.016C167.535 207.284 155.004 235.79 135.511 259.316L135.009 259.922C132.045 263.499 126.685 263.853 123.277 260.697L119.125 256.853C104.155 242.992 93.275 225.288 87.6701 205.671C85.1658 196.906 83.7047 187.876 83.3171 178.768L82.8732 168.337C81.9245 146.042 85.8811 123.812 94.4635 103.214L99.0868 92.118C99.4937 91.1416 100.761 90.8908 101.509 91.6388L121.873 112.002C122.038 112.167 122.079 112.42 121.974 112.628C106.046 144.485 108.3 182.415 127.889 212.161L129.552 214.687L131.152 211.614C149.221 176.923 147.195 135.186 125.851 102.408L117.281 92.3259C95.6705 66.9019 66.0634 49.5743 33.3134 43.1841V172.736H35.7149C48.6949 172.736 61.4503 176.124 72.7201 182.564C72.7687 182.591 72.8043 182.637 72.819 182.691L82.9496 219.837C83.2586 220.97 81.9558 221.85 81.0197 221.141L75.6156 217.047C54.9248 201.372 28.6664 194.966 3.08185 199.352C1.47127 199.628 0 198.388 0 196.754Z" fill="#4169E1"/>
</svg>
