<svg width="25" height="24" viewBox="0 0 25 24" fill="none" xmlns="http://www.w3.org/2000/svg">
<path d="M22.5 4.66994V16.74C22.5 17.7 21.72 18.5999 20.76 18.7199L20.43 18.76C18.25 19.05 14.89 20.1599 12.97 21.2199C12.71 21.3699 12.28 21.3699 12.01 21.2199L11.97 21.2C10.05 20.15 6.70003 19.05 4.53003 18.76L4.23999 18.7199C3.27999 18.5999 2.5 17.7 2.5 16.74V4.65993C2.5 3.46993 3.46997 2.56994 4.65997 2.66994C6.75997 2.83994 9.93997 3.89997 11.72 5.00997L11.97 5.15993C12.26 5.33994 12.74 5.33994 13.03 5.15993L13.2 5.04995C13.83 4.65995 14.63 4.26994 15.5 3.91994V7.99996L17.5 6.66994L19.5 7.99996V2.77999C19.77 2.72999 20.03 2.69995 20.27 2.67995H20.33C21.52 2.57995 22.5 3.46994 22.5 4.66994Z" stroke="#212121" stroke-width="1.5" stroke-linecap="round" stroke-linejoin="round"/>
<path d="M12.5 5.48999V20.49" stroke="#212121" stroke-width="1.5" stroke-linecap="round" stroke-linejoin="round"/>
<path d="M19.5 2.78003V8L17.5 6.66998L15.5 8V3.91998C16.81 3.39998 18.27 2.98003 19.5 2.78003Z" stroke="#212121" stroke-width="1.5" stroke-linecap="round" stroke-linejoin="round"/>
</svg>
