<svg width="30" height="30" viewBox="0 0 30 30" fill="none" xmlns="http://www.w3.org/2000/svg">
<g id="clock-svgrepo-com[1] 1">
<path id="Vector" d="M6.6826 6.37807H23.3847V20.8888H6.6826V6.37807Z" fill="white"/>
<path id="Vector_2" d="M23.5429 21.0468H6.52438V6.2226H23.5429V21.0468ZM6.83786 20.7333H23.2265V6.53607H6.83786V20.7333Z" fill="#333336"/>
<path id="Vector_3" d="M22.4297 5.35268H7.57033C6.42482 5.35268 5.49025 6.29018 5.49025 7.43275V20.1037C5.49025 21.2492 6.42775 22.1837 7.57033 22.1837H22.4326C23.5781 22.1837 24.5127 21.2462 24.5127 20.1037V7.43275C24.5127 6.28725 23.5752 5.35268 22.4297 5.35268ZM22.5586 19.2189C22.5586 19.7755 22.1045 20.2296 21.5479 20.2296H8.45509C7.89845 20.2296 7.44435 19.7755 7.44435 19.2189V8.31752C7.44435 7.76088 7.89845 7.30678 8.45509 7.30678H21.5479C22.1045 7.30678 22.5586 7.76088 22.5586 8.31752V19.2189Z" fill="#F2AF33"/>
<path id="Vector_4" d="M22.4297 22.3417H7.57031C6.33691 22.3417 5.33203 21.3368 5.33203 20.1034V7.43248C5.33203 6.19908 6.33691 5.1942 7.57031 5.1942H22.4326C23.666 5.1942 24.6709 6.19908 24.6709 7.43248V20.1034C24.668 21.3368 23.666 22.3417 22.4297 22.3417ZM7.57031 5.50768C6.50977 5.50768 5.64551 6.37193 5.64551 7.43248V20.1034C5.64551 21.1639 6.50977 22.0282 7.57031 22.0282H22.4326C23.4932 22.0282 24.3574 21.1639 24.3574 20.1034V7.43248C24.3574 6.37193 23.4932 5.50768 22.4326 5.50768H7.57031ZM21.5449 20.3876H8.45508C7.81055 20.3876 7.28613 19.8631 7.28613 19.2186V8.31725C7.28613 7.67271 7.81055 7.1483 8.45508 7.1483H21.5479C22.1924 7.1483 22.7168 7.67271 22.7168 8.31725V19.2186C22.7139 19.8631 22.1895 20.3876 21.5449 20.3876ZM8.45508 7.46471C7.9834 7.46471 7.60254 7.8485 7.60254 8.31725V19.2186C7.60254 19.6903 7.98633 20.0712 8.45508 20.0712H21.5479C22.0195 20.0712 22.4004 19.6874 22.4004 19.2186V8.31725C22.4004 7.84557 22.0166 7.46471 21.5479 7.46471H8.45508Z" fill="#333336"/>
<path id="Vector_5" d="M15 9.05566C14.9121 9.05566 14.8418 8.98535 14.8418 8.89746V7.30664C14.8418 7.21875 14.9121 7.14844 15 7.14844C15.0879 7.14844 15.1582 7.21875 15.1582 7.30664V8.89746C15.1582 8.98535 15.0879 9.05566 15 9.05566ZM15 20.373C14.9121 20.373 14.8418 20.3027 14.8418 20.2148V18.624C14.8418 18.5361 14.9121 18.4658 15 18.4658C15.0879 18.4658 15.1582 18.5361 15.1582 18.624V20.2148C15.1582 20.3027 15.0879 20.373 15 20.373Z" fill="#333336"/>
<path id="Vector_6" d="M9.08789 13.9248H7.49707C7.40918 13.9248 7.33887 13.8545 7.33887 13.7666C7.33887 13.6787 7.40918 13.6084 7.49707 13.6084H9.08789C9.17578 13.6084 9.24609 13.6787 9.24609 13.7666C9.24316 13.8545 9.17285 13.9248 9.08789 13.9248Z" fill="#333336"/>
<path id="Vector_7" d="M22.5586 13.9248H20.9678C20.8799 13.9248 20.8096 13.8545 20.8096 13.7666C20.8096 13.6787 20.8799 13.6084 20.9678 13.6084H22.5586C22.6465 13.6084 22.7168 13.6787 22.7168 13.7666C22.7139 13.8545 22.6436 13.9248 22.5586 13.9248Z" fill="#333336"/>
<path id="Vector_8" d="M13.0811 13.7665C13.0811 14.0185 13.1307 14.2681 13.2271 14.5009C13.3236 14.7337 13.4649 14.9453 13.6431 15.1234C13.8213 15.3016 14.0328 15.443 14.2657 15.5394C14.4985 15.6359 14.748 15.6855 15 15.6855C15.252 15.6855 15.5015 15.6359 15.7343 15.5394C15.9672 15.443 16.1787 15.3016 16.3569 15.1234C16.5351 14.9453 16.6764 14.7337 16.7729 14.5009C16.8693 14.2681 16.9189 14.0185 16.9189 13.7665C16.9189 13.5145 16.8693 13.265 16.7729 13.0322C16.6764 12.7994 16.5351 12.5878 16.3569 12.4096C16.1787 12.2315 15.9672 12.0901 15.7343 11.9937C15.5015 11.8972 15.252 11.8476 15 11.8476C14.748 11.8476 14.4985 11.8972 14.2657 11.9937C14.0328 12.0901 13.8213 12.2315 13.6431 12.4096C13.4649 12.5878 13.3236 12.7994 13.2271 13.0322C13.1307 13.265 13.0811 13.5145 13.0811 13.7665Z" fill="#EF9B00"/>
<path id="Vector_9" d="M15 15.8439C13.8545 15.8439 12.9258 14.9122 12.9258 13.7697C12.9258 12.6271 13.8574 11.6954 15 11.6954C16.1425 11.6954 17.0742 12.6271 17.0742 13.7697C17.0742 14.9122 16.1455 15.8439 15 15.8439ZM15 12.006C14.0302 12.006 13.2392 12.797 13.2392 13.7667C13.2392 14.7365 14.0302 15.5275 15 15.5275C15.9697 15.5275 16.7607 14.7365 16.7607 13.7667C16.7607 12.797 15.9697 12.006 15 12.006Z" fill="#333336"/>
<path id="Vector_10" d="M14.2881 13.7667C14.2881 13.8602 14.3065 13.9527 14.3422 14.0391C14.378 14.1255 14.4305 14.204 14.4966 14.2701C14.5627 14.3362 14.6412 14.3886 14.7275 14.4244C14.8139 14.4602 14.9065 14.4786 15 14.4786C15.0935 14.4786 15.186 14.4602 15.2724 14.4244C15.3588 14.3886 15.4373 14.3362 15.5034 14.2701C15.5695 14.204 15.6219 14.1255 15.6577 14.0391C15.6935 13.9527 15.7119 13.8602 15.7119 13.7667C15.7119 13.5779 15.6369 13.3968 15.5034 13.2633C15.3699 13.1298 15.1888 13.0547 15 13.0547C14.8112 13.0547 14.6301 13.1298 14.4966 13.2633C14.3631 13.3968 14.2881 13.5779 14.2881 13.7667Z" fill="white"/>
<path id="Vector_11" d="M15 14.6367C14.5225 14.6367 14.1328 14.247 14.1328 13.7695C14.1328 13.2919 14.5225 12.9023 15 12.9023C15.4776 12.9023 15.8672 13.2919 15.8672 13.7695C15.8672 14.247 15.4776 14.6367 15 14.6367ZM15 13.2128C14.6953 13.2128 14.4463 13.4619 14.4463 13.7665C14.4463 14.0712 14.6953 14.3203 15 14.3203C15.3047 14.3203 15.5537 14.0712 15.5537 13.7665C15.5537 13.4619 15.3047 13.2128 15 13.2128Z" fill="#333336"/>
<path id="Vector_12" d="M19.4326 13.9248H15.7852C15.6973 13.9248 15.627 13.8545 15.627 13.7666C15.627 13.6787 15.6973 13.6084 15.7852 13.6084H19.4326C19.5205 13.6084 19.5908 13.6787 19.5908 13.7666C19.5879 13.8545 19.5176 13.9248 19.4326 13.9248Z" fill="#333336"/>
<path id="Vector_13" d="M14.2881 13.0576L10.081 10.1337L14.2881 13.0576Z" fill="white"/>
<path id="Vector_14" d="M14.2881 13.2129C14.2558 13.2129 14.2265 13.2041 14.1973 13.1836L9.99022 10.2598C9.91991 10.21 9.90233 10.1133 9.95213 10.0401C10.0019 9.96976 10.0986 9.95218 10.1719 10.002L14.3789 12.9258C14.4492 12.9756 14.4668 13.0723 14.417 13.1455C14.3877 13.1895 14.3379 13.2129 14.2881 13.2129Z" fill="#333336"/>
<path id="Vector_15" d="M21.2373 24.6476H8.81252C8.38772 24.6476 8.08303 24.2404 8.20315 23.8331L8.69241 22.1837H21.3574L21.8467 23.8331C21.9668 24.2404 21.6621 24.6476 21.2373 24.6476Z" fill="#EF9B00"/>
<path id="Vector_16" d="M21.2373 24.8056H8.81252C8.56057 24.8056 8.32912 24.6884 8.17971 24.4863C8.03029 24.2841 7.98342 24.0292 8.05373 23.789L8.57522 22.0283H21.4746L21.9961 23.789C22.0664 24.0322 22.0225 24.2841 21.8701 24.4863C21.7207 24.6884 21.4893 24.8056 21.2373 24.8056ZM8.80959 22.3417L8.35549 23.8769C8.31154 24.0234 8.34084 24.1757 8.43166 24.2988C8.52248 24.4218 8.66311 24.4892 8.81252 24.4892H21.2373C21.3897 24.4892 21.5274 24.4189 21.6211 24.2988C21.7119 24.1757 21.7383 24.0234 21.6973 23.8769L21.2403 22.3417H8.80959Z" fill="#333336"/>
</g>
</svg>
