<svg width="24" height="24" viewBox="0 0 24 24" fill="none" xmlns="http://www.w3.org/2000/svg">
<path d="M5.80441 19.6284L5.80223 19.6278C5.56585 19.563 5.46473 19.2424 5.66356 19.0436L16.2936 8.41355C16.3558 8.35133 16.4927 8.29979 16.705 8.34089L16.7079 8.34143C17.1764 8.42928 17.6926 8.29946 18.0663 7.94069L18.0664 7.94078L18.0742 7.93286L20.6436 5.35355C20.6437 5.35337 20.6439 5.3532 20.6441 5.35302C20.8488 5.14841 21.0182 5.03895 21.1403 4.98983C21.2585 4.9423 21.3036 4.96089 21.3073 4.96239L21.3073 4.96241L21.3074 4.96244C21.311 4.9639 21.3556 4.98219 21.4054 5.09843C21.4572 5.2194 21.5 5.41743 21.5 5.71V15.29C21.5 17.7739 19.4839 19.79 17 19.79H7.00001C6.58456 19.79 6.18981 19.736 5.80441 19.6284Z" fill="#EF9B00" stroke="#EF9B00"/>
<path d="M14.64 7.36002L4.17 17.83C3.69 18.31 2.89 18.19 2.57 17.59C2.2 16.91 2 16.12 2 15.29V5.71002C2 4.37002 2.77 4.06002 3.71 5.00002L6.29 7.59002C6.68 7.97002 7.32 7.97002 7.71 7.59002L11.29 4.00002C11.68 3.61002 12.32 3.61002 12.71 4.00002L14.65 5.94002C15.03 6.33002 15.03 6.97002 14.64 7.36002Z" fill="#EF9B00"/>
</svg>
