<svg width="28" height="28" viewBox="0 0 28 28" fill="none" xmlns="http://www.w3.org/2000/svg">
<circle cx="14" cy="14" r="14" fill="#4169E1"/>
<path d="M8.61666 20.2667C8.10832 20.2667 7.63332 20.0917 7.29166 19.7667C6.85832 19.3584 6.64999 18.7417 6.72499 18.075L7.03332 15.375C7.09166 14.8667 7.39999 14.1917 7.75832 13.825L14.6 6.58335C16.3083 4.77502 18.0917 4.72502 19.9 6.43335C21.7083 8.14169 21.7583 9.92502 20.05 11.7334L13.2083 18.975C12.8583 19.35 12.2083 19.7 11.7 19.7834L9.01666 20.2417C8.87499 20.25 8.74999 20.2667 8.61666 20.2667ZM17.275 6.42502C16.6333 6.42502 16.075 6.82502 15.5083 7.42502L8.66666 14.675C8.49999 14.85 8.30832 15.2667 8.27499 15.5084L7.96666 18.2084C7.93332 18.4834 7.99999 18.7084 8.14999 18.85C8.29999 18.9917 8.52499 19.0417 8.79999 19L11.4833 18.5417C11.725 18.5 12.125 18.2834 12.2917 18.1084L19.1333 10.8667C20.1667 9.76669 20.5417 8.75002 19.0333 7.33335C18.3667 6.69169 17.7917 6.42502 17.275 6.42502Z" fill="white"/>
<path d="M18.45 13.125C18.4333 13.125 18.4083 13.125 18.3916 13.125C15.7916 12.8666 13.7 10.8916 13.3 8.30831C13.25 7.96664 13.4833 7.64998 13.825 7.59164C14.1666 7.54164 14.4833 7.77498 14.5416 8.11664C14.8583 10.1333 16.4916 11.6833 18.525 11.8833C18.8666 11.9166 19.1166 12.225 19.0833 12.5666C19.0416 12.8833 18.7666 13.125 18.45 13.125Z" fill="white"/>
<path d="M21.5 22.9583H6.5C6.15833 22.9583 5.875 22.675 5.875 22.3333C5.875 21.9916 6.15833 21.7083 6.5 21.7083H21.5C21.8417 21.7083 22.125 21.9916 22.125 22.3333C22.125 22.675 21.8417 22.9583 21.5 22.9583Z" fill="white"/>
</svg>
