<svg width="24" height="25" viewBox="0 0 24 25" fill="none" xmlns="http://www.w3.org/2000/svg">
<rect y="0.887695" width="23.7736" height="23.7736" rx="3.30189" fill="white"/>
<path d="M14.3934 13.1735C16.2822 13.1735 17.8134 11.6423 17.8134 9.7535C17.8134 7.86468 16.2822 6.3335 14.3934 6.3335C12.5045 6.3335 10.9734 7.86468 10.9734 9.7535C10.9734 11.6423 12.5045 13.1735 14.3934 13.1735Z" stroke="#4169E1" stroke-miterlimit="10"/>
<path d="M8.23985 17.9602C9.37387 17.9602 10.2932 17.0409 10.2932 15.9068C10.2932 14.7728 9.37387 13.8535 8.23985 13.8535C7.10582 13.8535 6.18652 14.7728 6.18652 15.9068C6.18652 17.0409 7.10582 17.9602 8.23985 17.9602Z" stroke="#4169E1" stroke-miterlimit="10"/>
<path d="M15.08 19.6668C16.0225 19.6668 16.7866 18.9027 16.7866 17.9601C16.7866 17.0176 16.0225 16.2534 15.08 16.2534C14.1374 16.2534 13.3733 17.0176 13.3733 17.9601C13.3733 18.9027 14.1374 19.6668 15.08 19.6668Z" stroke="#4169E1" stroke-miterlimit="10"/>
</svg>
