<svg width="25" height="24" viewBox="0 0 25 24" fill="none" xmlns="http://www.w3.org/2000/svg">
<g id="vuesax/linear/moneys">
<g id="Group">
<path id="Vector" d="M19.55 7.91998V13.07C19.55 16.15 17.79 17.47 15.15 17.47H6.35995C5.90995 17.47 5.47996 17.43 5.07996 17.34C4.82996 17.3 4.58996 17.23 4.36996 17.15C2.86996 16.59 1.95996 15.29 1.95996 13.07V7.91998C1.95996 4.83998 3.71995 3.52002 6.35995 3.52002H15.15C17.39 3.52002 19 4.47001 19.43 6.64001C19.5 7.04001 19.55 7.44998 19.55 7.91998Z" stroke="#545454" stroke-width="1.5" stroke-miterlimit="10" stroke-linecap="round" stroke-linejoin="round"/>
<path id="Vector_2" d="M22.5511 10.9201V16.0701C22.5511 19.1501 20.7911 20.4701 18.1511 20.4701H9.36105C8.62105 20.4701 7.95106 20.3701 7.37106 20.1501C6.18106 19.7101 5.37105 18.8001 5.08105 17.3401C5.48105 17.4301 5.91105 17.4701 6.36105 17.4701H15.1511C17.7911 17.4701 19.5511 16.1501 19.5511 13.0701V7.9201C19.5511 7.4501 19.5111 7.03014 19.4311 6.64014C21.3311 7.04014 22.5511 8.38011 22.5511 10.9201Z" stroke="#545454" stroke-width="1.5" stroke-miterlimit="10" stroke-linecap="round" stroke-linejoin="round"/>
<path id="Vector_3" d="M10.7484 13.1399C12.2064 13.1399 13.3884 11.9579 13.3884 10.4999C13.3884 9.04185 12.2064 7.85986 10.7484 7.85986C9.29038 7.85986 8.1084 9.04185 8.1084 10.4999C8.1084 11.9579 9.29038 13.1399 10.7484 13.1399Z" stroke="#545454" stroke-width="1.5" stroke-miterlimit="10" stroke-linecap="round" stroke-linejoin="round"/>
<path id="Vector_4" d="M5.02997 8.30005V12.7001" stroke="#545454" stroke-width="1.5" stroke-miterlimit="10" stroke-linecap="round" stroke-linejoin="round"/>
<path id="Vector_5" d="M16.4717 8.30029V12.7003" stroke="#545454" stroke-width="1.5" stroke-miterlimit="10" stroke-linecap="round" stroke-linejoin="round"/>
</g>
</g>
</svg>
