<svg width="25" height="24" viewBox="0 0 25 24" fill="none" xmlns="http://www.w3.org/2000/svg">
<path d="M18.9295 6.73721L18.931 6.74485L18.9328 6.75245C19.0123 7.09714 19.05 7.47809 19.05 7.92002V13.07C19.05 14.5147 18.6397 15.4644 17.9997 16.0586C17.3531 16.6591 16.3933 16.97 15.15 16.97H6.35996C5.93872 16.97 5.54652 16.9325 5.18972 16.8522L5.17443 16.8488L5.15896 16.8463C4.94926 16.8127 4.74153 16.753 4.54292 16.6809C3.88689 16.4356 3.37837 16.0378 3.02796 15.4699C2.67382 14.8961 2.45996 14.1135 2.45996 13.07V7.92002C2.45996 6.47532 2.87022 5.52567 3.51019 4.93142C4.15686 4.33093 5.11661 4.02002 6.35996 4.02002H15.14C16.1943 4.02002 17.0471 4.24412 17.6745 4.67762C18.2909 5.1036 18.7366 5.76363 18.9295 6.73721ZM5.02996 13.25C5.7161 13.25 6.27996 12.6862 6.27996 12V9.00002C6.27996 8.31388 5.7161 7.75002 5.02996 7.75002C4.34382 7.75002 3.77996 8.31388 3.77996 9.00002V12C3.77996 12.6862 4.34382 13.25 5.02996 13.25ZM7.60996 10.5C7.60996 12.2362 9.01382 13.64 10.75 13.64C12.4861 13.64 13.89 12.2362 13.89 10.5C13.89 8.76388 12.4861 7.36002 10.75 7.36002C9.01382 7.36002 7.60996 8.76388 7.60996 10.5ZM16.46 13.25C17.1461 13.25 17.71 12.6862 17.71 12V9.00002C17.71 8.31388 17.1461 7.75002 16.46 7.75002C15.7738 7.75002 15.21 8.31388 15.21 9.00002V12C15.21 12.6862 15.7738 13.25 16.46 13.25Z" fill="#4169E1" stroke="#4169E1"/>
<path d="M7.53734 19.6825L7.53736 19.6825L7.53008 19.6798C7.36535 19.6203 7.21069 19.55 7.06682 19.47H15.14C17.0891 19.47 18.7033 18.8887 19.8308 17.7626C20.9584 16.6364 21.54 15.0245 21.54 13.08V8.63026C21.8603 9.19777 22.05 9.94539 22.05 10.92V16.07C22.05 17.5148 21.6397 18.4671 20.9982 19.064C20.3501 19.6669 19.3879 19.98 18.14 19.98H9.36001C8.65784 19.98 8.04987 19.8769 7.53734 19.6825Z" fill="#4169E1" stroke="#4169E1"/>
</svg>
