<svg width="25" height="24" viewBox="0 0 25 24" fill="none" xmlns="http://www.w3.org/2000/svg">
<path d="M5.44434 10C4.34434 10 3.44434 10.9 3.44434 12C3.44434 13.1 4.34434 14 5.44434 14C6.54434 14 7.44434 13.1 7.44434 12C7.44434 10.9 6.54434 10 5.44434 10Z" stroke="#4169E1" stroke-width="1.5"/>
<path d="M19.4443 10C18.3443 10 17.4443 10.9 17.4443 12C17.4443 13.1 18.3443 14 19.4443 14C20.5443 14 21.4443 13.1 21.4443 12C21.4443 10.9 20.5443 10 19.4443 10Z" stroke="#4169E1" stroke-width="1.5"/>
<path d="M12.4443 10C11.3443 10 10.4443 10.9 10.4443 12C10.4443 13.1 11.3443 14 12.4443 14C13.5443 14 14.4443 13.1 14.4443 12C14.4443 10.9 13.5443 10 12.4443 10Z" stroke="#4169E1" stroke-width="1.5"/>
</svg>
