<svg width="24" height="25" viewBox="0 0 24 25" fill="none" xmlns="http://www.w3.org/2000/svg">
<path d="M12.16 11.12C12.06 11.11 11.94 11.11 11.83 11.12C9.45 11.04 7.56 9.09 7.56 6.69C7.56 4.24 9.54 2.25 12 2.25C14.45 2.25 16.44 4.24 16.44 6.69C16.43 9.09 14.54 11.04 12.16 11.12Z" stroke="#4169E1" stroke-width="1.5" stroke-linecap="round" stroke-linejoin="round"/>
<path d="M7.16 14.81C4.74 16.43 4.74 19.07 7.16 20.68C9.91 22.52 14.42 22.52 17.17 20.68C19.59 19.06 19.59 16.42 17.17 14.81C14.43 12.98 9.92 12.98 7.16 14.81Z" stroke="#4169E1" stroke-width="1.5" stroke-linecap="round" stroke-linejoin="round"/>
</svg>
