<svg width="25" height="24" viewBox="0 0 25 24" fill="none" xmlns="http://www.w3.org/2000/svg">
<path d="M8.5 6.75C8.5 4.40614 10.4061 2.5 12.75 2.5C15.0935 2.5 16.9995 4.40562 17 6.74903C16.9905 9.04858 15.1968 10.9052 12.911 10.99H12.911H12.9109H12.9109H12.9109H12.9109H12.9108H12.9108H12.9108H12.9107H12.9107H12.9107H12.9106H12.9106H12.9106H12.9106H12.9105H12.9105H12.9105H12.9104H12.9104H12.9104H12.9104H12.9103H12.9103H12.9103H12.9102H12.9102H12.9102H12.9101H12.9101H12.9101H12.9101H12.91H12.91H12.91H12.9099H12.9099H12.9099H12.9099H12.9098H12.9098H12.9098H12.9097H12.9097H12.9097H12.9096H12.9096H12.9096H12.9096H12.9095H12.9095H12.9095H12.9094H12.9094H12.9094H12.9094H12.9093H12.9093H12.9093H12.9092H12.9092H12.9092H12.9091H12.9091H12.9091H12.9091H12.909H12.909H12.909H12.9089H12.9089H12.9089H12.9088H12.9088H12.9088H12.9088H12.9087H12.9087H12.9087H12.9086H12.9086H12.9086H12.9085H12.9085H12.9085H12.9085H12.9084H12.9084H12.9084H12.9083H12.9083H12.9083H12.9082H12.9082H12.9082H12.9081H12.9081H12.9081H12.9081H12.908H12.908H12.908H12.9079H12.9079H12.9079H12.9078H12.9078H12.9078H12.9077H12.9077H12.9077H12.9076H12.9076H12.9076H12.9075H12.9075H12.9075H12.9075H12.9074H12.9074H12.9074H12.9073H12.9073H12.9073H12.9072H12.9072H12.9072H12.9071H12.9071H12.9071H12.907H12.907H12.907H12.9069H12.9069H12.9069H12.9068H12.9068H12.9068H12.9067H12.9067H12.9066H12.9066H12.9066H12.9065H12.9065H12.9065H12.9064H12.9064H12.9064H12.9063H12.9063H12.9063H12.9062H12.9062H12.9062H12.9061H12.9061H12.906H12.906H12.906H12.9059H12.9059H12.9059H12.9058H12.9058H12.9058H12.9057H12.9057H12.9056H12.9056H12.9056H12.9055H12.9055H12.9055H12.9054H12.9054H12.9053H12.9053H12.9053H12.9052H12.9052H12.9051H12.9051H12.9051H12.905H12.905H12.9049H12.9049H12.9049H12.9048H12.9048H12.9047H12.9047H12.9047H12.9046H12.9046H12.9045H12.9045H12.9045H12.9044H12.9044H12.9043H12.9043H12.9042H12.9042H12.9042H12.9041H12.9041H12.904H12.904H12.9039H12.9039H12.9039H12.9038H12.9038H12.9037H12.9037H12.9036H12.9036H12.9035H12.9035H12.9035H12.9034H12.9034H12.9033H12.9033H12.9032H12.9032H12.9031H12.9031H12.903H12.903H12.9029H12.9029H12.9029H12.9028H12.9028H12.9027H12.9027H12.9026H12.9026H12.9025H12.9025H12.9024H12.9024H12.9023H12.9023H12.9022H12.9022H12.9021H12.9021H12.902H12.902H12.9019H12.9019H12.9018H12.9018H12.9017H12.9017H12.9016H12.9016H12.9015H12.9014H12.9014H12.9013H12.9013H12.9012H12.9012H12.9011H12.9011H12.901H12.901H12.9009H12.9009H12.9008H12.9007H12.9007H12.9006H12.9006H12.9005H12.9005H12.9004H12.9003H12.9003H12.9002H12.9002H12.9001H12.9001H12.9H12.8999H12.8998H12.8996H12.8995H12.8994H12.8993H12.8992H12.8991H12.899H12.8988H12.8987H12.8986H12.8985H12.8984H12.8983H12.8982H12.898H12.8979H12.8978H12.8977H12.8976H12.8975H12.8974H12.8973H12.8971H12.897H12.8969H12.8968H12.8967H12.8966H12.8965H12.8964H12.8963H12.8961H12.896H12.8959H12.8958H12.8957H12.8956H12.8955H12.8954H12.8953H12.8952H12.8951H12.8949H12.8948H12.8947H12.8946H12.8945H12.8944H12.8943H12.8942H12.8941H12.894H12.8939H12.8938H12.8937H12.8936H12.8935H12.8933H12.8932H12.8931H12.893H12.8929H12.8928H12.8927H12.8926H12.8925H12.8924H12.8923H12.8922H12.8921H12.892H12.8919H12.8918H12.8917H12.8916H12.8915H12.8914H12.8913H12.8912H12.8911H12.891H12.8909H12.8908H12.8907H12.8906H12.8905H12.8904H12.8903H12.8902H12.8901H12.89H12.8899H12.8898H12.8897H12.8896H12.8895H12.8894H12.8893H12.8892H12.8891H12.889H12.8889H12.8888H12.8887H12.8886H12.8885H12.8884H12.8883H12.8882H12.8881H12.888H12.8879H12.8878H12.8877H12.8876H12.8875H12.8874H12.8873H12.8872H12.8871H12.887H12.8869H12.8868H12.8868H12.8867H12.8866H12.8865H12.8864H12.8863H12.8862H12.8861H12.886H12.8859H12.8858H12.8857H12.8856H12.8855H12.8854H12.8853H12.8852H12.8851H12.8851H12.885H12.8849H12.8848H12.8847H12.8846H12.8845H12.8844H12.8843H12.8842H12.8841H12.884H12.8839H12.8838H12.8838C12.7933 10.9796 12.6992 10.9808 12.6125 10.989C10.2754 10.8911 8.5 9.03575 8.5 6.75Z" fill="#4169E1" stroke="#4169E1"/>
<path d="M7.94868 20.1749L7.94731 20.174C6.78836 19.4013 6.20996 18.4018 6.20996 17.38C6.20996 16.3579 6.78872 15.3485 7.957 14.5662C9.26356 13.7018 11.0018 13.255 12.7625 13.255C14.5238 13.255 16.2567 13.7021 17.5526 14.566C18.708 15.3363 19.2809 16.3356 19.29 17.3621C19.2892 18.3935 18.7103 19.3928 17.5508 20.1752C16.25 21.0484 14.5127 21.5 12.75 21.5C10.987 21.5 9.24957 21.0483 7.94868 20.1749Z" fill="#4169E1" stroke="#4169E1"/>
</svg>
