<svg width="25" height="19" viewBox="0 0 25 19" fill="none" xmlns="http://www.w3.org/2000/svg">
<path d="M23.1647 5.5753C22.3859 3.10848 21.1401 1.77433 19.6296 1.23864C19.1994 1.08604 18.7382 1.05725 18.2816 1.05725H17.5898C16.5987 1.05725 15.6318 1.36476 14.8227 1.93739L14.2558 2.33858C13.8155 2.65019 13.2894 2.81753 12.75 2.81753C12.2106 2.81753 11.6845 2.65019 11.2442 2.3386L10.6773 1.93739C9.86814 1.36476 8.9013 1.05725 7.91004 1.05725H7.21825C6.76171 1.05725 6.30054 1.08604 5.87027 1.23864C3.17898 2.19316 1.32775 5.68265 1.46165 13.5978C1.48863 15.1925 1.86179 16.9551 3.30071 17.6432C3.74911 17.8577 4.27485 17.9999 4.87354 17.9999C5.59193 17.9999 6.16241 17.7952 6.60273 17.5066C7.63499 16.83 8.39142 15.7001 9.48708 15.132C10.1466 14.79 10.8788 14.6114 11.6217 14.6114H13.8782C14.6211 14.6114 15.3533 14.79 16.0129 15.132C17.1085 15.7001 17.865 16.83 18.8972 17.5066C19.3375 17.7952 19.908 17.9999 20.6264 17.9999C21.225 17.9999 21.7508 17.8577 22.1992 17.6432C23.6381 16.9551 24.0113 15.1925 24.0383 13.5978C24.06 12.3163 24.0296 11.1508 23.952 10.0934" stroke="#545454" stroke-width="1.5" stroke-linecap="round"/>
<path d="M7.66717 6.70471V10.0933M5.9729 8.39898H9.36144" stroke="#545454" stroke-width="1.5" stroke-linecap="round"/>
<path d="M20.6565 8.11679C20.6565 8.58463 20.2773 8.96392 19.8094 8.96392C19.3416 8.96392 18.9623 8.58463 18.9623 8.11679C18.9623 7.64893 19.3416 7.26965 19.8094 7.26965C20.2773 7.26965 20.6565 7.64893 20.6565 8.11679Z" fill="#1C274C"/>
<path d="M17.268 8.11679C17.268 8.58463 16.8887 8.96392 16.4209 8.96392C15.953 8.96392 15.5737 8.58463 15.5737 8.11679C15.5737 7.64893 15.953 7.26965 16.4209 7.26965C16.8887 7.26965 17.268 7.64893 17.268 8.11679Z" fill="#1C274C"/>
<path d="M18.1152 5.57581C18.583 5.57581 18.9623 5.95508 18.9623 6.42294C18.9623 6.8908 18.583 7.27008 18.1152 7.27008C17.6474 7.27008 17.2681 6.8908 17.2681 6.42294C17.2681 5.95508 17.6474 5.57581 18.1152 5.57581Z" fill="#1C274C"/>
<path d="M18.1152 8.96399C18.583 8.96399 18.9623 9.34328 18.9623 9.81112C18.9623 10.279 18.583 10.6583 18.1152 10.6583C17.6474 10.6583 17.2681 10.279 17.2681 9.81112C17.2681 9.34328 17.6474 8.96399 18.1152 8.96399Z" fill="#1C274C"/>
</svg>
