<svg width="21" height="16" viewBox="0 0 21 16" fill="none" xmlns="http://www.w3.org/2000/svg">
<path id="Vector" fill-rule="evenodd" clip-rule="evenodd" d="M9.38333 1.78565L8.86881 1.4215C8.13441 0.901779 7.25689 0.622681 6.35722 0.622681H5.72934C5.31498 0.622681 4.89642 0.648812 4.5059 0.787311C2.06326 1.65364 0.38307 4.82074 0.504602 12.0046C0.529083 13.452 0.867773 15.0518 2.17375 15.6763C2.58072 15.871 3.05789 16 3.60126 16C4.25328 16 4.77105 15.8142 5.17069 15.5522C5.58975 15.2776 5.95873 14.9206 6.32757 14.5638C6.78334 14.1228 7.23892 13.682 7.78855 13.397C8.38718 13.0866 9.05169 12.9246 9.72594 12.9246H11.774C12.4482 12.9246 13.1127 13.0866 13.7114 13.397C14.261 13.682 14.7166 14.1228 15.1724 14.5638C15.5412 14.9206 15.9102 15.2776 16.3293 15.5522C16.7289 15.8142 17.2467 16 17.8987 16C18.442 16 18.9192 15.871 19.3262 15.6763C20.6322 15.0518 20.9709 13.452 20.9954 12.0046C21.1169 4.82072 19.4366 1.65364 16.994 0.787311C16.6035 0.648812 16.1849 0.622681 15.7706 0.622681H15.1427C14.2431 0.622681 13.3656 0.901779 12.6312 1.4215L12.1167 1.78563C11.7171 2.06845 11.2396 2.22032 10.75 2.22032C10.2605 2.22032 9.78294 2.06845 9.38333 1.78565ZM15.6195 4.7233C16.0441 4.7233 16.3883 5.06754 16.3883 5.49217C16.3883 5.91679 16.0441 6.26104 15.6195 6.26104C15.1948 6.26104 14.8506 5.91679 14.8506 5.49217C14.8506 5.06754 15.1948 4.7233 15.6195 4.7233ZM6.13677 4.97959C6.5614 4.97959 6.90563 5.32383 6.90563 5.74846V6.51733H7.6745C8.09913 6.51733 8.44337 6.86157 8.44337 7.28619C8.44337 7.71081 8.09913 8.05506 7.6745 8.05506H6.90563V8.82393C6.90563 9.24855 6.5614 9.59279 6.13677 9.59279C5.71214 9.59279 5.3679 9.24855 5.3679 8.82393V8.05506H4.59903C4.1744 8.05506 3.83017 7.71081 3.83017 7.28619C3.83017 6.86157 4.1744 6.51733 4.59903 6.51733H5.3679V5.74846C5.3679 5.32383 5.71214 4.97959 6.13677 4.97959ZM17.9261 7.0299C17.9261 7.45452 17.5818 7.79877 17.1572 7.79877C16.7326 7.79877 16.3883 7.45452 16.3883 7.0299C16.3883 6.60529 16.7326 6.26104 17.1572 6.26104C17.5818 6.26104 17.9261 6.60529 17.9261 7.0299ZM14.0817 7.79877C14.5063 7.79877 14.8506 7.45452 14.8506 7.0299C14.8506 6.60529 14.5063 6.26104 14.0817 6.26104C13.6571 6.26104 13.3129 6.60529 13.3129 7.0299C13.3129 7.45452 13.6571 7.79877 14.0817 7.79877ZM16.3883 8.56764C16.3883 8.14302 16.0441 7.79877 15.6195 7.79877C15.1948 7.79877 14.8506 8.14302 14.8506 8.56764C14.8506 8.99226 15.1948 9.33651 15.6195 9.33651C16.0441 9.33651 16.3883 8.99226 16.3883 8.56764Z" fill="#4169E1"/>
</svg>
