<svg width="25" height="24" viewBox="0 0 25 24" fill="none" xmlns="http://www.w3.org/2000/svg">
<g id="vuesax/bold/ranking">
<g id="ranking">
<path id="Vector" d="M4.25 14.5H6.92C7.19386 14.5 7.42 14.7261 7.42 15V21C7.42 21.2739 7.19386 21.5 6.92 21.5H3.25C2.97614 21.5 2.75 21.2739 2.75 21V16C2.75 15.1761 3.42614 14.5 4.25 14.5Z" fill="#4169E1" stroke="#4169E1"/>
<path id="Vector_2" d="M10.91 10.5H13.58C14.4122 10.5 15.08 11.1745 15.08 12V21C15.08 21.2739 14.8539 21.5 14.58 21.5H9.91C9.63615 21.5 9.41 21.2739 9.41 21V12C9.41 11.1761 10.0861 10.5 10.91 10.5Z" fill="#4169E1" stroke="#4169E1"/>
<path id="Vector_3" d="M17.58 17.5H20.25C21.0738 17.5 21.75 18.1761 21.75 19V21C21.75 21.2739 21.5238 21.5 21.25 21.5H17.58C17.3061 21.5 17.08 21.2739 17.08 21V18C17.08 17.7261 17.3061 17.5 17.58 17.5Z" fill="#4169E1" stroke="#4169E1"/>
<path id="Vector_4" d="M15.26 4.84998C15.57 4.53998 15.69 4.16998 15.59 3.84998C15.49 3.52998 15.18 3.29998 14.74 3.22998L13.78 3.06998C13.74 3.06998 13.65 2.99998 13.63 2.95998L13.1 1.89998C12.7 1.08998 11.79 1.08998 11.39 1.89998L10.86 2.95998C10.85 2.99998 10.76 3.06998 10.72 3.06998L9.76 3.22998C9.32 3.29998 9.02 3.52998 8.91 3.84998C8.81 4.16998 8.93 4.53998 9.24 4.84998L9.98 5.59998C10.02 5.62998 10.05 5.74998 10.04 5.78998L9.83 6.70998C9.67 7.39998 9.93 7.70998 10.1 7.82998C10.27 7.94998 10.64 8.10998 11.25 7.74998L12.15 7.21998C12.19 7.18998 12.32 7.18998 12.36 7.21998L13.25 7.74998C13.53 7.91998 13.76 7.96998 13.94 7.96998C14.15 7.96998 14.3 7.88998 14.39 7.82998C14.56 7.70998 14.82 7.39998 14.66 6.70998L14.45 5.78998C14.44 5.73998 14.47 5.62998 14.51 5.59998L15.26 4.84998Z" fill="#4169E1"/>
</g>
</g>
</svg>
