<svg width="25" height="24" viewBox="0 0 25 24" fill="none" xmlns="http://www.w3.org/2000/svg">
<g id="vuesax/linear/ranking">
<g id="ranking">
<path id="Vector" d="M8.92 14H4.25C3.15 14 2.25 14.9 2.25 16V22H8.92V14Z" stroke="#545454" stroke-width="1.5" stroke-miterlimit="10" stroke-linecap="round" stroke-linejoin="round"/>
<path id="Vector_2" d="M13.58 10H10.91C9.80997 10 8.90997 10.9 8.90997 12V22H15.58V12C15.58 10.9 14.69 10 13.58 10Z" stroke="#545454" stroke-width="1.5" stroke-miterlimit="10" stroke-linecap="round" stroke-linejoin="round"/>
<path id="Vector_3" d="M20.25 17H15.58V22H22.25V19C22.25 17.9 21.35 17 20.25 17Z" stroke="#545454" stroke-width="1.5" stroke-miterlimit="10" stroke-linecap="round" stroke-linejoin="round"/>
<g id="Group">
<path id="Vector_4" d="M12.77 2.07007L13.3 3.13006C13.37 3.28006 13.56 3.42006 13.72 3.44006L14.68 3.60007C15.29 3.70007 15.44 4.15005 15 4.58005L14.25 5.33005C14.12 5.46005 14.05 5.70006 14.09 5.87006L14.3 6.79007C14.47 7.52007 14.08 7.80007 13.44 7.42007L12.54 6.89007C12.38 6.79007 12.11 6.79007 11.95 6.89007L11.05 7.42007C10.41 7.80007 10.02 7.52007 10.19 6.79007L10.4 5.87006C10.44 5.70006 10.37 5.45005 10.24 5.33005L9.49999 4.59006C9.05999 4.15006 9.19999 3.71005 9.81999 3.61005L10.78 3.45007C10.94 3.42007 11.13 3.28007 11.2 3.14007L11.73 2.08005C12.02 1.50005 12.48 1.50007 12.77 2.07007Z" stroke="#545454" stroke-width="1.5" stroke-linecap="round" stroke-linejoin="round"/>
</g>
</g>
</g>
</svg>
