<svg width="36" height="36" viewBox="0 0 36 36" fill="none" xmlns="http://www.w3.org/2000/svg">
<rect x="0.75" y="0.75" width="34.5" height="34.5" rx="5.25" fill="#B0B0B0"/>
<rect x="0.75" y="0.75" width="34.5" height="34.5" rx="5.25" stroke="#B0B0B0" stroke-width="1.5"/>
<path d="M26.6281 22.3963V22.8327C26.6281 23.4561 27.0645 23.4561 27.4385 23.082L30.4933 20.0272C30.8051 19.6532 31.4285 19.6532 31.8026 20.0272L33.1118 21.3364C33.4858 21.6481 33.4858 22.2716 33.1118 22.6456L25.0695 30.6879C24.7578 30.9996 24.259 30.9996 23.9473 30.6879L15.8427 22.5833C15.531 22.2092 15.531 21.7728 15.905 21.3988L17.2766 20.0272C17.6506 19.6532 18.2117 19.5908 18.5858 19.9649L21.6406 23.0197C22.077 23.4561 22.4511 23.5808 22.7004 23.082C22.7628 22.895 22.7628 22.3963 22.7628 22.3963V17.8452C22.7628 13.4188 19.2092 9.86528 14.7829 9.86528C10.3565 9.86528 6.80293 13.3565 6.80293 17.7829V26.0745C6.80293 26.5732 6.36653 26.9473 5.86779 26.9473H3.8728C3.37406 26.9473 3 26.6356 3 26.1368V17.7829C3 11.2992 8.23683 6 14.7829 6C21.3289 6 26.5657 11.2992 26.5657 17.7829L26.6281 22.3963Z" fill="white"/>
</svg>
