<svg width="25" height="24" viewBox="0 0 25 24" fill="none" xmlns="http://www.w3.org/2000/svg">
<rect x="0.5" width="24" height="24" rx="4" fill="#4169E1"/>
<path d="M18.252 14.9308V15.2218C18.252 15.6374 18.543 15.6374 18.7924 15.388L20.8289 13.3515C21.0367 13.1021 21.4523 13.1021 21.7017 13.3515L22.5745 14.2243C22.8239 14.4321 22.8239 14.8477 22.5745 15.0971L17.213 20.4586C17.0052 20.6664 16.6727 20.6664 16.4649 20.4586L11.0618 15.0555C10.854 14.8062 10.854 14.5152 11.1034 14.2658L12.0177 13.3515C12.2671 13.1021 12.6412 13.0605 12.8905 13.3099L14.9271 15.3465C15.218 15.6374 15.4674 15.7205 15.6336 15.388C15.6752 15.2633 15.6752 14.9308 15.6752 14.9308V11.8968C15.6752 8.94589 13.3062 6.57685 10.3552 6.57685C7.40433 6.57685 5.03529 8.90433 5.03529 11.8552V17.383C5.03529 17.7155 4.74435 17.9649 4.41186 17.9649H3.08187C2.74937 17.9649 2.5 17.7571 2.5 17.4246V11.8552C2.5 7.53278 5.99122 4 10.3552 4C14.7193 4 18.2105 7.53278 18.2105 11.8552L18.252 14.9308Z" fill="white"/>
</svg>
