<svg width="24" height="24" viewBox="0 0 24 24" fill="none" xmlns="http://www.w3.org/2000/svg">
<g clip-path="url(#clip0_2563_4060)">
<path fill-rule="evenodd" clip-rule="evenodd" d="M21.84 6.05605C21.8836 5.79137 21.8555 5.51983 21.7585 5.26973C21.6615 5.01963 21.4992 4.80012 21.2885 4.63406C21.0778 4.46801 20.8264 4.3615 20.5606 4.32561C20.2948 4.28973 20.0242 4.3258 19.777 4.43005L2.677 11.6301C1.485 12.1321 1.424 13.8561 2.677 14.3761C3.91771 14.8935 5.17652 15.3665 6.451 15.7941C7.619 16.1801 8.893 16.5371 9.914 16.6381C10.193 16.9721 10.544 17.2941 10.902 17.5881C11.449 18.0381 12.107 18.5011 12.787 18.9451C14.149 19.8351 15.66 20.6861 16.678 21.2401C17.895 21.9001 19.352 21.1401 19.57 19.8131L21.84 6.05605ZM4.594 12.9931L19.718 6.62505L17.6 19.4651C16.601 18.9221 15.162 18.1091 13.88 17.2711C13.2891 16.8917 12.7187 16.4815 12.171 16.0421C12.0246 15.9225 11.8825 15.7977 11.745 15.6681L15.706 11.7081C15.8936 11.5205 15.9991 11.2662 15.9992 11.0009C15.9993 10.7356 15.894 10.4812 15.7065 10.2936C15.519 10.1059 15.2646 10.0004 14.9994 10.0003C14.7341 10.0003 14.4796 10.1055 14.292 10.2931L9.955 14.6301C9.221 14.5361 8.199 14.2641 7.077 13.8941C6.24169 13.6158 5.41406 13.315 4.595 12.9921" fill="#00C4D0"/>
</g>
<defs>
<clipPath id="clip0_2563_4060">
<rect width="24" height="24" fill="white"/>
</clipPath>
</defs>
</svg>
