<svg width="25" height="24" viewBox="0 0 25 24" fill="none" xmlns="http://www.w3.org/2000/svg">
<path d="M12.37 2.14984L21.37 5.74982C21.72 5.88982 22 6.30981 22 6.67981V9.99982C22 10.5498 21.55 10.9998 21 10.9998H3C2.45 10.9998 2 10.5498 2 9.99982V6.67981C2 6.30981 2.28 5.88982 2.63 5.74982L11.63 2.14984C11.83 2.06984 12.17 2.06984 12.37 2.14984Z" stroke="#212121" stroke-width="1.5" stroke-miterlimit="10" stroke-linecap="round" stroke-linejoin="round"/>
<path d="M22 22H2V19C2 18.45 2.45 18 3 18H21C21.55 18 22 18.45 22 19V22Z" stroke="#212121" stroke-width="1.5" stroke-miterlimit="10" stroke-linecap="round" stroke-linejoin="round"/>
<path d="M4 18V11" stroke="#212121" stroke-width="1.5" stroke-miterlimit="10" stroke-linecap="round" stroke-linejoin="round"/>
<path d="M8 18V11" stroke="#212121" stroke-width="1.5" stroke-miterlimit="10" stroke-linecap="round" stroke-linejoin="round"/>
<path d="M12 18V11" stroke="#212121" stroke-width="1.5" stroke-miterlimit="10" stroke-linecap="round" stroke-linejoin="round"/>
<path d="M16 18V11" stroke="#212121" stroke-width="1.5" stroke-miterlimit="10" stroke-linecap="round" stroke-linejoin="round"/>
<path d="M20 18V11" stroke="#212121" stroke-width="1.5" stroke-miterlimit="10" stroke-linecap="round" stroke-linejoin="round"/>
<path d="M1 22H23" stroke="#212121" stroke-width="1.5" stroke-miterlimit="10" stroke-linecap="round" stroke-linejoin="round"/>
<path d="M12 8.5C12.8284 8.5 13.5 7.82843 13.5 7C13.5 6.17157 12.8284 5.5 12 5.5C11.1716 5.5 10.5 6.17157 10.5 7C10.5 7.82843 11.1716 8.5 12 8.5Z" stroke="#212121" stroke-width="1.5" stroke-miterlimit="10" stroke-linecap="round" stroke-linejoin="round"/>
<circle cx="18.5" cy="17.5" r="5.5" fill="#212121"/>
<path d="M13.3543 17.4997C13.3543 14.6593 15.6597 12.3538 18.5002 12.3538C21.3406 12.3538 23.646 14.6593 23.646 17.4997C23.646 20.3401 21.3406 22.6455 18.5002 22.6455C15.6597 22.6455 13.3543 20.3401 13.3543 17.4997ZM19.2496 19.6033L20.8746 17.9783C21.1374 17.7154 21.1374 17.2839 20.8746 17.0211L19.2496 15.3961C18.9867 15.1332 18.5553 15.1332 18.2924 15.3961C18.0296 15.6589 18.0296 16.0904 18.2924 16.3533L18.7617 16.8226H16.6043C16.2327 16.8226 15.9272 17.128 15.9272 17.4997C15.9272 17.8713 16.2327 18.1768 16.6043 18.1768H18.7617L18.2924 18.6461C18.0296 18.9089 18.0296 19.3404 18.2924 19.6033C18.4271 19.738 18.6001 19.8018 18.771 19.8018C18.9419 19.8018 19.1149 19.738 19.2496 19.6033Z" fill="white" stroke="white" stroke-width="0.541667"/>
</svg>
