<svg width="44" height="45" viewBox="0 0 44 45" fill="none" xmlns="http://www.w3.org/2000/svg">
<path d="M38.5 11.4633C32.395 10.8583 26.2533 10.5466 20.13 10.5466C16.5 10.5466 12.87 10.73 9.24 11.0966L5.5 11.4633" stroke="#FF4D4D" stroke-width="2.75" stroke-linecap="round" stroke-linejoin="round"/>
<path d="M15.5835 9.61163L15.9868 7.20996C16.2802 5.46829 16.5002 4.16663 19.5985 4.16663H24.4018C27.5002 4.16663 27.7385 5.54163 28.0135 7.22829L28.4168 9.61163" stroke="#FF4D4D" stroke-width="2.75" stroke-linecap="round" stroke-linejoin="round"/>
<path d="M34.5581 17.2567L33.3664 35.7184C33.1647 38.5967 32.9997 40.8334 27.8847 40.8334H16.1147C10.9997 40.8334 10.8347 38.5967 10.6331 35.7184L9.44141 17.2567" stroke="#FF4D4D" stroke-width="2.75" stroke-linecap="round" stroke-linejoin="round"/>
<path d="M18.9385 30.75H25.0435" stroke="#FF4D4D" stroke-width="2.75" stroke-linecap="round" stroke-linejoin="round"/>
<path d="M17.4165 23.4166H26.5832" stroke="#FF4D4D" stroke-width="2.75" stroke-linecap="round" stroke-linejoin="round"/>
</svg>
