<svg width="24" height="25" viewBox="0 0 24 25" fill="none" xmlns="http://www.w3.org/2000/svg">
<path d="M12 12.25C14.7614 12.25 17 10.0114 17 7.25C17 4.48858 14.7614 2.25 12 2.25C9.23858 2.25 7 4.48858 7 7.25C7 10.0114 9.23858 12.25 12 12.25Z" stroke="#EF9B00" stroke-width="1.5" stroke-linecap="round" stroke-linejoin="round"/>
<path d="M3.41003 22.25C3.41003 18.38 7.26003 15.25 12 15.25C12.96 15.25 13.89 15.38 14.76 15.62" stroke="#EF9B00" stroke-width="1.5" stroke-linecap="round" stroke-linejoin="round"/>
<path d="M22 18.25C22 18.57 21.96 18.88 21.88 19.18C21.79 19.58 21.63 19.97 21.42 20.31C20.73 21.47 19.46 22.25 18 22.25C16.97 22.25 16.04 21.86 15.34 21.22C15.04 20.96 14.78 20.65 14.58 20.31C14.21 19.71 14 19 14 18.25C14 17.17 14.43 16.18 15.13 15.46C15.86 14.71 16.88 14.25 18 14.25C19.18 14.25 20.25 14.76 20.97 15.58C21.61 16.29 22 17.23 22 18.25Z" stroke="#EF9B00" stroke-width="1.5" stroke-miterlimit="10" stroke-linecap="round" stroke-linejoin="round"/>
<path d="M19.49 18.23H16.51" stroke="#4169E1" stroke-width="1.5" stroke-miterlimit="10" stroke-linecap="round" stroke-linejoin="round"/>
<path d="M18 16.77V19.76" stroke="#4169E1" stroke-width="1.5" stroke-miterlimit="10" stroke-linecap="round" stroke-linejoin="round"/>
</svg>
