<svg width="24" height="20" viewBox="0 0 24 20" fill="none" xmlns="http://www.w3.org/2000/svg">
<path d="M7.73281 5.72279L7.16949 6.68299L4.95463 5.40272C4.801 5.30884 4.66444 5.21495 4.54495 5.12107C4.42546 5.02718 4.31877 4.90769 4.22488 4.76259C4.36144 5.04425 4.42972 5.35578 4.42972 5.69719V8.23211H3.30309V5.70999C3.30309 5.53929 3.31162 5.38139 3.32869 5.23629C3.3543 5.09119 3.40124 4.95036 3.46952 4.8138C3.37564 4.93329 3.27322 5.03998 3.16226 5.13387C3.0513 5.22776 2.92328 5.31737 2.77818 5.40272L0.57612 6.67019L0.0128027 5.70999L2.21486 4.42972C2.5392 4.23341 2.86353 4.13099 3.18786 4.12246C3.01716 4.10539 2.85073 4.07551 2.68856 4.03284C2.53493 3.98163 2.37703 3.90481 2.21486 3.80239L0 2.50932L0.563317 1.54912L2.77818 2.82939C2.93181 2.92328 3.06837 3.02143 3.18786 3.12385C3.30736 3.22627 3.41404 3.35003 3.50793 3.49513C3.37137 3.1964 3.30309 2.87633 3.30309 2.53493V0H4.42972V2.52213C4.42972 2.69283 4.41692 2.85499 4.39131 3.00863C4.37424 3.15372 4.33157 3.29455 4.26329 3.43111C4.35717 3.31162 4.4596 3.20493 4.57055 3.11105C4.68151 3.01716 4.80954 2.92328 4.95463 2.82939L7.15669 1.56193L7.72001 2.52213L5.51795 3.80239C5.37285 3.89628 5.22776 3.96883 5.08266 4.02004C4.93756 4.07125 4.78393 4.10539 4.62176 4.12246C4.78393 4.13953 4.93756 4.17367 5.08266 4.22488C5.22776 4.26756 5.37285 4.33584 5.51795 4.42972L7.73281 5.72279Z" fill="#EF9B00"/>
<path d="M19.1606 8.01447H15.9983L15.1662 12.1881H18.3284L19.1606 8.01447ZM24 6.33732L23.8336 7.29752C23.7909 7.54504 23.6885 7.72854 23.5263 7.84803C23.3727 7.95899 23.1337 8.01447 22.8094 8.01447H21.0426L20.2104 12.1881H22.5021C22.7496 12.1881 22.9246 12.2607 23.027 12.4058C23.138 12.5423 23.1678 12.7856 23.1166 13.1355L23.0014 13.8653H19.9672L18.8917 19.2808H17.8547C17.7438 19.2808 17.6413 19.2552 17.5475 19.204C17.4536 19.1528 17.3725 19.0845 17.3042 18.9992C17.2445 18.9138 17.2018 18.8114 17.1762 18.6919C17.1506 18.5724 17.1506 18.4401 17.1762 18.295L18.0852 13.8653H14.9229L14.0139 18.4102C13.9627 18.726 13.839 18.9522 13.6426 19.0888C13.4463 19.2168 13.2244 19.2808 12.9769 19.2808H11.9527L13.0409 13.8653H11.1717C10.9327 13.8653 10.7578 13.797 10.6468 13.6604C10.5444 13.5153 10.5188 13.2678 10.57 12.9179L10.6724 12.1881H13.2842L14.1163 8.01447H11.1461L11.3126 7.06707C11.3552 6.81955 11.4534 6.63605 11.607 6.51656C11.7692 6.39707 12.0124 6.33732 12.3368 6.33732H14.3596L15.2814 1.75396C15.3326 1.49791 15.4478 1.29734 15.6271 1.15224C15.8148 1.00714 16.0367 0.934594 16.2928 0.934594H17.317L16.2416 6.33732H19.4038L20.4793 0.934594H21.4907C21.7382 0.934594 21.9302 1.01568 22.0668 1.17785C22.2119 1.34001 22.2631 1.54485 22.2204 1.79237L21.2858 6.33732H24Z" fill="#EF9B00"/>
</svg>
