<svg width="60" height="60" viewBox="0 0 60 60" fill="none" xmlns="http://www.w3.org/2000/svg">
<path d="M14.0657 13.5005C11.4838 17.6386 10.865 22.7892 12.2975 27.4374" stroke="#91888C" stroke-width="2"/>
<path d="M12.2973 27.4375C7.09981 27.2088 8.32418 35.9538 14.0261 34.6619C14.0693 34.6522 14.1146 34.6574 14.1544 34.6764C14.1942 34.6955 14.2263 34.7274 14.2454 34.7669C16.6792 39.7731 20.6279 42.3231 25.8761 43.6375" stroke="#CBABA0" stroke-width="2"/>
<path d="M25.8762 43.6372L25.2969 43.8509" stroke="#BEA195" stroke-width="2"/>
<path d="M25.2969 43.8511L23.9844 44.2729" stroke="#C4A49B" stroke-width="2"/>
<path d="M23.9843 44.2729C21.1643 44.7167 18.5074 45.6886 16.0137 47.1886" stroke="#FFD28F" stroke-width="2"/>
<path d="M16.0137 47.1885L15.0537 47.6535C15.031 47.6645 15.0113 47.6806 14.9959 47.7005C14.9805 47.7205 14.9699 47.7437 14.965 47.7684C14.9601 47.7931 14.961 47.8186 14.9676 47.8429C14.9742 47.8672 14.9863 47.8896 15.0031 47.9085C23.2774 57.2347 37.1712 57.3641 45.7456 48.3397C45.7881 48.2947 45.7837 48.2547 45.7324 48.2197C45.1112 47.7985 44.4749 47.526 43.8237 47.4022" stroke="#E8EEEE" stroke-width="2"/>
<path d="M43.8237 47.4021C41.2662 45.8246 38.5587 44.7684 35.7012 44.2334" stroke="#FFD28F" stroke-width="2"/>
<path d="M35.7012 44.2335L33.9331 43.5454" stroke="#BEA195" stroke-width="2"/>
<path d="M33.9331 43.5456C39.17 42.4862 43.4994 39.5988 45.6781 34.6263C45.7031 34.57 45.7462 34.5475 45.8075 34.5588C51.7081 35.725 52.4281 27.115 47.6019 27.3606" stroke="#C4A49B" stroke-width="2"/>
<path d="M47.6016 27.3605C49.7785 19.1292 46.2516 11.1267 38.8491 7.07861" stroke="#91888C" stroke-width="2"/>
<path d="M38.8492 7.07864C30.2204 2.54301 19.3304 5.16614 14.0654 13.5005" stroke="#978D91" stroke-width="2"/>
<path d="M38.8492 7.07861C38.7542 7.20986 38.7548 7.31736 38.851 7.40111C38.8684 7.41671 38.8818 7.43618 38.8902 7.45794C38.8986 7.47971 38.9018 7.50316 38.8994 7.52637C38.897 7.54958 38.8892 7.5719 38.8766 7.59151C38.8639 7.61113 38.8468 7.62748 38.8267 7.63924C37.6192 8.33674 36.3879 8.87424 35.1329 9.25174C32.6579 9.99549 30.1617 10.6574 27.6442 11.2374C24.1867 12.0324 21.4773 12.7786 18.0461 13.823C17.1286 14.103 16.0923 14.248 14.9373 14.258C14.3936 14.2636 14.0973 14.0461 14.0654 13.5005" stroke="#29171F" stroke-width="2"/>
<path d="M47.6017 27.3604C47.3304 28.0929 47.1198 28.7647 46.9698 29.376C46.7311 30.3472 46.6173 30.3372 46.6286 29.346C46.6323 29.0172 46.5904 28.5891 46.5029 28.0616" stroke="#562F29" stroke-width="2"/>
<path d="M46.5028 28.0616C46.1465 22.9391 44.3415 18.4697 41.0878 14.6535C40.1784 13.5885 39.539 13.5078 38.1871 13.5041C35.4196 13.4966 32.6753 13.7178 29.954 14.1678C25.5778 14.8935 21.2953 15.7766 17.054 17.0985C16.6953 17.2097 16.4103 17.4653 16.199 17.8653C14.3165 21.4316 13.3696 25.1716 13.3584 29.0853" stroke="#512B23" stroke-width="2"/>
<path d="M13.3586 29.0856L13.3286 30.0531C13.3236 30.1969 13.2967 30.2013 13.248 30.0663L12.2974 27.4375" stroke="#5E352E" stroke-width="2"/>
<path d="M46.5028 28.0618C46.0503 26.9968 45.6147 25.9418 45.1959 24.8968C43.8609 21.5574 41.3972 16.5099 37.4859 15.668C35.1547 15.1655 32.624 15.013 29.894 15.2105" stroke="#844831" stroke-width="2"/>
<path d="M29.894 15.2104C26.6415 15.3942 23.4684 15.8567 20.3747 16.5979C18.4959 17.0479 17.519 17.7267 16.619 19.3636C15.4153 21.5517 14.6934 23.2786 14.0971 25.8061C13.8409 26.8948 13.5946 27.9879 13.3584 29.0854" stroke="#8B4E36" stroke-width="2"/>
<path d="M25.0155 35.6948C24.998 35.7786 25.0148 35.8505 25.0661 35.9105" stroke="#CBABA0" stroke-width="2"/>
<path d="M25.7129 39.5801C26.8404 40.8701 28.2798 41.4813 30.031 41.4138" stroke="#B76051" stroke-width="2"/>
<path d="M30.031 44.0928C28.6185 44.1303 27.2335 43.9785 25.876 43.6372" stroke="#8B4E36" stroke-width="2"/>
<path d="M33.9331 43.5454C32.6669 43.9092 31.3663 44.0917 30.0312 44.0929" stroke="#844831" stroke-width="2"/>
<path d="M30.0312 44.093V41.4136" stroke="#91523C" stroke-width="2"/>
<path d="M30.031 41.4138C31.2435 41.2913 32.3123 40.8794 33.2373 40.1782C33.2731 40.1507 33.3029 40.116 33.3245 40.0764C33.3462 40.0368 33.3593 39.9931 33.363 39.9482C33.3667 39.9033 33.3609 39.8582 33.3461 39.8157C33.3312 39.7733 33.3075 39.7345 33.2766 39.7019C31.321 37.6375 27.676 37.0788 25.7129 39.58" stroke="#AF5A4C" stroke-width="2"/>
<path d="M25.7128 39.58C24.8941 38.7175 24.4716 37.6306 24.4453 36.3194C24.4447 36.2699 24.4594 36.2214 24.4874 36.1806C24.5154 36.1397 24.5553 36.1085 24.6017 36.0913C24.6481 36.074 24.6987 36.0716 24.7466 36.0842C24.7945 36.0968 24.8372 36.124 24.8691 36.1619C24.9441 36.2519 25.0285 36.3 25.1222 36.3063C25.1287 36.307 25.1352 36.3055 25.1406 36.3019C25.1461 36.2984 25.1502 36.2931 25.1521 36.2869C25.1541 36.2807 25.1539 36.2741 25.1515 36.268C25.1492 36.262 25.1448 36.2569 25.1391 36.2538L24.9516 36.1263C24.8891 36.085 24.8828 36.0363 24.9328 35.98C24.9666 35.9413 25.011 35.9181 25.066 35.9106" stroke="#91523C" stroke-width="2"/>
<path d="M25.0662 35.9105C26.1969 37.1967 28.8744 37.3505 30.4381 37.2961C31.7594 37.2486 33.0681 36.8955 34.3644 36.2367C34.4017 36.2174 34.4323 36.1874 34.4524 36.1506C34.4724 36.1137 34.481 36.0717 34.477 36.03C34.4729 35.9882 34.4565 35.9486 34.4297 35.9162C34.403 35.8839 34.3671 35.8603 34.3269 35.8486C34.1919 35.8098 34.0056 35.808 33.7681 35.843C30.8419 36.283 27.9244 36.2336 25.0156 35.6948" stroke="#C4A49B" stroke-width="2"/>
<path d="M25.0156 35.6948C24.9306 35.6986 24.9056 35.6398 24.9406 35.5186C24.9479 35.4942 24.96 35.4716 24.9761 35.452C24.9922 35.4325 25.0121 35.4163 25.0345 35.4046C25.0569 35.3929 25.0813 35.3858 25.1065 35.3838C25.1316 35.3818 25.1568 35.3849 25.1806 35.3929L25.7919 35.5992C25.8236 35.6099 25.8577 35.6111 25.8903 35.6028C25.9229 35.5945 25.9525 35.577 25.9756 35.5523C26.2369 35.2736 26.5387 35.2211 26.8812 35.3948C26.94 35.4248 27.0025 35.4386 27.0687 35.4361C27.9406 35.4117 28.9756 35.5542 29.7856 35.2148C29.8052 35.2065 29.8225 35.1936 29.8361 35.1773C29.8497 35.1609 29.8591 35.1415 29.8635 35.1209C29.8679 35.1002 29.8673 35.0788 29.8615 35.0586C29.8558 35.0384 29.8452 35.0199 29.8306 35.0048C29.5325 34.6917 29.6469 34.3523 29.4575 34.0598C29.2156 33.6886 28.8444 33.4523 28.9812 32.9142C29.0012 32.8392 29.0269 32.8367 29.0581 32.9067C29.5794 34.0392 30.8937 34.0917 31.5519 33.0192C31.5819 32.9705 31.5944 32.9173 31.5894 32.8598C31.5162 32.0761 30.5056 31.7236 30.0125 31.193C29.9342 31.1085 29.8907 30.998 29.8906 30.8836L29.8944 15.2104" stroke="#91523C" stroke-width="2"/>
<path d="M35.7009 44.2334L35.5547 44.5465" stroke="#BF7525" stroke-width="2"/>
<path d="M35.555 44.5467C35.2363 44.648 35.3075 44.183 34.8875 44.1173C34.8225 44.1086 34.7863 44.1367 34.7788 44.2017L34.7412 44.5148C34.7325 44.5848 34.6956 44.6336 34.6306 44.6611C31.7619 45.8892 28.5894 45.9867 25.9044 44.2073C25.7156 44.0811 25.5131 43.9623 25.2969 43.8511" stroke="#844831" stroke-width="2"/>
<path d="M35.555 44.5467C34.3925 47.4286 31.355 48.3923 28.4825 47.8205C26.4687 47.4205 24.9694 46.2379 23.9844 44.2729" stroke="#C4792B" stroke-width="2"/>
<path d="M43.8237 47.4022C35.9993 53.7603 23.7462 53.4829 16.0137 47.1885" stroke="#E8C27F" stroke-width="2"/>
<path d="M37.5871 20.6479C35.8734 20.1361 35.3896 22.6598 37.0153 22.8773C38.4928 23.0748 39.969 23.3861 41.444 23.8111C41.5025 23.8281 41.5639 23.8322 41.6242 23.8231C41.6844 23.814 41.7419 23.792 41.7927 23.7584C41.8436 23.7249 41.8865 23.6807 41.9185 23.6289C41.9506 23.5772 41.971 23.519 41.9784 23.4586C41.9784 23.4492 41.7271 23.0067 41.6615 22.9467C40.484 21.8729 39.1259 21.1067 37.5871 20.6479Z" stroke="#45261C" stroke-width="2"/>
<path d="M35.3018 29.9688C35.913 33.3569 39.9986 33.3156 41.5868 30.6756" stroke="#C4A49B" stroke-width="2"/>
<path d="M41.5868 30.6757C41.8118 30.3945 42.0243 30.0901 42.2243 29.7626C42.3499 29.5582 42.3574 29.382 42.3799 29.1476C42.3837 29.1147 42.3994 29.0843 42.424 29.0624C42.4486 29.0406 42.4804 29.0288 42.513 29.0295C42.6168 29.032 42.7187 29.0313 42.8187 29.0276C42.8962 29.0238 42.9387 28.9838 42.9462 28.9076L42.978 28.572C42.9799 28.5532 42.9772 28.5343 42.9701 28.5168C42.9631 28.4993 42.9519 28.4838 42.9375 28.4716C42.9231 28.4594 42.9059 28.451 42.8875 28.4469C42.8691 28.4428 42.85 28.4433 42.8318 28.4482L42.3855 28.5682C42.313 28.587 42.2749 28.5588 42.2712 28.4838L42.2637 28.3226C42.2612 28.2726 42.2455 28.227 42.2168 28.1857C41.148 26.6051 38.973 25.0826 37.0605 25.9226C35.4912 26.6126 34.9024 28.3395 35.3018 29.9688" stroke="#45261C" stroke-width="2"/>
<path d="M41.5869 30.6756C42.0194 29.1519 41.5856 27.9969 40.2856 27.2106C40.2031 27.1606 40.1844 27.1788 40.2294 27.265L40.4919 27.7656" stroke="#807F7F" stroke-width="2"/>
<path d="M40.4917 27.7657C40.4979 27.8319 40.4842 27.8826 40.4505 27.9176C40.4067 27.9651 40.3636 27.9644 40.3211 27.9157C40.1748 27.7469 39.4717 26.8338 39.3311 26.8057C39.3 26.7996 39.2678 26.803 39.2387 26.8155C39.2095 26.828 39.1849 26.8489 39.1678 26.8757C39.1508 26.9024 39.1423 26.9336 39.1433 26.9653C39.1443 26.997 39.1549 27.0276 39.1736 27.0532C41.1836 29.7851 37.0605 32.1944 36.303 28.8382C36.2966 28.8086 36.2789 28.7828 36.2536 28.7663C36.2283 28.7498 36.1975 28.7439 36.1679 28.7501L35.9448 28.7969" stroke="#371B11" stroke-width="2"/>
<path d="M35.9449 28.7969L36.0574 27.9456C36.0608 27.9242 36.0559 27.9025 36.0436 27.8849C36.0314 27.8673 36.0127 27.8551 35.9915 27.8508C35.9702 27.8465 35.948 27.8504 35.9292 27.8618C35.9105 27.8731 35.8966 27.891 35.8905 27.9119L35.3018 29.9687" stroke="#807F7F" stroke-width="2"/>
<path d="M40.4918 27.7656C40.9018 29.1269 40.6312 30.2369 39.6799 31.0956C39.1812 31.5456 38.2943 31.8325 37.6868 31.6469C36.2956 31.2194 35.7149 30.2694 35.9449 28.7969" stroke="#B69990" stroke-width="2"/>
<path d="M42.9553 34.7034C42.9642 34.5534 42.9182 34.4017 42.8198 34.2568C42.7215 34.112 42.5727 33.9769 42.3821 33.8591C42.1915 33.7414 41.9627 33.6434 41.7088 33.5708C41.4549 33.4981 41.1809 33.4522 40.9025 33.4356C40.624 33.4191 40.3465 33.4322 40.0858 33.4743C39.8251 33.5164 39.5863 33.5866 39.3831 33.681C39.1798 33.7753 39.0162 33.8919 38.9013 34.0241C38.7865 34.1563 38.7229 34.3015 38.714 34.4514C38.7051 34.6013 38.7511 34.7531 38.8495 34.8979C38.9478 35.0428 39.0965 35.1779 39.2871 35.2956C39.4778 35.4133 39.7065 35.5113 39.9604 35.584C40.2143 35.6567 40.4883 35.7026 40.7668 35.7191C41.0453 35.7357 41.3228 35.7225 41.5835 35.6804C41.8442 35.6383 42.083 35.5681 42.2862 35.4738C42.4894 35.3795 42.6531 35.2629 42.7679 35.1307C42.8827 34.9985 42.9464 34.8533 42.9553 34.7034Z" stroke="#A55044" stroke-width="2"/>
<path d="M18.0011 23.8242C18.1998 23.8317 18.4136 23.8017 18.6423 23.7342C19.7061 23.4217 20.8298 23.1836 22.0136 23.0198C22.6248 22.9361 23.0205 22.8336 23.2005 22.7123C24.0367 22.148 23.6448 20.3236 22.4392 20.5898C21.7511 20.7417 17.3298 22.5492 17.853 23.723C17.8659 23.7523 17.8867 23.7773 17.9129 23.7952C17.9391 23.8131 17.9697 23.8232 18.0011 23.8242Z" stroke="#4D2D21" stroke-width="2"/>
<path d="M18.3159 30.5368C18.7259 31.4318 19.3734 32.0493 20.2584 32.3893C22.2609 33.1562 24.4997 31.9581 24.6234 29.71" stroke="#CBABA0" stroke-width="2"/>
<path d="M24.6237 29.7099C25.2162 24.5311 19.0419 24.8255 17.6019 28.5493C17.5769 28.6143 17.5412 28.6211 17.495 28.5699C17.365 28.4224 17.2131 28.3993 17.0394 28.5005C16.9806 28.5343 16.9462 28.5849 16.9362 28.6524C16.8669 29.0761 17.2906 29.3761 17.63 29.5374C17.6577 29.5507 17.6816 29.5709 17.6997 29.5961C17.7177 29.6213 17.7292 29.6508 17.7331 29.6818C17.7956 30.1755 17.99 30.4605 18.3162 30.5368" stroke="#4D2D21" stroke-width="2"/>
<path d="M24.6234 29.7097L24.0628 28.0747C24.0586 28.0617 24.0512 28.0499 24.0414 28.0404C24.0316 28.0309 24.0197 28.0239 24.0066 28.0201C23.9935 28.0162 23.9797 28.0156 23.9663 28.0182C23.9529 28.0209 23.9403 28.0267 23.9297 28.0353C23.8678 28.084 24.0291 28.8622 24.0234 29.0309" stroke="#807F7F" stroke-width="2"/>
<path d="M24.0233 29.0312C23.7883 29.0687 23.6496 29.1618 23.6071 29.3105C23.0708 31.1818 20.6239 30.8349 20.2039 29.1099C19.9208 27.9437 20.7008 27.3605 21.4452 26.6743C21.5189 26.6068 21.5058 26.5699 21.4058 26.5637C20.9277 26.5337 20.2958 26.9218 19.8252 27.0587" stroke="#371B11" stroke-width="2"/>
<path d="M19.8255 27.0586C18.4467 27.8186 17.9436 28.978 18.3161 30.5367" stroke="#807F7F" stroke-width="2"/>
<path d="M24.0235 29.0311C24.1941 32.1061 20.3728 32.8073 19.3941 29.8992C19.0691 28.9342 19.2129 27.9873 19.8254 27.0586" stroke="#B69990" stroke-width="2"/>
<path d="M10.3659 30.2483C10.8066 29.5433 11.7122 28.9883 12.5709 29.3202C12.6397 29.3464 12.6653 29.3239 12.6478 29.2527L12.5972 29.0502C12.5872 29.0127 12.5628 28.9958 12.5241 28.9995C11.5903 29.1083 10.8103 29.2864 10.3322 30.2277C10.3299 30.2324 10.3294 30.238 10.331 30.2433C10.3325 30.2486 10.3359 30.2531 10.3404 30.2559C10.3448 30.2586 10.35 30.2593 10.3548 30.2579C10.3596 30.2565 10.3636 30.253 10.3659 30.2483Z" stroke="#8B4E36" stroke-width="2"/>
<path d="M20.7025 34.5082C20.7066 34.2134 20.4961 33.9276 20.1171 33.7138C19.7382 33.4999 19.222 33.3756 18.682 33.368C18.142 33.3605 17.6225 33.4704 17.2378 33.6736C16.853 33.8767 16.6345 34.1565 16.6304 34.4514C16.6263 34.7462 16.8369 35.032 17.2158 35.2458C17.5947 35.4597 18.111 35.584 18.6509 35.5916C19.1909 35.5991 19.7105 35.4892 20.0952 35.286C20.4799 35.0829 20.6984 34.8031 20.7025 34.5082Z" stroke="#AD5749" stroke-width="2"/>
<path d="M37.6538 26.962C37.6095 26.8933 37.5504 26.8351 37.4799 26.7907C37.4093 26.7463 37.3287 26.7166 37.2427 26.7033C37.1566 26.69 37.0668 26.6933 36.9784 26.7131C36.8899 26.7329 36.8045 26.7688 36.7271 26.8187C36.6497 26.8686 36.5818 26.9315 36.5272 27.0039C36.4726 27.0763 36.4325 27.1567 36.4091 27.2405C36.3857 27.3244 36.3794 27.4101 36.3907 27.4926C36.402 27.5752 36.4306 27.6531 36.4749 27.7218C36.5192 27.7905 36.5783 27.8487 36.6488 27.8931C36.7193 27.9375 36.7999 27.9672 36.886 27.9805C36.972 27.9938 37.0619 27.9905 37.1503 27.9707C37.2388 27.9509 37.3241 27.9151 37.4016 27.8652C37.479 27.8153 37.5469 27.7524 37.6015 27.68C37.656 27.6076 37.6962 27.5272 37.7196 27.4433C37.743 27.3594 37.7493 27.2738 37.738 27.1912C37.7267 27.1086 37.6981 27.0308 37.6538 26.962Z" stroke="#807F7F" stroke-width="2"/>
<path d="M23.4274 27.4559C23.4274 27.3692 23.4104 27.2834 23.3772 27.2033C23.344 27.1233 23.2954 27.0505 23.2341 26.9892C23.1728 26.9279 23.1001 26.8793 23.02 26.8461C22.9399 26.813 22.8541 26.7959 22.7674 26.7959C22.6808 26.7959 22.5949 26.813 22.5149 26.8461C22.4348 26.8793 22.362 26.9279 22.3007 26.9892C22.2394 27.0505 22.1908 27.1233 22.1577 27.2033C22.1245 27.2834 22.1074 27.3692 22.1074 27.4559C22.1074 27.6309 22.177 27.7988 22.3007 27.9226C22.4245 28.0464 22.5924 28.1159 22.7674 28.1159C22.9425 28.1159 23.1103 28.0464 23.2341 27.9226C23.3579 27.7988 23.4274 27.6309 23.4274 27.4559Z" stroke="#807F7F" stroke-width="2"/>
<path d="M38.8492 7.07864C38.7542 7.20989 38.7548 7.31739 38.851 7.40114C38.8684 7.41673 38.8818 7.4362 38.8902 7.45797C38.8986 7.47973 38.9018 7.50318 38.8994 7.52639C38.897 7.5496 38.8892 7.57192 38.8766 7.59154C38.8639 7.61115 38.8468 7.6275 38.8267 7.63926C37.6192 8.33676 36.3879 8.87426 35.1329 9.25176C32.6579 9.99551 30.1617 10.6574 27.6442 11.2374C24.1867 12.0324 21.4773 12.7786 18.0461 13.823C17.1286 14.103 16.0923 14.248 14.9373 14.258C14.3936 14.2636 14.0973 14.0461 14.0654 13.5005C19.3304 5.16614 30.2204 2.54301 38.8492 7.07864Z" fill="#2F1C24"/>
<path d="M38.8494 7.07861C46.2519 11.1267 49.7788 19.1292 47.6019 27.3605C47.3307 28.093 47.12 28.7649 46.97 29.3761C46.7313 30.3474 46.6175 30.3374 46.6288 29.3461C46.6325 29.0174 46.5907 28.5892 46.5032 28.0617C46.1469 22.9392 44.3419 18.4699 41.0882 14.6536C40.1788 13.5886 39.5394 13.508 38.1875 13.5042C35.42 13.4967 32.6757 13.718 29.9544 14.168C25.5782 14.8936 21.2957 15.7767 17.0544 17.0986C16.6957 17.2099 16.4107 17.4655 16.1994 17.8655C14.3169 21.4317 13.37 25.1717 13.3588 29.0855L13.3288 30.053C13.3238 30.1967 13.2969 30.2011 13.2482 30.0661L12.2975 27.4374C10.865 22.7892 11.4838 17.6386 14.0657 13.5005C14.0975 14.0461 14.3938 14.2636 14.9375 14.258C16.0925 14.248 17.1288 14.103 18.0463 13.823C21.4775 12.7786 24.1869 12.0324 27.6444 11.2374C30.1619 10.6574 32.6582 9.99549 35.1332 9.25174C36.3882 8.87424 37.6194 8.33674 38.8269 7.63924C38.8471 7.62748 38.8642 7.61113 38.8768 7.59151C38.8894 7.5719 38.8973 7.54958 38.8996 7.52637C38.902 7.50316 38.8989 7.47971 38.8905 7.45794C38.8821 7.43618 38.8686 7.41671 38.8513 7.40111C38.755 7.31736 38.7544 7.20986 38.8494 7.07861Z" fill="#23121A"/>
<path d="M46.5028 28.0616C46.0503 26.9966 45.6147 25.9416 45.1959 24.8966C43.8609 21.5572 41.3972 16.5097 37.4859 15.6678C35.1547 15.1653 32.624 15.0128 29.894 15.2103C26.6415 15.3941 23.4684 15.8566 20.3747 16.5978C18.4959 17.0478 17.519 17.7266 16.619 19.3635C15.4153 21.5516 14.6934 23.2785 14.0971 25.806C13.8409 26.8947 13.5946 27.9878 13.3584 29.0853C13.3696 25.1716 14.3165 21.4316 16.199 17.8653C16.4103 17.4653 16.6953 17.2097 17.054 17.0985C21.2953 15.7766 25.5778 14.8935 29.954 14.1678C32.6753 13.7178 35.4196 13.4966 38.1871 13.5041C39.539 13.5078 40.1784 13.5885 41.0878 14.6535C44.3415 18.4697 46.1465 22.9391 46.5028 28.0616Z" fill="#7E442B"/>
<path d="M46.5028 28.0618C46.5903 28.5893 46.6322 29.0174 46.6285 29.3462C46.6172 30.3374 46.731 30.3474 46.9697 29.3762C47.1197 28.7649 47.3303 28.093 47.6016 27.3605C52.4278 27.1149 51.7078 35.7249 45.8072 34.5587C45.746 34.5474 45.7028 34.5699 45.6778 34.6262C43.4991 39.5987 39.1697 42.4862 33.9328 43.5455C32.6666 43.9093 31.366 44.0918 30.031 44.093V41.4137C31.2435 41.2912 32.3122 40.8793 33.2372 40.178C33.2731 40.1506 33.3028 40.1159 33.3245 40.0763C33.3461 40.0366 33.3592 39.993 33.363 39.9481C33.3667 39.9032 33.3609 39.858 33.346 39.8156C33.3311 39.7732 33.3075 39.7344 33.2766 39.7018C31.321 37.6374 27.676 37.0787 25.7128 39.5799C24.8941 38.7174 24.4716 37.6305 24.4453 36.3193C24.4447 36.2698 24.4594 36.2213 24.4874 36.1804C24.5154 36.1396 24.5553 36.1084 24.6017 36.0912C24.6481 36.0739 24.6987 36.0715 24.7466 36.0841C24.7945 36.0967 24.8372 36.1239 24.8691 36.1618C24.9441 36.2518 25.0285 36.2999 25.1222 36.3062C25.1287 36.3069 25.1352 36.3054 25.1406 36.3018C25.1461 36.2983 25.1502 36.293 25.1521 36.2868C25.1541 36.2806 25.1539 36.274 25.1515 36.2679C25.1492 36.2619 25.1448 36.2568 25.1391 36.2537L24.9516 36.1262C24.8891 36.0849 24.8828 36.0362 24.9328 35.9799C24.9666 35.9412 25.011 35.918 25.066 35.9105C26.1966 37.1968 28.8741 37.3505 30.4378 37.2962C31.7591 37.2487 33.0678 36.8955 34.3641 36.2368C34.4014 36.2175 34.432 36.1875 34.4521 36.1507C34.4722 36.1138 34.4807 36.0718 34.4767 36.03C34.4727 35.9883 34.4562 35.9487 34.4295 35.9163C34.4027 35.884 34.3669 35.8604 34.3266 35.8487C34.1916 35.8099 34.0053 35.808 33.7678 35.843C30.8416 36.283 27.9241 36.2337 25.0153 35.6949C24.9303 35.6987 24.9053 35.6399 24.9403 35.5187C24.9476 35.4943 24.9597 35.4717 24.9758 35.4521C24.992 35.4326 25.0118 35.4164 25.0342 35.4047C25.0566 35.393 25.0811 35.3859 25.1062 35.3839C25.1313 35.3819 25.1565 35.385 25.1803 35.393L25.7916 35.5993C25.8233 35.61 25.8575 35.6112 25.8901 35.6029C25.9226 35.5946 25.9522 35.5771 25.9753 35.5524C26.2366 35.2737 26.5385 35.2212 26.881 35.3949C26.9397 35.4249 27.0022 35.4387 27.0685 35.4362C27.9403 35.4118 28.9753 35.5543 29.7853 35.2149C29.8049 35.2066 29.8223 35.1937 29.8358 35.1773C29.8494 35.161 29.8588 35.1416 29.8632 35.121C29.8677 35.1003 29.867 35.0789 29.8613 35.0587C29.8555 35.0385 29.8449 35.02 29.8303 35.0049C29.5322 34.6918 29.6466 34.3524 29.4572 34.0599C29.2153 33.6887 28.8441 33.4524 28.981 32.9143C29.001 32.8393 29.0266 32.8368 29.0578 32.9068C29.5791 34.0393 30.8935 34.0918 31.5516 33.0193C31.5816 32.9705 31.5941 32.9174 31.5891 32.8599C31.516 32.0762 30.5053 31.7237 30.0122 31.193C29.9339 31.1086 29.8904 30.9981 29.8903 30.8837L29.8941 15.2105C32.6241 15.013 35.1547 15.1655 37.486 15.668C41.3972 16.5099 43.861 21.5574 45.196 24.8968C45.6147 25.9418 46.0503 26.9968 46.5028 28.0618ZM37.5872 20.648C35.8735 20.1362 35.3897 22.6599 37.0153 22.8774C38.4928 23.0749 39.9691 23.3862 41.4441 23.8112C41.5026 23.8282 41.564 23.8323 41.6242 23.8232C41.6845 23.8141 41.742 23.792 41.7928 23.7585C41.8436 23.725 41.8866 23.6808 41.9186 23.629C41.9507 23.5772 41.9711 23.5191 41.9785 23.4587C41.9785 23.4493 41.7272 23.0068 41.6616 22.9468C40.4841 21.873 39.126 21.1068 37.5872 20.648ZM35.3016 29.9687C35.9128 33.3568 39.9985 33.3155 41.5866 30.6755C41.8116 30.3943 42.0241 30.0899 42.2241 29.7624C42.3497 29.558 42.3572 29.3818 42.3797 29.1474C42.3834 29.1145 42.3992 29.0841 42.4238 29.0623C42.4484 29.0404 42.4802 29.0287 42.5128 29.0293C42.6166 29.0318 42.7185 29.0312 42.8185 29.0274C42.896 29.0237 42.9385 28.9837 42.946 28.9074L42.9778 28.5718C42.9797 28.553 42.977 28.5341 42.9699 28.5166C42.9629 28.4991 42.9516 28.4836 42.9373 28.4714C42.9229 28.4593 42.9057 28.4508 42.8873 28.4467C42.8689 28.4426 42.8498 28.4431 42.8316 28.448L42.3853 28.568C42.3128 28.5868 42.2747 28.5587 42.271 28.4837L42.2635 28.3224C42.261 28.2724 42.2453 28.2268 42.2166 28.1855C41.1478 26.6049 38.9728 25.0824 37.0603 25.9224C35.491 26.6124 34.9022 28.3393 35.3016 29.9687ZM42.9554 34.7034C42.9643 34.5535 42.9182 34.4017 42.8199 34.2569C42.7215 34.112 42.5728 33.9769 42.3822 33.8592C42.1916 33.7414 41.9628 33.6435 41.7089 33.5708C41.455 33.4981 41.181 33.4522 40.9025 33.4357C40.6241 33.4191 40.3465 33.4323 40.0858 33.4744C39.8251 33.5165 39.5864 33.5867 39.3831 33.681C39.1799 33.7753 39.0162 33.8919 38.9014 34.0241C38.7866 34.1563 38.723 34.3015 38.7141 34.4514C38.7052 34.6014 38.7512 34.7531 38.8495 34.8979C38.9479 35.0428 39.0966 35.1779 39.2872 35.2957C39.4778 35.4134 39.7066 35.5114 39.9605 35.584C40.2144 35.6567 40.4884 35.7026 40.7669 35.7192C41.0454 35.7357 41.3229 35.7226 41.5836 35.6805C41.8443 35.6384 42.0831 35.5682 42.2863 35.4738C42.4895 35.3795 42.6532 35.2629 42.768 35.1307C42.8828 34.9985 42.9465 34.8533 42.9554 34.7034Z" fill="#894B37"/>
<path d="M29.8942 15.2104L29.8904 30.8836C29.8905 30.998 29.934 31.1085 30.0123 31.193C30.5054 31.7236 31.5161 32.0761 31.5892 32.8598C31.5942 32.9173 31.5817 32.9705 31.5517 33.0192C30.8936 34.0917 29.5792 34.0392 29.0579 32.9067C29.0267 32.8367 29.0011 32.8392 28.9811 32.9142C28.8442 33.4523 29.2154 33.6886 29.4573 34.0598C29.6467 34.3523 29.5323 34.6917 29.8304 35.0048C29.845 35.0199 29.8556 35.0384 29.8614 35.0586C29.8671 35.0788 29.8678 35.1002 29.8633 35.1209C29.8589 35.1415 29.8495 35.1609 29.8359 35.1773C29.8224 35.1936 29.805 35.2065 29.7854 35.2148C28.9754 35.5542 27.9404 35.4117 27.0686 35.4361C27.0023 35.4386 26.9398 35.4248 26.8811 35.3948C26.5386 35.2211 26.2367 35.2736 25.9754 35.5523C25.9523 35.577 25.9227 35.5945 25.8902 35.6028C25.8576 35.6111 25.8234 35.6099 25.7917 35.5992L25.1804 35.3929C25.1566 35.3849 25.1314 35.3818 25.1063 35.3838C25.0812 35.3858 25.0567 35.3929 25.0343 35.4046C25.0119 35.4163 24.9921 35.4325 24.9759 35.452C24.9598 35.4716 24.9477 35.4942 24.9404 35.5186C24.9054 35.6398 24.9304 35.6986 25.0154 35.6948C24.9979 35.7786 25.0148 35.8504 25.0661 35.9104C25.0111 35.9179 24.9667 35.9411 24.9329 35.9798C24.8829 36.0361 24.8892 36.0848 24.9517 36.1261L25.1392 36.2536C25.1449 36.2567 25.1493 36.2618 25.1516 36.2678C25.154 36.2739 25.1542 36.2805 25.1522 36.2867C25.1503 36.2929 25.1462 36.2982 25.1407 36.3017C25.1353 36.3053 25.1288 36.3068 25.1223 36.3061C25.0286 36.2998 24.9442 36.2517 24.8692 36.1617C24.8373 36.1238 24.7945 36.0966 24.7467 36.084C24.6988 36.0714 24.6482 36.0738 24.6018 36.0911C24.5554 36.1083 24.5155 36.1395 24.4875 36.1804C24.4595 36.2212 24.4448 36.2697 24.4454 36.3192C24.4717 37.6304 24.8942 38.7173 25.7129 39.5798C26.8404 40.8698 28.2798 41.4811 30.0311 41.4136V44.093C28.6186 44.1305 27.2336 43.9786 25.8761 43.6373C20.6279 42.323 16.6792 39.773 14.2454 34.7667C14.2263 34.7272 14.1942 34.6953 14.1544 34.6762C14.1146 34.6572 14.0693 34.652 14.0261 34.6617C8.32418 35.9536 7.09981 27.2086 12.2973 27.4373L13.2479 30.0661C13.2967 30.2011 13.3236 30.1967 13.3286 30.0529L13.3586 29.0854C13.5948 27.9879 13.8411 26.8948 14.0973 25.8061C14.6936 23.2786 15.4154 21.5517 16.6192 19.3636C17.5192 17.7267 18.4961 17.0479 20.3748 16.5979C23.4686 15.8567 26.6417 15.3942 29.8942 15.2104ZM18.0011 23.8242C18.1998 23.8317 18.4136 23.8017 18.6423 23.7342C19.7061 23.4217 20.8298 23.1836 22.0136 23.0198C22.6248 22.9361 23.0204 22.8336 23.2004 22.7123C24.0367 22.1479 23.6448 20.3236 22.4392 20.5898C21.7511 20.7417 17.3298 22.5492 17.8529 23.7229C17.8659 23.7523 17.8867 23.7773 17.9129 23.7952C17.9391 23.8131 17.9697 23.8232 18.0011 23.8242ZM18.3161 30.5367C18.7261 31.4317 19.3736 32.0492 20.2586 32.3892C22.2611 33.1561 24.4998 31.9579 24.6236 29.7098C25.2161 24.5311 19.0417 24.8254 17.6017 28.5492C17.5767 28.6142 17.5411 28.6211 17.4948 28.5698C17.3648 28.4223 17.2129 28.3992 17.0392 28.5005C16.9804 28.5342 16.9461 28.5848 16.9361 28.6523C16.8667 29.0761 17.2904 29.3761 17.6298 29.5373C17.6575 29.5506 17.6815 29.5708 17.6995 29.596C17.7175 29.6212 17.729 29.6507 17.7329 29.6817C17.7954 30.1754 17.9898 30.4605 18.3161 30.5367ZM10.3661 30.2479C10.8067 29.5429 11.7123 28.9879 12.5711 29.3198C12.6398 29.3461 12.6654 29.3236 12.6479 29.2523L12.5973 29.0498C12.5873 29.0123 12.5629 28.9954 12.5242 28.9992C11.5904 29.1079 10.8104 29.2861 10.3323 30.2273C10.33 30.2321 10.3296 30.2377 10.3311 30.243C10.3326 30.2483 10.336 30.2528 10.3405 30.2555C10.3449 30.2583 10.3501 30.259 10.3549 30.2576C10.3597 30.2562 10.3637 30.2527 10.3661 30.2479ZM20.7027 34.5082C20.7068 34.2134 20.4963 33.9276 20.1174 33.7138C19.7384 33.5 19.2222 33.3756 18.6822 33.3681C18.1422 33.3605 17.6227 33.4704 17.238 33.6736C16.8532 33.8768 16.6348 34.1565 16.6306 34.4514C16.6265 34.7463 16.8371 35.032 17.216 35.2459C17.5949 35.4597 18.1112 35.584 18.6512 35.5916C19.1911 35.5991 19.7107 35.4892 20.0954 35.2861C20.4802 35.0829 20.6986 34.8031 20.7027 34.5082Z" fill="#985841"/>
<path d="M17.853 23.723C17.3298 22.5492 21.7511 20.7417 22.4392 20.5898C23.6448 20.3236 24.0367 22.148 23.2005 22.7123C23.0205 22.8336 22.6248 22.9361 22.0136 23.0198C20.8298 23.1836 19.7061 23.4217 18.6423 23.7342C18.4136 23.8017 18.1998 23.8317 18.0011 23.8242C17.9697 23.8232 17.9391 23.8131 17.9129 23.7952C17.8867 23.7773 17.8659 23.7523 17.853 23.723Z" fill="#010100"/>
<path d="M37.0153 22.8773C35.3896 22.6598 35.8734 20.1361 37.5871 20.6479C39.1259 21.1067 40.484 21.8729 41.6615 22.9467C41.7271 23.0067 41.9784 23.4492 41.9784 23.4586C41.971 23.519 41.9506 23.5772 41.9185 23.6289C41.8865 23.6807 41.8436 23.7249 41.7927 23.7584C41.7419 23.7919 41.6844 23.814 41.6242 23.8231C41.5639 23.8322 41.5025 23.8281 41.444 23.8111C39.969 23.3861 38.4928 23.0748 37.0153 22.8773Z" fill="#010100"/>
<path d="M41.5868 30.6757C42.0193 29.152 41.5855 27.997 40.2855 27.2107C40.203 27.1607 40.1843 27.1788 40.2293 27.2651L40.4918 27.7657C40.498 27.832 40.4843 27.8826 40.4505 27.9176C40.4068 27.9651 40.3637 27.9645 40.3212 27.9157C40.1749 27.747 39.4718 26.8338 39.3312 26.8057C39.3001 26.7996 39.2679 26.803 39.2387 26.8155C39.2096 26.828 39.1849 26.849 39.1679 26.8757C39.1509 26.9024 39.1424 26.9337 39.1434 26.9653C39.1444 26.997 39.155 27.0276 39.1737 27.0532C41.1837 29.7851 37.0605 32.1945 36.303 28.8382C36.2967 28.8087 36.279 28.7828 36.2537 28.7663C36.2284 28.7498 36.1976 28.744 36.168 28.7501L35.9449 28.797L36.0574 27.9457C36.0608 27.9243 36.0559 27.9026 36.0437 27.885C36.0314 27.8674 36.0128 27.8552 35.9915 27.8509C35.9703 27.8466 35.948 27.8506 35.9293 27.8619C35.9105 27.8732 35.8967 27.8911 35.8905 27.912L35.3018 29.9688C34.9024 28.3395 35.4912 26.6126 37.0605 25.9226C38.973 25.0826 41.148 26.6051 42.2168 28.1857C42.2455 28.227 42.2612 28.2726 42.2637 28.3226L42.2712 28.4838C42.2749 28.5588 42.313 28.587 42.3855 28.5682L42.8318 28.4482C42.85 28.4433 42.8691 28.4428 42.8875 28.4469C42.9059 28.451 42.9231 28.4594 42.9375 28.4716C42.9519 28.4838 42.9631 28.4993 42.9701 28.5168C42.9772 28.5343 42.9799 28.5532 42.978 28.572L42.9462 28.9076C42.9387 28.9838 42.8962 29.0238 42.8187 29.0276C42.7187 29.0313 42.6168 29.032 42.513 29.0295C42.4804 29.0288 42.4486 29.0406 42.424 29.0624C42.3994 29.0843 42.3836 29.1147 42.3799 29.1476C42.3574 29.382 42.3499 29.5582 42.2243 29.7626C42.0243 30.0901 41.8118 30.3945 41.5868 30.6757ZM37.6537 26.9621C37.6095 26.8934 37.5504 26.8352 37.4798 26.7908C37.4093 26.7464 37.3287 26.7167 37.2427 26.7034C37.1566 26.69 37.0668 26.6934 36.9783 26.7132C36.8899 26.733 36.8045 26.7688 36.7271 26.8187C36.6497 26.8686 36.5817 26.9315 36.5272 27.0039C36.4726 27.0763 36.4325 27.1567 36.409 27.2406C36.3856 27.3244 36.3794 27.4101 36.3907 27.4927C36.402 27.5753 36.4306 27.6531 36.4748 27.7218C36.5191 27.7906 36.5782 27.8488 36.6488 27.8932C36.7193 27.9376 36.7999 27.9673 36.8859 27.9806C36.972 27.9939 37.0618 27.9906 37.1503 27.9708C37.2387 27.951 37.3241 27.9151 37.4015 27.8652C37.4789 27.8153 37.5468 27.7524 37.6014 27.68C37.656 27.6076 37.6961 27.5272 37.7195 27.4433C37.743 27.3595 37.7492 27.2738 37.7379 27.1912C37.7266 27.1087 37.698 27.0308 37.6537 26.9621Z" fill="#010100"/>
<path d="M24.6237 29.7099L24.0631 28.0749C24.0589 28.0619 24.0515 28.0502 24.0417 28.0407C24.0319 28.0312 24.02 28.0242 24.0069 28.0203C23.9938 28.0164 23.98 28.0158 23.9666 28.0184C23.9532 28.0211 23.9406 28.0269 23.93 28.0355C23.8681 28.0843 24.0294 28.8624 24.0237 29.0311C23.7887 29.0686 23.65 29.1618 23.6075 29.3105C23.0712 31.1818 20.6244 30.8349 20.2044 29.1099C19.9212 27.9436 20.7012 27.3605 21.4456 26.6743C21.5194 26.6068 21.5062 26.5699 21.4062 26.5636C20.9281 26.5336 20.2962 26.9218 19.8256 27.0586C18.4469 27.8186 17.9437 28.978 18.3162 30.5368C17.99 30.4605 17.7956 30.1755 17.7331 29.6818C17.7292 29.6508 17.7177 29.6213 17.6997 29.5961C17.6816 29.5709 17.6577 29.5507 17.63 29.5374C17.2906 29.3761 16.8669 29.0761 16.9362 28.6524C16.9462 28.5849 16.9806 28.5343 17.0394 28.5005C17.2131 28.3993 17.365 28.4224 17.495 28.5699C17.5412 28.6211 17.5769 28.6143 17.6019 28.5493C19.0419 24.8255 25.2162 24.5311 24.6237 29.7099ZM23.4275 27.4561C23.4275 27.3695 23.4104 27.2836 23.3773 27.2036C23.3441 27.1235 23.2955 27.0507 23.2342 26.9894C23.1729 26.9282 23.1001 26.8795 23.0201 26.8464C22.94 26.8132 22.8542 26.7961 22.7675 26.7961C22.6808 26.7961 22.595 26.8132 22.5149 26.8464C22.4349 26.8795 22.3621 26.9282 22.3008 26.9894C22.2395 27.0507 22.1909 27.1235 22.1577 27.2036C22.1246 27.2836 22.1075 27.3695 22.1075 27.4561C22.1075 27.6312 22.177 27.7991 22.3008 27.9228C22.4246 28.0466 22.5925 28.1161 22.7675 28.1161C22.9425 28.1161 23.1104 28.0466 23.2342 27.9228C23.358 27.7991 23.4275 27.6312 23.4275 27.4561Z" fill="#010100"/>
<path d="M24.0235 29.0312C24.1941 32.1062 20.3728 32.8074 19.3941 29.8993C19.0691 28.9343 19.2129 27.9874 19.8254 27.0587C20.296 26.9218 20.9278 26.5337 21.406 26.5637C21.506 26.5699 21.5191 26.6068 21.4453 26.6743C20.701 27.3605 19.921 27.9437 20.2041 29.1099C20.6241 30.8349 23.071 31.1818 23.6072 29.3105C23.6497 29.1618 23.7885 29.0687 24.0235 29.0312Z" fill="#6D3521"/>
<path d="M37.4016 27.8649C37.7271 27.6551 37.84 27.2507 37.6538 26.9617C37.4676 26.6728 37.0527 26.6086 36.7271 26.8184C36.4016 27.0282 36.2887 27.4325 36.4749 27.7215C36.6611 28.0105 37.076 28.0747 37.4016 27.8649Z" fill="#FEFDFE"/>
<path d="M22.7674 28.1159C23.1319 28.1159 23.4274 27.8204 23.4274 27.4559C23.4274 27.0914 23.1319 26.7959 22.7674 26.7959C22.4029 26.7959 22.1074 27.0914 22.1074 27.4559C22.1074 27.8204 22.4029 28.1159 22.7674 28.1159Z" fill="#FEFDFE"/>
<path d="M40.4918 27.7657C40.9018 29.1269 40.6312 30.2369 39.6799 31.0957C39.1812 31.5457 38.2943 31.8326 37.6868 31.6469C36.2956 31.2194 35.7149 30.2694 35.9449 28.7969L36.1681 28.7501C36.1976 28.7439 36.2284 28.7498 36.2537 28.7663C36.279 28.7828 36.2968 28.8086 36.3031 28.8382C37.0606 32.1944 41.1837 29.7851 39.1737 27.0532C39.155 27.0276 39.1444 26.997 39.1434 26.9653C39.1424 26.9336 39.151 26.9024 39.168 26.8757C39.185 26.8489 39.2096 26.828 39.2388 26.8155C39.2679 26.803 39.3001 26.7996 39.3312 26.8057C39.4718 26.8338 40.1749 27.7469 40.3212 27.9157C40.3637 27.9644 40.4068 27.9651 40.4506 27.9176C40.4843 27.8826 40.4981 27.8319 40.4918 27.7657Z" fill="#6D3521"/>
<path d="M19.8255 27.0586C19.213 27.9873 19.0692 28.9342 19.3942 29.8992C20.373 32.8073 24.1942 32.1061 24.0236 29.0311C24.0292 28.8623 23.868 28.0842 23.9299 28.0355C23.9405 28.0269 23.953 28.021 23.9664 28.0184C23.9798 28.0157 23.9937 28.0164 24.0068 28.0202C24.0198 28.0241 24.0318 28.0311 24.0416 28.0406C24.0514 28.0501 24.0587 28.0619 24.063 28.0748L24.6236 29.7098C24.4999 31.958 22.2611 33.1561 20.2586 32.3892C19.3736 32.0492 18.7261 31.4317 18.3161 30.5367C17.9436 28.978 18.4467 27.8186 19.8255 27.0586Z" fill="#FEFDFE"/>
<path d="M41.5868 30.6756C39.9986 33.3156 35.913 33.3569 35.3018 29.9688L35.8905 27.9119C35.8966 27.891 35.9105 27.8731 35.9292 27.8618C35.948 27.8505 35.9702 27.8465 35.9915 27.8508C36.0127 27.8551 36.0314 27.8673 36.0436 27.8849C36.0559 27.9025 36.0608 27.9242 36.0574 27.9456L35.9449 28.7969C35.7149 30.2694 36.2955 31.2194 37.6868 31.6469C38.2943 31.8325 39.1811 31.5456 39.6799 31.0956C40.6311 30.2369 40.9018 29.1269 40.4918 27.7656L40.2293 27.265C40.1843 27.1788 40.203 27.1606 40.2855 27.2106C41.5855 27.9969 42.0193 29.1519 41.5868 30.6756Z" fill="#FEFDFE"/>
<path d="M12.5709 29.3202C11.7122 28.9883 10.8066 29.5433 10.3659 30.2483C10.3636 30.253 10.3596 30.2565 10.3548 30.2579C10.35 30.2593 10.3448 30.2586 10.3404 30.2559C10.3359 30.2531 10.3325 30.2486 10.331 30.2433C10.3294 30.238 10.3299 30.2324 10.3322 30.2277C10.8103 29.2864 11.5903 29.1083 12.5241 28.9995C12.5628 28.9958 12.5872 29.0127 12.5972 29.0502L12.6478 29.2527C12.6653 29.3239 12.6397 29.3464 12.5709 29.3202Z" fill="#7E442B"/>
<path d="M18.651 35.5918C19.7755 35.6075 20.694 35.1225 20.7026 34.5085C20.7111 33.8945 19.8065 33.384 18.682 33.3683C17.5576 33.3526 16.639 33.8376 16.6305 34.4516C16.6219 35.0656 17.5265 35.5761 18.651 35.5918Z" fill="#C15551"/>
<path d="M40.7672 35.719C41.9384 35.7886 42.9182 35.3338 42.9557 34.7033C42.9931 34.0727 42.0741 33.5051 40.9029 33.4356C39.7317 33.366 38.7519 33.8207 38.7144 34.4513C38.6769 35.0819 39.596 35.6494 40.7672 35.719Z" fill="#C15551"/>
<path d="M25.0155 35.6948C27.9242 36.2336 30.8417 36.283 33.768 35.843C34.0055 35.808 34.1917 35.8098 34.3267 35.8486C34.367 35.8603 34.4028 35.8839 34.4296 35.9162C34.4563 35.9486 34.4728 35.9882 34.4768 36.03C34.4809 36.0717 34.4723 36.1137 34.4522 36.1506C34.4322 36.1874 34.4015 36.2174 34.3642 36.2367C33.068 36.8955 31.7592 37.2486 30.438 37.2961C28.8742 37.3505 26.1967 37.1967 25.0661 35.9105C25.0148 35.8505 24.998 35.7786 25.0155 35.6948Z" fill="#FEFDFE"/>
<path d="M30.031 41.4138C28.2798 41.4813 26.8404 40.87 25.7129 39.58C27.676 37.0788 31.321 37.6375 33.2766 39.7019C33.3075 39.7345 33.3312 39.7733 33.3461 39.8157C33.3609 39.8582 33.3667 39.9033 33.363 39.9482C33.3593 39.9931 33.3462 40.0368 33.3245 40.0764C33.3029 40.116 33.2731 40.1507 33.2373 40.1782C32.3123 40.8794 31.2435 41.2913 30.031 41.4138Z" fill="#D56860"/>
<path d="M33.9331 43.5454L35.7012 44.2335L35.555 44.5467C35.2363 44.6479 35.3075 44.1829 34.8875 44.1173C34.8225 44.1085 34.7863 44.1367 34.7788 44.2017L34.7412 44.5148C34.7325 44.5848 34.6956 44.6335 34.6306 44.661C31.7619 45.8892 28.5894 45.9867 25.9044 44.2073C25.7156 44.081 25.5131 43.9623 25.2969 43.851L25.8762 43.6373C27.2337 43.9785 28.6188 44.1304 30.0312 44.0929C31.3663 44.0917 32.6669 43.9092 33.9331 43.5454Z" fill="#7E442B"/>
<path d="M25.2969 43.8511C25.5131 43.9623 25.7156 44.0811 25.9044 44.2073C28.5894 45.9867 31.7619 45.8892 34.6306 44.6611C34.6956 44.6336 34.7325 44.5848 34.7412 44.5148L34.7788 44.2017C34.7863 44.1367 34.8225 44.1086 34.8875 44.1173C35.3075 44.183 35.2363 44.648 35.555 44.5467C34.3925 47.4286 31.355 48.3923 28.4825 47.8205C26.4687 47.4205 24.9694 46.238 23.9844 44.2729L25.2969 43.8511Z" fill="#894B37"/>
<path d="M35.7012 44.2334C38.5587 44.7684 41.2662 45.8246 43.8237 47.4021C35.9993 53.7603 23.7462 53.4828 16.0137 47.1884C18.5074 45.6884 21.1643 44.7165 23.9843 44.2728C24.9693 46.2378 26.4687 47.4203 28.4824 47.8203C31.3549 48.3921 34.3924 47.4284 35.5549 44.5465L35.7012 44.2334Z" fill="#FFA61F"/>
<path d="M16.0137 47.1885C23.7462 53.4829 35.9993 53.7603 43.8237 47.4022C44.4749 47.526 45.1112 47.7985 45.7324 48.2197C45.7837 48.2547 45.7881 48.2947 45.7456 48.3397C37.1712 57.3641 23.2774 57.2347 15.0031 47.9085C14.9863 47.8896 14.9742 47.8672 14.9676 47.8429C14.961 47.8186 14.9601 47.7931 14.965 47.7684C14.9699 47.7437 14.9805 47.7205 14.9959 47.7005C15.0113 47.6806 15.031 47.6645 15.0537 47.6535L16.0137 47.1885Z" fill="#D1DEDE"/>
</svg>
