<svg width="60" height="60" viewBox="0 0 60 60" fill="none" xmlns="http://www.w3.org/2000/svg">
<path d="M15.1224 9.62988C13.0524 11.2049 11.2617 13.063 9.75049 15.2043" stroke="#6B9483" stroke-width="2"/>
<path d="M9.7501 15.2046C7.9101 17.8246 6.59447 20.7527 5.80322 23.989" stroke="#618F7D" stroke-width="2"/>
<path d="M5.80347 23.9888C4.8791 27.4613 4.91847 31.6913 5.38347 35.2256" stroke="#4F867B" stroke-width="2"/>
<path d="M27.3696 4.95361C22.8496 5.41861 18.7671 6.97736 15.1221 9.62986" stroke="#6C9886" stroke-width="2"/>
<path d="M54.3395 25.0162C53.9057 22.7349 53.1838 20.5555 52.1738 18.478" stroke="#5A9483" stroke-width="2"/>
<path d="M52.1741 18.4784C49.3953 12.844 44.3103 8.60275 38.481 6.4165" stroke="#639884" stroke-width="2"/>
<path d="M38.4809 6.41636C34.8971 5.15636 31.1934 4.66886 27.3696 4.95386" stroke="#6D9D8A" stroke-width="2"/>
<path d="M38.4809 6.41609C38.434 6.55109 38.3927 6.63921 38.2315 6.59608C37.4927 6.39984 36.7552 6.19421 36.019 5.97921C35.7077 5.88921 35.4646 5.84608 35.2896 5.84983C34.6577 5.86858 33.8309 6.35046 34.3502 7.08358C34.3827 7.13108 34.3959 7.18296 34.3896 7.23921C34.3146 7.89546 33.8009 7.99109 33.3659 8.29109C33.3209 8.32234 33.2715 8.33421 33.2177 8.32671C32.9877 8.29796 32.7671 8.32671 32.5559 8.41296C32.5451 8.41659 32.5362 8.42408 32.5309 8.43398C32.5257 8.44387 32.5245 8.45546 32.5275 8.46647C32.5306 8.47748 32.5377 8.48713 32.5474 8.49353C32.5572 8.49993 32.5689 8.50263 32.5802 8.50108C33.5177 8.39108 34.1027 8.63859 34.3352 9.24359" stroke="#9BC79F" stroke-width="2"/>
<path d="M34.3351 9.2438L32.2839 8.85192C32.1976 8.83567 32.197 8.81692 32.282 8.79567C32.4007 8.76692 32.4613 8.68942 32.4638 8.56317C32.4663 8.49692 32.4345 8.46255 32.3682 8.46005C29.0132 8.3138 25.7838 8.84942 22.6801 10.0669C22.3138 10.2107 21.9251 10.4088 21.5138 10.6613C20.5688 11.2425 19.6145 11.7807 18.7257 12.4125C17.1845 13.5094 15.8251 14.2988 14.7563 16.0257" stroke="#B7CCA1" stroke-width="2"/>
<path d="M14.7567 16.0258L14.2299 16.6858C14.1886 16.7383 14.1492 16.7377 14.1117 16.684C13.4461 15.7558 12.6961 15.829 11.7642 15.6246C11.2867 15.5196 10.8005 15.5015 10.3055 15.5702C10.2761 15.5742 10.2463 15.57 10.2191 15.5581C10.192 15.5462 10.1687 15.527 10.1517 15.5027C10.073 15.3877 9.97236 15.3477 9.84986 15.3827C9.81236 15.3927 9.78924 15.379 9.78049 15.3415L9.75049 15.2046" stroke="#9BC79F" stroke-width="2"/>
<path d="M52.174 18.478C52.0978 18.4955 52.069 18.5562 52.0878 18.6599C52.0953 18.7049 52.0809 18.7143 52.0447 18.688L51.9997 18.6543C51.9434 18.613 51.8859 18.6118 51.8272 18.6505C51.5409 18.8443 51.2353 18.9349 50.9103 18.9224C50.579 18.9087 50.3503 18.9237 50.224 18.9674C49.8565 19.0937 49.4965 19.2874 49.144 19.5487" stroke="#88BE99" stroke-width="2"/>
<path d="M49.1444 19.5489C48.3481 17.9614 47.3312 16.8408 46.0938 16.187" stroke="#77B395" stroke-width="2"/>
<path d="M46.0935 16.187C45.4204 14.807 43.7573 13.4701 42.1692 14.0682C42.1054 14.0932 42.0548 14.077 42.0173 14.0195C40.6523 11.9476 37.6598 10.5432 35.3892 9.79883" stroke="#4B8983" stroke-width="2"/>
<path d="M35.3892 9.79865C35.2755 9.53615 34.9242 9.35115 34.3354 9.24365" stroke="#ADC89B" stroke-width="2"/>
<path d="M44.5487 13.2808C43.9274 13.2895 43.3218 13.3933 42.7318 13.592C42.5805 13.6433 42.5843 13.6745 42.743 13.6858C43.5118 13.7395 44.2212 13.9802 44.8712 14.4077C44.9524 14.4614 44.9805 14.4408 44.9555 14.3458L44.6893 13.3877C44.6813 13.3566 44.663 13.3292 44.6375 13.3098C44.612 13.2904 44.5807 13.2802 44.5487 13.2808Z" stroke="#88BE99" stroke-width="2"/>
<path d="M35.389 9.79904C33.7752 9.32154 32.1408 9.07717 30.4858 9.06592" stroke="#668F84" stroke-width="2"/>
<path d="M30.4859 9.06592C24.3997 9.28842 19.3847 11.6978 15.4409 16.294" stroke="#689E8F" stroke-width="2"/>
<path d="M15.4407 16.294L14.7563 16.0259" stroke="#ADC89B" stroke-width="2"/>
<path d="M30.4859 9.06592C30.7571 9.20217 31.0365 9.27029 31.324 9.27029C31.3463 9.2708 31.3681 9.2769 31.3875 9.28804C31.4068 9.29918 31.423 9.315 31.4346 9.33404C31.5584 9.54529 31.5221 9.65404 31.3259 9.66029C29.6634 9.72154 28.4259 10.4015 27.6134 11.7003C27.5159 11.8565 27.5384 11.8765 27.6809 11.7603C29.1565 10.5697 30.7784 9.83092 32.6646 9.98092C33.9334 10.0809 34.9284 10.2503 35.6496 10.489C37.8659 11.2222 38.584 13.3559 37.3203 15.2984C37.3099 15.3145 37.2964 15.3282 37.2805 15.3388C37.2646 15.3495 37.2468 15.3568 37.228 15.3603C37.2092 15.3638 37.1899 15.3635 37.1713 15.3593C37.1527 15.3551 37.1351 15.3471 37.1196 15.3359C35.9296 14.4947 34.6165 14.0265 33.1803 13.9315C32.9084 13.9147 32.6515 13.8097 32.4321 13.7984C30.8234 13.7097 29.2153 13.6953 27.6078 13.7553C24.574 13.8678 21.064 14.794 18.6115 16.6034C16.8546 17.9009 15.6134 19.0372 14.359 20.9215C14.3028 21.0053 14.124 21.1697 13.8228 21.4147" stroke="#066077" stroke-width="2"/>
<path d="M13.823 21.4146L12.7168 22.2152" stroke="#3A8F8C" stroke-width="2"/>
<path d="M12.7168 22.2151C12.8518 21.3551 13.143 20.5708 13.5905 19.862C13.607 19.8355 13.6176 19.8058 13.6214 19.7751C13.6253 19.7443 13.6225 19.7132 13.613 19.6839L13.5287 19.4214" stroke="#054F6A" stroke-width="2"/>
<path d="M13.5283 19.4214C14.0721 18.3339 14.7096 17.2914 15.4408 16.2939" stroke="#4C998D" stroke-width="2"/>
<path d="M18.2798 14.4788C18.0211 14.6982 17.1305 15.497 17.2598 15.8457C17.2722 15.8799 17.2921 15.9108 17.3179 15.9363C17.3438 15.9618 17.3751 15.9812 17.4094 15.993C17.4437 16.0049 17.4802 16.0089 17.5163 16.0048C17.5524 16.0008 17.5871 15.9887 17.618 15.9695C20.1292 14.4107 22.6917 12.9407 25.3055 11.5595C25.6542 11.3757 25.9786 11.0945 26.2805 10.8526C26.3246 10.8169 26.3567 10.7686 26.3724 10.7141C26.3882 10.6596 26.387 10.6016 26.3688 10.5479C26.3506 10.4942 26.3164 10.4473 26.2708 10.4136C26.2251 10.3799 26.1703 10.361 26.1136 10.3595C25.7748 10.3495 25.4248 10.4095 25.0636 10.5395C22.5661 11.4445 20.3048 12.7576 18.2798 14.4788Z" stroke="#82AA97" stroke-width="2"/>
<path d="M46.0935 16.1867C45.6073 16.133 45.0823 15.9042 44.5186 15.5005" stroke="#317A7F" stroke-width="2"/>
<path d="M44.5187 15.5005C44.3387 15.5367 44.178 15.5086 44.0368 15.4161C43.3374 14.9586 42.4993 14.7092 41.7268 14.3924C41.4993 14.2999 41.2624 14.2242 41.0161 14.1655C40.9361 14.1467 40.8655 14.1642 40.8043 14.218L38.033 16.6386C38.0194 16.6504 38.0035 16.6593 37.9862 16.6647C37.969 16.6701 37.9509 16.6719 37.9329 16.67C37.915 16.6681 37.8976 16.6624 37.8819 16.6535C37.8662 16.6445 37.8526 16.6324 37.8418 16.618C37.343 15.9542 36.6849 15.518 35.8674 15.3092C35.8499 15.304 35.8311 15.3053 35.8144 15.3127C35.7977 15.3201 35.7842 15.3332 35.7763 15.3497C35.7684 15.3662 35.7666 15.3849 35.7713 15.4026C35.776 15.4203 35.7868 15.4357 35.8018 15.4461L37.4199 16.6011C37.4545 16.6259 37.4825 16.6588 37.5014 16.6969C37.5204 16.735 37.5297 16.7772 37.5286 16.8197C37.5275 16.8622 37.516 16.9039 37.4951 16.9409C37.4741 16.978 37.4445 17.0094 37.4086 17.0324C34.7474 18.7311 31.833 19.9173 28.6655 20.5911C24.2949 21.5211 19.6861 22.528 16.2511 25.6255C15.1018 26.6624 15.1843 28.0874 15.3868 29.5424C15.4787 30.208 15.3287 30.7142 15.0774 31.2842C15.0555 31.3342 15.0219 31.3782 14.9794 31.4124C14.9368 31.4466 14.8867 31.4702 14.833 31.481C14.7794 31.4918 14.7239 31.4897 14.6712 31.4747C14.6184 31.4597 14.57 31.4323 14.5299 31.3949L13.4312 30.3599" stroke="#043F5F" stroke-width="2"/>
<path d="M13.4311 30.36C13.1161 29.8888 12.9105 29.25 12.8142 28.4438C12.6442 27.03 12.7036 25.6975 12.9923 24.4463" stroke="#398081" stroke-width="2"/>
<path d="M12.992 24.4463C13.1807 24.3938 13.3532 24.3806 13.5095 24.4069C13.5299 24.4106 13.551 24.4077 13.5697 24.3985C13.5884 24.3894 13.6037 24.3745 13.6133 24.3561C13.6229 24.3377 13.6264 24.3167 13.6233 24.2961C13.6201 24.2756 13.6104 24.2566 13.5957 24.2419C13.4382 24.0844 13.2195 23.9725 12.9395 23.9062" stroke="#1F6674" stroke-width="2"/>
<path d="M12.9395 23.9064C13.0957 23.0977 13.3901 22.2671 13.8226 21.4146" stroke="#398081" stroke-width="2"/>
<path d="M21.1314 20.4433C21.1252 20.4658 21.1221 20.4889 21.1221 20.5126C21.1216 20.5226 21.1237 20.5324 21.1283 20.5413C21.1329 20.5501 21.1397 20.5576 21.1481 20.5629C21.1564 20.5682 21.1661 20.5712 21.176 20.5716C21.1859 20.572 21.1958 20.5698 21.2046 20.5651C23.4996 19.4064 26.4865 18.3058 28.2021 17.582C30.1896 16.7439 32.3608 16.0914 34.2189 15.0058C34.2317 14.9987 34.2421 14.988 34.2489 14.9751C34.2557 14.9622 34.2586 14.9476 34.2572 14.933C34.2558 14.9185 34.2502 14.9047 34.2411 14.8933C34.232 14.8819 34.2197 14.8734 34.2058 14.8689C30.7877 13.6501 27.9321 14.3964 24.6489 15.8364C21.6733 17.1433 19.4121 19.0408 17.479 21.617C17.314 21.8364 15.8908 23.7151 15.9996 23.7845C16.0172 23.7964 16.0381 23.8021 16.0589 23.8007C16.0797 23.7994 16.0991 23.791 16.114 23.777C17.5927 22.437 19.2015 21.2764 20.9402 20.2951C20.9627 20.2825 20.9884 20.2767 21.0142 20.2786C21.0399 20.2805 21.0646 20.2899 21.085 20.3057C21.1054 20.3215 21.1207 20.343 21.129 20.3675C21.1372 20.392 21.1381 20.4183 21.1314 20.4433Z" stroke="#066077" stroke-width="2"/>
<path d="M15.7429 20.8818C16.0542 20.8461 17.2092 19.723 17.556 19.4774C19.066 18.4074 20.5798 17.3411 22.0973 16.2786C22.2529 16.1699 22.461 16.1493 22.551 15.8961C22.5614 15.8674 22.5636 15.8365 22.5575 15.8066C22.5515 15.7767 22.5373 15.749 22.5167 15.7266C22.496 15.7042 22.4695 15.6878 22.4402 15.6794C22.4109 15.6709 22.3799 15.6707 22.3504 15.6786C20.9329 16.063 19.5398 16.5449 18.381 17.4749C17.2898 18.3499 16.3342 19.3561 15.5142 20.4936C15.4861 20.5324 15.4699 20.5785 15.4676 20.6262C15.4653 20.674 15.477 20.7215 15.5013 20.7627C15.5256 20.8039 15.5614 20.8372 15.6043 20.8583C15.6473 20.8795 15.6954 20.8876 15.7429 20.8818Z" stroke="#066077" stroke-width="2"/>
<path d="M44.5186 15.5005C44.6586 15.6817 44.8123 15.8324 44.9798 15.9524C48.6154 18.5436 48.411 27.8249 46.2548 31.2224" stroke="#306972" stroke-width="2"/>
<path d="M46.2548 31.2227L45.1298 31.7345C45.0748 31.7595 45.036 31.8002 45.0135 31.8564C44.5473 33.0277 44.7785 33.9995 45.7073 34.772" stroke="#7A5D58" stroke-width="2"/>
<path d="M45.7072 34.7719C45.2022 35.0394 44.6335 34.9413 44.001 34.4775" stroke="#695053" stroke-width="2"/>
<path d="M44.0012 34.4775L43.7124 33.6807" stroke="#7A5D58" stroke-width="2"/>
<path d="M43.7121 33.6809C43.4402 31.834 43.6821 29.9552 43.6615 28.1627C43.6577 27.8327 43.4184 27.2596 42.9434 26.4434" stroke="#7F695E" stroke-width="2"/>
<path d="M42.9437 26.4433C41.6437 24.2508 40.8718 21.8958 40.628 19.3783C40.6271 19.3673 40.6228 19.3569 40.6158 19.3484C40.6089 19.34 40.5995 19.3338 40.5889 19.3307C40.5784 19.3277 40.5671 19.3279 40.5567 19.3314C40.5463 19.3348 40.5372 19.3414 40.5305 19.3501C35.9124 25.2883 27.5612 27.3076 20.4137 26.5951C20.4021 26.5939 20.3911 26.5895 20.3818 26.5826C20.3724 26.5757 20.3651 26.5664 20.3605 26.5558C20.356 26.5451 20.3543 26.5334 20.3557 26.5219C20.3571 26.5103 20.3616 26.4994 20.3687 26.4901C21.1937 25.4114 22.2799 24.7345 23.6274 24.4595C23.6436 24.457 23.6512 24.4476 23.6499 24.4314C23.6499 24.4151 23.6486 24.3989 23.6461 24.3826C23.6436 24.3689 23.6362 24.362 23.6237 24.362C21.8555 24.3864 18.1524 24.9451 17.0087 26.2408C15.9587 27.4295 16.3037 29.2689 16.2887 30.7051C16.2699 32.402 15.7993 34.652 13.6655 34.8095" stroke="#775956" stroke-width="2"/>
<path d="M13.6655 34.8094C15.0568 34.1025 15.548 31.8844 13.8118 31.2188" stroke="#7A5D58" stroke-width="2"/>
<path d="M13.8118 31.2186C13.6555 31.0524 13.5287 30.7661 13.4312 30.3599" stroke="#386F74" stroke-width="2"/>
<path d="M13.5283 19.4214L11.9814 22.9558" stroke="#4A7876" stroke-width="2"/>
<path d="M11.9817 22.9556C11.833 23.0481 11.7305 23.1912 11.6742 23.3849C11.6555 23.4487 11.6136 23.4781 11.5486 23.4731C11.1674 23.4443 10.9036 23.4849 10.7574 23.5949C10.0461 24.1299 9.24799 24.4481 8.36299 24.5493C8.30549 24.5568 8.25986 24.5837 8.22611 24.6299L7.82861 25.1737" stroke="#7FB998" stroke-width="2"/>
<path d="M7.82842 25.1739C7.72467 25.1576 7.66842 25.1345 7.65967 25.1045" stroke="#9BC79F" stroke-width="2"/>
<path d="M7.65948 25.1044C7.7626 25.0013 7.7176 24.8906 7.6051 24.8213C7.04385 24.4775 6.44322 24.2 5.80322 23.9888" stroke="#7FB998" stroke-width="2"/>
<path d="M11.7847 17.7281L11.8016 17.4712C11.8023 17.4606 11.801 17.45 11.7976 17.4399C11.7943 17.4299 11.7889 17.4205 11.782 17.4125C11.775 17.4045 11.7665 17.398 11.757 17.3932C11.7475 17.3885 11.7372 17.3857 11.7266 17.385L11.6028 17.3775C11.4841 17.3697 11.3691 17.3803 11.2828 17.407C11.1964 17.4337 11.1457 17.4743 11.1415 17.52L11.1359 17.5912C11.1342 17.6141 11.1443 17.6375 11.1654 17.6602C11.1866 17.6828 11.2184 17.7042 11.2592 17.7232C11.2999 17.7422 11.3488 17.7584 11.4029 17.7708C11.457 17.7832 11.5154 17.7917 11.5747 17.7956L11.6984 17.805C11.7092 17.8058 11.72 17.8044 11.7301 17.8009C11.7403 17.7974 11.7497 17.7919 11.7578 17.7848C11.7658 17.7776 11.7723 17.7689 11.777 17.7592C11.7816 17.7494 11.7842 17.7389 11.7847 17.7281Z" stroke="#9BC79F" stroke-width="2"/>
<path d="M49.144 19.5488C49.7915 20.8113 50.3315 22.2263 50.764 23.7938C50.7828 23.8626 50.8278 23.8907 50.899 23.8782C51.0715 23.8457 51.1965 23.8788 51.274 23.9776" stroke="#6EAF95" stroke-width="2"/>
<path d="M51.2741 23.9775L51.1541 24.6038C51.1416 24.67 51.1035 24.7132 51.0397 24.7332L50.2785 24.9694C50.2538 24.9772 50.2324 24.993 50.2178 25.0143C50.2031 25.0356 50.196 25.0612 50.1975 25.087C50.199 25.1128 50.209 25.1374 50.2261 25.1569C50.2431 25.1763 50.2662 25.1895 50.2916 25.1944L51.0716 25.3407C51.0988 25.3459 51.1244 25.3575 51.1462 25.3745C51.1681 25.3914 51.1855 25.4132 51.1972 25.4382C51.381 25.8257 51.4885 26.2769 51.5197 26.7919" stroke="#93B997" stroke-width="2"/>
<path d="M51.5195 26.792L51.557 27.5982C51.5595 27.657 51.5889 27.6951 51.6452 27.7126C51.8683 27.782 51.9395 29.0889 51.9827 29.3682C51.9927 29.432 51.9845 29.4932 51.9583 29.552C51.8133 29.8795 51.8064 30.207 51.9377 30.5345C51.9614 30.5945 51.9602 30.6539 51.9339 30.7126C51.8302 30.9439 51.7845 31.1614 51.797 31.3651" stroke="#6EAF95" stroke-width="2"/>
<path d="M51.7973 31.3652C51.6836 31.639 51.5067 31.8221 51.2667 31.9146C51.208 31.9371 51.208 31.9615 51.2667 31.9877L51.548 32.1115" stroke="#93B997" stroke-width="2"/>
<path d="M51.5479 32.1113C51.5779 33.4238 51.4154 34.7713 51.0604 36.1538C50.6142 37.8882 50.3592 39.5232 49.2679 41.117C49.0892 41.3782 48.9804 41.5932 48.9417 41.762C48.8804 42.0307 48.8954 42.2795 48.9867 42.5082" stroke="#65AA94" stroke-width="2"/>
<path d="M48.9866 42.5083L48.9604 43.5077C48.9579 43.5852 48.9179 43.6252 48.8404 43.6277C47.8754 43.6602 47.6704 43.747 48.2254 43.8883" stroke="#93B997" stroke-width="2"/>
<path d="M48.2255 43.8882C47.0605 45.4094 45.9662 46.9713 44.9424 48.5738C44.3349 49.5226 43.2399 50.0757 42.2218 50.4601C40.9455 50.9401 39.6587 51.3901 38.3612 51.8101C38.1899 51.8651 38.0049 52.0263 37.8062 52.2938" stroke="#65AA94" stroke-width="2"/>
<path d="M37.8062 52.2939C37.0374 49.8002 36.1843 47.9721 33.8087 46.5883C33.7524 46.5558 33.7305 46.5077 33.743 46.4439C33.7893 46.1989 33.7374 46.0971 33.5874 46.1383" stroke="#539B8F" stroke-width="2"/>
<path d="M33.5874 46.1383C38.0462 45.0414 42.1768 42.692 43.7443 38.072C43.7668 38.0033 43.8124 37.9808 43.8812 38.0045C45.7749 38.6758 47.7418 38.0533 48.8124 36.3883C49.7162 34.9802 49.5249 33.3977 48.2855 32.2952C47.7549 31.8245 46.9262 31.6108 46.2549 31.2227" stroke="#A79878" stroke-width="2"/>
<path d="M43.2361 45.4913L42.6717 45.5963C42.6582 45.5989 42.6458 45.6058 42.6366 45.6161C42.6273 45.6263 42.6217 45.6392 42.6204 45.653C42.6191 45.6667 42.6223 45.6805 42.6296 45.6922C42.6368 45.704 42.6476 45.7131 42.6605 45.7181C42.8142 45.7781 42.9736 45.7944 43.1386 45.7669C43.1722 45.7616 43.2066 45.7673 43.2367 45.7832C43.2668 45.7991 43.2909 45.8243 43.3055 45.855C43.3967 46.0488 43.4386 46.2581 43.4311 46.4831C43.4307 46.4964 43.4345 46.5095 43.4422 46.5205C43.4498 46.5314 43.4607 46.5396 43.4734 46.5438C43.486 46.548 43.4997 46.548 43.5123 46.5439C43.525 46.5397 43.5359 46.5315 43.5436 46.5206C43.6461 46.3769 43.6592 46.2269 43.5829 46.0706C43.5217 45.9456 43.5598 45.8925 43.6973 45.9113C43.8236 45.93 43.9373 45.9038 44.0386 45.8325C44.0514 45.8236 44.0616 45.8115 44.0682 45.7974C44.0748 45.7832 44.0776 45.7676 44.0763 45.7519C44.075 45.7362 44.0696 45.721 44.0607 45.7079C44.0518 45.6947 44.0396 45.6841 44.0255 45.6769L43.8192 45.5756C43.7655 45.5506 43.7305 45.5094 43.7142 45.4519L43.5117 44.7169C43.5073 44.6962 43.4954 44.6779 43.4782 44.6656C43.461 44.6533 43.4398 44.6479 43.4188 44.6505C43.3978 44.6531 43.3786 44.6635 43.3649 44.6796C43.3512 44.6957 43.344 44.7164 43.3448 44.7375L43.3317 45.3788C43.3305 45.4425 43.2986 45.48 43.2361 45.4913Z" stroke="#93B997" stroke-width="2"/>
<path d="M54.3398 25.0161C55.0973 29.6286 54.9679 34.183 53.5654 38.6492" stroke="#598F80" stroke-width="2"/>
<path d="M53.5654 38.6494C52.9316 40.4469 52.0872 42.1325 51.0322 43.7063" stroke="#568679" stroke-width="2"/>
<path d="M51.0321 43.7065C49.9915 44.2709 51.5983 40.8846 51.6471 40.7928C52.894 38.5034 52.8527 35.3084 52.6877 32.7321C52.669 32.4484 52.5533 32.1884 52.3408 31.9521" stroke="#76B597" stroke-width="2"/>
<path d="M52.3411 31.9521L51.7974 31.3652" stroke="#A3C49A" stroke-width="2"/>
<path d="M51.5196 26.7921C51.6758 26.4571 51.7558 26.1077 51.7596 25.7439C51.7596 25.7095 51.7663 25.6753 51.7795 25.6435C51.7927 25.6116 51.8121 25.5827 51.8364 25.5583C52.1114 25.2733 52.4477 25.1021 52.8452 25.0446C53.2064 24.9921 53.2108 24.9071 52.8583 24.7896C52.5096 24.6752 51.872 24.9996 51.7877 24.3452C51.7389 23.9702 51.6746 23.5983 51.5946 23.2296C51.5902 23.2118 51.58 23.1959 51.5656 23.1846C51.5512 23.1732 51.5334 23.167 51.5153 23.167C51.4971 23.167 51.4796 23.1732 51.4658 23.1846C51.4519 23.1959 51.4424 23.2118 51.4389 23.2296L51.2739 23.9777" stroke="#A3C49A" stroke-width="2"/>
<path d="M42.9433 26.4433L42.6189 26.4864C42.5626 26.4939 42.5176 26.4752 42.4839 26.4302C41.5314 25.1177 40.8326 23.6783 40.3876 22.1121C40.3664 22.0371 40.3276 22.0258 40.2714 22.0783C35.2126 26.779 29.1114 28.0615 22.3708 27.679C21.4501 27.6265 20.7358 27.3246 19.9445 26.9215C19.712 26.804 19.4801 26.7508 19.2489 26.7621C18.2908 26.8071 17.3364 26.6702 17.237 27.9602C17.1151 29.5015 16.7214 31.054 16.6539 32.509C16.5676 34.3108 16.4589 35.7208 16.8189 37.0558" stroke="#F29362" stroke-width="2"/>
<path d="M16.8192 37.0558C15.3179 37.5921 14.2404 37.1983 13.5867 35.8746C13.3979 35.4896 13.4242 35.1346 13.6654 34.8096" stroke="#EE875C" stroke-width="2"/>
<path d="M12.7164 22.2148L11.9814 22.9555" stroke="#386F74" stroke-width="2"/>
<path d="M12.9395 23.9062L12.992 24.4463" stroke="#539689" stroke-width="2"/>
<path d="M13.8116 31.2188C13.6779 31.3087 13.5341 31.3494 13.3804 31.3406" stroke="#AF9D7A" stroke-width="2"/>
<path d="M13.3804 31.3408C10.551 31.7758 10.3766 35.1321 12.1166 36.8346" stroke="#9BBE99" stroke-width="2"/>
<path d="M12.1167 36.8345L13.0036 37.5151" stroke="#AF9D7A" stroke-width="2"/>
<path d="M13.0034 37.5151C13.3646 37.9014 13.2134 37.9926 12.5496 37.7889C12.4996 37.7739 12.4546 37.7826 12.4146 37.8151C12.2159 37.9739 12.014 38.1301 11.809 38.2839C11.4734 38.537 10.9915 38.5839 10.6802 38.9551C10.399 39.2945 10.5396 39.7164 10.054 40.0501C10.0015 40.0851 9.96461 40.1333 9.94336 40.1945C9.75961 40.7101 9.56273 41.2651 8.92711 41.1358C8.89187 41.1283 8.85511 41.1346 8.82441 41.1535C8.79371 41.1723 8.77141 41.2022 8.76211 41.237C8.71961 41.3983 8.60774 41.4726 8.42649 41.4601C8.35399 41.4564 8.30711 41.4889 8.28586 41.5576L8.25023 41.6664C8.22773 41.7364 8.18836 41.7483 8.13211 41.702L8.01586 41.6064C8.00525 41.5972 7.99214 41.5916 7.97824 41.5902C7.96434 41.5888 7.9503 41.5917 7.93795 41.5986C7.92559 41.6055 7.91551 41.616 7.909 41.6288C7.9025 41.6415 7.89987 41.656 7.90148 41.6701L7.93148 41.9158C7.94023 41.9833 7.91399 42.002 7.85274 41.972L7.61274 41.8576C7.60928 41.8557 7.6064 41.8528 7.60451 41.8493C7.60263 41.8458 7.60183 41.8418 7.60225 41.8381C7.60267 41.8343 7.60428 41.8309 7.60684 41.8283C7.6094 41.8258 7.61278 41.8242 7.61648 41.8239L7.68211 41.8126C7.72711 41.8051 7.73336 41.7858 7.70086 41.7545L7.63898 41.6908C7.61648 41.6683 7.59086 41.6651 7.56211 41.6814C7.53961 41.6951 7.50523 41.7083 7.45898 41.7208" stroke="#60A894" stroke-width="2"/>
<path d="M7.45893 41.7206C6.40018 39.6731 5.7083 37.5081 5.3833 35.2256" stroke="#4B7C75" stroke-width="2"/>
<path d="M7.65958 25.1044C7.48333 25.0857 7.37771 25.1588 7.34271 25.3238C7.3375 25.3478 7.33759 25.3727 7.34299 25.3967C7.34838 25.4206 7.35895 25.4431 7.37395 25.4626C7.38895 25.4821 7.40802 25.498 7.42983 25.5093C7.45164 25.5207 7.47566 25.5271 7.50021 25.5282C7.65021 25.5344 7.77146 25.4763 7.86396 25.3538C7.89146 25.3163 7.8927 25.2776 7.8677 25.2376L7.82833 25.1738" stroke="#89BD9E" stroke-width="2"/>
<path d="M6.95647 34.6293C6.90522 34.7706 6.95522 34.8681 7.10647 34.9218C7.13097 34.9304 7.15706 34.9334 7.18288 34.9307C7.2087 34.928 7.23361 34.9197 7.25582 34.9062C7.27804 34.8928 7.29701 34.8746 7.31138 34.853C7.32575 34.8314 7.33517 34.8069 7.33896 34.7812C7.37771 34.5262 7.27272 34.4512 7.02397 34.5562C6.99281 34.5705 6.96854 34.5968 6.95647 34.6293Z" stroke="#89BD9E" stroke-width="2"/>
<path d="M43.7123 33.6806L43.718 33.7706C43.723 33.8369 43.6917 33.87 43.6242 33.87H43.5323C43.4748 33.87 43.4448 33.8413 43.4423 33.7838C43.4411 33.7388 43.438 33.6913 43.433 33.6413C43.4205 33.5213 43.4086 33.5213 43.3973 33.6413C42.7917 39.9469 39.4392 42.9506 33.8198 45.0488C33.1486 45.2988 32.4767 45.5731 31.8042 45.8719" stroke="#F69764" stroke-width="2"/>
<path d="M31.804 45.8721L28.3896 46.1233" stroke="#E58B5F" stroke-width="2"/>
<path d="M28.3896 46.123L27.4165 46.228" stroke="#A19B7B" stroke-width="2"/>
<path d="M27.4169 46.2284C22.3169 45.4221 18.4056 42.8271 16.9375 37.6465" stroke="#A6A27E" stroke-width="2"/>
<path d="M16.937 37.6463L16.8188 37.0557" stroke="#F69764" stroke-width="2"/>
<path d="M35.6889 29.1712C35.4227 29.5837 35.4445 29.9287 35.7545 30.2062C36.2327 30.6318 36.7952 30.4125 37.3895 30.3075C38.4583 30.12 39.8008 31.1962 40.5377 31.9387C40.7477 32.1512 40.932 32.1431 41.0908 31.9143C41.1211 31.8708 41.1398 31.8202 41.1451 31.7673C41.1503 31.7145 41.142 31.6612 41.1208 31.6125C40.4545 30.04 39.3096 29.045 37.6858 28.6275C36.9471 28.4381 36.1089 28.5187 35.6889 29.1712Z" stroke="#8E543A" stroke-width="2"/>
<path d="M22.7159 28.8C21.2065 28.7831 19.2415 29.7825 18.9115 31.3819C18.8628 31.6194 18.9409 31.7875 19.1459 31.8863C19.2021 31.9138 19.2571 31.9106 19.3109 31.8769C20.5221 31.0988 21.3621 30.0863 22.9596 30.8269C25.0821 31.8131 25.1984 28.8281 22.7159 28.8Z" stroke="#8E543A" stroke-width="2"/>
<path d="M19.397 35.5015C19.5107 36.0377 19.7451 36.304 20.1001 36.3002" stroke="#E7A269" stroke-width="2"/>
<path d="M20.1001 36.3003C21.092 36.7372 22.6445 37.189 23.7264 36.8122C23.7485 36.8041 23.7674 36.789 23.7802 36.769C23.7931 36.7491 23.7992 36.7254 23.7976 36.7015C23.7926 36.619 23.7551 36.5797 23.6851 36.5834" stroke="#F9CCAF" stroke-width="2"/>
<path d="M23.6854 36.5834C25.0486 35.6402 24.8648 33.9209 23.5786 33.0659C22.0842 32.0721 20.2467 32.7059 19.2698 34.0877C18.8973 34.614 18.9398 35.0852 19.3973 35.5015" stroke="#94563A" stroke-width="2"/>
<path d="M23.6852 36.5833C22.6596 37.0464 21.4952 36.5833 21.2009 35.5127C21.0171 34.8471 21.4577 33.7108 22.2771 33.6677C22.3133 33.6658 22.3491 33.6761 22.3788 33.6968C22.4085 33.7176 22.4305 33.7476 22.4412 33.7822C22.452 33.8168 22.4509 33.854 22.4381 33.8879C22.4254 33.9219 22.4017 33.9506 22.3709 33.9696C22.1809 34.0871 22.0977 34.2527 22.1215 34.4664C22.1281 34.5253 22.1489 34.5817 22.1821 34.6308C22.2152 34.6799 22.2598 34.7203 22.3119 34.7484C22.364 34.7766 22.4222 34.7918 22.4814 34.7926C22.5406 34.7935 22.5992 34.78 22.6521 34.7533C23.2634 34.4477 23.254 33.8552 22.639 33.5852C21.2365 32.9664 19.7102 34.0408 19.459 35.4527" stroke="#937F7E" stroke-width="2"/>
<path d="M19.4589 35.4526C19.4401 35.4926 19.4195 35.5089 19.397 35.5014" stroke="#805539" stroke-width="2"/>
<path d="M20.1002 36.3001C19.7402 36.1126 19.5265 35.8301 19.459 35.4526" stroke="#E6CBAE" stroke-width="2"/>
<path d="M35.7322 35.353C35.6009 36.0343 35.9641 36.528 36.8216 36.8343C37.6541 37.1305 40.8153 37.2055 40.6653 35.6737" stroke="#F9CCAF" stroke-width="2"/>
<path d="M40.6654 35.6736C41.0554 35.1824 41.1773 34.6949 40.791 34.138C39.3248 32.0211 35.5316 32.2255 35.7323 35.353" stroke="#8E543A" stroke-width="2"/>
<path d="M40.6656 35.6737C40.3937 32.7694 36.4824 32.94 37.1912 34.5019C37.2138 34.5517 37.2471 34.596 37.2888 34.6315C37.3304 34.667 37.3794 34.6929 37.4322 34.7074C37.4849 34.7219 37.5403 34.7246 37.5942 34.7154C37.6482 34.7061 37.6994 34.685 37.7443 34.6537L38.0387 34.4475" stroke="#8D7D7E" stroke-width="2"/>
<path d="M38.0386 34.4475L38.3273 34.1025" stroke="#370F0E" stroke-width="2"/>
<path d="M38.3271 34.1025L38.6984 34.4888" stroke="#4B1F1A" stroke-width="2"/>
<path d="M38.6986 34.4888C38.4561 35.4475 37.8679 35.805 36.9342 35.5613C36.8859 35.5484 36.8346 35.5523 36.7889 35.5726C36.7431 35.5928 36.7057 35.628 36.6827 35.6724C36.6598 35.7168 36.6526 35.7678 36.6626 35.8168C36.6725 35.8658 36.6989 35.9099 36.7373 35.9419L37.0111 36.1725C37.0723 36.2238 37.0829 36.2838 37.0429 36.3525L36.8798 36.6431" stroke="#370F0E" stroke-width="2"/>
<path d="M36.8799 36.643C36.3649 36.4868 35.9824 36.0568 35.7324 35.353" stroke="#8D7D7E" stroke-width="2"/>
<path d="M36.8799 36.6432C38.5149 37.247 39.5818 35.3982 38.8936 34.1532C38.6311 33.6826 38.0536 33.4295 37.6186 33.8457" stroke="#A28783" stroke-width="2"/>
<path d="M37.6186 33.8457C37.3954 33.9732 37.2811 34.4101 37.6073 34.4307C37.6205 34.4319 37.6338 34.4294 37.6456 34.4234C37.6575 34.4175 37.6675 34.4084 37.6746 34.397C37.6818 34.3857 37.6857 34.3725 37.6861 34.359C37.6864 34.3454 37.6832 34.332 37.6767 34.3201C37.5479 34.0888 37.5586 33.9495 37.7086 33.902" stroke="#97B2B1" stroke-width="2"/>
<path d="M37.7085 33.9019C37.8697 33.9919 37.9797 34.1737 38.0385 34.4475" stroke="#A28783" stroke-width="2"/>
<path d="M38.6984 34.4888C38.8184 34.2338 38.6947 34.105 38.3271 34.1025" stroke="#60281F" stroke-width="2"/>
<path d="M37.7087 33.902C37.7149 33.8895 37.6849 33.8707 37.6187 33.8457" stroke="#414341" stroke-width="2"/>
<path d="M40.5527 37.2677L40.2621 37.5059C40.2481 37.5173 40.2366 37.5313 40.2281 37.5472C40.2196 37.5631 40.2143 37.5806 40.2126 37.5985C40.2108 37.6165 40.2126 37.6346 40.2179 37.6518C40.2232 37.6691 40.2318 37.6851 40.2433 37.699L40.3127 37.7815C40.4041 37.8928 40.5159 37.9798 40.6235 38.0234C40.7311 38.067 40.8256 38.0636 40.8864 38.014L40.9296 37.9784C40.9598 37.9537 40.9808 37.9184 40.9913 37.8744C41.0019 37.8304 41.0017 37.7786 40.9909 37.722C40.9801 37.6654 40.9589 37.6051 40.9284 37.5445C40.8979 37.4839 40.8588 37.4243 40.8133 37.369L40.7458 37.2865C40.7344 37.2725 40.7203 37.261 40.7044 37.2525C40.6885 37.244 40.6711 37.2387 40.6531 37.237C40.6352 37.2352 40.6171 37.237 40.5998 37.2423C40.5826 37.2476 40.5666 37.2562 40.5527 37.2677Z" stroke="#FBB27F" stroke-width="2"/>
<path d="M26.5991 41.9121C27.5304 42.4959 28.5304 42.9334 29.5991 43.2246" stroke="#94563A" stroke-width="2"/>
<path d="M29.5991 43.2246C30.8641 43.4883 32.0691 43.2964 33.2141 42.6489" stroke="#C76341" stroke-width="2"/>
<path d="M33.2139 42.6491C34.0077 42.2791 34.7202 41.8053 35.3514 41.2278C35.4264 41.1591 35.4146 41.1347 35.3158 41.1547C32.4433 41.7335 29.6064 41.9197 26.8052 41.7135" stroke="#94563A" stroke-width="2"/>
<path d="M26.8054 41.7132C25.3254 41.4669 23.9642 41.0819 22.7217 40.5582C22.6304 40.5194 22.5761 40.5482 22.5586 40.6444L22.5229 40.8207C22.5104 40.8894 22.5379 40.9319 22.6054 40.9482L26.5992 41.9119" stroke="#E58B5F" stroke-width="2"/>
<path d="M26.8054 41.7134C26.6404 41.7521 26.5717 41.8184 26.5992 41.9121" stroke="#7E3E2E" stroke-width="2"/>
<path d="M33.2141 42.6487C33.0154 42.5262 32.8041 42.4587 32.5804 42.4462C32.5179 42.4425 32.4629 42.42 32.4154 42.3787C32.1604 42.15 31.8735 42.0537 31.5547 42.09C30.6435 42.195 29.9272 42.1462 29.5991 43.2243" stroke="#601611" stroke-width="2"/>
<path d="M33.587 46.1381C33.1395 46.2106 32.687 46.1906 32.2295 46.0781" stroke="#9D8F75" stroke-width="2"/>
<path d="M32.2298 46.0783L31.8042 45.8721" stroke="#E07F59" stroke-width="2"/>
<path d="M44.0012 34.4778L43.8624 37.3709C43.8613 37.3994 43.8685 37.4276 43.8831 37.4522C43.8977 37.4768 43.9192 37.4967 43.9449 37.5097C44.9255 37.9972 46.3299 36.9303 46.8287 36.1897C47.5899 35.0572 46.3037 33.9772 45.488 33.4409C45.438 33.4084 45.4037 33.3628 45.3849 33.3041L45.1262 32.4659C45.1174 32.4372 45.1099 32.4378 45.1037 32.4678C44.9068 33.4728 45.038 33.8516 45.8218 34.4872C45.8433 34.5047 45.8576 34.5297 45.8617 34.5574C45.8659 34.5851 45.8597 34.6135 45.8443 34.6372C45.8018 34.6984 45.7562 34.7434 45.7074 34.7722" stroke="#E07F59" stroke-width="2"/>
<path d="M16.9372 37.6464C15.9784 38.1676 14.9909 38.2808 13.9747 37.9858C13.654 37.892 13.3522 37.6314 13.0034 37.5151" stroke="#A29678" stroke-width="2"/>
<path d="M12.1168 36.8346C11.4705 35.9471 11.2043 35.0021 11.318 33.9996C11.3799 33.4539 11.8355 32.3946 12.2255 32.0439C12.5293 31.7739 12.9143 31.5396 13.3805 31.3408" stroke="#DDAC7D" stroke-width="2"/>
<path d="M52.341 31.9521C51.9322 32.3071 51.6679 32.3603 51.5479 32.1115" stroke="#9BBE99" stroke-width="2"/>
<path d="M31.4556 55.1178L34.1049 54.7446" stroke="#407975" stroke-width="2"/>
<path d="M34.1045 54.7445L34.9782 54.5814C35.0457 54.5689 35.0807 54.5276 35.0832 54.4576C35.107 53.3176 35.0376 52.1826 34.8751 51.0526C34.8735 51.0356 34.878 51.0186 34.8879 51.0046C34.8978 50.9907 34.9124 50.9808 34.929 50.9767C34.9456 50.9726 34.9631 50.9746 34.9783 50.9823C34.9936 50.9901 35.0055 51.0031 35.012 51.0189C35.3907 52.0814 35.6432 53.1726 35.7695 54.2926C35.7713 54.3069 35.776 54.3206 35.7833 54.3329C35.7907 54.3451 35.8005 54.3556 35.8121 54.3637C35.8236 54.3717 35.8367 54.377 35.8504 54.3793C35.8641 54.3816 35.8781 54.3808 35.8914 54.377L38.1826 53.7489" stroke="#3B7273" stroke-width="2"/>
<path d="M38.1826 53.749C43.6639 51.9178 47.947 48.5703 51.032 43.7065" stroke="#4D8178" stroke-width="2"/>
<path d="M38.183 53.7489L37.8062 52.2939" stroke="#5BA191" stroke-width="2"/>
<path d="M48.2251 43.8883C48.4688 43.9183 48.6707 44.0008 48.8307 44.1358C48.8782 44.1758 48.9051 44.2264 48.9114 44.2877L49.0389 45.3658C49.0526 45.4758 49.0845 45.4814 49.1345 45.3827C49.367 44.9195 49.3276 44.5127 49.502 44.1414C49.532 44.0789 49.5814 44.0464 49.6501 44.0439C49.8776 44.0352 50.0614 43.9502 50.2014 43.7889C50.2132 43.7753 50.2212 43.7587 50.2247 43.741C50.2281 43.7232 50.2268 43.7049 50.2209 43.6878C50.215 43.6707 50.2048 43.6555 50.1911 43.6436C50.1775 43.6317 50.161 43.6236 50.1432 43.6202L49.6501 43.5245C49.6136 43.5169 49.5792 43.5014 49.5491 43.4791C49.519 43.4568 49.494 43.4281 49.4757 43.3952L48.9863 42.5083" stroke="#9BBE99" stroke-width="2"/>
<path d="M21.7079 34.467C21.7199 34.4756 21.7347 34.4801 21.7515 34.4801C21.7684 34.4801 21.7868 34.4757 21.8059 34.467C21.8249 34.4584 21.8442 34.4458 21.8626 34.4299C21.881 34.414 21.8981 34.3951 21.9131 34.3743C21.928 34.3535 21.9405 34.3312 21.9497 34.3087C21.9589 34.2862 21.9647 34.2639 21.9668 34.2431C21.9689 34.2223 21.9672 34.2034 21.9618 34.1875C21.9564 34.1715 21.9475 34.1589 21.9355 34.1503C21.9235 34.1417 21.9087 34.1372 21.8919 34.1372C21.8751 34.1372 21.8566 34.1416 21.8376 34.1502C21.8185 34.1588 21.7992 34.1715 21.7808 34.1874C21.7625 34.2033 21.7453 34.2222 21.7303 34.243C21.7154 34.2638 21.703 34.2861 21.6938 34.3086C21.6845 34.3311 21.6787 34.3534 21.6766 34.3742C21.6746 34.395 21.6763 34.4139 21.6816 34.4298C21.687 34.4457 21.6959 34.4584 21.7079 34.467Z" stroke="#684633" stroke-width="2"/>
<path d="M7.45898 41.7207C10.9071 48.3282 17.0496 53.072 24.4071 54.4895" stroke="#3D7472" stroke-width="2"/>
<path d="M24.4072 54.4893L25.0935 54.6355" stroke="#316267" stroke-width="2"/>
<path d="M25.0938 54.6357C27.1413 55.0707 29.2619 55.2314 31.4556 55.1176" stroke="#3D7472" stroke-width="2"/>
<path d="M27.4166 46.228C27.4578 46.6505 27.3491 46.8337 27.0903 46.7774" stroke="#4D998F" stroke-width="2"/>
<path d="M27.0905 46.7778C25.3968 47.5253 24.1374 48.7966 23.3124 50.5916C22.8299 51.6403 22.4986 52.6585 22.3186 53.646C22.3176 53.6541 22.3193 53.6622 22.3234 53.6691C22.3275 53.6759 22.3338 53.681 22.3411 53.6835C22.3574 53.6885 22.3736 53.6935 22.3899 53.6985C22.4386 53.7135 22.4674 53.696 22.4761 53.646C22.8999 51.2797 24.0999 48.861 26.093 47.4416" stroke="#80B798" stroke-width="2"/>
<path d="M26.0928 47.4413C26.2603 47.5288 26.4203 47.5076 26.5728 47.3776C26.6253 47.3326 26.6796 47.3295 26.7359 47.3682C26.8196 47.427 26.8965 47.4619 26.9665 47.4732" stroke="#4D998F" stroke-width="2"/>
<path d="M26.9668 47.4731L27.008 48.4519C27.0092 48.4838 27.0202 48.5147 27.0396 48.5405C27.059 48.5662 27.0859 48.5857 27.1168 48.5963C27.3755 48.6838 27.5774 48.6131 27.7224 48.3844C27.7432 48.3511 27.7749 48.3238 27.8121 48.3071C27.8493 48.2904 27.89 48.2852 27.9273 48.2924C27.9646 48.2996 27.9964 48.3188 28.0174 48.3467C28.0385 48.3747 28.0475 48.4098 28.043 48.4463C27.9955 48.8663 28.1568 49.1344 28.5268 49.2506C28.593 49.2719 28.6418 49.2513 28.673 49.1888L28.9974 48.5438C29.0044 48.5297 29.0147 48.5176 29.0275 48.5085C29.0403 48.4993 29.0551 48.4935 29.0707 48.4915C29.0862 48.4894 29.1021 48.4912 29.1168 48.4968C29.1315 48.5023 29.1446 48.5114 29.1549 48.5231L29.8187 49.29C29.8625 49.34 29.9202 49.3757 29.9845 49.3924C30.0488 49.4092 30.1166 49.4063 30.1793 49.3841C30.2419 49.3619 30.2964 49.3214 30.3357 49.2678C30.3751 49.2143 30.3974 49.1502 30.3999 49.0838C30.4074 48.8675 30.4768 48.6425 30.608 48.4088" stroke="#A2C4A5" stroke-width="2"/>
<path d="M30.6079 48.409L30.6285 48.3621C30.6535 48.3059 30.6767 48.3065 30.6979 48.364C30.8279 48.7215 31.0429 49.0177 31.3429 49.2527C31.3716 49.2755 31.407 49.2883 31.4438 49.2893C31.4806 49.2903 31.5169 49.2795 31.5473 49.2584C31.881 49.0284 32.0567 48.7065 32.0742 48.2927C32.0755 48.2589 32.0888 48.2266 32.1118 48.2017C32.1347 48.1768 32.1658 48.1609 32.1995 48.1568C32.2331 48.1527 32.2671 48.1608 32.2953 48.1795C32.3236 48.1982 32.3442 48.2264 32.3535 48.259C32.4185 48.4815 32.5985 48.6359 32.8935 48.7221" stroke="#8DB797" stroke-width="2"/>
<path d="M32.8936 48.7222C33.0636 48.8872 33.2473 48.9965 33.4448 49.0503C33.4717 49.0574 33.4968 49.0705 33.5182 49.0886C33.5396 49.1068 33.5568 49.1296 33.5686 49.1553C33.6823 49.4078 33.7517 49.6409 33.7767 49.8547C33.9404 51.2872 34.0498 52.9172 34.1048 54.7447" stroke="#4D998F" stroke-width="2"/>
<path d="M25.0935 54.6355C25.0872 53.4868 25.2291 52.3618 25.5191 51.2605C25.5541 51.1293 25.5404 51.1243 25.4779 51.2455C24.9491 52.2693 24.5922 53.3505 24.4072 54.4893" stroke="#468E86" stroke-width="2"/>
<path d="M32.2296 46.0781C31.8109 47.1281 30.9328 47.5625 29.5953 47.3813C28.8665 47.2825 28.4646 46.8631 28.3896 46.1231" stroke="#8C8270" stroke-width="2"/>
<path d="M32.8936 48.7219C33.4617 48.7219 33.4448 47.6925 33.4655 47.2781C33.466 47.2607 33.4615 47.2435 33.4523 47.2287C33.4431 47.2139 33.4298 47.2022 33.4139 47.1949C33.3981 47.1877 33.3804 47.1854 33.3632 47.1882C33.3461 47.1909 33.3301 47.1988 33.3173 47.2106C32.5636 47.9181 31.6373 48.2619 30.5386 48.2419" stroke="#88B094" stroke-width="2"/>
<path d="M30.5387 48.2419C29.4324 48.33 27.9174 48.2419 27.2593 47.2312C27.2205 47.1712 27.1693 47.1575 27.1055 47.19C27.0268 47.23 26.9805 47.3244 26.9668 47.4731" stroke="#9DBDA3" stroke-width="2"/>
<path d="M26.0928 47.4416C26.5553 47.2566 26.8878 47.0353 27.0903 46.7778" stroke="#7BB095" stroke-width="2"/>
<path d="M30.5386 48.2422L30.608 48.4091" stroke="#DDDBAB" stroke-width="2"/>
<path d="M38.4811 6.41636C38.4342 6.55136 38.393 6.63948 38.2317 6.59636C37.493 6.40011 36.7555 6.19448 36.0192 5.97948C35.708 5.88948 35.4649 5.84636 35.2899 5.85011C34.658 5.86886 33.8311 6.35073 34.3505 7.08386C34.383 7.13136 34.3961 7.18323 34.3899 7.23948C34.3149 7.89573 33.8011 7.99136 33.3661 8.29136C33.3211 8.32261 33.2717 8.33448 33.218 8.32698C32.988 8.29823 32.7674 8.32698 32.5561 8.41323C32.5453 8.41686 32.5364 8.42436 32.5312 8.43425C32.5259 8.44415 32.5247 8.45573 32.5278 8.46674C32.5308 8.47776 32.5379 8.48741 32.5477 8.49381C32.5574 8.50021 32.5691 8.5029 32.5805 8.50136C33.518 8.39136 34.103 8.63886 34.3355 9.24386L32.2842 8.85198C32.198 8.83573 32.1974 8.81698 32.2824 8.79573C32.4011 8.76698 32.4617 8.68948 32.4642 8.56323C32.4667 8.49698 32.4349 8.46261 32.3686 8.46011C29.0136 8.31386 25.7842 8.84948 22.6805 10.067C22.3142 10.2107 21.9255 10.4089 21.5142 10.6614C20.5692 11.2426 19.6149 11.7807 18.7261 12.4126C17.1849 13.5095 15.8255 14.2989 14.7567 16.0257L14.2299 16.6857C14.1886 16.7382 14.1492 16.7376 14.1117 16.6839C13.4461 15.7557 12.6961 15.8289 11.7642 15.6245C11.2867 15.5195 10.8005 15.5014 10.3055 15.5701C10.2761 15.5741 10.2463 15.5699 10.2191 15.558C10.192 15.546 10.1687 15.5269 10.1517 15.5026C10.073 15.3876 9.97236 15.3476 9.84986 15.3826C9.81236 15.3926 9.78924 15.3789 9.78049 15.3414L9.75049 15.2045C11.2617 13.0632 13.0524 11.2051 15.1224 9.63011C18.7674 6.97761 22.8499 5.41886 27.3699 4.95386C31.1936 4.66886 34.8974 5.15636 38.4811 6.41636Z" fill="#A5CBA5"/>
<path d="M38.4809 6.41657C44.3102 8.60282 49.3952 12.8441 52.174 18.4784C52.0977 18.4959 52.069 18.5566 52.0877 18.6603C52.0952 18.7053 52.0809 18.7147 52.0446 18.6884L51.9996 18.6547C51.9434 18.6134 51.8859 18.6122 51.8271 18.6509C51.5409 18.8447 51.2352 18.9353 50.9102 18.9228C50.579 18.9091 50.3502 18.9241 50.224 18.9678C49.8565 19.0941 49.4965 19.2878 49.144 19.5491C48.3477 17.9616 47.3309 16.8409 46.0934 16.1872C45.4202 14.8072 43.7571 13.4703 42.169 14.0684C42.1052 14.0934 42.0546 14.0772 42.0171 14.0197C40.6521 11.9478 37.6596 10.5434 35.389 9.79907C35.2752 9.53657 34.924 9.35157 34.3352 9.24407C34.1027 8.63907 33.5177 8.39157 32.5802 8.50157C32.5689 8.50311 32.5572 8.50042 32.5474 8.49402C32.5377 8.48762 32.5306 8.47797 32.5275 8.46696C32.5245 8.45595 32.5257 8.44436 32.5309 8.43447C32.5362 8.42457 32.5451 8.41708 32.5559 8.41345C32.7671 8.3272 32.9877 8.29845 33.2177 8.3272C33.2715 8.3347 33.3209 8.32282 33.3659 8.29157C33.8009 7.99157 34.3146 7.89595 34.3896 7.2397C34.3959 7.18345 34.3827 7.13157 34.3502 7.08407C33.8309 6.35095 34.6577 5.86907 35.2896 5.85032C35.4646 5.84657 35.7077 5.8897 36.019 5.9797C36.7552 6.1947 37.4927 6.40032 38.2315 6.59657C38.3927 6.6397 38.434 6.55157 38.4809 6.41657ZM44.5484 13.2809C43.9271 13.2897 43.3215 13.3934 42.7315 13.5922C42.5802 13.6434 42.584 13.6747 42.7427 13.6859C43.5115 13.7397 44.2209 13.9803 44.8709 14.4078C44.9521 14.4616 44.9802 14.4409 44.9552 14.3459L44.689 13.3878C44.681 13.3568 44.6627 13.3294 44.6372 13.31C44.6117 13.2906 44.5804 13.2804 44.5484 13.2809Z" fill="#91C299"/>
<path d="M34.3351 9.2438C34.9238 9.3513 35.2751 9.5363 35.3889 9.7988C33.7751 9.3213 32.1407 9.07692 30.4857 9.06567C24.3995 9.28817 19.3845 11.6975 15.4407 16.2938L14.7563 16.0257C15.8251 14.2988 17.1845 13.5094 18.7257 12.4125C19.6145 11.7807 20.5688 11.2425 21.5138 10.6613C21.9251 10.4088 22.3138 10.2107 22.6801 10.0669C25.7838 8.84942 29.0132 8.3138 32.3682 8.46005C32.4345 8.46255 32.4663 8.49692 32.4638 8.56317C32.4613 8.68942 32.4007 8.76692 32.282 8.79567C32.197 8.81692 32.1976 8.83567 32.2839 8.85192L34.3351 9.2438Z" fill="#C8CD9C"/>
<path d="M30.4862 9.06592C30.7574 9.20217 31.0368 9.27029 31.3243 9.27029C31.3466 9.2708 31.3684 9.2769 31.3877 9.28804C31.4071 9.29918 31.4233 9.315 31.4349 9.33404C31.5587 9.54529 31.5224 9.65404 31.3262 9.66029C29.6637 9.72154 28.4262 10.4015 27.6137 11.7003C27.5162 11.8565 27.5387 11.8765 27.6812 11.7603C29.1568 10.5697 30.7787 9.83092 32.6649 9.98092C33.9337 10.0809 34.9287 10.2503 35.6499 10.489C37.8662 11.2222 38.5843 13.3559 37.3205 15.2984C37.3102 15.3145 37.2966 15.3282 37.2808 15.3388C37.2649 15.3495 37.2471 15.3568 37.2283 15.3603C37.2095 15.3638 37.1902 15.3635 37.1716 15.3593C37.153 15.3551 37.1354 15.3471 37.1199 15.3359C35.9299 14.4947 34.6168 14.0265 33.1805 13.9315C32.9087 13.9147 32.6518 13.8097 32.4324 13.7984C30.8237 13.7097 29.2155 13.6953 27.608 13.7553C24.5743 13.8678 21.0643 14.794 18.6118 16.6034C16.8549 17.9009 15.6137 19.0372 14.3593 20.9215C14.303 21.0053 14.1243 21.1697 13.823 21.4147L12.7168 22.2153C12.8518 21.3553 13.143 20.5709 13.5905 19.8622C13.607 19.8357 13.6176 19.806 13.6214 19.7752C13.6253 19.7445 13.6225 19.7134 13.613 19.684L13.5287 19.4215C14.0724 18.334 14.7099 17.2915 15.4412 16.294C19.3849 11.6978 24.3999 9.28842 30.4862 9.06592ZM18.2799 14.479C18.0212 14.6984 17.1305 15.4972 17.2599 15.8459C17.2723 15.8801 17.2922 15.911 17.318 15.9365C17.3439 15.962 17.3751 15.9814 17.4095 15.9932C17.4438 16.0051 17.4803 16.0091 17.5164 16.005C17.5525 16.001 17.5872 15.9889 17.618 15.9697C20.1293 14.4109 22.6918 12.9409 25.3055 11.5597C25.6543 11.3759 25.9787 11.0947 26.2805 10.8528C26.3246 10.8171 26.3567 10.7688 26.3725 10.7143C26.3883 10.6598 26.387 10.6018 26.3689 10.5481C26.3507 10.4944 26.3165 10.4475 26.2708 10.4138C26.2252 10.3801 26.1704 10.3612 26.1137 10.3597C25.7749 10.3497 25.4249 10.4097 25.0637 10.5397C22.5662 11.4447 20.3049 12.7578 18.2799 14.479Z" fill="#076F81"/>
<path d="M30.4861 9.06592C32.1411 9.07717 33.7755 9.32154 35.3892 9.79904C37.6599 10.5434 40.6523 11.9478 42.0173 14.0197C42.0548 14.0772 42.1055 14.0934 42.1692 14.0684C43.7573 13.4703 45.4205 14.8072 46.0936 16.1872C45.6073 16.1334 45.0824 15.9047 44.5186 15.5009C44.3386 15.5372 44.178 15.509 44.0367 15.4165C43.3373 14.959 42.4992 14.7097 41.7267 14.3928C41.4992 14.3003 41.2623 14.2247 41.0161 14.1659C40.9361 14.1472 40.8655 14.1647 40.8042 14.2184L38.033 16.639C38.0193 16.6509 38.0034 16.6598 37.9862 16.6652C37.969 16.6706 37.9508 16.6724 37.9328 16.6704C37.9149 16.6685 37.8975 16.6629 37.8819 16.6539C37.8662 16.645 37.8525 16.6329 37.8417 16.6184C37.343 15.9547 36.6848 15.5184 35.8673 15.3097C35.8498 15.3045 35.831 15.3057 35.8143 15.3131C35.7976 15.3206 35.7841 15.3337 35.7762 15.3502C35.7683 15.3666 35.7666 15.3854 35.7712 15.403C35.7759 15.4207 35.7867 15.4361 35.8017 15.4465L37.4198 16.6015C37.4544 16.6263 37.4824 16.6592 37.5014 16.6973C37.5203 16.7354 37.5296 16.7776 37.5285 16.8202C37.5274 16.8627 37.5159 16.9043 37.495 16.9414C37.4741 16.9784 37.4444 17.0098 37.4086 17.0328C34.7473 18.7315 31.833 19.9178 28.6655 20.5915C24.2948 21.5215 19.6861 22.5284 16.2511 25.6259C15.1017 26.6628 15.1842 28.0878 15.3867 29.5428C15.4786 30.2084 15.3286 30.7147 15.0773 31.2847C15.0554 31.3347 15.0218 31.3786 14.9793 31.4128C14.9368 31.4471 14.8866 31.4706 14.833 31.4814C14.7794 31.4923 14.7238 31.4901 14.6711 31.4751C14.6184 31.4601 14.5699 31.4328 14.5298 31.3953L13.4311 30.3603C13.1161 29.889 12.9105 29.2503 12.8142 28.444C12.6442 27.0303 12.7036 25.6978 12.9923 24.4465C13.1811 24.394 13.3536 24.3809 13.5098 24.4072C13.5303 24.4109 13.5514 24.408 13.5701 24.3988C13.5888 24.3897 13.6041 24.3748 13.6137 24.3564C13.6233 24.338 13.6268 24.317 13.6236 24.2964C13.6205 24.2758 13.6108 24.2568 13.5961 24.2422C13.4386 24.0847 13.2198 23.9728 12.9398 23.9065C13.0961 23.0978 13.3905 22.2672 13.823 21.4147C14.1242 21.1697 14.303 21.0053 14.3592 20.9215C15.6136 19.0372 16.8548 17.9009 18.6117 16.6034C21.0642 14.794 24.5742 13.8678 27.608 13.7553C29.2155 13.6953 30.8236 13.7097 32.4323 13.7984C32.6517 13.8097 32.9086 13.9147 33.1805 13.9315C34.6167 14.0265 35.9298 14.4947 37.1198 15.3359C37.1353 15.3471 37.1529 15.3551 37.1715 15.3593C37.1902 15.3635 37.2094 15.3638 37.2282 15.3603C37.247 15.3568 37.2649 15.3495 37.2807 15.3389C37.2966 15.3282 37.3101 15.3145 37.3205 15.2984C38.5842 13.3559 37.8661 11.2222 35.6498 10.489C34.9286 10.2503 33.9336 10.0809 32.6648 9.98092C30.7786 9.83092 29.1567 10.5697 27.6811 11.7603C27.5386 11.8765 27.5161 11.8565 27.6136 11.7003C28.4261 10.4015 29.6636 9.72154 31.3261 9.66029C31.5223 9.65404 31.5586 9.54529 31.4348 9.33404C31.4232 9.315 31.407 9.29918 31.3877 9.28804C31.3683 9.2769 31.3465 9.2708 31.3242 9.27029C31.0367 9.27029 30.7573 9.20217 30.4861 9.06592ZM21.1317 20.4434C21.1255 20.4659 21.1223 20.489 21.1223 20.5128C21.1219 20.5227 21.124 20.5326 21.1286 20.5414C21.1331 20.5502 21.1399 20.5577 21.1483 20.563C21.1567 20.5684 21.1664 20.5714 21.1763 20.5718C21.1862 20.5722 21.1961 20.5699 21.2048 20.5653C23.4998 19.4065 26.4867 18.3059 28.2023 17.5822C30.1898 16.744 32.3611 16.0915 34.2192 15.0059C34.232 14.9988 34.2424 14.9882 34.2492 14.9753C34.256 14.9623 34.2589 14.9477 34.2575 14.9332C34.2561 14.9187 34.2505 14.9048 34.2414 14.8934C34.2322 14.8821 34.22 14.8736 34.2061 14.869C30.788 13.6503 27.9323 14.3965 24.6492 15.8365C21.6736 17.1434 19.4123 19.0409 17.4792 21.6172C17.3142 21.8365 15.8911 23.7153 15.9998 23.7847C16.0175 23.7965 16.0384 23.8022 16.0592 23.8009C16.0799 23.7995 16.0994 23.7912 16.1142 23.7772C17.593 22.4372 19.2017 21.2765 20.9405 20.2953C20.963 20.2826 20.9887 20.2769 21.0145 20.2787C21.0402 20.2806 21.0648 20.2901 21.0853 20.3059C21.1057 20.3217 21.121 20.3432 21.1292 20.3676C21.1375 20.3921 21.1384 20.4185 21.1317 20.4434ZM15.743 20.8822C16.0542 20.8465 17.2092 19.7234 17.5561 19.4778C19.0661 18.4078 20.5798 17.3415 22.0973 16.279C22.253 16.1703 22.4611 16.1497 22.5511 15.8965C22.5614 15.8678 22.5637 15.8369 22.5576 15.807C22.5515 15.7771 22.5374 15.7494 22.5167 15.727C22.496 15.7046 22.4696 15.6882 22.4403 15.6798C22.411 15.6713 22.3799 15.6711 22.3505 15.679C20.933 16.0634 19.5398 16.5453 18.3811 17.4753C17.2898 18.3503 16.3342 19.3565 15.5142 20.494C15.4861 20.5328 15.4699 20.5789 15.4676 20.6266C15.4653 20.6744 15.4771 20.7219 15.5014 20.7631C15.5256 20.8043 15.5615 20.8376 15.6044 20.8587C15.6473 20.8799 15.6955 20.888 15.743 20.8822Z" fill="#04506C"/>
<path d="M17.2598 15.8457C17.1305 15.497 18.0211 14.6982 18.2798 14.4788C20.3048 12.7576 22.5661 11.4445 25.0636 10.5395C25.4248 10.4095 25.7748 10.3495 26.1136 10.3595C26.1703 10.361 26.2251 10.3799 26.2708 10.4136C26.3164 10.4473 26.3506 10.4942 26.3688 10.5479C26.387 10.6016 26.3882 10.6596 26.3724 10.7141C26.3567 10.7686 26.3246 10.8169 26.2805 10.8526C25.9786 11.0945 25.6542 11.3757 25.3055 11.5595C22.6917 12.9407 20.1292 14.4107 17.618 15.9695C17.5871 15.9887 17.5524 16.0008 17.5163 16.0048C17.4802 16.0089 17.4437 16.0049 17.4094 15.993C17.3751 15.9812 17.3438 15.9618 17.3179 15.9363C17.2921 15.9108 17.2722 15.8799 17.2598 15.8457Z" fill="#FCE4AD"/>
<path d="M44.6893 13.3877L44.9555 14.3458C44.9805 14.4408 44.9524 14.4614 44.8712 14.4077C44.2212 13.9802 43.5118 13.7395 42.743 13.6858C42.5843 13.6745 42.5805 13.6433 42.7318 13.592C43.3218 13.3933 43.9274 13.2895 44.5487 13.2808C44.5807 13.2802 44.612 13.2904 44.6375 13.3098C44.663 13.3292 44.6813 13.3566 44.6893 13.3877Z" fill="#7EBA98"/>
<path d="M44.5187 15.5005C44.6587 15.6817 44.8124 15.8324 44.9799 15.9524C48.6155 18.5436 48.4111 27.8249 46.2549 31.2224L45.1299 31.7342C45.0749 31.7592 45.0361 31.7998 45.0136 31.8561C44.5474 33.0273 44.7787 33.9992 45.7074 34.7717C45.2024 35.0392 44.6337 34.9411 44.0012 34.4774L43.7124 33.6805C43.4405 31.8336 43.6824 29.9549 43.6618 28.1623C43.658 27.8323 43.4187 27.2592 42.9437 26.443C41.6437 24.2505 40.8718 21.8955 40.628 19.378C40.6271 19.367 40.6228 19.3566 40.6158 19.3482C40.6089 19.3397 40.5995 19.3335 40.5889 19.3305C40.5784 19.3274 40.5671 19.3276 40.5567 19.3311C40.5463 19.3346 40.5372 19.3411 40.5305 19.3499C35.9124 25.288 27.5612 27.3074 20.4137 26.5948C20.4021 26.5936 20.3911 26.5893 20.3818 26.5823C20.3724 26.5754 20.3651 26.5662 20.3605 26.5555C20.356 26.5448 20.3543 26.5331 20.3557 26.5216C20.3571 26.51 20.3616 26.4991 20.3687 26.4899C21.1937 25.4111 22.2799 24.7342 23.6274 24.4592C23.6436 24.4567 23.6512 24.4474 23.6499 24.4311C23.6499 24.4149 23.6486 24.3986 23.6461 24.3823C23.6436 24.3686 23.6361 24.3617 23.6236 24.3617C21.8555 24.3861 18.1524 24.9448 17.0086 26.2405C15.9586 27.4292 16.3037 29.2686 16.2887 30.7048C16.2699 32.4017 15.7993 34.6517 13.6655 34.8092C15.0568 34.1023 15.548 31.8842 13.8118 31.2186C13.6555 31.0524 13.5287 30.7661 13.4312 30.3598L14.5299 31.3949C14.57 31.4323 14.6184 31.4597 14.6712 31.4747C14.7239 31.4897 14.7794 31.4918 14.833 31.481C14.8867 31.4702 14.9368 31.4466 14.9794 31.4124C15.0219 31.3782 15.0555 31.3342 15.0774 31.2842C15.3287 30.7142 15.4787 30.208 15.3868 29.5423C15.1843 28.0873 15.1018 26.6623 16.2511 25.6255C19.6861 22.528 24.2949 21.5211 28.6655 20.5911C31.833 19.9173 34.7474 18.7311 37.4086 17.0324C37.4445 17.0094 37.4741 16.978 37.4951 16.9409C37.516 16.9039 37.5275 16.8622 37.5286 16.8197C37.5297 16.7772 37.5204 16.735 37.5014 16.6969C37.4825 16.6588 37.4545 16.6259 37.4199 16.6011L35.8018 15.4461C35.7868 15.4357 35.776 15.4203 35.7713 15.4026C35.7666 15.3849 35.7684 15.3662 35.7763 15.3497C35.7842 15.3332 35.7977 15.3201 35.8144 15.3127C35.8311 15.3053 35.8499 15.304 35.8674 15.3092C36.6849 15.518 37.343 15.9542 37.8418 16.618C37.8526 16.6324 37.8662 16.6445 37.8819 16.6535C37.8976 16.6624 37.915 16.6681 37.9329 16.67C37.9509 16.6719 37.969 16.6701 37.9862 16.6647C38.0035 16.6593 38.0194 16.6504 38.033 16.6386L40.8043 14.218C40.8655 14.1642 40.9361 14.1467 41.0161 14.1655C41.2624 14.2242 41.4993 14.2999 41.7268 14.3924C42.4993 14.7092 43.3374 14.9586 44.0368 15.4161C44.178 15.5086 44.3387 15.5367 44.5187 15.5005Z" fill="#032E52"/>
<path d="M21.1314 20.4433C21.1381 20.4183 21.1372 20.392 21.129 20.3675C21.1207 20.343 21.1054 20.3215 21.085 20.3057C21.0646 20.2899 21.0399 20.2805 21.0142 20.2786C20.9884 20.2767 20.9627 20.2825 20.9402 20.2951C19.2015 21.2764 17.5927 22.437 16.114 23.777C16.0991 23.791 16.0797 23.7994 16.0589 23.8007C16.0381 23.8021 16.0172 23.7964 15.9996 23.7845C15.8908 23.7151 17.314 21.8364 17.479 21.617C19.4121 19.0408 21.6733 17.1433 24.6489 15.8364C27.9321 14.3964 30.7877 13.6501 34.2058 14.8689C34.2197 14.8734 34.232 14.8819 34.2411 14.8933C34.2502 14.9047 34.2558 14.9185 34.2572 14.933C34.2586 14.9476 34.2557 14.9622 34.2489 14.9751C34.2421 14.988 34.2317 14.9987 34.2189 15.0058C32.3608 16.0914 30.1896 16.7439 28.2021 17.582C26.4865 18.3058 23.4996 19.4064 21.2046 20.5651C21.1958 20.5698 21.1859 20.572 21.176 20.5716C21.1661 20.5712 21.1564 20.5682 21.1481 20.5629C21.1397 20.5576 21.1329 20.5501 21.1283 20.5413C21.1237 20.5324 21.1216 20.5226 21.1221 20.5126C21.1221 20.4889 21.1252 20.4658 21.1314 20.4433Z" fill="#076F81"/>
<path d="M9.7501 15.2046L9.7801 15.3415C9.78885 15.379 9.81198 15.3927 9.84948 15.3827C9.97198 15.3477 10.0726 15.3877 10.1513 15.5027C10.1683 15.527 10.1916 15.5462 10.2187 15.5581C10.2459 15.57 10.2757 15.5742 10.3051 15.5702C10.8001 15.5015 11.2863 15.5196 11.7638 15.6246C12.6957 15.829 13.4457 15.7558 14.1113 16.684C14.1488 16.7377 14.1882 16.7383 14.2295 16.6858L14.7563 16.0258L15.4407 16.294C14.7095 17.2915 14.072 18.334 13.5282 19.4215L11.9813 22.9558C11.8326 23.0483 11.7301 23.1915 11.6738 23.3852C11.6551 23.449 11.6132 23.4783 11.5482 23.4733C11.167 23.4446 10.9032 23.4852 10.757 23.5952C10.0457 24.1302 9.2476 24.4483 8.3626 24.5496C8.3051 24.5571 8.25948 24.584 8.22573 24.6302L7.82823 25.174C7.72448 25.1577 7.66823 25.1346 7.65948 25.1046C7.7626 25.0015 7.7176 24.8908 7.6051 24.8215C7.04385 24.4777 6.44322 24.2002 5.80322 23.989C6.59447 20.7527 7.9101 17.8246 9.7501 15.2046ZM11.7845 17.7283L11.8014 17.4715C11.8021 17.4609 11.8008 17.4502 11.7974 17.4402C11.7941 17.4301 11.7887 17.4208 11.7818 17.4128C11.7748 17.4047 11.7663 17.3982 11.7568 17.3935C11.7473 17.3887 11.7369 17.3859 11.7264 17.3852L11.6026 17.3777C11.4839 17.3699 11.3689 17.3805 11.2826 17.4072C11.1962 17.4339 11.1455 17.4745 11.1413 17.5202L11.1357 17.5915C11.134 17.6143 11.1441 17.6377 11.1652 17.6604C11.1864 17.683 11.2182 17.7045 11.259 17.7235C11.2997 17.7424 11.3486 17.7586 11.4027 17.771C11.4568 17.7834 11.5152 17.7919 11.5745 17.7958L11.6982 17.8052C11.709 17.806 11.7198 17.8046 11.7299 17.8011C11.7401 17.7976 11.7495 17.7921 11.7576 17.785C11.7656 17.7778 11.7721 17.7691 11.7768 17.7594C11.7814 17.7497 11.784 17.7391 11.7845 17.7283Z" fill="#91C299"/>
<path d="M44.5187 15.501C45.0824 15.9047 45.6074 16.1335 46.0937 16.1872C47.3312 16.841 48.348 17.9616 49.1443 19.5491C49.7918 20.8116 50.3318 22.2266 50.7643 23.7941C50.783 23.8629 50.828 23.891 50.8993 23.8785C51.0718 23.846 51.1968 23.8791 51.2743 23.9779L51.1543 24.6041C51.1418 24.6704 51.1037 24.7135 51.0399 24.7335L50.2787 24.9697C50.254 24.9775 50.2326 24.9933 50.218 25.0146C50.2033 25.0359 50.1962 25.0615 50.1977 25.0873C50.1992 25.1132 50.2092 25.1377 50.2263 25.1572C50.2433 25.1766 50.2664 25.1898 50.2918 25.1947L51.0718 25.341C51.099 25.3463 51.1246 25.3578 51.1465 25.3748C51.1683 25.3917 51.1857 25.4136 51.1974 25.4385C51.3812 25.826 51.4887 26.2772 51.5199 26.7922L51.5574 27.5985C51.5599 27.6572 51.5893 27.6954 51.6455 27.7129C51.8687 27.7822 51.9399 29.0891 51.983 29.3685C51.993 29.4322 51.9849 29.4935 51.9587 29.5522C51.8137 29.8797 51.8068 30.2072 51.938 30.5347C51.9618 30.5947 51.9605 30.6541 51.9343 30.7129C51.8305 30.9441 51.7849 31.1616 51.7974 31.3654C51.6837 31.6391 51.5068 31.8222 51.2668 31.9147C51.208 31.9372 51.208 31.9616 51.2668 31.9879L51.548 32.1116C51.578 33.4241 51.4155 34.7716 51.0605 36.1541C50.6143 37.8885 50.3593 39.5235 49.268 41.1172C49.0893 41.3785 48.9805 41.5935 48.9418 41.7622C48.8805 42.031 48.8955 42.2797 48.9868 42.5085L48.9605 43.5078C48.958 43.5853 48.918 43.6254 48.8405 43.6279C47.8755 43.6604 47.6705 43.7472 48.2255 43.8885C47.0605 45.4097 45.9662 46.9716 44.9424 48.5741C44.3349 49.5229 43.2399 50.076 42.2218 50.4604C40.9455 50.9403 39.6587 51.3903 38.3612 51.8103C38.1899 51.8653 38.0049 52.0266 37.8062 52.2941C37.0374 49.8004 36.1843 47.9722 33.8087 46.5885C33.7524 46.556 33.7305 46.5078 33.743 46.4441C33.7893 46.1991 33.7374 46.0972 33.5874 46.1385C38.0462 45.0416 42.1768 42.6922 43.7443 38.0722C43.7668 38.0035 43.8124 37.981 43.8812 38.0047C45.7749 38.676 47.7418 38.0535 48.8124 36.3885C49.7162 34.9803 49.5249 33.3979 48.2855 32.2954C47.7549 31.8247 46.9262 31.611 46.2549 31.2229C48.4112 27.8254 48.6155 18.5441 44.9799 15.9529C44.8124 15.8329 44.6587 15.6822 44.5187 15.501ZM43.2362 45.4916L42.6718 45.5966C42.6582 45.5992 42.6459 45.6062 42.6367 45.6164C42.6274 45.6266 42.6217 45.6396 42.6205 45.6533C42.6192 45.6671 42.6224 45.6808 42.6296 45.6926C42.6369 45.7043 42.6477 45.7134 42.6605 45.7185C42.8143 45.7785 42.9737 45.7947 43.1387 45.7672C43.1723 45.7619 43.2067 45.7676 43.2368 45.7835C43.2668 45.7994 43.291 45.8246 43.3055 45.8554C43.3968 46.0491 43.4387 46.2585 43.4312 46.4835C43.4307 46.4968 43.4346 46.5099 43.4422 46.5208C43.4498 46.5318 43.4608 46.5399 43.4734 46.5441C43.4861 46.5484 43.4997 46.5484 43.5124 46.5442C43.525 46.54 43.536 46.5319 43.5437 46.521C43.6462 46.3772 43.6593 46.2272 43.583 46.071C43.5218 45.946 43.5599 45.8928 43.6974 45.9116C43.8237 45.9303 43.9374 45.9041 44.0387 45.8328C44.0515 45.824 44.0617 45.8118 44.0683 45.7977C44.0749 45.7836 44.0777 45.7679 44.0764 45.7522C44.075 45.7365 44.0697 45.7214 44.0607 45.7082C44.0518 45.6951 44.0397 45.6844 44.0255 45.6772L43.8193 45.576C43.7655 45.551 43.7305 45.5097 43.7143 45.4522L43.5118 44.7172C43.5074 44.6965 43.4955 44.6782 43.4782 44.666C43.461 44.6537 43.4399 44.6483 43.4189 44.6509C43.3979 44.6535 43.3786 44.6639 43.3649 44.68C43.3513 44.6961 43.3441 44.7167 43.3449 44.7378L43.3318 45.3791C43.3305 45.4429 43.2987 45.4804 43.2362 45.4916Z" fill="#5DA491"/>
<path d="M17.556 19.4774C17.2092 19.723 16.0542 20.8461 15.7429 20.8818C15.6954 20.8876 15.6473 20.8795 15.6043 20.8583C15.5614 20.8372 15.5256 20.8039 15.5013 20.7627C15.477 20.7215 15.4653 20.674 15.4676 20.6262C15.4699 20.5785 15.4861 20.5324 15.5142 20.4936C16.3342 19.3561 17.2898 18.3499 18.381 17.4749C19.5398 16.5449 20.9329 16.063 22.3504 15.6786C22.3799 15.6707 22.4109 15.6709 22.4402 15.6794C22.4695 15.6878 22.496 15.7042 22.5167 15.7266C22.5373 15.749 22.5515 15.7767 22.5575 15.8066C22.5636 15.8365 22.5614 15.8674 22.551 15.8961C22.461 16.1493 22.2529 16.1699 22.0973 16.2786C20.5798 17.3411 19.066 18.4074 17.556 19.4774Z" fill="#076F81"/>
<path d="M11.7847 17.7281C11.7842 17.7389 11.7816 17.7494 11.777 17.7592C11.7723 17.7689 11.7658 17.7776 11.7578 17.7848C11.7497 17.7919 11.7403 17.7974 11.7301 17.8009C11.72 17.8044 11.7092 17.8058 11.6984 17.805L11.5747 17.7956C11.5154 17.7917 11.457 17.7832 11.4029 17.7708C11.3488 17.7584 11.2999 17.7422 11.2592 17.7232C11.2184 17.7042 11.1866 17.6828 11.1654 17.6602C11.1443 17.6375 11.1342 17.6141 11.1359 17.5912L11.1415 17.52C11.1457 17.4743 11.1964 17.4337 11.2828 17.407C11.3691 17.3803 11.4841 17.3697 11.6028 17.3775L11.7266 17.385C11.7372 17.3857 11.7475 17.3885 11.757 17.3932C11.7665 17.398 11.775 17.4045 11.782 17.4125C11.7889 17.4205 11.7943 17.4299 11.7976 17.4399C11.801 17.45 11.8023 17.4606 11.8016 17.4712L11.7847 17.7281Z" fill="#A5CBA5"/>
<path d="M52.174 18.4785C53.184 20.556 53.9059 22.7354 54.3397 25.0166C55.0972 29.6291 54.9678 34.1835 53.5653 38.6498C52.9315 40.4473 52.0872 42.1329 51.0322 43.7066C49.9915 44.271 51.5984 40.8848 51.6472 40.7929C52.894 38.5035 52.8528 35.3085 52.6878 32.7323C52.669 32.4485 52.5534 32.1885 52.3409 31.9523L51.7972 31.3654C51.7847 31.1616 51.8303 30.9441 51.934 30.7129C51.9603 30.6541 51.9615 30.5948 51.9378 30.5348C51.8065 30.2073 51.8134 29.8798 51.9584 29.5523C51.9847 29.4935 51.9928 29.4323 51.9828 29.3685C51.9397 29.0891 51.8684 27.7823 51.6453 27.7129C51.589 27.6954 51.5597 27.6573 51.5572 27.5985L51.5197 26.7923C51.6759 26.4573 51.7559 26.1079 51.7597 25.7441C51.7597 25.7097 51.7664 25.6755 51.7796 25.6437C51.7928 25.6118 51.8122 25.5829 51.8365 25.5585C52.1115 25.2735 52.4478 25.1023 52.8453 25.0448C53.2065 24.9923 53.2109 24.9073 52.8584 24.7898C52.5097 24.6754 51.8722 24.9998 51.7878 24.3454C51.739 23.9704 51.6747 23.5985 51.5947 23.2298C51.5904 23.212 51.5801 23.1962 51.5657 23.1848C51.5513 23.1734 51.5335 23.1672 51.5154 23.1672C51.4972 23.1672 51.4798 23.1734 51.4659 23.1848C51.452 23.1962 51.4425 23.212 51.439 23.2298L51.274 23.9779C51.1965 23.8791 51.0715 23.846 50.899 23.8785C50.8278 23.891 50.7828 23.8629 50.764 23.7941C50.3315 22.2266 49.7915 20.8116 49.144 19.5491C49.4965 19.2879 49.8565 19.0941 50.224 18.9679C50.3503 18.9241 50.579 18.9091 50.9103 18.9229C51.2353 18.9354 51.5409 18.8448 51.8272 18.651C51.8859 18.6123 51.9434 18.6135 51.9997 18.6548L52.0447 18.6885C52.0809 18.7148 52.0953 18.7054 52.0878 18.6604C52.069 18.5566 52.0978 18.496 52.174 18.4785Z" fill="#7EBA98"/>
<path d="M42.9436 26.4433L42.6192 26.4864C42.5629 26.4939 42.5179 26.4751 42.4842 26.4301C41.5317 25.1176 40.8329 23.6783 40.3879 22.112C40.3667 22.037 40.3279 22.0258 40.2717 22.0783C35.2129 26.7789 29.1117 28.0614 22.3711 27.6789C21.4504 27.6264 20.7361 27.3245 19.9448 26.9214C19.7123 26.8039 19.4804 26.7508 19.2492 26.762C18.2911 26.807 17.3367 26.6701 17.2373 27.9601C17.1154 29.5014 16.7217 31.0539 16.6542 32.5089C16.5679 34.3108 16.4592 35.7208 16.8192 37.0558C15.3179 37.592 14.2404 37.1983 13.5867 35.8745C13.3979 35.4895 13.4242 35.1345 13.6654 34.8095C15.7992 34.652 16.2698 32.402 16.2886 30.7051C16.3036 29.2689 15.9586 27.4295 17.0086 26.2408C18.1523 24.9451 21.8554 24.3864 23.6236 24.362C23.6361 24.362 23.6436 24.3689 23.6461 24.3826C23.6486 24.3989 23.6498 24.4151 23.6498 24.4314C23.6511 24.4476 23.6436 24.457 23.6273 24.4595C22.2798 24.7345 21.1936 25.4114 20.3686 26.4901C20.3615 26.4994 20.3571 26.5103 20.3556 26.5219C20.3542 26.5334 20.3559 26.5451 20.3604 26.5558C20.365 26.5664 20.3723 26.5757 20.3817 26.5826C20.391 26.5895 20.402 26.5939 20.4136 26.5951C27.5611 27.3076 35.9123 25.2883 40.5304 19.3501C40.5371 19.3414 40.5462 19.3348 40.5566 19.3314C40.5671 19.3279 40.5783 19.3277 40.5888 19.3307C40.5994 19.3338 40.6088 19.34 40.6157 19.3484C40.6227 19.3569 40.627 19.3673 40.6279 19.3783C40.8717 21.8958 41.6436 24.2508 42.9436 26.4433Z" fill="#EA8359"/>
<path d="M13.5283 19.4214L13.6127 19.6839C13.6221 19.7132 13.625 19.7443 13.6211 19.7751C13.6172 19.8058 13.6067 19.8355 13.5902 19.862C13.1427 20.5708 12.8514 21.3551 12.7164 22.2151L11.9814 22.9558L13.5283 19.4214Z" fill="#032E52"/>
<path d="M13.8228 21.4146C13.3903 22.2671 13.096 23.0977 12.9397 23.9064L12.9922 24.4464C12.7035 25.6977 12.6441 27.0302 12.8141 28.4439C12.9103 29.2502 13.116 29.8889 13.431 30.3602C13.5285 30.7664 13.6553 31.0527 13.8116 31.2189C13.6778 31.3089 13.5341 31.3495 13.3803 31.3408C10.551 31.7758 10.3766 35.1321 12.1166 36.8345L13.0035 37.5152C13.3647 37.9014 13.2135 37.9927 12.5497 37.7889C12.4997 37.7739 12.4547 37.7827 12.4147 37.8152C12.216 37.9739 12.0141 38.1302 11.8091 38.2839C11.4735 38.5371 10.9916 38.5839 10.6803 38.9552C10.3991 39.2945 10.5397 39.7164 10.0541 40.0502C10.0016 40.0852 9.96472 40.1333 9.94347 40.1945C9.75972 40.7102 9.56285 41.2652 8.92722 41.1358C8.89198 41.1283 8.85523 41.1347 8.82453 41.1535C8.79383 41.1724 8.77152 41.2023 8.76222 41.237C8.71972 41.3983 8.60785 41.4727 8.4266 41.4602C8.3541 41.4564 8.30722 41.4889 8.28597 41.5577L8.25035 41.6664C8.22785 41.7364 8.18847 41.7483 8.13222 41.702L8.01597 41.6064C8.00537 41.5973 7.99226 41.5916 7.97836 41.5902C7.96446 41.5888 7.95042 41.5918 7.93806 41.5987C7.92571 41.6056 7.91562 41.6161 7.90911 41.6288C7.90261 41.6416 7.89999 41.656 7.9016 41.6702L7.9316 41.9158C7.94035 41.9833 7.9141 42.002 7.85285 41.972L7.61285 41.8577C7.6094 41.8558 7.60651 41.8529 7.60463 41.8493C7.60274 41.8458 7.60195 41.8419 7.60237 41.8381C7.60279 41.8343 7.6044 41.8309 7.60696 41.8284C7.60952 41.8258 7.6129 41.8243 7.6166 41.8239L7.68222 41.8127C7.72722 41.8052 7.73347 41.7858 7.70097 41.7545L7.6391 41.6908C7.6166 41.6683 7.59097 41.6652 7.56222 41.6814C7.53972 41.6952 7.50535 41.7083 7.4591 41.7208C6.40035 39.6733 5.70847 37.5083 5.38347 35.2258C4.91847 31.6914 4.8791 27.4614 5.80347 23.9889C6.44347 24.2002 7.0441 24.4777 7.60535 24.8214C7.71785 24.8908 7.76285 25.0014 7.65972 25.1045C7.48347 25.0858 7.37785 25.1589 7.34285 25.3239C7.33764 25.3479 7.33773 25.3728 7.34313 25.3968C7.34853 25.4208 7.3591 25.4433 7.3741 25.4627C7.3891 25.4822 7.40817 25.4981 7.42997 25.5095C7.45178 25.5208 7.4758 25.5272 7.50035 25.5283C7.65035 25.5345 7.7716 25.4764 7.8641 25.3539C7.8916 25.3164 7.89285 25.2777 7.86785 25.2377L7.82847 25.1739L8.22597 24.6302C8.25972 24.5839 8.30535 24.557 8.36285 24.5495C9.24785 24.4483 10.046 24.1302 10.7572 23.5952C10.9035 23.4852 11.1672 23.4446 11.5485 23.4733C11.6135 23.4783 11.6553 23.4489 11.6741 23.3852C11.7303 23.1914 11.8328 23.0483 11.9816 22.9558L12.7166 22.2152L13.8228 21.4146ZM6.9566 34.6296C6.90535 34.7708 6.95535 34.8683 7.1066 34.9221C7.1311 34.9306 7.1572 34.9337 7.18302 34.931C7.20883 34.9283 7.23374 34.9199 7.25595 34.9065C7.27817 34.893 7.29714 34.8749 7.31151 34.8532C7.32588 34.8316 7.3353 34.8071 7.3391 34.7814C7.37785 34.5264 7.27285 34.4514 7.0241 34.5564C6.99294 34.5708 6.96867 34.5971 6.9566 34.6296Z" fill="#6DAF96"/>
<path d="M42.9433 26.4433C43.4183 27.2596 43.6576 27.8327 43.6614 28.1627C43.682 29.9552 43.4401 31.834 43.712 33.6808L43.7176 33.7708C43.7226 33.8371 43.6914 33.8702 43.6239 33.8702H43.532C43.4745 33.8702 43.4445 33.8414 43.442 33.7839C43.4408 33.7389 43.4376 33.6915 43.4326 33.6415C43.4201 33.5215 43.4083 33.5215 43.397 33.6415C42.7914 39.9471 39.4389 42.9508 33.8195 45.049C33.1483 45.299 32.4764 45.5733 31.8039 45.8721L28.3895 46.1233L27.4164 46.2283C22.3164 45.4221 18.4051 42.8271 16.937 37.6465L16.8189 37.0558C16.4589 35.7208 16.5676 34.3108 16.6539 32.509C16.7214 31.054 17.1151 29.5015 17.237 27.9602C17.3364 26.6702 18.2908 26.8071 19.2489 26.7621C19.4801 26.7508 19.712 26.804 19.9445 26.9215C20.7358 27.3246 21.4501 27.6264 22.3708 27.6789C29.1114 28.0615 35.2126 26.779 40.2714 22.0783C40.3276 22.0258 40.3664 22.0371 40.3876 22.1121C40.8326 23.6783 41.5314 25.1177 42.4839 26.4302C42.5176 26.4752 42.5626 26.4939 42.6189 26.4864L42.9433 26.4433ZM35.6889 29.1715C35.4226 29.584 35.4445 29.929 35.7545 30.2065C36.2326 30.6321 36.7951 30.4127 37.3895 30.3077C38.4583 30.1202 39.8008 31.1965 40.5376 31.939C40.7476 32.1515 40.932 32.1433 41.0908 31.9146C41.1211 31.871 41.1398 31.8204 41.145 31.7675C41.1503 31.7147 41.1419 31.6614 41.1208 31.6127C40.4545 30.0402 39.3095 29.0452 37.6858 28.6277C36.947 28.4383 36.1089 28.519 35.6889 29.1715ZM22.7158 28.8002C21.2064 28.7833 19.2414 29.7827 18.9114 31.3821C18.8626 31.6196 18.9408 31.7877 19.1458 31.8865C19.202 31.914 19.257 31.9108 19.3108 31.8771C20.522 31.099 21.362 30.0865 22.9595 30.8271C25.082 31.8133 25.1983 28.8283 22.7158 28.8002ZM19.397 35.5015C19.5108 36.0377 19.7451 36.304 20.1001 36.3002C21.092 36.7371 22.6445 37.189 23.7264 36.8121C23.7485 36.804 23.7674 36.7889 23.7802 36.7689C23.7931 36.749 23.7992 36.7253 23.7976 36.7015C23.7926 36.619 23.7551 36.5796 23.6851 36.5833C25.0483 35.6402 24.8645 33.9208 23.5783 33.0658C22.0839 32.0721 20.2464 32.7058 19.2695 34.0877C18.897 34.614 18.9395 35.0852 19.397 35.5015ZM35.732 35.3533C35.6008 36.0346 35.9639 36.5283 36.8214 36.8346C37.6539 37.1308 40.8151 37.2058 40.6651 35.674C41.0551 35.1827 41.177 34.6952 40.7908 34.1383C39.3245 32.0215 35.5314 32.2258 35.732 35.3533ZM40.5526 37.2677L40.262 37.5058C40.2481 37.5173 40.2365 37.5313 40.228 37.5472C40.2195 37.5631 40.2142 37.5805 40.2125 37.5985C40.2108 37.6164 40.2126 37.6346 40.2179 37.6518C40.2231 37.669 40.2318 37.6851 40.2433 37.699L40.3126 37.7815C40.4041 37.8928 40.5159 37.9798 40.6234 38.0234C40.731 38.067 40.8256 38.0636 40.8864 38.014L40.9295 37.9783C40.9598 37.9537 40.9808 37.9184 40.9913 37.8744C41.0018 37.8304 41.0017 37.7786 40.9909 37.722C40.9801 37.6654 40.9588 37.605 40.9283 37.5445C40.8979 37.4839 40.8588 37.4242 40.8133 37.369L40.7458 37.2865C40.7343 37.2725 40.7203 37.2609 40.7044 37.2525C40.6885 37.244 40.671 37.2387 40.6531 37.2369C40.6351 37.2352 40.617 37.237 40.5998 37.2423C40.5826 37.2476 40.5665 37.2562 40.5526 37.2677ZM26.5989 41.9121C27.5301 42.4958 28.5301 42.9333 29.5989 43.2246C30.8639 43.4883 32.0689 43.2965 33.2139 42.649C34.0076 42.279 34.7201 41.8052 35.3514 41.2277C35.4264 41.159 35.4145 41.1346 35.3158 41.1546C32.4433 41.7333 29.6064 41.9196 26.8051 41.7133C25.3251 41.4671 25.3176 41.6127 24.0751 41.089C23.9839 41.0502 23.9295 41.079 23.912 41.1752L23.8764 41.3515C23.8639 41.4202 23.8914 41.4627 23.9589 41.479L26.5989 41.9121Z" fill="#FAA36A"/>
<path d="M51.5197 26.7921C51.4885 26.2771 51.381 25.8258 51.1972 25.4383C51.1855 25.4134 51.1681 25.3916 51.1462 25.3746C51.1244 25.3577 51.0988 25.3461 51.0716 25.3408L50.2916 25.1946C50.2662 25.1897 50.2431 25.1765 50.2261 25.157C50.209 25.1376 50.199 25.113 50.1975 25.0872C50.196 25.0613 50.2031 25.0358 50.2178 25.0145C50.2324 24.9932 50.2538 24.9774 50.2785 24.9696L51.0397 24.7333C51.1035 24.7133 51.1416 24.6702 51.1541 24.6039L51.2741 23.9777L51.4391 23.2296C51.4426 23.2118 51.452 23.1959 51.4659 23.1846C51.4798 23.1732 51.4973 23.167 51.5154 23.167C51.5336 23.167 51.5513 23.1732 51.5658 23.1846C51.5802 23.1959 51.5904 23.2118 51.5947 23.2296C51.6747 23.5983 51.7391 23.9702 51.7878 24.3452C51.8722 24.9996 52.5097 24.6752 52.8585 24.7896C53.211 24.9071 53.2066 24.9921 52.8453 25.0446C52.4478 25.1021 52.1116 25.2733 51.8366 25.5583C51.8122 25.5827 51.7929 25.6116 51.7797 25.6435C51.7665 25.6753 51.7597 25.7095 51.7597 25.7439C51.756 26.1077 51.676 26.4571 51.5197 26.7921Z" fill="#C8CD9C"/>
<path d="M12.9395 23.9062C13.2195 23.9725 13.4382 24.0844 13.5957 24.2419C13.6104 24.2566 13.6201 24.2756 13.6233 24.2961C13.6264 24.3167 13.6229 24.3377 13.6133 24.3561C13.6037 24.3745 13.5884 24.3894 13.5697 24.3985C13.551 24.4077 13.5299 24.4106 13.5095 24.4069C13.3532 24.3806 13.1807 24.3938 12.992 24.4463L12.9395 23.9062Z" fill="#397C7B"/>
<path d="M7.65958 25.1044C7.66833 25.1344 7.72458 25.1576 7.82833 25.1738L7.8677 25.2376C7.8927 25.2776 7.89146 25.3163 7.86396 25.3538C7.77146 25.4763 7.65021 25.5344 7.50021 25.5282C7.47566 25.5271 7.45164 25.5207 7.42983 25.5093C7.40802 25.498 7.38895 25.4821 7.37395 25.4626C7.35895 25.4431 7.34838 25.4206 7.34299 25.3967C7.33759 25.3727 7.3375 25.3478 7.34271 25.3238C7.37771 25.1588 7.48333 25.0857 7.65958 25.1044Z" fill="#A5CBA5"/>
<path d="M35.6889 29.1712C36.1089 28.5187 36.9471 28.4381 37.6858 28.6275C39.3096 29.045 40.4545 30.04 41.1208 31.6125C41.142 31.6612 41.1503 31.7145 41.1451 31.7673C41.1398 31.8202 41.1211 31.8708 41.0908 31.9143C40.932 32.1431 40.7477 32.1512 40.5377 31.9387C39.8008 31.1962 38.4583 30.12 37.3895 30.3075C36.7952 30.4125 36.2327 30.6318 35.7545 30.2062C35.4445 29.9287 35.4227 29.5837 35.6889 29.1712Z" fill="#220509"/>
<path d="M18.9115 31.3819C19.2415 29.7825 21.2065 28.7831 22.7159 28.8C25.1984 28.8281 25.0821 31.8131 22.9596 30.8269C21.3621 30.0863 20.5221 31.0988 19.3109 31.8769C19.2571 31.9106 19.2021 31.9138 19.1459 31.8863C18.9409 31.7875 18.8628 31.6194 18.9115 31.3819Z" fill="#220509"/>
<path d="M46.2548 31.2227C46.9261 31.6108 47.7548 31.8245 48.2855 32.2952C49.5248 33.3977 49.7161 34.9802 48.8123 36.3883C47.7417 38.0533 45.7748 38.6758 43.8811 38.0045C43.8123 37.9808 43.7667 38.0033 43.7442 38.072C42.1767 42.692 38.0461 45.0414 33.5873 46.1383C33.1398 46.2108 32.6873 46.1908 32.2298 46.0783L31.8042 45.872C32.4767 45.5733 33.1486 45.2989 33.8198 45.0489C39.4392 42.9508 42.7917 39.947 43.3973 33.6414C43.4086 33.5214 43.4205 33.5214 43.433 33.6414C43.438 33.6914 43.4411 33.7389 43.4423 33.7839C43.4448 33.8414 43.4748 33.8702 43.5323 33.8702H43.6242C43.6917 33.8702 43.723 33.837 43.718 33.7708L43.7123 33.6808L44.0011 34.4777L43.8623 37.3708C43.8612 37.3992 43.8684 37.4274 43.883 37.452C43.8976 37.4766 43.9191 37.4966 43.9448 37.5095C44.9254 37.997 46.3298 36.9302 46.8286 36.1895C47.5898 35.057 46.3036 33.977 45.488 33.4408C45.438 33.4083 45.4036 33.3627 45.3848 33.3039L45.1261 32.4658C45.1173 32.437 45.1098 32.4377 45.1036 32.4677C44.9067 33.4727 45.0379 33.8514 45.8217 34.487C45.8433 34.5045 45.8575 34.5295 45.8616 34.5572C45.8658 34.5849 45.8596 34.6134 45.8442 34.637C45.8017 34.6983 45.7561 34.7433 45.7073 34.772C44.7786 33.9995 44.5473 33.0277 45.0136 31.8564C45.0361 31.8002 45.0748 31.7595 45.1298 31.7345L46.2548 31.2227Z" fill="#F18B5E"/>
<path d="M13.8118 31.2188C15.548 31.8844 15.0568 34.1025 13.6655 34.8094C13.4243 35.1344 13.398 35.4894 13.5868 35.8744C14.2405 37.1981 15.318 37.5919 16.8193 37.0556L16.9374 37.6462C15.9786 38.1675 14.9911 38.2806 13.9749 37.9856C13.6543 37.8919 13.3524 37.6312 13.0036 37.515L12.1168 36.8344C11.4705 35.9469 11.2043 35.0019 11.318 33.9994C11.3799 33.4537 11.8355 32.3944 12.2255 32.0437C12.5293 31.7737 12.9143 31.5394 13.3805 31.3406C13.5343 31.3494 13.678 31.3087 13.8118 31.2188Z" fill="#F18B5E"/>
<path d="M13.3804 31.3408C12.9141 31.5396 12.5291 31.7739 12.2254 32.0439C11.8354 32.3946 11.3798 33.4539 11.3179 33.9996C11.2041 35.0021 11.4704 35.9471 12.1166 36.8346C10.3766 35.1321 10.551 31.7758 13.3804 31.3408Z" fill="#C8CD9C"/>
<path d="M51.7973 31.3652L52.3411 31.9521C51.9323 32.3071 51.668 32.3602 51.548 32.1115L51.2667 31.9877C51.208 31.9615 51.208 31.9371 51.2667 31.9146C51.5067 31.8221 51.6836 31.639 51.7973 31.3652Z" fill="#C8CD9C"/>
<path d="M52.3412 31.9521C52.5537 32.1884 52.6693 32.4484 52.688 32.7321C52.853 35.3084 52.8943 38.5034 51.6474 40.7928C51.5987 40.8846 49.9918 44.2709 51.0324 43.7065C47.9474 48.5703 43.6643 51.9178 38.183 53.749L37.8062 52.294C38.0049 52.0265 38.1899 51.8653 38.3612 51.8103C39.6587 51.3903 40.9455 50.9403 42.2218 50.4603C43.2399 50.0759 44.3349 49.5228 44.9424 48.574C45.9662 46.9715 47.0605 45.4096 48.2255 43.8884C48.4693 43.9184 48.6712 44.0009 48.8312 44.1359C48.8787 44.1759 48.9055 44.2265 48.9118 44.2878L49.0393 45.3659C49.053 45.4759 49.0849 45.4815 49.1349 45.3828C49.3674 44.9196 49.328 44.5128 49.5024 44.1415C49.5324 44.079 49.5818 44.0465 49.6505 44.044C49.878 44.0353 50.0618 43.9503 50.2018 43.789C50.2136 43.7754 50.2217 43.7588 50.2251 43.7411C50.2285 43.7233 50.2272 43.705 50.2214 43.6879C50.2155 43.6708 50.2052 43.6556 50.1916 43.6437C50.1779 43.6318 50.1614 43.6237 50.1437 43.6203L49.6505 43.5246C49.6141 43.517 49.5796 43.5015 49.5495 43.4792C49.5194 43.4569 49.4944 43.4282 49.4761 43.3953L48.9868 42.5084C48.8955 42.2796 48.8805 42.0309 48.9418 41.7621C48.9805 41.5934 49.0893 41.3784 49.268 41.1171C50.3593 39.5234 50.6143 37.8884 51.0605 36.154C51.4155 34.7715 51.578 33.424 51.548 32.1115C51.668 32.3603 51.9324 32.3071 52.3412 31.9521Z" fill="#6DAF96"/>
<path d="M44.0012 34.4778C44.6337 34.9416 45.2024 35.0397 45.7074 34.7722C45.7562 34.7434 45.8018 34.6984 45.8443 34.6372C45.8597 34.6135 45.8659 34.5851 45.8617 34.5574C45.8576 34.5297 45.8433 34.5047 45.8218 34.4872C45.038 33.8516 44.9068 33.4728 45.1037 32.4678C45.1099 32.4378 45.1174 32.4372 45.1262 32.4659L45.3849 33.3041C45.4037 33.3628 45.438 33.4084 45.488 33.4409C46.3037 33.9772 47.5899 35.0572 46.8287 36.1897C46.3299 36.9303 44.9255 37.9972 43.9449 37.5097C43.9192 37.4967 43.8977 37.4768 43.8831 37.4522C43.8685 37.4276 43.8613 37.3994 43.8624 37.3709L44.0012 34.4778Z" fill="#CF7253"/>
<path d="M23.6854 36.5834C22.6598 37.0465 21.4954 36.5834 21.2011 35.5127C21.0173 34.8471 21.4579 33.7109 22.2773 33.6677C22.3135 33.6659 22.3493 33.6762 22.379 33.6969C22.4087 33.7176 22.4307 33.7477 22.4414 33.7823C22.4522 33.8169 22.4511 33.8541 22.4383 33.888C22.4256 33.9219 22.4019 33.9506 22.3711 33.9696C22.1811 34.0871 22.0979 34.2527 22.1217 34.4665C22.1283 34.5254 22.1491 34.5818 22.1823 34.6309C22.2154 34.68 22.26 34.7203 22.3121 34.7485C22.3642 34.7767 22.4224 34.7918 22.4816 34.7927C22.5408 34.7935 22.5994 34.78 22.6523 34.7534C23.2636 34.4477 23.2542 33.8552 22.6392 33.5852C21.2367 32.9665 19.7104 34.0409 19.4592 35.4527C19.4404 35.4927 19.4198 35.509 19.3973 35.5015C18.9398 35.0852 18.8973 34.614 19.2698 34.0877C20.2467 32.7059 22.0842 32.0721 23.5786 33.0659C24.8648 33.9209 25.0486 35.6402 23.6854 36.5834ZM21.7079 34.4674C21.7199 34.476 21.7347 34.4804 21.7515 34.4804C21.7683 34.4804 21.7868 34.476 21.8058 34.4674C21.8249 34.4588 21.8442 34.4462 21.8626 34.4303C21.881 34.4143 21.8981 34.3954 21.9131 34.3746C21.928 34.3538 21.9404 34.3316 21.9496 34.309C21.9589 34.2865 21.9647 34.2642 21.9668 34.2434C21.9688 34.2226 21.9671 34.2037 21.9618 34.1878C21.9564 34.1719 21.9475 34.1593 21.9355 34.1506C21.9235 34.142 21.9087 34.1376 21.8918 34.1376C21.875 34.1376 21.8566 34.142 21.8375 34.1506C21.8185 34.1592 21.7992 34.1718 21.7808 34.1877C21.7624 34.2037 21.7453 34.2226 21.7303 34.2434C21.7154 34.2642 21.7029 34.2864 21.6937 34.309C21.6845 34.3315 21.6787 34.3538 21.6766 34.3746C21.6745 34.3954 21.6762 34.4143 21.6816 34.4302C21.687 34.4461 21.6959 34.4587 21.7079 34.4674Z" fill="#2D0909"/>
<path d="M40.6654 35.6736C40.3935 32.7693 36.4823 32.9399 37.191 34.5018C37.2137 34.5516 37.247 34.5959 37.2886 34.6314C37.3303 34.6669 37.3792 34.6929 37.432 34.7074C37.4848 34.7218 37.5401 34.7245 37.5941 34.7153C37.648 34.706 37.6992 34.6849 37.7442 34.6536L38.0385 34.4474L38.3273 34.1024L38.6985 34.4886C38.456 35.4474 37.8679 35.8049 36.9342 35.5611C36.8858 35.5482 36.8346 35.5522 36.7888 35.5724C36.7431 35.5927 36.7057 35.6279 36.6827 35.6723C36.6597 35.7167 36.6526 35.7676 36.6625 35.8167C36.6725 35.8657 36.6988 35.9098 36.7373 35.9418L37.011 36.1724C37.0723 36.2236 37.0829 36.2836 37.0429 36.3524L36.8798 36.643C36.3648 36.4868 35.9823 36.0568 35.7323 35.353C35.5316 32.2255 39.3248 32.0211 40.791 34.138C41.1773 34.6949 41.0554 35.1824 40.6654 35.6736Z" fill="#220509"/>
<path d="M40.6653 35.6737C40.8153 37.2056 37.6541 37.1306 36.8216 36.8344C35.9641 36.5281 35.6009 36.0344 35.7322 35.3531C35.9822 36.0569 36.3647 36.4869 36.8797 36.6431C38.5147 37.2469 39.5816 35.3981 38.8934 34.1531C38.6309 33.6825 38.0534 33.4294 37.6184 33.8456C37.3953 33.9731 37.2809 34.41 37.6072 34.4306C37.6204 34.4318 37.6337 34.4293 37.6455 34.4233C37.6574 34.4174 37.6674 34.4083 37.6745 34.3969C37.6816 34.3856 37.6856 34.3724 37.6859 34.3589C37.6863 34.3453 37.6831 34.3319 37.6766 34.32C37.5478 34.0887 37.5584 33.9494 37.7084 33.9019C37.8697 33.9919 37.9797 34.1737 38.0384 34.4475L37.7441 34.6537C37.6992 34.685 37.6479 34.7061 37.594 34.7154C37.54 34.7246 37.4847 34.7219 37.4319 34.7074C37.3791 34.6929 37.3302 34.667 37.2885 34.6315C37.2469 34.596 37.2136 34.5517 37.1909 34.5019C36.4822 32.94 40.3934 32.7694 40.6653 35.6737Z" fill="#F8F5F3"/>
<path d="M23.6852 36.5833C23.7552 36.5796 23.7927 36.6189 23.7977 36.7014C23.7993 36.7253 23.7932 36.749 23.7803 36.7689C23.7675 36.7889 23.7486 36.804 23.7265 36.8121C22.6446 37.1889 21.0921 36.7371 20.1002 36.3002C19.7402 36.1127 19.5265 35.8302 19.459 35.4527C19.7102 34.0408 21.2365 32.9664 22.639 33.5852C23.254 33.8552 23.2634 34.4477 22.6521 34.7533C22.5992 34.78 22.5406 34.7935 22.4814 34.7926C22.4222 34.7918 22.364 34.7766 22.3119 34.7484C22.2598 34.7203 22.2152 34.6799 22.1821 34.6308C22.1489 34.5817 22.1281 34.5253 22.1215 34.4664C22.0977 34.2527 22.1809 34.0871 22.3709 33.9696C22.4017 33.9506 22.4254 33.9219 22.4381 33.8879C22.4509 33.854 22.452 33.8168 22.4412 33.7822C22.4305 33.7476 22.4085 33.7176 22.3788 33.6968C22.3491 33.6761 22.3133 33.6658 22.2771 33.6677C21.4577 33.7108 21.0171 34.8471 21.2009 35.5127C21.4952 36.5833 22.6596 37.0464 23.6852 36.5833Z" fill="#F8F5F3"/>
<path d="M36.8798 36.6432L37.0429 36.3526C37.0829 36.2838 37.0723 36.2238 37.0111 36.1726L36.7373 35.942C36.6989 35.91 36.6725 35.8658 36.6626 35.8168C36.6526 35.7678 36.6598 35.7169 36.6827 35.6725C36.7057 35.6281 36.7431 35.5928 36.7889 35.5726C36.8346 35.5524 36.8859 35.5484 36.9342 35.5613C37.8679 35.8051 38.4561 35.4476 38.6986 34.4888C38.8186 34.2338 38.6948 34.1051 38.3273 34.1026L38.0386 34.4476C37.9798 34.1738 37.8698 33.992 37.7086 33.902C37.7148 33.8895 37.6848 33.8707 37.6186 33.8457C38.0536 33.4295 38.6311 33.6826 38.8936 34.1532C39.5817 35.3982 38.5148 37.247 36.8798 36.6432Z" fill="#4C1813"/>
<path d="M37.6186 33.8457C37.6848 33.8707 37.7148 33.8895 37.7086 33.902C37.5586 33.9495 37.5479 34.0888 37.6767 34.3201C37.6832 34.332 37.6864 34.3454 37.6861 34.359C37.6857 34.3725 37.6818 34.3857 37.6746 34.397C37.6675 34.4084 37.6575 34.4175 37.6456 34.4234C37.6338 34.4294 37.6205 34.4319 37.6073 34.4307C37.2811 34.4101 37.3954 33.9732 37.6186 33.8457Z" fill="#356E6E"/>
<path d="M38.6984 34.4888L38.3271 34.1025C38.6947 34.105 38.8184 34.2338 38.6984 34.4888Z" fill="#73382A"/>
<path d="M21.7303 34.2434C21.6675 34.3308 21.6575 34.4311 21.7079 34.4674C21.7584 34.5036 21.8502 34.4621 21.9131 34.3747C21.9759 34.2872 21.986 34.1869 21.9355 34.1507C21.885 34.1144 21.7932 34.1559 21.7303 34.2434Z" fill="#A2825D"/>
<path d="M6.95647 34.6293C6.96854 34.5968 6.99281 34.5705 7.02397 34.5562C7.27272 34.4512 7.37771 34.5262 7.33896 34.7812C7.33517 34.8069 7.32575 34.8314 7.31138 34.853C7.29701 34.8746 7.27804 34.8928 7.25582 34.9062C7.23361 34.9197 7.2087 34.928 7.18288 34.9307C7.15706 34.9334 7.13097 34.9304 7.10647 34.9218C6.95522 34.8681 6.90522 34.7706 6.95647 34.6293Z" fill="#A5CBA5"/>
<path d="M19.4589 35.4526C19.5264 35.8301 19.7401 36.1126 20.1001 36.3001C19.7451 36.3039 19.5107 36.0376 19.397 35.5014C19.4195 35.5089 19.4401 35.4926 19.4589 35.4526Z" fill="#D3A168"/>
<path d="M40.5527 37.2677C40.5666 37.2562 40.5826 37.2476 40.5998 37.2423C40.6171 37.237 40.6352 37.2352 40.6531 37.237C40.6711 37.2387 40.6885 37.244 40.7044 37.2525C40.7203 37.261 40.7344 37.2725 40.7458 37.2865L40.8133 37.369C40.8588 37.4243 40.8979 37.4839 40.9284 37.5445C40.9589 37.6051 40.9801 37.6654 40.9909 37.722C41.0017 37.7786 41.0019 37.8304 40.9913 37.8744C40.9808 37.9184 40.9598 37.9537 40.9296 37.9784L40.8864 38.014C40.8256 38.0636 40.7311 38.067 40.6235 38.0234C40.5159 37.9798 40.4041 37.8928 40.3127 37.7815L40.2433 37.699C40.2318 37.6851 40.2232 37.6691 40.2179 37.6518C40.2126 37.6346 40.2108 37.6165 40.2126 37.5985C40.2143 37.5806 40.2196 37.5631 40.2281 37.5472C40.2366 37.5313 40.2481 37.5173 40.2621 37.5059L40.5527 37.2677Z" fill="#FCC093"/>
<path d="M13.0034 37.5151C13.3521 37.6314 13.654 37.892 13.9746 37.9858C14.9909 38.2808 15.9784 38.1676 16.9371 37.6464C18.4052 42.827 22.3165 45.422 27.4165 46.2283C27.4577 46.6508 27.349 46.8339 27.0902 46.7776C25.3965 47.5251 24.1371 48.7964 23.3121 50.5914C22.8296 51.6401 22.4984 52.6583 22.3184 53.6458C22.3174 53.6539 22.3191 53.662 22.3232 53.6689C22.3273 53.6757 22.3335 53.6808 22.3409 53.6833C22.3571 53.6883 22.3734 53.6933 22.3896 53.6983C22.4384 53.7133 22.4671 53.6958 22.4759 53.6458C22.8996 51.2795 24.0996 48.8608 26.0927 47.4414C26.2602 47.5289 26.4202 47.5076 26.5727 47.3776C26.6252 47.3326 26.6796 47.3295 26.7359 47.3683C26.8196 47.427 26.8965 47.462 26.9665 47.4733L27.0077 48.452C27.0089 48.4839 27.0199 48.5148 27.0393 48.5406C27.0587 48.5664 27.0856 48.5858 27.1165 48.5964C27.3752 48.6839 27.5771 48.6133 27.7221 48.3845C27.7429 48.3512 27.7746 48.3239 27.8118 48.3072C27.849 48.2905 27.8896 48.2853 27.927 48.2925C27.9643 48.2997 27.9961 48.3189 28.0171 48.3468C28.0382 48.3748 28.0472 48.4099 28.0427 48.4464C27.9952 48.8664 28.1565 49.1345 28.5265 49.2508C28.5927 49.272 28.6415 49.2514 28.6727 49.1889L28.9971 48.5439C29.0041 48.5298 29.0144 48.5177 29.0272 48.5086C29.04 48.4994 29.0548 48.4936 29.0704 48.4916C29.0859 48.4895 29.1018 48.4914 29.1164 48.4969C29.1311 48.5024 29.1442 48.5115 29.1546 48.5233L29.8184 49.2901C29.8621 49.3401 29.9199 49.3758 29.9842 49.3926C30.0485 49.4093 30.1163 49.4064 30.179 49.3842C30.2416 49.362 30.2961 49.3215 30.3354 49.2679C30.3747 49.2144 30.3971 49.1503 30.3996 49.0839C30.4071 48.8676 30.4765 48.6426 30.6077 48.4089L30.6284 48.362C30.6534 48.3058 30.6765 48.3064 30.6977 48.3639C30.8277 48.7214 31.0427 49.0176 31.3427 49.2526C31.3714 49.2754 31.4068 49.2882 31.4436 49.2892C31.4804 49.2902 31.5167 49.2794 31.5471 49.2583C31.8809 49.0283 32.0565 48.7064 32.074 48.2926C32.0753 48.2588 32.0886 48.2265 32.1116 48.2016C32.1346 48.1767 32.1657 48.1607 32.1993 48.1567C32.2329 48.1526 32.2669 48.1607 32.2951 48.1794C32.3234 48.1981 32.344 48.2263 32.3534 48.2589C32.4184 48.4814 32.5984 48.6358 32.8934 48.722C33.0634 48.887 33.2471 48.9964 33.4446 49.0501C33.4715 49.0572 33.4966 49.0703 33.518 49.0885C33.5394 49.1066 33.5566 49.1294 33.5684 49.1551C33.6821 49.4076 33.7515 49.6408 33.7765 49.8545C33.9402 51.287 34.0496 52.917 34.1046 54.7445L31.4552 55.1176C29.2615 55.2314 27.1409 55.0708 25.0934 54.6358C25.0871 53.487 25.229 52.362 25.519 51.2608C25.554 51.1295 25.5402 51.1245 25.4777 51.2458C24.949 52.2695 24.5921 53.3508 24.4071 54.4895C17.0496 53.072 10.9071 48.3283 7.45898 41.7208C7.50523 41.7083 7.53961 41.6951 7.56211 41.6814C7.59086 41.6651 7.61648 41.6683 7.63898 41.6908L7.70086 41.7545C7.73336 41.7858 7.72711 41.8051 7.68211 41.8126L7.61648 41.8239C7.61278 41.8242 7.6094 41.8258 7.60684 41.8283C7.60428 41.8309 7.60267 41.8343 7.60225 41.8381C7.60183 41.8418 7.60263 41.8458 7.60451 41.8493C7.6064 41.8528 7.60928 41.8557 7.61274 41.8576L7.85274 41.972C7.91399 42.002 7.94023 41.9833 7.93148 41.9158L7.90148 41.6701C7.89987 41.656 7.9025 41.6415 7.909 41.6288C7.91551 41.616 7.92559 41.6055 7.93795 41.5986C7.9503 41.5917 7.96434 41.5888 7.97824 41.5902C7.99214 41.5916 8.00525 41.5972 8.01586 41.6064L8.13211 41.702C8.18836 41.7483 8.22773 41.7364 8.25023 41.6664L8.28586 41.5576C8.30711 41.4889 8.35399 41.4564 8.42649 41.4601C8.60774 41.4726 8.71961 41.3983 8.76211 41.237C8.77141 41.2022 8.79371 41.1723 8.82441 41.1535C8.85511 41.1346 8.89187 41.1283 8.92711 41.1358C9.56273 41.2651 9.75961 40.7101 9.94336 40.1945C9.96461 40.1333 10.0015 40.0851 10.054 40.0501C10.5396 39.7164 10.399 39.2945 10.6802 38.9551C10.9915 38.5839 11.4734 38.537 11.809 38.2839C12.014 38.1301 12.2159 37.9739 12.4146 37.8151C12.4546 37.7826 12.4996 37.7739 12.5496 37.7889C13.2134 37.9926 13.3646 37.9014 13.0034 37.5151Z" fill="#52A091"/>
<path d="M28.0794 42.2605C27.9144 42.2993 27.8456 42.3656 27.8731 42.4593L23.8794 41.4956C23.8119 41.4793 23.7844 41.4368 23.7969 41.3681L23.8325 41.1918C23.85 41.0956 23.9044 41.0668 23.9956 41.1056C25.2381 41.6293 26.5994 42.0143 28.0794 42.2605Z" fill="#CF7253"/>
<path d="M33.214 42.6491C33.0152 42.5266 32.804 42.4591 32.5802 42.4466C32.5177 42.4428 32.4627 42.4203 32.4152 42.3791C32.1602 42.1503 31.8734 42.0541 31.5546 42.0903C30.6434 42.1953 29.9271 42.1466 29.599 43.2247C28.294 43.0578 26.419 43.0241 24.3565 41.3703C24.329 41.2766 25.3877 41.4641 26.8052 41.7135C29.6065 41.9197 32.4434 41.7335 35.3159 41.1547C35.4146 41.1347 35.4265 41.1591 35.3515 41.2278C34.7202 41.8053 34.0077 42.2791 33.214 42.6491Z" fill="#2D0909"/>
<path d="M33.2141 42.6487C32.0691 43.2962 30.8641 43.4881 29.5991 43.2243C29.9272 42.1462 30.6435 42.195 31.5547 42.09C31.8735 42.0537 32.1604 42.15 32.4154 42.3787C32.4629 42.42 32.5179 42.4425 32.5804 42.4462C32.8041 42.4587 33.0154 42.5262 33.2141 42.6487Z" fill="#932318"/>
<path d="M48.2254 43.8883C47.6704 43.747 47.8754 43.6602 48.8404 43.6277C48.9179 43.6252 48.9579 43.5852 48.9604 43.5077L48.9866 42.5083L49.476 43.3952C49.4942 43.4281 49.5192 43.4568 49.5493 43.4791C49.5794 43.5014 49.6139 43.5169 49.6504 43.5245L50.1435 43.6202C50.1612 43.6236 50.1777 43.6317 50.1914 43.6436C50.205 43.6555 50.2153 43.6707 50.2212 43.6878C50.2271 43.7049 50.2284 43.7232 50.2249 43.741C50.2215 43.7587 50.2135 43.7753 50.2016 43.7889C50.0616 43.9502 49.8779 44.0352 49.6504 44.0439C49.5816 44.0464 49.5322 44.0789 49.5022 44.1414C49.3279 44.5127 49.3672 44.9196 49.1347 45.3827C49.0847 45.4814 49.0529 45.4758 49.0391 45.3658L48.9116 44.2877C48.9054 44.2264 48.8785 44.1758 48.831 44.1358C48.671 44.0008 48.4691 43.9183 48.2254 43.8883Z" fill="#C8CD9C"/>
<path d="M43.3317 45.3788L43.3448 44.7375C43.344 44.7164 43.3512 44.6957 43.3649 44.6796C43.3786 44.6635 43.3978 44.6531 43.4188 44.6505C43.4398 44.6479 43.461 44.6533 43.4782 44.6656C43.4954 44.6779 43.5073 44.6962 43.5117 44.7169L43.7142 45.4519C43.7305 45.5094 43.7655 45.5506 43.8192 45.5756L44.0255 45.6769C44.0396 45.6841 44.0518 45.6947 44.0607 45.7079C44.0696 45.721 44.075 45.7362 44.0763 45.7519C44.0776 45.7676 44.0748 45.7832 44.0682 45.7974C44.0616 45.8115 44.0514 45.8236 44.0386 45.8325C43.9373 45.9038 43.8236 45.93 43.6973 45.9113C43.5598 45.8925 43.5217 45.9456 43.5829 46.0706C43.6592 46.2269 43.6461 46.3769 43.5436 46.5206C43.5359 46.5315 43.525 46.5397 43.5123 46.5439C43.4997 46.548 43.486 46.548 43.4734 46.5438C43.4607 46.5396 43.4498 46.5314 43.4422 46.5205C43.4345 46.5095 43.4307 46.4964 43.4311 46.4831C43.4386 46.2581 43.3967 46.0488 43.3055 45.855C43.2909 45.8243 43.2668 45.7991 43.2367 45.7832C43.2066 45.7673 43.1722 45.7616 43.1386 45.7669C42.9736 45.7944 42.8142 45.7781 42.6605 45.7181C42.6476 45.7131 42.6368 45.704 42.6296 45.6922C42.6223 45.6805 42.6191 45.6667 42.6204 45.653C42.6217 45.6392 42.6273 45.6263 42.6366 45.6161C42.6458 45.6058 42.6582 45.5989 42.6717 45.5963L43.2361 45.4913C43.2986 45.48 43.3305 45.4425 43.3317 45.3788Z" fill="#C8CD9C"/>
<path d="M31.804 45.8721L32.2296 46.0783C31.8109 47.1283 30.9328 47.5627 29.5953 47.3814C28.8665 47.2827 28.4646 46.8633 28.3896 46.1233L31.804 45.8721Z" fill="#CF7253"/>
<path d="M32.2296 46.0781C32.6871 46.1906 33.1396 46.2106 33.5871 46.1381C33.7371 46.0969 33.789 46.1988 33.7428 46.4438C33.7303 46.5075 33.7521 46.5556 33.8084 46.5881C36.184 47.9719 37.0371 49.8 37.8059 52.2938L38.1828 53.7488L35.8915 54.3769C35.8782 54.3807 35.8643 54.3815 35.8506 54.3792C35.8369 54.3769 35.8238 54.3715 35.8122 54.3635C35.8006 54.3555 35.7908 54.345 35.7835 54.3327C35.7761 54.3205 35.7714 54.3068 35.7696 54.2925C35.6434 53.1725 35.3909 52.0813 35.0121 51.0188C35.0057 51.0029 34.9937 50.99 34.9785 50.9822C34.9633 50.9745 34.9457 50.9725 34.9291 50.9765C34.9125 50.9806 34.898 50.9906 34.8881 51.0045C34.8782 51.0184 34.8736 51.0355 34.8753 51.0525C35.0378 52.1825 35.1072 53.3175 35.0834 54.4575C35.0809 54.5275 35.0459 54.5688 34.9784 54.5813L34.1046 54.7444C34.0496 52.9169 33.9403 51.2869 33.7765 49.8544C33.7515 49.6406 33.6821 49.4075 33.5684 49.155C33.5567 49.1293 33.5395 49.1065 33.5181 49.0883C33.4967 49.0702 33.4716 49.0571 33.4446 49.05C33.2471 48.9963 33.0634 48.8869 32.8934 48.7219C33.4615 48.7219 33.4446 47.6925 33.4653 47.2781C33.4659 47.2607 33.4613 47.2435 33.4521 47.2287C33.4429 47.2139 33.4296 47.2022 33.4137 47.1949C33.3979 47.1877 33.3803 47.1853 33.3631 47.1881C33.3459 47.1909 33.3299 47.1988 33.3171 47.2106C32.5634 47.9181 31.6371 48.2619 30.5384 48.2419C29.4321 48.33 27.9171 48.2419 27.259 47.2313C27.2203 47.1713 27.169 47.1575 27.1053 47.19C27.0265 47.23 26.9803 47.3244 26.9665 47.4731C26.8965 47.4619 26.8196 47.4269 26.7359 47.3681C26.6796 47.3294 26.6253 47.3325 26.5728 47.3775C26.4203 47.5075 26.2603 47.5288 26.0928 47.4413C26.5553 47.2563 26.8878 47.035 27.0903 46.7775C27.349 46.8338 27.4578 46.6506 27.4165 46.2281L28.3896 46.1231C28.4646 46.8631 28.8665 47.2825 29.5953 47.3813C30.9328 47.5625 31.8109 47.1281 32.2296 46.0781Z" fill="#48928C"/>
<path d="M27.0905 46.7778C26.888 47.0353 26.5555 47.2566 26.093 47.4416C24.0999 48.861 22.8999 51.2797 22.4761 53.646C22.4674 53.696 22.4386 53.7135 22.3899 53.6985C22.3736 53.6935 22.3574 53.6885 22.3411 53.6835C22.3338 53.681 22.3275 53.6759 22.3234 53.6691C22.3193 53.6622 22.3176 53.6541 22.3186 53.646C22.4986 52.6585 22.8299 51.6403 23.3124 50.5916C24.1374 48.7966 25.3968 47.5253 27.0905 46.7778Z" fill="#AECD9E"/>
<path d="M30.5387 48.2419L30.608 48.4087C30.4768 48.6425 30.4074 48.8675 30.3999 49.0837C30.3974 49.1501 30.3751 49.2142 30.3357 49.2678C30.2964 49.3213 30.2419 49.3618 30.1793 49.384C30.1166 49.4062 30.0488 49.4092 29.9845 49.3924C29.9202 49.3756 29.8625 49.3399 29.8187 49.29L29.1549 48.5231C29.1446 48.5113 29.1315 48.5023 29.1168 48.4967C29.1021 48.4912 29.0862 48.4894 29.0707 48.4914C29.0551 48.4934 29.0403 48.4993 29.0275 48.5084C29.0147 48.5175 29.0044 48.5297 28.9974 48.5437L28.673 49.1887C28.6418 49.2512 28.593 49.2719 28.5268 49.2506C28.1568 49.1344 27.9955 48.8662 28.043 48.4462C28.0475 48.4098 28.0385 48.3746 28.0174 48.3467C27.9964 48.3187 27.9646 48.2996 27.9273 48.2923C27.89 48.2851 27.8493 48.2903 27.8121 48.3071C27.7749 48.3238 27.7432 48.351 27.7224 48.3844C27.5774 48.6131 27.3755 48.6837 27.1168 48.5962C27.0859 48.5857 27.059 48.5662 27.0396 48.5404C27.0202 48.5146 27.0092 48.4838 27.008 48.4519L26.9668 47.4731C26.9805 47.3244 27.0268 47.23 27.1055 47.19C27.1693 47.1575 27.2205 47.1712 27.2593 47.2312C27.9174 48.2419 29.4324 48.33 30.5387 48.2419Z" fill="#F1E8B9"/>
<path d="M32.8936 48.7219C32.5986 48.6356 32.4186 48.4813 32.3536 48.2588C32.3442 48.2262 32.3236 48.198 32.2954 48.1793C32.2671 48.1606 32.2332 48.1525 32.1995 48.1566C32.1659 48.1606 32.1348 48.1765 32.1118 48.2015C32.0889 48.2264 32.0755 48.2587 32.0742 48.2925C32.0567 48.7063 31.8811 49.0281 31.5473 49.2581C31.5169 49.2792 31.4807 49.2901 31.4438 49.2891C31.407 49.2881 31.3717 49.2753 31.343 49.2525C31.043 49.0175 30.828 48.7213 30.698 48.3638C30.6767 48.3063 30.6536 48.3056 30.6286 48.3619L30.608 48.4088L30.5386 48.2419C31.6373 48.2619 32.5636 47.9181 33.3173 47.2106C33.3301 47.1988 33.3461 47.1909 33.3632 47.1882C33.3804 47.1854 33.3981 47.1877 33.4139 47.1949C33.4298 47.2022 33.4431 47.2139 33.4523 47.2287C33.4615 47.2435 33.466 47.2607 33.4655 47.2781C33.4448 47.6925 33.4617 48.7219 32.8936 48.7219Z" fill="#C8CD9C"/>
<path d="M25.0935 54.6355L24.4072 54.4893C24.5922 53.3505 24.9491 52.2693 25.4779 51.2455C25.5404 51.1243 25.5541 51.1293 25.5191 51.2605C25.2291 52.3618 25.0872 53.4868 25.0935 54.6355Z" fill="#397C7B"/>
</svg>
