<svg width="60" height="60" viewBox="0 0 60 60" fill="none" xmlns="http://www.w3.org/2000/svg">
<path d="M13.2611 11.8804C10.8111 14.1141 8.91547 16.7285 7.57422 19.7235" stroke="#7DA691" stroke-width="2"/>
<path d="M7.57383 19.7231C6.95008 21.0281 6.44695 22.3619 6.06445 23.7244" stroke="#75A18C" stroke-width="2"/>
<path d="M6.0644 23.7246C5.58565 25.3784 5.28439 27.0771 5.16064 28.8209" stroke="#669681" stroke-width="2"/>
<path d="M5.16084 28.8208C4.86834 32.1896 5.22834 35.5146 6.24084 38.7958" stroke="#59907C" stroke-width="2"/>
<path d="M6.24072 38.7959C8.38322 45.3821 12.5145 50.349 18.6345 53.6965C19.5895 54.219 20.5201 54.6021 21.4263 54.8459" stroke="#4B8971" stroke-width="2"/>
<path d="M21.4263 54.8457L23.0388 55.3651" stroke="#225852" stroke-width="2"/>
<path d="M23.0391 55.3652C24.8866 55.884 26.7603 56.194 28.6603 56.2952" stroke="#428F77" stroke-width="2"/>
<path d="M28.6602 56.2954L29.0502 56.3123" stroke="#277362" stroke-width="2"/>
<path d="M29.0503 56.312C29.539 56.417 30.0522 56.4258 30.5897 56.3383" stroke="#328476" stroke-width="2"/>
<path d="M30.5898 56.3386L31.4298 56.2842" stroke="#277362" stroke-width="2"/>
<path d="M31.4297 56.284C32.9272 56.1615 34.3647 55.9378 35.7422 55.6128" stroke="#428F77" stroke-width="2"/>
<path d="M24.5482 6.09766C20.2682 7.07516 16.5057 9.00266 13.2607 11.8802" stroke="#7DA993" stroke-width="2"/>
<path d="M54.8747 32.0568C55.106 26.7618 53.8616 21.8806 51.1416 17.4131" stroke="#4D9077" stroke-width="2"/>
<path d="M51.1417 17.4131C48.2842 12.8475 43.5967 8.66061 38.3242 7.22998" stroke="#5B9783" stroke-width="2"/>
<path d="M38.3241 7.23014L37.5835 6.43701" stroke="#254145" stroke-width="2"/>
<path d="M37.5836 6.43713C36.8286 5.76338 36.0167 5.16275 35.1479 4.63525" stroke="#284247" stroke-width="2"/>
<path d="M35.1479 4.6352C34.3417 4.1352 33.4711 3.84082 32.5361 3.75207C32.4385 3.74309 32.3405 3.76345 32.2547 3.81056C32.1688 3.85767 32.099 3.92937 32.0542 4.01645C31.7804 4.5502 31.4248 5.0252 30.9873 5.44145" stroke="#435A57" stroke-width="2"/>
<path d="M30.9871 5.44165C28.7946 5.40165 26.6483 5.6204 24.5483 6.0979" stroke="#7FAD97" stroke-width="2"/>
<path d="M35.1477 4.6352C35.1165 4.78645 35.064 4.89832 34.9903 4.97082C34.9415 5.01832 34.8852 5.03082 34.8215 5.00832L33.0571 4.3877" stroke="#372628" stroke-width="2"/>
<path d="M33.0572 4.3878C32.609 4.10467 32.204 4.87717 32.0034 5.2278" stroke="#402B2C" stroke-width="2"/>
<path d="M32.0032 5.22754C31.2757 6.06941 30.5351 7.02379 29.7963 7.70441C27.507 9.81566 24.9476 10.6257 21.9551 11.5238" stroke="#372628" stroke-width="2"/>
<path d="M21.955 11.5239C19.1219 12.4464 16.6638 13.5958 14.6725 15.7427C13.2288 17.3008 12.7525 19.0821 12.9419 21.1633" stroke="#402B2C" stroke-width="2"/>
<path d="M12.9422 21.1631C12.9297 21.8418 13.104 22.49 13.4653 23.1075C13.5415 23.24 13.5734 23.3618 13.5609 23.4731C13.5582 23.4938 13.5497 23.5133 13.5362 23.5293C13.5227 23.5453 13.5049 23.5571 13.485 23.5632C13.465 23.5693 13.4437 23.5696 13.4235 23.5639C13.4034 23.5582 13.3854 23.5469 13.3715 23.5312C13.1465 23.2762 12.8415 23.1031 12.4565 23.0118" stroke="#372628" stroke-width="2"/>
<path d="M12.4563 23.0122C11.9951 22.4172 11.7276 21.5735 11.6538 20.481" stroke="#342426" stroke-width="2"/>
<path d="M11.6538 20.4808C11.7113 19.6108 11.9913 18.6877 12.4938 17.7114" stroke="#878C74" stroke-width="2"/>
<path d="M12.4941 17.7114C15.2148 12.9452 19.5216 11.3233 24.271 9.66016C27.1491 8.65328 29.0935 7.62953 30.9873 5.44141" stroke="#8E9179" stroke-width="2"/>
<path d="M33.0572 4.3877C33.0234 4.5977 33.2053 4.7852 33.6028 4.9502C33.6655 4.97665 33.7158 5.02556 33.7434 5.08707C33.9772 5.60332 33.8803 6.03957 33.4528 6.39582C33.4078 6.43457 33.3565 6.44832 33.299 6.43707C32.5553 6.29957 32.1234 5.89645 32.0034 5.2277" stroke="#25141C" stroke-width="2"/>
<path d="M37.5834 6.43724C37.5497 6.51099 37.4834 6.54224 37.3847 6.53099C37.3559 6.52724 37.3415 6.51037 37.3415 6.48037C37.3415 6.46412 37.3434 6.44662 37.3472 6.42787C37.3488 6.41557 37.3455 6.40678 37.3381 6.40298C37.3306 6.39917 37.3193 6.40058 37.3061 6.40696C37.2929 6.41334 37.2785 6.42432 37.2655 6.43803C37.2525 6.45174 37.2416 6.46736 37.2347 6.48224C37.1884 6.58474 37.1465 6.69286 37.109 6.80661C37.0884 6.86734 37.0473 6.91902 36.9928 6.95286C36.0553 7.52661 35.2959 7.92224 34.8515 8.53349C34.7053 8.73474 34.5478 8.89599 34.379 9.01724C33.1265 9.91724 31.959 10.9166 30.8765 12.0154C30.8553 12.0366 30.8203 12.051 30.7715 12.0585C30.7115 12.066 30.6597 12.0916 30.6159 12.1354C29.984 12.7597 29.2172 13.2266 28.6772 13.9279C28.0972 14.6804 27.5128 15.2716 26.924 15.7016C26.5428 15.9804 26.2747 16.2204 26.1197 16.4216C26.0834 16.4679 26.0365 16.4966 25.979 16.5079C25.4015 16.6166 24.4397 17.5691 23.9728 17.9704C23.8228 18.0997 23.6222 18.1766 23.4684 18.3491C23.3322 18.5041 23.2222 18.6066 23.1384 18.6566C20.3559 20.3291 17.2847 21.3097 14.489 23.2222C14.1234 23.4716 13.7165 23.4641 13.319 23.6947C13.2645 23.7262 13.2014 23.7375 13.1409 23.7266C12.7972 23.6704 12.569 23.4322 12.4565 23.0122" stroke="#190D16" stroke-width="2"/>
<path d="M12.9419 21.1633C13.4969 21.3283 13.76 21.0589 13.7313 20.3552C13.7088 19.8171 14.2544 19.3971 14.6538 19.2096C15.715 18.7071 16.5363 17.8802 17.3856 17.2446C17.9344 16.8358 18.315 16.4633 18.5275 16.1271C18.7425 15.7883 18.9375 15.5471 19.1125 15.4033C19.1585 15.3648 19.1984 15.3192 19.2306 15.2683C19.5175 14.7939 20.065 14.3571 20.275 13.8208C20.2963 13.7646 20.3313 13.7183 20.38 13.6821C20.6775 13.4646 20.9263 13.2021 21.1263 12.8946C21.3906 12.4896 22.4913 12.0658 21.955 11.5239" stroke="#25141C" stroke-width="2"/>
<path d="M12.4942 17.7113C12.2467 17.8519 11.8867 17.2387 11.4798 17.1806C11.4186 17.1719 11.3705 17.1931 11.3355 17.2444C10.7417 18.1156 10.208 18.8125 9.73422 19.335C9.15672 19.9725 8.43672 20.1019 7.57422 19.7231" stroke="#C3DFB5" stroke-width="2"/>
<path d="M38.3242 7.22998C38.938 8.25498 39.2686 9.29373 39.3161 10.3462" stroke="#4D6252" stroke-width="2"/>
<path d="M39.3157 10.3467L38.5825 12.5723" stroke="#22121A" stroke-width="2"/>
<path d="M38.5828 12.5721L38.5584 12.2889C38.5534 12.2264 38.5197 12.1971 38.4572 12.2008C38.3622 12.2071 38.3047 12.1658 38.2847 12.0771C38.2722 12.0221 38.2372 11.9914 38.1797 11.9852C37.559 11.9271 37.2478 12.5627 36.8465 12.8402C36.7953 12.8764 36.7534 12.9221 36.7209 12.9771C36.6859 13.0408 36.6447 13.0858 36.5972 13.1121C36.5622 13.1321 36.5447 13.1221 36.5447 13.0821V12.9546C36.5447 12.8696 36.5153 12.8577 36.4565 12.9189C35.1565 14.2589 33.8928 15.6327 32.6653 17.0402C32.1365 17.6458 31.5665 18.2046 31.0097 18.7858C31.0069 18.7884 31.0034 18.7899 30.9997 18.7903C30.9959 18.7906 30.9922 18.7897 30.989 18.7877C30.9753 18.7777 30.9609 18.7733 30.9459 18.7746C30.9343 18.7756 30.9223 18.7788 30.9114 18.7839C30.9005 18.7889 30.8911 18.7956 30.8845 18.803C30.8779 18.8104 30.8743 18.8183 30.8742 18.8255C30.8741 18.8328 30.8776 18.8392 30.884 18.8439C30.919 18.8714 30.919 18.8946 30.884 18.9133C30.8626 18.9251 30.8414 18.934 30.8242 18.9385C30.807 18.943 30.795 18.9427 30.7903 18.9377C30.7828 18.9302 30.7747 18.9214 30.7659 18.9114C30.756 18.9008 30.743 18.8943 30.7289 18.893C30.7149 18.8917 30.7007 18.8956 30.6887 18.9041C30.6766 18.9127 30.6675 18.9253 30.6628 18.9399C30.6581 18.9545 30.6581 18.9703 30.6628 18.9846C30.6915 19.0783 30.6659 19.1189 30.5859 19.1064C30.5097 19.0952 30.4534 19.1239 30.4172 19.1927C30.2772 19.4614 30.0628 19.6327 29.774 19.7064C29.7228 19.7189 29.7115 19.7477 29.7403 19.7927C29.749 19.8077 29.7647 19.8183 29.7872 19.8246C29.8042 19.8285 29.8192 19.8387 29.8293 19.8531C29.8394 19.8674 29.8438 19.885 29.8417 19.9024C29.8396 19.9198 29.8311 19.9359 29.818 19.9474C29.8048 19.959 29.7878 19.9653 29.7703 19.9652C28.7484 19.9858 27.8015 19.9277 26.8172 20.1246C26.4484 20.1983 26.0797 20.2721 25.7109 20.3458C24.5897 20.5671 23.474 21.0283 22.3959 21.4014C20.6409 22.0108 18.0947 23.3346 17.2003 25.2358C16.964 25.7371 16.7559 26.0821 16.5759 26.2708C15.9534 26.9233 15.2184 27.1089 14.519 27.6227C13.814 28.1414 13.0484 28.3783 12.2222 28.3333" stroke="#120810" stroke-width="2"/>
<path d="M12.2221 28.3333C11.8533 27.7071 11.6689 27.0414 11.6689 26.3364" stroke="#596857" stroke-width="2"/>
<path d="M11.6689 26.3363L12.2502 28.0144C12.3002 28.1582 12.3321 28.1544 12.3458 28.0032C12.4696 26.6607 13.1108 25.5994 13.4783 24.5438C13.5021 24.4763 13.4908 24.4151 13.4446 24.3601C13.2271 24.1026 12.9158 23.8932 12.5108 23.7319" stroke="#2F1C22" stroke-width="2"/>
<path d="M12.5107 23.7323L12.0532 23.0142" stroke="#596857" stroke-width="2"/>
<path d="M12.0535 23.0141C11.6385 22.1641 11.5053 21.3197 11.6541 20.481" stroke="#697362" stroke-width="2"/>
<path d="M51.1416 17.4131C51.1228 17.5843 51.1641 17.7193 51.2653 17.8181C51.282 17.8308 51.2929 17.8495 51.2957 17.8703C51.2985 17.891 51.293 17.9121 51.2803 17.9287C51.2676 17.9454 51.2489 17.9563 51.2281 17.9591C51.2074 17.9619 51.1863 17.9564 51.1697 17.9437L51.1284 17.9175C51.0934 17.8975 51.0572 17.8937 51.0197 17.9062C50.4659 18.105 50.0041 18.4225 49.6341 18.8587C49.1203 19.4643 48.5616 19.6012 48.5484 20.5706C48.5484 20.6143 48.5266 20.6362 48.4828 20.6362H48.4078C48.3964 20.6363 48.3852 20.632 48.3763 20.6241C48.3674 20.6162 48.3613 20.6052 48.3591 20.5931L48.3497 20.5181C48.3422 20.4668 48.3147 20.4518 48.2672 20.4731C48.2347 20.4881 48.2003 20.4993 48.1641 20.5068" stroke="#75B185" stroke-width="2"/>
<path d="M48.1638 20.5072C47.8776 19.6222 47.3794 18.8404 46.6694 18.1616" stroke="#495E4E" stroke-width="2"/>
<path d="M46.6695 18.1614C45.6207 17.2226 44.332 16.6464 42.8032 16.4326" stroke="#6B7B64" stroke-width="2"/>
<path d="M42.8032 16.4328C44.3651 15.2178 44.9051 13.4384 44.3726 11.5259" stroke="#586958" stroke-width="2"/>
<path d="M44.3728 11.526C43.4678 10.0922 42.1453 9.536 40.4053 9.85725" stroke="#6B7B64" stroke-width="2"/>
<path d="M40.4053 9.85693L39.3159 10.3463" stroke="#586958" stroke-width="2"/>
<path d="M44.3726 11.5257C44.1738 11.6744 44.1207 11.9357 44.2132 12.3094C44.2227 12.3434 44.2195 12.3796 44.2042 12.4113C44.1889 12.443 44.1624 12.4681 44.1299 12.4817C44.0974 12.4953 44.0611 12.4965 44.0277 12.4852C43.9944 12.4738 43.9663 12.4507 43.9488 12.4201C43.3076 11.3757 42.1976 11.0738 40.9432 10.7157C40.467 10.5807 40.3188 10.3351 40.4051 9.85693" stroke="#402B2C" stroke-width="2"/>
<path d="M42.8032 16.4326L41.6369 16.9464C41.5569 16.9814 41.5607 17.002 41.6482 17.0082C42.4757 17.072 43.4144 17.2364 44.4644 17.5014C46.2444 17.9501 47.3919 19.1126 47.9069 20.9889" stroke="#402B2C" stroke-width="2"/>
<path d="M47.9069 20.9888C48.0132 21.3338 48.0688 21.6375 48.0738 21.9C48.0788 22.1225 47.9832 22.2994 47.7869 22.4307C47.7407 22.4619 47.715 22.5057 47.71 22.5619C47.6838 22.8332 47.7225 23.0894 47.8263 23.3307C47.8513 23.3882 47.8557 23.4482 47.8394 23.5107C47.7588 23.8238 47.6988 24.0544 47.8394 24.3732C48.0532 24.8588 48.8763 26.7469 48.5257 27.1875C48.4744 27.2513 48.4407 27.2425 48.4244 27.1613C48.3494 26.7694 48.3025 26.3888 48.1207 26.025C47.7963 25.3707 47.3144 24.6544 47.2863 23.9044C47.2438 22.7519 47.0538 21.7413 46.7163 20.8725C45.7113 18.2832 42.3119 17.6325 39.8932 17.3025C39.8766 17.3003 39.8613 17.2927 39.8496 17.2808C39.838 17.2689 39.8306 17.2535 39.8286 17.2369C39.8267 17.2204 39.8303 17.2036 39.839 17.1894C39.8476 17.1751 39.8607 17.1641 39.8763 17.1582C41.3213 16.5982 42.2425 15.6213 42.64 14.2275" stroke="#1E0F16" stroke-width="2"/>
<path d="M42.6401 14.2277L43.5589 13.9633C43.6045 13.9503 43.6458 13.9256 43.6787 13.8917C43.7116 13.8578 43.7349 13.8159 43.7464 13.7702C44.1533 12.1708 42.6326 11.2464 41.322 11.0758C40.447 10.962 39.7301 11.3552 39.1714 12.2552" stroke="#3A2328" stroke-width="2"/>
<path d="M39.1713 12.2554L38.5825 12.5722" stroke="#1E0F16" stroke-width="2"/>
<path d="M42.6401 14.2275C42.5014 11.9869 40.9508 11.7506 39.1714 12.255" stroke="#2B191E" stroke-width="2"/>
<path d="M47.9071 20.9891C47.8496 20.0029 47.4427 19.1479 46.6865 18.4241C46.5965 18.3379 46.6002 18.2572 46.6696 18.1616" stroke="#302122" stroke-width="2"/>
<path d="M48.1642 20.5068C48.3992 21.6756 48.3423 22.8431 47.9936 24.0093C47.9849 24.0383 47.9832 24.069 47.9887 24.099C47.9943 24.129 48.0069 24.1574 48.0255 24.1818C49.9642 26.7993 48.2561 29.0418 47.043 31.4212" stroke="#3B5742" stroke-width="2"/>
<path d="M47.0427 31.4215C46.709 31.329 46.3321 31.3515 45.9121 31.489" stroke="#857657" stroke-width="2"/>
<path d="M45.9121 31.4892C45.1121 32.0467 44.4915 32.8129 44.0502 33.7879C43.9927 33.9167 43.9696 33.9104 43.9808 33.7692C44.2752 30.3023 43.784 26.0442 41.009 23.6704C37.3696 20.5598 30.9946 20.1998 26.5171 20.8879" stroke="#855633" stroke-width="2"/>
<path d="M26.5169 20.8877C22.4875 21.4558 18.2575 23.6196 17.1475 27.7671C16.5875 29.8583 16.3288 31.9327 16.3713 33.9902C16.3738 34.1314 16.355 34.1346 16.315 33.9996C16.01 32.9983 15.4638 32.2146 14.6763 31.6483" stroke="#855C3A" stroke-width="2"/>
<path d="M14.6765 31.6483C14.3228 31.3733 13.8953 31.3008 13.394 31.4308" stroke="#857657" stroke-width="2"/>
<path d="M13.3941 31.4308C13.3116 30.7671 13.1047 30.1865 12.7734 29.689" stroke="#495E4E" stroke-width="2"/>
<path d="M12.7734 29.6891L12.2222 28.3335" stroke="#556453" stroke-width="2"/>
<path d="M12.0533 23.0141C11.6808 22.9591 11.4752 22.6053 11.4364 21.9528C11.4289 21.8341 11.4089 21.8334 11.3764 21.9509C11.3452 22.0684 11.2739 22.1497 11.1627 22.1947C11.1285 22.2089 11.0977 22.2301 11.0725 22.257C11.0473 22.2838 11.0282 22.3156 11.0164 22.3503L10.5889 23.5972C10.5555 23.6951 10.4941 23.7811 10.4125 23.8444C10.3308 23.9078 10.2324 23.9457 10.1295 23.9534C9.46767 24.0041 8.51893 24.1784 7.89643 23.9197C7.77643 23.8709 7.06017 23.6441 7.02455 23.5822C6.9983 23.5372 6.95955 23.5084 6.9083 23.4959C6.8008 23.4709 6.73455 23.4997 6.70955 23.5822C6.68455 23.6609 6.6308 23.6978 6.5483 23.6928C6.41705 23.6853 6.3183 23.7441 6.25205 23.8691C6.24536 23.8818 6.23557 23.8927 6.22359 23.9008C6.2116 23.9088 6.1978 23.9137 6.18344 23.915C6.16908 23.9163 6.15462 23.914 6.14138 23.9082C6.12815 23.9025 6.11655 23.8936 6.10767 23.8822C6.07517 23.8409 6.0608 23.7884 6.06455 23.7247" stroke="#ACCFA5" stroke-width="2"/>
<path d="M54.8748 32.0571C54.496 40.5871 50.9016 47.2803 44.0916 52.1365C43.3954 52.6328 42.566 53.1028 41.6035 53.5465" stroke="#4C8C73" stroke-width="2"/>
<path d="M41.6034 53.5463C41.5596 53.5676 41.5115 53.5044 41.459 53.3569" stroke="#439B77" stroke-width="2"/>
<path d="M41.4588 53.3573C41.5881 53.3141 41.62 53.3122 41.575 53.1679C40.84 50.8179 39.8619 48.571 38.6406 46.4272" stroke="#82B78A" stroke-width="2"/>
<path d="M38.6411 46.4271C38.1861 45.6509 37.5998 45.0015 36.8823 44.479" stroke="#5EB07F" stroke-width="2"/>
<path d="M36.8822 44.4789C36.6335 43.9264 36.1991 43.6639 35.5791 43.6914" stroke="#43956A" stroke-width="2"/>
<path d="M35.5792 43.6916L35.4517 43.5903" stroke="#3E795A" stroke-width="2"/>
<path d="M35.4517 43.5901C37.4935 43.0988 38.896 42.5476 40.4448 41.1582" stroke="#B2AF71" stroke-width="2"/>
<path d="M40.4448 41.1582C41.3511 40.357 42.1055 39.4126 42.708 38.3251C42.7405 38.2676 42.7886 38.2432 42.8523 38.252C44.598 38.4695 45.7698 38.4395 46.8892 37.3032" stroke="#B2A96A" stroke-width="2"/>
<path d="M46.8892 37.3033C48.4229 35.807 49.6454 32.5951 47.0429 31.4214" stroke="#B2C98E" stroke-width="2"/>
<path d="M45.9121 31.4888C45.9384 31.56 45.9696 31.6169 46.0059 31.6594C46.0446 31.7044 46.0927 31.7194 46.1502 31.7044L46.5777 31.5994C46.6577 31.5794 46.7309 31.5931 46.7971 31.6406C48.494 32.85 47.9334 35.1675 46.9809 36.6844C46.9482 36.7351 46.9355 36.7952 46.9452 36.8531C46.964 36.9844 46.9452 37.1344 46.889 37.3031" stroke="#FCC87F" stroke-width="2"/>
<path d="M40.4444 41.1584C40.3669 41.1184 40.2806 41.1078 40.1856 41.1265C40.1531 41.1328 40.14 41.1196 40.1463 41.0871L40.3619 40.144C40.3654 40.1304 40.3645 40.1162 40.3593 40.1032C40.3542 40.0902 40.345 40.0792 40.3331 40.0716C40.3212 40.064 40.3071 40.0602 40.2927 40.0607C40.2784 40.0613 40.2646 40.0661 40.2531 40.0746L40.0919 40.1946C40.0469 40.2284 40.0106 40.2209 39.9831 40.1721C39.6869 39.6378 40.5456 39.3171 40.2306 38.8071" stroke="#FCAE62" stroke-width="2"/>
<path d="M40.231 38.8072C41.7835 38.0291 41.4216 37.3278 40.0098 36.8047" stroke="#FB985A" stroke-width="2"/>
<path d="M40.0098 36.8046C40.3223 36.1359 40.3585 35.4477 40.1185 34.7402" stroke="#FCAE62" stroke-width="2"/>
<path d="M40.1182 34.7402L40.18 34.4458" stroke="#F4C59B" stroke-width="2"/>
<path d="M40.1801 34.4459C40.3426 34.2709 40.4276 34.0897 40.4351 33.9022C40.4726 33.0384 40.2382 32.2753 39.7319 31.6128" stroke="#825732" stroke-width="2"/>
<path d="M39.7323 31.6127C39.6098 31.4189 39.5704 31.3139 39.6142 31.2977C39.6633 31.2796 39.7069 31.2492 39.741 31.2096C39.7751 31.1699 39.7986 31.1222 39.8091 31.0709C39.8196 31.0197 39.8168 30.9666 39.8011 30.9167C39.7854 30.8668 39.7572 30.8217 39.7192 30.7858C39.1623 30.2589 38.7142 29.867 37.9773 29.4077C37.5948 29.1689 37.2336 28.8833 36.8936 28.5508" stroke="#FCAE62" stroke-width="2"/>
<path d="M36.8936 28.5508L39.3048 28.922C39.3673 28.932 39.4229 28.9177 39.4717 28.8789C39.5904 28.7864 39.7048 28.727 39.8148 28.7008" stroke="#FBA25F" stroke-width="2"/>
<path d="M39.8147 28.7006L40.4859 29.0775C40.5384 29.107 40.5992 29.1182 40.6588 29.1092C40.7183 29.1002 40.7731 29.0715 40.8145 29.0278C40.8559 28.984 40.8815 28.9277 40.8872 28.8677C40.8929 28.8078 40.8783 28.7476 40.8459 28.6969C39.4222 26.4706 37.3965 25.5862 34.769 26.0437C34.409 26.1062 34.0965 26.2419 33.8315 26.4506" stroke="#825732" stroke-width="2"/>
<path d="M33.8315 26.4508C33.7052 26.4533 33.6521 26.5564 33.6721 26.7602C33.6783 26.8302 33.6465 26.8677 33.5765 26.8727C33.4952 26.8777 33.4265 26.8496 33.3702 26.7883C33.3327 26.7496 33.3071 26.7039 33.2933 26.6514C33.1583 26.1621 32.7421 25.9727 32.5265 25.6521C32.2002 25.1664 31.9396 24.5083 31.544 24.0939C31.5244 24.0731 31.5007 24.0565 31.4743 24.0449C31.4479 24.0333 31.4193 24.027 31.3902 24.0264C30.689 24.0002 30.5577 23.5314 30.0759 23.2633C29.4096 22.8933 28.7065 22.6308 27.9665 22.4758C27.2202 22.3183 26.3859 21.9864 25.5459 21.9789C25.5205 21.9785 25.4959 21.97 25.4758 21.9545C25.4557 21.9391 25.4411 21.9175 25.4342 21.8932C25.4273 21.8688 25.4284 21.8428 25.4373 21.8191C25.4463 21.7954 25.4626 21.7751 25.484 21.7614L26.0821 21.3902C26.1206 21.3666 26.163 21.3495 26.2077 21.3396C26.299 21.3221 26.3796 21.2896 26.4496 21.2421C26.4587 21.2363 26.4657 21.2278 26.4694 21.2177C26.4732 21.2076 26.4734 21.1965 26.4702 21.1862C26.467 21.1759 26.4605 21.167 26.4517 21.1608C26.4429 21.1547 26.4322 21.1516 26.4215 21.1521H26.3258C26.317 21.1514 26.3109 21.1475 26.3085 21.1411C26.306 21.1347 26.3074 21.126 26.3123 21.1165C26.3173 21.107 26.3256 21.0973 26.3358 21.0888C26.3461 21.0803 26.3578 21.0735 26.369 21.0696C26.4602 21.0383 26.5096 20.9777 26.5171 20.8877" stroke="#FCAE62" stroke-width="2"/>
<path d="M44.6576 34.3579C44.3676 35.0154 44.0407 35.6436 43.677 36.2423C43.6639 36.2642 43.6569 36.2892 43.6567 36.3147C43.6566 36.3401 43.6633 36.3652 43.6761 36.3872C43.6889 36.4092 43.7074 36.4274 43.7297 36.4399C43.7519 36.4523 43.7771 36.4585 43.8026 36.4579C45.1301 36.4217 46.0663 35.8148 46.6113 34.6373C47.0988 33.5873 45.9795 32.9067 45.2595 33.4373C45.0682 33.5786 44.8676 33.8854 44.6576 34.3579Z" stroke="#F58848" stroke-width="2"/>
<path d="M33.8313 26.4507C33.5575 27.0319 33.9082 27.6076 34.5794 27.5363" stroke="#825D38" stroke-width="2"/>
<path d="M34.5798 27.5366C34.6073 27.6454 34.5892 27.7547 34.5254 27.8647C34.4942 27.9172 34.5023 27.9629 34.5498 28.0016C35.1442 28.476 36.0367 28.5004 36.8936 28.551" stroke="#FBA866" stroke-width="2"/>
<path d="M39.7319 31.6127C37.6806 29.6515 35.9069 29.6396 34.4106 31.5771" stroke="#825D38" stroke-width="2"/>
<path d="M34.4109 31.5771C33.5728 32.9815 33.3891 36.109 35.8659 35.944C36.9972 35.869 38.1266 35.7753 39.2541 35.6628C39.8378 35.6053 40.1259 35.2978 40.1184 34.7403" stroke="#F4CBA1" stroke-width="2"/>
<path d="M40.0094 36.8046C38.6369 36.2871 36.34 36.2627 35.44 37.6839C35.4025 37.7427 35.3938 37.8046 35.4138 37.8696C35.8581 39.3939 39.0644 39.1858 40.2306 38.8071" stroke="#FB9E61" stroke-width="2"/>
<path d="M35.4514 43.5903L32.7852 43.9653" stroke="#897E52" stroke-width="2"/>
<path d="M32.7853 43.9653C31.1116 44.2278 29.406 44.2847 27.6685 44.136" stroke="#DA6F42" stroke-width="2"/>
<path d="M27.6683 44.1358L24.2183 43.5508" stroke="#897E52" stroke-width="2"/>
<path d="M24.2186 43.5511C24.2123 43.5273 24.1642 43.5061 24.0742 43.4873" stroke="#8E9A62" stroke-width="2"/>
<path d="M24.0739 43.4872C21.2577 42.6903 19.0864 40.6953 17.5845 38.1416C17.5495 38.0841 17.5008 38.0666 17.4383 38.0891C16.562 38.4078 15.7364 38.4303 14.9614 38.1566" stroke="#B2AF71" stroke-width="2"/>
<path d="M14.9615 38.1566C13.8853 37.1091 13.1847 36.1466 12.8597 35.2691C12.1472 33.3441 12.7528 32.1372 14.6765 31.6484" stroke="#FCCE86" stroke-width="2"/>
<path d="M19.9754 27.816C19.5704 28.2678 19.2947 28.5041 19.3416 29.0291C19.3446 29.0649 19.357 29.0993 19.3774 29.1288C19.3978 29.1584 19.4256 29.1821 19.458 29.1977C19.4903 29.2132 19.5262 29.22 19.5621 29.2174C19.5979 29.2148 19.6324 29.2029 19.6622 29.1828C20.6091 28.5566 21.7491 27.6266 22.8591 27.486C23.6154 27.3897 24.4904 27.4022 25.4841 27.5235C26.3447 27.6303 26.7347 26.3103 25.6529 26.076C23.3529 25.576 21.4604 26.156 19.9754 27.816Z" stroke="#825D38" stroke-width="2"/>
<path d="M20.0352 34.6427C20.3052 36.0152 21.9533 35.9665 23.0145 36.049C24.4639 36.1615 25.7652 36.2365 26.2414 34.6596C26.5977 33.4833 26.3439 32.4046 25.4802 31.4233" stroke="#F4CBA1" stroke-width="2"/>
<path d="M25.4803 31.4231C24.5672 29.7131 22.1822 30.0937 21.0104 31.215C20.0166 32.1662 19.6916 33.3087 20.0354 34.6425" stroke="#855C3A" stroke-width="2"/>
<path d="M25.4802 31.4234C23.1308 29.9215 20.6277 31.3334 20.1983 33.9697C20.162 34.1884 20.1077 34.4128 20.0352 34.6428" stroke="#7D7373" stroke-width="2"/>
<path d="M15.0123 33.3508C14.1423 33.0077 13.4561 33.8777 13.6867 34.6877C14.0073 35.807 15.4248 36.4014 16.5029 36.3545C16.5327 36.353 16.5616 36.3435 16.5865 36.327C16.6114 36.3106 16.6314 36.2877 16.6443 36.261C16.6572 36.2342 16.6625 36.2045 16.6597 36.1751C16.657 36.1457 16.6462 36.1176 16.6286 36.0939C16.0192 35.2708 15.8129 33.6677 15.0123 33.3508Z" stroke="#FB9E61" stroke-width="2"/>
<path d="M28.9848 35.9457C29.9317 35.9663 29.2323 37.0538 28.6829 37.1926C28.6304 37.2063 28.5911 37.2357 28.5648 37.2807C28.0567 38.1207 30.3161 37.922 30.1811 36.5438C30.1211 35.9438 29.5342 35.3607 28.9454 35.8313C28.9348 35.8395 28.927 35.8507 28.9232 35.8635C28.9193 35.8764 28.9196 35.8901 28.9239 35.9027C28.9283 35.9154 28.9365 35.9263 28.9474 35.934C28.9584 35.9418 28.9714 35.9458 28.9848 35.9457Z" stroke="#FCA95C" stroke-width="2"/>
<path d="M29.1827 36.5918C29.193 36.5574 29.1907 36.5195 29.1759 36.4804C29.161 36.4413 29.134 36.4017 29.0963 36.3638C29.0585 36.3259 29.0109 36.2906 28.956 36.2598C28.9011 36.2289 28.8401 36.2032 28.7764 36.1841C28.6478 36.1456 28.5162 36.1362 28.4105 36.1581C28.3048 36.18 28.2337 36.2313 28.2129 36.3009C28.2026 36.3353 28.2049 36.3731 28.2197 36.4123C28.2345 36.4514 28.2616 36.491 28.2993 36.5289C28.337 36.5667 28.3847 36.6021 28.4395 36.6329C28.4944 36.6637 28.5554 36.6894 28.6191 36.7085C28.7477 36.7471 28.8793 36.7565 28.985 36.7346C29.0907 36.7127 29.1618 36.6614 29.1827 36.5918Z" stroke="#FCCE86" stroke-width="2"/>
<path d="M21.0627 39.1893C22.1727 39.3768 23.1671 39.1931 24.0458 38.6381C24.5296 38.3325 24.6758 37.785 24.1883 37.4006C23.1321 36.5643 21.9902 36.4112 20.7627 36.9412" stroke="#FBA866" stroke-width="2"/>
<path d="M20.7627 36.9415C20.7527 36.7628 20.6965 36.6271 20.594 36.5346C20.549 36.4946 20.4977 36.4846 20.4402 36.5046C19.7752 36.7321 19.2446 37.1334 18.8483 37.7084C18.829 37.736 18.8157 37.7677 18.8096 37.8014C18.8035 37.835 18.8045 37.8698 18.8127 37.9034C18.9252 38.3571 19.3471 39.4596 19.9996 39.1484C20.0286 39.135 20.0604 39.1288 20.0924 39.1301C20.1243 39.1314 20.1555 39.1402 20.1833 39.1559C20.6658 39.4334 20.959 39.4446 21.0627 39.1896" stroke="#FDC778" stroke-width="2"/>
<path d="M20.7627 36.9414C20.154 37.2039 19.789 37.5983 19.6677 38.1245C19.6527 38.1883 19.6633 38.2477 19.6996 38.3027C20.0058 38.7814 20.4602 39.077 21.0627 39.1895" stroke="#FCBA75" stroke-width="2"/>
<path d="M28.8232 42.0677C30.5645 42.6177 31.9695 42.3315 33.0382 41.209" stroke="#E67645" stroke-width="2"/>
<path d="M33.0383 41.2091C33.1846 40.9716 33.2709 40.7028 33.2971 40.4028C33.3021 40.3441 33.2771 40.3247 33.2221 40.3447C31.514 40.9559 29.2865 41.0722 27.6683 40.0841C27.6146 40.0516 27.589 40.0666 27.5915 40.1291C27.624 41.0703 28.0346 41.7166 28.8234 42.0678" stroke="#C3663E" stroke-width="2"/>
<path d="M33.0384 41.2087C31.9034 41.2512 30.8215 41.2481 29.7927 41.1993C29.484 41.1843 29.139 41.3225 28.7577 41.6137C28.7487 41.6206 28.7413 41.6294 28.7361 41.6396C28.731 41.6497 28.7282 41.6609 28.728 41.6723C28.7279 41.6837 28.7303 41.695 28.7351 41.7053C28.7399 41.7156 28.747 41.7247 28.7559 41.7318C28.9959 41.9281 29.0184 42.04 28.8234 42.0675" stroke="#AC281B" stroke-width="2"/>
<path d="M12.5109 23.7319C11.8234 24.5357 11.5428 25.4038 11.669 26.3363" stroke="#727965" stroke-width="2"/>
<path d="M12.7731 29.6892L12.3663 29.1098C12.3427 29.0759 12.3113 29.0481 12.2748 29.0286C12.2383 29.0092 12.1976 28.9987 12.1561 28.9979C12.1146 28.9972 12.0735 29.0063 12.0361 29.0244C11.9986 29.0426 11.9659 29.0693 11.9407 29.1023C11.3782 29.8461 10.6738 30.418 9.82752 30.818C9.77377 30.843 9.72064 30.8417 9.66814 30.8142C8.17377 30.0192 8.69127 28.7442 9.03065 27.4823C9.05471 27.3921 9.04969 27.2966 9.01632 27.2093C8.98295 27.122 8.92293 27.0475 8.84486 26.9965C8.7668 26.9455 8.67471 26.9206 8.58178 26.9254C8.48884 26.9301 8.39984 26.9643 8.32752 27.023C7.69502 27.5317 7.04003 27.9992 6.36253 28.4255C6.30128 28.4642 6.24877 28.4548 6.20502 28.3973C6.16752 28.3473 6.15127 28.2892 6.15627 28.223C6.15877 28.1792 6.15064 28.1373 6.13189 28.0973C6.06439 27.9611 5.97627 27.958 5.86752 28.088C5.83002 28.1342 5.7994 28.1842 5.77565 28.238C5.6344 28.5805 5.42939 28.7748 5.16064 28.8211" stroke="#90BE95" stroke-width="2"/>
<path d="M39.8146 28.7011C38.2021 27.3848 36.7846 27.4017 34.5796 27.5367" stroke="#805136" stroke-width="2"/>
<path d="M13.394 31.4307C12.209 31.9632 11.6852 32.8688 11.8227 34.1475" stroke="#C0D09A" stroke-width="2"/>
<path d="M11.8226 34.1479C11.6014 33.9579 11.4432 34.0554 11.3482 34.4404C11.332 34.5054 11.2938 34.5516 11.2338 34.5791C10.7476 34.8066 10.3445 35.136 10.0245 35.5673C9.98516 35.6189 9.93353 35.6596 9.87447 35.6854C9.43572 35.8729 9.15197 36.1998 9.02322 36.666C8.97447 36.8435 8.7351 37.0885 8.3051 37.401C8.25635 37.436 8.2026 37.4554 8.14385 37.4591C7.3001 37.5098 7.12197 38.0479 6.64572 38.5316C6.62447 38.5529 6.59947 38.5616 6.57072 38.5579L6.46009 38.5429C6.39134 38.5329 6.35947 38.5623 6.36447 38.631C6.37197 38.7398 6.33072 38.7948 6.24072 38.796" stroke="#75B185" stroke-width="2"/>
<path d="M40.18 34.446C40.0975 31.311 36.9944 29.736 34.4106 31.5773" stroke="#797471" stroke-width="2"/>
<path d="M35.9998 35.5626C36.4124 35.585 36.8187 35.4113 37.1293 35.0799C37.4399 34.7484 37.6293 34.2863 37.6559 33.7953C37.6825 33.3042 37.5441 32.8243 37.2711 32.4613C36.9982 32.0982 36.613 31.8817 36.2004 31.8593C35.7877 31.837 35.3814 32.0106 35.0708 32.3421C34.7603 32.6735 34.5708 33.1356 34.5442 33.6267C34.5177 34.1178 34.6561 34.5977 34.929 34.9607C35.202 35.3238 35.5872 35.5403 35.9998 35.5626Z" stroke="#797471" stroke-width="2"/>
<path d="M23.774 35.609C24.1867 35.6451 24.5992 35.4881 24.9209 35.1724C25.2425 34.8568 25.4469 34.4084 25.4891 33.9258C25.5313 33.4433 25.4079 32.9662 25.1459 32.5995C24.884 32.2328 24.505 32.0065 24.0924 31.9704C23.6797 31.9343 23.2672 32.0914 22.9455 32.407C22.6239 32.7227 22.4195 33.1711 22.3773 33.6536C22.3351 34.1361 22.4585 34.6132 22.7204 34.9799C22.9824 35.3466 23.3614 35.5729 23.774 35.609Z" stroke="#797471" stroke-width="2"/>
<path d="M14.9615 38.1562C13.2328 37.5362 12.1865 36.2 11.8228 34.1475" stroke="#B2C98E" stroke-width="2"/>
<path d="M36.3572 33.3584C36.3459 31.7084 34.6753 32.9403 35.5059 33.5253C35.7934 33.7278 36.0528 33.7265 36.284 33.5215C36.3328 33.4778 36.3572 33.4234 36.3572 33.3584Z" stroke="#797471" stroke-width="2"/>
<path d="M35.7422 55.6125L37.9509 54.9619" stroke="#429279" stroke-width="2"/>
<path d="M37.9507 54.9623L38.9144 54.6436" stroke="#235B54" stroke-width="2"/>
<path d="M38.9146 54.6433C39.8283 54.3908 40.7245 54.0251 41.6033 53.5464" stroke="#277C71" stroke-width="2"/>
<path d="M24.2115 33.5572C24.2934 33.4489 24.3231 33.3082 24.2941 33.1658C24.265 33.0235 24.1797 32.8913 24.0567 32.7983C23.9958 32.7523 23.9276 32.7173 23.8558 32.6952C23.784 32.6732 23.7102 32.6646 23.6385 32.67C23.5667 32.6754 23.4985 32.6945 23.4378 32.7265C23.377 32.7584 23.3249 32.8024 23.2843 32.856C23.2025 32.9643 23.1727 33.1051 23.2018 33.2474C23.2308 33.3897 23.3162 33.5219 23.4392 33.6149C23.5 33.6609 23.5683 33.6959 23.6401 33.718C23.7118 33.74 23.7857 33.7486 23.8574 33.7432C23.9291 33.7379 23.9973 33.7187 24.0581 33.6868C24.1188 33.6549 24.171 33.6108 24.2115 33.5572Z" stroke="#797471" stroke-width="2"/>
<path d="M35.9184 32.9047C35.9254 32.8876 35.9255 32.8684 35.9189 32.8511C35.9122 32.8338 35.8993 32.8196 35.8826 32.8115C35.8659 32.8034 35.8468 32.802 35.8291 32.8075C35.8114 32.8129 35.7964 32.8249 35.7872 32.841C35.7059 32.9697 35.6941 33.1122 35.7516 33.2685C35.7691 33.316 35.8028 33.3397 35.8528 33.3397H35.9334C36.0334 33.3397 36.0491 33.3035 35.9803 33.231C35.8953 33.141 35.8747 33.0322 35.9184 32.9047Z" stroke="#B0988E" stroke-width="2"/>
<path d="M23.6971 33.0319C23.6221 33.0094 23.5852 33.0375 23.5865 33.1163C23.5902 33.2638 23.6708 33.365 23.8283 33.42C23.8846 33.4388 23.9171 33.4182 23.9258 33.3582C23.9483 33.1919 23.8721 33.0832 23.6971 33.0319Z" stroke="#B0988E" stroke-width="2"/>
<path d="M24.0741 43.4873C24.0491 43.5323 24.0416 43.5779 24.0516 43.6242C24.0666 43.6867 24.0503 43.7404 24.0028 43.7854L23.1216 44.6254" stroke="#43956A" stroke-width="2"/>
<path d="M23.1215 44.6254L23.0446 44.5991C22.9821 44.5766 22.9265 44.5879 22.8778 44.6329C20.5678 46.7554 20.2378 50.9423 20.1309 53.8766C20.1306 53.8842 20.1324 53.8918 20.136 53.8985C20.1395 53.9052 20.1448 53.9108 20.1513 53.9148C20.1578 53.9188 20.1652 53.9211 20.1728 53.9213C20.1804 53.9215 20.1879 53.9197 20.1946 53.916C20.2396 53.891 20.2771 53.8591 20.3071 53.8204" stroke="#82B78A" stroke-width="2"/>
<path d="M20.3071 53.8203L20.3465 54.2234" stroke="#439B77" stroke-width="2"/>
<path d="M20.3467 54.2231L21.4267 54.8456" stroke="#3E795A" stroke-width="2"/>
<path d="M24.2185 43.5508C24.1885 43.5708 24.1673 43.5933 24.1548 43.6183C24.1484 43.6314 24.1453 43.6458 24.1455 43.6604C24.1458 43.675 24.1494 43.6893 24.1561 43.7022C24.1629 43.7151 24.1725 43.7263 24.1843 43.7348C24.1961 43.7434 24.2097 43.7491 24.2241 43.7514L24.7566 43.8395C24.828 43.8506 24.8963 43.8796 24.9554 43.9239C25.4766 44.3195 26.0091 44.5877 26.5323 45.0433C27.3648 45.7695 28.3623 46.172 29.5248 46.2508" stroke="#1A644B" stroke-width="2"/>
<path d="M29.5244 46.2508C29.5519 46.2796 29.5644 46.3515 29.5619 46.4665C29.5607 46.5265 29.59 46.5527 29.65 46.5452L30.5669 46.4402C30.5974 46.4367 30.6269 46.4265 30.6531 46.4103C30.6794 46.3941 30.7018 46.3723 30.7188 46.3465L30.8219 46.1908C30.8257 46.1846 30.825 46.1796 30.82 46.1758C30.8013 46.1571 30.7819 46.1383 30.7619 46.1196C30.7257 46.0883 30.7194 46.0521 30.7432 46.0108C30.7557 45.9871 30.7763 45.9683 30.805 45.9546" stroke="#6B8B3F" stroke-width="2"/>
<path d="M30.8052 45.9545C31.2646 46.712 31.8608 46.3164 32.5489 45.9977C33.5952 45.5127 34.4939 44.8277 35.2452 43.9427C35.3252 43.8489 35.4364 43.7652 35.5789 43.6914" stroke="#1A644B" stroke-width="2"/>
<path d="M36.8822 44.479C35.8885 46.1053 34.606 47.4846 33.0347 48.6171C32.9815 48.6557 32.9153 48.6721 32.8504 48.6626C32.7856 48.6531 32.7272 48.6186 32.6879 48.5665L31.5216 47.0309C31.4191 46.8971 31.3816 46.9134 31.4091 47.0796C31.4597 47.3871 31.5479 47.6984 31.5404 47.9871C31.4591 50.7284 31.4222 53.494 31.4297 56.284" stroke="#3A9B70" stroke-width="2"/>
<path d="M30.5897 56.3384C30.6384 56.2784 30.6622 56.2134 30.6609 56.1434C30.6584 56.0722 30.6215 56.0341 30.5503 56.0291C30.0865 55.9953 29.6603 55.8528 29.2715 55.6016C29.2591 55.5932 29.2448 55.5883 29.2299 55.5872C29.2149 55.586 29.1999 55.5888 29.1862 55.5952C29.1726 55.6015 29.1606 55.6113 29.1516 55.6236C29.1426 55.6359 29.1368 55.6502 29.1347 55.6653L29.0503 56.3122" stroke="#2A9070" stroke-width="2"/>
<path d="M28.66 56.2952C28.6188 55.8314 28.6006 55.5389 28.6056 55.4177C28.6831 53.2652 28.7381 51.1127 28.7706 48.9602C28.78 48.3002 28.8831 47.7208 29.0425 47.1133C29.0465 47.0957 29.0445 47.0772 29.0367 47.0608C29.0289 47.0445 29.0158 47.0312 28.9996 47.0232C28.9833 47.0152 28.9649 47.0129 28.9471 47.0166C28.9294 47.0204 28.9135 47.03 28.9019 47.0439C28.6038 47.4152 27.6231 48.8589 27.0794 48.5739C25.7069 47.8521 24.3306 46.2283 23.3013 44.9346" stroke="#3A9B70" stroke-width="2"/>
<path d="M23.3016 44.9344C23.2078 44.8744 23.1478 44.7713 23.1216 44.625" stroke="#5EA27B" stroke-width="2"/>
<path d="M29.4029 48.7727L30.6648 48.8215C30.6824 48.8223 30.6999 48.8194 30.7164 48.8129C30.7328 48.8064 30.7477 48.7964 30.76 48.7837C30.7724 48.7709 30.782 48.7557 30.7882 48.739C30.7944 48.7222 30.7971 48.7043 30.796 48.6865L30.7285 47.1059C30.7247 47.0409 30.6904 47.0102 30.6254 47.014L29.6223 47.089C29.5435 47.0952 29.4866 47.1334 29.4516 47.2034C29.2216 47.6559 29.1585 48.139 29.2622 48.6527C29.2686 48.6857 29.286 48.7156 29.3115 48.7374C29.3371 48.7592 29.3693 48.7716 29.4029 48.7727Z" stroke="#2A9070" stroke-width="2"/>
<path d="M29.2434 49.4835L29.2134 50.7585C29.2132 50.7678 29.2147 50.7771 29.2181 50.7859C29.2214 50.7946 29.2265 50.8026 29.2329 50.8094C29.2394 50.8162 29.2471 50.8216 29.2556 50.8255C29.2642 50.8293 29.2734 50.8313 29.2828 50.8316L29.3165 50.8335C29.6803 50.8423 30.0298 50.8244 30.2882 50.7836C30.5466 50.7429 30.6928 50.6825 30.6946 50.616L30.7171 49.701C30.7181 49.6679 30.6836 49.6344 30.6154 49.6022C30.5472 49.57 30.4468 49.5398 30.3198 49.5133C30.1928 49.4868 30.0419 49.4646 29.8755 49.4479C29.7091 49.4312 29.5307 49.4203 29.3503 49.416L29.3165 49.4141C29.3072 49.4138 29.2978 49.4154 29.2891 49.4188C29.2804 49.4221 29.2724 49.4272 29.2656 49.4336C29.2588 49.4401 29.2533 49.4478 29.2495 49.4563C29.2457 49.4649 29.2436 49.4741 29.2434 49.4835Z" stroke="#2A9070" stroke-width="2"/>
<path d="M29.4719 51.7313C29.4494 51.7238 29.4269 51.717 29.4044 51.7107C29.3419 51.6932 29.3113 51.7163 29.3125 51.7801L29.32 52.6482C29.32 52.7232 29.3544 52.777 29.4232 52.8095C29.7457 52.9632 30.0675 52.9776 30.3888 52.8526C30.4525 52.8276 30.49 52.782 30.5013 52.7157C30.6138 52.1157 30.1638 51.557 29.5338 51.7332C29.5125 51.7395 29.4919 51.7388 29.4719 51.7313Z" stroke="#2A9070" stroke-width="2"/>
<path d="M30.3083 53.6533H29.5771C29.5387 53.6531 29.5006 53.6604 29.465 53.6749C29.4294 53.6893 29.397 53.7107 29.3697 53.7377C29.3424 53.7647 29.3206 53.7968 29.3057 53.8322C29.2908 53.8676 29.283 53.9055 29.2827 53.944V54.7071C29.2822 54.8448 29.3457 54.9771 29.4593 55.0749C29.5729 55.1726 29.7272 55.2278 29.8883 55.2283H29.9896C30.0694 55.2286 30.1484 55.2154 30.2222 55.1895C30.296 55.1636 30.3631 55.1256 30.4197 55.0775C30.4763 55.0295 30.5212 54.9724 30.552 54.9094C30.5828 54.8465 30.5987 54.779 30.599 54.7108V53.9477C30.5992 53.9093 30.5919 53.8712 30.5774 53.8356C30.563 53.8 30.5416 53.7677 30.5146 53.7403C30.4876 53.713 30.4555 53.6912 30.4201 53.6763C30.3847 53.6614 30.3467 53.6536 30.3083 53.6533Z" stroke="#2A9070" stroke-width="2"/>
<path d="M27.6685 44.1357C27.7297 44.2845 27.8247 44.4114 27.9535 44.5164" stroke="#66392B" stroke-width="2"/>
<path d="M27.9531 44.5166C28.5081 44.9797 29.3388 45.5179 29.5244 46.251" stroke="#666F2F" stroke-width="2"/>
<path d="M30.8053 45.9545C30.7016 45.757 30.7116 45.6176 30.8353 45.5364C31.3916 45.1714 31.9278 44.7633 32.4441 44.312" stroke="#666F2F" stroke-width="2"/>
<path d="M32.4438 44.3122C32.6038 44.256 32.7176 44.1403 32.7851 43.9653" stroke="#66392B" stroke-width="2"/>
<path d="M32.4438 44.312L31.3638 44.8145C31.3075 44.8408 31.2481 44.8489 31.1856 44.8389C30.2125 44.6926 29.0763 45.1783 28.2175 44.5426C28.1256 44.4751 28.0525 44.4789 27.9531 44.5164" stroke="#B7601F" stroke-width="2"/>
<path d="M38.6406 46.4272L40.7125 51.4072C40.72 51.4235 40.7225 51.4404 40.72 51.4579C40.7075 51.5329 40.7144 51.5391 40.7406 51.4766" stroke="#78BD90" stroke-width="2"/>
<path d="M40.741 51.4766C40.551 51.6141 40.4047 51.7722 40.3022 51.9509" stroke="#39A17D" stroke-width="2"/>
<path d="M40.3019 51.951L38.8526 53.4398C38.7851 53.5098 38.7469 53.496 38.7382 53.3985L38.3144 48.366C38.3144 48.3586 38.3115 48.3514 38.3062 48.3461C38.3009 48.3409 38.2938 48.3379 38.2863 48.3379C38.2788 48.3379 38.2717 48.3409 38.2664 48.3461C38.2612 48.3514 38.2582 48.3586 38.2582 48.366L37.9507 54.9623" stroke="#357F60" stroke-width="2"/>
<path d="M23.3014 44.9346C22.1677 46.1346 21.4751 47.5208 21.2239 49.0933C21.2201 49.1158 21.2064 49.1296 21.1827 49.1346C21.1639 49.1371 21.1495 49.1433 21.1395 49.1533C21.0658 49.2246 21.027 49.2689 21.0233 49.2864L20.6445 51.3714" stroke="#78BD90" stroke-width="2"/>
<path d="M20.6446 51.3716L20.3071 53.8203" stroke="#5DA888" stroke-width="2"/>
<path d="M23.0392 55.3651L22.6473 49.6238C22.6473 49.6188 22.6448 49.6151 22.6398 49.6126C22.6236 49.6063 22.6073 49.6063 22.5911 49.6126C22.5711 49.6201 22.5604 49.6351 22.5592 49.6576L22.3192 52.8863C22.313 52.9601 22.2823 52.972 22.2273 52.922L20.8979 51.7107" stroke="#357F60" stroke-width="2"/>
<path d="M20.8977 51.711L20.6445 51.3716" stroke="#39A17D" stroke-width="2"/>
<path d="M41.4589 53.3572L40.7407 51.4766" stroke="#5DA888" stroke-width="2"/>
<path d="M40.302 51.9507C40.4783 51.9619 39.4902 52.9707 39.4171 53.0494C38.9427 53.5538 38.9239 53.9907 38.9146 54.6432" stroke="#1A6A58" stroke-width="2"/>
<path d="M20.3467 54.2234C20.4192 54.1034 20.4829 54.0578 20.5379 54.0866C21.0317 54.3453 21.5648 54.4784 22.1373 54.4859C22.2111 54.4872 22.2473 54.4509 22.2461 54.3772L22.2386 53.3591C22.2386 53.2926 22.2147 53.2281 22.1711 53.1772C21.9423 52.9053 20.8342 51.9678 20.8979 51.7109" stroke="#1A6A58" stroke-width="2"/>
<path d="M35.1476 4.6352C35.1163 4.78645 35.0638 4.89832 34.9901 4.97082C34.9413 5.01832 34.8851 5.03082 34.8213 5.00832L33.0569 4.3877C32.6088 4.10457 32.2038 4.87707 32.0032 5.2277C31.2757 6.06957 30.5351 7.02395 29.7963 7.70457C27.5069 9.81582 24.9476 10.6258 21.9551 11.5239C19.1219 12.4464 16.6638 13.5958 14.6726 15.7427C13.2288 17.3008 12.7526 19.0821 12.9419 21.1633C12.9294 21.8421 13.1038 22.4902 13.4651 23.1077C13.5413 23.2402 13.5732 23.3621 13.5607 23.4733C13.558 23.4941 13.5494 23.5136 13.536 23.5296C13.5225 23.5455 13.5047 23.5573 13.4847 23.5634C13.4647 23.5696 13.4434 23.5698 13.4233 23.5641C13.4032 23.5585 13.3851 23.5471 13.3713 23.5314C13.1463 23.2764 12.8413 23.1033 12.4563 23.0121C11.9951 22.4171 11.7276 21.5733 11.6538 20.4808C11.7113 19.6108 11.9913 18.6877 12.4938 17.7114C15.2144 12.9452 19.5213 11.3233 24.2707 9.6602C27.1488 8.65332 29.0932 7.62957 30.9869 5.44145C31.4244 5.0252 31.7801 4.5502 32.0538 4.01645C32.0986 3.92937 32.1684 3.85767 32.2543 3.81056C32.3402 3.76345 32.4382 3.74309 32.5357 3.75207C33.4707 3.84082 34.3413 4.1352 35.1476 4.6352Z" fill="#523D38"/>
<path d="M33.0572 4.3878C33.0234 4.5978 33.2053 4.7853 33.6028 4.9503C33.6655 4.97676 33.7158 5.02566 33.7434 5.08717C33.9772 5.60342 33.8803 6.03967 33.4528 6.39592C33.4078 6.43467 33.3565 6.44842 33.299 6.43717C32.5553 6.29967 32.1234 5.89655 32.0034 5.2278C32.204 4.87717 32.609 4.10467 33.0572 4.3878Z" fill="#2D1920"/>
<path d="M33.0572 4.3877L34.8215 5.00832C34.8853 5.03082 34.9415 5.01832 34.9903 4.97082C35.064 4.89832 35.1165 4.78645 35.1478 4.6352C36.0165 5.1627 36.8284 5.76332 37.5834 6.43707C37.5497 6.51082 37.4834 6.54207 37.3847 6.53082C37.3559 6.52707 37.3415 6.5102 37.3415 6.4802C37.3415 6.46395 37.3434 6.44645 37.3472 6.4277C37.3488 6.4154 37.3455 6.40661 37.3381 6.40281C37.3306 6.399 37.3193 6.40041 37.3061 6.40679C37.2929 6.41317 37.2785 6.42415 37.2655 6.43786C37.2525 6.45157 37.2416 6.46719 37.2347 6.48207C37.1884 6.58457 37.1465 6.69269 37.109 6.80644C37.0884 6.86717 37.0473 6.91885 36.9928 6.95269C36.0553 7.52644 35.2959 7.92207 34.8515 8.53332C34.7053 8.73457 34.5478 8.89582 34.379 9.01707C33.1265 9.91707 31.959 10.9164 30.8765 12.0152C30.8553 12.0364 30.8203 12.0508 30.7715 12.0583C30.7115 12.0658 30.6597 12.0914 30.6159 12.1352C29.984 12.7596 29.2172 13.2264 28.6772 13.9277C28.0972 14.6802 27.5128 15.2714 26.924 15.7014C26.5428 15.9802 26.2747 16.2202 26.1197 16.4214C26.0834 16.4677 26.0365 16.4964 25.979 16.5077C25.4015 16.6164 24.4397 17.5689 23.9728 17.9702C23.8228 18.0996 23.6222 18.1764 23.4684 18.3489C23.3322 18.5039 23.2222 18.6064 23.1384 18.6564C20.3559 20.3289 17.2847 21.3096 14.489 23.2221C14.1234 23.4714 13.7165 23.4639 13.319 23.6946C13.2645 23.726 13.2014 23.7373 13.1409 23.7264C12.7972 23.6702 12.569 23.4321 12.4565 23.0121C12.8415 23.1033 13.1465 23.2764 13.3715 23.5314C13.3854 23.5471 13.4034 23.5585 13.4235 23.5641C13.4437 23.5698 13.465 23.5696 13.485 23.5634C13.5049 23.5573 13.5227 23.5455 13.5362 23.5295C13.5497 23.5136 13.5582 23.4941 13.5609 23.4733C13.5734 23.3621 13.5415 23.2402 13.4653 23.1077C13.104 22.4902 12.9297 21.8421 12.9422 21.1633C13.4972 21.3283 13.7603 21.0589 13.7315 20.3552C13.709 19.8171 14.2547 19.3971 14.654 19.2096C15.7153 18.7071 16.5365 17.8802 17.3859 17.2446C17.9347 16.8358 18.3153 16.4633 18.5278 16.1271C18.7428 15.7883 18.9378 15.5471 19.1128 15.4033C19.1588 15.3648 19.1986 15.3192 19.2309 15.2683C19.5178 14.7939 20.0653 14.3571 20.2753 13.8208C20.2965 13.7646 20.3315 13.7183 20.3803 13.6821C20.6778 13.4646 20.9265 13.2021 21.1265 12.8946C21.3909 12.4896 22.4915 12.0658 21.9553 11.5239C24.9478 10.6258 27.5072 9.81582 29.7965 7.70457C30.5353 7.02395 31.2759 6.06957 32.0034 5.2277C32.1234 5.89645 32.5553 6.29957 33.299 6.43707C33.3565 6.44832 33.4078 6.43457 33.4528 6.39582C33.8803 6.03957 33.9772 5.60332 33.7434 5.08707C33.7158 5.02556 33.6655 4.97665 33.6028 4.9502C33.2053 4.7852 33.0234 4.5977 33.0572 4.3877Z" fill="#1C0E18"/>
<path d="M30.9873 5.44165C29.0936 7.62977 27.1492 8.65352 24.2711 9.6604C19.5217 11.3235 15.2148 12.9454 12.4942 17.7117C12.2467 17.8523 11.8867 17.2392 11.4798 17.181C11.4186 17.1723 11.3705 17.1935 11.3355 17.2448C10.7417 18.116 10.208 18.8129 9.73422 19.3354C9.15672 19.9729 8.43672 20.1023 7.57422 19.7235C8.91547 16.7285 10.8111 14.1142 13.2611 11.8804C16.5061 9.0029 20.2686 7.0754 24.5486 6.0979C26.6486 5.6204 28.7948 5.40165 30.9873 5.44165Z" fill="#CAE4B9"/>
<path d="M37.5835 6.43724L38.3241 7.23037C38.9378 8.25537 39.2685 9.29412 39.316 10.3466L38.5828 12.5722L38.5585 12.2891C38.5535 12.2266 38.5197 12.1972 38.4572 12.201C38.3622 12.2072 38.3047 12.166 38.2847 12.0772C38.2722 12.0222 38.2372 11.9916 38.1797 11.9854C37.5591 11.9272 37.2478 12.5629 36.8466 12.8404C36.7953 12.8766 36.7535 12.9222 36.721 12.9772C36.686 13.041 36.6447 13.086 36.5972 13.1122C36.5622 13.1322 36.5447 13.1222 36.5447 13.0822V12.9547C36.5447 12.8697 36.5153 12.8579 36.4566 12.9191C35.1566 14.2591 33.8928 15.6329 32.6653 17.0404C32.1366 17.646 31.5666 18.2047 31.0097 18.786C31.007 18.7886 31.0035 18.7901 30.9997 18.7905C30.996 18.7908 30.9922 18.7899 30.9891 18.7879C30.9753 18.7779 30.961 18.7735 30.946 18.7747C30.9344 18.7757 30.9224 18.779 30.9115 18.784C30.9005 18.7891 30.8912 18.7958 30.8845 18.8032C30.8779 18.8106 30.8743 18.8184 30.8743 18.8257C30.8742 18.833 30.8776 18.8394 30.8841 18.8441C30.9191 18.8716 30.9191 18.8947 30.8841 18.9135C30.8627 18.9253 30.8414 18.9342 30.8242 18.9387C30.807 18.9432 30.795 18.9429 30.7903 18.9379C30.7828 18.9304 30.7747 18.9216 30.766 18.9116C30.7561 18.901 30.743 18.8945 30.729 18.8932C30.7149 18.8918 30.7007 18.8958 30.6887 18.9043C30.6767 18.9128 30.6676 18.9255 30.6629 18.9401C30.6581 18.9547 30.6581 18.9705 30.6628 18.9847C30.6916 19.0785 30.666 19.1191 30.586 19.1066C30.5097 19.0954 30.4535 19.1241 30.4172 19.1929C30.2772 19.4616 30.0628 19.6329 29.7741 19.7066C29.7228 19.7191 29.7116 19.7479 29.7403 19.7929C29.7491 19.8079 29.7647 19.8185 29.7872 19.8247C29.8043 19.8287 29.8193 19.8389 29.8294 19.8533C29.8394 19.8676 29.8438 19.8852 29.8417 19.9026C29.8396 19.92 29.8312 19.9361 29.818 19.9476C29.8049 19.9592 29.7879 19.9655 29.7703 19.9654C28.7485 19.986 27.8016 19.9279 26.8172 20.1247C26.4485 20.1985 26.0797 20.2722 25.711 20.346C24.5897 20.5672 23.4741 21.0285 22.396 21.4016C20.641 22.011 18.0947 23.3347 17.2003 25.236C16.9641 25.7372 16.756 26.0822 16.576 26.271C15.9535 26.9235 15.2185 27.1091 14.5191 27.6229C13.8141 28.1416 13.0485 28.3785 12.2222 28.3335C11.8535 27.7072 11.6691 27.0416 11.6691 26.3366L12.2503 28.0147C12.3003 28.1585 12.3322 28.1547 12.346 28.0035C12.4697 26.661 13.111 25.5997 13.4785 24.5441C13.5022 24.4766 13.491 24.4154 13.4447 24.3604C13.2272 24.1029 12.916 23.8935 12.511 23.7322L12.0535 23.0141C11.6385 22.1641 11.5053 21.3197 11.6541 20.481C11.7278 21.5735 11.9953 22.4172 12.4566 23.0122C12.5691 23.4322 12.7972 23.6704 13.141 23.7266C13.2015 23.7375 13.2646 23.7262 13.3191 23.6947C13.7166 23.4641 14.1235 23.4716 14.4891 23.2222C17.2847 21.3097 20.356 20.3291 23.1385 18.6566C23.2222 18.6066 23.3322 18.5041 23.4685 18.3491C23.6222 18.1766 23.8228 18.0997 23.9728 17.9704C24.4397 17.5691 25.4016 16.6166 25.9791 16.5079C26.0366 16.4966 26.0835 16.4679 26.1197 16.4216C26.2747 16.2204 26.5428 15.9804 26.9241 15.7016C27.5128 15.2716 28.0972 14.6804 28.6772 13.9279C29.2172 13.2266 29.9841 12.7597 30.616 12.1354C30.6597 12.0916 30.7116 12.066 30.7716 12.0585C30.8203 12.051 30.8553 12.0366 30.8766 12.0154C31.9591 10.9166 33.1266 9.91724 34.3791 9.01724C34.5478 8.89599 34.7053 8.73474 34.8516 8.53349C35.296 7.92224 36.0553 7.52661 36.9928 6.95286C37.0473 6.91902 37.0884 6.86734 37.1091 6.80661C37.1466 6.69286 37.1885 6.58474 37.2347 6.48224C37.2417 6.46736 37.2526 6.45174 37.2656 6.43803C37.2786 6.42432 37.2929 6.41334 37.3061 6.40696C37.3193 6.40058 37.3306 6.39917 37.3381 6.40298C37.3456 6.40678 37.3488 6.41557 37.3472 6.42787C37.3435 6.44662 37.3416 6.46412 37.3416 6.48037C37.3416 6.51037 37.356 6.52724 37.3847 6.53099C37.4835 6.54224 37.5497 6.51099 37.5835 6.43724Z" fill="#160B14"/>
<path d="M38.3242 7.22998C43.5967 8.66061 48.2842 12.8475 51.1417 17.4131C51.123 17.5844 51.1642 17.7194 51.2655 17.8181C51.2821 17.8308 51.2931 17.8496 51.2959 17.8703C51.2987 17.8911 51.2932 17.9121 51.2805 17.9287C51.2678 17.9454 51.249 17.9563 51.2283 17.9591C51.2075 17.962 51.1865 17.9564 51.1698 17.9437L51.1286 17.9175C51.0936 17.8975 51.0573 17.8937 51.0198 17.9062C50.4661 18.105 50.0042 18.4225 49.6342 18.8587C49.1205 19.4644 48.5617 19.6012 48.5486 20.5706C48.5486 20.6144 48.5267 20.6362 48.483 20.6362H48.408C48.3965 20.6363 48.3853 20.632 48.3764 20.6241C48.3675 20.6162 48.3614 20.6052 48.3592 20.5931L48.3498 20.5181C48.3424 20.4669 48.3148 20.4519 48.2673 20.4731C48.2348 20.4881 48.2005 20.4994 48.1642 20.5069C47.878 19.6219 47.3798 18.84 46.6698 18.1612C45.6211 17.2225 44.3323 16.6462 42.8036 16.4325C44.3655 15.2175 44.9055 13.4381 44.373 11.5256C43.468 10.0919 42.1455 9.53561 40.4055 9.85686L39.3161 10.3462C39.2686 9.29373 38.938 8.25498 38.3242 7.22998Z" fill="#83B890"/>
<path d="M44.3726 11.526C44.1738 11.6747 44.1207 11.936 44.2132 12.3097C44.2227 12.3437 44.2195 12.3799 44.2042 12.4116C44.1889 12.4434 44.1624 12.4684 44.1299 12.482C44.0974 12.4956 44.0611 12.4968 44.0277 12.4855C43.9944 12.4741 43.9663 12.451 43.9488 12.4204C43.3076 11.376 42.1976 11.0741 40.9432 10.716C40.467 10.581 40.3188 10.3354 40.4051 9.85725C42.1451 9.536 43.4676 10.0922 44.3726 11.526Z" fill="#523D38"/>
<path d="M40.405 9.85693C40.3188 10.3351 40.4669 10.5807 40.9431 10.7157C42.1975 11.0738 43.3075 11.3757 43.9488 12.4201C43.9662 12.4507 43.9943 12.4738 44.0277 12.4852C44.061 12.4965 44.0974 12.4953 44.1299 12.4817C44.1624 12.4681 44.1888 12.443 44.2041 12.4113C44.2195 12.3796 44.2227 12.3434 44.2132 12.3094C44.1206 11.9357 44.1738 11.6744 44.3725 11.5257C44.905 13.4382 44.365 15.2176 42.8031 16.4326L41.6369 16.9463C41.5569 16.9813 41.5606 17.0019 41.6481 17.0082C42.4756 17.0719 43.4144 17.2363 44.4644 17.5013C46.2444 17.9501 47.3919 19.1126 47.9069 20.9888C48.0131 21.3338 48.0688 21.6376 48.0738 21.9001C48.0788 22.1226 47.9831 22.2994 47.7869 22.4307C47.7406 22.4619 47.715 22.5057 47.71 22.5619C47.6838 22.8332 47.7225 23.0894 47.8263 23.3307C47.8513 23.3882 47.8556 23.4482 47.8394 23.5107C47.7588 23.8238 47.6988 24.0544 47.8394 24.3732C48.0531 24.8588 48.8763 26.7469 48.5257 27.1876C48.4744 27.2513 48.4406 27.2426 48.4244 27.1613C48.3494 26.7694 48.3025 26.3888 48.1206 26.0251C47.7963 25.3707 47.3144 24.6544 47.2863 23.9044C47.2438 22.7519 47.0538 21.7413 46.7163 20.8726C45.7113 18.2832 42.3119 17.6326 39.8931 17.3026C39.8766 17.3003 39.8613 17.2927 39.8496 17.2808C39.8379 17.2689 39.8305 17.2535 39.8286 17.2369C39.8267 17.2204 39.8303 17.2036 39.8389 17.1894C39.8476 17.1751 39.8607 17.1641 39.8763 17.1582C41.3213 16.5982 42.2425 15.6213 42.64 14.2276L43.5588 13.9632C43.6043 13.9502 43.6457 13.9255 43.6786 13.8916C43.7115 13.8577 43.7348 13.8158 43.7463 13.7701C44.1531 12.1707 42.6325 11.2463 41.3219 11.0757C40.4469 10.9619 39.73 11.3551 39.1713 12.2551L38.5825 12.5719L39.3157 10.3463L40.405 9.85693Z" fill="#2D1920"/>
<path d="M42.6401 14.2277C42.5014 11.987 40.9508 11.7508 39.1714 12.2552C39.7301 11.3552 40.447 10.962 41.322 11.0758C42.6326 11.2464 44.1533 12.1708 43.7464 13.7702C43.7349 13.8159 43.7116 13.8578 43.6787 13.8917C43.6458 13.9256 43.6045 13.9503 43.5589 13.9633L42.6401 14.2277Z" fill="#472D30"/>
<path d="M21.955 11.5239C22.4913 12.0658 21.3907 12.4896 21.1263 12.8946C20.9263 13.2021 20.6775 13.4646 20.38 13.6821C20.3313 13.7183 20.2963 13.7646 20.275 13.8208C20.065 14.3571 19.5175 14.7939 19.2307 15.2683C19.1984 15.3192 19.1585 15.3648 19.1126 15.4033C18.9376 15.547 18.7425 15.7883 18.5275 16.1271C18.315 16.4633 17.9344 16.8358 17.3857 17.2446C16.5363 17.8802 15.715 18.7071 14.6538 19.2096C14.2544 19.3971 13.7088 19.8171 13.7313 20.3552C13.7601 21.0589 13.4969 21.3283 12.9419 21.1633C12.7525 19.0821 13.2288 17.3008 14.6725 15.7427C16.6638 13.5958 19.1219 12.4464 21.955 11.5239Z" fill="#2D1920"/>
<path d="M38.5828 12.5721L39.1715 12.2552C40.9509 11.7508 42.5015 11.9871 42.6403 14.2277C42.2428 15.6214 41.3215 16.5983 39.8765 17.1583C39.861 17.1643 39.8478 17.1752 39.8392 17.1895C39.8306 17.2038 39.8269 17.2205 39.8289 17.237C39.8308 17.2536 39.8382 17.269 39.8499 17.2809C39.8616 17.2928 39.8769 17.3005 39.8934 17.3027C42.3122 17.6327 45.7115 18.2833 46.7165 20.8727C47.054 21.7414 47.244 22.7521 47.2865 23.9046C47.3147 24.6546 47.7965 25.3708 48.1209 26.0252C48.3028 26.3889 48.3497 26.7696 48.4247 27.1614C48.4409 27.2427 48.4747 27.2514 48.5259 27.1877C48.8765 26.7471 48.0534 24.8589 47.8397 24.3733C47.699 24.0546 47.759 23.8239 47.8397 23.5108C47.8559 23.4483 47.8515 23.3883 47.8265 23.3308C47.7228 23.0896 47.684 22.8333 47.7103 22.5621C47.7153 22.5058 47.7409 22.4621 47.7872 22.4308C47.9834 22.2996 48.079 22.1227 48.074 21.9002C48.069 21.6377 48.0134 21.3339 47.9072 20.9889C47.8497 20.0027 47.4428 19.1477 46.6865 18.4239C46.5965 18.3377 46.6003 18.2571 46.6697 18.1614C47.3797 18.8402 47.8778 19.6221 48.164 20.5071C48.399 21.6758 48.3422 22.8433 47.9934 24.0096C47.9847 24.0385 47.983 24.0692 47.9886 24.0992C47.9941 24.1292 48.0067 24.1576 48.0253 24.1821C49.964 26.7996 48.2559 29.0421 47.0428 31.4214C46.709 31.3289 46.3322 31.3514 45.9122 31.4889C45.1122 32.0464 44.4915 32.8127 44.0503 33.7877C43.9928 33.9164 43.9697 33.9102 43.9809 33.7689C44.2753 30.3021 43.784 26.0439 41.009 23.6702C37.3697 20.5596 30.9947 20.1996 26.5172 20.8877C22.4878 21.4558 18.2578 23.6196 17.1478 27.7671C16.5878 29.8583 16.329 31.9327 16.3715 33.9902C16.374 34.1314 16.3553 34.1346 16.3153 33.9996C16.0103 32.9983 15.464 32.2146 14.6765 31.6483C14.3228 31.3733 13.8953 31.3008 13.394 31.4308C13.3115 30.7671 13.1047 30.1864 12.7734 29.6889L12.2222 28.3333C13.0484 28.3783 13.814 28.1414 14.519 27.6227C15.2184 27.1089 15.9534 26.9233 16.5759 26.2708C16.7559 26.0821 16.964 25.7371 17.2003 25.2358C18.0947 23.3346 20.6409 22.0108 22.3959 21.4014C23.474 21.0283 24.5897 20.5671 25.7109 20.3458C26.0797 20.2721 26.4484 20.1983 26.8172 20.1246C27.8015 19.9277 28.7484 19.9858 29.7703 19.9652C29.7878 19.9653 29.8048 19.959 29.818 19.9474C29.8311 19.9359 29.8396 19.9198 29.8417 19.9024C29.8438 19.885 29.8394 19.8674 29.8293 19.8531C29.8192 19.8387 29.8042 19.8285 29.7872 19.8246C29.7647 19.8183 29.749 19.8077 29.7403 19.7927C29.7115 19.7477 29.7228 19.7189 29.774 19.7064C30.0628 19.6327 30.2772 19.4614 30.4172 19.1927C30.4534 19.1239 30.5097 19.0952 30.5859 19.1064C30.6659 19.1189 30.6915 19.0783 30.6628 18.9846C30.6581 18.9703 30.6581 18.9545 30.6628 18.9399C30.6675 18.9253 30.6766 18.9127 30.6887 18.9041C30.7007 18.8956 30.7149 18.8917 30.7289 18.893C30.743 18.8943 30.756 18.9008 30.7659 18.9114C30.7747 18.9214 30.7828 18.9302 30.7903 18.9377C30.795 18.9427 30.807 18.943 30.8242 18.9385C30.8414 18.934 30.8626 18.9251 30.884 18.9133C30.919 18.8946 30.919 18.8714 30.884 18.8439C30.8776 18.8392 30.8741 18.8328 30.8742 18.8255C30.8743 18.8183 30.8779 18.8104 30.8845 18.803C30.8911 18.7956 30.9005 18.7889 30.9114 18.7839C30.9223 18.7788 30.9343 18.7756 30.9459 18.7746C30.9609 18.7733 30.9753 18.7777 30.989 18.7877C30.9922 18.7897 30.9959 18.7906 30.9997 18.7903C31.0034 18.7899 31.0069 18.7884 31.0097 18.7858C31.5665 18.2046 32.1365 17.6458 32.6653 17.0402C33.8928 15.6327 35.1565 14.2589 36.4565 12.9189C36.5153 12.8577 36.5447 12.8696 36.5447 12.9546V13.0821C36.5447 13.1221 36.5622 13.1321 36.5972 13.1121C36.6447 13.0858 36.6859 13.0408 36.7209 12.9771C36.7534 12.9221 36.7953 12.8764 36.8465 12.8402C37.2478 12.5627 37.559 11.9271 38.1797 11.9852C38.2372 11.9914 38.2722 12.0221 38.2847 12.0771C38.3047 12.1658 38.3622 12.2071 38.4572 12.2008C38.5197 12.1971 38.5534 12.2264 38.5584 12.2889L38.5828 12.5721Z" fill="#0E040B"/>
<path d="M42.8032 16.4326C44.3319 16.6464 45.6207 17.2226 46.6694 18.1614C46.6 18.257 46.5963 18.3376 46.6863 18.4239C47.4425 19.1476 47.8494 20.0026 47.9069 20.9889C47.3919 19.1126 46.2444 17.9501 44.4644 17.5014C43.4144 17.2364 42.4757 17.072 41.6482 17.0082C41.5607 17.002 41.5569 16.9814 41.6369 16.9464L42.8032 16.4326Z" fill="#523D38"/>
<path d="M12.4939 17.7113C11.9914 18.6875 11.7114 19.6106 11.6539 20.4806C11.5052 21.3194 11.6383 22.1637 12.0533 23.0137C11.6808 22.9587 11.4752 22.605 11.4364 21.9525C11.4289 21.8338 11.4089 21.8331 11.3764 21.9506C11.3452 22.0681 11.2739 22.1494 11.1627 22.1944C11.1285 22.2086 11.0977 22.2298 11.0725 22.2566C11.0473 22.2835 11.0282 22.3153 11.0164 22.35L10.5889 23.5969C10.5555 23.6948 10.4941 23.7808 10.4125 23.8441C10.3308 23.9075 10.2324 23.9454 10.1295 23.9531C9.46767 24.0038 8.51893 24.1781 7.89643 23.9194C7.77643 23.8706 7.06017 23.6438 7.02455 23.5819C6.9983 23.5369 6.95955 23.5081 6.9083 23.4956C6.8008 23.4706 6.73455 23.4994 6.70955 23.5819C6.68455 23.6606 6.6308 23.6975 6.5483 23.6925C6.41705 23.685 6.3183 23.7438 6.25205 23.8688C6.24536 23.8815 6.23557 23.8924 6.22359 23.9004C6.2116 23.9085 6.1978 23.9134 6.18344 23.9147C6.16908 23.916 6.15462 23.9136 6.14138 23.9079C6.12815 23.9022 6.11655 23.8932 6.10767 23.8819C6.07517 23.8406 6.0608 23.7881 6.06455 23.7244C6.44705 22.3619 6.95017 21.0281 7.57392 19.7231C8.43642 20.1019 9.15642 19.9725 9.73392 19.335C10.2077 18.8125 10.7414 18.1156 11.3352 17.2444C11.3702 17.1931 11.4183 17.1719 11.4795 17.1806C11.8864 17.2387 12.2464 17.8519 12.4939 17.7113Z" fill="#BBDAB0"/>
<path d="M51.1417 17.4131C53.8617 21.8806 55.106 26.7618 54.8748 32.0568C54.496 40.5868 50.9017 47.28 44.0917 52.1362C43.3954 52.6325 42.566 53.1025 41.6035 53.5462C41.5598 53.5675 41.5117 53.5043 41.4592 53.3568C41.5885 53.3137 41.6204 53.3118 41.5754 53.1675C40.8404 50.8175 39.8623 48.5706 38.641 46.4268C38.186 45.6506 37.5998 45.0012 36.8823 44.4787C36.6335 43.9262 36.1992 43.6637 35.5792 43.6912L35.4517 43.59C37.4935 43.0987 38.896 42.5475 40.4448 41.1581C41.351 40.3568 42.1054 39.4125 42.7079 38.325C42.7404 38.2675 42.7885 38.2431 42.8523 38.2518C44.5979 38.4693 45.7698 38.4393 46.8892 37.3031C48.4229 35.8068 49.6454 32.595 47.0429 31.4212C48.256 29.0418 49.9642 26.7993 48.0254 24.1818C48.0068 24.1574 47.9942 24.129 47.9887 24.099C47.9831 24.069 47.9848 24.0383 47.9935 24.0093C48.3423 22.8431 48.3992 21.6756 48.1642 20.5068C48.2004 20.4993 48.2348 20.4881 48.2673 20.4731C48.3148 20.4518 48.3423 20.4668 48.3498 20.5181L48.3592 20.5931C48.3614 20.6052 48.3674 20.6162 48.3764 20.6241C48.3853 20.632 48.3965 20.6363 48.4079 20.6362H48.4829C48.5267 20.6362 48.5485 20.6143 48.5485 20.5706C48.5617 19.6012 49.1204 19.4643 49.6342 18.8587C50.0042 18.4225 50.466 18.105 51.0198 17.9062C51.0573 17.8937 51.0935 17.8975 51.1285 17.9175L51.1698 17.9437C51.1864 17.9564 51.2075 17.9619 51.2282 17.9591C51.249 17.9563 51.2677 17.9454 51.2804 17.9287C51.2931 17.9121 51.2986 17.891 51.2958 17.8703C51.293 17.8495 51.2821 17.8308 51.2654 17.8181C51.1642 17.7193 51.1229 17.5843 51.1417 17.4131Z" fill="#67AA79"/>
<path d="M45.9121 31.4892C45.9384 31.5604 45.9696 31.6173 46.0059 31.6598C46.0446 31.7048 46.0927 31.7198 46.1502 31.7048L46.5777 31.5998C46.6577 31.5798 46.7308 31.5935 46.7971 31.641C48.494 32.8504 47.9333 35.1679 46.9808 36.6848C46.9482 36.7355 46.9355 36.7956 46.9452 36.8535C46.964 36.9848 46.9452 37.1348 46.889 37.3035C45.7696 38.4398 44.5977 38.4698 42.8521 38.2523C42.7884 38.2435 42.7402 38.2679 42.7077 38.3254C42.1052 39.4129 41.3508 40.3573 40.4446 41.1585C40.3671 41.1185 40.2808 41.1079 40.1858 41.1267C40.1533 41.1329 40.1402 41.1198 40.1465 41.0873L40.3621 40.1442C40.3656 40.1306 40.3647 40.1163 40.3595 40.1033C40.3544 40.0904 40.3452 40.0793 40.3333 40.0717C40.3214 40.0641 40.3073 40.0603 40.293 40.0609C40.2786 40.0614 40.2648 40.0663 40.2534 40.0748L40.0921 40.1948C40.0471 40.2285 40.0109 40.221 39.9834 40.1723C39.6871 39.6379 40.5458 39.3173 40.2308 38.8073C41.7833 38.0292 41.4215 37.3279 40.0096 36.8048C40.3221 36.136 40.3583 35.4479 40.1183 34.7404L40.1802 34.446C40.3427 34.271 40.4277 34.0898 40.4352 33.9023C40.4727 33.0385 40.2383 32.2754 39.7321 31.6129C39.6096 31.4192 39.5702 31.3142 39.614 31.2979C39.6631 31.2798 39.7067 31.2495 39.7408 31.2098C39.7749 31.1701 39.7983 31.1224 39.8089 31.0712C39.8194 31.0199 39.8166 30.9668 39.8009 30.9169C39.7852 30.8671 39.757 30.822 39.719 30.786C39.1621 30.2592 38.714 29.8673 37.9771 29.4079C37.5946 29.1692 37.2333 28.8835 36.8933 28.551L39.3046 28.9223C39.3671 28.9323 39.4227 28.9179 39.4715 28.8792C39.5902 28.7867 39.7046 28.7273 39.8146 28.701L40.4859 29.0779C40.5383 29.1075 40.5992 29.1186 40.6587 29.1096C40.7183 29.1006 40.7731 29.0719 40.8145 29.0282C40.8559 28.9844 40.8814 28.9281 40.8871 28.8681C40.8928 28.8082 40.8783 28.748 40.8458 28.6973C39.4221 26.471 37.3965 25.5867 34.769 26.0442C34.409 26.1067 34.0965 26.2423 33.8315 26.451C33.7052 26.4535 33.6521 26.5567 33.6721 26.7604C33.6783 26.8304 33.6465 26.8679 33.5765 26.8729C33.4952 26.8779 33.4265 26.8498 33.3702 26.7885C33.3327 26.7498 33.3071 26.7042 33.2933 26.6517C33.1583 26.1623 32.7421 25.9729 32.5265 25.6523C32.2002 25.1667 31.9396 24.5085 31.544 24.0942C31.5244 24.0734 31.5007 24.0567 31.4743 24.0451C31.4479 24.0335 31.4193 24.0272 31.3902 24.0267C30.689 24.0004 30.5577 23.5317 30.0758 23.2635C29.4096 22.8935 28.7065 22.631 27.9665 22.476C27.2202 22.3185 26.3859 21.9867 25.5459 21.9792C25.5205 21.9787 25.4959 21.9702 25.4758 21.9547C25.4557 21.9393 25.4411 21.9178 25.4342 21.8934C25.4273 21.869 25.4284 21.843 25.4373 21.8193C25.4463 21.7956 25.4626 21.7754 25.484 21.7617L26.0821 21.3904C26.1206 21.3668 26.163 21.3497 26.2077 21.3398C26.299 21.3223 26.3796 21.2898 26.4496 21.2423C26.4587 21.2366 26.4657 21.228 26.4694 21.2179C26.4732 21.2078 26.4734 21.1967 26.4702 21.1864C26.467 21.1762 26.4605 21.1672 26.4517 21.1611C26.4429 21.1549 26.4322 21.1518 26.4215 21.1523H26.3258C26.317 21.1516 26.3109 21.1478 26.3085 21.1413C26.306 21.1349 26.3074 21.1262 26.3123 21.1167C26.3173 21.1073 26.3256 21.0975 26.3358 21.089C26.3461 21.0805 26.3578 21.0737 26.369 21.0698C26.4602 21.0385 26.5096 20.9779 26.5171 20.8879C30.9946 20.1998 37.3696 20.5598 41.009 23.6704C43.784 26.0442 44.2752 30.3023 43.9808 33.7692C43.9696 33.9104 43.9927 33.9167 44.0502 33.7879C44.4915 32.8129 45.1121 32.0467 45.9121 31.4892ZM44.6577 34.3579C44.3677 35.0154 44.0408 35.6435 43.6771 36.2423C43.664 36.2642 43.657 36.2891 43.6569 36.3146C43.6567 36.3401 43.6634 36.3652 43.6763 36.3872C43.6891 36.4092 43.7076 36.4274 43.7298 36.4398C43.7521 36.4523 43.7773 36.4585 43.8027 36.4579C45.1302 36.4217 46.0665 35.8148 46.6115 34.6373C47.099 33.5873 45.9796 32.9067 45.2596 33.4373C45.0683 33.5785 44.8677 33.8854 44.6577 34.3579Z" fill="#FCA85B"/>
<path d="M26.5172 20.8877C26.5097 20.9777 26.4603 21.0383 26.369 21.0696C26.3578 21.0735 26.3461 21.0803 26.3359 21.0888C26.3256 21.0973 26.3173 21.107 26.3124 21.1165C26.3074 21.126 26.3061 21.1347 26.3085 21.1411C26.311 21.1475 26.3171 21.1514 26.3259 21.1521H26.4215C26.4323 21.1516 26.4429 21.1547 26.4517 21.1608C26.4606 21.167 26.4671 21.1759 26.4703 21.1862C26.4735 21.1965 26.4732 21.2076 26.4695 21.2177C26.4657 21.2278 26.4588 21.2363 26.4496 21.2421C26.3796 21.2896 26.299 21.3221 26.2078 21.3396C26.1631 21.3495 26.1206 21.3666 26.0822 21.3902L25.484 21.7614C25.4627 21.7751 25.4463 21.7954 25.4374 21.8191C25.4284 21.8428 25.4273 21.8688 25.4342 21.8932C25.4412 21.9175 25.4558 21.9391 25.4759 21.9545C25.496 21.97 25.5206 21.9785 25.5459 21.9789C26.3859 21.9864 27.2203 22.3183 27.9665 22.4758C28.7065 22.6308 29.4097 22.8933 30.0759 23.2633C30.5578 23.5314 30.689 24.0002 31.3903 24.0264C31.4194 24.027 31.448 24.0333 31.4744 24.0449C31.5008 24.0565 31.5245 24.0731 31.544 24.0939C31.9397 24.5083 32.2003 25.1664 32.5265 25.6521C32.7422 25.9727 33.1584 26.1621 33.2934 26.6514C33.3071 26.7039 33.3328 26.7496 33.3703 26.7883C33.4265 26.8496 33.4953 26.8777 33.5765 26.8727C33.6465 26.8677 33.6784 26.8302 33.6722 26.7602C33.6522 26.5564 33.7053 26.4533 33.8315 26.4508C33.5578 27.0321 33.9084 27.6077 34.5797 27.5364C34.6072 27.6452 34.589 27.7546 34.5253 27.8646C34.494 27.9171 34.5022 27.9627 34.5497 28.0014C35.144 28.4758 36.0365 28.5002 36.8934 28.5508C37.2334 28.8833 37.5947 29.1689 37.9772 29.4077C38.714 29.8671 39.1622 30.2589 39.719 30.7858C39.757 30.8218 39.7852 30.8668 39.801 30.9167C39.8167 30.9666 39.8194 31.0197 39.8089 31.071C39.7984 31.1222 39.775 31.1699 39.7409 31.2096C39.7068 31.2493 39.6631 31.2796 39.614 31.2977C39.5703 31.3139 39.6097 31.4189 39.7322 31.6127C37.6809 29.6514 35.9072 29.6396 34.4109 31.5771C33.5728 32.9814 33.389 36.1089 35.8659 35.9439C36.9972 35.8689 38.1265 35.7752 39.254 35.6627C39.8378 35.6052 40.1259 35.2977 40.1184 34.7402C40.3584 35.4477 40.3221 36.1358 40.0097 36.8046C38.6371 36.2871 36.3403 36.2627 35.4403 37.6839C35.4028 37.7427 35.394 37.8046 35.414 37.8696C35.8584 39.3939 39.0646 39.1858 40.2309 38.8071C40.5459 39.3171 39.6872 39.6377 39.9834 40.1721C40.0109 40.2208 40.0472 40.2283 40.0922 40.1946L40.2534 40.0746C40.2649 40.0661 40.2787 40.0612 40.293 40.0607C40.3073 40.0601 40.3214 40.0639 40.3333 40.0715C40.3453 40.0791 40.3544 40.0902 40.3596 40.1031C40.3648 40.1161 40.3656 40.1304 40.3622 40.1439L40.1465 41.0871C40.1403 41.1196 40.1534 41.1327 40.1859 41.1264C40.2809 41.1077 40.3672 41.1183 40.4447 41.1583C38.8959 42.5477 37.4934 43.0989 35.4515 43.5902L32.7853 43.9652C31.1115 44.2277 29.4059 44.2846 27.6684 44.1358L24.2184 43.5508C24.2122 43.5271 24.164 43.5058 24.074 43.4871C21.2578 42.6902 19.0865 40.6952 17.5847 38.1414C17.5497 38.0839 17.5009 38.0664 17.4384 38.0889C16.5621 38.4077 15.7365 38.4302 14.9615 38.1564C13.8853 37.1089 13.1847 36.1464 12.8597 35.2689C12.1472 33.3439 12.7528 32.1371 14.6765 31.6483C15.464 32.2146 16.0103 32.9983 16.3153 33.9996C16.3553 34.1346 16.374 34.1314 16.3715 33.9902C16.329 31.9327 16.5878 29.8583 17.1478 27.7671C18.2578 23.6196 22.4878 21.4558 26.5172 20.8877ZM19.9753 27.8158C19.5703 28.2677 19.2947 28.5039 19.3415 29.0289C19.3446 29.0647 19.3569 29.0991 19.3773 29.1287C19.3977 29.1583 19.4255 29.182 19.4579 29.1975C19.4903 29.2131 19.5261 29.2199 19.562 29.2173C19.5978 29.2147 19.6323 29.2027 19.6622 29.1827C20.609 28.5564 21.749 27.6264 22.859 27.4858C23.6153 27.3896 24.4903 27.4021 25.484 27.5233C26.3447 27.6302 26.7346 26.3102 25.6528 26.0758C23.3528 25.5758 21.4603 26.1558 19.9753 27.8158ZM20.0353 34.6427C20.3053 36.0152 21.9534 35.9664 23.0147 36.0489C24.464 36.1614 25.7653 36.2364 26.2415 34.6596C26.5978 33.4833 26.344 32.4046 25.4803 31.4233C24.5672 29.7133 22.1822 30.0939 21.0103 31.2152C20.0165 32.1664 19.6915 33.3089 20.0353 34.6427ZM15.0121 33.3508C14.1421 33.0077 13.4559 33.8777 13.6865 34.6877C14.0072 35.8071 15.4247 36.4014 16.5028 36.3546C16.5326 36.3531 16.5615 36.3436 16.5864 36.3271C16.6113 36.3106 16.6312 36.2878 16.6441 36.261C16.657 36.2343 16.6623 36.2046 16.6596 36.1752C16.6568 36.1457 16.646 36.1177 16.6284 36.0939C16.019 35.2708 15.8128 33.6677 15.0121 33.3508ZM28.9847 35.9458C29.9315 35.9664 29.2322 37.0539 28.6828 37.1927C28.6303 37.2064 28.5909 37.2358 28.5647 37.2808C28.0565 38.1208 30.3159 37.9221 30.1809 36.5439C30.1209 35.9439 29.534 35.3608 28.9453 35.8314C28.9346 35.8396 28.9269 35.8509 28.923 35.8637C28.9191 35.8765 28.9194 35.8902 28.9237 35.9028C28.9281 35.9155 28.9363 35.9264 28.9473 35.9342C28.9582 35.9419 28.9713 35.946 28.9847 35.9458ZM29.1827 36.5919C29.193 36.5575 29.1907 36.5196 29.1759 36.4805C29.161 36.4414 29.134 36.4018 29.0963 36.3639C29.0585 36.3261 29.0109 36.2907 28.956 36.2599C28.9011 36.2291 28.8401 36.2034 28.7764 36.1842C28.6478 36.1457 28.5162 36.1363 28.4105 36.1582C28.3049 36.1801 28.2338 36.2314 28.2129 36.301C28.2026 36.3354 28.2049 36.3733 28.2197 36.4124C28.2345 36.4515 28.2616 36.4911 28.2993 36.529C28.337 36.5668 28.3847 36.6022 28.4395 36.633C28.4944 36.6638 28.5555 36.6895 28.6191 36.7086C28.7477 36.7472 28.8793 36.7566 28.985 36.7347C29.0907 36.7128 29.1618 36.6615 29.1827 36.5919ZM21.0628 39.1896C22.1728 39.3771 23.1672 39.1933 24.0459 38.6383C24.5297 38.3327 24.6759 37.7852 24.1884 37.4008C23.1321 36.5646 21.9903 36.4114 20.7628 36.9414C20.7528 36.7627 20.6965 36.6271 20.594 36.5346C20.549 36.4946 20.4978 36.4846 20.4403 36.5046C19.7753 36.7321 19.2447 37.1333 18.8484 37.7083C18.829 37.736 18.8158 37.7677 18.8097 37.8013C18.8035 37.8349 18.8046 37.8697 18.8128 37.9033C18.9253 38.3571 19.3472 39.4596 19.9997 39.1483C20.0287 39.135 20.0605 39.1287 20.0924 39.13C20.1244 39.1313 20.1555 39.1402 20.1834 39.1558C20.6659 39.4333 20.959 39.4446 21.0628 39.1896ZM28.8234 42.0677C30.5647 42.6177 31.9697 42.3314 33.0384 41.2089C33.1847 40.9714 33.2709 40.7027 33.2972 40.4027C33.3022 40.3439 33.2772 40.3246 33.2222 40.3446C31.514 40.9558 29.2865 41.0721 27.6684 40.0839C27.6146 40.0514 27.589 40.0664 27.5915 40.1289C27.624 41.0702 28.0347 41.7164 28.8234 42.0677Z" fill="#FCB468"/>
<path d="M12.0531 23.0141L12.5106 23.7322C11.8231 24.5359 11.5425 25.4041 11.6688 26.3366C11.6688 27.0416 11.8532 27.7072 12.2219 28.3334L12.7731 29.6891L12.3663 29.1097C12.3427 29.0757 12.3113 29.0479 12.2748 29.0285C12.2383 29.009 12.1976 28.9985 12.1561 28.9978C12.1146 28.997 12.0735 29.0061 12.0361 29.0243C11.9986 29.0424 11.9659 29.0691 11.9407 29.1022C11.3782 29.8459 10.6738 30.4178 9.82752 30.8178C9.77377 30.8428 9.72064 30.8416 9.66814 30.8141C8.17377 30.0191 8.69127 28.7441 9.03065 27.4822C9.05471 27.392 9.04969 27.2964 9.01632 27.2091C8.98295 27.1219 8.92293 27.0474 8.84486 26.9964C8.7668 26.9454 8.67471 26.9205 8.58178 26.9252C8.48884 26.93 8.39984 26.9641 8.32752 27.0228C7.69502 27.5316 7.04003 27.9991 6.36253 28.4253C6.30128 28.4641 6.24877 28.4547 6.20502 28.3972C6.16752 28.3472 6.15127 28.2891 6.15627 28.2228C6.15877 28.1791 6.15064 28.1372 6.13189 28.0972C6.06439 27.9609 5.97627 27.9578 5.86752 28.0878C5.83002 28.1341 5.7994 28.1841 5.77565 28.2378C5.6344 28.5803 5.42939 28.7747 5.16064 28.8209C5.28439 27.0772 5.58565 25.3784 6.0644 23.7247C6.06065 23.7884 6.07502 23.8409 6.10752 23.8822C6.1164 23.8936 6.128 23.9025 6.14123 23.9082C6.15447 23.914 6.16893 23.9163 6.18329 23.915C6.19765 23.9137 6.21145 23.9088 6.22343 23.9008C6.23542 23.8927 6.24521 23.8818 6.2519 23.8691C6.31815 23.7441 6.4169 23.6853 6.54815 23.6928C6.63065 23.6978 6.6844 23.6609 6.7094 23.5822C6.7344 23.4997 6.80065 23.4709 6.90815 23.4959C6.9594 23.5084 6.99814 23.5372 7.02439 23.5822C7.06002 23.6441 7.77627 23.8709 7.89627 23.9197C8.51877 24.1784 9.46752 24.0041 10.1294 23.9534C10.2323 23.9457 10.3306 23.9078 10.4123 23.8444C10.494 23.7811 10.5553 23.6951 10.5888 23.5972L11.0163 22.3503C11.028 22.3156 11.0471 22.2838 11.0724 22.257C11.0976 22.2301 11.1283 22.2089 11.1625 22.1947C11.2738 22.1497 11.345 22.0684 11.3763 21.9509C11.4088 21.8334 11.4288 21.8341 11.4363 21.9528C11.475 22.6053 11.6806 22.9591 12.0531 23.0141Z" fill="#9CC49A"/>
<path d="M12.5109 23.7319C12.9159 23.8932 13.2271 24.1026 13.4446 24.3601C13.4909 24.4151 13.5021 24.4763 13.4784 24.5438C13.1109 25.5994 12.4697 26.6607 12.3459 28.0032C12.3322 28.1544 12.3003 28.1582 12.2503 28.0144L11.669 26.3363C11.5428 25.4038 11.8234 24.5357 12.5109 23.7319Z" fill="#472D30"/>
<path d="M19.9754 27.816C21.4604 26.156 23.3529 25.576 25.6529 26.076C26.7347 26.3103 26.3447 27.6303 25.4841 27.5235C24.4904 27.4022 23.6154 27.3897 22.8591 27.486C21.7491 27.6266 20.6091 28.5566 19.6622 29.1828C19.6324 29.2029 19.5979 29.2148 19.5621 29.2174C19.5262 29.22 19.4903 29.2132 19.458 29.1977C19.4256 29.1821 19.3978 29.1584 19.3774 29.1288C19.357 29.0993 19.3446 29.0649 19.3416 29.0291C19.2947 28.5041 19.5704 28.2678 19.9754 27.816Z" fill="#070608"/>
<path d="M39.8144 28.7006C38.2019 27.3844 36.7844 27.4012 34.5794 27.5362C33.9082 27.6075 33.5575 27.0319 33.8313 26.4506C34.0963 26.2419 34.4088 26.1062 34.7688 26.0437C37.3963 25.5862 39.4219 26.4706 40.8457 28.6969C40.8781 28.7476 40.8926 28.8078 40.8869 28.8677C40.8812 28.9277 40.8557 28.984 40.8143 29.0278C40.7729 29.0715 40.7181 29.1002 40.6585 29.1092C40.599 29.1182 40.5381 29.107 40.4857 29.0775L39.8144 28.7006Z" fill="#070608"/>
<path d="M12.7733 29.6887C13.1046 30.1862 13.3115 30.7669 13.394 31.4306C12.209 31.9631 11.6852 32.8687 11.8227 34.1475C11.6015 33.9575 11.4433 34.055 11.3483 34.44C11.3321 34.505 11.294 34.5512 11.234 34.5787C10.7477 34.8062 10.3446 35.1356 10.0246 35.5669C9.98528 35.6185 9.93365 35.6592 9.87459 35.685C9.43584 35.8725 9.15209 36.1994 9.02334 36.6656C8.97459 36.8431 8.73522 37.0881 8.30522 37.4006C8.25647 37.4356 8.20272 37.455 8.14397 37.4587C7.30022 37.5094 7.12209 38.0475 6.64584 38.5312C6.62459 38.5525 6.59959 38.5612 6.57084 38.5575L6.46021 38.5425C6.39146 38.5325 6.35959 38.5619 6.36459 38.6306C6.37209 38.7394 6.33084 38.7944 6.24084 38.7956C5.22834 35.5144 4.86834 32.1894 5.16084 28.8206C5.42959 28.7744 5.6346 28.58 5.77585 28.2375C5.7996 28.1837 5.83022 28.1337 5.86772 28.0875C5.97647 27.9575 6.06459 27.9606 6.13209 28.0969C6.15084 28.1369 6.15896 28.1787 6.15646 28.2225C6.15146 28.2887 6.16772 28.3469 6.20522 28.3969C6.24897 28.4544 6.30147 28.4637 6.36272 28.425C7.04022 27.9987 7.69522 27.5312 8.32772 27.0225C8.40003 26.9638 8.48904 26.9296 8.58197 26.9249C8.67491 26.9201 8.767 26.9451 8.84506 26.9961C8.92312 27.0471 8.98314 27.1215 9.01652 27.2088C9.04989 27.2961 9.05491 27.3917 9.03084 27.4819C8.69147 28.7437 8.17396 30.0187 9.66834 30.8137C9.72084 30.8412 9.77397 30.8425 9.82772 30.8175C10.674 30.4175 11.3783 29.8456 11.9408 29.1019C11.9661 29.0688 11.9988 29.0421 12.0363 29.0239C12.0737 29.0058 12.1148 28.9967 12.1563 28.9974C12.1978 28.9982 12.2385 29.0087 12.275 29.0281C12.3115 29.0476 12.3428 29.0754 12.3665 29.1094L12.7733 29.6887Z" fill="#83B890"/>
<path d="M39.8148 28.7011C39.7048 28.7273 39.5904 28.7867 39.4717 28.8792C39.4229 28.9179 39.3673 28.9323 39.3048 28.9223L36.8936 28.5511C36.0367 28.5004 35.1442 28.4761 34.5498 28.0017C34.5023 27.9629 34.4942 27.9173 34.5254 27.8648C34.5892 27.7548 34.6073 27.6454 34.5798 27.5367C36.7848 27.4017 38.2023 27.3848 39.8148 28.7011Z" fill="#F99B63"/>
<path d="M39.7319 31.6127C40.2381 32.2752 40.4725 33.0383 40.435 33.9021C40.4275 34.0896 40.3425 34.2708 40.18 34.4458C40.0975 31.3108 36.9944 29.7358 34.4106 31.5771C35.9069 29.6396 37.6806 29.6515 39.7319 31.6127Z" fill="#070608"/>
<path d="M25.4803 31.4231C23.131 29.9212 20.6279 31.3331 20.1985 33.9694C20.1622 34.1881 20.1079 34.4125 20.0354 34.6425C19.6916 33.3087 20.0166 32.1662 21.0104 31.215C22.1822 30.0937 24.5672 29.7131 25.4803 31.4231Z" fill="#0E040B"/>
<path d="M40.1803 34.446L40.1184 34.7404C40.1259 35.2979 39.8378 35.6054 39.2541 35.6629C38.1266 35.7754 36.9972 35.8692 35.8659 35.9442C33.3891 36.1092 33.5728 32.9817 34.4109 31.5773C36.9947 29.736 40.0978 31.311 40.1803 34.446ZM36 35.5627C36.4127 35.585 36.819 35.4114 37.1295 35.0799C37.4401 34.7485 37.6295 34.2864 37.6561 33.7953C37.6827 33.3042 37.5443 32.8244 37.2714 32.4613C36.9984 32.0983 36.6132 31.8817 36.2006 31.8594C35.7879 31.837 35.3816 32.0107 35.0711 32.3422C34.7605 32.6736 34.5711 33.1357 34.5445 33.6268C34.5179 34.1179 34.6563 34.5977 34.9293 34.9608C35.2022 35.3238 35.5874 35.5404 36 35.5627Z" fill="#EBE1DA"/>
<path d="M25.4802 31.4234C26.3439 32.4047 26.5977 33.4834 26.2414 34.6597C25.7652 36.2365 24.4639 36.1615 23.0145 36.049C21.9533 35.9665 20.3052 36.0153 20.0352 34.6428C20.1077 34.4128 20.162 34.1884 20.1983 33.9697C20.6277 31.3334 23.1308 29.9215 25.4802 31.4234ZM23.7741 35.609C24.1868 35.6451 24.5993 35.488 24.9209 35.1723C25.2426 34.8567 25.447 34.4083 25.4892 33.9258C25.5314 33.4433 25.408 32.9662 25.146 32.5995C24.8841 32.2328 24.5051 32.0065 24.0925 31.9704C23.6798 31.9343 23.2673 32.0913 22.9456 32.407C22.624 32.7226 22.4196 33.171 22.3774 33.6535C22.3351 34.136 22.4586 34.6131 22.7205 34.9798C22.9825 35.3465 23.3615 35.5728 23.7741 35.609Z" fill="#EBE1DA"/>
<path d="M14.6765 31.6483C12.7527 32.137 12.1471 33.3439 12.8596 35.2689C13.1846 36.1464 13.8852 37.1089 14.9615 38.1564C13.2327 37.5364 12.1865 36.2001 11.8227 34.1476C11.6852 32.8689 12.209 31.9633 13.394 31.4308C13.8952 31.3008 14.3227 31.3733 14.6765 31.6483Z" fill="#FCE8A3"/>
<path d="M47.0427 31.4215C49.6452 32.5953 48.4227 35.8071 46.889 37.3034C46.9452 37.1346 46.964 36.9847 46.9452 36.8534C46.9355 36.7955 46.9482 36.7353 46.9808 36.6846C47.9333 35.1678 48.494 32.8503 46.7971 31.6409C46.7309 31.5934 46.6577 31.5796 46.5777 31.5996L46.1502 31.7046C46.0927 31.7196 46.0446 31.7046 46.0059 31.6596C45.9696 31.6171 45.9384 31.5603 45.9121 31.489C46.3321 31.3515 46.709 31.329 47.0427 31.4215Z" fill="#FCE8A3"/>
<path d="M35.9998 35.5626C35.5872 35.5403 35.202 35.3238 34.929 34.9607C34.6561 34.5977 34.5177 34.1178 34.5442 33.6267C34.5708 33.1356 34.7603 32.6735 35.0708 32.3421C35.3814 32.0106 35.7877 31.837 36.2004 31.8593C36.613 31.8817 36.9982 32.0982 37.2711 32.4613C37.5441 32.8243 37.6825 33.3042 37.6559 33.7953C37.6293 34.2863 37.4399 34.7484 37.1293 35.0799C36.8187 35.4113 36.4124 35.585 35.9998 35.5626ZM36.357 33.3585C36.3457 31.7085 34.6751 32.9404 35.5057 33.5254C35.7932 33.7279 36.0526 33.7266 36.2838 33.5216C36.3326 33.4779 36.357 33.4235 36.357 33.3585Z" fill="#070608"/>
<path d="M23.774 35.609C23.3614 35.5729 22.9824 35.3466 22.7204 34.9799C22.4585 34.6132 22.3351 34.1361 22.3773 33.6536C22.4195 33.1711 22.6239 32.7227 22.9455 32.407C23.2672 32.0914 23.6797 31.9343 24.0924 31.9704C24.505 32.0065 24.884 32.2328 25.1459 32.5995C25.4079 32.9662 25.5313 33.4433 25.4891 33.9258C25.4469 34.4084 25.2425 34.8568 24.9209 35.1724C24.5992 35.4881 24.1867 35.6451 23.774 35.609ZM24.2112 33.5572C24.293 33.4489 24.3227 33.3081 24.2937 33.1658C24.2647 33.0235 24.1793 32.8913 24.0563 32.7983C23.9955 32.7523 23.9272 32.7173 23.8554 32.6952C23.7837 32.6732 23.7098 32.6646 23.6381 32.67C23.5664 32.6753 23.4982 32.6945 23.4374 32.7264C23.3767 32.7583 23.3245 32.8024 23.284 32.856C23.2021 32.9643 23.1724 33.105 23.2014 33.2474C23.2305 33.3897 23.3158 33.5219 23.4388 33.6149C23.4997 33.6609 23.5679 33.6959 23.6397 33.718C23.7115 33.74 23.7853 33.7486 23.857 33.7432C23.9288 33.7378 23.997 33.7187 24.0577 33.6867C24.1185 33.6548 24.1706 33.6108 24.2112 33.5572Z" fill="#070608"/>
<path d="M35.5059 33.5253C34.6753 32.9403 36.3459 31.7084 36.3572 33.3584C36.3572 33.4234 36.3328 33.4778 36.284 33.5215C36.0528 33.7265 35.7934 33.7278 35.5059 33.5253ZM35.9184 32.9046C35.9254 32.8875 35.9255 32.8683 35.9189 32.851C35.9122 32.8337 35.8992 32.8196 35.8826 32.8115C35.8659 32.8034 35.8468 32.8019 35.8291 32.8074C35.8114 32.8128 35.7964 32.8248 35.7872 32.8409C35.7059 32.9696 35.6941 33.1121 35.7516 33.2684C35.7691 33.3159 35.8028 33.3396 35.8528 33.3396H35.9334C36.0334 33.3396 36.049 33.3034 35.9803 33.2309C35.8953 33.1409 35.8747 33.0321 35.9184 32.9046Z" fill="#EBE1DA"/>
<path d="M24.2115 33.5572C24.171 33.6108 24.1188 33.6549 24.0581 33.6868C23.9973 33.7187 23.9291 33.7379 23.8574 33.7432C23.7857 33.7486 23.7118 33.74 23.6401 33.718C23.5683 33.6959 23.5 33.6609 23.4392 33.6149C23.3162 33.5219 23.2308 33.3897 23.2018 33.2474C23.1727 33.1051 23.2025 32.9643 23.2843 32.856C23.3249 32.8024 23.377 32.7584 23.4378 32.7265C23.4985 32.6945 23.5667 32.6754 23.6385 32.67C23.7102 32.6646 23.784 32.6732 23.8558 32.6952C23.9276 32.7173 23.9958 32.7523 24.0567 32.7983C24.1797 32.8913 24.265 33.0235 24.2941 33.1658C24.3231 33.3082 24.2934 33.4489 24.2115 33.5572ZM23.6973 33.0322C23.6223 33.0097 23.5854 33.0379 23.5867 33.1166C23.5904 33.2641 23.6711 33.3654 23.8286 33.4204C23.8848 33.4391 23.9173 33.4185 23.9261 33.3585C23.9486 33.1922 23.8723 33.0835 23.6973 33.0322Z" fill="#EBE1DA"/>
<path d="M35.9184 32.9047C35.8747 33.0322 35.8953 33.141 35.9803 33.231C36.0491 33.3035 36.0334 33.3397 35.9334 33.3397H35.8528C35.8028 33.3397 35.7691 33.316 35.7516 33.2685C35.6941 33.1122 35.7059 32.9697 35.7872 32.841C35.7964 32.8249 35.8114 32.8129 35.8291 32.8075C35.8468 32.802 35.8659 32.8034 35.8826 32.8115C35.8993 32.8196 35.9122 32.8338 35.9189 32.8511C35.9255 32.8684 35.9254 32.8876 35.9184 32.9047Z" fill="#754F41"/>
<path d="M23.6971 33.0319C23.8721 33.0832 23.9483 33.1919 23.9258 33.3582C23.9171 33.4182 23.8846 33.4388 23.8283 33.42C23.6708 33.365 23.5902 33.2638 23.5865 33.1163C23.5852 33.0375 23.6221 33.0094 23.6971 33.0319Z" fill="#754F41"/>
<path d="M13.6867 34.6877C13.4561 33.8777 14.1423 33.0077 15.0123 33.3508C15.8129 33.6677 16.0192 35.2708 16.6286 36.0939C16.6462 36.1176 16.657 36.1457 16.6597 36.1751C16.6625 36.2045 16.6572 36.2342 16.6443 36.261C16.6314 36.2877 16.6114 36.3106 16.5865 36.327C16.5616 36.3435 16.5327 36.353 16.5029 36.3545C15.4248 36.4014 14.0073 35.807 13.6867 34.6877Z" fill="#F98759"/>
<path d="M45.2595 33.4373C45.9795 32.9067 47.0988 33.5873 46.6113 34.6373C46.0663 35.8148 45.1301 36.4217 43.8026 36.4579C43.7771 36.4585 43.7519 36.4523 43.7297 36.4399C43.7074 36.4274 43.6889 36.4092 43.6761 36.3872C43.6633 36.3652 43.6566 36.3401 43.6567 36.3147C43.6569 36.2892 43.6639 36.2642 43.677 36.2423C44.0407 35.6436 44.3676 35.0154 44.6576 34.3579C44.8676 33.8854 45.0682 33.5786 45.2595 33.4373Z" fill="#ED6735"/>
<path d="M11.8226 34.1479C12.1864 36.2004 13.2326 37.5366 14.9613 38.1566C15.7363 38.4304 16.562 38.4079 17.4382 38.0891C17.5007 38.0666 17.5495 38.0841 17.5845 38.1416C19.0863 40.6954 21.2576 42.6904 24.0738 43.4873C24.0488 43.5323 24.0413 43.5779 24.0513 43.6241C24.0663 43.6866 24.0501 43.7404 24.0026 43.7854L23.1213 44.6254L23.0445 44.5991C22.982 44.5766 22.9263 44.5879 22.8776 44.6329C20.5676 46.7554 20.2376 50.9423 20.1307 53.8766C20.1305 53.8842 20.1322 53.8918 20.1358 53.8985C20.1394 53.9052 20.1447 53.9108 20.1512 53.9148C20.1576 53.9188 20.165 53.9211 20.1727 53.9213C20.1803 53.9215 20.1878 53.9197 20.1945 53.916C20.2395 53.891 20.277 53.8591 20.307 53.8204L20.3463 54.2235L21.4263 54.846C20.5201 54.6023 19.5895 54.2191 18.6345 53.6966C12.5145 50.3491 8.38322 45.3823 6.24072 38.796C6.33072 38.7948 6.37197 38.7398 6.36447 38.631C6.35947 38.5623 6.39134 38.5329 6.46009 38.5429L6.57072 38.5579C6.59947 38.5616 6.62447 38.5529 6.64572 38.5316C7.12197 38.0479 7.3001 37.5098 8.14385 37.4591C8.2026 37.4554 8.25635 37.436 8.3051 37.401C8.7351 37.0885 8.97447 36.8435 9.02322 36.666C9.15197 36.1998 9.43572 35.8729 9.87447 35.6854C9.93353 35.6596 9.98516 35.6189 10.0245 35.5673C10.3445 35.136 10.7476 34.8066 11.2338 34.5791C11.2938 34.5516 11.332 34.5054 11.3482 34.4404C11.4432 34.0554 11.6014 33.9579 11.8226 34.1479Z" fill="#67AA79"/>
<path d="M28.6829 37.1926C29.2323 37.0538 29.9317 35.9663 28.9848 35.9457C28.9714 35.9458 28.9584 35.9418 28.9474 35.934C28.9365 35.9263 28.9283 35.9154 28.9239 35.9027C28.9196 35.8901 28.9193 35.8764 28.9232 35.8635C28.927 35.8507 28.9348 35.8395 28.9454 35.8313C29.5342 35.3607 30.1211 35.9438 30.1811 36.5438C30.3161 37.922 28.0567 38.1207 28.5648 37.2807C28.5911 37.2357 28.6304 37.2063 28.6829 37.1926Z" fill="#FB9E50"/>
<path d="M28.6191 36.7085C28.8869 36.7888 29.1392 36.7365 29.1826 36.5917C29.2261 36.4469 29.0442 36.2644 28.7764 36.1841C28.5086 36.1037 28.2563 36.156 28.2128 36.3008C28.1694 36.4456 28.3513 36.6281 28.6191 36.7085Z" fill="#FCE8A3"/>
<path d="M20.7627 36.9415C20.154 37.204 19.789 37.5984 19.6677 38.1246C19.6527 38.1884 19.6633 38.2478 19.6996 38.3028C20.0058 38.7815 20.4602 39.0771 21.0627 39.1896C20.959 39.4446 20.6658 39.4334 20.1833 39.1559C20.1555 39.1402 20.1243 39.1314 20.0924 39.1301C20.0604 39.1288 20.0286 39.135 19.9996 39.1484C19.3471 39.4596 18.9252 38.3571 18.8127 37.9034C18.8045 37.8698 18.8035 37.835 18.8096 37.8014C18.8157 37.7677 18.829 37.736 18.8483 37.7084C19.2446 37.1334 19.7752 36.7321 20.4402 36.5046C20.4977 36.4846 20.549 36.4946 20.594 36.5346C20.6965 36.6271 20.7527 36.7628 20.7627 36.9415Z" fill="#FED987"/>
<path d="M40.0094 36.8046C41.4213 37.3277 41.7831 38.0289 40.2306 38.8071C39.0644 39.1858 35.8581 39.3939 35.4138 37.8696C35.3938 37.8046 35.4025 37.7427 35.44 37.6839C36.34 36.2627 38.6369 36.2871 40.0094 36.8046Z" fill="#F98759"/>
<path d="M21.0627 39.1893C20.4602 39.0768 20.0058 38.7812 19.6996 38.3025C19.6633 38.2475 19.6527 38.1881 19.6677 38.1243C19.789 37.5981 20.154 37.2037 20.7627 36.9412C21.9902 36.4112 23.1321 36.5643 24.1883 37.4006C24.6758 37.785 24.5296 38.3325 24.0458 38.6381C23.1671 39.1931 22.1727 39.3768 21.0627 39.1893Z" fill="#F99B63"/>
<path d="M33.0383 41.2091C31.9033 41.2516 30.8215 41.2484 29.7927 41.1997C29.484 41.1847 29.139 41.3228 28.7577 41.6141C28.7486 41.6209 28.7413 41.6298 28.7361 41.6399C28.731 41.6501 28.7282 41.6613 28.728 41.6727C28.7278 41.684 28.7302 41.6953 28.7351 41.7056C28.7399 41.7159 28.747 41.725 28.7559 41.7322C28.9959 41.9284 29.0184 42.0403 28.8234 42.0678C28.0346 41.7166 27.624 41.0703 27.5915 40.1291C27.589 40.0666 27.6146 40.0516 27.6683 40.0841C29.2865 41.0722 31.514 40.9559 33.2221 40.3447C33.2771 40.3247 33.3021 40.3441 33.2971 40.4028C33.2709 40.7028 33.1846 40.9716 33.0383 41.2091Z" fill="#891814"/>
<path d="M33.0384 41.2087C31.9696 42.3312 30.5646 42.6175 28.8234 42.0675C29.0184 42.04 28.9959 41.9281 28.7559 41.7318C28.747 41.7247 28.7399 41.7156 28.7351 41.7053C28.7303 41.695 28.7279 41.6837 28.728 41.6723C28.7282 41.6609 28.731 41.6497 28.7361 41.6396C28.7413 41.6294 28.7487 41.6206 28.7577 41.6137C29.139 41.3225 29.484 41.1843 29.7927 41.1993C30.8215 41.2481 31.9034 41.2512 33.0384 41.2087Z" fill="#CF3722"/>
<path d="M24.0741 43.4873C24.1641 43.5061 24.2122 43.5273 24.2185 43.5511C24.1885 43.5711 24.1672 43.5936 24.1547 43.6186C24.1484 43.6317 24.1452 43.6461 24.1455 43.6607C24.1457 43.6753 24.1493 43.6896 24.1561 43.7025C24.1628 43.7154 24.1725 43.7266 24.1843 43.7351C24.1961 43.7437 24.2097 43.7493 24.2241 43.7517L24.7566 43.8398C24.828 43.8509 24.8962 43.8799 24.9553 43.9242C25.4766 44.3198 26.0091 44.5879 26.5322 45.0436C27.3647 45.7698 28.3622 46.1723 29.5247 46.2511C29.5522 46.2798 29.5647 46.3517 29.5622 46.4667C29.561 46.5267 29.5903 46.5529 29.6503 46.5454L30.5672 46.4404C30.5977 46.4369 30.6272 46.4267 30.6534 46.4105C30.6796 46.3943 30.7021 46.3725 30.7191 46.3467L30.8222 46.1911C30.826 46.1848 30.8253 46.1798 30.8203 46.1761C30.8016 46.1573 30.7822 46.1386 30.7622 46.1198C30.726 46.0886 30.7197 46.0523 30.7435 46.0111C30.756 45.9873 30.7766 45.9686 30.8053 45.9548C31.2647 46.7123 31.861 46.3167 32.5491 45.9979C33.5953 45.5129 34.4941 44.8279 35.2453 43.9429C35.3253 43.8492 35.4366 43.7654 35.5791 43.6917C36.1991 43.6642 36.6335 43.9267 36.8822 44.4792C35.8885 46.1054 34.606 47.4848 33.0347 48.6173C32.9814 48.6559 32.9153 48.6722 32.8504 48.6628C32.7855 48.6533 32.7272 48.6188 32.6878 48.5667L31.5216 47.0311C31.4191 46.8973 31.3816 46.9136 31.4091 47.0798C31.4597 47.3873 31.5478 47.6986 31.5403 47.9873C31.4591 50.7286 31.4222 53.4942 31.4297 56.2842L30.5897 56.3386C30.6385 56.2786 30.6622 56.2136 30.661 56.1436C30.6585 56.0723 30.6216 56.0342 30.5503 56.0292C30.0866 55.9954 29.6603 55.8529 29.2716 55.6017C29.2592 55.5934 29.2448 55.5884 29.2299 55.5873C29.215 55.5862 29.2 55.5889 29.1863 55.5953C29.1726 55.6017 29.1607 55.6114 29.1517 55.6237C29.1426 55.636 29.1368 55.6503 29.1347 55.6654L29.0503 56.3123L28.6603 56.2954C28.6191 55.8317 28.601 55.5392 28.606 55.4179C28.6835 53.2654 28.7385 51.1129 28.771 48.9604C28.7803 48.3004 28.8835 47.7211 29.0428 47.1136C29.0468 47.0959 29.0448 47.0774 29.037 47.061C29.0292 47.0447 29.0161 47.0314 28.9999 47.0234C28.9836 47.0154 28.9652 47.0131 28.9474 47.0169C28.9297 47.0206 28.9138 47.0303 28.9022 47.0442C28.6041 47.4154 27.6235 48.8592 27.0797 48.5742C25.7072 47.8523 24.331 46.2286 23.3016 44.9348C23.2078 44.8748 23.1478 44.7717 23.1216 44.6254L24.0028 43.7854C24.0503 43.7404 24.0666 43.6867 24.0516 43.6242C24.0416 43.5779 24.0491 43.5323 24.0741 43.4873ZM29.4028 48.7729L30.6647 48.8217C30.6823 48.8225 30.6999 48.8196 30.7163 48.8131C30.7327 48.8066 30.7476 48.7966 30.76 48.7839C30.7724 48.7712 30.782 48.7559 30.7882 48.7392C30.7944 48.7224 30.797 48.7045 30.796 48.6867L30.7285 47.1061C30.7247 47.0411 30.6903 47.0104 30.6253 47.0142L29.6222 47.0892C29.5435 47.0954 29.4866 47.1336 29.4516 47.2036C29.2216 47.6561 29.1585 48.1392 29.2622 48.6529C29.2686 48.6859 29.286 48.7158 29.3115 48.7376C29.3371 48.7594 29.3693 48.7718 29.4028 48.7729ZM29.2435 49.4836L29.2135 50.7586C29.2132 50.7679 29.2148 50.7772 29.2182 50.786C29.2215 50.7947 29.2266 50.8027 29.233 50.8095C29.2394 50.8163 29.2472 50.8217 29.2557 50.8255C29.2643 50.8294 29.2735 50.8314 29.2828 50.8317L29.3166 50.8336C29.6803 50.8424 30.0298 50.8245 30.2882 50.7837C30.5467 50.743 30.6929 50.6826 30.6947 50.6161L30.7172 49.7011C30.7182 49.668 30.6836 49.6345 30.6154 49.6023C30.5473 49.5701 30.4468 49.5399 30.3199 49.5134C30.1929 49.4869 30.0419 49.4647 29.8756 49.448C29.7092 49.4313 29.5307 49.4204 29.3503 49.4161L29.3166 49.4142C29.3072 49.4139 29.2979 49.4155 29.2892 49.4189C29.2804 49.4222 29.2724 49.4273 29.2657 49.4337C29.2589 49.4402 29.2534 49.4479 29.2496 49.4564C29.2458 49.465 29.2437 49.4742 29.2435 49.4836ZM29.4722 51.7317C29.4497 51.7242 29.4272 51.7173 29.4047 51.7111C29.3422 51.6936 29.3116 51.7167 29.3128 51.7804L29.3203 52.6486C29.3203 52.7236 29.3547 52.7773 29.4235 52.8098C29.746 52.9636 30.0678 52.9779 30.3891 52.8529C30.4528 52.8279 30.4903 52.7823 30.5016 52.7161C30.6141 52.1161 30.1641 51.5573 29.5341 51.7336C29.5128 51.7398 29.4922 51.7392 29.4722 51.7317ZM30.3085 53.6536H29.5772C29.5388 53.6533 29.5007 53.6606 29.4651 53.6751C29.4296 53.6896 29.3972 53.7109 29.3698 53.7379C29.3425 53.7649 29.3207 53.797 29.3058 53.8324C29.2909 53.8678 29.2831 53.9058 29.2828 53.9442V54.7073C29.2823 54.8451 29.3459 54.9774 29.4594 55.0751C29.573 55.1729 29.7273 55.2281 29.8885 55.2286H29.9897C30.0695 55.2288 30.1485 55.2156 30.2223 55.1897C30.2961 55.1639 30.3632 55.1258 30.4198 55.0778C30.4764 55.0297 30.5214 54.9726 30.5521 54.9097C30.5829 54.8468 30.5988 54.7793 30.5991 54.7111V53.9479C30.5993 53.9095 30.592 53.8714 30.5775 53.8359C30.5631 53.8003 30.5417 53.7679 30.5147 53.7406C30.4878 53.7132 30.4557 53.6915 30.4203 53.6765C30.3849 53.6616 30.3469 53.6538 30.3085 53.6536Z" fill="#1F7F5B"/>
<path d="M24.2185 43.5508L27.6685 44.1358C27.7298 44.2845 27.8248 44.4114 27.9535 44.5164C28.5085 44.9795 29.3391 45.5177 29.5248 46.2508C28.3623 46.172 27.3648 45.7695 26.5323 45.0433C26.0091 44.5877 25.4766 44.3195 24.9554 43.9239C24.8963 43.8796 24.828 43.8506 24.7566 43.8395L24.2241 43.7514C24.2097 43.7491 24.1961 43.7434 24.1843 43.7348C24.1725 43.7263 24.1629 43.7151 24.1561 43.7022C24.1494 43.6893 24.1458 43.675 24.1455 43.6604C24.1453 43.6458 24.1484 43.6314 24.1548 43.6183C24.1673 43.5933 24.1885 43.5708 24.2185 43.5508Z" fill="#15483B"/>
<path d="M35.4516 43.5903L35.5791 43.6916C35.4366 43.7653 35.3253 43.8491 35.2453 43.9428C34.4941 44.8278 33.5953 45.5128 32.5491 45.9978C31.861 46.3166 31.2647 46.7122 30.8053 45.9547C30.7016 45.7572 30.7116 45.6178 30.8353 45.5366C31.3916 45.1716 31.9278 44.7635 32.4441 44.3122C32.6041 44.256 32.7178 44.1403 32.7853 43.9653L35.4516 43.5903Z" fill="#15483B"/>
<path d="M32.7853 43.9653C32.7178 44.1403 32.6041 44.256 32.4441 44.3122L31.3641 44.8147C31.3078 44.841 31.2485 44.8491 31.186 44.8391C30.2128 44.6928 29.0766 45.1785 28.2178 44.5428C28.126 44.4753 28.0528 44.4791 27.9535 44.5166C27.8247 44.4116 27.7297 44.2847 27.6685 44.136C29.406 44.2847 31.1116 44.2278 32.7853 43.9653Z" fill="#B7291B"/>
<path d="M32.4438 44.312C31.9275 44.7633 31.3912 45.1714 30.835 45.5364C30.7112 45.6176 30.7013 45.757 30.805 45.9545C30.7763 45.9683 30.7556 45.987 30.7431 46.0108C30.7194 46.052 30.7256 46.0883 30.7619 46.1195C30.7819 46.1383 30.8012 46.157 30.82 46.1758C30.825 46.1795 30.8256 46.1845 30.8219 46.1908L30.7188 46.3464C30.7017 46.3722 30.6793 46.394 30.6531 46.4102C30.6268 46.4264 30.5974 46.4366 30.5669 46.4401L29.65 46.5451C29.59 46.5526 29.5606 46.5264 29.5619 46.4664C29.5644 46.3514 29.5519 46.2795 29.5244 46.2508C29.3388 45.5176 28.5081 44.9795 27.9531 44.5164C28.0525 44.4789 28.1256 44.4751 28.2175 44.5426C29.0763 45.1783 30.2125 44.6926 31.1856 44.8389C31.2481 44.8489 31.3075 44.8408 31.3638 44.8145L32.4438 44.312Z" fill="#B79623"/>
<path d="M36.8822 44.479C37.5997 45.0015 38.186 45.6509 38.641 46.4271L40.7129 51.4071C40.7204 51.4234 40.7229 51.4403 40.7204 51.4578C40.7079 51.5328 40.7147 51.539 40.741 51.4765C40.551 51.614 40.4047 51.7721 40.3022 51.9509L38.8529 53.4396C38.7854 53.5096 38.7472 53.4959 38.7385 53.3984L38.3147 48.3659C38.3147 48.3584 38.3118 48.3513 38.3065 48.346C38.3012 48.3407 38.2941 48.3378 38.2866 48.3378C38.2792 48.3378 38.272 48.3407 38.2667 48.346C38.2615 48.3513 38.2585 48.3584 38.2585 48.3659L37.951 54.9621L35.7422 55.6128C34.3647 55.9378 32.9272 56.1615 31.4297 56.284C31.4222 53.494 31.4591 50.7284 31.5404 47.9871C31.5479 47.6984 31.4597 47.3871 31.4091 47.0796C31.3816 46.9134 31.4191 46.8971 31.5216 47.0309L32.6879 48.5665C32.7272 48.6186 32.7856 48.6531 32.8504 48.6626C32.9153 48.6721 32.9815 48.6557 33.0347 48.6171C34.606 47.4846 35.8885 46.1053 36.8822 44.479Z" fill="#54B685"/>
<path d="M23.1215 44.6254C23.1478 44.7716 23.2078 44.8748 23.3015 44.9348C22.1678 46.1348 21.4753 47.521 21.224 49.0935C21.2203 49.116 21.2065 49.1298 21.1828 49.1348C21.164 49.1373 21.1496 49.1435 21.1396 49.1535C21.0659 49.2248 21.0271 49.2691 21.0234 49.2866L20.6446 51.3716L20.3071 53.8204C20.2771 53.8591 20.2396 53.891 20.1946 53.916C20.1879 53.9197 20.1804 53.9215 20.1728 53.9213C20.1652 53.9211 20.1578 53.9188 20.1513 53.9148C20.1448 53.9108 20.1395 53.9052 20.136 53.8985C20.1324 53.8918 20.1306 53.8842 20.1309 53.8766C20.2378 50.9423 20.5678 46.7554 22.8778 44.6329C22.9265 44.5879 22.9821 44.5766 23.0446 44.5991L23.1215 44.6254Z" fill="#9CC49A"/>
<path d="M23.3014 44.9346C24.3308 46.2283 25.707 47.8521 27.0795 48.5739C27.6233 48.8589 28.6039 47.4152 28.902 47.0439C28.9136 47.03 28.9295 47.0204 28.9473 47.0166C28.965 47.0129 28.9834 47.0152 28.9997 47.0232C29.0159 47.0312 29.029 47.0445 29.0368 47.0608C29.0446 47.0772 29.0467 47.0957 29.0427 47.1133C28.8833 47.7208 28.7802 48.3002 28.7708 48.9602C28.7383 51.1127 28.6833 53.2652 28.6058 55.4177C28.6008 55.5389 28.6189 55.8314 28.6602 56.2952C26.7602 56.1939 24.8864 55.8839 23.0389 55.3652L22.647 49.6239C22.647 49.6189 22.6445 49.6152 22.6395 49.6127C22.6233 49.6064 22.607 49.6064 22.5908 49.6127C22.5708 49.6202 22.5601 49.6352 22.5589 49.6577L22.3189 52.8864C22.3127 52.9602 22.282 52.9721 22.227 52.9221L20.8977 51.7108L20.6445 51.3714L21.0233 49.2864C21.027 49.2689 21.0658 49.2246 21.1395 49.1533C21.1495 49.1433 21.1639 49.1371 21.1827 49.1346C21.2064 49.1296 21.2201 49.1158 21.2239 49.0933C21.4751 47.5208 22.1677 46.1346 23.3014 44.9346Z" fill="#54B685"/>
<path d="M38.6406 46.4272C39.8619 48.571 40.84 50.8179 41.575 53.1679C41.62 53.3122 41.5881 53.3141 41.4588 53.3573L40.7406 51.4766C40.7144 51.5391 40.7075 51.5329 40.72 51.4579C40.7225 51.4404 40.72 51.4235 40.7125 51.4072L38.6406 46.4272Z" fill="#9CC49A"/>
<path d="M30.6648 48.8215L29.4029 48.7727C29.3693 48.7716 29.3371 48.7592 29.3115 48.7374C29.286 48.7156 29.2686 48.6857 29.2622 48.6527C29.1585 48.139 29.2216 47.6559 29.4516 47.2034C29.4866 47.1334 29.5435 47.0952 29.6223 47.089L30.6254 47.014C30.6904 47.0102 30.7247 47.0409 30.7285 47.1059L30.796 48.6865C30.7971 48.7043 30.7944 48.7222 30.7882 48.739C30.782 48.7557 30.7724 48.7709 30.76 48.7837C30.7477 48.7964 30.7328 48.8064 30.7164 48.8129C30.6999 48.8194 30.6824 48.8223 30.6648 48.8215Z" fill="#35A184"/>
<path d="M40.3019 51.951C40.4782 51.9623 39.4901 52.971 39.4169 53.0498C38.9426 53.5541 38.9238 53.991 38.9144 54.6435L37.9507 54.9623L38.2582 48.366C38.2582 48.3586 38.2612 48.3514 38.2664 48.3461C38.2717 48.3409 38.2788 48.3379 38.2863 48.3379C38.2938 48.3379 38.3009 48.3409 38.3062 48.3461C38.3115 48.3514 38.3144 48.3586 38.3144 48.366L38.7382 53.3985C38.7469 53.496 38.7851 53.5098 38.8526 53.4398L40.3019 51.951Z" fill="#15483B"/>
<path d="M29.2434 49.4835C29.2436 49.4741 29.2457 49.4649 29.2495 49.4563C29.2533 49.4478 29.2588 49.4401 29.2656 49.4336C29.2724 49.4272 29.2804 49.4221 29.2891 49.4188C29.2978 49.4154 29.3072 49.4138 29.3165 49.4141L29.3503 49.416C29.5307 49.4203 29.7091 49.4312 29.8755 49.4479C30.0419 49.4646 30.1928 49.4868 30.3198 49.5133C30.4468 49.5398 30.5472 49.57 30.6154 49.6022C30.6836 49.6344 30.7181 49.6679 30.7171 49.701L30.6946 50.616C30.6928 50.6825 30.5466 50.7429 30.2882 50.7836C30.0298 50.8244 29.6803 50.8423 29.3165 50.8335L29.2828 50.8316C29.2734 50.8313 29.2642 50.8293 29.2556 50.8255C29.2471 50.8216 29.2394 50.8162 29.2329 50.8094C29.2265 50.8026 29.2214 50.7946 29.2181 50.7859C29.2147 50.7771 29.2132 50.7678 29.2134 50.7585L29.2434 49.4835Z" fill="#35A184"/>
<path d="M23.0392 55.3651L21.4267 54.8457L20.3467 54.2232C20.4192 54.1032 20.4829 54.0576 20.5379 54.0863C21.0317 54.3451 21.5648 54.4782 22.1373 54.4857C22.2111 54.487 22.2473 54.4507 22.2461 54.377L22.2386 53.3588C22.2386 53.2924 22.2147 53.2279 22.1711 53.177C21.9423 52.9051 20.8342 51.9676 20.8979 51.7107L22.2273 52.922C22.2823 52.972 22.3129 52.9601 22.3192 52.8863L22.5592 49.6576C22.5604 49.6351 22.5711 49.6201 22.5911 49.6126C22.6073 49.6063 22.6236 49.6063 22.6398 49.6126C22.6448 49.6151 22.6473 49.6188 22.6473 49.6238L23.0392 55.3651Z" fill="#15483B"/>
<path d="M20.6446 51.3716L20.8977 51.711C20.834 51.9678 21.9421 52.9053 22.1709 53.1772C22.2145 53.2281 22.2384 53.2926 22.2384 53.3591L22.2459 54.3772C22.2471 54.451 22.2109 54.4872 22.1371 54.486C21.5646 54.4785 21.0315 54.3453 20.5378 54.0866C20.4828 54.0578 20.419 54.1035 20.3465 54.2235L20.3071 53.8203L20.6446 51.3716Z" fill="#1E8B75"/>
<path d="M40.7408 51.4766L41.4589 53.3572C41.5114 53.5047 41.5595 53.5678 41.6033 53.5466C40.7245 54.0253 39.8283 54.3909 38.9146 54.6434C38.9239 53.9909 38.9427 53.5541 39.417 53.0497C39.4902 52.9709 40.4783 51.9622 40.302 51.9509C40.4045 51.7722 40.5508 51.6141 40.7408 51.4766Z" fill="#1E8B75"/>
<path d="M29.5338 51.7332C30.1638 51.557 30.6138 52.1157 30.5013 52.7157C30.49 52.782 30.4525 52.8276 30.3888 52.8526C30.0675 52.9776 29.7457 52.9632 29.4232 52.8095C29.3544 52.777 29.32 52.7232 29.32 52.6482L29.3125 51.7801C29.3113 51.7163 29.3419 51.6932 29.4044 51.7107C29.4269 51.717 29.4494 51.7238 29.4719 51.7313C29.4919 51.7388 29.5125 51.7395 29.5338 51.7332Z" fill="#35A184"/>
<path d="M30.3083 53.6533C30.3467 53.6536 30.3847 53.6614 30.4201 53.6763C30.4555 53.6912 30.4876 53.713 30.5146 53.7403C30.5416 53.7677 30.563 53.8 30.5774 53.8356C30.5919 53.8712 30.5992 53.9093 30.599 53.9477V54.7108C30.5987 54.779 30.5828 54.8465 30.552 54.9094C30.5212 54.9724 30.4763 55.0295 30.4197 55.0775C30.3631 55.1256 30.296 55.1636 30.2222 55.1895C30.1484 55.2154 30.0694 55.2286 29.9896 55.2283H29.8883C29.7272 55.2278 29.5729 55.1726 29.4593 55.0749C29.3457 54.9771 29.2822 54.8448 29.2827 54.7071V53.944C29.283 53.9055 29.2908 53.8676 29.3057 53.8322C29.3206 53.7968 29.3424 53.7647 29.3697 53.7377C29.397 53.7107 29.4294 53.6893 29.465 53.6749C29.5006 53.6604 29.5387 53.6531 29.5771 53.6533H30.3083Z" fill="#35A184"/>
<path d="M30.5897 56.3384C30.0522 56.4259 29.539 56.4172 29.0503 56.3122L29.1347 55.6653C29.1368 55.6502 29.1426 55.6359 29.1516 55.6236C29.1606 55.6113 29.1726 55.6015 29.1862 55.5952C29.1999 55.5888 29.2149 55.586 29.2299 55.5872C29.2448 55.5883 29.2591 55.5932 29.2715 55.6016C29.6603 55.8528 30.0865 55.9953 30.5503 56.0291C30.6215 56.0341 30.6584 56.0722 30.6609 56.1434C30.6622 56.2134 30.6384 56.2784 30.5897 56.3384Z" fill="#35A184"/>
</svg>
